<?xml version="1.0" encoding="utf-8"?>
<!-- Generator: Adobe Illustrator 27.9.0, SVG Export Plug-In . SVG Version: 6.00 Build 0)  -->
<svg version="1.1" id="Capa_1" xmlns="http://www.w3.org/2000/svg" xmlns:xlink="http://www.w3.org/1999/xlink" x="0px" y="0px"
	 viewBox="0 0 24 24" style="enable-background:new 0 0 24 24;" xml:space="preserve">
<style type="text/css">
	.st0{fill:none;stroke:#2B2D42;stroke-width:2;stroke-linecap:round;stroke-linejoin:round;}
</style>
<g>
	<path class="st0" d="M6.7,9.7c0-0.8,0.3-1.6,0.9-2.1C8.2,7.1,9,6.7,9.7,6.7l1.5,3l-1.2,1.7c0.5,1.1,1.3,2,2.4,2.4l1.7-1.2l3,1.5
		c0,0.8-0.3,1.6-0.9,2.1c-0.6,0.6-1.3,0.9-2.1,0.9c-2,0-3.9-0.8-5.3-2.2C7.5,13.6,6.7,11.7,6.7,9.7z"/>
	<path class="st0" d="M7.5,19.8c1.9,1.1,4.1,1.5,6.3,1c2.1-0.4,4.1-1.6,5.4-3.3c1.3-1.7,2-3.9,1.8-6.1c-0.1-2.2-1.1-4.2-2.6-5.8
		c-1.5-1.5-3.6-2.5-5.8-2.6c-2.2-0.1-4.3,0.5-6.1,1.8c-1.7,1.3-2.9,3.2-3.3,5.4c-0.4,2.1-0.1,4.4,1,6.3L3,20c0,0.1-0.1,0.3,0,0.4
		c0,0.1,0.1,0.3,0.2,0.4c0.1,0.1,0.2,0.2,0.4,0.2c0.1,0,0.3,0,0.4,0L7.5,19.8z"/>
</g>
</svg>
