<svg width="24" height="25" viewBox="0 0 24 25" fill="none" xmlns="http://www.w3.org/2000/svg">
<g clip-path="url(#clip0_4_484)">
<path d="M15 12.3999L10.5 9.3999V15.3999L15 12.3999Z" stroke="#2B2D42" stroke-width="2" stroke-linecap="round" stroke-linejoin="round"/>
<path d="M2.25 12.4C2.25 15.2041 2.53781 16.8484 2.75719 17.6941C2.8152 17.9241 2.92694 18.137 3.08322 18.3155C3.23951 18.4939 3.43589 18.6328 3.65625 18.7206C6.79875 19.9328 12 19.9 12 19.9C12 19.9 17.2012 19.9328 20.3438 18.7206C20.5648 18.6333 20.7619 18.4946 20.9189 18.3162C21.0759 18.1377 21.1882 17.9245 21.2466 17.6941C21.4659 16.8503 21.7537 15.2041 21.7537 12.4C21.7537 9.59593 21.4659 7.95155 21.2466 7.10593C21.1888 6.87467 21.0768 6.6605 20.9198 6.48116C20.7628 6.30182 20.5653 6.16248 20.3438 6.07468C17.2012 4.86718 12 4.89999 12 4.89999C12 4.89999 6.79875 4.86718 3.65625 6.07936C3.43466 6.16716 3.23718 6.30651 3.08017 6.48584C2.92317 6.66518 2.81116 6.87936 2.75344 7.11061C2.53781 7.95061 2.25 9.59593 2.25 12.4Z" stroke="#2B2D42" stroke-width="2" stroke-linecap="round" stroke-linejoin="round"/>
</g>
<defs>
<clipPath id="clip0_4_484">
<rect width="24" height="24" fill="white" transform="translate(0 0.399902)"/>
</clipPath>
</defs>
</svg>
