<?xml version="1.0" encoding="utf-8"?>
<!-- Generator: Adobe Illustrator 27.9.0, SVG Export Plug-In . SVG Version: 6.00 Build 0)  -->
<svg version="1.1" id="Capa_1" xmlns="http://www.w3.org/2000/svg" xmlns:xlink="http://www.w3.org/1999/xlink" x="0px" y="0px"
	 viewBox="0 0 112 112" style="enable-background:new 0 0 112 112;" xml:space="preserve">
<style type="text/css">
	.st0{fill:#333333;}
</style>
<g id="Symbols">
	<g id="Blocs_x2F_Mobile_x2F_Header-blanc-Menú-i-buscador" transform="translate(-336.000000, -20.000000)">
		<g id="Group" transform="translate(337.000000, 21.000000)">
			<g id="Line-7">
				<path class="st0" d="M93.2,28.3H16.8c-2.3,0-3.8-1.5-3.8-3.8s1.5-3.8,3.8-3.8h76.4c2.3,0,3.8,1.5,3.8,3.8S95.5,28.3,93.2,28.3z"
					/>
			</g>
			<g id="Line-7-Copy">
				<path class="st0" d="M93.2,58.8H16.8c-2.3,0-3.8-1.5-3.8-3.8s1.5-3.8,3.8-3.8h76.4c2.3,0,3.8,1.5,3.8,3.8S95.5,58.8,93.2,58.8z"
					/>
			</g>
			<g id="Line-7-Copy-2">
				<path class="st0" d="M93.2,89.4H16.8c-2.3,0-3.8-1.5-3.8-3.8s1.5-3.8,3.8-3.8h76.4c2.3,0,3.8,1.5,3.8,3.8S95.5,89.4,93.2,89.4z"
					/>
			</g>
		</g>
	</g>
</g>
</svg>
