<?xml version="1.0" encoding="utf-8"?>
<!-- Generator: Adobe Illustrator 27.9.0, SVG Export Plug-In . SVG Version: 6.00 Build 0)  -->
<svg version="1.1" id="Capa_1" xmlns="http://www.w3.org/2000/svg" xmlns:xlink="http://www.w3.org/1999/xlink" x="0px" y="0px"
	 viewBox="0 0 24 24" style="enable-background:new 0 0 24 24;" xml:space="preserve">
<style type="text/css">
	.st0{fill:none;stroke:#2B2D42;stroke-width:2;stroke-linecap:round;stroke-linejoin:round;}
	.st1{fill:#2B2D42;}
</style>
<g>
	<path class="st0" d="M20.2,3H3.8C3.3,3,3,3.3,3,3.7v16.5C3,20.7,3.3,21,3.8,21h16.5c0.4,0,0.8-0.3,0.8-0.8V3.7
		C21,3.3,20.7,3,20.2,3z"/>
	<path class="st0" d="M11.2,10.5v6"/>
	<path class="st0" d="M8.2,10.5v6"/>
	<path class="st0" d="M11.2,13.1c0-0.7,0.3-1.4,0.8-1.9c0.5-0.5,1.2-0.8,1.9-0.8s1.4,0.3,1.9,0.8c0.5,0.5,0.8,1.2,0.8,1.9v3.4"/>
	<path class="st1" d="M8.2,9c0.6,0,1.1-0.5,1.1-1.1S8.9,6.8,8.2,6.8S7.1,7.3,7.1,7.9S7.6,9,8.2,9z"/>
</g>
</svg>
