<?xml version="1.0" encoding="utf-8"?>
<!-- Generator: Adobe Illustrator 27.9.0, SVG Export Plug-In . SVG Version: 6.00 Build 0)  -->
<svg version="1.1" id="Capa_1" xmlns="http://www.w3.org/2000/svg" xmlns:xlink="http://www.w3.org/1999/xlink" x="0px" y="0px"
	 viewBox="0 0 371 217.4" style="enable-background:new 0 0 371 217.4;" xml:space="preserve">
<style type="text/css">
	.st0{fill:#FF1300;}
</style>
<g>
	<path class="st0" d="M87.1,87.5V0.4H0c20.8,5.9,39.7,17,54.9,32.2C70.2,47.8,81.2,66.8,87.1,87.5z"/>
	<path class="st0" d="M0,130.8v87h87.1c-20.8-5.8-39.7-16.9-54.9-32.2C16.9,170.4,5.9,151.5,0,130.8z"/>
	<path class="st0" d="M141.7,130.8v87h87.1c-20.8-5.8-39.7-16.9-54.9-32.2C158.6,170.4,147.5,151.5,141.7,130.8z"/>
	<path class="st0" d="M283.9,217.8H371v-87c-5.8,20.8-16.8,39.7-32.1,55C323.6,201,304.7,212.1,283.9,217.8z"/>
	<path class="st0" d="M228.8,87.5V0.4h-87.1c20.8,5.9,39.7,16.9,54.9,32.2S222.9,66.7,228.8,87.5z"/>
</g>
</svg>
