<svg width="280" height="39" viewBox="0 0 280 39" fill="none" xmlns="http://www.w3.org/2000/svg">
<path d="M12.88 13.92V1.04004H0C3.06852 1.90751 5.86354 3.54688 8.11835 5.80169C10.3732 8.0565 12.0125 10.8515 12.88 13.92Z" fill="#FF1300"/>
<path d="M0 20.3198V33.1898H12.88C9.81134 32.3259 7.01571 30.6889 4.7606 28.4355C2.50549 26.1822 0.866349 23.3878 0 20.3198Z" fill="#FF1300"/>
<path d="M20.9502 20.3198V33.1898H33.8302C30.7615 32.3259 27.9659 30.6889 25.7108 28.4355C23.4557 26.1822 21.8165 23.3878 20.9502 20.3198Z" fill="#FF1300"/>
<path d="M41.98 33.1898H54.86V20.3198C54.006 23.394 52.371 26.1949 50.114 28.4501C47.857 30.7054 45.0548 32.3382 41.98 33.1898Z" fill="#FF1300"/>
<path d="M33.8302 13.92V1.04004H20.9502C24.0196 1.90577 26.8155 3.54455 29.0706 5.79962C31.3257 8.0547 32.9645 10.8506 33.8302 13.92Z" fill="#FF1300"/>
<path d="M62.7798 0.959961H63.5798V8.82996H62.7798V0.959961Z" fill="#FF1300"/>
<path d="M69.89 7.44012C69.8814 7.89484 69.9082 8.34954 69.97 8.80012H69.26V7.80012C69.1124 8.15834 68.8544 8.46012 68.5235 8.66156C68.1925 8.86299 67.806 8.95358 67.42 8.92012C65.98 8.92012 65.5 7.92012 65.5 6.76012V3.16012H66.22V6.60012C66.22 7.60012 66.62 8.36012 67.58 8.36012C68.85 8.36012 69.25 7.24012 69.25 6.28012V3.12012H69.97V7.44012H69.89Z" fill="#FF1300"/>
<path d="M71.4097 7.91992C71.8795 8.15818 72.4037 8.26855 72.9297 8.23992C73.231 8.27138 73.5327 8.18475 73.7715 7.99824C74.0102 7.81173 74.1673 7.53989 74.2097 7.23992C74.2097 5.87992 71.4897 6.11992 71.4897 4.43992C71.4897 3.31992 72.3697 2.91992 73.3297 2.91992C73.8178 2.93959 74.3015 3.02021 74.7697 3.15992L74.6897 3.79992C74.2804 3.64528 73.8471 3.56403 73.4097 3.55992C72.6897 3.55992 72.2097 3.79992 72.2097 4.55992C72.2097 5.55992 75.0097 5.55992 75.0097 7.35992C75.0097 8.55992 73.8897 8.95992 73.0097 8.95992C72.467 8.96506 71.9269 8.88405 71.4097 8.71992V7.91992Z" fill="#FF1300"/>
<path d="M79.6499 0.959961H80.4499V8.07996H83.5699V8.71996H79.6499V0.959961Z" fill="#FF1300"/>
<path d="M87.9696 7.82967C87.7852 8.15012 87.5157 8.41322 87.1909 8.58974C86.8661 8.76627 86.4987 8.84932 86.1296 8.82967C84.5296 8.82967 84.2896 7.70967 84.2896 7.22967C84.2896 5.30967 86.2896 5.22967 87.8096 5.22967H87.9696V4.98967C87.9696 3.98967 87.6496 3.54967 86.6896 3.54967C86.0976 3.56241 85.5189 3.72775 85.0096 4.02967V3.30967C85.5337 3.05559 86.1071 2.91908 86.6896 2.90967C88.1296 2.90967 88.6896 3.54967 88.6896 5.06967V7.54967C88.671 7.9514 88.6979 8.35394 88.7696 8.74966H87.9696V7.82967ZM87.8896 5.90967H87.6496C86.4496 5.90967 85.0096 6.06966 85.0096 7.26966C85.0096 7.98967 85.5696 8.26966 86.2096 8.26966C87.8896 8.26966 87.8896 6.82967 87.8896 6.18967V5.90967Z" fill="#FF1300"/>
<path d="M90.3398 0.399902H91.0598V4.0799C91.2018 3.73444 91.4472 3.44136 91.7623 3.24084C92.0774 3.04032 92.4468 2.94219 92.8198 2.9599C94.4998 2.9599 95.1398 4.2399 95.1398 5.9599C95.1398 7.6799 94.3398 8.9599 92.8198 8.9599C92.461 8.98225 92.1035 8.89957 91.7909 8.72197C91.4784 8.54438 91.2243 8.27957 91.0598 7.9599V8.8399H90.3398V0.399902ZM92.7398 3.5199C91.4598 3.5199 91.0598 4.8799 91.0598 5.9199C91.0598 6.9599 91.4598 8.3199 92.7398 8.3199C94.0198 8.3199 94.4198 7.0399 94.4198 5.9199C94.4198 4.7999 94.0998 3.5199 92.7398 3.5199Z" fill="#FF1300"/>
<path d="M99.0799 2.95996C100.92 2.95996 101.72 4.39996 101.72 5.95996C101.72 7.51996 100.92 8.95996 99.0799 8.95996C97.2399 8.95996 96.4399 7.51996 96.4399 5.95996C96.4399 4.39996 97.2399 2.95996 99.0799 2.95996ZM99.0799 8.31996C100.28 8.31996 101 7.31996 101 5.91996C101 4.51996 100.36 3.51996 99.0799 3.51996C97.7999 3.51996 97.1599 4.51996 97.1599 5.91996C97.1599 7.31996 97.7999 8.31996 99.0799 8.31996Z" fill="#FF1300"/>
<path d="M103.16 4.31996C103.181 3.89164 103.154 3.46225 103.08 3.03996H103.8V4.15996C103.886 3.83536 104.07 3.54552 104.328 3.33054C104.586 3.11556 104.905 2.98606 105.24 2.95996C105.4 2.95996 105.64 2.95996 105.72 3.03996V3.75996C105.568 3.69779 105.404 3.67046 105.24 3.67996C104.12 3.67996 103.8 4.95996 103.8 5.99996V8.82996H103.16V4.31996Z" fill="#FF1300"/>
<path d="M107.8 1.6001H107.08V0.600098H107.8V1.6001ZM107.08 3.1201H107.8V8.8301H107.08V3.1201Z" fill="#FF1300"/>
<path d="M109.34 7.91992C109.81 8.15818 110.334 8.26855 110.86 8.23992C111.161 8.27138 111.463 8.18475 111.702 7.99824C111.94 7.81173 112.097 7.53989 112.14 7.23992C112.14 5.87992 109.42 6.11992 109.42 4.43992C109.42 3.31992 110.3 2.91992 111.26 2.91992C111.748 2.93959 112.232 3.02021 112.7 3.15992L112.62 3.79992C112.211 3.64528 111.777 3.56403 111.34 3.55992C110.62 3.55992 110.14 3.79992 110.14 4.55992C110.14 5.55992 112.94 5.55992 112.94 7.35992C112.94 8.55992 111.82 8.95992 110.94 8.95992C110.397 8.96506 109.857 8.88405 109.34 8.71992V7.91992Z" fill="#FF1300"/>
<path d="M117.34 7.75988C117.859 8.10704 118.477 8.27556 119.1 8.23988C119.324 8.26903 119.552 8.249 119.768 8.18119C119.984 8.11337 120.183 7.9994 120.35 7.84718C120.517 7.69496 120.65 7.50813 120.738 7.29965C120.826 7.09118 120.867 6.86605 120.86 6.63988C120.86 5.11988 117.26 4.87988 117.26 2.87988C117.26 1.59988 118.38 0.879883 119.74 0.879883C120.254 0.900341 120.764 0.98089 121.26 1.11988L121.1 1.83988C120.645 1.64043 120.156 1.53172 119.66 1.51988C118.86 1.51988 117.98 1.83988 117.98 2.87988C117.98 4.47988 121.58 4.47988 121.58 6.71988C121.572 7.03954 121.498 7.3541 121.362 7.64365C121.227 7.93319 121.032 8.19142 120.792 8.40198C120.551 8.61254 120.269 8.77085 119.964 8.86688C119.659 8.96292 119.338 8.99459 119.02 8.95988C118.418 8.96994 117.82 8.8612 117.26 8.63988L117.34 7.75988Z" fill="#FF1300"/>
<path d="M123.15 3.11993H123.87L123.79 4.11993C123.946 3.76218 124.203 3.45793 124.53 3.2447C124.857 3.03147 125.24 2.91857 125.63 2.91993C127.31 2.91993 127.95 4.19993 127.95 5.91993C127.95 7.63993 127.15 8.91993 125.63 8.91993C125.256 8.94371 124.884 8.84807 124.567 8.64678C124.251 8.44549 124.007 8.14896 123.87 7.79993V11.1599H123.15V3.11993ZM125.55 3.51993C124.27 3.51993 123.87 4.87993 123.87 5.91993C123.87 6.95993 124.27 8.31994 125.55 8.31994C126.83 8.31994 127.23 7.03993 127.23 5.91993C127.23 4.79993 126.91 3.51993 125.55 3.51993Z" fill="#FF1300"/>
<path d="M132.91 7.82967C132.726 8.15012 132.456 8.41322 132.131 8.58974C131.807 8.76627 131.439 8.84932 131.07 8.82967C129.47 8.82967 129.23 7.70967 129.23 7.22967C129.23 5.30967 131.23 5.22967 132.75 5.22967H132.91V4.98967C132.91 3.98967 132.59 3.54967 131.63 3.54967C131.038 3.56241 130.459 3.72775 129.95 4.02967V3.30967C130.474 3.05559 131.048 2.91908 131.63 2.90967C133.07 2.90967 133.63 3.54967 133.63 5.06967V7.54967C133.616 7.95134 133.643 8.35335 133.71 8.74966H132.99V7.82967H132.91ZM132.83 5.90967H132.59C131.39 5.90967 129.95 6.06966 129.95 7.26966C129.95 7.98967 130.51 8.26966 131.15 8.26966C132.83 8.26966 132.83 6.82967 132.83 6.18967V5.90967Z" fill="#FF1300"/>
<path d="M136.03 1.6001H135.34V0.600098H136.06L136.03 1.6001ZM135.34 3.1201H136.06V8.8301H135.34V3.1201Z" fill="#FF1300"/>
<path d="M137.95 4.39989C137.958 3.94517 137.931 3.4905 137.87 3.03989H138.59V4.03989C138.737 3.68167 138.995 3.37989 139.326 3.17845C139.657 2.97701 140.044 2.88643 140.43 2.91989C141.87 2.91989 142.35 3.91989 142.35 5.07989V8.82989H141.63V5.27989C141.63 4.27989 141.23 3.51989 140.27 3.51989C138.99 3.51989 138.59 4.63989 138.59 5.59989V8.71989H137.87V4.39989H137.95Z" fill="#FF1300"/>
<path d="M153.06 5.20008H151.23V4.56008H153.78V8.40008C153.019 8.71444 152.203 8.87748 151.38 8.88008C150.849 8.91715 150.316 8.83835 149.819 8.64916C149.322 8.45996 148.872 8.16489 148.5 7.78438C148.128 7.40388 147.843 6.94705 147.665 6.44556C147.487 5.94406 147.421 5.40989 147.47 4.88008C147.427 4.35175 147.499 3.82051 147.679 3.3221C147.859 2.82369 148.144 2.36969 148.515 1.99068C148.885 1.61166 149.333 1.31643 149.827 1.12485C150.321 0.933281 150.851 0.849814 151.38 0.880076C152.095 0.849795 152.807 0.98676 153.46 1.28008L153.38 2.00008C152.753 1.71474 152.068 1.57786 151.38 1.60008C150.943 1.5874 150.508 1.667 150.104 1.83369C149.7 2.00038 149.335 2.25041 149.034 2.56747C148.733 2.88452 148.502 3.26148 148.357 3.67374C148.211 4.08601 148.154 4.52432 148.19 4.96008C148.136 5.39612 148.179 5.83858 148.316 6.25619C148.452 6.67379 148.678 7.05636 148.979 7.37685C149.279 7.69734 149.647 7.94793 150.054 8.11092C150.462 8.2739 150.901 8.34531 151.34 8.32008C151.916 8.33803 152.49 8.22877 153.02 8.00007L153.06 5.20008Z" fill="#2B2D42"/>
<path d="M155.86 0.399902H156.58V8.8299H155.86V0.399902Z" fill="#2B2D42"/>
<path d="M160.66 2.95996C162.5 2.95996 163.3 4.39996 163.3 5.95996C163.3 7.51996 162.5 8.95996 160.66 8.95996C158.82 8.95996 158.02 7.51996 158.02 5.95996C158.02 4.39996 158.82 2.95996 160.66 2.95996ZM160.66 8.31996C161.86 8.31996 162.58 7.31996 162.58 5.91996C162.58 4.51996 161.94 3.51996 160.66 3.51996C159.38 3.51996 158.74 4.51996 158.74 5.91996C158.74 7.31996 159.46 8.31996 160.66 8.31996Z" fill="#2B2D42"/>
<path d="M164.74 0.399902H165.46V4.0799C165.602 3.73444 165.847 3.44136 166.162 3.24084C166.477 3.04032 166.847 2.94219 167.22 2.9599C168.9 2.9599 169.54 4.2399 169.54 5.9599C169.54 7.6799 168.74 8.9599 167.22 8.9599C166.861 8.98225 166.503 8.89957 166.191 8.72197C165.878 8.54438 165.624 8.27957 165.46 7.9599V8.8399H164.74V0.399902ZM167.14 3.5199C165.86 3.5199 165.46 4.8799 165.46 5.9199C165.46 6.9599 165.86 8.3199 167.14 8.3199C168.42 8.3199 168.82 7.0399 168.82 5.9199C168.82 4.7999 168.5 3.5199 167.14 3.5199Z" fill="#2B2D42"/>
<path d="M174.5 7.82967C174.316 8.15012 174.046 8.41322 173.721 8.58974C173.396 8.76627 173.029 8.84932 172.66 8.82967C171.06 8.82967 170.82 7.70967 170.82 7.22967C170.82 5.30967 172.82 5.22967 174.34 5.22967H174.5V4.98967C174.5 3.98967 174.18 3.54967 173.22 3.54967C172.627 3.55966 172.048 3.72519 171.54 4.02967V3.30967C172.064 3.05559 172.637 2.91908 173.22 2.90967C174.66 2.90967 175.22 3.54967 175.22 5.06967V7.54967C175.208 7.97961 175.249 8.40937 175.34 8.82967H174.62V7.82967H174.5ZM174.42 5.90967H174.18C172.98 5.90967 171.54 6.06966 171.54 7.26966C171.54 7.98967 172.1 8.26966 172.74 8.26966C174.42 8.26966 174.42 6.82967 174.42 6.18967V5.90967Z" fill="#2B2D42"/>
<path d="M176.98 0.399902H177.7V8.8299H176.98V0.399902Z" fill="#2B2D42"/>
<path d="M182.97 0.959961H183.77V4.39996H187.69V0.959961H188.49V8.82996H187.69V5.11996H183.77V8.82996H182.97V0.959961Z" fill="#2B2D42"/>
<path d="M190.57 0.959961H192.57C193.93 0.959961 194.89 1.51996 194.89 2.95996C194.883 3.43534 194.699 3.89111 194.373 4.2373C194.047 4.5835 193.604 4.79497 193.13 4.82996C193.77 4.90996 193.85 5.22996 194.13 5.82996L195.49 8.82996H194.61L193.49 6.18996C193.01 5.18996 192.69 5.18996 191.97 5.18996H191.34V8.82996H190.54L190.57 0.959961ZM191.37 4.39996H192.17C193.05 4.39996 194.09 4.07996 194.09 2.95996C194.09 1.67996 193.21 1.59996 192.09 1.59996H191.34V4.39996H191.37Z" fill="#2B2D42"/>
<path d="M200.09 0.959961H200.89V8.07996H204.01V8.71996H200.09V0.959961Z" fill="#2B2D42"/>
<path d="M208.48 7.82967C208.296 8.15012 208.026 8.41322 207.701 8.58974C207.376 8.76627 207.009 8.84932 206.64 8.82967C206.411 8.86465 206.177 8.84924 205.955 8.78451C205.733 8.71978 205.527 8.6073 205.353 8.45493C205.179 8.30255 205.04 8.11396 204.946 7.90232C204.852 7.69069 204.806 7.46113 204.81 7.22967C204.81 5.30967 206.81 5.22967 208.32 5.22967H208.48V4.98967C208.48 3.98967 208.16 3.54967 207.2 3.54967C206.608 3.56241 206.029 3.72775 205.52 4.02967V3.30967C206.044 3.05559 206.617 2.91908 207.2 2.90967C208.64 2.90967 209.2 3.54967 209.2 5.06967V7.54967C209.186 7.95134 209.213 8.35335 209.28 8.74966H208.56V7.82967H208.48ZM208.4 5.90967H208.16C206.96 5.90967 205.53 6.06966 205.53 7.26966C205.527 7.41862 205.558 7.5663 205.619 7.70192C205.681 7.83753 205.772 7.95765 205.886 8.05349C206 8.14934 206.134 8.21849 206.279 8.25589C206.423 8.29329 206.574 8.298 206.72 8.26966C208.4 8.26966 208.4 6.82967 208.4 6.18967V5.86967V5.90967Z" fill="#2B2D42"/>
<path d="M216.8 8.8299H215.92L214.4 3.8299L212.88 8.8299H212L210.16 3.1499H210.96L212.48 8.1499L214.08 3.1499H214.96L216.48 8.1499L218.08 3.1499H218.8L216.8 8.8299Z" fill="#2B2D42"/>
<path d="M221.52 9.60004C221.28 10.4 220.88 11.2 220.08 11.2C219.81 11.2136 219.541 11.1866 219.28 11.12L219.36 10.48C219.535 10.5601 219.729 10.5878 219.92 10.56C220.56 10.56 220.72 10.08 220.92 9.28004L221.08 8.80004L219.08 3.04004H219.88L221.48 7.84004L223.16 3.12004H223.88L221.52 9.60004Z" fill="#2B2D42"/>
<path d="M228.72 8.63996C228.19 8.86866 227.617 8.97791 227.04 8.95996C225.12 8.95996 224.48 7.67996 224.48 5.95996C224.48 4.23996 225.48 2.95996 226.88 2.95996C228.48 2.95996 229.12 4.23996 229.12 5.75996V6.07996H225.2C225.2 7.27996 225.84 8.23996 227.04 8.23996C227.593 8.20197 228.134 8.06655 228.64 7.83996V8.55996L228.72 8.63996ZM228.4 5.51996C228.4 4.51996 228 3.51996 226.96 3.51996C226.474 3.56819 226.027 3.80436 225.713 4.17804C225.399 4.55171 225.244 5.03329 225.28 5.51996H228.4Z" fill="#2B2D42"/>
<path d="M230.64 4.31996C230.661 3.89164 230.634 3.46225 230.56 3.03996H231.28V4.15996C231.366 3.83536 231.55 3.54552 231.808 3.33054C232.066 3.11556 232.385 2.98606 232.72 2.95996C232.87 2.95996 233.11 2.95996 233.19 3.03996V3.75996C233.041 3.69894 232.88 3.67162 232.72 3.67996C231.6 3.67996 231.28 4.95996 231.28 5.99996V8.82996H230.56V4.31996H230.64Z" fill="#2B2D42"/>
<path d="M234.15 7.91992C234.62 8.15818 235.144 8.26855 235.67 8.23992C235.971 8.27138 236.273 8.18475 236.512 7.99824C236.75 7.81173 236.908 7.53989 236.95 7.23992C236.95 5.87992 234.23 6.11992 234.23 4.43992C234.23 3.31992 235.11 2.91992 236.07 2.91992C236.558 2.93874 237.042 3.01938 237.51 3.15992L237.43 3.79992C237.021 3.64446 236.587 3.56319 236.15 3.55992C235.43 3.55992 234.95 3.79992 234.95 4.55992C234.95 5.55992 237.75 5.55992 237.75 7.35992C237.75 8.55992 236.63 8.95992 235.75 8.95992C235.207 8.96506 234.667 8.88405 234.15 8.71992V7.91992Z" fill="#2B2D42"/>
<path d="M63.2598 30.8299C64.4418 31.5363 65.8038 31.8837 67.1798 31.8299C69.4098 31.8299 71.1798 30.7099 71.1798 28.1499C71.1798 24.6399 63.0298 24.2399 63.0298 19.5199C63.0298 16.6399 65.5098 14.8799 68.6998 14.8799C69.8936 14.9 71.0786 15.0885 72.2198 15.4399L71.8998 17.0399C70.8668 16.5994 69.7526 16.3813 68.6298 16.3999C66.7898 16.3999 64.7898 17.1999 64.7898 19.3999C64.7898 22.9999 72.9398 22.9999 72.9398 28.1899C72.9398 31.7899 69.8198 33.1899 67.1098 33.1899C65.7066 33.238 64.3109 32.9644 63.0298 32.3899L63.2598 30.8299Z" fill="#2B2D42"/>
<path d="M83.8896 31.0297C83.4714 31.7805 82.8544 32.4016 82.1065 32.825C81.3586 33.2483 80.5086 33.4576 79.6496 33.4297C75.9696 33.4297 75.3296 30.9497 75.3296 29.7497C75.3296 25.3597 79.9696 25.1997 83.4096 25.1997H83.7296V24.5597C83.7296 22.3197 82.9296 21.1997 80.7296 21.1997C79.3813 21.1679 78.0511 21.5143 76.8896 22.1997V20.5997C78.1016 20.0637 79.4051 19.765 80.7296 19.7197C83.9296 19.7197 85.2896 21.1597 85.2896 24.5997V30.3497C85.2583 31.2594 85.3118 32.17 85.4496 33.0697H83.8496V31.0297H83.8896ZM83.7296 26.5497H83.2496C80.4496 26.5497 77.0896 26.8697 77.0896 29.6697C77.0896 31.3497 78.2896 31.9897 79.8096 31.9897C83.5696 31.9897 83.6496 28.7097 83.6496 27.2697V26.5597L83.7296 26.5497Z" fill="#2B2D42"/>
<path d="M99.5599 32.0698C99.5599 35.6698 97.9599 38.7098 93.4099 38.7098C92.0725 38.6874 90.7479 38.4441 89.4899 37.9898L89.6499 36.3898C90.8395 37.0047 92.1514 37.3463 93.4899 37.3898C97.6399 37.3898 97.9599 34.3898 97.9599 30.6698H97.8799C97.5741 31.4679 97.0207 32.147 96.3009 32.6077C95.5811 33.0684 94.7326 33.2864 93.8799 33.2298C89.7199 33.2298 88.3599 29.6298 88.3599 26.6698C88.3599 22.6698 89.8799 19.7998 93.7199 19.7998C94.4937 19.7023 95.2795 19.8142 95.9953 20.1238C96.7112 20.4333 97.3309 20.9292 97.7899 21.5598H97.8699V19.9998H99.4699V32.0698H99.5599ZM93.9699 31.7498C96.9699 31.7498 97.9699 28.9498 97.9699 26.6398C97.9699 23.5198 96.9699 21.1998 94.1399 21.1998C91.1399 21.1998 90.2999 24.1998 90.2999 26.6398C90.2999 29.0798 91.1799 31.7498 93.9799 31.7498H93.9699Z" fill="#2B2D42"/>
<path d="M110.92 31.0297C110.502 31.7805 109.885 32.4016 109.137 32.825C108.389 33.2483 107.539 33.4576 106.68 33.4297C103 33.4297 102.36 30.9497 102.36 29.7497C102.36 25.3597 107 25.1997 110.44 25.1997H110.76V24.5597C110.76 22.3197 109.96 21.1997 107.76 21.1997C106.412 21.1679 105.081 21.5143 103.92 22.1997V20.5997C105.132 20.0637 106.435 19.765 107.76 19.7197C110.96 19.7197 112.32 21.1597 112.32 24.5997V30.3497C112.289 31.2594 112.342 32.17 112.48 33.0697H110.88V31.0297H110.92ZM110.76 26.5497H110.28C107.48 26.5497 104.12 26.8697 104.12 29.6697C104.12 31.3497 105.32 31.9897 106.84 31.9897C110.6 31.9897 110.68 28.7097 110.68 27.2697V26.5597L110.76 26.5497Z" fill="#2B2D42"/>
<path d="M116.2 23.0397C116.2 21.5997 116.2 21.0397 116.12 20.0397H117.72V22.5197H117.8C118.008 21.7666 118.442 21.0949 119.042 20.5946C119.642 20.0943 120.381 19.7891 121.16 19.7197C121.539 19.7189 121.916 19.7728 122.28 19.8797V21.5597C121.887 21.4623 121.484 21.4087 121.08 21.3997C118.52 21.3997 117.8 24.2797 117.8 26.5897V33.0697H116.2V23.0397Z" fill="#2B2D42"/>
<path d="M134.59 33.1099H132.99V31.0299H132.91C132.548 31.792 131.965 32.428 131.238 32.8558C130.511 33.2837 129.672 33.4836 128.83 33.4299C125.23 33.4299 123.47 30.4299 123.47 26.6299C123.47 22.8299 124.99 19.7599 128.83 19.7599C129.676 19.7393 130.51 19.962 131.233 20.4016C131.957 20.8412 132.538 21.4793 132.91 22.2399H132.99V13.9199H134.59V33.1099ZM129.15 32.1099C132.03 32.1099 132.99 29.1099 132.99 26.6699C132.99 24.2299 131.99 21.2399 129.15 21.2399C126.15 21.2399 125.31 24.2399 125.31 26.6699C125.31 29.0999 126.11 32.1099 129.15 32.1099Z" fill="#2B2D42"/>
<path d="M143.63 19.7598C147.87 19.7598 149.71 23.0398 149.71 26.6298C149.71 30.2198 147.87 33.4298 143.63 33.4298C139.39 33.4298 137.55 30.1498 137.55 26.6298C137.55 23.1098 139.39 19.7598 143.63 19.7598ZM143.63 32.0698C146.43 32.0698 147.95 29.6698 147.95 26.6298C147.95 23.5898 146.43 21.1998 143.63 21.1998C140.83 21.1998 139.34 23.5998 139.34 26.6298C139.34 29.6598 140.83 32.0698 143.63 32.0698Z" fill="#2B2D42"/>
<path d="M156.66 35.1102C156.02 36.8702 155.14 38.7102 153.3 38.7102C152.705 38.7097 152.113 38.629 151.54 38.4702L151.7 37.1102C152.085 37.2523 152.49 37.3333 152.9 37.3502C154.26 37.3502 154.74 36.2302 155.22 34.4702L155.54 33.3502L150.9 20.1602H152.66L156.34 31.0302H156.42L160.18 20.1602H161.86L156.66 35.1102Z" fill="#2B2D42"/>
<path d="M176.9 15.2798H178.9L186.02 33.1898H184.18L182.26 28.3898H173.26L171.34 33.1898H169.54L176.9 15.2798ZM177.78 16.9598L173.86 26.8298H181.61L177.78 16.9598Z" fill="#2B2D42"/>
<path d="M188.17 13.9199H189.77V22.2399H189.85C190.221 21.4793 190.803 20.8412 191.526 20.4016C192.25 19.962 193.084 19.7393 193.93 19.7599C197.77 19.7599 199.29 22.6399 199.29 26.6299C199.29 30.6199 197.53 33.4299 193.93 33.4299C193.088 33.4836 192.249 33.2837 191.522 32.8558C190.794 32.428 190.212 31.792 189.85 31.0299H189.77V33.1099H188.17V13.9199ZM193.61 21.1199C190.61 21.1199 189.77 24.1199 189.77 26.5599C189.77 28.9999 190.77 31.9899 193.61 31.9899C196.61 31.9899 197.45 28.9899 197.45 26.5599C197.45 24.1299 196.73 21.1199 193.61 21.1199Z" fill="#2B2D42"/>
<path d="M207.68 19.7598C211.92 19.7598 213.76 23.0398 213.76 26.6298C213.76 30.2198 211.92 33.4298 207.68 33.4298C203.44 33.4298 201.61 30.1498 201.61 26.6298C201.61 23.1098 203.45 19.7598 207.68 19.7598ZM207.68 32.0698C210.48 32.0698 212 29.6698 212 26.6298C212 23.5898 210.48 21.1998 207.68 21.1998C204.88 21.1998 203.34 23.5998 203.34 26.6298C203.34 29.6598 204.81 32.0698 207.68 32.0698Z" fill="#2B2D42"/>
<path d="M227.12 32.0698C227.12 35.6698 225.52 38.7098 220.96 38.7098C219.623 38.6865 218.298 38.4433 217.04 37.9898L217.2 36.3898C218.39 37.0047 219.702 37.3463 221.04 37.3898C225.2 37.3898 225.52 34.3898 225.52 30.6698C225.214 31.4679 224.661 32.147 223.941 32.6077C223.221 33.0684 222.373 33.2864 221.52 33.2298C217.36 33.2298 216 29.6298 216 26.6698C216 22.6698 217.52 19.7998 221.36 19.7998C222.135 19.7016 222.923 19.813 223.64 20.1226C224.358 20.4321 224.979 20.9284 225.44 21.5598H225.52V19.9998H227.12V32.0698ZM221.52 31.7498C224.52 31.7498 225.52 28.9498 225.52 26.6398C225.52 23.5198 224.52 21.1998 221.68 21.1998C218.68 21.1998 217.84 24.1998 217.84 26.6398C217.84 29.0798 218.84 31.7498 221.52 31.7498Z" fill="#2B2D42"/>
<path d="M238.55 31.0297C238.141 31.7712 237.538 32.3868 236.804 32.8098C236.071 33.2329 235.236 33.4472 234.39 33.4297C230.72 33.4297 230.08 30.9497 230.08 29.7497C230.08 25.3597 234.71 25.1997 238.15 25.1997H238.47V24.5597C238.47 22.3197 237.67 21.1997 235.47 21.1997C234.121 21.1679 232.791 21.5143 231.63 22.1997V20.5997C232.842 20.0637 234.145 19.765 235.47 19.7197C238.67 19.7197 240.03 21.1597 240.03 24.5997V30.3497C239.998 31.2594 240.052 32.17 240.19 33.0697H238.59V31.0297H238.55ZM238.39 26.5497H237.91C235.11 26.5497 231.76 26.8697 231.76 29.6697C231.76 31.3497 232.96 31.9897 234.48 31.9897C238.23 31.9897 238.31 28.7097 238.31 27.2697V26.5597L238.39 26.5497Z" fill="#2B2D42"/>
<path d="M254.15 33.1099H252.55V31.0299H252.47C252.108 31.792 251.525 32.428 250.798 32.8558C250.071 33.2837 249.232 33.4836 248.39 33.4299C244.79 33.4299 243.03 30.4299 243.03 26.6299C243.03 22.8299 244.55 19.7599 248.39 19.7599C249.236 19.7393 250.07 19.962 250.793 20.4016C251.517 20.8412 252.099 21.4793 252.47 22.2399H252.55V13.9199H254.15V33.1099ZM248.71 32.1099C251.59 32.1099 252.55 29.1099 252.55 26.6699C252.55 24.2299 251.55 21.2399 248.71 21.2399C245.71 21.2399 244.87 24.2399 244.87 26.6699C244.87 29.0999 245.59 32.1099 248.71 32.1099Z" fill="#2B2D42"/>
<path d="M263.18 19.7598C267.42 19.7598 269.26 23.0398 269.26 26.6298C269.26 30.2198 267.42 33.4298 263.18 33.4298C258.94 33.4298 257.11 30.1498 257.11 26.6298C257.11 23.1098 258.95 19.7598 263.18 19.7598ZM263.18 32.0698C265.98 32.0698 267.5 29.6698 267.5 26.6298C267.5 23.5898 265.98 21.1998 263.18 21.1998C260.38 21.1998 258.87 23.5998 258.87 26.6298C258.87 29.6598 260.34 32.0698 263.18 32.0698Z" fill="#2B2D42"/>
<path d="M271.26 31.2698C272.329 31.7976 273.507 32.0714 274.7 32.0698C276.22 32.0698 277.58 31.1898 277.58 29.7498C277.58 26.6298 271.34 27.1098 271.34 23.3598C271.34 20.7998 273.42 19.7598 275.58 19.7598C276.669 19.7801 277.748 19.969 278.78 20.3198L278.62 21.7598C277.711 21.3589 276.732 21.1414 275.74 21.1198C274.06 21.1198 272.94 21.5998 272.94 23.2798C272.94 25.6798 279.34 25.4398 279.34 29.6698C279.34 32.4698 276.78 33.3498 274.78 33.3498C273.523 33.3781 272.273 33.1607 271.1 32.7098L271.26 31.2698Z" fill="#2B2D42"/>
</svg>
