<svg width="399" height="48" viewBox="0 0 399 48" fill="none" xmlns="http://www.w3.org/2000/svg">
<g clip-path="url(#clip0_1053_8404)">
<path d="M0.174316 29.4868H0.834501L3.62637 32.1204C6.46596 34.806 8.29537 36.0732 11.6917 36.0732C16.4085 36.0732 18.9975 33.5903 18.9975 29.5861C18.9975 26.6465 17.7805 24.974 14.9887 23.5042C12.2485 21.9826 8.14027 21.0215 5.2967 19.349C2.50485 17.6765 1.03733 15.1938 1.03733 11.547C1.03733 6.02527 5.24898 2.021 11.9423 2.021C14.1257 2.021 16.0506 2.32688 18.3851 2.32688H20.5685L22.7002 9.11586H22.0399L19.1486 6.43046C16.2057 3.69342 14.583 3.08562 11.8946 3.08562C7.98914 3.08562 5.5035 5.21487 5.5035 8.65901C5.5035 11.0425 6.66878 12.7626 9.2061 14.0814C11.7434 15.4003 15.9551 16.5126 18.8941 18.1374C21.8371 19.8098 23.4081 22.1932 23.4081 26.2453C23.4081 32.5296 18.7907 37.1417 11.5366 37.1417C8.89988 37.1417 6.61708 36.7882 4.13144 36.7882H2.40541L0.174316 29.4868Z" fill="#E8EEF1"/>
<path d="M47.1827 32.2311V36.7417H43.4861C40.9012 36.7417 39.432 35.1032 39.027 33.3076C37.6611 35.3079 35.5845 37.0993 32.2888 37.0993C28.743 37.0993 26.3129 34.846 26.3129 31.3595C26.3129 28.3874 28.3895 26.4915 31.7845 25.0054C34.4171 23.8285 36.7478 23.1095 38.8762 22.5954V18.3418C38.8762 15.474 37.0535 14.3453 34.0637 14.3453C33.1027 14.3453 32.241 14.4979 31.5304 14.6546V20.0328H26.1104C26.4638 17.6229 28.2387 15.6266 30.4146 14.3453C32.5944 13.0118 35.1238 12.2446 37.7088 12.2446C41.9137 12.2446 44.2445 14.3453 44.2445 18.5467V32.2272H47.1827V32.2311ZM38.8762 32.6409V23.5714C37.1052 24.0332 35.4812 24.648 34.0121 25.3628C32.3921 26.1823 31.5819 27.3108 31.5819 29.4115C31.5819 32.179 32.9996 33.8699 35.3303 33.8699C37.002 33.8699 38.0145 33.3559 38.8762 32.6409Z" fill="#E8EEF1"/>
<path d="M66.8452 32.7306H56.789C54.8105 32.7306 53.5405 31.8653 53.5405 30.0868C53.5405 28.9662 54.1496 28.101 55.0652 27.5945C56.59 28.3561 58.4172 28.8148 60.4994 28.8148C66.439 28.8148 70.5036 25.3056 70.5036 20.3689C70.5036 20.03 70.4837 19.6871 70.44 19.3522C70.3962 19.0172 70.3365 18.6982 70.2569 18.3752C70.1773 18.0522 70.0738 17.7531 69.9542 17.4501C69.8348 17.147 69.6955 16.8639 69.5363 16.5848C69.3771 16.3056 69.202 16.0385 69.0107 15.7833C68.8197 15.528 68.6087 15.2808 68.3817 15.0535C68.1548 14.8262 67.908 14.6029 67.6533 14.3996C67.3467 14.1563 67.0243 13.937 66.6858 13.7416C66.3594 13.5462 66.0171 13.3827 65.6707 13.2312C65.3562 13.0956 65.0376 12.972 64.7113 12.8683C64.3849 12.7647 64.0305 12.669 63.6842 12.5932C63.3378 12.5174 62.9557 12.4496 62.5893 12.4018C62.2231 12.3539 61.817 12.318 61.4309 12.3021C61.1881 12.2901 60.9451 12.2861 60.7063 12.2861C54.8662 12.2861 50.7538 15.7434 50.7538 20.5285C50.7538 23.3756 52.1232 25.7683 54.46 27.1917C51.8684 28.2086 49.9895 30.2422 49.9895 32.89C49.9895 35.5379 51.9202 37.8746 55.9291 37.8746H65.8816C68.9789 37.8746 70.3524 39.298 70.3524 41.3836C70.3524 44.3344 67.5098 46.4717 61.2637 46.4717C55.0175 46.4717 52.3781 44.183 52.3781 40.6737C52.3781 40.2152 52.4298 39.7567 52.4776 39.4017H48.5164C48.3652 39.9122 48.2617 40.622 48.2617 41.2839C48.2617 44.7929 51.1558 47.9471 59.1816 47.9471C69.6955 47.9471 73.6566 42.7075 73.6566 38.4368C73.6566 34.6207 71.0173 32.7385 66.8531 32.7385L66.8452 32.7306ZM60.5989 13.1993C63.3935 13.1993 65.1692 15.5918 65.1692 20.5245C65.1692 25.4572 63.3935 27.9016 60.5989 27.9016C57.8041 27.9016 56.0803 25.4093 56.0803 20.4766C56.0803 15.544 57.8558 13.2033 60.5989 13.2033V13.1993Z" fill="#E8EEF1"/>
<path d="M95.8099 32.2311V36.7417H92.1132C89.5282 36.7417 88.0591 35.1032 87.654 33.3076C86.2882 35.3079 84.2114 37.0993 80.9157 37.0993C77.3699 37.0993 74.9399 34.846 74.9399 31.3595C74.9399 28.3874 77.0165 26.4915 80.4115 25.0054C83.0441 23.8285 85.3748 23.1095 87.5031 22.5954V18.3418C87.5031 15.474 85.6807 14.3453 82.6906 14.3453C81.7299 14.3453 80.8682 14.4979 80.1573 14.6546V20.0328H74.7373C75.0907 17.6229 76.8656 15.6266 79.0415 14.3453C81.2216 13.0118 83.7509 12.2446 86.3358 12.2446C90.5407 12.2446 92.8716 14.3453 92.8716 18.5467V32.2272H95.8099V32.2311ZM87.5031 32.6409V23.5714C85.7322 24.0332 84.1081 24.648 82.6391 25.3628C81.019 26.1823 80.2091 27.3108 80.2091 29.4115C80.2091 32.179 81.6266 33.8699 83.9573 33.8699C85.6289 33.8699 86.6414 33.3559 87.5031 32.6409Z" fill="#E8EEF1"/>
<path d="M113.903 12.2446V17.9305H108.298C107.053 17.9305 106.17 18.1391 105.495 18.6627V34.3173L107.155 36.5099V36.7718H98.3315V36.5099L99.8895 34.3173V15.6357L98.4901 12.6087V12.3469H105.495V17.9305C106.947 15.1653 109.388 12.2446 112.707 12.2446H113.9H113.903Z" fill="#E8EEF1"/>
<path d="M138.878 36.4463V36.6524H133.124L132.198 32.58C130.555 35.2586 128.087 37.1655 124.544 37.1655C119.048 37.1655 115.247 32.58 115.247 25.9825C115.247 18.0962 120.69 12.5815 128.24 12.3755L132.094 12.2745V4.2347L130.245 1.24504V0.986479L137.642 -0.197266V31.9092L138.874 36.4463H138.878ZM132.098 31.9617V15.6237L125.422 13.8703C122.184 14.848 120.489 18.2498 120.489 23.0938C120.489 29.7922 123.159 33.5577 127.781 33.5577C129.629 33.5577 131.067 32.9394 132.098 31.9617Z" fill="#E8EEF1"/>
<path d="M140.658 24.8672C140.658 17.3808 145.605 12.2861 152.647 12.2861C159.689 12.2861 164.432 17.3808 164.432 24.5597C164.432 31.7387 159.485 37.1409 152.495 37.1409C145.505 37.1409 140.662 32.0462 140.662 24.8672H140.658ZM158.309 24.7155C158.309 16.8219 156.422 13.2564 152.547 13.2564C148.672 13.2564 146.832 16.77 146.832 24.7155C146.832 32.6609 148.668 36.1745 152.547 36.1745C156.426 36.1745 158.309 32.6092 158.309 24.7155Z" fill="#E8EEF1"/>
<path d="M186.788 12.2402V12.5019L184.159 16.4631L175.71 37.6349C173.493 43.215 170.351 47.9612 166.284 47.9612H165.149V42.8512H171.898C172.928 41.2854 173.857 39.4622 174.628 37.5327L174.729 37.3243L165.61 14.9547L163.704 12.5019V12.2402H172.051V12.5019L171.433 14.693L177.616 29.9739L183.077 16.365L181.635 12.506V12.2443H186.788V12.2402Z" fill="#E8EEF1"/>
<path d="M189.077 29.4428H189.737L192.528 32.0766C195.367 34.762 197.196 36.0292 200.592 36.0292C205.308 36.0292 207.897 33.5465 207.897 29.5421C207.897 26.6025 206.679 24.9301 203.889 23.4602C201.149 21.9388 197.041 20.9775 194.198 19.305C191.407 17.6326 189.94 15.1498 189.94 11.5031C189.94 5.98131 194.15 1.97705 200.847 1.97705C203.03 1.97705 204.954 2.28293 207.288 2.28293H209.471L211.603 9.0719H210.942L208.053 6.3865C205.109 3.64946 203.487 3.04167 200.799 3.04167C196.894 3.04167 194.409 5.17094 194.409 8.61507C194.409 10.9986 195.574 12.7186 198.111 14.0375C200.648 15.3564 204.859 16.4687 207.798 18.0934C210.739 19.7658 212.311 22.1494 212.311 26.2013C212.311 32.4858 207.694 37.0979 200.441 37.0979C197.805 37.0979 195.522 36.7442 193.037 36.7442H191.311L189.081 29.4468L189.077 29.4428Z" fill="#E8EEF1"/>
<path d="M215.552 26.809C215.552 23.0248 217.226 19.8538 219.711 17.2962C222.195 14.7385 225.443 12.2852 228.939 12.2852H233.654V17.1438H223.92C220.979 17.1438 219.305 18.1661 219.305 22.668C219.305 28.6492 222.75 32.7421 228.836 32.7421C231.222 32.7421 232.941 32.1288 234.111 31.3632L234.463 31.772C233.248 34.482 230.358 37.1399 225.795 37.1399C219.66 37.1399 215.552 32.7421 215.552 26.809Z" fill="#E8EEF1"/>
<path d="M260.016 36.3599V36.6182H251.427V36.3599L252.92 34.1963V20.4486C252.92 16.9491 250.81 15.5566 247.773 15.5566C245.718 15.5566 244.122 16.2791 243.246 16.9451V34.1924L244.739 36.3559V36.6142H236.15V36.3559L237.694 34.1924V4.2306L235.841 1.24371V0.985382L243.25 -0.197266V16.2266C244.842 14.1681 247.62 12.0046 251.533 12.0046C255.905 12.0046 258.476 14.8865 258.476 19.3144V34.1963L260.022 36.3599H260.016Z" fill="#E8EEF1"/>
<path d="M262.02 24.8662C262.02 17.3799 266.967 12.2852 274.01 12.2852C281.051 12.2852 285.795 17.3799 285.795 24.5587C285.795 31.7377 280.848 37.1399 273.857 37.1399C266.868 37.1399 262.024 32.0452 262.024 24.8662H262.02ZM279.672 24.7145C279.672 16.8209 277.785 13.2554 273.908 13.2554C270.034 13.2554 268.195 16.769 268.195 24.7145C268.195 32.6599 270.03 36.1735 273.908 36.1735C277.789 36.1735 279.672 32.6082 279.672 24.7145Z" fill="#E8EEF1"/>
<path d="M288.496 24.8662C288.496 17.3799 293.443 12.2852 300.486 12.2852C307.526 12.2852 312.27 17.3799 312.27 24.5587C312.27 31.7377 307.323 37.1399 300.332 37.1399C293.343 37.1399 288.5 32.0452 288.5 24.8662H288.496ZM306.147 24.7145C306.147 16.8209 304.261 13.2554 300.384 13.2554C296.509 13.2554 294.671 16.769 294.671 24.7145C294.671 32.6599 296.505 36.1735 300.384 36.1735C304.265 36.1735 306.147 32.6082 306.147 24.7145Z" fill="#E8EEF1"/>
<path d="M314.6 1.24371V0.985382L322.339 -0.197266V34.1963L323.953 36.3599V36.6182H314.924V36.3599L316.536 34.1963V4.22656L314.604 1.23967L314.6 1.24371Z" fill="#E8EEF1"/>
<path d="M74.7378 9.27903V2.25488C70.3938 2.25488 66.4382 6.07131 65.5522 9.27503H74.7378V9.27903Z" fill="#FF1300"/>
<path d="M389.016 36.6692L386.286 27.2026H387.223L389.517 35.3518L391.868 27.7051H392.777L395.127 35.3518L397.422 27.2026H398.347L395.631 36.6692H394.719L392.248 28.7644H392.397L389.925 36.6692H389.016Z" fill="#E8EEF1"/>
<path d="M377.997 36.6692L381.515 27.2026H382.262L385.766 36.6692H384.801L381.896 28.4384L378.988 36.6692H377.997ZM379.736 34.238L380.021 33.4366H383.756L384.055 34.238H379.736Z" fill="#E8EEF1"/>
<path d="M370.893 36.6692V27.2026H371.774V35.8678H376.134V36.6692H370.893Z" fill="#E8EEF1"/>
<path d="M355.486 36.6692V27.2026H358.04C359.57 27.2026 360.756 27.6235 361.6 28.4657C362.449 29.2987 362.875 30.4804 362.875 32.0105C362.875 33.5136 362.455 34.668 361.612 35.474C360.78 36.2708 359.584 36.6692 358.028 36.6692H355.486ZM356.37 35.8543H357.946C358.806 35.8543 359.534 35.7184 360.133 35.4467C360.73 35.1751 361.182 34.7542 361.49 34.1836C361.807 33.6133 361.966 32.8798 361.966 31.9835C361.966 31.087 361.807 30.3445 361.49 29.756C361.182 29.1674 360.734 28.7328 360.145 28.4522C359.558 28.1624 358.851 28.0176 358.028 28.0176H356.37V35.8543Z" fill="#E8EEF1"/>
<path d="M345.885 36.6692V27.2026H346.85L351.93 35.5283H351.753V27.2026H352.635V36.6692H351.644L346.591 28.3298H346.768V36.6692H345.885Z" fill="#E8EEF1"/>
<path d="M336.092 36.6692L339.608 27.2026H340.356L343.859 36.6692H342.896L339.988 28.4384L337.083 36.6692H336.092ZM337.829 34.238L338.114 33.4366H341.849L342.147 34.238H337.829Z" fill="#E8EEF1"/>
<path d="M395.883 22.2139C394.96 22.2139 394.204 21.9739 393.617 21.4941C393.028 21.0141 392.669 20.3757 392.542 19.579L393.412 19.3617C393.521 20.0318 393.798 20.5433 394.241 20.8965C394.693 21.2406 395.25 21.4125 395.911 21.4125C396.301 21.4125 396.649 21.3357 396.958 21.1817C397.274 21.0279 397.523 20.8103 397.704 20.5298C397.885 20.2491 397.975 19.9276 397.975 19.5654C397.975 19.1761 397.871 18.8637 397.662 18.6283C397.455 18.3838 397.179 18.1756 396.834 18.0035C396.49 17.8315 396.102 17.664 395.666 17.501C395.179 17.3108 394.739 17.1071 394.349 16.8898C393.961 16.6634 393.652 16.3918 393.426 16.0749C393.209 15.758 393.099 15.3641 393.099 14.8932C393.099 14.4224 393.213 14.0104 393.439 13.6573C393.666 13.2951 393.983 13.0099 394.391 12.8017C394.807 12.5934 395.286 12.4893 395.829 12.4893C396.409 12.4893 396.92 12.6205 397.364 12.8831C397.808 13.1457 398.166 13.5305 398.438 14.0376L397.732 14.4722C397.513 14.0919 397.242 13.7976 396.916 13.5894C396.6 13.3811 396.228 13.277 395.802 13.277C395.439 13.277 395.123 13.3449 394.852 13.4807C394.58 13.6166 394.367 13.8067 394.214 14.0512C394.06 14.2866 393.983 14.5582 393.983 14.8661C393.983 15.1921 394.068 15.4682 394.241 15.6946C394.423 15.921 394.675 16.1156 395.002 16.2786C395.336 16.4416 395.726 16.6046 396.17 16.7676C396.695 16.9668 397.157 17.1841 397.555 17.4195C397.963 17.6459 398.279 17.9265 398.506 18.2616C398.731 18.5966 398.844 19.0131 398.844 19.5111C398.844 20.0363 398.719 20.5025 398.464 20.91C398.212 21.3174 397.863 21.639 397.42 21.8744C396.976 22.1007 396.464 22.2139 395.883 22.2139Z" fill="#E8EEF1"/>
<path d="M387.754 22.2139C386.831 22.2139 386.075 21.9739 385.486 21.4941C384.899 21.0141 384.54 20.3757 384.413 19.579L385.283 19.3617C385.392 20.0318 385.667 20.5433 386.111 20.8965C386.564 21.2406 387.122 21.4125 387.782 21.4125C388.172 21.4125 388.521 21.3357 388.827 21.1817C389.145 21.0279 389.394 20.8103 389.575 20.5298C389.756 20.2491 389.846 19.9276 389.846 19.5654C389.846 19.1761 389.742 18.8637 389.533 18.6283C389.326 18.3838 389.05 18.1756 388.706 18.0035C388.361 17.8315 387.971 17.664 387.537 17.501C387.048 17.3108 386.61 17.1071 386.22 16.8898C385.83 16.6634 385.524 16.3918 385.297 16.0749C385.08 15.758 384.97 15.3641 384.97 14.8932C384.97 14.4224 385.084 14.0104 385.311 13.6573C385.537 13.2951 385.854 13.0099 386.262 12.8017C386.678 12.5934 387.157 12.4893 387.701 12.4893C388.28 12.4893 388.791 12.6205 389.235 12.8831C389.679 13.1457 390.037 13.5305 390.308 14.0376L389.601 14.4722C389.384 14.0919 389.114 13.7976 388.787 13.5894C388.471 13.3811 388.099 13.277 387.673 13.277C387.311 13.277 386.994 13.3449 386.724 13.4807C386.451 13.6166 386.238 13.8067 386.085 14.0512C385.929 14.2866 385.854 14.5582 385.854 14.8661C385.854 15.1921 385.939 15.4682 386.111 15.6946C386.292 15.921 386.546 16.1156 386.873 16.2786C387.207 16.4416 387.597 16.6046 388.041 16.7676C388.564 16.9668 389.028 17.1841 389.426 17.4195C389.832 17.6459 390.15 17.9265 390.375 18.2616C390.602 18.5966 390.716 19.0131 390.716 19.5111C390.716 20.0363 390.588 20.5025 390.335 20.91C390.083 21.3174 389.732 21.639 389.289 21.8744C388.847 22.1007 388.333 22.2139 387.754 22.2139Z" fill="#E8EEF1"/>
<path d="M376.455 22.0911V12.6245H382.648V13.4259H377.339V16.8757H382.105V17.677H377.339V21.2898H382.648V22.0911H376.455Z" fill="#E8EEF1"/>
<path d="M366.854 22.0911V12.6245H367.819L372.897 20.9503H372.72V12.6245H373.604V22.0911H372.613L367.56 13.7518H367.737V22.0911H366.854Z" fill="#E8EEF1"/>
<path d="M363.111 22.0911V12.6245H363.995V22.0911H363.111Z" fill="#E8EEF1"/>
<path d="M357.769 22.2139C356.843 22.2139 356.087 21.9739 355.5 21.4941C354.911 21.0141 354.553 20.3757 354.427 19.579L355.295 19.3617C355.404 20.0318 355.681 20.5433 356.125 20.8965C356.576 21.2406 357.134 21.4125 357.794 21.4125C358.184 21.4125 358.533 21.3357 358.841 21.1817C359.158 21.0279 359.406 20.8103 359.587 20.5298C359.768 20.2491 359.86 19.9276 359.86 19.5654C359.86 19.1761 359.755 18.8637 359.548 18.6283C359.339 18.3838 359.062 18.1756 358.718 18.0035C358.373 17.8315 357.985 17.664 357.55 17.501C357.062 17.3108 356.622 17.1071 356.232 16.8898C355.844 16.6634 355.536 16.3918 355.309 16.0749C355.092 15.758 354.982 15.3641 354.982 14.8932C354.982 14.4224 355.096 14.0104 355.323 13.6573C355.55 13.2951 355.866 13.0099 356.274 12.8017C356.69 12.5934 357.17 12.4893 357.713 12.4893C358.292 12.4893 358.803 12.6205 359.247 12.8831C359.691 13.1457 360.049 13.5305 360.322 14.0376L359.615 14.4722C359.398 14.0919 359.126 13.7976 358.799 13.5894C358.483 13.3811 358.111 13.277 357.687 13.277C357.325 13.277 357.006 13.3449 356.736 13.4807C356.463 13.6166 356.25 13.8067 356.097 14.0512C355.944 14.2866 355.866 14.5582 355.866 14.8661C355.866 15.1921 355.952 15.4682 356.125 15.6946C356.306 15.921 356.559 16.1156 356.885 16.2786C357.219 16.4416 357.609 16.6046 358.053 16.7676C358.578 16.9668 359.04 17.1841 359.438 17.4195C359.846 17.6459 360.162 17.9265 360.389 18.2616C360.614 18.5966 360.728 19.0131 360.728 19.5111C360.728 20.0363 360.602 20.5025 360.348 20.91C360.095 21.3174 359.747 21.639 359.303 21.8744C358.859 22.1007 358.348 22.2139 357.769 22.2139Z" fill="#E8EEF1"/>
<path d="M348.828 22.2269C347.742 22.2269 346.908 21.9236 346.329 21.317C345.75 20.7103 345.459 19.8275 345.459 18.6685V12.6245H346.343V18.5734C346.343 19.1891 346.428 19.7098 346.601 20.1353C346.772 20.5519 347.039 20.8687 347.401 21.086C347.773 21.2943 348.249 21.3984 348.828 21.3984C349.399 21.3984 349.869 21.2898 350.241 21.0724C350.611 20.8462 350.888 20.5246 351.069 20.1082C351.25 19.6826 351.342 19.1619 351.342 18.5462V12.6245H352.209V18.6006C352.209 19.7777 351.921 20.6786 351.342 21.3033C350.76 21.919 349.923 22.2269 348.828 22.2269Z" fill="#E8EEF1"/>
<path d="M336.933 22.0911V12.6245H339.799C340.676 12.6245 341.365 12.8328 341.862 13.2493C342.362 13.6658 342.611 14.2408 342.611 14.9742C342.611 15.4631 342.497 15.8887 342.27 16.2509C342.044 16.6131 341.727 16.8802 341.319 17.0522C341.89 17.188 342.324 17.4642 342.625 17.8807C342.931 18.2882 343.086 18.8179 343.086 19.4698C343.086 20.3119 342.824 20.9592 342.298 21.4119C341.781 21.8647 341.039 22.0911 340.071 22.0911H336.933ZM337.817 21.2762H340.016C341.474 21.2762 342.203 20.6605 342.203 19.4291C342.203 18.8496 342.04 18.4014 341.713 18.0844C341.397 17.7585 340.945 17.5955 340.356 17.5955H337.817V21.2762ZM337.817 16.7942H340.044C340.551 16.7942 340.957 16.6402 341.265 16.3324C341.574 16.0245 341.727 15.6125 341.727 15.0964C341.727 14.5803 341.556 14.1774 341.212 13.8876C340.875 13.5888 340.406 13.4394 339.799 13.4394H337.817V16.7942Z" fill="#E8EEF1"/>
</g>
<defs>
<clipPath id="clip0_1053_8404">
<rect width="399" height="47.5616" fill="white" transform="translate(0 0.399902)"/>
</clipPath>
</defs>
</svg>
