<?xml version="1.0" encoding="utf-8"?>
<!-- Generator: Adobe Illustrator 27.9.0, SVG Export Plug-In . SVG Version: 6.00 Build 0)  -->
<svg version="1.1" id="Capa_1" xmlns="http://www.w3.org/2000/svg" xmlns:xlink="http://www.w3.org/1999/xlink" x="0px" y="0px"
	 viewBox="0 0 278.8 38.1" style="enable-background:new 0 0 278.8 38.1;" xml:space="preserve">
<style type="text/css">
	.st0{fill:#FF1300;}
	.st1{fill:#2B2D42;}
</style>
<path class="st0" d="M12.9,13.3V0.4H0c3.1,0.9,5.9,2.5,8.1,4.8C10.4,7.5,12,10.3,12.9,13.3z"/>
<path class="st0" d="M0,19.7v12.9h12.9c-3.1-0.9-5.9-2.5-8.1-4.8C2.5,25.6,0.9,22.8,0,19.7z"/>
<path class="st0" d="M21,19.7v12.9h12.9c-3.1-0.9-5.9-2.5-8.1-4.8C23.5,25.6,21.8,22.8,21,19.7z"/>
<path class="st0" d="M42,32.6h12.9V19.7c-0.9,3.1-2.5,5.9-4.7,8.1S45.1,31.7,42,32.6z"/>
<path class="st0" d="M33.8,13.3V0.4H21c3.1,0.9,5.9,2.5,8.1,4.8S33,10.3,33.8,13.3z"/>
<path class="st0" d="M62.8,0.4h0.8v7.9h-0.8V0.4z"/>
<path class="st0" d="M69.9,6.8c0,0.5,0,0.9,0.1,1.4h-0.7v-1c-0.1,0.4-0.4,0.7-0.7,0.9c-0.3,0.2-0.7,0.3-1.1,0.3
	c-1.4,0-1.9-1-1.9-2.2V2.6h0.7V6c0,1,0.4,1.8,1.4,1.8c1.3,0,1.7-1.1,1.7-2.1V2.5H70L69.9,6.8L69.9,6.8z"/>
<path class="st0" d="M71.4,7.3c0.5,0.2,1,0.3,1.5,0.3c0.3,0,0.6-0.1,0.8-0.2c0.2-0.2,0.4-0.5,0.4-0.8c0-1.4-2.7-1.1-2.7-2.8
	c0-1.1,0.9-1.5,1.8-1.5c0.5,0,1,0.1,1.4,0.2l-0.1,0.6C74.3,3,73.8,3,73.4,3c-0.7,0-1.2,0.2-1.2,1c0,1,2.8,1,2.8,2.8
	c0,1.2-1.1,1.6-2,1.6c-0.5,0-1.1-0.1-1.6-0.2C71.4,8.2,71.4,7.3,71.4,7.3z"/>
<path class="st0" d="M79.6,0.4h0.8v7.1h3.1v0.6h-3.9V0.4z"/>
<path class="st0" d="M88,7.2c-0.2,0.3-0.5,0.6-0.8,0.8c-0.3,0.2-0.7,0.3-1.1,0.2c-1.6,0-1.8-1.1-1.8-1.6c0-1.9,2-2,3.5-2H88V4.4
	c0-1-0.3-1.4-1.3-1.4c-0.6,0-1.2,0.2-1.7,0.5V2.7c0.5-0.3,1.1-0.4,1.7-0.4c1.4,0,2,0.6,2,2.2V7c0,0.4,0,0.8,0.1,1.2H88V7.2z
	 M87.9,5.3h-0.2c-1.2,0-2.6,0.2-2.6,1.4c0,0.7,0.6,1,1.2,1C88,7.7,88,6.3,88,5.6L87.9,5.3L87.9,5.3z"/>
<path class="st0" d="M90.3-0.2H91v3.7c0.1-0.3,0.4-0.6,0.7-0.8c0.3-0.2,0.7-0.3,1.1-0.3c1.7,0,2.3,1.3,2.3,3s-0.8,3-2.3,3
	c-0.4,0-0.7-0.1-1-0.2c-0.3-0.2-0.6-0.4-0.7-0.8v0.9h-0.7L90.3-0.2L90.3-0.2z M92.7,2.9c-1.3,0-1.7,1.4-1.7,2.4s0.4,2.4,1.7,2.4
	s1.7-1.3,1.7-2.4S94.1,2.9,92.7,2.9z"/>
<path class="st0" d="M99.1,2.4c1.8,0,2.6,1.4,2.6,3s-0.8,3-2.6,3c-1.8,0-2.6-1.4-2.6-3S97.2,2.4,99.1,2.4z M99.1,7.7
	c1.2,0,1.9-1,1.9-2.4s-0.6-2.4-1.9-2.4s-1.9,1-1.9,2.4S97.8,7.7,99.1,7.7z"/>
<path class="st0" d="M103.2,3.7c0-0.4,0-0.9-0.1-1.3h0.7v1.1c0.1-0.3,0.3-0.6,0.5-0.8c0.3-0.2,0.6-0.3,0.9-0.4c0.2,0,0.4,0,0.5,0.1
	v0.7C105.5,3,105.4,3,105.2,3c-1.1,0-1.4,1.3-1.4,2.3v2.8h-0.6V3.7z"/>
<path class="st0" d="M107.8,1h-0.7V0h0.7V1z M107.1,2.5h0.7v5.7h-0.7V2.5z"/>
<path class="st0" d="M109.3,7.3c0.5,0.2,1,0.3,1.5,0.3c0.3,0,0.6-0.1,0.8-0.2c0.2-0.2,0.4-0.5,0.4-0.8c0-1.4-2.7-1.1-2.7-2.8
	c0-1.1,0.9-1.5,1.8-1.5c0.5,0,1,0.1,1.4,0.2l-0.1,0.6C112.2,3,111.8,3,111.3,3c-0.7,0-1.2,0.2-1.2,1c0,1,2.8,1,2.8,2.8
	c0,1.2-1.1,1.6-2,1.6c-0.5,0-1.1-0.1-1.6-0.2C109.3,8.2,109.3,7.3,109.3,7.3z"/>
<path class="st0" d="M117.3,7.2c0.5,0.3,1.1,0.5,1.8,0.5c0.2,0,0.5,0,0.7-0.1s0.4-0.2,0.6-0.3s0.3-0.3,0.4-0.5s0.1-0.4,0.1-0.7
	c0-1.5-3.6-1.8-3.6-3.8c0-1.3,1.1-2,2.5-2c0.5,0,1,0.1,1.5,0.2l-0.2,0.7c-0.5-0.2-0.9-0.3-1.4-0.3c-0.8,0-1.7,0.3-1.7,1.4
	c0,1.6,3.6,1.6,3.6,3.8c0,0.3-0.1,0.6-0.2,0.9s-0.3,0.5-0.6,0.8c-0.2,0.2-0.5,0.4-0.8,0.5s-0.6,0.1-0.9,0.1c-0.6,0-1.2-0.1-1.8-0.3
	V7.2z"/>
<path class="st0" d="M123.2,2.5h0.7l-0.1,1c0.2-0.4,0.4-0.7,0.7-0.9c0.3-0.2,0.7-0.3,1.1-0.3c1.7,0,2.3,1.3,2.3,3s-0.8,3-2.3,3
	c-0.4,0-0.7-0.1-1.1-0.3c-0.3-0.2-0.6-0.5-0.7-0.8v3.4h-0.7L123.2,2.5L123.2,2.5z M125.6,2.9c-1.3,0-1.7,1.4-1.7,2.4
	s0.4,2.4,1.7,2.4c1.3,0,1.7-1.3,1.7-2.4S126.9,2.9,125.6,2.9z"/>
<path class="st0" d="M132.9,7.2c-0.2,0.3-0.5,0.6-0.8,0.8c-0.3,0.2-0.7,0.3-1.1,0.2c-1.6,0-1.8-1.1-1.8-1.6c0-1.9,2-2,3.5-2h0.2V4.4
	c0-1-0.3-1.4-1.3-1.4c-0.6,0-1.2,0.2-1.7,0.5V2.7c0.5-0.3,1.1-0.4,1.7-0.4c1.4,0,2,0.6,2,2.2V7c0,0.4,0,0.8,0.1,1.2H133L132.9,7.2
	L132.9,7.2z M132.8,5.3h-0.2c-1.2,0-2.6,0.2-2.6,1.4c0,0.7,0.6,1,1.2,1c1.7,0,1.7-1.4,1.7-2.1L132.8,5.3L132.8,5.3z"/>
<path class="st0" d="M136,1h-0.7V0h0.7V1z M135.3,2.5h0.7v5.7h-0.7V2.5z"/>
<path class="st0" d="M137.9,3.8c0-0.5,0-0.9-0.1-1.4h0.7v1c0.1-0.4,0.4-0.7,0.7-0.9s0.7-0.3,1.1-0.3c1.4,0,1.9,1,1.9,2.2v3.8h-0.7
	V4.7c0-1-0.4-1.8-1.4-1.8c-1.3,0-1.7,1.1-1.7,2.1v3.1h-0.7L137.9,3.8L137.9,3.8z"/>
<path class="st1" d="M153.1,4.6h-1.8V4h2.6v3.8c-0.8,0.3-1.6,0.5-2.4,0.5c-0.5,0-1.1,0-1.6-0.2s-0.9-0.5-1.3-0.9
	c-0.4-0.4-0.7-0.8-0.8-1.3c-0.2-0.5-0.2-1-0.2-1.6c0-0.5,0-1.1,0.2-1.6s0.5-1,0.8-1.3c0.4-0.4,0.8-0.7,1.3-0.9s1-0.3,1.6-0.2
	c0.7,0,1.4,0.1,2.1,0.4l-0.1,0.7c-0.6-0.3-1.3-0.4-2-0.4c-0.4,0-0.9,0.1-1.3,0.2c-0.4,0.2-0.8,0.4-1.1,0.7s-0.5,0.7-0.7,1.1
	c-0.1,0.4-0.2,0.9-0.2,1.3c-0.1,0.4,0,0.9,0.1,1.3s0.4,0.8,0.7,1.1c0.3,0.3,0.7,0.6,1.1,0.7c0.4,0.2,0.8,0.2,1.3,0.2
	c0.6,0,1.2-0.1,1.7-0.3L153.1,4.6z"/>
<path class="st1" d="M155.9-0.2h0.7v8.4h-0.7V-0.2z"/>
<path class="st1" d="M160.7,2.4c1.8,0,2.6,1.4,2.6,3s-0.8,3-2.6,3s-2.6-1.4-2.6-3S158.8,2.4,160.7,2.4z M160.7,7.7
	c1.2,0,1.9-1,1.9-2.4s-0.6-2.4-1.9-2.4s-1.9,1-1.9,2.4S159.5,7.7,160.7,7.7z"/>
<path class="st1" d="M164.7-0.2h0.7v3.7c0.1-0.3,0.4-0.6,0.7-0.8s0.7-0.3,1.1-0.3c1.7,0,2.3,1.3,2.3,3s-0.8,3-2.3,3
	c-0.4,0-0.7-0.1-1-0.2c-0.3-0.2-0.6-0.4-0.7-0.8v0.9h-0.7v-8.5H164.7z M167.1,2.9c-1.3,0-1.7,1.4-1.7,2.4s0.4,2.4,1.7,2.4
	s1.7-1.3,1.7-2.4S168.5,2.9,167.1,2.9z"/>
<path class="st1" d="M174.5,7.2c-0.2,0.3-0.5,0.6-0.8,0.8c-0.3,0.2-0.7,0.3-1.1,0.2c-1.6,0-1.8-1.1-1.8-1.6c0-1.9,2-2,3.5-2h0.2V4.4
	c0-1-0.3-1.4-1.3-1.4c-0.6,0-1.2,0.2-1.7,0.5V2.7c0.5-0.3,1.1-0.4,1.7-0.4c1.4,0,2,0.6,2,2.2V7c0,0.4,0,0.9,0.1,1.3h-0.7v-1h-0.1
	V7.2z M174.4,5.3h-0.2c-1.2,0-2.6,0.2-2.6,1.4c0,0.7,0.6,1,1.2,1c1.7,0,1.7-1.4,1.7-2.1L174.4,5.3L174.4,5.3z"/>
<path class="st1" d="M177-0.2h0.7v8.4H177V-0.2z"/>
<path class="st1" d="M183,0.4h0.8v3.4h3.9V0.4h0.8v7.9h-0.8V4.5h-3.9v3.7H183V0.4z"/>
<path class="st1" d="M190.6,0.4h2c1.4,0,2.3,0.6,2.3,2c0,0.5-0.2,0.9-0.5,1.3s-0.8,0.6-1.2,0.6c0.6,0.1,0.7,0.4,1,1l1.4,3h-0.9
	l-1.1-2.6c-0.5-1-0.8-1-1.5-1h-0.6v3.6h-0.8L190.6,0.4z M191.4,3.8h0.8c0.9,0,1.9-0.3,1.9-1.4c0-1.3-0.9-1.4-2-1.4h-0.8L191.4,3.8
	L191.4,3.8z"/>
<path class="st1" d="M200.1,0.4h0.8v7.1h3.1v0.6h-3.9L200.1,0.4L200.1,0.4z"/>
<path class="st1" d="M208.5,7.2c-0.2,0.3-0.5,0.6-0.8,0.8c-0.3,0.2-0.7,0.3-1.1,0.2c-0.2,0-0.5,0-0.7,0c-0.2-0.1-0.4-0.2-0.6-0.3
	c-0.2-0.2-0.3-0.3-0.4-0.6c-0.1-0.2-0.1-0.4-0.1-0.7c0-1.9,2-2,3.5-2h0.2V4.4c0-1-0.3-1.4-1.3-1.4c-0.6,0-1.2,0.2-1.7,0.5V2.7
	c0.5-0.3,1.1-0.4,1.7-0.4c1.4,0,2,0.6,2,2.2V7c0,0.4,0,0.8,0.1,1.2h-0.7L208.5,7.2L208.5,7.2z M208.4,5.3h-0.2
	c-1.2,0-2.6,0.2-2.6,1.4c0,0.1,0,0.3,0.1,0.4s0.2,0.3,0.3,0.4s0.2,0.2,0.4,0.2c0.1,0,0.3,0,0.4,0c1.7,0,1.7-1.4,1.7-2.1L208.4,5.3
	L208.4,5.3z"/>
<path class="st1" d="M216.8,8.2h-0.9l-1.5-5l-1.5,5H212l-1.8-5.7h0.8l1.5,5l1.6-5h0.9l1.5,5l1.6-5h0.7L216.8,8.2z"/>
<path class="st1" d="M221.5,9c-0.2,0.8-0.6,1.6-1.4,1.6c-0.3,0-0.5,0-0.8-0.1l0.1-0.6c0.2,0.1,0.4,0.1,0.6,0.1c0.6,0,0.8-0.5,1-1.3
	l0.2-0.5l-2-5.8h0.8l1.6,4.8l1.7-4.7h0.7L221.5,9z"/>
<path class="st1" d="M228.7,8c-0.5,0.2-1.1,0.3-1.7,0.3c-1.9,0-2.6-1.3-2.6-3s1-3,2.4-3c1.6,0,2.2,1.3,2.2,2.8v0.3h-3.9
	c0,1.2,0.6,2.2,1.8,2.2c0.6,0,1.1-0.2,1.6-0.4L228.7,8L228.7,8z M228.4,4.9c0-1-0.4-2-1.4-2c-0.5,0-0.9,0.3-1.2,0.7
	s-0.5,0.9-0.4,1.3H228.4z"/>
<path class="st1" d="M230.6,3.7c0-0.4,0-0.9-0.1-1.3h0.7v1.1c0.1-0.3,0.3-0.6,0.5-0.8c0.3-0.2,0.6-0.3,0.9-0.4c0.1,0,0.4,0,0.5,0.1
	v0.7C233,3,232.8,3,232.6,3c-1.1,0-1.4,1.3-1.4,2.3v2.8h-0.7L230.6,3.7L230.6,3.7z"/>
<path class="st1" d="M234.1,7.3c0.5,0.2,1,0.3,1.5,0.3c0.3,0,0.6-0.1,0.8-0.2c0.2-0.2,0.4-0.5,0.4-0.8c0-1.4-2.7-1.1-2.7-2.8
	c0-1.1,0.9-1.5,1.8-1.5c0.5,0,1,0.1,1.4,0.2l-0.1,0.6C237,3,236.6,3,236.1,3c-0.7,0-1.2,0.2-1.2,1c0,1,2.8,1,2.8,2.8
	c0,1.2-1.1,1.6-2,1.6c-0.5,0-1.1-0.1-1.6-0.2V7.3z"/>
<path class="st1" d="M63.3,30.2c1.2,0.7,2.5,1.1,3.9,1c2.2,0,4-1.1,4-3.7c0-3.5-8.2-3.9-8.2-8.6c0-2.9,2.5-4.6,5.7-4.6
	c1.2,0,2.4,0.2,3.5,0.6l-0.3,1.6c-1-0.4-2.1-0.7-3.3-0.6c-1.8,0-3.8,0.8-3.8,3c0,3.6,8.1,3.6,8.1,8.8c0,3.6-3.1,5-5.8,5
	c-1.4,0-2.8-0.2-4.1-0.8L63.3,30.2z"/>
<path class="st1" d="M83.9,30.4c-0.4,0.8-1,1.4-1.8,1.8c-0.7,0.4-1.6,0.6-2.5,0.6c-3.7,0-4.3-2.5-4.3-3.7c0-4.4,4.6-4.5,8.1-4.5h0.3
	V24c0-2.2-0.8-3.4-3-3.4c-1.3,0-2.7,0.3-3.8,1V20c1.2-0.5,2.5-0.8,3.8-0.9c3.2,0,4.6,1.4,4.6,4.9v5.8c0,0.9,0,1.8,0.2,2.7h-1.6
	L83.9,30.4L83.9,30.4z M83.7,25.9h-0.5c-2.8,0-6.2,0.3-6.2,3.1c0,1.7,1.2,2.3,2.7,2.3c3.8,0,3.8-3.3,3.8-4.7L83.7,25.9L83.7,25.9z"
	/>
<path class="st1" d="M99.6,31.5c0,3.6-1.6,6.6-6.2,6.6c-1.3,0-2.7-0.3-3.9-0.7l0.2-1.6c1.2,0.6,2.5,1,3.8,1c4.2,0,4.5-3,4.5-6.7
	h-0.1c-0.3,0.8-0.9,1.5-1.6,1.9c-0.7,0.5-1.6,0.7-2.4,0.6c-4.2,0-5.5-3.6-5.5-6.6c0-4,1.5-6.9,5.4-6.9c0.8-0.1,1.6,0,2.3,0.3
	c0.7,0.3,1.3,0.8,1.8,1.4H98v-1.6h1.6L99.6,31.5L99.6,31.5z M94,31.1c3,0,4-2.8,4-5.1c0-3.1-1-5.4-3.8-5.4c-3,0-3.8,3-3.8,5.4
	S91.2,31.1,94,31.1L94,31.1z"/>
<path class="st1" d="M110.9,30.4c-0.4,0.8-1,1.4-1.8,1.8c-0.7,0.4-1.6,0.6-2.5,0.6c-3.7,0-4.3-2.5-4.3-3.7c0-4.4,4.6-4.5,8.1-4.5
	h0.3V24c0-2.2-0.8-3.4-3-3.4c-1.3,0-2.7,0.3-3.8,1V20c1.2-0.5,2.5-0.8,3.8-0.9c3.2,0,4.6,1.4,4.6,4.9v5.8c0,0.9,0,1.8,0.2,2.7h-1.6
	L110.9,30.4L110.9,30.4z M110.8,25.9h-0.5c-2.8,0-6.2,0.3-6.2,3.1c0,1.7,1.2,2.3,2.7,2.3c3.8,0,3.8-3.3,3.8-4.7L110.8,25.9
	L110.8,25.9z"/>
<path class="st1" d="M116.2,22.4c0-1.4,0-2-0.1-3h1.6v2.5h0.1c0.2-0.8,0.6-1.4,1.2-1.9s1.3-0.8,2.1-0.9c0.4,0,0.8,0.1,1.1,0.2V21
	c-0.4-0.1-0.8-0.2-1.2-0.2c-2.6,0-3.3,2.9-3.3,5.2v6.5h-1.6V22.4H116.2z"/>
<path class="st1" d="M134.6,32.5H133v-2.1h-0.1c-0.4,0.8-0.9,1.4-1.7,1.8c-0.7,0.4-1.6,0.6-2.4,0.6c-3.6,0-5.4-3-5.4-6.8
	s1.5-6.9,5.4-6.9c0.8,0,1.7,0.2,2.4,0.6s1.3,1.1,1.7,1.8h0.1v-8.3h1.6V32.5z M129.1,31.5c2.9,0,3.8-3,3.8-5.4s-1-5.4-3.8-5.4
	c-3,0-3.8,3-3.8,5.4S126.1,31.5,129.1,31.5z"/>
<path class="st1" d="M143.6,19.2c4.2,0,6.1,3.3,6.1,6.9s-1.8,6.8-6.1,6.8c-4.2,0-6.1-3.3-6.1-6.8S139.4,19.2,143.6,19.2z
	 M143.6,31.5c2.8,0,4.3-2.4,4.3-5.4s-1.5-5.4-4.3-5.4s-4.3,2.4-4.3,5.4S140.8,31.5,143.6,31.5z"/>
<path class="st1" d="M156.7,34.5c-0.6,1.8-1.5,3.6-3.4,3.6c-0.6,0-1.2-0.1-1.8-0.2l0.2-1.4c0.4,0.1,0.8,0.2,1.2,0.2
	c1.4,0,1.8-1.1,2.3-2.9l0.3-1.1l-4.6-13.2h1.8l3.7,10.9h0.1l3.8-10.9h1.7L156.7,34.5z"/>
<path class="st1" d="M176.9,14.7h2l7.1,17.9h-1.8l-1.9-4.8h-9l-1.9,4.8h-1.8L176.9,14.7z M177.8,16.4l-3.9,9.9h7.8L177.8,16.4z"/>
<path class="st1" d="M188.2,13.3h1.6v8.3h0.1c0.4-0.8,1-1.4,1.7-1.8s1.6-0.7,2.4-0.6c3.8,0,5.4,2.9,5.4,6.9s-1.8,6.8-5.4,6.8
	c-0.8,0.1-1.7-0.1-2.4-0.6c-0.7-0.4-1.3-1.1-1.7-1.8h-0.1v2.1h-1.6V13.3z M193.6,20.5c-3,0-3.8,3-3.8,5.4s1,5.4,3.8,5.4
	c3,0,3.8-3,3.8-5.4S196.7,20.5,193.6,20.5z"/>
<path class="st1" d="M207.7,19.2c4.2,0,6.1,3.3,6.1,6.9s-1.8,6.8-6.1,6.8c-4.2,0-6.1-3.3-6.1-6.8S203.4,19.2,207.7,19.2z
	 M207.7,31.5c2.8,0,4.3-2.4,4.3-5.4s-1.5-5.4-4.3-5.4s-4.3,2.4-4.3,5.4S204.8,31.5,207.7,31.5z"/>
<path class="st1" d="M227.1,31.5c0,3.6-1.6,6.6-6.2,6.6c-1.3,0-2.7-0.3-3.9-0.7l0.2-1.6c1.2,0.6,2.5,1,3.8,1c4.2,0,4.5-3,4.5-6.7
	c-0.3,0.8-0.9,1.5-1.6,1.9c-0.7,0.5-1.6,0.7-2.4,0.6c-4.2,0-5.5-3.6-5.5-6.6c0-4,1.5-6.9,5.4-6.9c0.8-0.1,1.6,0,2.3,0.3
	s1.3,0.8,1.8,1.4h0.1v-1.6h1.6v12.3H227.1z M221.5,31.1c3,0,4-2.8,4-5.1c0-3.1-1-5.4-3.8-5.4c-3,0-3.8,3-3.8,5.4
	S218.8,31.1,221.5,31.1z"/>
<path class="st1" d="M238.6,30.4c-0.4,0.7-1,1.4-1.7,1.8s-1.6,0.6-2.4,0.6c-3.7,0-4.3-2.5-4.3-3.7c0-4.4,4.6-4.5,8.1-4.5h0.3V24
	c0-2.2-0.8-3.4-3-3.4c-1.3,0-2.7,0.3-3.8,1V20c1.2-0.5,2.5-0.8,3.8-0.9c3.2,0,4.6,1.4,4.6,4.9v5.8c0,0.9,0,1.8,0.2,2.7h-1.6
	L238.6,30.4L238.6,30.4z M238.4,25.9h-0.5c-2.8,0-6.2,0.3-6.2,3.1c0,1.7,1.2,2.3,2.7,2.3c3.8,0,3.8-3.3,3.8-4.7L238.4,25.9
	L238.4,25.9z"/>
<path class="st1" d="M254.1,32.5h-1.6v-2.1h-0.1c-0.4,0.8-0.9,1.4-1.7,1.8c-0.7,0.4-1.6,0.6-2.4,0.6c-3.6,0-5.4-3-5.4-6.8
	s1.5-6.9,5.4-6.9c0.8,0,1.7,0.2,2.4,0.6s1.3,1.1,1.7,1.8h0.1v-8.3h1.6V32.5z M248.7,31.5c2.9,0,3.8-3,3.8-5.4s-1-5.4-3.8-5.4
	c-3,0-3.8,3-3.8,5.4S245.6,31.5,248.7,31.5z"/>
<path class="st1" d="M263.2,19.2c4.2,0,6.1,3.3,6.1,6.9s-1.8,6.8-6.1,6.8c-4.2,0-6.1-3.3-6.1-6.8S259,19.2,263.2,19.2z M263.2,31.5
	c2.8,0,4.3-2.4,4.3-5.4s-1.5-5.4-4.3-5.4s-4.3,2.4-4.3,5.4S260.3,31.5,263.2,31.5z"/>
<path class="st1" d="M271.3,30.7c1.1,0.5,2.2,0.8,3.4,0.8c1.5,0,2.9-0.9,2.9-2.3c0-3.1-6.2-2.6-6.2-6.4c0-2.6,2.1-3.6,4.2-3.6
	c1.1,0,2.2,0.2,3.2,0.6l-0.2,1.4c-0.9-0.4-1.9-0.6-2.9-0.6c-1.7,0-2.8,0.5-2.8,2.2c0,2.4,6.4,2.2,6.4,6.4c0,2.8-2.6,3.7-4.6,3.7
	c-1.3,0-2.5-0.2-3.7-0.6L271.3,30.7z"/>
</svg>
