<?xml version="1.0" standalone="no"?>
<!DOCTYPE svg PUBLIC "-//W3C//DTD SVG 1.1//EN" "http://www.w3.org/Graphics/SVG/1.1/DTD/svg11.dtd" >
<svg xmlns="http://www.w3.org/2000/svg" xmlns:xlink="http://www.w3.org/1999/xlink" version="1.1">
<metadata>
Created by FontForge 20170731 at Thu Jun  8 19:19:27 2023
 By Aleksey,,,
Copyright 2004 Monotype Imaging, Inc. All rights reserved.
</metadata>
<defs>
<font id="NeoSansPro-Black" horiz-adv-x="1363" >
  <font-face 
    font-family="Neo Sans Pro Black"
    font-weight="900"
    font-stretch="normal"
    units-per-em="2048"
    panose-1="2 11 10 4 3 5 4 4 2 4"
    ascent="1567"
    descent="-481"
    x-height="1192"
    cap-height="1522"
    bbox="-266 -442 3250 2099"
    underline-thickness="184"
    underline-position="-345"
    unicode-range="U+0020-FB04"
  />
<missing-glyph horiz-adv-x="1024" 
d="M25 0v1362h972v-1362h-972zM180 1266l332 -498l330 498h-662zM123 1178v-992q0 -1 82.5 123t164.5 249l83 124zM901 1178l-332 -496l332 -498v994zM842 98l-330 496l-332 -496h662z" />
    <glyph glyph-name="f_b" unicode="fb" horiz-adv-x="2125" 
d="M1655 516v160q0 99 -32.5 154t-113.5 55q-57 0 -139 -8v-562q98 -10 139 -10q81 0 113.5 55t32.5 156zM1372 1542v-346q100 14 137 14q266 0 402.5 -141.5t136.5 -392.5v-160q0 -256 -142.5 -395t-396.5 -139q-223 0 -458 51q-44 10 -59 24t-15 41v1231h-236
q-76 0 -98 -13.5t-22 -68.5v-55h155q17 0 29 -12t12 -29v-209q0 -17 -12 -29t-29 -12h-155v-860q0 -17 -12 -29t-29 -12h-312q-17 0 -29 12t-12 29v860l-135 31q-43 11 -43 43v172q0 18 12.5 31.5t30.5 13.5h135v55q0 95 18.5 160.5t52 107.5t93 65t129 31.5t172.5 8.5
q157 0 330 -37h309q17 0 29 -12t12 -29z" />
    <glyph glyph-name="f_f_b" unicode="ffb" horiz-adv-x="2875" 
d="M2404 516v160q0 99 -32 154t-113 55q-57 0 -139 -8v-562q98 -10 139 -10q81 0 113 55t32 156zM977 901h-356v-860q0 -17 -12 -29t-29 -12h-312q-17 0 -29 12t-12 29v860l-135 31q-43 11 -43 43v172q0 18 12.5 31.5t30.5 13.5h135v55q0 90 17 156t47 107.5t77 66t99.5 34
t122.5 9.5q83 0 182 -18q43 -7 43 -41v-193q0 -17 -12 -28t-31 -11h-86q-38 0 -51.5 -18t-13.5 -64v-55h356v55q0 95 18.5 160.5t52 107.5t93 65t129 31.5t172.5 8.5q157 0 330 -37h307q17 0 29 -12t12 -29v-346q100 14 139 14q266 0 402.5 -141.5t136.5 -392.5v-160
q0 -256 -142.5 -395t-396.5 -139q-224 0 -459 51q-44 10 -59 24t-15 41v1231h-235q-76 0 -98.5 -13.5t-22.5 -68.5v-55h156q17 0 29 -12t12 -29v-209q0 -17 -12 -29t-29 -12h-156v-860q0 -17 -12 -29t-29 -12h-311q-17 0 -29 12t-12 29v860z" />
    <glyph glyph-name="f_f_h" unicode="ffh" horiz-adv-x="2910" 
d="M2120 1544v-414q63 44 133.5 61t169.5 17q86 0 152 -24t107.5 -64.5t68 -100.5t37 -125.5t10.5 -145.5v-707q0 -17 -12 -29t-29 -12h-312q-17 0 -29 12t-12 29v707q0 78 -31 106.5t-98 28.5q-73 0 -155 -45v-793q0 -18 -11.5 -31.5t-29.5 -13.5h-307q-18 0 -32 14t-14 31
v1284h-235q-76 0 -98.5 -13.5t-22.5 -68.5v-55h156q17 0 29 -12t12 -29v-209q0 -17 -12 -29t-29 -12h-156v-860q0 -17 -12 -29t-29 -12h-311q-17 0 -29 12t-12 29v860h-356v-860q0 -17 -12 -29t-29 -12h-312q-17 0 -29 12t-12 29v860l-135 31q-43 11 -43 43v172
q0 18 12.5 31.5t30.5 13.5h135v55q0 90 17 156t47 107.5t77 66t99.5 34t122.5 9.5q83 0 182 -18q43 -7 43 -41v-193q0 -17 -12 -28t-31 -11h-86q-38 0 -51.5 -18t-13.5 -64v-55h356v55q0 95 18.5 160.5t52 107.5t93 65t129 31.5t172.5 8.5q157 0 330 -37h307q41 0 41 -39z
" />
    <glyph glyph-name="f_f_j" unicode="ffj" horiz-adv-x="2271" 
d="M2150 -43q0 -108 -24.5 -183.5t-72 -117.5t-108 -60t-141.5 -18q-78 0 -192 19q-41 7 -41 43v190q0 17 12 29t31 12h88q34 0 43.5 19.5t9.5 66.5v944h-387v-860q0 -17 -12 -29t-29 -12h-311q-17 0 -29 12t-12 29v860h-354v-860q0 -17 -12 -29t-29 -12h-312q-17 0 -29 12
t-12 29v860l-135 31q-43 11 -43 43v172q0 18 12.5 31.5t30.5 13.5h135v55q0 90 17 156t47 107.5t77 66t99.5 34t122.5 9.5q83 0 182 -18q43 -7 43 -41v-193q0 -17 -12 -28t-31 -11h-86q-38 0 -51.5 -18t-13.5 -64v-55h354v55q0 90 17 156t47 107.5t76.5 66t99 34t122.5 9.5
q84 0 183 -18q43 -7 43 -41v-193q0 -17 -12 -28t-31 -11h-86q-38 0 -52 -18t-14 -64v-55h737q17 0 31 -13t14 -30v-1192zM2159 1346q0 -17 -13.5 -29t-31.5 -12h-322q-18 0 -31.5 12t-13.5 29v200q0 17 13.5 29t31.5 12h322q18 0 31.5 -12t13.5 -29v-200z" />
    <glyph glyph-name="f_f_k" unicode="ffk" horiz-adv-x="2897" 
d="M977 901h-356v-860q0 -17 -12 -29t-29 -12h-312q-17 0 -29 12t-12 29v860l-135 31q-43 11 -43 43v172q0 18 12.5 31.5t30.5 13.5h135v55q0 90 17 156t47 107.5t77 66t99.5 34t122.5 9.5q83 0 182 -18q43 -7 43 -41v-193q0 -17 -12 -28t-31 -11h-86q-38 0 -51.5 -18
t-13.5 -64v-55h356v55q0 95 18.5 160.5t52 107.5t93 65t129 31.5t172.5 8.5q157 0 330 -37h307q41 0 41 -39v-858l280 469q20 37 60 37h354q13 0 21 -7t8 -18q0 -7 -7 -18l-354 -531l363 -573q4 -6 4 -16q0 -11 -7.5 -20t-19.5 -9h-379q-38 0 -63 45l-260 467v-467
q0 -18 -12 -31.5t-29 -13.5h-307q-17 0 -31.5 14t-14.5 31v1284h-235q-76 0 -98.5 -13.5t-22.5 -68.5v-55h156q17 0 29 -12t12 -29v-209q0 -17 -12 -29t-29 -12h-156v-860q0 -17 -12 -29t-29 -12h-311q-17 0 -29 12t-12 29v860z" />
    <glyph glyph-name="f_h" unicode="fh" horiz-adv-x="2160" 
d="M1370 1542v-412q63 44 133.5 61t169.5 17q86 0 152 -24t107.5 -64.5t68 -100.5t37 -125.5t10.5 -145.5v-707q0 -17 -12 -29t-29 -12h-311q-17 0 -29 12t-12 29v707q0 78 -31 106.5t-98 28.5q-74 0 -156 -45v-793q0 -18 -11.5 -31.5t-29.5 -13.5h-307q-18 0 -31.5 13.5
t-13.5 31.5v1284h-236q-76 0 -98 -13.5t-22 -68.5v-55h155q17 0 29 -12t12 -29v-209q0 -17 -12 -29t-29 -12h-155v-860q0 -17 -12 -29t-29 -12h-312q-17 0 -29 12t-12 29v860l-135 31q-43 11 -43 43v172q0 18 12.5 31.5t30.5 13.5h135v55q0 95 18.5 160.5t52 107.5t93 65
t129 31.5t172.5 8.5q157 0 330 -37h307q17 0 29 -12t12 -29z" />
    <glyph glyph-name="f_j" unicode="fj" horiz-adv-x="1523" 
d="M1403 -43q0 -108 -24.5 -183.5t-72 -117.5t-108 -60t-141.5 -18q-79 0 -193 19q-41 7 -41 43v190q0 17 12 29t31 12h88q34 0 44 19.5t10 66.5v944h-387v-860q0 -17 -12 -29t-29 -12h-312q-17 0 -29 12t-12 29v860l-135 31q-43 11 -43 43v172q0 18 12.5 31.5t30.5 13.5
h135v55q0 90 17 156t47 107.5t77 66t99.5 34t122.5 9.5q83 0 182 -18q43 -7 43 -41v-193q0 -17 -12 -28t-31 -11h-86q-38 0 -51.5 -18t-13.5 -64v-55h737q17 0 31 -13t14 -30v-1192zM1411 1346q0 -17 -13.5 -29t-31.5 -12h-322q-18 0 -31.5 12t-13.5 29v200q0 17 13.5 29
t31.5 12h322q18 0 31.5 -12t13.5 -29v-200z" />
    <glyph glyph-name="f_k" unicode="fk" horiz-adv-x="2148" 
d="M1370 1544v-858l281 469q20 37 59 37h354q13 0 21 -7t8 -18q0 -9 -6 -18l-354 -531l362 -573q4 -6 4 -16q0 -11 -7.5 -20t-18.5 -9h-379q-39 0 -64 45l-260 467v-467q0 -18 -12 -31.5t-29 -13.5h-307q-17 0 -31 14t-14 31v1284h-236q-76 0 -98 -13.5t-22 -68.5v-55h155
q17 0 29 -12t12 -29v-209q0 -17 -12 -29t-29 -12h-155v-860q0 -17 -12 -29t-29 -12h-312q-17 0 -29 12t-12 29v860l-135 31q-43 11 -43 43v172q0 18 12.5 31.5t30.5 13.5h135v55q0 95 18.5 160.5t52 107.5t93 65t129 31.5t172.5 8.5q157 0 330 -37h307q41 0 41 -39z" />
    <glyph glyph-name="f_f" unicode="ff" horiz-adv-x="1634" 
d="M1567 942q0 -17 -12 -29t-29 -12h-156v-860q0 -17 -12 -29t-29 -12h-311q-17 0 -29 12t-12 29v860h-356v-860q0 -17 -12 -29t-29 -12h-312q-17 0 -29 12t-12 29v860l-135 31q-43 11 -43 43v172q0 18 12.5 31.5t30.5 13.5h135v55q0 90 17 156t47 107.5t77 66t99.5 34
t122.5 9.5q83 0 182 -18q43 -7 43 -41v-193q0 -17 -12 -28t-31 -11h-86q-38 0 -51.5 -18t-13.5 -64v-55h356v55q0 90 17 156t47 107.5t76.5 66t99 34t122.5 9.5q84 0 183 -18q43 -7 43 -41v-193q0 -17 -12 -28t-31 -11h-86q-38 0 -52 -18t-14 -64v-55h156q17 0 29 -12
t12 -29v-209z" />
    <glyph glyph-name="fi" unicode="fi" horiz-adv-x="1495" 
d="M1372 45q0 -17 -13 -31t-30 -14h-307q-17 0 -31 14t-14 31v856h-356v-860q0 -17 -12 -29t-29 -12h-312q-17 0 -29 12t-12 29v860l-135 31q-43 11 -43 43v172q0 18 12.5 31.5t30.5 13.5h135v55q0 90 17 156t47 107.5t77 66t99.5 34t122.5 9.5q83 0 182 -18q43 -7 43 -41
v-193q0 -17 -12 -28t-31 -11h-86q-38 0 -51.5 -18t-13.5 -64v-55h708q17 0 30 -13t13 -30v-1104zM1382 1346q0 -17 -13.5 -29t-31.5 -12h-323q-18 0 -31.5 12t-13.5 29v200q0 17 13.5 29t31.5 12h323q18 0 31.5 -12t13.5 -29v-200z" />
    <glyph glyph-name="fl" unicode="fl" horiz-adv-x="1484" 
d="M817 942q0 -17 -12 -29t-29 -12h-155v-860q0 -17 -12 -29t-29 -12h-312q-17 0 -29 12t-12 29v860l-135 31q-43 11 -43 43v172q0 18 12.5 31.5t30.5 13.5h135v55q0 95 18.5 160.5t52 107.5t93 65t129 31.5t172.5 8.5q157 0 330 -37h309q17 0 29 -12t12 -29v-1497
q0 -18 -12 -31.5t-29 -13.5h-309q-17 0 -31 14t-14 31v1284h-236q-76 0 -98 -13.5t-22 -68.5v-55h155q17 0 29 -12t12 -29v-209z" />
    <glyph glyph-name="f_f_i" unicode="ffi" horiz-adv-x="2275" 
d="M2152 45q0 -17 -14 -31t-31 -14h-305q-17 0 -31 14t-14 31v856h-387v-860q0 -17 -12 -29t-29 -12h-311q-17 0 -29 12t-12 29v860h-356v-860q0 -17 -12 -29t-29 -12h-312q-17 0 -29 12t-12 29v860l-135 31q-43 11 -43 43v172q0 18 12.5 31.5t30.5 13.5h135v55q0 90 17 156
t47 107.5t77 66t99.5 34t122.5 9.5q83 0 182 -18q43 -7 43 -41v-193q0 -17 -12 -28t-31 -11h-86q-38 0 -51.5 -18t-13.5 -64v-55h356v55q0 90 17 156t47 107.5t76.5 66t99 34t122.5 9.5q84 0 183 -18q43 -7 43 -41v-193q0 -17 -12 -28t-31 -11h-86q-38 0 -52 -18t-14 -64
v-55h737q17 0 31 -13t14 -30v-1104zM2163 1346q0 -17 -13.5 -29t-31.5 -12h-324q-18 0 -32.5 12t-14.5 29v200q0 17 14.5 29t32.5 12h324q18 0 31.5 -12t13.5 -29v-200z" />
    <glyph glyph-name="f_f_l" unicode="ffl" horiz-adv-x="2234" 
d="M977 901h-356v-860q0 -17 -12 -29t-29 -12h-312q-17 0 -29 12t-12 29v860l-135 31q-43 11 -43 43v172q0 18 12.5 31.5t30.5 13.5h135v55q0 90 17 156t47 107.5t77 66t99.5 34t122.5 9.5q83 0 182 -18q43 -7 43 -41v-193q0 -17 -12 -28t-31 -11h-86q-38 0 -51.5 -18
t-13.5 -64v-55h356v55q0 95 18.5 160.5t52 107.5t93 65t129 31.5t172.5 8.5q157 0 330 -37h309q17 0 29 -12t12 -29v-1497q0 -18 -12 -31.5t-29 -13.5h-309q-17 0 -31.5 14t-14.5 31v1284h-235q-76 0 -98.5 -13.5t-22.5 -68.5v-55h156q17 0 29 -12t12 -29v-209
q0 -17 -12 -29t-29 -12h-156v-860q0 -17 -12 -29t-29 -12h-311q-17 0 -29 12t-12 29v860z" />
    <glyph glyph-name=".notdef" horiz-adv-x="1024" 
d="M25 0v1362h972v-1362h-972zM180 1266l332 -498l330 498h-662zM123 1178v-992q0 -1 82.5 123t164.5 249l83 124zM901 1178l-332 -496l332 -498v994zM842 98l-330 496l-332 -496h662z" />
    <glyph glyph-name=".null" horiz-adv-x="0" 
 />
    <glyph glyph-name="nonmarkingreturn" horiz-adv-x="682" 
 />
    <glyph glyph-name="space" unicode=" " horiz-adv-x="516" 
 />
    <glyph glyph-name="exclam" unicode="!" horiz-adv-x="595" 
d="M502 1544v-2l-51 -1005q-2 -18 -13 -30.5t-28 -12.5h-217q-17 0 -30.5 13t-15.5 30l-51 1005v2q0 17 13.5 28t31.5 11h320q17 0 29 -11t12 -28zM489 41q0 -17 -11.5 -29t-28.5 -12h-299q-17 0 -29 12t-12 29v285q0 17 12 29t29 12h299q17 0 28.5 -12t11.5 -29v-285z" />
    <glyph glyph-name="quotedbl" unicode="&#x22;" horiz-adv-x="1032" 
d="M993 1561q0 -5 -4 -17l-166 -471q-8 -21 -16.5 -30t-22.5 -9h-252q-18 0 -18 21q0 12 2 18l117 471q8 39 41 39h295q24 0 24 -22zM506 1561q0 -5 -4 -17l-166 -471q-8 -21 -16.5 -30t-22.5 -9h-252q-18 0 -18 21q0 12 2 18l116 471q8 39 41 39h295q25 0 25 -22z" />
    <glyph glyph-name="numbersign" unicode="#" horiz-adv-x="1464" 
d="M1364 1120v-4l-23 -182q-1 -12 -11.5 -19.5t-24.5 -7.5h-160l-29 -297h162q14 0 25.5 -9t11.5 -21v-5l-23 -176q-2 -12 -13 -21t-24 -9h-159l-29 -330q-2 -16 -11.5 -27.5t-25.5 -11.5h-256q-14 0 -23.5 10.5t-9.5 24.5v4l27 330h-197l-28 -330q-2 -16 -12.5 -27.5
t-24.5 -11.5h-260q-13 0 -23 10.5t-10 24.5v4l29 330h-158q-14 0 -23.5 7t-9.5 19v4l23 181q2 12 12 21t23 9h155l27 297h-158q-14 0 -23.5 7.5t-9.5 19.5v4l23 182q1 12 12 20.5t25 8.5h151l29 334q2 15 13 27t26 12h260q13 0 22 -10.5t9 -24.5v-4l-31 -334h199l30 334
q2 16 12.5 27.5t26.5 11.5h256q14 0 22.5 -10.5t8.5 -24.5v-4l-31 -334h166q14 0 24.5 -8.5t10.5 -20.5zM817 907h-196l-29 -297h199z" />
    <glyph glyph-name="dollar" unicode="$" 
d="M1225 451q0 -74 -22.5 -143t-68 -132t-124 -110t-181.5 -68v-199q0 -17 -12 -29t-29 -12h-264q-17 0 -29 12t-12 29v191q-127 10 -252 45q-41 12 -41 41v252q0 17 12 29t27 12h4q267 -31 414 -31q72 0 100.5 26t28.5 78q0 31 -19.5 53t-76.5 56l-295 174
q-136 80 -190 180t-54 230q0 326 342 391v180q0 17 12 29t29 12h264q17 0 29 -12t12 -29v-172q218 -17 312 -43q39 -12 39 -41v-254q0 -15 -11 -27t-26 -12h-4q-321 27 -465 27q-54 0 -77.5 -17t-23.5 -53q0 -27 21.5 -48.5t85.5 -55.5l274 -148q144 -77 207.5 -177.5
t63.5 -233.5z" />
    <glyph glyph-name="percent" unicode="%" horiz-adv-x="1775" 
d="M1702 348q0 -360 -311 -360q-153 0 -233.5 89.5t-80.5 270.5v139q0 181 80.5 271t233.5 90q152 0 231.5 -90t79.5 -271v-139zM1481 1503q0 -6 -8 -22l-850 -1436q-12 -19 -16.5 -25.5t-13.5 -13t-20 -6.5h-249q-12 0 -19.5 8t-7.5 19q0 9 6 18l850 1436q14 24 25 32.5
t28 8.5h252q10 0 16.5 -5.5t6.5 -13.5zM702 1034q0 -181 -80 -270.5t-233 -89.5t-233 89.5t-80 270.5v140q0 358 313 358t313 -358v-140zM1466 348v139q0 94 -18 126t-57 32t-58.5 -32.5t-19.5 -125.5v-139q0 -93 19.5 -125.5t58.5 -32.5t57 32t18 126zM465 1034v140
q0 93 -18.5 125t-57.5 32t-58.5 -32t-19.5 -125v-140q0 -93 19.5 -126.5t58.5 -33.5t57.5 33t18.5 127z" />
    <glyph glyph-name="ampersand" unicode="&#x26;" horiz-adv-x="1527" 
d="M1520 27q0 -11 -8.5 -19t-20.5 -8h-350q-19 0 -37 18l-49 50q-156 -86 -371 -86q-107 0 -195.5 14t-163.5 45t-126.5 78.5t-80 117t-28.5 158.5v13q0 141 67 232t199 171l-18 20q-101 113 -135.5 181.5t-34.5 142.5v16q0 78 28 143t86.5 117t157.5 81.5t232 29.5
q244 0 368.5 -100.5t124.5 -270.5v-16q0 -54 -12 -99.5t-30.5 -78.5t-52.5 -67.5t-64 -58.5t-80 -58l-74 -52l213 -225q29 89 29 191v26q0 17 11 29t28 12h231q17 0 28 -12t11 -29v-26q0 -239 -115 -422l219 -232q13 -13 13 -26zM801 1155v16q0 46 -32.5 74.5t-96.5 28.5
q-70 0 -105 -28t-35 -75v-16q0 -44 16.5 -79.5t67.5 -86.5l15 -14l49 33q75 51 98 78.5t23 68.5zM848 287l-270 286q-50 -33 -68 -73t-18 -92v-13q0 -64 49.5 -101.5t142.5 -37.5q91 0 164 31z" />
    <glyph glyph-name="quotesingle" unicode="'" horiz-adv-x="477" 
d="M506 1561q0 -5 -4 -17l-166 -471q-8 -21 -16.5 -30t-22.5 -9h-252q-18 0 -18 21q0 12 2 18l116 471q8 39 41 39h295q25 0 25 -22z" />
    <glyph glyph-name="parenleft" unicode="(" horiz-adv-x="796" 
d="M725 -379q0 -20 -25 -20h-266q-50 0 -69 28q-136 190 -202.5 407t-66.5 505v39q0 288 66.5 505.5t202.5 407.5q20 29 69 29h266q25 0 25 -21q0 -13 -10 -33q-221 -409 -221 -888v-39q0 -478 221 -887q10 -20 10 -33z" />
    <glyph glyph-name="parenright" unicode=")" horiz-adv-x="796" 
d="M702 541q0 -289 -66.5 -505.5t-201.5 -406.5q-19 -28 -69 -28h-267q-24 0 -24 20q0 13 10 33q221 409 221 887v39q0 479 -221 888q-10 20 -10 33q0 21 24 21h267q49 0 69 -29q135 -190 201.5 -407t66.5 -506v-39z" />
    <glyph glyph-name="asterisk" unicode="*" horiz-adv-x="993" 
d="M934 1149q0 -24 -33 -35l-227 -65l143 -193q12 -15 12 -31t-14 -24l-129 -94q-10 -7 -20 -7q-19 0 -33 21l-135 199l-136 -199q-14 -21 -32 -21q-10 0 -21 7l-131 94q-14 8 -14 24t12 31l143 193l-225 65q-35 12 -35 35q0 6 2 10l52 156q6 20 26 20q7 0 23 -4l227 -76
l-6 236v2q0 41 33 41h164q30 0 30 -41v-2l-2 -236l223 76q16 4 23 4q21 0 27 -20l51 -156q2 -4 2 -10z" />
    <glyph glyph-name="plus" unicode="+" 
d="M1188 688q0 -33 -41 -33h-320v-317q0 -41 -32 -41h-226q-32 0 -32 41v317h-318q-41 0 -41 33v225q0 33 41 33h318v320q0 41 32 41h226q32 0 32 -41v-320h320q41 0 41 -33v-225z" />
    <glyph glyph-name="comma" unicode="," horiz-adv-x="595" 
d="M543 338q0 -8 -2 -12l-213 -488q-18 -41 -47 -41h-213q-15 0 -27 10t-12 23q0 1 1 4t1 4l137 488q11 41 43 41h301q13 0 22 -8.5t9 -20.5z" />
    <glyph glyph-name="hyphen" unicode="-" horiz-adv-x="577" 
d="M528 512q0 -17 -12 -28t-29 -11h-395q-17 0 -29 11t-12 28v209q0 17 12 28t29 11h395q17 0 29 -11t12 -28v-209z" />
    <glyph glyph-name="period" unicode="." horiz-adv-x="595" 
d="M489 41q0 -17 -13 -29t-30 -12h-296q-18 0 -31 12t-13 29v285q0 17 13 29t31 12h296q17 0 30 -12t13 -29v-285z" />
    <glyph glyph-name="slash" unicode="/" horiz-adv-x="870" 
d="M846 1489q0 -1 -1 -4t-1 -4l-420 -1436q-12 -45 -43 -45h-313q-15 0 -30 12t-15 25q0 2 1 4.5t1 3.5l421 1436q11 41 46 41h313q15 0 28 -10t13 -23z" />
    <glyph glyph-name="zero" unicode="0" 
d="M1251 662q0 -680 -569 -680t-569 680v198q0 682 569 682t569 -682v-198zM834 662v198q0 100 -11 167.5t-32.5 101.5t-47 47.5t-61.5 13.5t-61.5 -13.5t-47 -47.5t-32.5 -101.5t-11 -167.5v-198q0 -100 11 -167.5t32.5 -101.5t47 -47.5t61.5 -13.5t61.5 13.5t47 47.5
t32.5 101.5t11 167.5z" />
    <glyph glyph-name="one" unicode="1" 
d="M229 350h246v758l-239 -86q-15 -6 -25 -6q-21 0 -21 24v291q0 24 25 35l352 147q21 9 47 9h236q17 0 28 -11t11 -28v-1133h244q17 0 29 -12t12 -29v-268q0 -17 -12 -29t-29 -12h-904q-17 0 -29 12t-12 29v268q0 17 12 29t29 12z" />
    <glyph glyph-name="two" unicode="2" 
d="M1212 1137q0 -234 -215 -375l-166 -111q-20 -13 -65 -42t-65 -42.5t-54 -38t-49.5 -41t-34.5 -39.5t-26 -45.5t-7 -46.5v-6h619q17 0 29 -12t12 -29v-268q0 -17 -12 -29t-29 -12h-954q-17 0 -29 12t-12 29v217q0 163 65.5 292t177.5 212l176 131q168 125 199 155t31 72
q0 52 -38 72t-155 20q-94 0 -399 -24h-4q-15 0 -26 12t-11 29v198q0 11 6.5 19t13 11.5t19.5 8.5q217 76 461 76q290 0 416 -99t126 -306z" />
    <glyph glyph-name="three" unicode="3" 
d="M1208 442q0 -233 -146.5 -346.5t-412.5 -113.5q-122 0 -249.5 20t-202.5 49q-41 16 -41 41v201q0 17 11 28t26 11h4q267 -21 426 -21q174 0 174 131v33q0 32 -6 55.5t-22 45.5t-49.5 33.5t-82.5 11.5h-340q-17 0 -29 12t-12 29v219q0 17 12 28t29 11h340q88 0 124 43.5
t36 107.5v33q0 59 -38 82.5t-120 23.5q-139 0 -432 -22h-4q-16 0 -27.5 11t-11.5 28v200q0 24 43 41q79 31 196.5 52.5t235.5 21.5q274 0 419.5 -96t145.5 -316v-28q0 -91 -47.5 -180.5t-138.5 -145.5q89 -45 139.5 -123t50.5 -178v-33z" />
    <glyph glyph-name="four" unicode="4" 
d="M1276 358q0 -17 -12 -29t-29 -12h-119v-276q0 -17 -12 -29t-29 -12h-336q-17 0 -28 12t-11 29v276h-571q-17 0 -29 12t-12 29v232q0 31 23 61l663 852q14 19 49 19h252q17 0 29 -12t12 -29v-848h119q17 0 29 -12t12 -29v-234zM717 633v389q0 8 -4 8q-2 0 -6 -4l-283 -375
q-6 -9 -6 -12q0 -6 10 -6h289z" />
    <glyph glyph-name="five" unicode="5" 
d="M1202 487q0 -250 -153 -377.5t-428 -127.5q-225 0 -414 67q-15 6 -21 9t-14 12t-8 22v203q0 17 11.5 28t27.5 11h4q221 -23 342 -23q97 0 147 19t66 54.5t16 102.5v21q0 77 -46.5 109t-170.5 32h-358q-15 0 -25 9t-10 24v4l63 797q2 16 13 27.5t28 11.5h848q17 0 29 -11
t12 -28v-254q0 -17 -12 -28t-29 -11h-557l-20 -225h84q295 0 435 -113t140 -344v-21z" />
    <glyph glyph-name="six" unicode="6" 
d="M1241 508q0 -245 -142.5 -385.5t-412.5 -140.5q-267 0 -414 147.5t-147 423.5v422q0 149 43.5 260.5t123 177.5t180 97.5t224.5 31.5q236 0 428 -53q27 -7 36 -18t9 -31v-215q0 -43 -36 -43h-11q-192 28 -366 28q-136 0 -180 -46.5t-44 -188.5v-12q31 6 99 13t110 7
q261 0 380.5 -101t119.5 -352v-22zM834 508v22q0 100 -37 134t-121 34q-74 0 -144 -12v-133q0 -106 16 -161.5t47 -75t91 -19.5q72 0 110 45t38 166z" />
    <glyph glyph-name="seven" unicode="7" 
d="M1192 1280q0 -28 -29 -92l-524 -1147q-16 -41 -47 -41h-365q-19 0 -24.5 14t2.5 31l526 1114q8 19 4 25t-20 6h-500q-18 0 -30.5 11t-12.5 28v254q0 17 12.5 28t30.5 11h922q23 0 39 -15.5t16 -38.5v-188z" />
    <glyph glyph-name="eight" unicode="8" 
d="M1255 434q0 -207 -145.5 -329.5t-415.5 -122.5h-24q-270 0 -415.5 122.5t-145.5 329.5v33q0 98 43 180.5t120 140.5q-155 110 -155 295v37q0 204 140 313t413 109h24q272 0 412.5 -109.5t140.5 -312.5v-37q0 -185 -155 -295q77 -58 120 -140.5t43 -180.5v-33zM854 1071
v12q0 67 -38.5 111.5t-121.5 44.5h-24q-83 0 -121.5 -44t-38.5 -112v-12q0 -68 39.5 -106.5t109.5 -38.5h46q70 0 109.5 38.5t39.5 106.5zM854 453v22q0 73 -37 120.5t-112 47.5h-46q-75 0 -112 -47t-37 -121v-22q0 -75 42.5 -121.5t117.5 -46.5h24q75 0 117.5 46.5
t42.5 121.5z" />
    <glyph glyph-name="nine" unicode="9" 
d="M1241 549q0 -149 -43.5 -260.5t-123 -177.5t-180 -97.5t-224.5 -31.5q-236 0 -428 53q-27 7 -36 18t-9 31v215q0 28 10.5 37t36.5 6q242 -29 366 -29q136 0 180 47t44 189v12q-31 -6 -99 -13t-110 -7q-130 0 -220.5 22.5t-155 74.5t-94.5 139.5t-30 215.5v23
q0 245 142.5 385.5t412.5 140.5q267 0 414 -147.5t147 -423.5v-422zM834 838v133q0 106 -16 161.5t-47 75t-91 19.5q-72 0 -110 -45t-38 -166v-23q0 -101 36.5 -134.5t121.5 -33.5q68 0 144 13z" />
    <glyph glyph-name="colon" unicode=":" horiz-adv-x="595" 
d="M489 801q0 -17 -13 -29t-30 -12h-296q-18 0 -31 12t-13 29v284q0 17 13 29t31 12h296q17 0 30 -12t13 -29v-284zM489 41q0 -17 -13 -29t-30 -12h-296q-18 0 -31 12t-13 29v285q0 17 13 29t31 12h296q17 0 30 -12t13 -29v-285z" />
    <glyph glyph-name="semicolon" unicode=";" horiz-adv-x="595" 
d="M489 801q0 -17 -13 -29t-30 -12h-299q-17 0 -29 12t-12 29v284q0 17 12 29t29 12h299q17 0 30 -12t13 -29v-284zM150 365h307q17 0 23.5 -13t-1.5 -28l-211 -488q-9 -22 -17 -31.5t-24 -9.5h-221q-20 0 -31.5 10t-5.5 31l137 488q5 20 14.5 30.5t29.5 10.5z" />
    <glyph glyph-name="less" unicode="&#x3c;" 
d="M1151 303q0 -10 -7 -17t-18 -7h-344q-33 0 -53 20l-479 436q-37 32 -37 66q0 37 37 67l479 435q25 22 53 22h344q10 0 17.5 -7.5t7.5 -17.5q0 -12 -12 -24l-527 -475l527 -473q12 -12 12 -25z" />
    <glyph glyph-name="equal" unicode="=" 
d="M1165 965q0 -33 -41 -33h-884q-41 0 -41 33v225q0 33 41 33h884q41 0 41 -33v-225zM1165 412q0 -33 -41 -33h-884q-41 0 -41 33v225q0 33 41 33h884q41 0 41 -33v-225z" />
    <glyph glyph-name="greater" unicode="&#x3e;" 
d="M1151 801q0 -34 -37 -66l-479 -436q-20 -20 -53 -20h-344q-11 0 -18 7t-7 17q0 13 12 25l529 473l-529 475q-12 12 -12 24q0 10 7.5 17.5t17.5 7.5h344q28 0 53 -22l479 -435q37 -30 37 -67z" />
    <glyph glyph-name="question" unicode="?" horiz-adv-x="1007" 
d="M934 1231q0 -132 -105 -281l-217 -313q-21 -30 -29.5 -51t-13.5 -54q-1 -12 -11 -20t-21 -8h-285q-9 0 -15 7.5t-6 18.5v72q0 74 12.5 122.5t47.5 109.5l166 282q22 37 22 62q0 31 -20.5 43t-71.5 12q-80 0 -268 -23q-21 -3 -31 7.5t-10 33.5v240q0 20 9 30.5t30 16.5
q148 51 340 51q239 0 358 -77.5t119 -262.5v-18zM590 41q0 -17 -13 -29t-30 -12h-299q-17 0 -29 12t-12 29v285q0 17 12 29t29 12h299q17 0 30 -12t13 -29v-285z" />
    <glyph glyph-name="at" unicode="@" horiz-adv-x="1593" 
d="M1534 733q0 -140 -39 -250.5t-107.5 -184.5t-166.5 -122t-210.5 -69t-244.5 -21q-167 0 -270 71t-103 216q0 27 6 108l15 181q10 124 68 205t146.5 115t207.5 34q130 0 278 -33q32 -7 45.5 -21t9.5 -49l-57 -600q114 23 176 136.5t62 283.5q0 74 -17 141t-54.5 127
t-92.5 104t-136.5 69.5t-181.5 25.5q-538 0 -585 -495l-31 -338q-2 -25 -2 -72q0 -192 119 -288.5t387 -96.5q125 0 313 16q13 1 17 -3t4 -19v-92q0 -22 -21 -25q-207 -23 -313 -23q-150 0 -275 32t-219.5 96t-147.5 167t-53 236q0 49 2 72l35 350q31 305 230 475t540 170
q132 0 242.5 -34.5t188 -93.5t131 -139.5t79 -171.5t25.5 -190zM887 784q-65 9 -72 9q-69 0 -97.5 -28.5t-35.5 -111.5l-23 -225q-2 -12 -2 -33q0 -52 27.5 -70t99.5 -18q23 0 60 2z" />
    <glyph glyph-name="A" unicode="A" horiz-adv-x="1417" 
d="M989 0q-33 0 -41 39l-57 285h-365l-57 -285q-8 -39 -41 -39h-354q-40 0 -33 43l274 1253q16 74 52 123.5t90 75t113.5 35.5t138.5 10q63 0 112 -6t97 -22t82.5 -42.5t61.5 -70.5t40 -103l274 -1253q10 -43 -30 -43h-357zM831 651l-100 520q0 2 -1 6q-4 20 -14 22
q-3 1 -7 1q-8 0 -12.5 -3.5t-6 -7.5t-3.5 -14q-1 -3 -1 -4l-100 -520h245z" />
    <glyph glyph-name="B" unicode="B" horiz-adv-x="1411" 
d="M1323 455q0 -114 -39 -200.5t-101 -137t-152.5 -82t-179.5 -42.5t-196 -11q-249 0 -393 24q-74 12 -101.5 43.5t-27.5 112.5v1202q0 81 27 112t100 42q61 10 183.5 17t205.5 7q126 0 224.5 -12.5t183.5 -43t140.5 -79.5t86.5 -125.5t31 -177.5v-35q0 -95 -43.5 -173.5
t-114.5 -117.5q72 -41 119 -121.5t47 -175.5v-26zM913 1040v33q0 71 -40 101t-146 30q-23 0 -101.5 -1t-82.5 -1v-291h198q172 0 172 129zM922 467v18q0 67 -43 107.5t-138 40.5h-198v-314h168q114 0 162.5 38.5t48.5 109.5z" />
    <glyph glyph-name="C" unicode="C" horiz-adv-x="1136" 
d="M1059 63q0 -19 -9.5 -28t-35.5 -17q-106 -36 -287 -36q-144 0 -258 40t-198.5 120.5t-129.5 210.5t-45 302v211q0 172 45 302.5t129.5 211t198.5 120.5t258 40q178 0 287 -37q27 -8 36 -16t9 -29v-262q0 -23 -9 -32.5t-34 -6.5q-199 19 -287 19q-46 0 -80.5 -12.5
t-66 -44.5t-48 -95.5t-16.5 -157.5v-211q0 -93 16.5 -156.5t47.5 -95.5t66 -44.5t81 -12.5q116 0 287 19q26 3 34.5 -7t8.5 -32v-263z" />
    <glyph glyph-name="D" unicode="D" horiz-adv-x="1425" 
d="M1333 649q0 -336 -174.5 -501.5t-490.5 -165.5q-269 0 -469 34q-35 6 -50.5 23t-15.5 57v1331q0 40 15.5 57t50.5 23q206 35 469 35q315 0 490 -166t175 -502v-225zM913 649v225q0 178 -58 245t-187 67q-58 0 -117 -2v-846q14 -2 117 -2q86 0 137.5 26t79.5 95.5
t28 191.5z" />
    <glyph glyph-name="E" unicode="E" horiz-adv-x="1198" 
d="M1090 47q0 -35 -41 -41q-187 -24 -404 -24q-61 0 -112 4.5t-106 17t-98.5 33.5t-83.5 56t-66.5 82.5t-42 114.5t-15.5 150v643q0 114 30.5 199t78 133.5t119 78t140.5 39t156 9.5q217 0 404 -24q41 -6 41 -41v-250q0 -17 -12 -29t-29 -12h-414q-56 0 -77 -21.5t-21 -81.5
v-149h503q17 0 29 -12t12 -29v-242q0 -17 -12 -29t-29 -12h-503v-170q0 -59 21 -80.5t77 -21.5h414q17 0 29 -12t12 -29v-250z" />
    <glyph glyph-name="F" unicode="F" horiz-adv-x="1187" 
d="M1079 1225q0 -17 -12 -29t-29 -12h-413q-56 0 -77.5 -22t-21.5 -81v-147h504q17 0 29 -12t12 -29v-242q0 -17 -12 -29t-29 -12h-504v-569q0 -17 -12 -29t-29 -12h-333q-17 0 -29 12t-12 29v1040q0 114 30.5 199t78 133.5t119 78t140.5 39t156 9.5q216 0 403 -24
q41 -6 41 -41v-250z" />
    <glyph glyph-name="G" unicode="G" horiz-adv-x="1345" 
d="M1227 78q0 -23 -9 -32.5t-34 -14.5q-229 -49 -473 -49q-82 0 -159.5 15.5t-163.5 61.5t-149.5 117.5t-105 194.5t-41.5 282v215q0 162 41 285t104 195t152 117.5t172.5 61t177.5 15.5q248 0 449 -55q24 -7 31.5 -13.5t7.5 -25.5v-258q0 -21 -8 -28t-27 -5
q-247 19 -395 19q-77 0 -127 -13.5t-87 -47.5t-53 -94t-16 -153v-217q0 -313 197 -313q59 0 112 6v420q0 17 11 29t28 12h324q17 0 29 -12t12 -29v-686z" />
    <glyph glyph-name="H" unicode="H" horiz-adv-x="1527" 
d="M1395 41q0 -17 -12 -29t-29 -12h-334q-17 0 -29 12t-12 29v557h-428v-557q0 -17 -12 -29t-29 -12h-334q-17 0 -30 12t-13 29v1442q0 17 12.5 28t30.5 11h334q17 0 29 -11t12 -28v-525h428v525q0 17 12 28t29 11h334q17 0 29 -11t12 -28v-1442z" />
    <glyph glyph-name="I" unicode="I" horiz-adv-x="684" 
d="M551 41q0 -17 -12 -29t-29 -12h-336q-17 0 -29 12t-12 29v1442q0 17 12 28t29 11h336q17 0 29 -11t12 -28v-1442z" />
    <glyph glyph-name="J" unicode="J" horiz-adv-x="684" 
d="M551 4q0 -93 -17.5 -162.5t-48 -113.5t-77 -71.5t-99.5 -38.5t-121 -11q-94 0 -186 14q-23 3 -32 12.5t-9 28.5v223q0 17 12 29t29 12h76q32 0 43.5 18.5t11.5 59.5v1477q0 17 13 29t30 12h334q17 0 29 -12t12 -29v-1477z" />
    <glyph glyph-name="K" unicode="K" horiz-adv-x="1460" 
d="M1411 23q0 -23 -27 -23h-430q-12 0 -20.5 6t-12 11t-10.5 18l-360 653v-647q0 -17 -12 -29t-29 -12h-334q-17 0 -30 12t-13 29v1442q0 17 12.5 28t30.5 11h334q17 0 29 -11t12 -28v-649l393 655q18 33 45 33h393q29 0 29 -23q0 -11 -8 -22l-447 -705l449 -729q6 -9 6 -20
z" />
    <glyph glyph-name="L" unicode="L" horiz-adv-x="1069" 
d="M1022 47q0 -35 -41 -41q-127 -24 -322 -24q-61 0 -112 4.5t-106.5 17t-99 33.5t-83.5 56t-66.5 82.5t-42.5 114.5t-16 150v1041q0 17 13 29t30 12h334q17 0 29 -12t12 -29v-1041q0 -59 21 -80.5t77 -21.5h332q17 0 29 -12t12 -29v-250z" />
    <glyph glyph-name="M" unicode="M" horiz-adv-x="1722" 
d="M991 510l168 281q17 21 21 22q8 0 8 -20v-758q0 -35 31 -35h335q13 0 24 9.5t11 25.5v1411q0 31 -22.5 53.5t-53.5 22.5h-227q-67 0 -104 -62l-297 -518q-14 -24 -25 -24q-8 0 -22 24l-297 518q-37 62 -105 62h-227q-31 0 -53.5 -22.5t-22.5 -53.5v-1411q0 -22 8.5 -28.5
t24.5 -6.5h338q11 0 19.5 11t8.5 24v758q0 20 9 20q6 0 9 -3.5t13 -18.5l168 -281q23 -39 60 -39h141q36 0 59 39z" />
    <glyph glyph-name="N" unicode="N" horiz-adv-x="1527" 
d="M1395 76q0 -31 -22.5 -53.5t-53.5 -22.5h-275q-54 0 -86 55l-403 686q-10 17 -20 17q-11 0 -11 -19v-698q0 -17 -12 -29t-29 -12h-307q-17 0 -30 12t-13 29v1405q0 31 22.5 53.5t53.5 22.5h270q50 0 82 -60l416 -706q11 -19 18 -19q11 0 11 19v725q0 17 12 29t29 12h307
q17 0 29 -12t12 -29v-1405z" />
    <glyph glyph-name="O" unicode="O" horiz-adv-x="1449" 
d="M1354 655q0 -146 -33 -261.5t-90 -192t-138 -126.5t-172 -71.5t-196 -21.5t-196 21.5t-172 71.5t-138 126.5t-90 192t-33 261.5v211q0 146 33 262t90 192.5t138 127t172 72.5t196 22t196 -22t172 -72.5t138 -127t90 -192.5t33 -262v-211zM932 655v211q0 163 -49.5 236.5
t-157.5 73.5t-157.5 -73.5t-49.5 -236.5v-211q0 -163 49.5 -235t157.5 -72t157.5 72t49.5 235z" />
    <glyph glyph-name="P" unicode="P" horiz-adv-x="1386" 
d="M1323 1012q0 -116 -38 -207.5t-99.5 -148.5t-146 -94t-170 -51.5t-179.5 -14.5q-26 0 -77.5 2.5t-67.5 3.5v-461q0 -17 -12 -29t-29 -12h-328q-18 0 -30.5 10t-12.5 27v1343q0 71 25.5 98t93.5 38q166 26 432 26q98 0 184.5 -14t172 -50t146 -92.5t98.5 -148t38 -209.5
v-16zM909 1012v16q0 166 -219 166q-7 0 -73 -1t-72 -1v-348q10 -2 145 -2q219 0 219 170z" />
    <glyph glyph-name="Q" unicode="Q" horiz-adv-x="1447" 
d="M1352 655q0 -144 -32 -259t-90.5 -192.5t-135 -126.5t-172.5 -73v-39q0 -25 7.5 -32t28.5 -7h170q22 0 37 -8.5t15 -23.5v-209q0 -15 -13.5 -28t-36.5 -19q-124 -31 -253 -31q-57 0 -105.5 10t-94 35t-77.5 64.5t-51 102.5t-19 144v41q-200 47 -317 206.5t-117 444.5v211
q0 145 33 260.5t90 192t138 127t172 72.5t196 22t196 -22t171.5 -72.5t137 -127t89.5 -192t33 -260.5v-211zM932 655v211q0 164 -49.5 237t-157.5 73t-158.5 -73t-50.5 -237v-211q0 -164 50 -236.5t159 -72.5q108 0 157.5 72.5t49.5 236.5z" />
    <glyph glyph-name="R" unicode="R" horiz-adv-x="1449" 
d="M1378 31q0 -13 -10 -22t-25 -9h-376q-4 0 -7 0.5t-6 2.5t-5.5 3t-5 4.5t-4 5t-3.5 6t-3 6t-3.5 6.5l-3.5 7l-260 500q-54 0 -117 2v-502q0 -17 -12 -29t-29 -12h-332q-17 0 -30 12t-13 29v1339q0 71 25.5 98t93.5 38q65 9 196.5 17.5t235.5 8.5q118 0 213.5 -15.5
t176.5 -51t135.5 -92t85 -141.5t30.5 -195v-33q0 -153 -71 -255.5t-179 -148.5l297 -557q6 -12 6 -22zM911 1012v35q0 145 -204 145q-99 0 -158 -4v-326q10 -2 149 -2q114 0 163.5 38.5t49.5 113.5z" />
    <glyph glyph-name="S" unicode="S" horiz-adv-x="1243" 
d="M1163 451q0 -90 -32 -170.5t-98 -149t-181.5 -109t-267.5 -40.5q-228 0 -414 53q-43 13 -43 41v252q0 44 43 41q341 -31 416 -31q72 0 100.5 26t28.5 78q0 31 -20 53t-77 56l-294 174q-136 80 -190 180t-54 230q0 407 536 407q119 0 259.5 -16t205.5 -35q37 -12 37 -39
v-256q0 -41 -41 -39q-11 1 -85 6.5t-127 9.5t-127.5 7.5t-125.5 3.5q-102 0 -102 -70q0 -28 20.5 -48.5t85.5 -55.5l277 -148q144 -77 207 -177.5t63 -233.5z" />
    <glyph glyph-name="T" unicode="T" horiz-adv-x="1216" 
d="M1167 1221q0 -17 -12.5 -28t-30.5 -11h-305v-1141q0 -17 -12 -29t-29 -12h-334q-17 0 -29 12t-12 29v1141h-311q-17 0 -29 11t-12 28v262q0 17 12 28t29 11h1032q18 0 30.5 -11t12.5 -28v-262z" />
    <glyph glyph-name="U" unicode="U" horiz-adv-x="1497" 
d="M1368 578q0 -104 -18 -189t-48.5 -146t-76.5 -107.5t-97.5 -75.5t-116 -46.5t-127.5 -24.5t-136 -7q-105 0 -189 14t-167 53.5t-138.5 104t-90 172.5t-34.5 252v903q0 17 13 29t30 12h332q17 0 29 -12t12 -29v-903q0 -138 46.5 -192t156.5 -54q111 0 157.5 54.5
t46.5 191.5v903q0 17 12 29t29 12h332q17 0 30 -12t13 -29v-903z" />
    <glyph glyph-name="V" unicode="V" horiz-adv-x="1466" 
d="M1370 1522q38 0 31 -41l-275 -1254q-16 -74 -51.5 -123.5t-89 -75.5t-113 -36t-139.5 -10t-139.5 10t-113 36t-89 75.5t-51.5 123.5l-274 1254q-7 41 32 41h355q35 0 43 -39l215 -1133q3 -11 4.5 -15.5t5.5 -8.5t12 -4q19 0 25 28l215 1133q8 39 41 39h356z" />
    <glyph glyph-name="W" unicode="W" horiz-adv-x="1878" 
d="M1802 1522q19 0 26.5 -6t6.5 -21l-180 -1321q-14 -102 -52.5 -138t-111.5 -36h-211q-67 0 -103.5 35t-62.5 123l-151 516q-3 12 -6 15t-11 3t-11.5 -3.5t-6.5 -14.5l-152 -516q-26 -88 -62.5 -123t-103.5 -35h-211q-73 0 -111 36t-52 138l-181 1321q-1 16 6.5 21.5
t26.5 5.5h348q28 0 31 -39l100 -908q3 -26 15 -26q10 0 16 26l119 414q13 49 42 68.5t79 19.5h215q50 0 79 -19.5t42 -68.5l118 -414q6 -26 17 -26t14 26l100 908q3 39 31 39h348z" />
    <glyph glyph-name="X" unicode="X" horiz-adv-x="1507" 
d="M1444 23q0 -9 -7.5 -16t-19.5 -7h-416q-29 0 -51 37l-221 364l-197 -360q-21 -41 -49 -41h-383q-11 0 -18.5 7.5t-7.5 17.5q0 4 4 16l418 754l-414 688q-4 8 -4 14q0 11 7 18t19 7h418q23 0 49 -39l211 -348l181 348q22 39 49 39h385q12 0 19 -7t7 -18q0 -6 -4 -14
l-411 -725l430 -717q6 -9 6 -18z" />
    <glyph glyph-name="Y" unicode="Y" horiz-adv-x="1396" 
d="M1356 1495q0 -4 -4 -16l-301 -707q-60 -140 -146 -176v-555q0 -17 -12 -29t-29 -12h-334q-17 0 -27.5 11.5t-10.5 29.5v555q-86 36 -146 176l-301 707q-4 12 -4 16q0 11 8 19t21 8h356q19 0 31 -6.5t15 -12.5t9 -20l197 -543q8 -20 20 -20q14 0 21 20l196 543
q6 15 9 20.5t15 12t32 6.5h356q13 0 21 -8t8 -19z" />
    <glyph glyph-name="Z" unicode="Z" horiz-adv-x="1294" 
d="M1182 41q0 -17 -12 -29t-29 -12h-965q-27 0 -45 14t-18 39v215q0 42 37 101l489 755q8 13 8 25q0 14 -22 14h-449q-17 0 -29 12t-12 29v279q0 17 12 28t29 11h934q53 0 53 -33v-258q0 -50 -65 -150l-447 -684q-8 -11 -8 -22q0 -17 25 -17h473q17 0 29 -11t12 -28v-278z
" />
    <glyph glyph-name="bracketleft" unicode="[" horiz-adv-x="806" 
d="M739 -360q0 -17 -11 -27t-28 -10h-548q-15 0 -25 12t-10 27v1841q0 15 10 27t25 12h546q18 0 29.5 -10t11.5 -27v-232q0 -17 -11.5 -26.5t-29.5 -9.5h-184v-1309h186q17 0 28 -10t11 -27v-231z" />
    <glyph glyph-name="backslash" unicode="\" horiz-adv-x="870" 
d="M848 31q0 -13 -14.5 -24t-30.5 -11h-314q-29 0 -40 43l-424 1442q0 1 -1 4t-1 4q0 13 13.5 23t29.5 10h313q34 0 45 -41l422 -1442q0 -1 1 -3.5t1 -4.5z" />
    <glyph glyph-name="bracketright" unicode="]" horiz-adv-x="806" 
d="M690 -358q0 -15 -10 -27t-25 -12h-549q-17 0 -27.5 10t-10.5 27v231q0 17 10.5 27t27.5 10h187v1309h-184q-18 0 -29.5 9.5t-11.5 26.5v232q0 17 11.5 27t29.5 10h546q15 0 25 -12t10 -27v-1841z" />
    <glyph glyph-name="asciicircum" unicode="^" 
d="M1243 1180q0 -21 -24 -21h-326q-26 0 -38.5 6t-27.5 23l-145 158l-145 -158q-15 -17 -27.5 -23t-38.5 -6h-324q-24 0 -24 21q0 11 10 24l223 301q18 24 31 30.5t43 6.5h504q30 0 43 -6.5t31 -30.5l225 -301q10 -13 10 -24z" />
    <glyph glyph-name="underscore" unicode="_" horiz-adv-x="1148" 
d="M1214 -221q0 -33 -40 -33h-1197q-40 0 -40 33v119q0 32 40 32h1197q40 0 40 -32v-119z" />
    <glyph glyph-name="grave" unicode="`" horiz-adv-x="966" 
d="M643 1311q0 -15 -18 -15h-265q-8 0 -14 1t-11.5 3.5t-7.5 4t-8 7t-8 7.5l-258 246q-8 8 -8 16q0 14 23 14h323q22 0 33 -6t25 -24l186 -234q8 -8 8 -20z" />
    <glyph glyph-name="a" unicode="a" horiz-adv-x="1177" 
d="M1075 41q0 -17 -12 -29t-29 -12h-284q-17 0 -29 12t-12 29v43q-140 -102 -293 -102q-51 0 -99 11t-94 38.5t-80.5 68t-55.5 104.5t-21 144v25q0 179 131 256.5t397 77.5h88v59q0 73 -28 96t-107 23q-143 0 -357 -15q-45 -3 -45 41v199q0 22 10 32t31 17q58 17 171 33
t204 16q92 0 167.5 -13.5t141 -45.5t110 -82t70 -126t25.5 -175v-725zM694 295v199h-100q-77 0 -110 -27.5t-33 -91.5v-21q0 -90 104 -90q71 0 139 31z" />
    <glyph glyph-name="b" unicode="b" horiz-adv-x="1261" 
d="M1184 516q0 -256 -142.5 -395t-396.5 -139q-224 0 -459 51q-44 10 -58.5 24t-14.5 41v1444q0 17 13.5 29t31.5 12h307q17 0 29 -12t12 -29v-346q100 14 139 14q266 0 402.5 -141.5t136.5 -392.5v-160zM791 516v160q0 99 -32.5 154t-113.5 55q-57 0 -139 -8v-562
q98 -10 139 -10q81 0 113.5 55t32.5 156z" />
    <glyph glyph-name="c" unicode="c" horiz-adv-x="970" 
d="M893 57q0 -19 -10 -28.5t-31 -14.5q-140 -32 -281 -32q-234 0 -361.5 141.5t-127.5 394.5v154q0 252 128 395t361 143q151 0 281 -32q21 -5 31 -14.5t10 -28.5v-232q0 -45 -43 -39q-175 15 -236 15q-69 0 -104 -48.5t-35 -158.5v-154q0 -110 35 -157.5t104 -47.5
q122 0 236 13q43 6 43 -39v-230z" />
    <glyph glyph-name="d" unicode="d" horiz-adv-x="1261" 
d="M1149 98q0 -28 -14 -41.5t-58 -23.5q-235 -51 -459 -51q-254 0 -396 138.5t-142 395.5v160q0 251 136.5 392.5t401.5 141.5q40 0 140 -14v346q0 17 12 29t29 12h305q18 0 31.5 -12t13.5 -29v-1444zM758 315v562q-82 8 -140 8q-81 0 -114 -55t-33 -154v-160
q0 -101 33 -156t114 -55q75 0 140 10z" />
    <glyph glyph-name="e" unicode="e" horiz-adv-x="1232" 
d="M1151 530q0 -20 -12 -32.5t-31 -12.5h-637v-4q0 -87 44 -131.5t151 -44.5q162 0 389 17q26 2 35.5 -5t9.5 -30v-185q0 -25 -8.5 -37.5t-32.5 -19.5q-192 -63 -445 -63q-85 0 -161.5 18t-145 58.5t-118 101.5t-78.5 152.5t-29 205.5v135q0 267 145 412t400 145
q260 0 392 -150t132 -407v-123zM774 702v7q0 94 -38 145t-113 51q-73 0 -112.5 -51.5t-39.5 -144.5v-7h303z" />
    <glyph glyph-name="f" unicode="f" horiz-adv-x="884" 
d="M817 942q0 -17 -12 -29t-29 -12h-155v-860q0 -17 -12 -29t-29 -12h-312q-17 0 -29 12t-12 29v860l-135 31q-43 11 -43 43v172q0 18 12.5 31.5t30.5 13.5h135v55q0 111 25 186.5t74.5 115t110 55.5t145.5 16q102 0 190 -16q43 -7 43 -41v-195q0 -17 -12 -28t-31 -11h-86
q-38 0 -51.5 -18t-13.5 -64v-55h155q17 0 29 -12t12 -29v-209z" />
    <glyph glyph-name="g" unicode="g" horiz-adv-x="1257" 
d="M1225 997q0 -35 -41 -45l-58 -16q37 -60 37 -135v-23q0 -391 -528 -391q-128 0 -201 25q-26 -17 -26 -43q0 -18 10 -28.5t37 -16.5l229 -48q102 -21 156 -33.5t132 -40.5t117 -59t69 -83t30 -119v-15q0 -178 -143.5 -262t-428.5 -84q-257 0 -394.5 92t-137.5 254v15
q0 50 29.5 112.5t85.5 106.5q-46 34 -71.5 73.5t-25.5 106.5q0 44 16 81t33 56.5t48 48.5q-99 90 -99 252v23q0 192 133.5 291.5t401.5 99.5h543q20 0 33.5 -14.5t13.5 -34.5v-146zM782 778v23q0 58 -33 89.5t-114 31.5q-148 0 -148 -121v-23q0 -55 31.5 -87t116.5 -32
q82 0 114.5 30.5t32.5 88.5zM778 -74v15q0 21 -10 33.5t-49 28t-117 32.5l-123 26q-30 -42 -30 -120v-15q0 -90 167 -90q96 0 129 23.5t33 66.5z" />
    <glyph glyph-name="h" unicode="h" horiz-adv-x="1294" 
d="M1184 41q0 -17 -12 -29t-29 -12h-312q-17 0 -28.5 12t-11.5 29v707q0 78 -31 106.5t-98 28.5q-74 0 -156 -45v-793q0 -18 -11.5 -31.5t-29.5 -13.5h-307q-18 0 -31.5 13.5t-13.5 31.5v1497q0 17 12 29t29 12h311q17 0 29 -12t12 -29v-412q63 44 133.5 61t169.5 17
q86 0 152 -24t107.5 -64.5t68 -100.5t37 -125.5t10.5 -145.5v-707z" />
    <glyph glyph-name="i" unicode="i" horiz-adv-x="641" 
d="M528 1346q0 -17 -13.5 -29t-31.5 -12h-323q-18 0 -32.5 12t-14.5 29v200q0 17 14.5 29t32.5 12h323q18 0 31.5 -12t13.5 -29v-200zM518 45q0 -17 -14 -31t-31 -14h-305q-17 0 -31 14t-14 31v1104q0 17 14 30t31 13h305q17 0 31 -13t14 -30v-1104z" />
    <glyph glyph-name="j" unicode="j" horiz-adv-x="638" 
d="M518 -43q0 -108 -24.5 -183.5t-72 -117.5t-108 -60t-141.5 -18q-78 0 -192 19q-41 7 -41 43v190q0 17 12 29t31 12h88q34 0 43.5 19.5t9.5 66.5v1192q0 17 14 30t31 13h305q17 0 31 -13t14 -30v-1192zM528 1346q0 -17 -13.5 -29t-31.5 -12h-323q-18 0 -32.5 12t-14.5 29
v200q0 17 14.5 29t32.5 12h323q18 0 31.5 -12t13.5 -29v-200z" />
    <glyph glyph-name="k" unicode="k" horiz-adv-x="1284" 
d="M1235 29q0 -11 -7.5 -20t-19.5 -9h-379q-38 0 -63 45l-260 467v-467q0 -18 -12 -31.5t-29 -13.5h-307q-17 0 -31 14t-14 31v1497q0 17 13.5 29t31.5 12h307q17 0 29 -12t12 -29v-856l280 469q20 37 60 37h354q13 0 21 -7t8 -18q0 -9 -6 -18l-355 -531l363 -573
q4 -6 4 -16z" />
    <glyph glyph-name="l" unicode="l" horiz-adv-x="620" 
d="M508 45q0 -18 -12 -31.5t-29 -13.5h-309q-17 0 -31 14t-14 31v1497q0 17 13.5 29t31.5 12h309q17 0 29 -12t12 -29v-1497z" />
    <glyph glyph-name="m" unicode="m" horiz-adv-x="1845" 
d="M1733 45q0 -18 -11.5 -31.5t-29.5 -13.5h-308q-18 0 -31.5 13.5t-13.5 31.5v698q0 74 -22 99.5t-78 25.5q-62 0 -125 -24q6 -53 6 -101v-698q0 -18 -12.5 -31.5t-30.5 -13.5h-307q-18 0 -30.5 13.5t-12.5 31.5v698q0 74 -21 99.5t-77 25.5q-58 0 -123 -30v-793
q0 -18 -11.5 -31.5t-29.5 -13.5h-307q-18 0 -31.5 13.5t-13.5 31.5v1106q0 17 12 29t29 12h284q17 0 29 -12t12 -29v-47q74 57 149.5 80.5t166.5 23.5q165 0 239 -104q74 61 152.5 82.5t183.5 21.5q190 0 276.5 -117.5t86.5 -347.5v-698z" />
    <glyph glyph-name="n" unicode="n" horiz-adv-x="1292" 
d="M1180 45q0 -18 -11.5 -31.5t-29.5 -13.5h-308q-18 0 -31.5 13.5t-13.5 31.5v694q0 81 -28.5 112.5t-98.5 31.5q-72 0 -153 -43v-795q0 -18 -11.5 -31.5t-29.5 -13.5h-307q-18 0 -31.5 13.5t-13.5 31.5v1106q0 17 12 29t29 12h284q17 0 29 -12t12 -29v-47q138 104 338 104
q93 0 161 -26.5t106 -67.5t60.5 -105.5t29 -126t6.5 -143.5v-694z" />
    <glyph glyph-name="o" unicode="o" horiz-adv-x="1239" 
d="M1157 537q0 -269 -139 -412t-397 -143t-398.5 143t-140.5 412v118q0 269 140.5 412t398.5 143t397 -143t139 -412v-118zM766 537v118q0 119 -36.5 172.5t-108.5 53.5q-73 0 -110.5 -53.5t-37.5 -172.5v-118q0 -228 148 -228q73 0 109 54t36 174z" />
    <glyph glyph-name="p" unicode="p" horiz-adv-x="1261" 
d="M1184 516q0 -251 -136.5 -392.5t-402.5 -141.5q-53 0 -139 12v-344q0 -17 -12 -30t-29 -13h-307q-17 0 -31 13t-14 30v1444q0 27 14.5 41t58.5 24q235 51 459 51q254 0 396.5 -138.5t142.5 -395.5v-160zM791 516v160q0 101 -32.5 155t-113.5 54q-87 0 -139 -8v-562
q103 -10 139 -10q81 0 113.5 55.5t32.5 155.5z" />
    <glyph glyph-name="q" unicode="q" horiz-adv-x="1261" 
d="M1149 -350q0 -17 -14 -30t-31 -13h-305q-17 0 -29 13t-12 30v344q-86 -12 -140 -12q-265 0 -401.5 141.5t-136.5 392.5v160q0 256 142 395t396 139q224 0 459 -51q44 -10 58 -23.5t14 -41.5v-1444zM758 315v562q-78 8 -140 8q-81 0 -114 -54t-33 -155v-160
q0 -211 147 -211q38 0 140 10z" />
    <glyph glyph-name="r" unicode="r" horiz-adv-x="854" 
d="M805 918q0 -19 -7 -25t-28 -6h-29q-150 0 -235 -47v-795q0 -18 -11.5 -31.5t-29.5 -13.5h-307q-18 0 -31.5 13.5t-13.5 31.5v1106q0 41 41 41h295q22 0 31 -9t9 -32v-49q64 67 123 86.5t152 19.5q26 0 33.5 -8t7.5 -33v-249z" />
    <glyph glyph-name="s" unicode="s" horiz-adv-x="1058" 
d="M979 348q0 -165 -118.5 -265.5t-356.5 -100.5q-208 0 -379 49q-39 9 -39 45v211q0 51 51 43q258 -33 352 -33q58 0 77.5 13.5t19.5 43.5q0 19 -13 34.5t-49 35.5l-250 135q-194 105 -194 324q0 159 112 243t338 84q192 0 377 -51q41 -10 41 -45v-215q0 -23 -8.5 -33.5
t-32.5 -7.5q-229 31 -352 31q-76 0 -76 -41q0 -18 10 -28t35 -23l240 -129q215 -115 215 -320z" />
    <glyph glyph-name="t" unicode="t" horiz-adv-x="884" 
d="M817 942q0 -17 -12 -29t-29 -12h-155v-551q0 -48 10 -63t47 -15h94q19 0 31 -11t12 -28v-192q0 -31 -43 -41q-87 -18 -182 -18q-88 0 -150 15.5t-112.5 55.5t-75.5 115t-25 186v547l-135 31q-18 5 -30.5 17t-12.5 28v172q0 18 12.5 30.5t30.5 12.5h135v166
q0 17 12.5 28.5t30.5 14.5l305 53q46 7 46 -39v-223h155q17 0 29 -12t12 -29v-209z" />
    <glyph glyph-name="u" unicode="u" horiz-adv-x="1292" 
d="M1180 41q0 -17 -12 -29t-29 -12h-285q-17 0 -29 12t-12 29v47q-143 -106 -324 -106q-376 0 -376 471v694q0 18 11.5 31.5t29.5 13.5h307q18 0 31.5 -13.5t13.5 -31.5v-694q0 -83 26 -114.5t101 -31.5q68 0 153 45v795q0 18 11.5 31.5t29.5 13.5h308q18 0 31.5 -13.5
t13.5 -31.5v-1106z" />
    <glyph glyph-name="v" unicode="v" horiz-adv-x="1269" 
d="M860 1192h336q47 0 35 -45l-258 -930q-17 -62 -45.5 -106.5t-59 -69t-73 -38.5t-77.5 -17.5t-83 -3.5t-82.5 3.5t-77 17.5t-73 38.5t-58.5 69t-45 106.5l-256 930q-12 45 33 45h336q38 0 45 -43l153 -748q6 -36 25 -36q21 0 27 36l153 748q3 21 12.5 32t32.5 11z" />
    <glyph glyph-name="w" unicode="w" horiz-adv-x="1783" 
d="M1374 1192h328q15 0 24.5 -9.5t6.5 -27.5l-181 -973q-18 -97 -60.5 -139.5t-113.5 -42.5h-186q-66 0 -107 44t-67 132l-111 375q-3 14 -14 14t-14 -14l-111 -375q-26 -88 -66.5 -132t-107.5 -44h-186q-71 0 -114 42.5t-61 139.5l-180 973q-4 19 5.5 28t25.5 9h328
q28 0 34 -35l101 -702q3 -17 14 -17t17 17l118 419q12 42 36.5 63t78.5 21h164q54 0 78.5 -21t36.5 -63l118 -419q6 -17 17 -17t14 17l100 702q6 35 35 35z" />
    <glyph glyph-name="x" unicode="x" horiz-adv-x="1325" 
d="M862 0q-18 0 -29.5 10t-27.5 35l-174 274l-160 -276q-9 -17 -13.5 -24t-14 -13t-23.5 -6h-336q-10 0 -17.5 8t-7.5 19q0 8 4 16l351 584l-348 522q-9 12 -3 27.5t25 15.5h379q29 0 53 -43l158 -248l141 248q22 43 51 43h332q25 0 31.5 -15.5t-2.5 -27.5l-336 -557
l365 -541q12 -20 5 -35.5t-26 -15.5h-377z" />
    <glyph glyph-name="y" unicode="y" horiz-adv-x="1271" 
d="M1200 1192q18 0 30 -10t5 -35l-348 -1217q-20 -71 -42.5 -121t-59 -95t-86 -72t-122 -42.5t-167.5 -15.5q-64 0 -150.5 11t-126.5 26q-47 16 -47 39v199q0 14 2.5 23t13.5 15.5t31 4.5q215 -17 281 -17q91 0 110 78l17 68h-27q-32 0 -51.5 3t-43.5 14.5t-41 34
t-35.5 62.5t-35.5 99l-270 903q-12 45 43 45h334q21 0 29 -10t12 -31l161 -705q8 -34 23 -34h16l162 741q4 20 12 29.5t31 9.5h340z" />
    <glyph glyph-name="z" unicode="z" horiz-adv-x="1110" 
d="M1014 41q0 -17 -12 -29t-29 -12h-821q-23 0 -39.5 16t-16.5 39v172q0 49 31 90l391 531q8 11 8 18q0 13 -18 13h-365q-32 0 -32 32v240q0 17 12 29t29 12h804q23 0 38.5 -16t15.5 -39v-187q0 -32 -7 -49.5t-28 -44.5l-373 -506q-8 -12 -8 -18q0 -13 18 -13h365
q16 0 26.5 -8.5t10.5 -23.5v-246z" />
    <glyph glyph-name="braceleft" unicode="{" horiz-adv-x="854" 
d="M823 -367q0 -17 -11.5 -26.5t-29.5 -9.5h-127q-113 0 -188.5 13t-129 40t-82.5 77.5t-41.5 118t-12.5 168.5v238q0 121 -113 192v230q113 71 113 192v238q0 101 12.5 168.5t41.5 118t82.5 78t129 40.5t188.5 13h127q18 0 29.5 -10t11.5 -27v-232q0 -17 -11.5 -26.5
t-29.5 -9.5h-106q-50 0 -65 -22.5t-15 -90.5v-238q0 -223 -180 -307q180 -84 180 -307v-238q0 -68 15 -90t65 -22h106q18 0 29.5 -10t11.5 -27v-232z" />
    <glyph glyph-name="bar" unicode="|" horiz-adv-x="630" 
d="M514 -352q0 -17 -13 -31t-30 -14h-309q-17 0 -31 14t-14 31v1833q0 17 13.5 29t31.5 12h309q17 0 30 -12t13 -29v-1833z" />
    <glyph glyph-name="braceright" unicode="}" horiz-adv-x="854" 
d="M766 444q-113 -71 -113 -192v-238q0 -101 -12.5 -168.5t-41.5 -118t-82.5 -77.5t-129 -40t-188.5 -13h-127q-18 0 -29.5 9.5t-11.5 26.5v232q0 17 11.5 27t29.5 10h106q50 0 65 22t15 90v238q0 223 180 307q-180 84 -180 307v238q0 68 -15 90.5t-65 22.5h-106
q-18 0 -29.5 9.5t-11.5 26.5v232q0 17 11.5 27t29.5 10h127q113 0 188.5 -13t129 -40.5t82.5 -78t41.5 -118t12.5 -168.5v-238q0 -121 113 -192v-230z" />
    <glyph glyph-name="asciitilde" unicode="~" 
d="M1235 993q0 -176 -84.5 -253.5t-253.5 -77.5q-46 0 -99.5 15.5t-92.5 39.5l-123 71q-50 29 -95 29q-51 0 -51 -59v-39q0 -43 -41 -43h-221q-45 0 -45 43v39q0 182 87.5 261t252.5 79q38 0 88 -10.5t84 -30.5l143 -82q57 -33 97 -33q26 0 36.5 12t10.5 41v47q0 43 43 43
h219q45 0 45 -43v-49z" />
    <glyph glyph-name="uni00A0" unicode="&#xa0;" horiz-adv-x="516" 
 />
    <glyph glyph-name="exclamdown" unicode="&#xa1;" horiz-adv-x="595" 
d="M487 866q0 -17 -12 -29t-29 -12h-299q-17 0 -29 12t-12 29v285q0 17 12 29t29 12h299q17 0 29 -12t12 -29v-285zM500 -352q0 -17 -13.5 -28t-31.5 -11h-320q-17 0 -29 11t-12 28v2l51 1005q2 18 13 30.5t28 12.5h217q17 0 30.5 -13t15.5 -30l51 -1005v-2z" />
    <glyph glyph-name="cent" unicode="&#xa2;" 
d="M1087 57q0 -19 -9.5 -28.5t-30.5 -14.5q-74 -18 -152 -26v-138q0 -17 -12 -28.5t-29 -11.5h-248q-17 0 -29 11.5t-12 28.5v164q-140 53 -214.5 182.5t-74.5 321.5v154q0 192 74.5 321.5t214.5 182.5v159q0 17 12 29t29 12h248q17 0 29 -12t12 -29v-133q81 -8 152 -24
q21 -5 30.5 -14.5t9.5 -28.5v-232q0 -17 -11.5 -28t-26.5 -11h-5q-175 15 -235 15q-69 0 -104 -48.5t-35 -158.5v-154q0 -110 35 -157.5t104 -47.5q83 0 235 13h5q15 0 26.5 -11t11.5 -28v-230z" />
    <glyph glyph-name="sterling" unicode="&#xa3;" 
d="M1221 1188q0 -37 -35 -37h-6q-242 23 -342 23q-89 0 -120.5 -28t-31.5 -116v-102h311q17 0 29 -11t12 -28v-244q0 -17 -11 -29t-28 -12h-313v-151q0 -65 -33 -129h525q17 0 29 -11t12 -28v-244q0 -17 -12 -29t-29 -12h-936q-19 0 -30 13.5t-11 31.5v184q0 28 20 52
q23 26 43.5 77.5t20.5 94.5v151h-101q-17 0 -28 12t-11 29v244q0 17 12 28t29 11h99v98q0 273 131.5 388.5t421.5 115.5q154 0 342 -37q26 -6 33.5 -14.5t7.5 -28.5v-262z" />
    <glyph glyph-name="currency" unicode="&#xa4;" 
d="M1225 1130q0 -15 -15 -30l-176 -176q39 -80 39 -164q0 -92 -43 -174l172 -174q15 -15 15 -31q0 -12 -11 -23l-133 -135q-10 -10 -22 -10q-17 0 -31 14l-178 179q-70 -33 -156 -33q-92 0 -166 39l-176 -176q-17 -17 -33 -17q-10 0 -20 10l-133 136q-11 11 -11 24
q0 16 15 31l176 174q-41 77 -41 166q0 80 35 155l-178 179q-15 15 -15 30q0 12 11 23l135 133q10 10 22 10q17 0 31 -14l172 -172q82 43 176 43q92 0 166 -39l174 176q14 14 31 14q12 0 22 -10l135 -135q11 -11 11 -23zM846 768q0 64 -45 109t-109 45q-65 0 -110 -45
t-45 -109q0 -65 45.5 -111.5t109.5 -46.5t109 46.5t45 111.5z" />
    <glyph glyph-name="yen" unicode="&#xa5;" 
d="M1329 1495q0 -4 -4 -16l-219 -453h164q17 0 29 -11t12 -28v-176q0 -17 -11 -28t-28 -11h-289l-86 -176l-6 -18h379q17 0 29 -11t12 -28v-177q0 -17 -11 -27.5t-28 -10.5h-381v-283q0 -17 -13 -29t-30 -12h-336q-17 0 -28 12t-11 29v283h-379q-18 0 -29.5 10.5t-11.5 27.5
v177q0 17 12 28t29 11h379l-6 18l-82 176h-291q-17 0 -29 11t-12 28v176q0 17 12 28t29 11h166l-221 453q-4 12 -4 16q0 11 9 19t22 8h370q26 0 41 -37l205 -502l205 502q15 37 41 37h370q13 0 22 -8t9 -19z" />
    <glyph glyph-name="brokenbar" unicode="&#xa6;" horiz-adv-x="630" 
d="M514 745q0 -18 -12 -31.5t-29 -13.5h-311q-17 0 -31 14t-14 31v705q0 17 13.5 29t31.5 12h311q17 0 29 -12t12 -29v-705zM514 -387q0 -18 -12 -31.5t-29 -13.5h-311q-17 0 -31 14t-14 31v704q0 17 13.5 29t31.5 12h311q17 0 29 -12t12 -29v-704z" />
    <glyph glyph-name="section" unicode="&#xa7;" horiz-adv-x="1243" 
d="M1165 25q0 -71 -19 -136t-62.5 -126t-108.5 -106t-164.5 -72t-222.5 -27q-234 0 -420 53q-43 13 -43 41v256q0 15 13 27t28 12h4q23 -2 89.5 -8.5t110 -11t105 -8t107.5 -3.5h6q73 0 103 24t30 78q0 31 -21 54t-79 55l-291 164q-74 42 -124.5 89.5t-78 101.5t-38.5 109
t-11 124q0 49 14.5 107t38.5 100q-53 85 -53 206q0 89 26.5 160t85.5 130t166.5 91.5t257.5 32.5q119 0 259.5 -16t205.5 -35q41 -12 41 -41v-256q0 -14 -10 -24.5t-23 -10.5h-2q-292 23 -471 23q-61 0 -83.5 -14.5t-22.5 -53.5q0 -26 22.5 -47.5t87.5 -56.5l277 -148
q144 -77 207 -176.5t63 -232.5q0 -118 -51 -215q51 -87 51 -213zM823 463q0 62 -34.5 101.5t-139.5 97.5l-135 73q-58 31 -88 58q-33 -33 -33 -97q0 -55 30 -89t128 -87l131 -71q72 -39 121 -82q20 39 20 96z" />
    <glyph glyph-name="dieresis" unicode="&#xa8;" horiz-adv-x="966" 
d="M889 1346q0 -17 -14.5 -29t-32.5 -12h-238q-18 0 -31.5 12t-13.5 29v200q0 17 13.5 29t31.5 12h238q18 0 32.5 -12t14.5 -29v-200zM410 1346q0 -17 -13.5 -29t-31.5 -12h-238q-18 0 -32.5 12t-14.5 29v200q0 17 14.5 29t32.5 12h238q18 0 31.5 -12t13.5 -29v-200z" />
    <glyph glyph-name="copyright" unicode="&#xa9;" horiz-adv-x="1536" 
d="M1458 766q0 -187 -93 -345t-252 -249.5t-347 -91.5q-187 0 -345 91.5t-249.5 249.5t-91.5 345q0 188 91.5 347.5t249.5 253t345 93.5t346.5 -93.5t252.5 -253.5t93 -347zM1343 766q0 156 -77.5 289.5t-210.5 212t-289 78.5t-288 -78.5t-208.5 -212t-76.5 -289.5
q0 -117 45.5 -223t122 -182.5t182.5 -122t223 -45.5t223.5 45.5t184 122t123.5 182.5t46 223zM979 375q0 -11 -6 -16.5t-21 -10.5q-74 -20 -159 -20q-178 0 -270.5 98.5t-92.5 292.5v106q0 195 92.5 293.5t270.5 98.5q90 0 159 -21q16 -5 21.5 -9.5t5.5 -15.5v-157
q0 -23 -23 -23h-4q-82 10 -159 10q-53 0 -85 -37.5t-32 -138.5v-106q0 -105 31.5 -140.5t85.5 -35.5q77 0 159 10h4q23 0 23 -23v-155z" />
    <glyph glyph-name="ordfeminine" unicode="&#xaa;" horiz-adv-x="776" 
d="M702 829q0 -26 -14 -30q-136 -37 -287 -37q-167 0 -249 58.5t-82 180.5v15q0 207 340 207h39v26q0 45 -19 61.5t-59 16.5q-119 0 -217 -10h-2q-11 0 -19 8.5t-8 20.5v127q0 25 29 32q120 35 217 35q75 0 132 -13.5t103.5 -45t71 -90t24.5 -142.5v-420zM453 944v143h-43
q-97 0 -97 -71v-15q0 -36 22 -49.5t66 -13.5q10 0 52 6z" />
    <glyph glyph-name="guillemotleft" unicode="&#xab;" horiz-adv-x="1529" 
d="M1470 145q0 -9 -7 -15.5t-19 -6.5h-303q-43 0 -60 22l-323 394q-25 32 -25 55q0 25 25 57l323 391q18 23 60 23h303q26 0 26 -21q0 -9 -10 -22l-350 -428l350 -426q10 -13 10 -23zM811 145q0 -9 -7.5 -15.5t-19.5 -6.5h-303q-42 0 -59 22l-324 394q-26 33 -26 55
q0 24 26 57l324 391q18 23 59 23h303q12 0 19.5 -6t7.5 -15t-10 -22l-350 -428l350 -426q10 -13 10 -23z" />
    <glyph glyph-name="logicalnot" unicode="&#xac;" 
d="M1165 395q0 -18 -10 -29.5t-27 -11.5h-219q-17 0 -26 11.5t-9 29.5v539h-634q-41 0 -41 33v223q0 33 41 33h884q41 0 41 -33v-795z" />
    <glyph glyph-name="uni00AD" unicode="&#xad;" horiz-adv-x="577" 
d="M528 512q0 -17 -12 -28t-29 -11h-395q-17 0 -29 11t-12 28v209q0 17 12 28t29 11h395q17 0 29 -11t12 -28v-209z" />
    <glyph glyph-name="registered" unicode="&#xae;" horiz-adv-x="1224" 
d="M1194 991q0 -158 -78.5 -291.5t-212.5 -210.5t-291 -77q-118 0 -225 45.5t-184.5 123t-123.5 184.5t-46 226q0 157 77.5 290.5t211 211.5t290.5 78t291 -78t212.5 -211.5t78.5 -290.5zM1083 991q0 127 -63.5 235t-172 171t-235.5 63t-234.5 -63t-170 -171t-62.5 -235
t62.5 -235t170 -171t234.5 -63t235.5 63t172 171t63.5 235zM905 676q0 -8 -5.5 -13.5t-12.5 -5.5h-168q-13 0 -21 17l-118 229h-50v-225q0 -8 -5.5 -14.5t-14.5 -6.5h-152q-9 0 -14.5 6.5t-5.5 14.5v594q0 38 11.5 51t45.5 18q85 11 193 11q144 0 218.5 -52t74.5 -174v-18
q0 -118 -113 -174l133 -246q4 -8 4 -12zM696 1108v18q0 68 -92 68h-80v-154h80q92 0 92 68z" />
    <glyph glyph-name="macron" unicode="&#xaf;" horiz-adv-x="966" 
d="M872 1360q0 -17 -12 -29t-29 -12h-694q-17 0 -29 12t-12 29v180q0 17 12 28t29 11h694q17 0 29 -11t12 -28v-180z" />
    <glyph glyph-name="degree" unicode="&#xb0;" horiz-adv-x="753" 
d="M702 1217q0 -134 -95 -229t-228 -95q-134 0 -230 95.5t-96 228.5t96 229t230 96q133 0 228 -95.5t95 -229.5zM514 1217q0 56 -40 96.5t-95 40.5t-95 -40.5t-40 -96.5q0 -55 39.5 -94.5t95.5 -39.5t95.5 39.5t39.5 94.5z" />
    <glyph glyph-name="plusminus" unicode="&#xb1;" 
d="M1171 688q0 -33 -41 -33h-305v-301q0 -41 -32 -41h-226q-32 0 -32 41v301h-302q-40 0 -40 33v225q0 33 40 33h302v305q0 41 32 41h226q32 0 32 -41v-305h305q41 0 41 -33v-225zM1171 -18q0 -33 -41 -33h-897q-40 0 -40 33v176q0 32 40 32h897q41 0 41 -32v-176z" />
    <glyph glyph-name="two.superior" unicode="&#xb2;" horiz-adv-x="759" 
d="M678 1311q0 -131 -121 -211l-127 -84q-7 -5 -23.5 -15.5t-23.5 -15t-20 -13.5t-19 -14.5t-14.5 -14t-12 -15.5t-7 -15.5t-3.5 -17.5h326q13 0 23 -9.5t10 -23.5v-145q0 -13 -10 -23t-23 -10h-518q-13 0 -23 10t-10 23v117q0 90 37 162t100 120l113 84q73 54 88.5 69
t15.5 34q0 21 -19 29.5t-77 8.5q-26 0 -57 -2t-70 -5.5t-57 -4.5q-13 0 -27.5 -1t-25.5 7t-11 25v108q0 19 27 31q118 41 254 41q163 0 234 -55.5t71 -173.5z" />
    <glyph glyph-name="three.superior" unicode="&#xb3;" horiz-adv-x="747" 
d="M666 926q0 -125 -83.5 -189.5t-232.5 -64.5q-59 0 -137.5 14.5t-110.5 30.5q-20 8 -20 24v115q0 12 8.5 20.5t20.5 8.5h2q140 -11 213 -11q55 0 77.5 12t22.5 46v16q0 34 -20.5 50t-65.5 16h-174q-12 0 -21.5 9t-9.5 21v123q0 12 9.5 21.5t21.5 9.5h174q88 0 88 57v19
q0 29 -20.5 41t-79.5 12q-81 0 -209 -10h-2q-12 0 -20.5 8.5t-8.5 20.5v118q0 19 29 29q126 37 237 37q152 0 232 -51.5t80 -173.5v-15q0 -116 -93 -180q93 -55 93 -174v-10z" />
    <glyph glyph-name="acute" unicode="&#xb4;" horiz-adv-x="966" 
d="M922 1581q0 -7 -9 -16l-258 -246q-2 -2 -8 -7.5t-8 -7t-7.5 -4t-11.5 -3.5t-14 -1h-264q-18 0 -18 15q0 12 8 20l186 234q14 18 24.5 24t32.5 6h324q23 0 23 -14z" />
    <glyph glyph-name="mu" unicode="&#xb5;" horiz-adv-x="1294" 
d="M1182 98q0 -26 -14.5 -40.5t-57.5 -26.5q-174 -49 -457 -49q-77 0 -145 12v-346q0 -17 -12 -29t-29 -12h-313q-17 0 -29 12t-12 29v1499q0 17 13 31t30 14h307q17 0 30 -14t13 -31v-709q0 -71 35.5 -104t109.5 -33q93 0 137 10v836q0 18 12 31.5t29 13.5h308q17 0 31 -14
t14 -31v-1049z" />
    <glyph glyph-name="paragraph" unicode="&#xb6;" horiz-adv-x="1380" 
d="M1272 -360q0 -15 -10 -27t-25 -12h-107q-15 0 -24.5 11.5t-9.5 27.5v1708h-131v-1708q0 -15 -10 -27t-25 -12h-107q-15 0 -25 12t-10 27v839h-188q-143 0 -257 51.5t-182.5 157t-68.5 248.5v129q0 143 68.5 248.5t182.5 157t257 51.5h639q33 0 33 -39v-1843z" />
    <glyph glyph-name="periodcentered" unicode="&#xb7;" horiz-adv-x="595" 
d="M489 631q0 -17 -13 -29t-30 -12h-296q-18 0 -31 12t-13 29v284q0 17 13 29t31 12h296q17 0 30 -12t13 -29v-284z" />
    <glyph glyph-name="cedilla" unicode="&#xb8;" horiz-adv-x="923" 
d="M721 -88q0 -8 -8 -16l-258 -246l-4.5 -4.5t-5 -4.5t-4.5 -3.5t-4.5 -3t-5 -2.5t-6 -2.5t-6 -1t-7.5 -1t-9 -0.5h-262q-18 0 -18 15q0 12 8 20l186 234q14 18 25 24t33 6h323q23 0 23 -14z" />
    <glyph glyph-name="one.superior" unicode="&#xb9;" horiz-adv-x="593" 
d="M80 1446l182 78q12 6 29 6h127q15 0 24 -9.5t9 -23.5v-780q0 -14 -9 -23.5t-24 -9.5h-180q-14 0 -23.5 10t-9.5 23v563l-105 -43q-12 -6 -25.5 -1t-13.5 21v160q0 19 19 29z" />
    <glyph glyph-name="ordmasculine" unicode="&#xba;" horiz-adv-x="827" 
d="M758 1118q0 -178 -88.5 -267t-253.5 -89t-254.5 89t-89.5 267v64q0 178 89.5 268t254.5 90q164 0 253 -90t89 -268v-64zM500 1118v64q0 79 -20 111t-64 32q-45 0 -66.5 -32t-21.5 -111v-64q0 -79 21.5 -111t66.5 -32q44 0 64 32t20 111z" />
    <glyph glyph-name="guillemotright" unicode="&#xbb;" horiz-adv-x="1529" 
d="M1468 594q0 -22 -26 -55l-324 -394q-17 -22 -57 -22h-303q-12 0 -19.5 6.5t-7.5 15.5q0 10 10 23l351 426l-351 428q-10 13 -10 22t7.5 15t19.5 6h303q39 0 57 -23l324 -391q26 -33 26 -57zM809 594q0 -20 -27 -55l-323 -394q-17 -22 -60 -22h-303q-12 0 -19 6.5t-7 15.5
q0 10 10 23l350 426l-350 428q-10 13 -10 22q0 21 26 21h303q42 0 60 -23l323 -391q27 -35 27 -57z" />
    <glyph glyph-name="onequarter" unicode="&#xbc;" horiz-adv-x="1667" 
d="M1382 1501q0 -8 -6 -20l-854 -1448q-12 -21 -20 -27t-23 -6h-252q-24 0 -24 25q0 11 6 20l854 1446q10 19 19.5 25t27.5 6h250q22 0 22 -21zM100 1446l183 78q12 6 28 6h127q15 0 24 -9.5t9 -23.5v-780q0 -14 -9 -23.5t-24 -9.5h-180q-14 0 -23.5 10t-9.5 23v563
l-104 -43q-39 -16 -39 20v160q0 20 18 29zM1585 205q0 -13 -9.5 -23t-23.5 -10h-55v-139q0 -13 -9.5 -23t-21.5 -10h-182q-14 0 -23.5 10t-9.5 23v139h-299q-13 0 -22.5 9.5t-9.5 23.5v125q0 21 14 39l360 462q15 15 33 15h139q12 0 21.5 -10t9.5 -23v-451h55
q14 0 23.5 -8.5t9.5 -21.5v-127zM1262 362v183l-138 -183h138z" />
    <glyph glyph-name="onehalf" unicode="&#xbd;" horiz-adv-x="1748" 
d="M1382 1501q0 -8 -6 -20l-854 -1448q-12 -21 -20 -27t-23 -6h-252q-24 0 -24 25q0 11 6 20l854 1446q10 19 19.5 25t27.5 6h250q22 0 22 -21zM100 1446l183 78q12 6 28 6h127q15 0 24 -9.5t9 -23.5v-780q0 -14 -9 -23.5t-24 -9.5h-180q-14 0 -23.5 10t-9.5 23v563
l-104 -43q-39 -16 -39 20v160q0 20 18 29zM1667 627q0 -131 -121 -211l-127 -84q-7 -5 -23.5 -15.5t-23.5 -15t-20 -13.5t-19 -14.5t-14.5 -14t-12 -15.5t-7 -15.5t-3.5 -17.5h326q14 0 23.5 -9.5t9.5 -23.5v-145q0 -13 -9.5 -23t-23.5 -10h-518q-14 0 -23.5 10t-9.5 23v117
q0 90 37 162t100 120l113 84q74 55 89 69t15 33q0 21 -19.5 30t-76.5 9q-26 0 -57 -2t-70 -5.5t-57 -4.5q-13 0 -27.5 -1t-25.5 7t-11 25v108q0 19 27 31q118 41 254 41q163 0 234 -55.5t71 -173.5z" />
    <glyph glyph-name="threequarters" unicode="&#xbe;" horiz-adv-x="1796" 
d="M1714 199q0 -12 -10.5 -21.5t-22.5 -9.5h-51v-135q0 -12 -9.5 -22.5t-21.5 -10.5h-184q-12 0 -20.5 10.5t-8.5 22.5v135h-290q-13 0 -21 9t-8 20v135q0 25 12 39l348 452q12 15 33 15h133q14 0 25.5 -11t11.5 -26v-441h51q13 0 23 -8t10 -20v-133zM1524 1501q0 -8 -6 -20
l-854 -1448q-12 -21 -20 -27t-23 -6h-252q-25 0 -25 25q0 11 6 20l854 1446q10 19 19.5 25t27.5 6h250q23 0 23 -21zM666 938q0 -125 -83.5 -189.5t-232.5 -64.5q-59 0 -137.5 14.5t-110.5 30.5q-20 8 -20 25v114q0 12 8.5 20.5t20.5 8.5h2q128 -10 213 -10q55 0 77.5 11.5
t22.5 45.5v17q0 34 -20.5 49.5t-65.5 15.5h-174q-12 0 -21.5 9.5t-9.5 21.5v123q0 12 9.5 21t21.5 9h174q88 0 88 58v18q0 29 -20.5 41t-79.5 12q-81 0 -209 -10h-2q-12 0 -20.5 8.5t-8.5 20.5v119q0 18 29 28q126 37 237 37q152 0 232 -51.5t80 -173.5v-14q0 -117 -93 -181
q93 -55 93 -174v-10zM1397 360v175q0 14 -4 14q-2 0 -4 -2l-129 -168q-7 -11 -7 -14q0 -5 4 -5h140z" />
    <glyph glyph-name="questiondown" unicode="&#xbf;" horiz-adv-x="1007" 
d="M809 866q0 -17 -12 -29t-29 -12h-299q-17 0 -30 12t-13 29v285q0 17 13 29t30 12h299q17 0 29 -12t12 -29v-285zM938 -299q0 -20 -9 -30.5t-30 -16.5q-148 -51 -340 -51q-239 0 -358 77.5t-119 262.5v18q0 134 104 281l217 313q22 31 30 51.5t13 52.5q1 12 11.5 20.5
t21.5 8.5h285q9 0 14.5 -7.5t5.5 -18.5v-72q0 -74 -12 -122.5t-47 -109.5l-166 -282q-22 -37 -22 -62q0 -31 20.5 -43t71.5 -12q80 0 268 23h6q35 0 35 -41v-240z" />
    <glyph glyph-name="Agrave" unicode="&#xc0;" horiz-adv-x="1417" 
d="M1378 33q0 -33 -32 -33h-357q-15 0 -26.5 11.5t-14.5 27.5l-57 285h-365l-57 -285q-3 -16 -15 -27.5t-26 -11.5h-354q-15 0 -25 9.5t-10 23.5q0 2 1 5t1 5l274 1253q16 74 52 123.5t90 75t113.5 35.5t138.5 10q63 0 112 -6t97 -22t82.5 -42.5t61.5 -70.5t40 -103
l274 -1253q0 -2 1 -5.5t1 -4.5zM831 651l-100 520q0 2 -1 6q-4 20 -14 22q-3 1 -7 1q-8 0 -12.5 -3.5t-6 -7.5t-3.5 -14q-1 -3 -1 -4l-100 -520h245zM969 1642q0 -14 -19 -14h-264q-8 0 -14 1t-11.5 3.5t-7.5 4t-8 7t-8 7.5l-258 245q-8 8 -8 17q0 14 22 14h324q22 0 32 -6
t25 -25l187 -233q8 -8 8 -21z" />
    <glyph glyph-name="Aacute" unicode="&#xc1;" horiz-adv-x="1417" 
d="M1378 33q0 -33 -32 -33h-357q-15 0 -26.5 11.5t-14.5 27.5l-57 285h-365l-57 -285q-3 -16 -15 -27.5t-26 -11.5h-354q-15 0 -25 9.5t-10 23.5q0 2 1 5t1 5l274 1253q16 74 52 123.5t90 75t113.5 35.5t138.5 10q63 0 112 -6t97 -22t82.5 -42.5t61.5 -70.5t40 -103
l274 -1253q0 -2 1 -5.5t1 -4.5zM831 651l-100 520q0 2 -1 6q-4 20 -14 22q-3 1 -7 1q-8 0 -12.5 -3.5t-6 -7.5t-3.5 -14q-1 -3 -1 -4l-100 -520h245zM1112 1913q0 -9 -8 -17l-258 -245q-2 -2 -8 -7.5t-8 -7t-7.5 -4t-11.5 -3.5t-14 -1h-265q-18 0 -18 14q0 13 8 21l187 233
q15 19 25 25t32 6h324q22 0 22 -14z" />
    <glyph glyph-name="Acircumflex" unicode="&#xc2;" horiz-adv-x="1417" 
d="M1378 33q0 -33 -32 -33h-357q-15 0 -26.5 11.5t-14.5 27.5l-57 285h-365l-57 -285q-3 -16 -15 -27.5t-26 -11.5h-354q-15 0 -25 9.5t-10 23.5q0 2 1 5t1 5l274 1253q16 74 52 123.5t90 75t113.5 35.5t138.5 10q63 0 112 -6t97 -22t82.5 -42.5t61.5 -70.5t40 -103
l274 -1253q0 -2 1 -5.5t1 -4.5zM831 651l-100 520q0 2 -1 6q-4 20 -14 22q-3 1 -7 1q-8 0 -12.5 -3.5t-6 -7.5t-3.5 -14q-1 -3 -1 -4l-100 -520h245zM1145 1642q0 -14 -19 -14h-254q-14 0 -23 3.5t-12 6t-14 13.5l-114 121l-115 -121q-1 -1 -4.5 -5t-4.5 -4.5t-4 -3.5
t-4.5 -3.5t-4.5 -2t-5 -2t-5.5 -1.5t-7.5 -1h-9h-254q-19 0 -19 14q0 9 9 21l176 233q15 19 25 25t32 6h389q23 0 33.5 -6t24.5 -25l176 -233q8 -11 8 -21z" />
    <glyph glyph-name="Atilde" unicode="&#xc3;" horiz-adv-x="1417" 
d="M1378 33q0 -33 -32 -33h-357q-15 0 -26.5 11.5t-14.5 27.5l-57 285h-365l-57 -285q-3 -16 -15 -27.5t-26 -11.5h-354q-15 0 -25 9.5t-10 23.5q0 2 1 5t1 5l274 1253q16 74 52 123.5t90 75t113.5 35.5t138.5 10q63 0 112 -6t97 -22t82.5 -42.5t61.5 -70.5t40 -103
l274 -1253q0 -2 1 -5.5t1 -4.5zM831 651l-100 520q0 2 -1 6q-4 20 -14 22q-3 1 -7 1q-8 0 -12.5 -3.5t-6 -7.5t-3.5 -14q-1 -3 -1 -4l-100 -520h245zM1145 1874q0 -139 -70 -199.5t-203 -60.5q-31 0 -74.5 12t-74.5 31l-82 49q-50 31 -80 31q-39 0 -39 -41v-35
q0 -35 -33 -35h-172q-34 0 -34 35v35q0 260 274 260q32 0 74 -11t74 -30l83 -49q61 -33 80 -33q21 0 29 9.5t8 33.5v35q0 35 35 35h170q35 0 35 -35v-37z" />
    <glyph glyph-name="Adieresis" unicode="&#xc4;" horiz-adv-x="1417" 
d="M1378 33q0 -33 -32 -33h-357q-15 0 -26.5 11.5t-14.5 27.5l-57 285h-365l-57 -285q-3 -16 -15 -27.5t-26 -11.5h-354q-15 0 -25 9.5t-10 23.5q0 2 1 5t1 5l274 1253q16 74 52 123.5t90 75t113.5 35.5t138.5 10q63 0 112 -6t97 -22t82.5 -42.5t61.5 -70.5t40 -103
l274 -1253q0 -2 1 -5.5t1 -4.5zM831 651l-100 520q0 2 -1 6q-4 20 -14 22q-3 1 -7 1q-8 0 -12.5 -3.5t-6 -7.5t-3.5 -14q-1 -3 -1 -4l-100 -520h245zM1112 1675q0 -17 -14.5 -29t-32.5 -12h-238q-18 0 -31.5 12t-13.5 29v201q0 17 13.5 29t31.5 12h238q18 0 32.5 -12
t14.5 -29v-201zM633 1675q0 -17 -13.5 -29t-31.5 -12h-238q-18 0 -32.5 12t-14.5 29v201q0 17 14.5 29t32.5 12h238q18 0 31.5 -12t13.5 -29v-201z" />
    <glyph glyph-name="Aring" unicode="&#xc5;" horiz-adv-x="1417" 
d="M1378 33q0 -33 -32 -33h-357q-15 0 -26.5 11.5t-14.5 27.5l-57 285h-365l-57 -285q-3 -16 -15 -27.5t-26 -11.5h-354q-15 0 -25 9.5t-10 23.5q0 2 1 5t1 5l274 1253q16 74 52 123.5t90 75t113.5 35.5t138.5 10q63 0 112 -6t97 -22t82.5 -42.5t61.5 -70.5t40 -103
l274 -1253q0 -2 1 -5.5t1 -4.5zM831 651l-100 520q0 2 -1 6q-4 20 -14 22q-3 1 -7 1q-8 0 -12.5 -3.5t-6 -7.5t-3.5 -14q-1 -3 -1 -4l-100 -520h245zM961 1849q0 -103 -73.5 -176.5t-176.5 -73.5q-102 0 -173 73.5t-71 176.5t71 176.5t173 73.5q103 0 176.5 -73.5
t73.5 -176.5zM797 1851q0 34 -25 59t-59 25t-58 -24.5t-24 -59.5t24 -61.5t58 -26.5q33 0 58.5 27t25.5 61z" />
    <glyph glyph-name="AE" unicode="&#xc6;" horiz-adv-x="1931" 
d="M1823 47q0 -35 -41 -41q-187 -24 -359 -24q-77 0 -139 7t-127 29t-112 58.5t-82.5 99t-49.5 146.5h-385l-57 -283q-3 -16 -15 -27.5t-26 -11.5h-356q-15 0 -25 9.5t-10 23.5q0 2 1 5t1 5l274 1243q13 59 40.5 102t62 68.5t83.5 40.5t97.5 20t112.5 5h1071q41 0 41 -41
v-264q0 -17 -12 -29t-29 -12h-467v-242h459q17 0 29 -12t12 -29v-242q0 -17 -12 -29t-29 -12h-459v-170q0 -59 22 -80.5t78 -21.5h367q17 0 29 -12t12 -29v-250zM899 651v529h-182q-14 0 -20 -8t-11 -29l-98 -492h311z" />
    <glyph glyph-name="Ccedilla" unicode="&#xc7;" horiz-adv-x="1136" 
d="M1059 63q0 -19 -9.5 -28t-35.5 -17q-106 -36 -287 -36q-144 0 -258 40t-198.5 120.5t-129.5 210.5t-45 302v211q0 172 45 302.5t129.5 211t198.5 120.5t258 40q178 0 287 -37q27 -8 36 -16t9 -29v-262q0 -39 -37 -39h-6q-199 19 -287 19q-46 0 -80.5 -12.5t-66 -44.5
t-48 -95.5t-16.5 -157.5v-211q0 -93 16.5 -156.5t47.5 -95.5t66 -44.5t81 -12.5q87 0 287 19h6q37 0 37 -39v-263zM901 -88q0 -8 -8 -16l-258 -246q-1 -1 -7 -6.5t-7 -6t-6 -4t-8.5 -4t-9.5 -1.5t-13 -1h-262q-19 0 -19 15q0 12 8 20l187 234q14 18 24.5 24t32.5 6h324
q22 0 22 -14z" />
    <glyph glyph-name="Egrave" unicode="&#xc8;" horiz-adv-x="1198" 
d="M1090 47q0 -35 -41 -41q-187 -24 -404 -24q-61 0 -112 4.5t-106 17t-98.5 33.5t-83.5 56t-66.5 82.5t-42 114.5t-15.5 150v643q0 114 30.5 199t78 133.5t119 78t140.5 39t156 9.5q217 0 404 -24q41 -6 41 -41v-250q0 -17 -12 -29t-29 -12h-414q-56 0 -77 -21.5t-21 -81.5
v-149h503q17 0 29 -12t12 -29v-242q0 -17 -12 -29t-29 -12h-503v-170q0 -59 21 -80.5t77 -21.5h414q17 0 29 -12t12 -29v-250zM831 1642q0 -14 -18 -14h-264q-8 0 -14 1t-11.5 3.5t-7.5 4t-8 7t-8 7.5l-258 245q-9 9 -9 17q0 14 23 14h324q22 0 32 -6t25 -25l186 -233
q8 -8 8 -21z" />
    <glyph glyph-name="Eacute" unicode="&#xc9;" horiz-adv-x="1198" 
d="M1090 47q0 -35 -41 -41q-187 -24 -404 -24q-61 0 -112 4.5t-106 17t-98.5 33.5t-83.5 56t-66.5 82.5t-42 114.5t-15.5 150v643q0 114 30.5 199t78 133.5t119 78t140.5 39t156 9.5q217 0 404 -24q41 -6 41 -41v-250q0 -17 -12 -29t-29 -12h-414q-56 0 -77 -21.5t-21 -81.5
v-149h503q17 0 29 -12t12 -29v-242q0 -17 -12 -29t-29 -12h-503v-170q0 -59 21 -80.5t77 -21.5h414q17 0 29 -12t12 -29v-250zM997 1913q0 -9 -8 -17l-258 -245q-2 -2 -8 -7.5t-8 -7t-7.5 -4t-11.5 -3.5t-14 -1h-264q-19 0 -19 14q0 12 9 21l186 233q15 19 25 25t32 6h324
q22 0 22 -14z" />
    <glyph glyph-name="Ecircumflex" unicode="&#xca;" horiz-adv-x="1198" 
d="M1090 47q0 -35 -41 -41q-187 -24 -404 -24q-61 0 -112 4.5t-106 17t-98.5 33.5t-83.5 56t-66.5 82.5t-42 114.5t-15.5 150v643q0 114 30.5 199t78 133.5t119 78t140.5 39t156 9.5q217 0 404 -24q41 -6 41 -41v-250q0 -17 -12 -29t-29 -12h-414q-56 0 -77 -21.5t-21 -81.5
v-149h503q17 0 29 -12t12 -29v-242q0 -17 -12 -29t-29 -12h-503v-170q0 -59 21 -80.5t77 -21.5h414q17 0 29 -12t12 -29v-250zM1055 1642q0 -14 -19 -14h-254q-14 0 -23 3.5t-12 6t-14 13.5l-115 121l-114 -121q-1 -1 -4.5 -5t-4.5 -4.5t-4 -3.5t-4.5 -3.5t-4.5 -2t-5 -2
t-5.5 -1.5t-7.5 -1h-9h-254q-19 0 -19 14q0 10 8 21l177 233q15 19 25 25t32 6h389q23 0 33 -6t24 -25l177 -233q8 -11 8 -21z" />
    <glyph glyph-name="Edieresis" unicode="&#xcb;" horiz-adv-x="1198" 
d="M1090 47q0 -35 -41 -41q-187 -24 -404 -24q-61 0 -112 4.5t-106 17t-98.5 33.5t-83.5 56t-66.5 82.5t-42 114.5t-15.5 150v643q0 114 30.5 199t78 133.5t119 78t140.5 39t156 9.5q217 0 404 -24q41 -6 41 -41v-250q0 -17 -12 -29t-29 -12h-414q-56 0 -77 -21.5t-21 -81.5
v-149h503q17 0 29 -12t12 -29v-242q0 -17 -12 -29t-29 -12h-503v-170q0 -59 21 -80.5t77 -21.5h414q17 0 29 -12t12 -29v-250zM1012 1675q0 -17 -14.5 -29t-32.5 -12h-238q-18 0 -31.5 12t-13.5 29v201q0 17 13.5 29t31.5 12h238q18 0 32.5 -12t14.5 -29v-201zM532 1675
q0 -17 -13.5 -29t-31.5 -12h-237q-18 0 -32.5 12t-14.5 29v201q0 17 14.5 29t32.5 12h237q18 0 31.5 -12t13.5 -29v-201z" />
    <glyph glyph-name="Igrave" unicode="&#xcc;" horiz-adv-x="684" 
d="M551 41q0 -17 -12 -29t-29 -12h-336q-17 0 -29 12t-12 29v1442q0 17 12 28t29 11h336q17 0 29 -11t12 -28v-1442zM571 1642q0 -14 -18 -14h-264q-8 0 -14 1t-11.5 3.5t-7.5 4t-8 7t-8 7.5l-258 245q-9 9 -9 17q0 14 23 14h323q22 0 33 -6t25 -25l186 -233q8 -8 8 -21z
" />
    <glyph glyph-name="Iacute" unicode="&#xcd;" horiz-adv-x="684" 
d="M551 41q0 -17 -12 -29t-29 -12h-336q-17 0 -29 12t-12 29v1442q0 17 12 28t29 11h336q17 0 29 -11t12 -28v-1442zM719 1913q0 -9 -8 -17l-258 -245q-2 -2 -7 -6.5t-7 -6t-6 -4t-7.5 -3.5t-9.5 -2t-13 -1h-264q-18 0 -18 14q0 13 8 21l186 233q14 19 25 25t33 6h323
q23 0 23 -14z" />
    <glyph glyph-name="Icircumflex" unicode="&#xce;" horiz-adv-x="684" 
d="M551 41q0 -17 -12 -29t-29 -12h-336q-17 0 -29 12t-12 29v1442q0 17 12 28t29 11h336q17 0 29 -11t12 -28v-1442zM778 1642q0 -14 -18 -14h-254q-14 0 -23 3.5t-12 6t-14 13.5l-115 121l-115 -121q-1 -1 -4.5 -5t-4.5 -4.5t-4 -3.5t-4.5 -3.5t-4.5 -2t-5 -2t-5.5 -1.5
t-7.5 -1h-9h-254q-18 0 -18 14q0 10 8 21l176 233q15 19 25 25t32 6h390q23 0 33 -6t24 -25l176 -233q8 -11 8 -21z" />
    <glyph glyph-name="Idieresis" unicode="&#xcf;" horiz-adv-x="684" 
d="M551 41q0 -17 -12 -29t-29 -12h-336q-17 0 -29 12t-12 29v1442q0 17 12 28t29 11h336q17 0 29 -11t12 -28v-1442zM745 1675q0 -17 -14.5 -29t-32.5 -12h-237q-18 0 -31.5 12t-13.5 29v201q0 17 13.5 29t31.5 12h237q18 0 32.5 -12t14.5 -29v-201zM266 1675
q0 -17 -13.5 -29t-31.5 -12h-237q-18 0 -32.5 12t-14.5 29v201q0 17 14.5 29t32.5 12h237q18 0 31.5 -12t13.5 -29v-201z" />
    <glyph glyph-name="Eth" unicode="&#xd0;" horiz-adv-x="1425" 
d="M1333 664q0 -178 -47.5 -310.5t-136.5 -213t-209 -119.5t-272 -39q-274 0 -473 34q-35 6 -50.5 23t-15.5 57v514h-104q-17 0 -29 12t-12 29v244q0 17 12 28t29 11h104v491q0 40 15.5 57t50.5 23q216 37 473 37q152 0 271.5 -38.5t208.5 -119t137 -213t48 -311.5v-196z
M911 664v196q0 185 -56 254.5t-187 69.5q-27 0 -72 -1t-49 -1v-248h108q17 0 28 -11t11 -28v-244q0 -17 -11 -29t-28 -12h-108v-268q14 -2 121 -2q131 0 187 69.5t56 254.5z" />
    <glyph glyph-name="Ntilde" unicode="&#xd1;" horiz-adv-x="1527" 
d="M1395 76q0 -31 -22.5 -53.5t-53.5 -22.5h-275q-54 0 -86 55l-403 686q-10 17 -20 17q-11 0 -11 -19v-698q0 -17 -12 -29t-29 -12h-307q-17 0 -30 12t-13 29v1405q0 31 22.5 53.5t53.5 22.5h270q50 0 82 -60l416 -706q11 -19 18 -19q11 0 11 19v725q0 17 12 29t29 12h307
q17 0 29 -12t12 -29v-1405zM1182 1874q0 -139 -70 -199.5t-203 -60.5q-31 0 -74.5 12t-74.5 31l-82 49q-50 31 -80 31q-39 0 -39 -41v-35q0 -35 -33 -35h-172q-35 0 -35 35v35q0 260 275 260q79 0 147 -41l84 -49q61 -33 80 -33q21 0 29 9.5t8 33.5v35q0 35 35 35h170
q35 0 35 -35v-37z" />
    <glyph glyph-name="Ograve" unicode="&#xd2;" horiz-adv-x="1449" 
d="M1354 655q0 -146 -33 -261.5t-90 -192t-138 -126.5t-172 -71.5t-196 -21.5t-196 21.5t-172 71.5t-138 126.5t-90 192t-33 261.5v211q0 146 33 262t90 192.5t138 127t172 72.5t196 22t196 -22t172 -72.5t138 -127t90 -192.5t33 -262v-211zM932 655v211q0 163 -49.5 236.5
t-157.5 73.5t-157.5 -73.5t-49.5 -236.5v-211q0 -163 49.5 -235t157.5 -72t157.5 72t49.5 235zM922 1642q0 -14 -19 -14h-264q-8 0 -14 1t-11.5 3.5t-7.5 4t-8 7t-8 7.5l-258 245q-8 8 -8 17q0 14 22 14h324q22 0 32 -6t25 -25l186 -233q9 -9 9 -21z" />
    <glyph glyph-name="Oacute" unicode="&#xd3;" horiz-adv-x="1449" 
d="M1354 655q0 -146 -33 -261.5t-90 -192t-138 -126.5t-172 -71.5t-196 -21.5t-196 21.5t-172 71.5t-138 126.5t-90 192t-33 261.5v211q0 146 33 262t90 192.5t138 127t172 72.5t196 22t196 -22t172 -72.5t138 -127t90 -192.5t33 -262v-211zM932 655v211q0 163 -49.5 236.5
t-157.5 73.5t-157.5 -73.5t-49.5 -236.5v-211q0 -163 49.5 -235t157.5 -72t157.5 72t49.5 235zM1110 1913q0 -9 -8 -17l-258 -245q-2 -2 -8 -7.5t-8 -7t-7.5 -4t-11.5 -3.5t-14 -1h-265q-18 0 -18 14q0 13 8 21l187 233q15 19 25 25t32 6h323q23 0 23 -14z" />
    <glyph glyph-name="Ocircumflex" unicode="&#xd4;" horiz-adv-x="1449" 
d="M1354 655q0 -146 -33 -261.5t-90 -192t-138 -126.5t-172 -71.5t-196 -21.5t-196 21.5t-172 71.5t-138 126.5t-90 192t-33 261.5v211q0 146 33 262t90 192.5t138 127t172 72.5t196 22t196 -22t172 -72.5t138 -127t90 -192.5t33 -262v-211zM932 655v211q0 163 -49.5 236.5
t-157.5 73.5t-157.5 -73.5t-49.5 -236.5v-211q0 -163 49.5 -235t157.5 -72t157.5 72t49.5 235zM1155 1642q0 -14 -18 -14h-254q-14 0 -23 3.5t-12 6t-14 13.5l-115 121l-115 -121q-1 -1 -4.5 -5t-4.5 -4.5t-4 -3.5t-4.5 -3.5t-4.5 -2t-5 -2t-5.5 -1.5t-7.5 -1h-9h-254
q-18 0 -18 14q0 10 8 21l176 233q15 19 25 25t32 6h389q23 0 33.5 -6t24.5 -25l176 -233q8 -11 8 -21z" />
    <glyph glyph-name="Otilde" unicode="&#xd5;" horiz-adv-x="1449" 
d="M1354 655q0 -146 -33 -261.5t-90 -192t-138 -126.5t-172 -71.5t-196 -21.5t-196 21.5t-172 71.5t-138 126.5t-90 192t-33 261.5v211q0 146 33 262t90 192.5t138 127t172 72.5t196 22t196 -22t172 -72.5t138 -127t90 -192.5t33 -262v-211zM932 655v211q0 163 -49.5 236.5
t-157.5 73.5t-157.5 -73.5t-49.5 -236.5v-211q0 -163 49.5 -235t157.5 -72t157.5 72t49.5 235zM1171 1876q0 -139 -69.5 -199.5t-202.5 -60.5q-31 0 -74.5 12t-74.5 31l-82 49q-50 31 -80 31q-39 0 -39 -41v-35q0 -35 -33 -35h-172q-35 0 -35 35v35q0 260 275 260
q79 0 147 -41l84 -49q61 -33 80 -33q21 0 29 9.5t8 33.5v35q0 35 35 35h170q34 0 34 -35v-37z" />
    <glyph glyph-name="Odieresis" unicode="&#xd6;" horiz-adv-x="1449" 
d="M1354 655q0 -146 -33 -261.5t-90 -192t-138 -126.5t-172 -71.5t-196 -21.5t-196 21.5t-172 71.5t-138 126.5t-90 192t-33 261.5v211q0 146 33 262t90 192.5t138 127t172 72.5t196 22t196 -22t172 -72.5t138 -127t90 -192.5t33 -262v-211zM932 655v211q0 163 -49.5 236.5
t-157.5 73.5t-157.5 -73.5t-49.5 -236.5v-211q0 -163 49.5 -235t157.5 -72t157.5 72t49.5 235zM1122 1675q0 -17 -14.5 -29t-32.5 -12h-237q-18 0 -31.5 12t-13.5 29v201q0 17 13.5 29t31.5 12h237q18 0 32.5 -12t14.5 -29v-201zM643 1675q0 -17 -13.5 -29t-31.5 -12h-238
q-18 0 -32.5 12t-14.5 29v201q0 17 14.5 29t32.5 12h238q18 0 31.5 -12t13.5 -29v-201z" />
    <glyph glyph-name="multiply" unicode="&#xd7;" 
d="M1130 1057q0 -17 -16 -33l-225 -225l223 -226q16 -16 16 -30q0 -11 -10 -21l-157 -160q-10 -10 -21 -10q-16 0 -33 17l-225 225l-225 -225q-17 -17 -31 -17q-10 0 -20 10l-160 160q-10 10 -10 21q0 14 16 30l225 226l-225 225q-16 16 -16 33q0 10 10 20l160 160
q10 10 20 10q15 0 31 -16l225 -227l225 227q16 16 33 16q11 0 21 -10l159 -160q10 -10 10 -20z" />
    <glyph glyph-name="Oslash" unicode="&#xd8;" horiz-adv-x="1449" 
d="M1419 1520q0 -8 -6 -17l-160 -219q101 -164 101 -418v-211q0 -146 -33 -261.5t-90 -192t-138 -126.5t-172 -71.5t-196 -21.5q-206 0 -348 81l-29 -43q-28 -38 -53 -38h-242q-22 0 -22 22q0 7 6 16l158 222q-99 166 -99 413v211q0 146 33 262t90 192.5t138 127t172 72.5
t196 22q202 0 346 -82l31 43q29 39 53 39h242q22 0 22 -22zM844 1145q-42 31 -119 31q-108 0 -157.5 -73.5t-49.5 -236.5v-174zM932 655v179l-326 -453q44 -33 119 -33q108 0 157.5 72t49.5 235z" />
    <glyph glyph-name="Ugrave" unicode="&#xd9;" horiz-adv-x="1497" 
d="M1368 578q0 -104 -18 -189t-48.5 -146t-76.5 -107.5t-97.5 -75.5t-116 -46.5t-127.5 -24.5t-136 -7q-105 0 -189 14t-167 53.5t-138.5 104t-90 172.5t-34.5 252v903q0 17 13 29t30 12h332q17 0 29 -12t12 -29v-903q0 -138 46.5 -192t156.5 -54q111 0 157.5 54.5
t46.5 191.5v903q0 17 12 29t29 12h332q17 0 30 -12t13 -29v-903zM975 1640q0 -14 -19 -14h-264q-8 0 -14 1t-11.5 3.5t-7.5 4t-8 7t-8 7.5l-258 245q-8 8 -8 17q0 14 22 14h324q22 0 32 -6t25 -25l187 -233q8 -8 8 -21z" />
    <glyph glyph-name="Uacute" unicode="&#xda;" horiz-adv-x="1497" 
d="M1368 578q0 -104 -18 -189t-48.5 -146t-76.5 -107.5t-97.5 -75.5t-116 -46.5t-127.5 -24.5t-136 -7q-105 0 -189 14t-167 53.5t-138.5 104t-90 172.5t-34.5 252v903q0 17 13 29t30 12h332q17 0 29 -12t12 -29v-903q0 -138 46.5 -192t156.5 -54q111 0 157.5 54.5
t46.5 191.5v903q0 17 12 29t29 12h332q17 0 30 -12t13 -29v-903zM1143 1913q0 -9 -8 -17l-258 -245q-2 -2 -7 -6.5t-7 -6t-6 -4t-7.5 -3.5t-9.5 -2t-13 -1h-264q-18 0 -18 14q0 13 8 21l186 233q14 19 25 25t33 6h323q23 0 23 -14z" />
    <glyph glyph-name="Ucircumflex" unicode="&#xdb;" horiz-adv-x="1497" 
d="M1368 578q0 -104 -18 -189t-48.5 -146t-76.5 -107.5t-97.5 -75.5t-116 -46.5t-127.5 -24.5t-136 -7q-105 0 -189 14t-167 53.5t-138.5 104t-90 172.5t-34.5 252v903q0 17 13 29t30 12h332q17 0 29 -12t12 -29v-903q0 -138 46.5 -192t156.5 -54q111 0 157.5 54.5
t46.5 191.5v903q0 17 12 29t29 12h332q17 0 30 -12t13 -29v-903zM1188 1642q0 -14 -19 -14h-254q-14 0 -23 3.5t-12 6t-14 13.5l-114 121l-115 -121q-1 -1 -4.5 -5t-4.5 -4.5t-4 -3.5t-4.5 -3.5t-4.5 -2t-5 -2t-5.5 -1.5t-7.5 -1h-9h-254q-19 0 -19 14q0 9 9 21l176 233
q15 19 25 25t32 6h389q23 0 33.5 -6t24.5 -25l176 -233q8 -11 8 -21z" />
    <glyph glyph-name="Udieresis" unicode="&#xdc;" horiz-adv-x="1497" 
d="M1368 578q0 -104 -18 -189t-48.5 -146t-76.5 -107.5t-97.5 -75.5t-116 -46.5t-127.5 -24.5t-136 -7q-105 0 -189 14t-167 53.5t-138.5 104t-90 172.5t-34.5 252v903q0 17 13 29t30 12h332q17 0 29 -12t12 -29v-903q0 -138 46.5 -192t156.5 -54q111 0 157.5 54.5
t46.5 191.5v903q0 17 12 29t29 12h332q17 0 30 -12t13 -29v-903zM1153 1675q0 -17 -14.5 -29t-32.5 -12h-238q-18 0 -31.5 12t-13.5 29v201q0 17 13.5 29t31.5 12h238q18 0 32.5 -12t14.5 -29v-201zM674 1675q0 -17 -13.5 -29t-31.5 -12h-238q-18 0 -32.5 12t-14.5 29v201
q0 17 14.5 29t32.5 12h238q18 0 31.5 -12t13.5 -29v-201z" />
    <glyph glyph-name="Yacute" unicode="&#xdd;" horiz-adv-x="1396" 
d="M1356 1495q0 -4 -4 -16l-301 -707q-60 -140 -146 -176v-555q0 -17 -12 -29t-29 -12h-334q-17 0 -27.5 11.5t-10.5 29.5v555q-86 36 -146 176l-301 707q-4 12 -4 16q0 11 8 19t21 8h370q25 0 41 -39l197 -543q8 -20 20 -20q14 0 21 20l196 543q16 39 41 39h371q13 0 21 -8
t8 -19zM1104 1911q0 -9 -8 -17l-258 -245q-2 -2 -7 -6.5t-7 -6t-6 -4t-7.5 -3.5t-9.5 -2t-13 -1h-264q-18 0 -18 14q0 13 8 21l186 233q14 19 25 25t33 6h323q23 0 23 -14z" />
    <glyph glyph-name="Thorn" unicode="&#xde;" horiz-adv-x="1386" 
d="M1323 840q0 -118 -38.5 -210t-100 -149t-146.5 -94t-171 -51t-181 -14q-29 0 -143 4v-285q0 -17 -11 -29t-28 -12h-332q-17 0 -28 12t-11 29v1442q0 17 11 28t28 11h332q17 0 28 -11t11 -28v-113q10 2 135 2q98 0 185.5 -14t173.5 -50t148 -92.5t100 -148t38 -209.5v-18z
M909 840v18q0 164 -223 164h-104h-39v-350q10 -2 143 -2q107 0 165 42t58 128z" />
    <glyph glyph-name="germandbls" unicode="&#xdf;" horiz-adv-x="1392" 
d="M1284 469q0 -118 -41 -213t-111.5 -153.5t-159.5 -89.5t-190 -31q-72 0 -137 12q-41 7 -41 41v244q0 28 17 28h84q43 0 72.5 5.5t57 21t41 47.5t13.5 80v35q0 91 -43.5 130.5t-138.5 39.5h-56q-17 0 -29 12t-12 29v196q0 17 12 29t29 12h56q167 0 167 133v51
q0 60 -39.5 97t-127.5 37q-107 0 -154 -50t-47 -155v-1014q0 -18 -11 -30.5t-28 -12.5h-315q-17 0 -29 13t-12 30v1014q0 276 148.5 409t447.5 133q144 0 253 -34t176 -95.5t100.5 -143t33.5 -181.5v-51q0 -89 -48.5 -164t-117.5 -113q86 -44 133 -122t47 -175v-51z" />
    <glyph glyph-name="agrave" unicode="&#xe0;" horiz-adv-x="1177" 
d="M1075 41q0 -17 -12 -29t-29 -12h-284q-17 0 -29 12t-12 29v43q-140 -102 -293 -102q-51 0 -99 11t-94 38.5t-80.5 68t-55.5 104.5t-21 144v25q0 179 131 256.5t397 77.5h88v59q0 69 -36.5 94t-98.5 25q-213 0 -357 -15h-6q-17 0 -28 11t-11 30v199q0 36 41 49
q58 17 171 33t204 16q92 0 167.5 -13.5t141 -45.5t110 -82t70 -126t25.5 -175v-725zM694 295v199h-100q-77 0 -110 -27.5t-33 -91.5v-21q0 -90 104 -90q71 0 139 31zM784 1311q0 -15 -18 -15h-264q-8 0 -14 1t-11.5 3.5t-7.5 4t-8 7t-8 7.5l-258 246q-9 9 -9 16q0 14 23 14
h323q22 0 33 -6t25 -24l186 -234q8 -8 8 -20z" />
    <glyph glyph-name="aacute" unicode="&#xe1;" horiz-adv-x="1177" 
d="M1075 41q0 -17 -12 -29t-29 -12h-284q-17 0 -29 12t-12 29v43q-140 -102 -293 -102q-51 0 -99 11t-94 38.5t-80.5 68t-55.5 104.5t-21 144v25q0 179 131 256.5t397 77.5h88v59q0 69 -36.5 94t-98.5 25q-213 0 -357 -15h-6q-17 0 -28 11t-11 30v199q0 36 41 49
q58 17 171 33t204 16q92 0 167.5 -13.5t141 -45.5t110 -82t70 -126t25.5 -175v-725zM694 295v199h-100q-77 0 -110 -27.5t-33 -91.5v-21q0 -90 104 -90q71 0 139 31zM1008 1581q0 -7 -9 -16l-258 -246q-2 -2 -8 -7.5t-8 -7t-7.5 -4t-11.5 -3.5t-14 -1h-264q-18 0 -18 15
q0 12 8 20l186 234q14 18 25 24t33 6h323q23 0 23 -14z" />
    <glyph glyph-name="acircumflex" unicode="&#xe2;" horiz-adv-x="1177" 
d="M1075 41q0 -17 -12 -29t-29 -12h-284q-17 0 -29 12t-12 29v43q-140 -102 -293 -102q-51 0 -99 11t-94 38.5t-80.5 68t-55.5 104.5t-21 144v25q0 179 131 256.5t397 77.5h88v59q0 69 -36.5 94t-98.5 25q-213 0 -357 -15h-6q-17 0 -28 11t-11 30v199q0 36 41 49
q58 17 171 33t204 16q92 0 167.5 -13.5t141 -45.5t110 -82t70 -126t25.5 -175v-725zM694 295v199h-100q-77 0 -110 -27.5t-33 -91.5v-21q0 -90 104 -90q71 0 139 31zM1042 1311q0 -15 -18 -15h-254q-14 0 -23 3.5t-12 6t-14 13.5l-115 121l-114 -121q-19 -19 -32 -22
q-7 -1 -18 -1h-254q-18 0 -18 15q0 9 8 20l176 234q14 18 25 24t33 6h389q23 0 33 -5.5t24 -24.5l176 -234q8 -11 8 -20z" />
    <glyph glyph-name="atilde" unicode="&#xe3;" horiz-adv-x="1177" 
d="M1075 41q0 -17 -12 -29t-29 -12h-284q-17 0 -29 12t-12 29v43q-140 -102 -293 -102q-51 0 -99 11t-94 38.5t-80.5 68t-55.5 104.5t-21 144v25q0 179 131 256.5t397 77.5h88v59q0 69 -36.5 94t-98.5 25q-213 0 -357 -15h-6q-17 0 -28 11t-11 30v199q0 36 41 49
q58 17 171 33t204 16q92 0 167.5 -13.5t141 -45.5t110 -82t70 -126t25.5 -175v-725zM694 295v199h-100q-77 0 -110 -27.5t-33 -91.5v-21q0 -90 104 -90q71 0 139 31zM1051 1542q0 -139 -70 -199.5t-203 -60.5q-31 0 -74.5 12t-74.5 31l-82 49q-50 31 -80 31q-39 0 -39 -41
v-35q0 -35 -33 -35h-172q-35 0 -35 35v35q0 260 275 260q79 0 147 -41l84 -49q61 -33 80 -33q21 0 29 9.5t8 33.5v35q0 35 35 35h170q35 0 35 -35v-37z" />
    <glyph glyph-name="adieresis" unicode="&#xe4;" horiz-adv-x="1177" 
d="M1075 41q0 -17 -12 -29t-29 -12h-284q-17 0 -29 12t-12 29v43q-140 -102 -293 -102q-51 0 -99 11t-94 38.5t-80.5 68t-55.5 104.5t-21 144v25q0 179 131 256.5t397 77.5h88v59q0 69 -36.5 94t-98.5 25q-213 0 -357 -15h-6q-17 0 -28 11t-11 30v199q0 36 41 49
q58 17 171 33t204 16q92 0 167.5 -13.5t141 -45.5t110 -82t70 -126t25.5 -175v-725zM694 295v199h-100q-77 0 -110 -27.5t-33 -91.5v-21q0 -90 104 -90q71 0 139 31zM1016 1348q0 -17 -14.5 -29t-32.5 -12h-238q-18 0 -31.5 12t-13.5 29v200q0 17 13.5 29t31.5 12h238
q18 0 32.5 -12t14.5 -29v-200zM537 1348q0 -17 -13.5 -29t-31.5 -12h-238q-18 0 -32.5 12t-14.5 29v200q0 17 14.5 29t32.5 12h238q18 0 31.5 -12t13.5 -29v-200z" />
    <glyph glyph-name="aring" unicode="&#xe5;" horiz-adv-x="1177" 
d="M1075 41q0 -17 -12 -29t-29 -12h-284q-17 0 -29 12t-12 29v43q-140 -102 -293 -102q-51 0 -99 11t-94 38.5t-80.5 68t-55.5 104.5t-21 144v25q0 179 131 256.5t397 77.5h88v59q0 69 -36.5 94t-98.5 25q-213 0 -357 -15h-6q-17 0 -28 11t-11 30v199q0 36 41 49
q58 17 171 33t204 16q92 0 167.5 -13.5t141 -45.5t110 -82t70 -126t25.5 -175v-725zM694 295v199h-100q-77 0 -110 -27.5t-33 -91.5v-21q0 -90 104 -90q71 0 139 31zM846 1540q0 -103 -73.5 -176.5t-176.5 -73.5q-102 0 -173 73.5t-71 176.5t71 176.5t173 73.5
q103 0 176.5 -73.5t73.5 -176.5zM682 1542q0 34 -25 59t-59 25t-58 -24.5t-24 -59.5t24 -61.5t58 -26.5q33 0 58.5 27t25.5 61z" />
    <glyph glyph-name="ae" unicode="&#xe6;" horiz-adv-x="1826" 
d="M1745 537q0 -17 -14 -30t-31 -13h-627v-70q0 -63 52 -90t155 -27q181 0 371 15h8q19 0 27 -8t8 -27v-181q0 -25 -8 -36.5t-31 -20.5q-183 -67 -436 -67q-148 0 -261 77q-184 -77 -356 -77q-263 0 -392.5 93t-129.5 285v23q0 72 25.5 128t71 93t113.5 61t147.5 34
t178.5 10h68v30q0 83 -33 114.5t-98 31.5q-209 0 -346 -15h-4q-17 0 -27 11.5t-10 29.5v197q0 38 41 51q60 18 160.5 34.5t185.5 16.5q220 0 352 -108q133 108 320 108q262 0 391 -145.5t129 -400.5v-127zM1368 698v29q0 182 -147 182q-73 0 -110.5 -49t-37.5 -133v-29h295z
M696 268v236h-80q-165 0 -165 -121v-23q0 -61 38 -83.5t113 -22.5q45 0 94 14z" />
    <glyph glyph-name="ccedilla" unicode="&#xe7;" horiz-adv-x="970" 
d="M893 57q0 -19 -10 -28.5t-31 -14.5q-140 -32 -281 -32q-234 0 -361.5 141.5t-127.5 394.5v154q0 252 128 395t361 143q151 0 281 -32q21 -5 31 -14.5t10 -28.5v-232q0 -17 -11.5 -28t-27.5 -11h-4q-175 15 -236 15q-69 0 -104 -48.5t-35 -158.5v-154q0 -110 35 -157.5
t104 -47.5q84 0 236 13h4q16 0 27.5 -11t11.5 -28v-230zM723 -88q0 -8 -8 -16l-258 -246q-1 -1 -7 -6.5t-7 -6t-6 -4t-8.5 -4t-9.5 -1.5t-13 -1h-263q-18 0 -18 15q0 12 8 20l186 234q14 18 25 24t33 6h323q23 0 23 -14z" />
    <glyph glyph-name="egrave" unicode="&#xe8;" horiz-adv-x="1232" 
d="M1151 530q0 -20 -12 -32.5t-31 -12.5h-637v-4q0 -87 44 -131.5t151 -44.5q223 0 389 17h8q37 0 37 -35v-185q0 -25 -8.5 -37.5t-32.5 -19.5q-192 -63 -445 -63q-85 0 -161.5 18t-145 58.5t-118 101.5t-78.5 152.5t-29 205.5v135q0 267 145 412t400 145q260 0 392 -150
t132 -407v-123zM774 702v7q0 94 -38 145t-113 51q-73 0 -112.5 -51.5t-39.5 -144.5v-7h303zM786 1311q0 -15 -18 -15h-264q-8 0 -14 1t-11.5 3.5t-7.5 4t-8 7t-8 7.5l-258 246q-9 9 -9 16q0 14 23 14h324q22 0 32.5 -6t24.5 -24l186 -234q8 -8 8 -20z" />
    <glyph glyph-name="eacute" unicode="&#xe9;" horiz-adv-x="1232" 
d="M1151 530q0 -20 -12 -32.5t-31 -12.5h-637v-4q0 -87 44 -131.5t151 -44.5q223 0 389 17h8q37 0 37 -35v-185q0 -25 -8.5 -37.5t-32.5 -19.5q-192 -63 -445 -63q-85 0 -161.5 18t-145 58.5t-118 101.5t-78.5 152.5t-29 205.5v135q0 267 145 412t400 145q260 0 392 -150
t132 -407v-123zM774 702v7q0 94 -38 145t-113 51q-73 0 -112.5 -51.5t-39.5 -144.5v-7h303zM1032 1581q0 -8 -8 -16l-258 -246q-2 -2 -8 -7.5t-8 -7t-7.5 -4t-11.5 -3.5t-14 -1h-264q-19 0 -19 15q0 12 8 20l187 234q14 18 24.5 24t32.5 6h324q22 0 22 -14z" />
    <glyph glyph-name="ecircumflex" unicode="&#xea;" horiz-adv-x="1232" 
d="M1151 530q0 -20 -12 -32.5t-31 -12.5h-637v-4q0 -87 44 -131.5t151 -44.5q223 0 389 17h8q37 0 37 -35v-185q0 -25 -8.5 -37.5t-32.5 -19.5q-192 -63 -445 -63q-85 0 -161.5 18t-145 58.5t-118 101.5t-78.5 152.5t-29 205.5v135q0 267 145 412t400 145q260 0 392 -150
t132 -407v-123zM774 702v7q0 94 -38 145t-113 51q-73 0 -112.5 -51.5t-39.5 -144.5v-7h303zM1057 1311q0 -15 -19 -15h-254q-14 0 -23 3.5t-12 6t-14 13.5l-114 121l-115 -121q-1 -1 -4.5 -5t-4.5 -4.5t-4 -3.5t-4.5 -3.5t-4.5 -2t-5 -2t-5.5 -1.5t-7.5 -1h-9h-254
q-19 0 -19 15q0 8 9 20l176 234q14 18 24.5 24t32.5 6h389q23 0 33 -5.5t24 -24.5l177 -234q8 -11 8 -20z" />
    <glyph glyph-name="edieresis" unicode="&#xeb;" horiz-adv-x="1232" 
d="M1151 530q0 -20 -12 -32.5t-31 -12.5h-637v-4q0 -87 44 -131.5t151 -44.5q223 0 389 17h8q37 0 37 -35v-185q0 -25 -8.5 -37.5t-32.5 -19.5q-192 -63 -445 -63q-85 0 -161.5 18t-145 58.5t-118 101.5t-78.5 152.5t-29 205.5v135q0 267 145 412t400 145q260 0 392 -150
t132 -407v-123zM774 702v7q0 94 -38 145t-113 51q-73 0 -112.5 -51.5t-39.5 -144.5v-7h303zM1020 1346q0 -17 -14.5 -29t-32.5 -12h-238q-18 0 -31.5 12t-13.5 29v200q0 17 13.5 29t31.5 12h238q18 0 32.5 -12t14.5 -29v-200zM541 1346q0 -17 -13.5 -29t-31.5 -12h-238
q-18 0 -32.5 12t-14.5 29v200q0 17 14.5 29t32.5 12h238q18 0 31.5 -12t13.5 -29v-200z" />
    <glyph glyph-name="igrave" unicode="&#xec;" horiz-adv-x="641" 
d="M518 45q0 -17 -14 -31t-31 -14h-305q-17 0 -31 14t-14 31v1104q0 17 14 30t31 13h305q17 0 31 -13t14 -30v-1104zM508 1311q0 -15 -19 -15h-264q-8 0 -14 1t-11.5 3.5t-7.5 4t-8 7t-8 7.5l-258 246q-8 8 -8 16q0 14 22 14h324q22 0 32.5 -6t24.5 -24l187 -234q8 -8 8 -20
z" />
    <glyph glyph-name="iacute" unicode="&#xed;" horiz-adv-x="641" 
d="M518 45q0 -17 -14 -31t-31 -14h-305q-17 0 -31 14t-14 31v1104q0 17 14 30t31 13h305q17 0 31 -13t14 -30v-1104zM721 1581q0 -8 -8 -16l-258 -246q-2 -2 -8 -7.5t-8 -7t-7.5 -4t-11.5 -3.5t-14 -1h-265q-18 0 -18 15q0 12 8 20l186 234q14 18 25 24t33 6h323
q23 0 23 -14z" />
    <glyph glyph-name="icircumflex" unicode="&#xee;" horiz-adv-x="641" 
d="M518 45q0 -17 -14 -31t-31 -14h-305q-17 0 -31 14t-14 31v1104q0 17 14 30t31 13h305q17 0 31 -13t14 -30v-1104zM756 1311q0 -15 -19 -15h-254q-14 0 -23 3.5t-12 6t-14 13.5l-115 121l-114 -121q-1 -1 -4.5 -5t-4.5 -4.5t-4 -3.5t-4.5 -3.5t-4.5 -2t-5 -2t-5.5 -1.5
t-7.5 -1h-9h-254q-19 0 -19 15q0 9 8 20l177 234q14 18 24.5 24t32.5 6h389q23 0 33 -5.5t24 -24.5l177 -234q8 -11 8 -20z" />
    <glyph glyph-name="idieresis" unicode="&#xef;" horiz-adv-x="641" 
d="M518 45q0 -17 -14 -31t-31 -14h-305q-17 0 -31 14t-14 31v1104q0 17 14 30t31 13h305q17 0 31 -13t14 -30v-1104zM725 1346q0 -17 -14.5 -29t-32.5 -12h-238q-18 0 -31.5 12t-13.5 29v200q0 17 13.5 29t31.5 12h238q18 0 32.5 -12t14.5 -29v-200zM246 1346
q0 -17 -13.5 -29t-31.5 -12h-238q-18 0 -32.5 12t-14.5 29v200q0 17 14.5 29t32.5 12h238q18 0 31.5 -12t13.5 -29v-200z" />
    <glyph glyph-name="eth" unicode="&#xf0;" horiz-adv-x="1239" 
d="M1157 545q0 -281 -138.5 -422t-397.5 -141q-263 0 -401 142.5t-138 420.5v43q0 281 139.5 421t399.5 140q39 0 55 -8q-73 73 -203 135l-137 -105q-15 -12 -27 -12q-10 0 -22 12l-51 58q-7 7 -7 16q0 19 21 33l76 57q-8 2 -42 13.5t-53 17.5q-32 8 -32 31q0 6 2 10l57 160
q7 22 29 22q12 0 18 -2q133 -35 244 -80l149 113q13 10 29 10q15 0 23 -10l51 -57q8 -12 8 -17q0 -10 -21 -28l-96 -76q236 -128 350.5 -337.5t114.5 -516.5v-43zM764 545v43q0 128 -34 181.5t-109 53.5q-76 0 -111 -53t-35 -182v-43q0 -128 35.5 -182t110.5 -54t109 53.5
t34 182.5z" />
    <glyph glyph-name="ntilde" unicode="&#xf1;" horiz-adv-x="1292" 
d="M1180 45q0 -18 -11.5 -31.5t-29.5 -13.5h-308q-18 0 -31.5 13.5t-13.5 31.5v694q0 81 -28.5 112.5t-98.5 31.5q-72 0 -153 -43v-795q0 -18 -11.5 -31.5t-29.5 -13.5h-307q-18 0 -31.5 13.5t-13.5 31.5v1106q0 17 12 29t29 12h284q17 0 29 -12t12 -29v-47q81 61 152 82.5
t186 21.5q88 0 154 -26t105 -68t63 -105t32.5 -127t8.5 -143v-694zM1073 1542q0 -139 -69.5 -199.5t-202.5 -60.5q-31 0 -75 12t-75 31l-82 49q-50 31 -80 31q-38 0 -38 -41v-35q0 -35 -33 -35h-172q-35 0 -35 35v35q0 260 274 260q32 0 74 -11t74 -30l84 -49q61 -33 80 -33
q21 0 29 9.5t8 33.5v35q0 35 34 35h170q35 0 35 -35v-37z" />
    <glyph glyph-name="ograve" unicode="&#xf2;" horiz-adv-x="1239" 
d="M1157 537q0 -269 -139 -412t-397 -143t-398.5 143t-140.5 412v118q0 269 140.5 412t398.5 143t397 -143t139 -412v-118zM766 537v118q0 119 -36.5 172.5t-108.5 53.5q-73 0 -110.5 -53.5t-37.5 -172.5v-118q0 -228 148 -228q73 0 109 54t36 174zM829 1311q0 -15 -18 -15
h-264q-8 0 -14 1t-11.5 3.5t-7.5 4t-8 7t-8 7.5l-258 246q-9 9 -9 16q0 14 23 14h324q22 0 32.5 -6t24.5 -24l186 -234q8 -8 8 -20z" />
    <glyph glyph-name="oacute" unicode="&#xf3;" horiz-adv-x="1239" 
d="M1157 537q0 -269 -139 -412t-397 -143t-398.5 143t-140.5 412v118q0 269 140.5 412t398.5 143t397 -143t139 -412v-118zM766 537v118q0 119 -36.5 172.5t-108.5 53.5q-73 0 -110.5 -53.5t-37.5 -172.5v-118q0 -228 148 -228q73 0 109 54t36 174zM1001 1581q0 -8 -8 -16
l-258 -246q-2 -2 -8 -7.5t-8 -7t-7.5 -4t-11.5 -3.5t-14 -1h-264q-19 0 -19 15q0 11 9 20l186 234q14 18 24.5 24t32.5 6h324q22 0 22 -14z" />
    <glyph glyph-name="ocircumflex" unicode="&#xf4;" horiz-adv-x="1239" 
d="M1157 537q0 -269 -139 -412t-397 -143t-398.5 143t-140.5 412v118q0 269 140.5 412t398.5 143t397 -143t139 -412v-118zM766 537v118q0 119 -36.5 172.5t-108.5 53.5q-73 0 -110.5 -53.5t-37.5 -172.5v-118q0 -228 148 -228q73 0 109 54t36 174zM1055 1311q0 -15 -19 -15
h-254q-14 0 -23 3.5t-12 6t-14 13.5l-115 121l-114 -121q-1 -1 -4.5 -5t-4.5 -4.5t-4 -3.5t-4.5 -3.5t-4.5 -2t-5 -2t-5.5 -1.5t-7.5 -1h-9h-254q-19 0 -19 15q0 9 8 20l177 234q14 18 24.5 24t32.5 6h389q23 0 33 -5.5t24 -24.5l177 -234q8 -11 8 -20z" />
    <glyph glyph-name="otilde" unicode="&#xf5;" horiz-adv-x="1239" 
d="M1157 537q0 -269 -139 -412t-397 -143t-398.5 143t-140.5 412v118q0 269 140.5 412t398.5 143t397 -143t139 -412v-118zM766 537v118q0 119 -36.5 172.5t-108.5 53.5q-73 0 -110.5 -53.5t-37.5 -172.5v-118q0 -228 148 -228q73 0 109 54t36 174zM1049 1542
q0 -139 -70 -199.5t-203 -60.5q-31 0 -74.5 12t-74.5 31l-82 49q-50 31 -80 31q-39 0 -39 -41v-35q0 -35 -33 -35h-172q-35 0 -35 35v35q0 260 275 260q79 0 147 -41l84 -49q61 -33 80 -33q21 0 29 9.5t8 33.5v35q0 35 35 35h170q35 0 35 -35v-37z" />
    <glyph glyph-name="odieresis" unicode="&#xf6;" horiz-adv-x="1239" 
d="M1157 537q0 -269 -139 -412t-397 -143t-398.5 143t-140.5 412v118q0 269 140.5 412t398.5 143t397 -143t139 -412v-118zM766 537v118q0 119 -36.5 172.5t-108.5 53.5q-73 0 -110.5 -53.5t-37.5 -172.5v-118q0 -228 148 -228q73 0 109 54t36 174zM1022 1346
q0 -17 -14.5 -29t-32.5 -12h-238q-18 0 -31.5 12t-13.5 29v200q0 17 13.5 29t31.5 12h238q18 0 32.5 -12t14.5 -29v-200zM543 1346q0 -17 -13.5 -29t-31.5 -12h-238q-18 0 -32.5 12t-14.5 29v200q0 17 14.5 29t32.5 12h238q18 0 31.5 -12t13.5 -29v-200z" />
    <glyph glyph-name="divide" unicode="&#xf7;" 
d="M872 1151q0 -17 -13 -29t-30 -12h-299q-17 0 -29 12t-12 29v250q0 17 12 29t29 12h299q17 0 30 -12t13 -29v-250zM1165 688q0 -33 -41 -33h-884q-41 0 -41 33v225q0 33 41 33h884q41 0 41 -33v-225zM872 166q0 -17 -13 -29t-30 -12h-299q-17 0 -29 12t-12 29v250
q0 17 12 29t29 12h299q17 0 30 -12t13 -29v-250z" />
    <glyph glyph-name="oslash" unicode="&#xf8;" horiz-adv-x="1239" 
d="M1178 1245q0 -10 -9 -22l-131 -179q119 -140 119 -389v-118q0 -269 -139 -412t-397 -143q-183 0 -312 75l-80 -108q-16 -21 -32 -21h-119q-17 0 -17 17q0 10 9 22l133 180q-121 143 -121 390v118q0 269 140.5 412t398.5 143q185 0 311 -75l78 106q16 21 32 21h119
q17 0 17 -17zM717 844q-37 37 -96 37q-73 0 -110.5 -53.5t-37.5 -172.5v-118v-15v-8zM766 670v6l-244 -328q36 -39 99 -39q73 0 109 54t36 174v118v15z" />
    <glyph glyph-name="ugrave" unicode="&#xf9;" horiz-adv-x="1292" 
d="M1180 41q0 -17 -12 -29t-29 -12h-285q-17 0 -29 12t-12 29v47q-143 -106 -324 -106q-376 0 -376 471v694q0 18 11.5 31.5t29.5 13.5h307q18 0 31.5 -13.5t13.5 -31.5v-694q0 -83 26 -114.5t101 -31.5q68 0 153 45v795q0 18 11.5 31.5t29.5 13.5h308q18 0 31.5 -13.5
t13.5 -31.5v-1106zM852 1311q0 -15 -18 -15h-265q-8 0 -14 1t-11.5 3.5t-7.5 4t-8 7t-8 7.5l-258 246q-8 8 -8 16q0 14 22 14h324q22 0 32.5 -6t24.5 -24l187 -234q8 -8 8 -20z" />
    <glyph glyph-name="uacute" unicode="&#xfa;" horiz-adv-x="1292" 
d="M1180 41q0 -17 -12 -29t-29 -12h-285q-17 0 -29 12t-12 29v47q-143 -106 -324 -106q-376 0 -376 471v694q0 18 11.5 31.5t29.5 13.5h307q18 0 31.5 -13.5t13.5 -31.5v-694q0 -83 26 -114.5t101 -31.5q68 0 153 45v795q0 18 11.5 31.5t29.5 13.5h308q18 0 31.5 -13.5
t13.5 -31.5v-1106zM1059 1581q0 -8 -8 -16l-258 -246q-2 -2 -7 -6.5t-7 -6t-6 -4t-7.5 -3.5t-9.5 -2t-13 -1h-264q-18 0 -18 15q0 12 8 20l186 234q14 18 25 24t33 6h323q23 0 23 -14z" />
    <glyph glyph-name="ucircumflex" unicode="&#xfb;" horiz-adv-x="1292" 
d="M1180 41q0 -17 -12 -29t-29 -12h-285q-17 0 -29 12t-12 29v47q-143 -106 -324 -106q-376 0 -376 471v694q0 18 11.5 31.5t29.5 13.5h307q18 0 31.5 -13.5t13.5 -31.5v-694q0 -83 26 -114.5t101 -31.5q68 0 153 45v795q0 18 11.5 31.5t29.5 13.5h308q18 0 31.5 -13.5
t13.5 -31.5v-1106zM1081 1311q0 -15 -18 -15h-254q-14 0 -23 3.5t-12 6t-14 13.5l-115 121l-115 -121q-1 -1 -4.5 -5t-4.5 -4.5t-4 -3.5t-4.5 -3.5t-4.5 -2t-5 -2t-5.5 -1.5t-7.5 -1h-9h-254q-18 0 -18 15q0 9 8 20l176 234q14 18 25 24t33 6h389q23 0 33 -5.5t24 -24.5
l176 -234q8 -11 8 -20z" />
    <glyph glyph-name="udieresis" unicode="&#xfc;" horiz-adv-x="1292" 
d="M1180 41q0 -17 -12 -29t-29 -12h-285q-17 0 -29 12t-12 29v47q-143 -106 -324 -106q-376 0 -376 471v694q0 18 11.5 31.5t29.5 13.5h307q18 0 31.5 -13.5t13.5 -31.5v-694q0 -83 26 -114.5t101 -31.5q68 0 153 45v795q0 18 11.5 31.5t29.5 13.5h308q18 0 31.5 -13.5
t13.5 -31.5v-1106zM1055 1346q0 -17 -14.5 -29t-32.5 -12h-238q-18 0 -31.5 12t-13.5 29v200q0 17 13.5 29t31.5 12h238q18 0 32.5 -12t14.5 -29v-200zM575 1346q0 -17 -13.5 -29t-31.5 -12h-237q-18 0 -32.5 12t-14.5 29v200q0 17 14.5 29t32.5 12h237q18 0 31.5 -12
t13.5 -29v-200z" />
    <glyph glyph-name="yacute" unicode="&#xfd;" horiz-adv-x="1271" 
d="M1237 1155q0 -1 -1 -4t-1 -4l-348 -1217q-20 -71 -42.5 -121t-59 -95t-86 -72t-122 -42.5t-167.5 -15.5q-64 0 -150.5 11t-126.5 26q-16 5 -23.5 8.5t-15.5 11.5t-8 19v199q0 17 13 30t32 13h2q13 -1 124 -9t157 -8q91 0 110 78l17 68h-27q-32 0 -51.5 3t-43.5 14.5
t-41 34t-35.5 62.5t-35.5 99l-270 903q-2 4 -2 14q0 31 45 31h334q34 0 41 -41l161 -705q8 -34 23 -34h16l162 741q7 39 43 39h334q16 0 29.5 -11t13.5 -26zM1061 1581q0 -8 -8 -16l-258 -246q-2 -2 -7 -6.5t-7 -6t-6 -4t-7.5 -3.5t-9.5 -2t-13 -1h-264q-18 0 -18 15
q0 12 8 20l186 234q14 18 25 24t33 6h323q23 0 23 -14z" />
    <glyph glyph-name="thorn" unicode="&#xfe;" horiz-adv-x="1261" 
d="M1184 518q0 -252 -137 -394t-402 -142q-65 0 -139 16v-344q0 -17 -12 -30t-29 -13h-307q-17 0 -31 13t-14 30v1888q0 17 11 29t28 12h313q17 0 29 -12t12 -29v-338q64 6 139 6q251 0 395 -139.5t144 -396.5v-156zM791 518v156q0 101 -34 155t-112 54q-57 0 -139 -11v-555
q82 -8 139 -8q146 0 146 209z" />
    <glyph glyph-name="ydieresis" unicode="&#xff;" horiz-adv-x="1271" 
d="M1237 1155q0 -1 -1 -4t-1 -4l-348 -1217q-20 -71 -42.5 -121t-59 -95t-86 -72t-122 -42.5t-167.5 -15.5q-64 0 -150.5 11t-126.5 26q-16 5 -23.5 8.5t-15.5 11.5t-8 19v199q0 17 13 30t32 13h2q13 -1 124 -9t157 -8q91 0 110 78l17 68h-27q-32 0 -51.5 3t-43.5 14.5
t-41 34t-35.5 62.5t-35.5 99l-270 903q-2 4 -2 14q0 31 45 31h334q34 0 41 -41l161 -705q8 -34 23 -34h16l162 741q7 39 43 39h334q16 0 29.5 -11t13.5 -26zM1055 1346q0 -17 -14.5 -29t-32.5 -12h-238q-18 0 -31.5 12t-13.5 29v200q0 17 13.5 29t31.5 12h238q18 0 32.5 -12
t14.5 -29v-200zM575 1346q0 -17 -13.5 -29t-31.5 -12h-237q-18 0 -32.5 12t-14.5 29v200q0 17 14.5 29t32.5 12h237q18 0 31.5 -12t13.5 -29v-200z" />
    <glyph glyph-name="Amacron" unicode="&#x100;" horiz-adv-x="1417" 
d="M1378 33q0 -33 -32 -33h-357q-15 0 -26.5 11.5t-14.5 27.5l-57 285h-365l-57 -285q-3 -16 -15 -27.5t-26 -11.5h-354q-15 0 -25 9.5t-10 23.5q0 2 1 5t1 5l274 1253q16 74 52 123.5t90 75t113.5 35.5t138.5 10q63 0 112 -6t97 -22t82.5 -42.5t61.5 -70.5t40 -103
l274 -1253q0 -2 1 -5.5t1 -4.5zM831 651l-100 520q0 2 -1 6q-4 20 -14 22q-3 1 -7 1q-8 0 -12.5 -3.5t-6 -7.5t-3.5 -14q-1 -3 -1 -4l-100 -520h245zM1092 1690q0 -17 -12 -29t-29 -12h-695q-17 0 -29 12t-12 29v180q0 17 12 28t29 11h695q17 0 29 -11t12 -28v-180z" />
    <glyph glyph-name="amacron" unicode="&#x101;" horiz-adv-x="1177" 
d="M1075 41q0 -17 -12 -29t-29 -12h-284q-17 0 -29 12t-12 29v43q-140 -102 -293 -102q-51 0 -99 11t-94 38.5t-80.5 68t-55.5 104.5t-21 144v25q0 179 131 256.5t397 77.5h88v59q0 69 -36.5 94t-98.5 25q-213 0 -357 -15h-6q-17 0 -28 11t-11 30v199q0 36 41 49
q58 17 171 33t204 16q92 0 167.5 -13.5t141 -45.5t110 -82t70 -126t25.5 -175v-725zM694 295v199h-100q-77 0 -110 -27.5t-33 -91.5v-21q0 -90 104 -90q71 0 139 31zM977 1360q0 -17 -12 -29t-29 -12h-694q-17 0 -29 12t-12 29v180q0 17 12 28t29 11h694q17 0 29 -11t12 -28
v-180z" />
    <glyph glyph-name="Abreve" unicode="&#x102;" horiz-adv-x="1417" 
d="M1378 33q0 -33 -32 -33h-357q-15 0 -26.5 11.5t-14.5 27.5l-57 285h-365l-57 -285q-3 -16 -15 -27.5t-26 -11.5h-354q-15 0 -25 9.5t-10 23.5q0 2 1 5t1 5l274 1253q16 74 52 123.5t90 75t113.5 35.5t138.5 10q63 0 112 -6t97 -22t82.5 -42.5t61.5 -70.5t40 -103
l274 -1253q0 -2 1 -5.5t1 -4.5zM831 651l-100 520q0 2 -1 6q-4 20 -14 22q-3 1 -7 1q-8 0 -12.5 -3.5t-6 -7.5t-3.5 -14q-1 -3 -1 -4l-100 -520h245zM1128 1913q0 -3 -4 -15q-114 -292 -422 -292q-307 0 -421 292l-5 15q0 12 19 12h242q17 0 22.5 -6t9.5 -21q16 -52 53 -73
t80 -21t80.5 21t53.5 73q2 10 4.5 14.5t9 8.5t18.5 4h242q18 0 18 -12z" />
    <glyph glyph-name="abreve" unicode="&#x103;" horiz-adv-x="1177" 
d="M1075 41q0 -17 -12 -29t-29 -12h-284q-17 0 -29 12t-12 29v43q-140 -102 -293 -102q-51 0 -99 11t-94 38.5t-80.5 68t-55.5 104.5t-21 144v25q0 179 131 256.5t397 77.5h88v59q0 69 -36.5 94t-98.5 25q-213 0 -357 -15h-6q-17 0 -28 11t-11 30v199q0 36 41 49
q58 17 171 33t204 16q92 0 167.5 -13.5t141 -45.5t110 -82t70 -126t25.5 -175v-725zM694 295v199h-100q-77 0 -110 -27.5t-33 -91.5v-21q0 -90 104 -90q71 0 139 31zM1016 1583q0 -2 -4 -14q-56 -143 -162.5 -218t-259.5 -75t-259.5 75t-162.5 218q-4 12 -4 14q0 12 18 12
h242q12 0 19 -3.5t9.5 -8.5t4.5 -14q16 -52 53 -73t80 -21t80 21t53 73q2 9 4.5 14t9.5 8.5t19 3.5h241q19 0 19 -12z" />
    <glyph glyph-name="Aogonek" unicode="&#x104;" horiz-adv-x="1417" 
d="M891 324h-365l-57 -285q-3 -16 -15 -27.5t-26 -11.5h-354q-15 0 -25 8t-10 21q0 2 6 32l270 1235q16 74 52 123.5t90 75t113.5 35.5t138.5 10q63 0 112 -6t97 -22t82.5 -42.5t61.5 -70.5t40 -103l270 -1233q6 -27 6 -32q0 -25 -22 -31l-168 -61q-53 -21 -53 -62
q0 -30 19.5 -42.5t64.5 -12.5q29 0 79 9t58 9q13 0 16.5 -4.5t3.5 -19.5v-156q0 -11 -4 -17.5t-18 -13.5q-32 -13 -100 -27t-142 -14q-55 0 -102 10t-87.5 32t-63.5 62t-23 95q0 68 27.5 115.5t92.5 89.5zM831 651l-100 520q0 2 -1 6q-4 20 -14 22q-3 1 -7 1
q-8 0 -12.5 -3.5t-6 -7.5t-3.5 -14q-1 -3 -1 -4l-100 -520h245z" />
    <glyph glyph-name="aogonek" unicode="&#x105;" horiz-adv-x="1177" 
d="M1075 41q0 -29 -31 -41l-153 -61q-53 -21 -53 -62q0 -30 19.5 -42.5t64.5 -12.5q29 0 79 9t58 9q13 0 16.5 -4.5t3.5 -19.5v-156q0 -11 -4 -17.5t-18 -13.5q-32 -13 -100 -27t-142 -14q-55 0 -102 10t-87.5 32t-63.5 62t-23 95q0 72 33 121.5t112 95.5l25 14v66
q-140 -102 -293 -102q-51 0 -99 11t-94 38.5t-80.5 68t-55.5 104.5t-21 144v25q0 179 131 256.5t397 77.5h88v59q0 69 -36.5 94t-98.5 25q-213 0 -357 -15h-6q-17 0 -28 11t-11 30v199q0 36 41 49q58 17 171 33t204 16q92 0 167.5 -13.5t141 -45.5t110 -82t70 -126
t25.5 -175v-725zM694 295v199h-100q-77 0 -110 -27.5t-33 -91.5v-21q0 -90 104 -90q71 0 139 31z" />
    <glyph glyph-name="Cacute" unicode="&#x106;" horiz-adv-x="1136" 
d="M1059 63q0 -19 -9.5 -28t-35.5 -17q-106 -36 -287 -36q-144 0 -258 40t-198.5 120.5t-129.5 210.5t-45 302v211q0 172 45 302.5t129.5 211t198.5 120.5t258 40q178 0 287 -37q27 -8 36 -16t9 -29v-262q0 -39 -37 -39h-6q-199 19 -287 19q-46 0 -80.5 -12.5t-66 -44.5
t-48 -95.5t-16.5 -157.5v-211q0 -93 16.5 -156.5t47.5 -95.5t66 -44.5t81 -12.5q87 0 287 19h6q37 0 37 -39v-263zM1008 1911q0 -8 -9 -17l-258 -245q-2 -2 -8 -7.5t-8 -7t-7.5 -4t-11.5 -3.5t-14 -1h-264q-18 0 -18 14q0 13 8 21l186 233q14 19 25 25t33 6h323q23 0 23 -14
z" />
    <glyph glyph-name="cacute" unicode="&#x107;" horiz-adv-x="970" 
d="M893 57q0 -19 -10 -28.5t-31 -14.5q-140 -32 -281 -32q-234 0 -361.5 141.5t-127.5 394.5v154q0 252 128 395t361 143q151 0 281 -32q21 -5 31 -14.5t10 -28.5v-232q0 -17 -11.5 -28t-27.5 -11h-4q-175 15 -236 15q-69 0 -104 -48.5t-35 -158.5v-154q0 -110 35 -157.5
t104 -47.5q84 0 236 13h4q16 0 27.5 -11t11.5 -28v-230zM901 1581q0 -8 -8 -16l-258 -246q-2 -2 -8 -7.5t-8 -7t-7.5 -4t-11.5 -3.5t-14 -1h-264q-19 0 -19 15q0 12 8 20l187 234q14 18 24.5 24t32.5 6h324q22 0 22 -14z" />
    <glyph glyph-name="Ccircumflex" unicode="&#x108;" horiz-adv-x="1136" 
d="M1059 63q0 -19 -9.5 -28t-35.5 -17q-106 -36 -287 -36q-144 0 -258 40t-198.5 120.5t-129.5 210.5t-45 302v211q0 172 45 302.5t129.5 211t198.5 120.5t258 40q178 0 287 -37q27 -8 36 -16t9 -29v-262q0 -39 -37 -39h-6q-199 19 -287 19q-46 0 -80.5 -12.5t-66 -44.5
t-48 -95.5t-16.5 -157.5v-211q0 -93 16.5 -156.5t47.5 -95.5t66 -44.5t81 -12.5q87 0 287 19h6q37 0 37 -39v-263zM1042 1642q0 -14 -18 -14h-254q-14 0 -23 3.5t-12 6t-14 13.5l-115 121l-114 -121q-19 -19 -32 -22q-7 -1 -18 -1h-254q-18 0 -18 14q0 10 8 21l176 233
q14 19 25 25t33 6h389q23 0 33 -6t24 -25l176 -233q8 -11 8 -21z" />
    <glyph glyph-name="ccircumflex" unicode="&#x109;" horiz-adv-x="970" 
d="M893 57q0 -19 -10 -28.5t-31 -14.5q-140 -32 -281 -32q-234 0 -361.5 141.5t-127.5 394.5v154q0 252 128 395t361 143q151 0 281 -32q21 -5 31 -14.5t10 -28.5v-232q0 -17 -11.5 -28t-27.5 -11h-4q-175 15 -236 15q-69 0 -104 -48.5t-35 -158.5v-154q0 -110 35 -157.5
t104 -47.5q84 0 236 13h4q16 0 27.5 -11t11.5 -28v-230zM948 1311q0 -15 -18 -15h-254q-14 0 -23 3.5t-12 6t-14 13.5l-115 121l-115 -121q-1 -1 -4.5 -5t-4.5 -4.5t-4 -3.5t-4.5 -3.5t-4.5 -2t-5 -2t-5.5 -1.5t-7.5 -1h-9h-254q-18 0 -18 15q0 9 8 20l176 234
q14 18 24.5 24t32.5 6h390q23 0 33 -5.5t24 -24.5l176 -234q8 -11 8 -20z" />
    <glyph glyph-name="Cdotaccent" unicode="&#x10a;" horiz-adv-x="1136" 
d="M1059 63q0 -19 -9.5 -28t-35.5 -17q-106 -36 -287 -36q-144 0 -258 40t-198.5 120.5t-129.5 210.5t-45 302v211q0 172 45 302.5t129.5 211t198.5 120.5t258 40q178 0 287 -37q27 -8 36 -16t9 -29v-262q0 -39 -37 -39h-6q-199 19 -287 19q-46 0 -80.5 -12.5t-66 -44.5
t-48 -95.5t-16.5 -157.5v-211q0 -93 16.5 -156.5t47.5 -95.5t66 -44.5t81 -12.5q87 0 287 19h6q37 0 37 -39v-263zM850 1690q0 -17 -13 -29t-30 -12h-299q-17 0 -29 12t-12 29v223q0 17 12 29t29 12h299q17 0 30 -12t13 -29v-223z" />
    <glyph glyph-name="cdotaccent" unicode="&#x10b;" horiz-adv-x="970" 
d="M893 57q0 -19 -10 -28.5t-31 -14.5q-140 -32 -281 -32q-234 0 -361.5 141.5t-127.5 394.5v154q0 252 128 395t361 143q151 0 281 -32q21 -5 31 -14.5t10 -28.5v-232q0 -17 -11.5 -28t-27.5 -11h-4q-175 15 -236 15q-69 0 -104 -48.5t-35 -158.5v-154q0 -110 35 -157.5
t104 -47.5q84 0 236 13h4q16 0 27.5 -11t11.5 -28v-230zM729 1337q0 -17 -13 -29t-30 -12h-299q-17 0 -29 12t-12 29v224q0 17 12 29t29 12h299q17 0 30 -12t13 -29v-224z" />
    <glyph glyph-name="Ccaron" unicode="&#x10c;" horiz-adv-x="1136" 
d="M1059 63q0 -19 -9.5 -28t-35.5 -17q-106 -36 -287 -36q-144 0 -258 40t-198.5 120.5t-129.5 210.5t-45 302v211q0 172 45 302.5t129.5 211t198.5 120.5t258 40q178 0 287 -37q27 -8 36 -16t9 -29v-262q0 -39 -37 -39h-6q-199 19 -287 19q-46 0 -80.5 -12.5t-66 -44.5
t-48 -95.5t-16.5 -157.5v-211q0 -93 16.5 -156.5t47.5 -95.5t66 -44.5t81 -12.5q87 0 287 19h6q37 0 37 -39v-263zM1081 1911q0 -10 -8 -21l-182 -233q-15 -19 -25 -25t-32 -6h-390q-23 0 -33 6t-24 25l-182 233q-8 11 -8 21q0 14 18 14h260q14 0 22.5 -3t12.5 -6t14 -13
l115 -117l115 117q10 10 14 13t12.5 6t22.5 3h260q18 0 18 -14z" />
    <glyph glyph-name="ccaron" unicode="&#x10d;" horiz-adv-x="970" 
d="M893 57q0 -19 -10 -28.5t-31 -14.5q-140 -32 -281 -32q-234 0 -361.5 141.5t-127.5 394.5v154q0 252 128 395t361 143q151 0 281 -32q21 -5 31 -14.5t10 -28.5v-232q0 -17 -11.5 -28t-27.5 -11h-4q-175 15 -236 15q-69 0 -104 -48.5t-35 -158.5v-154q0 -110 35 -157.5
t104 -47.5q84 0 236 13h4q16 0 27.5 -11t11.5 -28v-230zM973 1581q0 -9 -8 -20l-183 -234q-15 -19 -25 -25t-32 -6h-389q-23 0 -33 6t-24 25l-183 234q-8 11 -8 20q0 14 18 14h261q14 0 22.5 -3t12.5 -6t14 -13l114 -117l115 117q10 10 14 13t12.5 6t22.5 3h260q19 0 19 -14
z" />
    <glyph glyph-name="Dcaron" unicode="&#x10e;" horiz-adv-x="1425" 
d="M1333 649q0 -336 -174.5 -501.5t-490.5 -165.5q-269 0 -469 34q-35 6 -50.5 23t-15.5 57v1331q0 40 15.5 57t50.5 23q206 35 469 35q315 0 490 -166t175 -502v-225zM913 649v225q0 178 -58 245t-187 67q-14 0 -62.5 -1t-54.5 -1v-846q14 -2 117 -2q86 0 137.5 26
t79.5 95.5t28 191.5zM1155 1913q0 -10 -8 -21l-182 -233q-14 -19 -25 -25t-33 -6h-389q-23 0 -33 6t-24 25l-182 233q-9 12 -9 21q0 14 19 14h260q14 0 22.5 -3t12.5 -6t14 -13l115 -117l114 117q10 10 14 13.5t13 6t23 2.5h260q18 0 18 -14z" />
    <glyph glyph-name="dcaron" unicode="&#x10f;" horiz-adv-x="1722" 
d="M1149 98q0 -28 -14 -41.5t-58 -23.5q-235 -51 -459 -51q-254 0 -396 138.5t-142 395.5v160q0 251 136.5 392.5t401.5 141.5q40 0 140 -14v346q0 17 12 29t29 12h305q18 0 31.5 -12t13.5 -29v-1444zM758 315v562q-82 8 -140 8q-81 0 -114 -55t-33 -154v-160
q0 -101 33 -156t114 -55q75 0 140 10zM1743 1561q0 -5 -4 -17l-205 -471q-8 -21 -16.5 -30t-22.5 -9h-223q-25 0 -25 23q0 10 2 16l133 471q8 39 41 39h295q25 0 25 -22z" />
    <glyph glyph-name="Dcroat" unicode="&#x110;" horiz-adv-x="1425" 
d="M1333 664q0 -178 -47.5 -310.5t-136.5 -213t-209 -119.5t-272 -39q-274 0 -473 34q-35 6 -50.5 23t-15.5 57v514h-104q-17 0 -29 12t-12 29v244q0 17 12 28t29 11h104v491q0 40 15.5 57t50.5 23q216 37 473 37q152 0 271.5 -38.5t208.5 -119t137 -213t48 -311.5v-196z
M911 664v196q0 185 -56 254.5t-187 69.5q-27 0 -72 -1t-49 -1v-248h108q17 0 28 -11t11 -28v-244q0 -17 -11 -29t-28 -12h-108v-268q14 -2 121 -2q131 0 187 69.5t56 254.5z" />
    <glyph glyph-name="dcroat" unicode="&#x111;" horiz-adv-x="1261" 
d="M1149 98q0 -28 -14 -41.5t-58 -23.5q-235 -51 -459 -51q-254 0 -396 138.5t-142 395.5v160q0 251 136.5 392.5t401.5 141.5q40 0 140 -14v100h-234q-17 0 -29 12t-12 29v101q0 17 12 28t29 11h234v65q0 17 12 29t29 12h305q18 0 31.5 -12t13.5 -29v-65h74q17 0 28 -11
t11 -28v-101q0 -17 -11 -29t-28 -12h-74v-1198zM758 315v562q-82 8 -140 8q-81 0 -114 -55t-33 -154v-160q0 -101 33 -156t114 -55q75 0 140 10z" />
    <glyph glyph-name="Emacron" unicode="&#x112;" horiz-adv-x="1198" 
d="M1004 1690q0 -17 -12 -29t-29 -12h-695q-17 0 -29 12t-12 29v180q0 17 12 28t29 11h695q17 0 29 -11t12 -28v-180zM1090 47q0 -35 -41 -41q-187 -24 -404 -24q-61 0 -112 4.5t-106 17t-98.5 33.5t-83.5 56t-66.5 82.5t-42 114.5t-15.5 150v643q0 114 30.5 199t78 133.5
t119 78t140.5 39t156 9.5q217 0 404 -24q41 -6 41 -41v-250q0 -17 -12 -29t-29 -12h-414q-56 0 -77 -21.5t-21 -81.5v-149h503q17 0 29 -12t12 -29v-242q0 -17 -12 -29t-29 -12h-503v-170q0 -59 21 -80.5t77 -21.5h414q17 0 29 -12t12 -29v-250z" />
    <glyph glyph-name="emacron" unicode="&#x113;" horiz-adv-x="1232" 
d="M1151 530q0 -20 -12 -32.5t-31 -12.5h-637v-4q0 -87 44 -131.5t151 -44.5q223 0 389 17h8q37 0 37 -35v-185q0 -25 -8.5 -37.5t-32.5 -19.5q-192 -63 -445 -63q-85 0 -161.5 18t-145 58.5t-118 101.5t-78.5 152.5t-29 205.5v135q0 267 145 412t400 145q260 0 392 -150
t132 -407v-123zM774 702v7q0 94 -38 145t-113 51q-73 0 -112.5 -51.5t-39.5 -144.5v-7h303zM1006 1360q0 -17 -12 -29t-29 -12h-695q-17 0 -29 12t-12 29v180q0 17 12 28t29 11h695q17 0 29 -11t12 -28v-180z" />
    <glyph glyph-name="Ebreve" unicode="&#x114;" horiz-adv-x="1198" 
d="M1090 47q0 -35 -41 -41q-187 -24 -404 -24q-61 0 -112 4.5t-106 17t-98.5 33.5t-83.5 56t-66.5 82.5t-42 114.5t-15.5 150v643q0 114 30.5 199t78 133.5t119 78t140.5 39t156 9.5q217 0 404 -24q41 -6 41 -41v-250q0 -17 -12 -29t-29 -12h-414q-56 0 -77 -21.5t-21 -81.5
v-149h503q17 0 29 -12t12 -29v-242q0 -17 -12 -29t-29 -12h-503v-170q0 -59 21 -80.5t77 -21.5h414q17 0 29 -12t12 -29v-250zM1069 1935q0 -2 -4 -14q-56 -143 -162.5 -218t-259.5 -75t-259.5 75t-162.5 218q-4 12 -4 14q0 13 19 13h241q12 0 19 -4t9.5 -8.5t4.5 -14.5
q16 -52 53 -73t80 -21t80 21t53 73q2 10 4.5 14.5t9.5 8.5t19 4h242q18 0 18 -13z" />
    <glyph glyph-name="ebreve" unicode="&#x115;" horiz-adv-x="1232" 
d="M1151 530q0 -20 -12 -32.5t-31 -12.5h-637v-4q0 -87 44 -131.5t151 -44.5q223 0 389 17h8q37 0 37 -35v-185q0 -25 -8.5 -37.5t-32.5 -19.5q-192 -63 -445 -63q-85 0 -161.5 18t-145 58.5t-118 101.5t-78.5 152.5t-29 205.5v135q0 267 145 412t400 145q260 0 392 -150
t132 -407v-123zM774 702v7q0 94 -38 145t-113 51q-73 0 -112.5 -51.5t-39.5 -144.5v-7h303zM1044 1604q0 -3 -4 -15q-56 -143 -162.5 -218t-259.5 -75q-307 0 -421 293q-4 12 -4 15q0 12 18 12h242q17 0 22.5 -6t9.5 -21q16 -52 53 -73t80 -21t80.5 21t53.5 73
q2 10 4.5 14.5t9 8.5t18.5 4h242q18 0 18 -12z" />
    <glyph glyph-name="Edotaccent" unicode="&#x116;" horiz-adv-x="1198" 
d="M791 1675q0 -17 -13 -29t-30 -12h-299q-17 0 -29 12t-12 29v223q0 17 12 29t29 12h299q17 0 30 -12t13 -29v-223zM1090 47q0 -35 -41 -41q-187 -24 -404 -24q-61 0 -112 4.5t-106 17t-98.5 33.5t-83.5 56t-66.5 82.5t-42 114.5t-15.5 150v643q0 114 30.5 199t78 133.5
t119 78t140.5 39t156 9.5q217 0 404 -24q41 -6 41 -41v-250q0 -17 -12 -29t-29 -12h-414q-56 0 -77 -21.5t-21 -81.5v-149h503q17 0 29 -12t12 -29v-242q0 -17 -12 -29t-29 -12h-503v-170q0 -59 21 -80.5t77 -21.5h414q17 0 29 -12t12 -29v-250z" />
    <glyph glyph-name="edotaccent" unicode="&#x117;" horiz-adv-x="1232" 
d="M1151 530q0 -20 -12 -32.5t-31 -12.5h-637v-4q0 -87 44 -131.5t151 -44.5q223 0 389 17h8q37 0 37 -35v-185q0 -25 -8.5 -37.5t-32.5 -19.5q-192 -63 -445 -63q-85 0 -161.5 18t-145 58.5t-118 101.5t-78.5 152.5t-29 205.5v135q0 267 145 412t400 145q260 0 392 -150
t132 -407v-123zM774 702v7q0 94 -38 145t-113 51q-73 0 -112.5 -51.5t-39.5 -144.5v-7h303zM809 1360q0 -17 -13 -29t-30 -12h-299q-17 0 -29 12t-12 29v223q0 17 12 29t29 12h299q17 0 30 -12t13 -29v-223z" />
    <glyph glyph-name="Eogonek" unicode="&#x118;" horiz-adv-x="1198" 
d="M1090 -340q0 -20 -23 -31q-32 -13 -100 -27t-142 -14q-55 0 -102 10t-87.5 32t-63.5 62t-23 95q0 64 24.5 110t83.5 85h-12q-61 0 -112 4.5t-106 17t-98.5 33.5t-83.5 56t-66.5 82.5t-42 114.5t-15.5 150v643q0 114 30.5 199t78 133.5t119 78t140.5 39t156 9.5
q217 0 404 -24q41 -6 41 -41v-250q0 -17 -12 -29t-29 -12h-414q-56 0 -77 -21.5t-21 -81.5v-149h503q17 0 29 -12t12 -29v-242q0 -17 -12 -29t-29 -12h-503v-170q0 -59 21 -80.5t77 -21.5h414q17 0 29 -12t12 -29v-250q0 -35 -41 -41q-48 -6 -58 -6l-90 -61
q-26 -16 -39.5 -30t-13.5 -32q0 -30 19.5 -42.5t64.5 -12.5q29 0 79 9t58 9q13 0 17 -4.5t4 -19.5v-156z" />
    <glyph glyph-name="eogonek" unicode="&#x119;" horiz-adv-x="1232" 
d="M1106 -340q0 -20 -23 -31q-32 -13 -99.5 -27t-141.5 -14q-55 0 -102.5 10t-88 32t-63.5 62t-23 95q0 65 25 110.5t84 86.5q-18 -2 -60 -2q-85 0 -161.5 18t-145 58.5t-118 101.5t-78.5 152.5t-29 205.5v135q0 267 145 412t400 145q260 0 392 -150t132 -407v-123
q0 -20 -12 -32.5t-31 -12.5h-637v-4q0 -87 44 -131.5t151 -44.5q223 0 389 17h8q37 0 37 -35v-185q0 -43 -23 -57l-159 -106q-18 -11 -27.5 -18.5t-18 -19t-8.5 -24.5q0 -30 19.5 -42.5t64.5 -12.5q29 0 79 9t58 9q13 0 17 -4.5t4 -19.5v-156zM774 702v7q0 94 -38 145
t-113 51q-73 0 -112.5 -51.5t-39.5 -144.5v-7h303z" />
    <glyph glyph-name="Ecaron" unicode="&#x11a;" horiz-adv-x="1198" 
d="M1055 1913q0 -10 -8 -21l-183 -233q-15 -19 -25 -25t-32 -6h-389q-23 0 -33.5 6t-24.5 25l-182 233q-8 11 -8 21q0 14 18 14h261q14 0 22.5 -3t12.5 -6t14 -13l114 -117l115 117q10 10 14 13t12.5 6t22.5 3h260q19 0 19 -14zM1090 47q0 -35 -41 -41q-187 -24 -404 -24
q-61 0 -112 4.5t-106 17t-98.5 33.5t-83.5 56t-66.5 82.5t-42 114.5t-15.5 150v643q0 114 30.5 199t78 133.5t119 78t140.5 39t156 9.5q217 0 404 -24q41 -6 41 -41v-250q0 -17 -12 -29t-29 -12h-414q-56 0 -77 -21.5t-21 -81.5v-149h503q17 0 29 -12t12 -29v-242
q0 -17 -12 -29t-29 -12h-503v-170q0 -59 21 -80.5t77 -21.5h414q17 0 29 -12t12 -29v-250z" />
    <glyph glyph-name="ecaron" unicode="&#x11b;" horiz-adv-x="1232" 
d="M1151 530q0 -20 -12 -32.5t-31 -12.5h-637v-4q0 -87 44 -131.5t151 -44.5q223 0 389 17h8q37 0 37 -35v-185q0 -25 -8.5 -37.5t-32.5 -19.5q-192 -63 -445 -63q-85 0 -161.5 18t-145 58.5t-118 101.5t-78.5 152.5t-29 205.5v135q0 267 145 412t400 145q260 0 392 -150
t132 -407v-123zM774 702v7q0 94 -38 145t-113 51q-73 0 -112.5 -51.5t-39.5 -144.5v-7h303zM1059 1581q0 -9 -8 -20l-183 -234q-15 -19 -25 -25t-32 -6h-389q-23 0 -33 6t-24 25l-183 234q-8 11 -8 20q0 14 19 14h260q14 0 22.5 -3t12.5 -6t14 -13l114 -117l115 117
q10 10 14 13t12.5 6t22.5 3h260q19 0 19 -14z" />
    <glyph glyph-name="Gcircumflex" unicode="&#x11c;" horiz-adv-x="1345" 
d="M1227 78q0 -23 -9 -32.5t-34 -14.5q-229 -49 -473 -49q-82 0 -159.5 15.5t-163.5 61.5t-149.5 117.5t-105 194.5t-41.5 282v215q0 162 41 285t104 195t152 117.5t172.5 61t177.5 15.5q248 0 449 -55q24 -7 31.5 -13.5t7.5 -25.5v-258q0 -33 -29 -33h-6q-247 19 -395 19
q-77 0 -127 -13.5t-87 -47.5t-53 -94t-16 -153v-217q0 -313 197 -313q59 0 112 6v420q0 17 11 29t28 12h324q17 0 29 -12t12 -29v-686zM1159 1642q0 -14 -18 -14h-254q-14 0 -23 3.5t-12 6t-14 13.5l-115 121l-115 -121q-1 -1 -4.5 -5t-4.5 -4.5t-4 -3.5t-4.5 -3.5t-4.5 -2
t-5 -2t-5.5 -1.5t-7.5 -1h-9h-254q-18 0 -18 14q0 10 8 21l176 233q15 19 25 25t32 6h390q23 0 33 -6t24 -25l176 -233q8 -11 8 -21z" />
    <glyph glyph-name="gcircumflex" unicode="&#x11d;" horiz-adv-x="1257" 
d="M1225 997q0 -35 -41 -45l-58 -16q37 -60 37 -135v-23q0 -391 -528 -391q-128 0 -201 25q-26 -17 -26 -43q0 -18 10 -28.5t37 -16.5l229 -48q102 -21 156 -33.5t132 -40.5t117 -59t69 -83t30 -119v-15q0 -178 -143.5 -262t-428.5 -84q-257 0 -394.5 92t-137.5 254v15
q0 50 29.5 112.5t85.5 106.5q-46 34 -71.5 73.5t-25.5 106.5q0 44 16 81t33 56.5t48 48.5q-99 90 -99 252v23q0 192 133.5 291.5t401.5 99.5h543q20 0 33.5 -14.5t13.5 -34.5v-146zM782 778v23q0 58 -33 89.5t-114 31.5q-148 0 -148 -121v-23q0 -55 31.5 -87t116.5 -32
q82 0 114.5 30.5t32.5 88.5zM778 -74v15q0 21 -10 33.5t-49 28t-117 32.5l-123 26q-30 -42 -30 -120v-15q0 -90 167 -90q96 0 129 23.5t33 66.5zM1067 1311q0 -15 -18 -15h-254q-20 0 -28 4.5t-22 18.5l-114 121l-115 -121q-1 -1 -4.5 -5t-4.5 -4.5t-4 -3.5t-4.5 -3.5
t-4.5 -2t-5 -2t-5.5 -1.5t-7.5 -1h-9h-254q-18 0 -18 15q0 9 8 20l176 234q14 18 24.5 24t32.5 6h389q23 0 33.5 -5.5t24.5 -24.5l176 -234q8 -11 8 -20z" />
    <glyph glyph-name="Gbreve" unicode="&#x11e;" horiz-adv-x="1345" 
d="M1227 78q0 -23 -9 -32.5t-34 -14.5q-229 -49 -473 -49q-82 0 -159.5 15.5t-163.5 61.5t-149.5 117.5t-105 194.5t-41.5 282v215q0 162 41 285t104 195t152 117.5t172.5 61t177.5 15.5q248 0 449 -55q24 -7 31.5 -13.5t7.5 -25.5v-258q0 -33 -29 -33h-6q-247 19 -395 19
q-77 0 -127 -13.5t-87 -47.5t-53 -94t-16 -153v-217q0 -313 197 -313q59 0 112 6v420q0 17 11 29t28 12h324q17 0 29 -12t12 -29v-686zM1141 1933q0 -2 -4 -14q-56 -143 -162.5 -218t-259.5 -75t-259.5 75t-162.5 218q-4 12 -4 14q0 13 18 13h242q12 0 19 -4t9.5 -8.5
t4.5 -14.5q16 -52 53 -73t80 -21t80 21t53 73q2 10 4.5 14.5t9.5 8.5t19 4h241q19 0 19 -13z" />
    <glyph glyph-name="gbreve" unicode="&#x11f;" horiz-adv-x="1257" 
d="M1225 997q0 -35 -41 -45l-58 -16q37 -60 37 -135v-23q0 -391 -528 -391q-128 0 -201 25q-26 -17 -26 -43q0 -18 10 -28.5t37 -16.5l229 -48q102 -21 156 -33.5t132 -40.5t117 -59t69 -83t30 -119v-15q0 -178 -143.5 -262t-428.5 -84q-257 0 -394.5 92t-137.5 254v15
q0 50 29.5 112.5t85.5 106.5q-46 34 -71.5 73.5t-25.5 106.5q0 44 16 81t33 56.5t48 48.5q-99 90 -99 252v23q0 192 133.5 291.5t401.5 99.5h543q20 0 33.5 -14.5t13.5 -34.5v-146zM782 778v23q0 58 -33 89.5t-114 31.5q-148 0 -148 -121v-23q0 -55 31.5 -87t116.5 -32
q82 0 114.5 30.5t32.5 88.5zM778 -74v15q0 21 -10 33.5t-49 28t-117 32.5l-123 26q-30 -42 -30 -120v-15q0 -90 167 -90q96 0 129 23.5t33 66.5zM1055 1597q0 -2 -4 -14q-56 -143 -162.5 -218t-259.5 -75t-259.5 75t-162.5 218q-4 12 -4 14q0 13 18 13h242q12 0 19 -4
t9.5 -8.5t4.5 -14.5q16 -52 53 -73t80 -21t80 21t53 73q2 10 4.5 14.5t9.5 8.5t19 4h241q19 0 19 -13z" />
    <glyph glyph-name="Gdotaccent" unicode="&#x120;" horiz-adv-x="1345" 
d="M1227 78q0 -23 -9 -32.5t-34 -14.5q-229 -49 -473 -49q-82 0 -159.5 15.5t-163.5 61.5t-149.5 117.5t-105 194.5t-41.5 282v215q0 162 41 285t104 195t152 117.5t172.5 61t177.5 15.5q248 0 449 -55q24 -7 31.5 -13.5t7.5 -25.5v-258q0 -33 -29 -33h-6q-247 19 -395 19
q-77 0 -127 -13.5t-87 -47.5t-53 -94t-16 -153v-217q0 -313 197 -313q59 0 112 6v420q0 17 11 29t28 12h324q17 0 29 -12t12 -29v-686zM909 1690q0 -17 -13 -29t-30 -12h-299q-17 0 -29 12t-12 29v223q0 17 12 29t29 12h299q17 0 30 -12t13 -29v-223z" />
    <glyph glyph-name="gdotaccent" unicode="&#x121;" horiz-adv-x="1257" 
d="M1225 997q0 -35 -41 -45l-58 -16q37 -60 37 -135v-23q0 -391 -528 -391q-128 0 -201 25q-26 -17 -26 -43q0 -18 10 -28.5t37 -16.5l229 -48q102 -21 156 -33.5t132 -40.5t117 -59t69 -83t30 -119v-15q0 -178 -143.5 -262t-428.5 -84q-257 0 -394.5 92t-137.5 254v15
q0 50 29.5 112.5t85.5 106.5q-46 34 -71.5 73.5t-25.5 106.5q0 44 16 81t33 56.5t48 48.5q-99 90 -99 252v23q0 192 133.5 291.5t401.5 99.5h543q20 0 33.5 -14.5t13.5 -34.5v-146zM782 778v23q0 58 -33 89.5t-114 31.5q-148 0 -148 -121v-23q0 -55 31.5 -87t116.5 -32
q82 0 114.5 30.5t32.5 88.5zM778 -74v15q0 21 -10 33.5t-49 28t-117 32.5l-123 26q-30 -42 -30 -120v-15q0 -90 167 -90q96 0 129 23.5t33 66.5zM831 1337q0 -17 -13 -29t-30 -12h-299q-17 0 -28.5 12t-11.5 29v224q0 17 11.5 29t28.5 12h299q17 0 30 -12t13 -29v-224z" />
    <glyph glyph-name="Gcommaaccent" unicode="&#x122;" horiz-adv-x="1345" 
d="M1227 78q0 -23 -9 -32.5t-34 -14.5q-229 -49 -473 -49q-82 0 -159.5 15.5t-163.5 61.5t-149.5 117.5t-105 194.5t-41.5 282v215q0 162 41 285t104 195t152 117.5t172.5 61t177.5 15.5q248 0 449 -55q24 -7 31.5 -13.5t7.5 -25.5v-258q0 -33 -29 -33h-6q-247 19 -395 19
q-77 0 -127 -13.5t-87 -47.5t-53 -94t-16 -153v-217q0 -313 197 -313q59 0 112 6v420q0 17 11 29t28 12h324q17 0 29 -12t12 -29v-686zM944 -133q0 -2 -4 -14l-115 -207q-21 -41 -51 -41h-223q-31 0 -31 26q0 10 6 33l49 189q9 38 41 38h299q29 0 29 -24z" />
    <glyph glyph-name="gcommaaccent" unicode="&#x123;" horiz-adv-x="1257" 
d="M1225 997q0 -35 -41 -45l-58 -16q37 -60 37 -135v-23q0 -391 -528 -391q-128 0 -201 25q-26 -17 -26 -43q0 -18 10 -28.5t37 -16.5l229 -48q102 -21 156 -33.5t132 -40.5t117 -59t69 -83t30 -119v-15q0 -178 -143.5 -262t-428.5 -84q-257 0 -394.5 92t-137.5 254v15
q0 50 29.5 112.5t85.5 106.5q-46 34 -71.5 73.5t-25.5 106.5q0 44 16 81t33 56.5t48 48.5q-99 90 -99 252v23q0 192 133.5 291.5t401.5 99.5h543q20 0 33.5 -14.5t13.5 -34.5v-146zM782 778v23q0 58 -33 89.5t-114 31.5q-148 0 -148 -121v-23q0 -55 31.5 -87t116.5 -32
q82 0 114.5 30.5t32.5 88.5zM778 -74v15q0 21 -10 33.5t-49 28t-117 32.5l-123 26q-30 -42 -30 -120v-15q0 -90 167 -90q96 0 129 23.5t33 66.5zM467 1321q0 2 4 14l117 221q16 41 45 41h229q31 0 31 -24q0 -11 -2 -17l-55 -221q-9 -39 -41 -39h-299q-29 0 -29 25z" />
    <glyph glyph-name="Hcircumflex" unicode="&#x124;" horiz-adv-x="1527" 
d="M1395 41q0 -17 -12 -29t-29 -12h-334q-17 0 -29 12t-12 29v557h-428v-557q0 -17 -12 -29t-29 -12h-334q-17 0 -30 12t-13 29v1442q0 17 12.5 28t30.5 11h334q17 0 29 -11t12 -28v-525h428v525q0 17 12 28t29 11h334q17 0 29 -11t12 -28v-1442zM1196 1642q0 -14 -18 -14
h-254q-20 0 -28 4.5t-22 18.5l-114 121l-115 -121q-1 -1 -4.5 -5t-4.5 -4.5t-4 -3.5t-4.5 -3.5t-4.5 -2t-5 -2t-5.5 -1.5t-7.5 -1h-9h-254q-18 0 -18 14q0 10 8 21l176 233q15 19 25 25t32 6h389q23 0 33.5 -6t24.5 -25l176 -233q8 -11 8 -21z" />
    <glyph glyph-name="hcircumflex" unicode="&#x125;" horiz-adv-x="1294" 
d="M1184 41q0 -17 -12 -29t-29 -12h-312q-17 0 -28.5 12t-11.5 29v707q0 78 -31 106.5t-98 28.5q-74 0 -156 -45v-793q0 -18 -11.5 -31.5t-29.5 -13.5h-307q-18 0 -31.5 13.5t-13.5 31.5v1497q0 17 12 29t29 12h311q17 0 29 -12t12 -29v-412q63 44 133.5 61t169.5 17
q86 0 152 -24t107.5 -64.5t68 -100.5t37 -125.5t10.5 -145.5v-707zM1108 1642q0 -14 -18 -14h-254q-20 0 -28 4.5t-22 18.5l-114 121l-115 -121q-1 -1 -4.5 -5t-4.5 -4.5t-4 -3.5t-4.5 -3.5t-4.5 -2t-5 -2t-5.5 -1.5t-7.5 -1h-9h-254q-18 0 -18 14q0 10 8 21l176 233
q15 19 25 25t32 6h389q23 0 33.5 -6t24.5 -25l176 -233q8 -11 8 -21z" />
    <glyph glyph-name="Hbar" unicode="&#x126;" horiz-adv-x="1527" 
d="M1395 41q0 -17 -12 -29t-29 -12h-334q-17 0 -29 12t-12 29v557h-428v-557q0 -17 -12 -29t-29 -12h-334q-17 0 -30 12t-13 29v1092h-94q-17 0 -28 12t-11 29v141q0 17 11 28t28 11h94v129q0 17 12.5 28t30.5 11h334q17 0 29 -11t12 -28v-129h428v129q0 17 12 28t29 11h334
q17 0 29 -11t12 -28v-129h92q17 0 29 -11t12 -28v-141q0 -17 -12 -29t-29 -12h-92v-1092zM551 958h428v175h-428v-175z" />
    <glyph glyph-name="hbar" unicode="&#x127;" horiz-adv-x="1294" 
d="M737 1296h-231v-166q63 44 133.5 61t169.5 17q86 0 152 -24t107.5 -64.5t68 -100.5t37 -125.5t10.5 -145.5v-707q0 -17 -12 -29t-29 -12h-312q-17 0 -28.5 12t-11.5 29v707q0 78 -31 106.5t-98 28.5q-74 0 -156 -45v-793q0 -18 -11.5 -31.5t-29.5 -13.5h-307
q-18 0 -31.5 13.5t-13.5 31.5v1251h-74q-17 0 -28 12t-11 29v101q0 17 11 28t28 11h74v65q0 17 12 29t29 12h311q17 0 29 -12t12 -29v-65h231q17 0 29 -11t12 -28v-101q0 -17 -12 -29t-29 -12z" />
    <glyph glyph-name="Itilde" unicode="&#x128;" horiz-adv-x="684" 
d="M551 41q0 -17 -12 -29t-29 -12h-336q-17 0 -29 12t-12 29v1442q0 17 12 28t29 11h336q17 0 29 -11t12 -28v-1442zM772 1882q0 -139 -69.5 -199.5t-202.5 -60.5q-31 0 -75 12t-75 31l-82 49q-50 31 -80 31q-38 0 -38 -41v-35q0 -35 -33 -35h-172q-35 0 -35 35v35
q0 260 274 260q32 0 74 -11t74 -30l84 -49q61 -33 80 -33q20 0 28 9t8 34v35q0 35 35 35h170q35 0 35 -35v-37z" />
    <glyph glyph-name="itilde" unicode="&#x129;" horiz-adv-x="641" 
d="M518 45q0 -17 -14 -31t-31 -14h-305q-17 0 -31 14t-14 31v1104q0 17 14 30t31 13h305q17 0 31 -13t14 -30v-1104zM748 1544q0 -139 -70 -199.5t-203 -60.5q-31 0 -74.5 12t-74.5 31l-82 49q-50 31 -80 31q-39 0 -39 -41v-35q0 -35 -33 -35h-172q-35 0 -35 35v35
q0 260 275 260q79 0 147 -41l84 -49q61 -33 80 -33q21 0 29 9.5t8 33.5v35q0 35 35 35h170q35 0 35 -35v-37z" />
    <glyph glyph-name="Imacron" unicode="&#x12a;" horiz-adv-x="684" 
d="M551 41q0 -17 -12 -29t-29 -12h-336q-17 0 -29 12t-12 29v1442q0 17 12 28t29 11h336q17 0 29 -11t12 -28v-1442zM729 1690q0 -17 -12 -29t-29 -12h-694q-17 0 -29 12t-12 29v180q0 17 12 28t29 11h694q17 0 29 -11t12 -28v-180z" />
    <glyph glyph-name="imacron" unicode="&#x12b;" horiz-adv-x="641" 
d="M518 45q0 -17 -14 -31t-31 -14h-305q-17 0 -31 14t-14 31v1104q0 17 14 30t31 13h305q17 0 31 -13t14 -30v-1104zM709 1360q0 -17 -12 -29t-29 -12h-695q-17 0 -29 12t-12 29v180q0 17 12 28t29 11h695q17 0 29 -11t12 -28v-180z" />
    <glyph glyph-name="Ibreve" unicode="&#x12c;" horiz-adv-x="684" 
d="M551 41q0 -17 -12 -29t-29 -12h-336q-17 0 -29 12t-12 29v1442q0 17 12 28t29 11h336q17 0 29 -11t12 -28v-1442zM764 1915q0 -2 -4 -14q-56 -143 -162.5 -218t-259.5 -75t-259.5 75t-162.5 218q-4 12 -4 14q0 12 18 12h242q12 0 19 -3.5t9.5 -8.5t4.5 -14
q16 -52 53 -73.5t80 -21.5t80 21.5t53 73.5q2 9 4.5 14t9.5 8.5t19 3.5h241q19 0 19 -12z" />
    <glyph glyph-name="ibreve" unicode="&#x12d;" horiz-adv-x="641" 
d="M518 45q0 -17 -14 -31t-31 -14h-305q-17 0 -31 14t-14 31v1104q0 17 14 30t31 13h305q17 0 31 -13t14 -30v-1104zM741 1604q0 -3 -4 -15q-56 -143 -162.5 -218t-259.5 -75q-307 0 -421 293l-5 15q0 12 19 12h242q17 0 22.5 -6t9.5 -21q16 -52 53 -73t80 -21t80.5 21
t53.5 73q2 10 4.5 14.5t9 8.5t18.5 4h242q18 0 18 -12z" />
    <glyph glyph-name="Iogonek" unicode="&#x12e;" horiz-adv-x="684" 
d="M551 41q0 -24 -19 -35l-120 -55q-48 -22 -65 -36.5t-17 -39.5q0 -30 20 -41.5t76 -11.5q32 0 85.5 9t59.5 9q13 0 17 -4.5t4 -19.5v-156q0 -20 -23 -31q-32 -13 -99.5 -27t-141.5 -14q-55 0 -94 3t-82.5 14.5t-70.5 32.5t-45 58.5t-18 90.5q0 132 115 219v1477
q0 17 12 28t29 11h336q17 0 29 -11t12 -28v-1442z" />
    <glyph glyph-name="iogonek" unicode="&#x12f;" horiz-adv-x="641" 
d="M528 1346q0 -17 -13.5 -29t-31.5 -12h-323q-18 0 -32.5 12t-14.5 29v200q0 17 14.5 29t32.5 12h323q18 0 31.5 -12t13.5 -29v-200zM123 6v1143q0 17 14 30t31 13h305q17 0 31 -13t14 -30v-1110q0 -27 -18 -37l-101 -51q-35 -18 -48 -25.5t-23.5 -20.5t-10.5 -30
q0 -30 20.5 -41.5t76.5 -11.5q32 0 85.5 9t59.5 9q13 0 17 -4.5t4 -19.5v-156q0 -20 -23 -31q-32 -13 -100 -27t-142 -14q-309 0 -309 199q0 130 117 219z" />
    <glyph glyph-name="Idotaccent" unicode="&#x130;" horiz-adv-x="684" 
d="M551 41q0 -17 -12 -29t-29 -12h-336q-17 0 -29 12t-12 29v1442q0 17 12 28t29 11h336q17 0 29 -11t12 -28v-1442zM532 1669q0 -17 -13 -29t-30 -12h-299q-17 0 -28.5 12t-11.5 29v223q0 17 11.5 29t28.5 12h299q17 0 30 -12t13 -29v-223z" />
    <glyph glyph-name="dotlessi" unicode="&#x131;" horiz-adv-x="641" 
d="M518 45q0 -17 -14 -31t-31 -14h-305q-17 0 -31 14t-14 31v1104q0 17 14 30t31 13h305q17 0 31 -13t14 -30v-1104z" />
    <glyph glyph-name="IJ" unicode="&#x132;" horiz-adv-x="1368" 
d="M551 41q0 -17 -12 -29t-29 -12h-336q-17 0 -29 12t-12 29v1442q0 17 12 28t29 11h336q17 0 29 -11t12 -28v-1442zM1235 4q0 -93 -17.5 -162.5t-48 -113.5t-77 -71.5t-99.5 -38.5t-121 -11q-94 0 -186 14q-23 3 -32 12.5t-9 28.5v223q0 17 12 29t29 12h76q32 0 43.5 18.5
t11.5 59.5v1477q0 17 13 29t30 12h334q17 0 29 -12t12 -29v-1477z" />
    <glyph glyph-name="ij" unicode="&#x133;" horiz-adv-x="1280" 
d="M528 1346q0 -17 -13.5 -29t-31.5 -12h-323q-18 0 -32.5 12t-14.5 29v200q0 17 14.5 29t32.5 12h323q18 0 31.5 -12t13.5 -29v-200zM518 45q0 -17 -14 -31t-31 -14h-305q-17 0 -31 14t-14 31v1104q0 17 14 30t31 13h305q17 0 31 -13t14 -30v-1104zM1167 1346
q0 -17 -13.5 -29t-31.5 -12h-321q-18 0 -31.5 12t-13.5 29v200q0 17 13.5 29t31.5 12h321q18 0 31.5 -12t13.5 -29v-200zM1159 -43q0 -108 -24.5 -183.5t-72 -117.5t-108 -60t-141.5 -18q-78 0 -192 19q-41 7 -41 43v190q0 17 12 29t31 12h88q34 0 43.5 19.5t9.5 66.5v1192
q0 17 14 30t31 13h305q17 0 31 -13t14 -30v-1192z" />
    <glyph glyph-name="Jcircumflex" unicode="&#x134;" horiz-adv-x="684" 
d="M551 4q0 -93 -17.5 -162.5t-48 -113.5t-77 -71.5t-99.5 -38.5t-121 -11q-94 0 -186 14q-23 3 -32 12.5t-9 28.5v223q0 17 12 29t29 12h76q32 0 43.5 18.5t11.5 59.5v1477q0 17 13 29t30 12h334q17 0 29 -12t12 -29v-1477zM782 1642q0 -14 -18 -14h-254q-14 0 -23 3.5
t-12 6t-14 13.5l-115 121l-115 -121q-1 -1 -4.5 -5t-4.5 -4.5t-4 -3.5t-4.5 -3.5t-4.5 -2t-5 -2t-5.5 -1.5t-7.5 -1h-9h-254q-18 0 -18 14q0 10 8 21l176 233q14 19 25 25t33 6h389q23 0 33 -6t24 -25l176 -233q8 -11 8 -21z" />
    <glyph glyph-name="jcircumflex" unicode="&#x135;" horiz-adv-x="638" 
d="M518 -43q0 -108 -24.5 -183.5t-72 -117.5t-108 -60t-141.5 -18q-78 0 -192 19q-41 7 -41 43v190q0 17 12 29t31 12h88q34 0 43.5 19.5t9.5 66.5v1192q0 17 14 30t31 13h305q17 0 31 -13t14 -30v-1192zM760 1311q0 -15 -19 -15h-254q-14 0 -23 3.5t-12 6t-14 13.5
l-114 121l-115 -121q-1 -1 -4.5 -5t-4.5 -4.5t-4 -3.5t-4.5 -3.5t-4.5 -2t-5 -2t-5.5 -1.5t-7.5 -1h-9h-254q-19 0 -19 15q0 8 9 20l176 234q14 18 24.5 24t32.5 6h389q23 0 33 -5.5t24 -24.5l177 -234q8 -11 8 -20z" />
    <glyph glyph-name="Kcommaaccent" unicode="&#x136;" horiz-adv-x="1460" 
d="M1411 23q0 -23 -27 -23h-430q-12 0 -20.5 6t-12 11t-10.5 18l-360 653v-647q0 -17 -12 -29t-29 -12h-334q-17 0 -30 12t-13 29v1442q0 17 12.5 28t30.5 11h334q17 0 29 -11t12 -28v-649l393 655q18 33 45 33h393q29 0 29 -23q0 -11 -8 -22l-447 -705l449 -729q6 -9 6 -20
zM911 -133q0 -2 -4 -14l-114 -207q-21 -41 -52 -41h-223q-31 0 -31 26q0 6 7 33l49 189q9 38 41 38h299q28 0 28 -24z" />
    <glyph glyph-name="kcommaaccent" unicode="&#x137;" horiz-adv-x="1284" 
d="M1235 29q0 -11 -7.5 -20t-19.5 -9h-379q-38 0 -63 45l-260 467v-467q0 -18 -12 -31.5t-29 -13.5h-307q-17 0 -31 14t-14 31v1497q0 17 13.5 29t31.5 12h307q17 0 29 -12t12 -29v-856l280 469q20 37 60 37h354q13 0 21 -7t8 -18q0 -9 -6 -18l-355 -531l363 -573
q4 -6 4 -16zM821 -133q0 -2 -4 -14l-115 -207q-21 -41 -51 -41h-223q-31 0 -31 26q0 10 6 33l50 189q9 38 41 38h299q28 0 28 -24z" />
    <glyph glyph-name="kgreenlandic" unicode="&#x138;" horiz-adv-x="1284" 
d="M1235 29q0 -11 -7.5 -20t-19.5 -9h-379q-38 0 -63 45l-260 467v-467q0 -18 -12 -31.5t-29 -13.5h-307q-17 0 -31 14t-14 31v1106q0 17 13.5 29t31.5 12h307q17 0 29 -12t12 -29v-465l280 469q20 37 60 37h354q13 0 21 -7t8 -18q0 -9 -6 -18l-355 -531l363 -573
q4 -6 4 -16z" />
    <glyph glyph-name="Lacute" unicode="&#x139;" horiz-adv-x="1069" 
d="M1022 47q0 -35 -41 -41q-127 -24 -322 -24q-61 0 -112 4.5t-106.5 17t-99 33.5t-83.5 56t-66.5 82.5t-42.5 114.5t-16 150v1041q0 17 13 29t30 12h334q17 0 29 -12t12 -29v-1041q0 -59 21 -80.5t77 -21.5h332q17 0 29 -12t12 -29v-250zM905 1913q0 -9 -8 -17l-258 -245
q-2 -2 -8 -7.5t-8 -7t-7.5 -4t-11.5 -3.5t-14 -1h-264q-19 0 -19 14q0 13 8 21l187 233q15 19 25 25t32 6h324q22 0 22 -14z" />
    <glyph glyph-name="lacute" unicode="&#x13a;" horiz-adv-x="620" 
d="M508 45q0 -18 -12 -31.5t-29 -13.5h-309q-17 0 -31 14t-14 31v1497q0 17 13.5 29t31.5 12h309q17 0 29 -12t12 -29v-1497zM680 1913q0 -9 -8 -17l-258 -245q-2 -2 -8 -7.5t-8 -7t-7.5 -4t-11.5 -3.5t-14 -1h-265q-18 0 -18 14q0 13 8 21l186 233q14 19 25 25t33 6h323
q23 0 23 -14z" />
    <glyph glyph-name="Lcommaaccent" unicode="&#x13b;" horiz-adv-x="1069" 
d="M1022 47q0 -35 -41 -41q-127 -24 -322 -24q-61 0 -112 4.5t-106.5 17t-99 33.5t-83.5 56t-66.5 82.5t-42.5 114.5t-16 150v1041q0 17 13 29t30 12h334q17 0 29 -12t12 -29v-1041q0 -59 21 -80.5t77 -21.5h332q17 0 29 -12t12 -29v-250zM748 -133q0 -2 -1 -4t-2 -5t-2 -5
l-114 -207q-21 -41 -51 -41h-224q-30 0 -30 26q0 10 6 33l49 189q9 38 41 38h299q29 0 29 -24z" />
    <glyph glyph-name="lcommaaccent" unicode="&#x13c;" horiz-adv-x="620" 
d="M508 45q0 -18 -12 -31.5t-29 -13.5h-309q-17 0 -31 14t-14 31v1497q0 17 13.5 29t31.5 12h309q17 0 29 -12t12 -29v-1497zM494 -133q0 -2 -1 -4t-2 -5t-2 -5l-114 -207q-21 -41 -51 -41h-224q-30 0 -30 26q0 10 6 33l49 189q9 38 41 38h299q29 0 29 -24z" />
    <glyph glyph-name="Lcaron" unicode="&#x13d;" horiz-adv-x="1069" 
d="M1022 47q0 -35 -41 -41q-127 -24 -322 -24q-61 0 -112 4.5t-106.5 17t-99 33.5t-83.5 56t-66.5 82.5t-42.5 114.5t-16 150v1041q0 17 13 29t30 12h334q17 0 29 -12t12 -29v-1041q0 -59 21 -80.5t77 -21.5h332q17 0 29 -12t12 -29v-250zM1186 1559q0 -5 -4 -17l-205 -471
q-8 -21 -16.5 -30t-22.5 -9h-223q-25 0 -25 23q0 10 2 16l133 471q8 39 41 39h295q25 0 25 -22z" />
    <glyph glyph-name="lcaron" unicode="&#x13e;" horiz-adv-x="1122" 
d="M508 45q0 -18 -12 -31.5t-29 -13.5h-309q-17 0 -31 14t-14 31v1497q0 17 13.5 29t31.5 12h309q17 0 29 -12t12 -29v-1497zM1122 1561q0 -5 -4 -17l-205 -471q-8 -21 -16.5 -30t-22.5 -9h-223q-24 0 -24 23q0 10 2 16l133 471q8 39 41 39h295q24 0 24 -22z" />
    <glyph glyph-name="Ldot" unicode="&#x13f;" horiz-adv-x="1069" 
d="M1022 47q0 -35 -41 -41q-127 -24 -322 -24q-61 0 -112 4.5t-106.5 17t-99 33.5t-83.5 56t-66.5 82.5t-42.5 114.5t-16 150v1041q0 17 13 29t30 12h334q17 0 29 -12t12 -29v-1041q0 -59 21 -80.5t77 -21.5h332q17 0 29 -12t12 -29v-250zM1022 635q0 -17 -13 -29t-30 -12
h-299q-17 0 -29 12t-12 29v223q0 17 12 29t29 12h299q17 0 30 -12t13 -29v-223z" />
    <glyph glyph-name="ldot" unicode="&#x140;" horiz-adv-x="1067" 
d="M508 45q0 -18 -12 -31.5t-29 -13.5h-309q-17 0 -31 14t-14 31v1497q0 17 13.5 29t31.5 12h309q17 0 29 -12t12 -29v-1497zM954 635q0 -17 -13 -29t-30 -12h-299q-17 0 -29 12t-12 29v223q0 17 12 29t29 12h299q17 0 30 -12t13 -29v-223z" />
    <glyph glyph-name="Lslash" unicode="&#x141;" horiz-adv-x="1069" 
d="M1022 47q0 -35 -41 -41q-130 -24 -322 -24q-58 0 -105.5 4t-98.5 15.5t-92 31t-79.5 50.5t-66.5 73t-49 101t-31 132q-2 2 -2 14v5v4l-69 -66q-10 -10 -19 -10q-10 0 -10 14v342v6q0 21 14 33l82 76v674q0 17 13 29t30 12h332q17 0 29 -12t12 -29v-297l123 112
q11 11 18 11q15 0 15 -19v-336q0 -22 -15 -37l-141 -129v-346q0 -59 22 -80.5t78 -21.5h332q17 0 29 -12t12 -29v-250z" />
    <glyph glyph-name="lslash" unicode="&#x142;" horiz-adv-x="620" 
d="M643 952q0 -23 -14 -37l-121 -112v-758q0 -17 -13 -31t-30 -14h-307q-17 0 -31 14t-14 31v399l-107 -98q-10 -10 -18 -10q-11 0 -11 14v342v6q0 20 15 33l121 111v700q0 17 13.5 29t31.5 12h307q17 0 30 -12t13 -29v-340l102 94q11 11 19 11q14 0 14 -19v-336z" />
    <glyph glyph-name="Nacute" unicode="&#x143;" horiz-adv-x="1527" 
d="M1395 76q0 -31 -22.5 -53.5t-53.5 -22.5h-275q-54 0 -86 55l-403 686q-10 17 -20 17q-11 0 -11 -19v-698q0 -17 -12 -29t-29 -12h-307q-17 0 -30 12t-13 29v1405q0 31 22.5 53.5t53.5 22.5h270q50 0 82 -60l416 -706q11 -19 18 -19q11 0 11 19v725q0 17 12 29t29 12h307
q17 0 29 -12t12 -29v-1405zM1141 1913q0 -9 -8 -17l-259 -245q-2 -2 -8 -7.5t-8 -7t-7.5 -4t-11.5 -3.5t-14 -1h-264q-18 0 -18 14q0 13 8 21l186 233q14 19 25 25t33 6h323q23 0 23 -14z" />
    <glyph glyph-name="nacute" unicode="&#x144;" horiz-adv-x="1292" 
d="M1180 45q0 -18 -11.5 -31.5t-29.5 -13.5h-308q-18 0 -31.5 13.5t-13.5 31.5v694q0 81 -28.5 112.5t-98.5 31.5q-72 0 -153 -43v-795q0 -18 -11.5 -31.5t-29.5 -13.5h-307q-18 0 -31.5 13.5t-13.5 31.5v1106q0 17 12 29t29 12h284q17 0 29 -12t12 -29v-47q81 61 152 82.5
t186 21.5q88 0 154 -26t105 -68t63 -105t32.5 -127t8.5 -143v-694zM1018 1581q0 -8 -8 -16l-258 -246q-2 -2 -7 -6.5t-7 -6t-6 -4t-7.5 -3.5t-9.5 -2t-13 -1h-264q-18 0 -18 15q0 12 8 20l186 234q14 18 25 24t33 6h323q23 0 23 -14z" />
    <glyph glyph-name="Ncommaaccent" unicode="&#x145;" horiz-adv-x="1527" 
d="M1395 76q0 -31 -22.5 -53.5t-53.5 -22.5h-275q-54 0 -86 55l-403 686q-10 17 -20 17q-11 0 -11 -19v-698q0 -17 -12 -29t-29 -12h-307q-17 0 -30 12t-13 29v1405q0 31 22.5 53.5t53.5 22.5h270q50 0 82 -60l416 -706q11 -19 18 -19q11 0 11 19v725q0 17 12 29t29 12h307
q17 0 29 -12t12 -29v-1405zM952 -133q0 -2 -4 -14l-114 -207q-21 -41 -52 -41h-223q-31 0 -31 26q0 6 7 33l49 189q9 38 41 38h299q28 0 28 -24z" />
    <glyph glyph-name="ncommaaccent" unicode="&#x146;" horiz-adv-x="1292" 
d="M1180 45q0 -18 -11.5 -31.5t-29.5 -13.5h-308q-18 0 -31.5 13.5t-13.5 31.5v694q0 81 -28.5 112.5t-98.5 31.5q-72 0 -153 -43v-795q0 -18 -11.5 -31.5t-29.5 -13.5h-307q-18 0 -31.5 13.5t-13.5 31.5v1106q0 17 12 29t29 12h284q17 0 29 -12t12 -29v-47q81 61 152 82.5
t186 21.5q88 0 154 -26t105 -68t63 -105t32.5 -127t8.5 -143v-694zM831 -133q0 -2 -4 -14l-114 -207q-21 -41 -51 -41h-224q-30 0 -30 26q0 10 6 33l49 189q9 38 41 38h299q28 0 28 -24z" />
    <glyph glyph-name="Ncaron" unicode="&#x147;" horiz-adv-x="1527" 
d="M1395 76q0 -31 -22.5 -53.5t-53.5 -22.5h-275q-54 0 -86 55l-403 686q-10 17 -20 17q-11 0 -11 -19v-698q0 -17 -12 -29t-29 -12h-307q-17 0 -30 12t-13 29v1405q0 31 22.5 53.5t53.5 22.5h270q50 0 82 -60l416 -706q11 -19 18 -19q11 0 11 19v725q0 17 12 29t29 12h307
q17 0 29 -12t12 -29v-1405zM1206 1913q0 -10 -8 -21l-182 -233q-14 -19 -25 -25t-33 -6h-389q-23 0 -33 6t-24 25l-182 233q-8 11 -8 21q0 14 18 14h260q14 0 22.5 -3t12.5 -6t14 -13l115 -117l115 117q10 10 14 13t12.5 6t22.5 3h260q18 0 18 -14z" />
    <glyph glyph-name="ncaron" unicode="&#x148;" horiz-adv-x="1292" 
d="M1180 45q0 -18 -11.5 -31.5t-29.5 -13.5h-308q-18 0 -31.5 13.5t-13.5 31.5v694q0 81 -28.5 112.5t-98.5 31.5q-72 0 -153 -43v-795q0 -18 -11.5 -31.5t-29.5 -13.5h-307q-18 0 -31.5 13.5t-13.5 31.5v1106q0 17 12 29t29 12h284q17 0 29 -12t12 -29v-47q81 61 152 82.5
t186 21.5q88 0 154 -26t105 -68t63 -105t32.5 -127t8.5 -143v-694zM1090 1581q0 -8 -9 -20l-182 -234q-15 -19 -25 -25t-32 -6h-389q-23 0 -33.5 6t-24.5 25l-182 234q-8 11 -8 20q0 14 18 14h260q14 0 22.5 -3t12.5 -6t14 -13l115 -117l115 117q10 10 14 13t12.5 6t22.5 3
h260q19 0 19 -14z" />
    <glyph glyph-name="napostrophe" unicode="&#x149;" horiz-adv-x="1716" 
d="M524 1561q0 -5 -4 -17l-168 -471q-8 -21 -16.5 -30t-22.5 -9h-252q-18 0 -18 21q0 12 2 18l119 471q11 39 41 39h295q24 0 24 -22zM1604 45q0 -18 -11.5 -31.5t-29.5 -13.5h-308q-18 0 -31.5 13.5t-13.5 31.5v694q0 81 -28.5 112.5t-98.5 31.5q-72 0 -153 -43v-795
q0 -18 -11.5 -31.5t-29.5 -13.5h-307q-18 0 -31.5 13.5t-13.5 31.5v1106q0 17 12 29t29 12h284q17 0 29 -12t12 -29v-47q81 61 152 82.5t186 21.5q88 0 154 -26t105 -68t63 -105t32.5 -127t8.5 -143v-694z" />
    <glyph glyph-name="Eng" unicode="&#x14a;" horiz-adv-x="1527" 
d="M1395 -23q0 -93 -17.5 -162.5t-48 -113.5t-77 -71.5t-99.5 -38.5t-121 -11q-94 0 -186 14q-23 3 -32 12.5t-9 28.5v224q0 17 12 29t29 12h76q32 0 43.5 18t11.5 59v52q-17 23 -19 26l-403 686q-10 17 -20 17q-11 0 -11 -19v-698q0 -17 -12 -29t-29 -12h-307q-17 0 -30 12
t-13 29v1405q0 31 22.5 53.5t53.5 22.5h270q50 0 82 -60l416 -706q11 -19 18 -19q11 0 11 19v725q0 17 12 29t29 12h307q17 0 29 -12t12 -29v-1504z" />
    <glyph glyph-name="eng" unicode="&#x14b;" horiz-adv-x="1292" 
d="M1180 -43q0 -108 -24.5 -183.5t-72 -117.5t-108 -60t-141.5 -18q-79 0 -193 19q-41 7 -41 43v190q0 17 12 29t31 12h88q34 0 43.5 19.5t9.5 66.5q0 538 2 782q0 81 -28.5 112.5t-98.5 31.5q-72 0 -153 -43v-795q0 -18 -11.5 -31.5t-29.5 -13.5h-307q-18 0 -31.5 13.5
t-13.5 31.5v1106q0 17 12 29t29 12h284q17 0 29 -12t12 -29v-47q81 61 152 82.5t186 21.5q88 0 154 -26t105 -68t63 -105t32.5 -127t8.5 -143v-782z" />
    <glyph glyph-name="Omacron" unicode="&#x14c;" horiz-adv-x="1449" 
d="M1354 655q0 -146 -33 -261.5t-90 -192t-138 -126.5t-172 -71.5t-196 -21.5t-196 21.5t-172 71.5t-138 126.5t-90 192t-33 261.5v211q0 146 33 262t90 192.5t138 127t172 72.5t196 22t196 -22t172 -72.5t138 -127t90 -192.5t33 -262v-211zM932 655v211q0 163 -49.5 236.5
t-157.5 73.5t-157.5 -73.5t-49.5 -236.5v-211q0 -163 49.5 -235t157.5 -72t157.5 72t49.5 235zM1114 1690q0 -17 -12 -29t-29 -12h-694q-17 0 -29 12t-12 29v180q0 17 12 28t29 11h694q17 0 29 -11t12 -28v-180z" />
    <glyph glyph-name="omacron" unicode="&#x14d;" horiz-adv-x="1239" 
d="M1157 537q0 -269 -139 -412t-397 -143t-398.5 143t-140.5 412v118q0 269 140.5 412t398.5 143t397 -143t139 -412v-118zM766 537v118q0 119 -36.5 172.5t-108.5 53.5q-73 0 -110.5 -53.5t-37.5 -172.5v-118q0 -228 148 -228q73 0 109 54t36 174zM1008 1360q0 -17 -12 -29
t-29 -12h-695q-17 0 -29 12t-12 29v180q0 17 12 28t29 11h695q17 0 29 -11t12 -28v-180z" />
    <glyph glyph-name="Obreve" unicode="&#x14e;" horiz-adv-x="1449" 
d="M1354 655q0 -146 -33 -261.5t-90 -192t-138 -126.5t-172 -71.5t-196 -21.5t-196 21.5t-172 71.5t-138 126.5t-90 192t-33 261.5v211q0 146 33 262t90 192.5t138 127t172 72.5t196 22t196 -22t172 -72.5t138 -127t90 -192.5t33 -262v-211zM932 655v211q0 163 -49.5 236.5
t-157.5 73.5t-157.5 -73.5t-49.5 -236.5v-211q0 -163 49.5 -235t157.5 -72t157.5 72t49.5 235zM1153 1933q0 -2 -4 -14q-56 -143 -162.5 -218t-259.5 -75t-259.5 75t-162.5 218q-4 12 -4 14q0 13 18 13h242q12 0 19 -4t9.5 -8.5t4.5 -14.5q16 -52 53 -73t80 -21t80 21t53 73
q2 10 4.5 14.5t9.5 8.5t19 4h242q18 0 18 -13z" />
    <glyph glyph-name="obreve" unicode="&#x14f;" horiz-adv-x="1239" 
d="M1157 537q0 -269 -139 -412t-397 -143t-398.5 143t-140.5 412v118q0 269 140.5 412t398.5 143t397 -143t139 -412v-118zM766 537v118q0 119 -36.5 172.5t-108.5 53.5q-73 0 -110.5 -53.5t-37.5 -172.5v-118q0 -228 148 -228q73 0 109 54t36 174zM1044 1604q0 -3 -4 -15
q-56 -143 -162.5 -218t-259.5 -75q-307 0 -421 293q-4 12 -4 15q0 12 18 12h242q17 0 22.5 -6t9.5 -21q16 -52 53 -73t80 -21t80.5 21t53.5 73q2 10 4.5 14.5t9 8.5t18.5 4h242q18 0 18 -12z" />
    <glyph glyph-name="Ohungarumlaut" unicode="&#x150;" horiz-adv-x="1449" 
d="M1354 655q0 -146 -33 -261.5t-90 -192t-138 -126.5t-172 -71.5t-196 -21.5t-196 21.5t-172 71.5t-138 126.5t-90 192t-33 261.5v211q0 146 33 262t90 192.5t138 127t172 72.5t196 22t196 -22t172 -72.5t138 -127t90 -192.5t33 -262v-211zM932 655v211q0 163 -49.5 236.5
t-157.5 73.5t-157.5 -73.5t-49.5 -236.5v-211q0 -163 49.5 -235t157.5 -72t157.5 72t49.5 235zM1360 1913q0 -9 -8 -17l-258 -245l-4.5 -4.5t-5 -4.5t-4.5 -3.5t-4.5 -3t-5 -2.5t-6 -2.5t-6 -1t-7.5 -1t-9 -0.5h-262q-18 0 -18 14q0 13 8 21l186 233q14 19 25 25t33 6h323
q23 0 23 -14zM836 1913q0 -8 -9 -17l-258 -245q-1 -1 -7 -6.5t-7 -6t-6 -4t-8.5 -4t-9.5 -1.5t-13 -1h-264q-18 0 -18 14q0 13 8 21l186 233q15 19 25 25t32 6h326q23 0 23 -14z" />
    <glyph glyph-name="ohungarumlaut" unicode="&#x151;" horiz-adv-x="1239" 
d="M1157 537q0 -269 -139 -412t-397 -143t-398.5 143t-140.5 412v118q0 269 140.5 412t398.5 143t397 -143t139 -412v-118zM766 537v118q0 119 -36.5 172.5t-108.5 53.5q-73 0 -110.5 -53.5t-37.5 -172.5v-118q0 -228 148 -228q73 0 109 54t36 174zM1253 1581q0 -8 -8 -16
l-258 -246q-1 -1 -7 -6.5t-7 -6t-6 -4t-8.5 -4t-9.5 -1.5t-13 -1h-262q-19 0 -19 15q0 11 9 20l186 234q14 18 24.5 24t32.5 6h324q22 0 22 -14zM729 1581q0 -8 -8 -16l-258 -246q-1 -1 -7 -6.5t-7 -6t-6 -4t-8.5 -4t-9.5 -1.5t-13 -1h-265q-18 0 -18 15q0 12 8 20l187 234
q14 18 24.5 24t32.5 6h326q22 0 22 -14z" />
    <glyph glyph-name="OE" unicode="&#x152;" horiz-adv-x="2015" 
d="M1907 47q0 -35 -41 -41q-187 -24 -406 -24q-251 0 -373 92q-149 -92 -362 -92q-105 0 -196 21.5t-172 71.5t-138 126.5t-90 192t-33 261.5v211q0 146 33 262t90 192.5t138 127t172 72.5t196 22q217 0 362 -94q122 92 375 92q217 0 404 -24q41 -6 41 -41v-250
q0 -17 -12 -29t-29 -12h-414q-49 0 -72 -18.5t-24 -63.5q-4 -2 -4 -84v-10v-2q0 -6 1 -38t1 -34h504q17 0 28.5 -12t11.5 -29v-242q0 -17 -11.5 -29t-28.5 -12h-504q0 -6 -1 -27.5t-1 -27.5v-115q0 -59 22 -80.5t78 -21.5h414q17 0 29 -12t12 -29v-250zM932 655v211
q0 163 -49.5 236.5t-157.5 73.5t-157.5 -73.5t-49.5 -236.5v-211q0 -163 49.5 -235t157.5 -72t157.5 72t49.5 235z" />
    <glyph glyph-name="oe" unicode="&#x153;" horiz-adv-x="1921" 
d="M1839 530q0 -20 -12 -32.5t-31 -12.5h-637v-8v-6q3 -82 47.5 -124t147.5 -42q223 0 389 17h8q37 0 37 -35v-185q0 -25 -8.5 -37.5t-32.5 -19.5q-192 -63 -444 -63q-211 0 -338 116q-137 -116 -344 -116q-258 0 -398.5 143t-140.5 412v118q0 269 140.5 412t398.5 143
q206 0 348 -120q138 120 346 120q260 0 392 -150t132 -407v-123zM1462 702l-2 7q0 196 -149 196q-72 0 -112 -51t-40 -141v-2v-9h303zM766 537v118q0 119 -36.5 172.5t-108.5 53.5q-73 0 -109.5 -53t-36.5 -173v-118q0 -228 146 -228q73 0 109 54t36 174z" />
    <glyph glyph-name="Racute" unicode="&#x154;" horiz-adv-x="1449" 
d="M1378 31q0 -13 -10 -22t-25 -9h-376q-4 0 -7 0.5t-6 2.5t-5.5 3t-5 4.5t-4 5t-3.5 6t-3 6t-3.5 6.5l-3.5 7l-256 491l-15 9q-10 0 -53 1t-53 1v-502q0 -17 -12 -29t-29 -12h-332q-17 0 -30 12t-13 29v1339q0 71 25.5 98t93.5 38q65 9 196.5 17.5t235.5 8.5
q118 0 213.5 -15.5t176.5 -51t135.5 -92t85 -141.5t30.5 -195v-33q0 -153 -71 -255.5t-179 -148.5l297 -557q6 -12 6 -22zM911 1012v35q0 145 -204 145q-7 0 -79.5 -2t-78.5 -2v-326q10 -2 149 -2q114 0 163.5 38.5t49.5 113.5zM1096 1913q0 -8 -9 -17l-258 -245
q-2 -2 -8 -7.5t-8 -7t-7.5 -4t-11.5 -3.5t-14 -1h-264q-18 0 -18 14q0 13 8 21l186 233q14 19 25 25t33 6h323q23 0 23 -14z" />
    <glyph glyph-name="racute" unicode="&#x155;" horiz-adv-x="854" 
d="M805 928q0 -16 -10 -28.5t-25 -12.5h-29q-150 0 -235 -47v-795q0 -18 -11.5 -31.5t-29.5 -13.5h-307q-18 0 -31.5 13.5t-13.5 31.5v1106q0 17 12 29t29 12h295q17 0 28.5 -12t11.5 -29v-49q63 66 119.5 86t132.5 20h23q17 0 29 -12t12 -29v-239zM797 1581q0 -7 -9 -16
l-258 -246q-2 -2 -8 -7.5t-8 -7t-7.5 -4t-11.5 -3.5t-14 -1h-264q-18 0 -18 15q0 12 8 20l186 234q14 18 25 24t33 6h323q23 0 23 -14z" />
    <glyph glyph-name="Rcommaaccent" unicode="&#x156;" horiz-adv-x="1449" 
d="M1378 31q0 -13 -10 -22t-25 -9h-376q-4 0 -7 0.5t-6 2.5t-5.5 3t-5 4.5t-4 5t-3.5 6t-3 6t-3.5 6.5l-3.5 7l-256 491l-15 9q-10 0 -53 1t-53 1v-502q0 -17 -12 -29t-29 -12h-332q-17 0 -30 12t-13 29v1339q0 71 25.5 98t93.5 38q65 9 196.5 17.5t235.5 8.5
q118 0 213.5 -15.5t176.5 -51t135.5 -92t85 -141.5t30.5 -195v-33q0 -153 -71 -255.5t-179 -148.5l297 -557q6 -12 6 -22zM911 1012v35q0 145 -204 145q-7 0 -79.5 -2t-78.5 -2v-326q10 -2 149 -2q114 0 163.5 38.5t49.5 113.5zM938 -133q0 -2 -4 -14l-115 -207
q-21 -41 -51 -41h-223q-31 0 -31 26q0 10 6 33l49 189q9 38 41 38h299q29 0 29 -24z" />
    <glyph glyph-name="rcommaaccent" unicode="&#x157;" horiz-adv-x="854" 
d="M805 928q0 -16 -10 -28.5t-25 -12.5h-29q-150 0 -235 -47v-795q0 -18 -11.5 -31.5t-29.5 -13.5h-307q-18 0 -31.5 13.5t-13.5 31.5v1106q0 17 12 29t29 12h295q17 0 28.5 -12t11.5 -29v-49q63 66 119.5 86t132.5 20h23q17 0 29 -12t12 -29v-239zM641 -133q0 -2 -4 -14
l-115 -207q-21 -41 -51 -41h-223q-31 0 -31 26q0 10 6 33l49 189q9 38 41 38h299q29 0 29 -24z" />
    <glyph glyph-name="Rcaron" unicode="&#x158;" horiz-adv-x="1449" 
d="M1378 31q0 -13 -10 -22t-25 -9h-376q-4 0 -7 0.5t-6 2.5t-5.5 3t-5 4.5t-4 5t-3.5 6t-3 6t-3.5 6.5l-3.5 7l-256 491l-15 9q-10 0 -53 1t-53 1v-502q0 -17 -12 -29t-29 -12h-332q-17 0 -30 12t-13 29v1339q0 71 25.5 98t93.5 38q65 9 196.5 17.5t235.5 8.5
q118 0 213.5 -15.5t176.5 -51t135.5 -92t85 -141.5t30.5 -195v-33q0 -153 -71 -255.5t-179 -148.5l297 -557q6 -12 6 -22zM911 1012v35q0 145 -204 145q-7 0 -79.5 -2t-78.5 -2v-326q10 -2 149 -2q114 0 163.5 38.5t49.5 113.5zM1167 1911q0 -10 -8 -21l-182 -233
q-15 -19 -25 -25t-32 -6h-390q-23 0 -33 6t-24 25l-182 233q-8 11 -8 21q0 14 18 14h260q14 0 22.5 -3t12.5 -6t14 -13l115 -117l115 117q10 10 14 13t12.5 6t22.5 3h260q18 0 18 -14z" />
    <glyph glyph-name="rcaron" unicode="&#x159;" horiz-adv-x="854" 
d="M805 928q0 -16 -10 -28.5t-25 -12.5h-29q-150 0 -235 -47v-795q0 -18 -11.5 -31.5t-29.5 -13.5h-307q-18 0 -31.5 13.5t-13.5 31.5v1106q0 17 12 29t29 12h295q17 0 28.5 -12t11.5 -29v-49q63 66 119.5 86t132.5 20h23q17 0 29 -12t12 -29v-239zM868 1581q0 -9 -8 -20
l-182 -234q-15 -19 -25 -25t-32 -6h-390q-23 0 -33 6t-24 25l-182 234q-8 11 -8 20q0 14 18 14h260q14 0 22.5 -3t12.5 -6t14 -13l115 -117l115 117q10 10 14 13t12.5 6t22.5 3h260q18 0 18 -14z" />
    <glyph glyph-name="Sacute" unicode="&#x15a;" horiz-adv-x="1243" 
d="M1163 451q0 -90 -32 -170.5t-98 -149t-181.5 -109t-267.5 -40.5q-228 0 -414 53q-43 13 -43 41v252q0 19 11.5 30t27.5 11h4q333 -31 416 -31q72 0 100.5 26t28.5 78q0 31 -20 53t-77 56l-294 174q-136 80 -190 180t-54 230q0 407 536 407q119 0 259.5 -16t205.5 -35
q37 -12 37 -39v-256q0 -16 -10 -27.5t-27 -11.5h-4q-11 1 -85 6.5t-127 9.5t-127.5 7.5t-125.5 3.5q-102 0 -102 -70q0 -28 20.5 -48.5t85.5 -55.5l277 -148q144 -77 207 -177.5t63 -233.5zM991 1911q0 -9 -8 -17l-258 -245q-2 -2 -8 -7.5t-8 -7t-7.5 -4t-11.5 -3.5t-14 -1
h-264q-19 0 -19 14q0 13 8 21l187 233q15 19 25 25t32 6h324q22 0 22 -14z" />
    <glyph glyph-name="sacute" unicode="&#x15b;" horiz-adv-x="1058" 
d="M979 348q0 -165 -118.5 -265.5t-356.5 -100.5q-208 0 -379 49q-39 9 -39 45v211q0 43 43 43h8q250 -33 352 -33q56 0 76.5 14t20.5 45q0 18 -13.5 33t-48.5 35l-250 135q-194 105 -194 324q0 159 112 243t338 84q192 0 377 -51q41 -10 41 -45v-217q0 -41 -35 -41h-6
q-243 33 -352 33q-40 0 -58 -10.5t-18 -34.5t45 -47l240 -129q215 -115 215 -320zM899 1581q0 -8 -8 -16l-258 -246q-2 -2 -8 -7.5t-8 -7t-7.5 -4t-11.5 -3.5t-14 -1h-265q-18 0 -18 15q0 12 8 20l187 234q14 18 24.5 24t32.5 6h324q22 0 22 -14z" />
    <glyph glyph-name="Scircumflex" unicode="&#x15c;" horiz-adv-x="1243" 
d="M1163 451q0 -90 -32 -170.5t-98 -149t-181.5 -109t-267.5 -40.5q-228 0 -414 53q-43 13 -43 41v252q0 19 11.5 30t27.5 11h4q333 -31 416 -31q72 0 100.5 26t28.5 78q0 31 -20 53t-77 56l-294 174q-136 80 -190 180t-54 230q0 407 536 407q119 0 259.5 -16t205.5 -35
q37 -12 37 -39v-256q0 -16 -10 -27.5t-27 -11.5h-4q-11 1 -85 6.5t-127 9.5t-127.5 7.5t-125.5 3.5q-102 0 -102 -70q0 -28 20.5 -48.5t85.5 -55.5l277 -148q144 -77 207 -177.5t63 -233.5zM1014 1642q0 -14 -19 -14h-254q-14 0 -23 3.5t-12 6t-14 13.5l-114 121l-115 -121
q-1 -1 -4.5 -5t-4.5 -4.5t-4 -3.5t-4.5 -3.5t-4.5 -2t-5 -2t-5.5 -1.5t-7.5 -1h-9h-254q-19 0 -19 14q0 9 9 21l176 233q15 19 25 25t32 6h389q23 0 33 -6t24 -25l177 -233q8 -11 8 -21z" />
    <glyph glyph-name="scircumflex" unicode="&#x15d;" horiz-adv-x="1058" 
d="M979 348q0 -165 -118.5 -265.5t-356.5 -100.5q-208 0 -379 49q-39 9 -39 45v211q0 43 43 43h8q250 -33 352 -33q56 0 76.5 14t20.5 45q0 18 -13.5 33t-48.5 35l-250 135q-194 105 -194 324q0 159 112 243t338 84q192 0 377 -51q41 -10 41 -45v-217q0 -41 -35 -41h-6
q-243 33 -352 33q-40 0 -58 -10.5t-18 -34.5t45 -47l240 -129q215 -115 215 -320zM954 1311q0 -15 -18 -15h-254q-14 0 -23 3.5t-12 6t-14 13.5l-115 121l-115 -121q-1 -1 -4.5 -5t-4.5 -4.5t-4 -3.5t-4.5 -3.5t-4.5 -2t-5 -2t-5.5 -1.5t-7.5 -1h-9h-254q-18 0 -18 15
q0 9 8 20l176 234q14 18 25 24t33 6h389q23 0 33 -5.5t24 -24.5l176 -234q8 -11 8 -20z" />
    <glyph glyph-name="uni015E" unicode="&#x15e;" horiz-adv-x="1243" 
d="M1163 451q0 -90 -32 -170.5t-98 -149t-181.5 -109t-267.5 -40.5q-228 0 -414 53q-43 13 -43 41v252q0 19 11.5 30t27.5 11h4q333 -31 416 -31q72 0 100.5 26t28.5 78q0 31 -20 53t-77 56l-294 174q-136 80 -190 180t-54 230q0 407 536 407q119 0 259.5 -16t205.5 -35
q37 -12 37 -39v-256q0 -16 -10 -27.5t-27 -11.5h-4q-11 1 -85 6.5t-127 9.5t-127.5 7.5t-125.5 3.5q-102 0 -102 -70q0 -28 20.5 -48.5t85.5 -55.5l277 -148q144 -77 207 -177.5t63 -233.5zM846 -121q0 -8 -8 -16l-258 -246l-4.5 -4.5t-5 -4.5t-4.5 -3.5t-4.5 -3t-5 -2.5
t-6 -2.5t-6 -1t-7.5 -1t-9 -0.5h-262q-18 0 -18 15q0 12 8 20l186 234q14 19 25 25t33 6h323q23 0 23 -15z" />
    <glyph glyph-name="uni015F" unicode="&#x15f;" horiz-adv-x="1058" 
d="M979 348q0 -165 -118.5 -265.5t-356.5 -100.5q-208 0 -379 49q-39 9 -39 45v211q0 43 43 43h8q250 -33 352 -33q56 0 76.5 14t20.5 45q0 18 -13.5 33t-48.5 35l-250 135q-194 105 -194 324q0 159 112 243t338 84q192 0 377 -51q41 -10 41 -45v-217q0 -41 -35 -41h-6
q-243 33 -352 33q-40 0 -58 -10.5t-18 -34.5t45 -47l240 -129q215 -115 215 -320zM750 -121q0 -7 -9 -16l-258 -246q-1 -1 -7 -6.5t-7 -6t-6 -4t-8.5 -4t-9.5 -1.5t-13 -1h-262q-18 0 -18 15q0 12 8 20l186 234q15 19 25 25t32 6h324q23 0 23 -15z" />
    <glyph glyph-name="Scaron" unicode="&#x160;" horiz-adv-x="1243" 
d="M1163 451q0 -90 -32 -170.5t-98 -149t-181.5 -109t-267.5 -40.5q-228 0 -414 53q-43 13 -43 41v252q0 19 11.5 30t27.5 11h4q333 -31 416 -31q72 0 100.5 26t28.5 78q0 31 -20 53t-77 56l-294 174q-136 80 -190 180t-54 230q0 407 536 407q119 0 259.5 -16t205.5 -35
q37 -12 37 -39v-256q0 -16 -10 -27.5t-27 -11.5h-4q-11 1 -85 6.5t-127 9.5t-127.5 7.5t-125.5 3.5q-102 0 -102 -70q0 -28 20.5 -48.5t85.5 -55.5l277 -148q144 -77 207 -177.5t63 -233.5zM1038 1913q0 -10 -8 -21l-182 -233q-15 -19 -25 -25t-32 -6h-390q-23 0 -33 6
t-24 25l-182 233q-8 11 -8 21q0 14 18 14h260q14 0 22.5 -3t12.5 -6t14 -13l115 -117l115 117q10 10 14 13t12.5 6t22.5 3h260q18 0 18 -14z" />
    <glyph glyph-name="scaron" unicode="&#x161;" horiz-adv-x="1058" 
d="M979 348q0 -165 -118.5 -265.5t-356.5 -100.5q-208 0 -379 49q-39 9 -39 45v211q0 43 43 43h8q250 -33 352 -33q56 0 76.5 14t20.5 45q0 18 -13.5 33t-48.5 35l-250 135q-194 105 -194 324q0 159 112 243t338 84q192 0 377 -51q41 -10 41 -45v-217q0 -41 -35 -41h-6
q-243 33 -352 33q-40 0 -58 -10.5t-18 -34.5t45 -47l240 -129q215 -115 215 -320zM977 1581q0 -9 -8 -20l-183 -234q-15 -19 -25 -25t-32 -6h-389q-23 0 -33 6t-24 25l-183 234q-8 11 -8 20q0 14 19 14h260q14 0 22.5 -3t12.5 -6t14 -13l115 -117l114 117q10 10 14 13
t12.5 6t22.5 3h260q19 0 19 -14z" />
    <glyph glyph-name="Tcommaaccent" unicode="&#x162;" horiz-adv-x="1216" 
d="M1167 1221q0 -17 -12.5 -28t-30.5 -11h-305v-1141q0 -17 -12 -29t-29 -12h-334q-17 0 -29 12t-12 29v1141h-311q-17 0 -29 11t-12 28v262q0 17 12 28t29 11h1032q18 0 30.5 -11t12.5 -28v-262zM797 -133q0 -2 -4 -14l-115 -207q-21 -41 -51 -41h-224q-30 0 -30 26
q0 10 6 33l49 189q9 38 41 38h299q29 0 29 -24z" />
    <glyph glyph-name="tcommaaccent" unicode="&#x163;" horiz-adv-x="884" 
d="M817 942q0 -17 -12 -29t-29 -12h-155v-551q0 -48 10 -63t47 -15h94q19 0 31 -11t12 -28v-192q0 -34 -43 -41q-108 -18 -182 -18q-88 0 -150 15.5t-112.5 55.5t-75.5 115t-25 186v547l-135 31q-18 5 -30.5 17t-12.5 28v172q0 18 12.5 30.5t30.5 12.5h135v166
q0 17 12.5 28.5t30.5 14.5l305 53h7q15 0 27 -12t12 -27v-223h155q17 0 29 -12t12 -29v-209zM684 -133q0 -2 -4 -14l-115 -207q-21 -41 -51 -41h-223q-31 0 -31 26q0 10 6 33l49 189q9 38 41 38h299q29 0 29 -24z" />
    <glyph glyph-name="Tcaron" unicode="&#x164;" horiz-adv-x="1216" 
d="M1167 1221q0 -17 -12.5 -28t-30.5 -11h-305v-1141q0 -17 -12 -29t-29 -12h-334q-17 0 -29 12t-12 29v1141h-311q-17 0 -29 11t-12 28v262q0 17 12 28t29 11h1032q18 0 30.5 -11t12.5 -28v-262zM1051 1911q0 -9 -9 -21l-182 -233q-15 -19 -25 -25t-32 -6h-389
q-23 0 -33.5 6t-24.5 25l-182 233q-8 11 -8 21q0 14 18 14h260q20 0 28 -4t22 -18l114 -117l115 117q10 10 14 13t12.5 6t22.5 3h260q19 0 19 -14z" />
    <glyph glyph-name="tcaron" unicode="&#x165;" horiz-adv-x="1386" 
d="M817 942q0 -17 -12 -29t-29 -12h-155v-551q0 -48 10 -63t47 -15h94q19 0 31 -11t12 -28v-192q0 -34 -43 -41q-108 -18 -182 -18q-88 0 -150 15.5t-112.5 55.5t-75.5 115t-25 186v547l-135 31q-18 5 -30.5 17t-12.5 28v172q0 18 12.5 30.5t30.5 12.5h135v166
q0 17 12.5 28.5t30.5 14.5l305 53h7q15 0 27 -12t12 -27v-223h155q17 0 29 -12t12 -29v-209zM1407 1561q0 -5 -4 -17l-205 -471q-8 -21 -16.5 -30t-22.5 -9h-223q-25 0 -25 23q0 10 2 16l134 471q8 39 40 39h295q25 0 25 -22z" />
    <glyph glyph-name="Tbar" unicode="&#x166;" horiz-adv-x="1216" 
d="M1124 608h-305v-567q0 -17 -12 -29t-29 -12h-334q-17 0 -29 12t-12 29v567h-311q-17 0 -29 11t-12 28v262q0 17 12 28t29 11h311v234h-311q-17 0 -29 11t-12 28v262q0 17 12 28t29 11h1032q18 0 30.5 -11t12.5 -28v-262q0 -17 -12.5 -28t-30.5 -11h-305v-234h305
q18 0 30.5 -11t12.5 -28v-262q0 -17 -12.5 -28t-30.5 -11z" />
    <glyph glyph-name="tbar" unicode="&#x167;" horiz-adv-x="884" 
d="M817 942q0 -17 -12 -29t-29 -12h-155v-119h155q17 0 29 -12t12 -29v-209q0 -17 -12 -28.5t-29 -11.5h-155v-142q0 -48 10 -63t47 -15h94q19 0 31 -11t12 -28v-192q0 -34 -43 -41q-108 -18 -182 -18q-88 0 -150 15.5t-112.5 55.5t-75.5 115t-25 186v138l-135 30
q-18 5 -30.5 17t-12.5 28v172q0 18 12.5 30.5t30.5 12.5h135v119l-135 31q-18 5 -30.5 17t-12.5 28v172q0 18 12.5 30.5t30.5 12.5h135v166q0 17 12.5 28.5t30.5 14.5l305 53h7q15 0 27 -12t12 -27v-223h155q17 0 29 -12t12 -29v-209z" />
    <glyph glyph-name="Utilde" unicode="&#x168;" horiz-adv-x="1497" 
d="M1368 578q0 -104 -18 -189t-48.5 -146t-76.5 -107.5t-97.5 -75.5t-116 -46.5t-127.5 -24.5t-136 -7q-105 0 -189 14t-167 53.5t-138.5 104t-90 172.5t-34.5 252v903q0 17 13 29t30 12h332q17 0 29 -12t12 -29v-903q0 -138 46.5 -192t156.5 -54q111 0 157.5 54.5
t46.5 191.5v903q0 17 12 29t29 12h332q17 0 30 -12t13 -29v-903zM1182 1876q0 -139 -70 -199.5t-203 -60.5q-31 0 -74.5 12t-74.5 31l-82 49q-50 31 -80 31q-39 0 -39 -41v-35q0 -35 -33 -35h-172q-35 0 -35 35v35q0 260 275 260q79 0 147 -41l84 -49q61 -33 80 -33
q21 0 29 9.5t8 33.5v35q0 35 35 35h170q35 0 35 -35v-37z" />
    <glyph glyph-name="utilde" unicode="&#x169;" horiz-adv-x="1292" 
d="M1180 41q0 -17 -12 -29t-29 -12h-285q-17 0 -29 12t-12 29v47q-143 -106 -324 -106q-376 0 -376 471v694q0 18 11.5 31.5t29.5 13.5h307q18 0 31.5 -13.5t13.5 -31.5v-694q0 -83 26 -114.5t101 -31.5q68 0 153 45v795q0 18 11.5 31.5t29.5 13.5h308q18 0 31.5 -13.5
t13.5 -31.5v-1106zM1075 1544q0 -139 -69.5 -199.5t-202.5 -60.5q-31 0 -75 12t-75 31l-82 49q-50 31 -79 31q-39 0 -39 -41v-35q0 -35 -33 -35h-172q-35 0 -35 35v35q0 260 274 260q32 0 74 -11t74 -30l84 -49q61 -33 80 -33q21 0 29 9.5t8 33.5v35q0 35 34 35h170
q35 0 35 -35v-37z" />
    <glyph glyph-name="Umacron" unicode="&#x16a;" horiz-adv-x="1497" 
d="M1368 578q0 -104 -18 -189t-48.5 -146t-76.5 -107.5t-97.5 -75.5t-116 -46.5t-127.5 -24.5t-136 -7q-105 0 -189 14t-167 53.5t-138.5 104t-90 172.5t-34.5 252v903q0 17 13 29t30 12h332q17 0 29 -12t12 -29v-903q0 -138 46.5 -192t156.5 -54q111 0 157.5 54.5
t46.5 191.5v903q0 17 12 29t29 12h332q17 0 30 -12t13 -29v-903zM1137 1690q0 -17 -12 -29t-29 -12h-695q-17 0 -29 12t-12 29v180q0 17 12 28t29 11h695q17 0 29 -11t12 -28v-180z" />
    <glyph glyph-name="umacron" unicode="&#x16b;" horiz-adv-x="1292" 
d="M1180 41q0 -17 -12 -29t-29 -12h-285q-17 0 -29 12t-12 29v47q-143 -106 -324 -106q-376 0 -376 471v694q0 18 11.5 31.5t29.5 13.5h307q18 0 31.5 -13.5t13.5 -31.5v-694q0 -83 26 -114.5t101 -31.5q68 0 153 45v795q0 18 11.5 31.5t29.5 13.5h308q18 0 31.5 -13.5
t13.5 -31.5v-1106zM1034 1360q0 -17 -12 -29t-29 -12h-694q-17 0 -29 12t-12 29v180q0 17 12 28t29 11h694q17 0 29 -11t12 -28v-180z" />
    <glyph glyph-name="Ubreve" unicode="&#x16c;" horiz-adv-x="1497" 
d="M1368 578q0 -104 -18 -189t-48.5 -146t-76.5 -107.5t-97.5 -75.5t-116 -46.5t-127.5 -24.5t-136 -7q-105 0 -189 14t-167 53.5t-138.5 104t-90 172.5t-34.5 252v903q0 17 13 29t30 12h332q17 0 29 -12t12 -29v-903q0 -138 46.5 -192t156.5 -54q111 0 157.5 54.5
t46.5 191.5v903q0 17 12 29t29 12h332q17 0 30 -12t13 -29v-903zM1171 1935q0 -2 -4 -14q-56 -143 -162.5 -218t-259.5 -75q-307 0 -421 293q-1 2 -2 5t-2 5t-1 4q0 13 19 13h242q17 0 22.5 -6t9.5 -21q16 -52 53 -73t80 -21t80.5 21t53.5 73q2 10 4.5 14.5t9 8.5t18.5 4
h242q18 0 18 -13z" />
    <glyph glyph-name="ubreve" unicode="&#x16d;" horiz-adv-x="1292" 
d="M1180 41q0 -17 -12 -29t-29 -12h-285q-17 0 -29 12t-12 29v47q-143 -106 -324 -106q-376 0 -376 471v694q0 18 11.5 31.5t29.5 13.5h307q18 0 31.5 -13.5t13.5 -31.5v-694q0 -83 26 -114.5t101 -31.5q68 0 153 45v795q0 18 11.5 31.5t29.5 13.5h308q18 0 31.5 -13.5
t13.5 -31.5v-1106zM1067 1604q0 -3 -4 -15q-56 -143 -162.5 -218t-259.5 -75t-259.5 75t-162.5 218q-4 12 -4 15q0 12 18 12h242q12 0 19 -4t9.5 -8.5t4.5 -14.5q16 -52 53 -73t80 -21t80 21t53 73q2 10 4.5 14.5t9.5 8.5t19 4h242q18 0 18 -12z" />
    <glyph glyph-name="Uring" unicode="&#x16e;" horiz-adv-x="1497" 
d="M1368 578q0 -104 -18 -189t-48.5 -146t-76.5 -107.5t-97.5 -75.5t-116 -46.5t-127.5 -24.5t-136 -7q-105 0 -189 14t-167 53.5t-138.5 104t-90 172.5t-34.5 252v903q0 17 13 29t30 12h332q17 0 29 -12t12 -29v-903q0 -138 46.5 -192t156.5 -54q111 0 157.5 54.5
t46.5 191.5v903q0 17 12 29t29 12h332q17 0 30 -12t13 -29v-903zM995 1794q0 -103 -73.5 -176.5t-176.5 -73.5q-102 0 -172.5 73.5t-70.5 176.5t70.5 176.5t172.5 73.5q103 0 176.5 -73.5t73.5 -176.5zM831 1796q0 34 -24.5 59t-58.5 25t-58 -24.5t-24 -59.5t24 -61.5
t58 -26.5q33 0 58 27t25 61z" />
    <glyph glyph-name="uring" unicode="&#x16f;" horiz-adv-x="1292" 
d="M1180 41q0 -17 -12 -29t-29 -12h-285q-17 0 -29 12t-12 29v47q-143 -106 -324 -106q-376 0 -376 471v694q0 18 11.5 31.5t29.5 13.5h307q18 0 31.5 -13.5t13.5 -31.5v-694q0 -83 26 -114.5t101 -31.5q68 0 153 45v795q0 18 11.5 31.5t29.5 13.5h308q18 0 31.5 -13.5
t13.5 -31.5v-1106zM893 1464q0 -103 -73.5 -176.5t-176.5 -73.5q-102 0 -173 73.5t-71 176.5t71 176.5t173 73.5q103 0 176.5 -73.5t73.5 -176.5zM729 1466q0 34 -25 59t-59 25t-58 -24.5t-24 -59.5t24 -61.5t58 -26.5q33 0 58.5 27t25.5 61z" />
    <glyph glyph-name="Uhungarumlaut" unicode="&#x170;" horiz-adv-x="1497" 
d="M1368 578q0 -104 -18 -189t-48.5 -146t-76.5 -107.5t-97.5 -75.5t-116 -46.5t-127.5 -24.5t-136 -7q-105 0 -189 14t-167 53.5t-138.5 104t-90 172.5t-34.5 252v903q0 17 13 29t30 12h332q17 0 29 -12t12 -29v-903q0 -138 46.5 -192t156.5 -54q111 0 157.5 54.5
t46.5 191.5v903q0 17 12 29t29 12h332q17 0 30 -12t13 -29v-903zM1382 1911q0 -9 -8 -17l-258 -245q-1 -1 -7 -6.5t-7 -6t-6 -4t-8.5 -4t-9.5 -1.5t-13 -1h-262q-19 0 -19 14q0 12 9 21l186 233q15 19 25 25t32 6h324q22 0 22 -14zM858 1911q0 -9 -8 -17l-258 -245
q-1 -1 -7 -6.5t-7 -6t-6 -4t-8.5 -4t-9.5 -1.5t-13 -1h-265q-18 0 -18 14q0 13 8 21l187 233q15 19 25 25t32 6h326q22 0 22 -14z" />
    <glyph glyph-name="uhungarumlaut" unicode="&#x171;" horiz-adv-x="1292" 
d="M1180 41q0 -17 -12 -29t-29 -12h-285q-17 0 -29 12t-12 29v47q-143 -106 -324 -106q-376 0 -376 471v694q0 18 11.5 31.5t29.5 13.5h307q18 0 31.5 -13.5t13.5 -31.5v-694q0 -83 26 -114.5t101 -31.5q68 0 153 45v795q0 18 11.5 31.5t29.5 13.5h308q18 0 31.5 -13.5
t13.5 -31.5v-1106zM1280 1581q0 -8 -8 -16l-258 -246q-1 -1 -7 -6.5t-7 -6t-6 -4t-8.5 -4t-9.5 -1.5t-13 -1h-263q-18 0 -18 15q0 12 8 20l187 234q14 18 24.5 24t32.5 6h323q23 0 23 -14zM756 1581q0 -8 -8 -16l-259 -246q-1 -1 -7 -6.5t-7 -6t-6 -4t-8.5 -4t-9.5 -1.5
t-13 -1h-264q-18 0 -18 15q0 12 8 20l186 234q14 18 25 24t33 6h325q23 0 23 -14z" />
    <glyph glyph-name="Uogonek" unicode="&#x172;" horiz-adv-x="1497" 
d="M1368 578q-2 -142 -33.5 -245.5t-84 -169t-134.5 -118.5l-166 -106q-26 -16 -39.5 -30t-13.5 -32q0 -30 19.5 -42.5t64.5 -12.5q29 0 79 9t58 9q13 0 17 -4.5t4 -19.5v-156q0 -20 -23 -31q-32 -13 -100 -27t-142 -14q-55 0 -102 10t-87.5 32t-63.5 62t-23 95
q0 65 25 110.5t84 86.5q-98 3 -178 19t-156.5 57t-128.5 105.5t-83.5 169.5t-31.5 243v903q0 17 13 29t30 12h332q17 0 29 -12t12 -29v-903q0 -138 46.5 -192t156.5 -54q111 0 157.5 54.5t46.5 191.5v903q0 17 12 29t29 12h332q17 0 30 -12t13 -29v-903z" />
    <glyph glyph-name="uogonek" unicode="&#x173;" horiz-adv-x="1292" 
d="M813 18v70q-143 -106 -324 -106q-376 0 -376 471v694q0 18 11.5 31.5t29.5 13.5h307q18 0 31.5 -13.5t13.5 -31.5v-694q0 -83 26 -114.5t101 -31.5q68 0 153 45v795q0 18 11.5 31.5t29.5 13.5h308q18 0 31.5 -13.5t13.5 -31.5v-1096q0 -24 -6 -33t-27 -18l-152 -61
q-53 -21 -53 -62q0 -30 19.5 -42.5t64.5 -12.5q29 0 79 9t58 9q13 0 17 -4.5t4 -19.5v-156q0 -20 -23 -31q-32 -13 -99.5 -27t-141.5 -14q-55 0 -102.5 10t-88 32t-63.5 62t-23 95q0 72 33 121.5t112 95.5z" />
    <glyph glyph-name="Wcircumflex" unicode="&#x174;" horiz-adv-x="1878" 
d="M1835 1499v-4l-180 -1321q-14 -102 -52.5 -138t-111.5 -36h-211q-67 0 -103.5 35t-62.5 123l-151 516q-3 12 -6 15t-11 3t-11.5 -3.5t-6.5 -14.5l-152 -516q-26 -88 -62.5 -123t-103.5 -35h-211q-73 0 -111 36t-52 138l-181 1321v4q0 23 33 23h348q12 0 21 -11t10 -28
l100 -908q3 -26 15 -26q10 0 16 26l119 414q13 49 42 68.5t79 19.5h215q50 0 79 -19.5t42 -68.5l118 -414q6 -26 17 -26t14 26l100 908q1 17 10 28t21 11h348q33 0 33 -23zM1380 1642q0 -14 -18 -14h-254q-14 0 -23 3.5t-12 6t-14 13.5l-115 121l-115 -121q-1 -1 -4.5 -5
t-4.5 -4.5t-4 -3.5t-4.5 -3.5t-4.5 -2t-5 -2t-5.5 -1.5t-7.5 -1h-9h-254q-18 0 -18 14q0 10 8 21l176 233q14 19 25 25t33 6h389q23 0 33 -6t24 -25l176 -233q8 -11 8 -21z" />
    <glyph glyph-name="wcircumflex" unicode="&#x175;" horiz-adv-x="1783" 
d="M1733 1161v-6l-181 -973q-18 -97 -60.5 -139.5t-113.5 -42.5h-186q-66 0 -107 44t-67 132l-111 375q-3 14 -14 14t-14 -14l-111 -375q-26 -88 -66.5 -132t-107.5 -44h-186q-71 0 -114 42.5t-61 139.5l-180 973v6q0 12 9.5 21.5t21.5 9.5h328q28 0 34 -35l101 -702
q3 -17 14 -17t17 17l118 419q12 42 36.5 63t78.5 21h164q54 0 78.5 -21t36.5 -63l118 -419q6 -17 17 -17t14 17l100 702q6 35 35 35h328q12 0 21.5 -9.5t9.5 -21.5zM1329 1311q0 -15 -18 -15h-254q-14 0 -23 3.5t-12 6t-14 13.5l-115 121l-115 -121q-1 -1 -4.5 -5t-4.5 -4.5
t-4 -3.5t-4.5 -3.5t-4.5 -2t-5 -2t-5.5 -1.5t-7.5 -1h-9h-254q-18 0 -18 15q0 9 8 20l176 234q14 18 24.5 24t32.5 6h389q23 0 33.5 -5.5t24.5 -24.5l176 -234q8 -11 8 -20z" />
    <glyph glyph-name="Ycircumflex" unicode="&#x176;" horiz-adv-x="1396" 
d="M1356 1495q0 -4 -4 -16l-301 -707q-60 -140 -146 -176v-555q0 -17 -12 -29t-29 -12h-334q-17 0 -27.5 11.5t-10.5 29.5v555q-86 36 -146 176l-301 707q-4 12 -4 16q0 11 8 19t21 8h370q25 0 41 -39l197 -543q8 -20 20 -20q14 0 21 20l196 543q16 39 41 39h371q13 0 21 -8
t8 -19zM1135 1642q0 -14 -19 -14h-254q-14 0 -23 3.5t-12 6t-14 13.5l-115 121l-114 -121q-1 -1 -4.5 -5t-4.5 -4.5t-4 -3.5t-4.5 -3.5t-4.5 -2t-5 -2t-5.5 -1.5t-7.5 -1h-9h-254q-19 0 -19 14q0 10 8 21l176 233q14 19 25 25t33 6h389q23 0 33 -6t24 -25l176 -233
q9 -12 9 -21z" />
    <glyph glyph-name="ycircumflex" unicode="&#x177;" horiz-adv-x="1271" 
d="M1237 1155q0 -1 -1 -4t-1 -4l-348 -1217q-20 -71 -42.5 -121t-59 -95t-86 -72t-122 -42.5t-167.5 -15.5q-64 0 -150.5 11t-126.5 26q-16 5 -23.5 8.5t-15.5 11.5t-8 19v199q0 17 13 30t32 13h2q13 -1 124 -9t157 -8q91 0 110 78l17 68h-27q-32 0 -51.5 3t-43.5 14.5
t-41 34t-35.5 62.5t-35.5 99l-270 903q-2 4 -2 14q0 31 45 31h334q34 0 41 -41l161 -705q8 -34 23 -34h16l162 741q7 39 43 39h334q16 0 29.5 -11t13.5 -26zM1079 1311q0 -15 -18 -15h-254q-14 0 -23 3.5t-12 6t-14 13.5l-115 121l-115 -121q-1 -1 -4.5 -5t-4.5 -4.5
t-4 -3.5t-4.5 -3.5t-4.5 -2t-5 -2t-5.5 -1.5t-7.5 -1h-9h-254q-18 0 -18 15q0 9 8 20l176 234q14 18 25 24t33 6h389q23 0 33 -5.5t24 -24.5l176 -234q8 -11 8 -20z" />
    <glyph glyph-name="Ydieresis" unicode="&#x178;" horiz-adv-x="1396" 
d="M1356 1495q0 -4 -4 -16l-301 -707q-60 -140 -146 -176v-555q0 -17 -12 -29t-29 -12h-334q-17 0 -27.5 11.5t-10.5 29.5v555q-86 36 -146 176l-301 707q-4 12 -4 16q0 11 8 19t21 8h370q25 0 41 -39l197 -543q8 -20 20 -20q14 0 21 20l196 543q16 39 41 39h371q13 0 21 -8
t8 -19zM1118 1671q0 -17 -14.5 -29t-32.5 -12h-237q-18 0 -32 12t-14 29v201q0 17 14 29t32 12h237q18 0 32.5 -12t14.5 -29v-201zM639 1671q0 -17 -13.5 -29t-31.5 -12h-238q-18 0 -32.5 12t-14.5 29v201q0 17 14.5 29t32.5 12h238q18 0 31.5 -12t13.5 -29v-201z" />
    <glyph glyph-name="Zacute" unicode="&#x179;" horiz-adv-x="1294" 
d="M1182 41q0 -17 -12 -29t-29 -12h-965q-27 0 -45 14t-18 39v215q0 42 37 101l489 755q8 13 8 25q0 14 -22 14h-449q-17 0 -29 12t-12 29v279q0 17 12 28t29 11h934q53 0 53 -33v-258q0 -50 -65 -150l-447 -684q-8 -11 -8 -22q0 -17 25 -17h473q17 0 29 -11t12 -28v-278z
M1018 1911q0 -9 -8 -17l-258 -245q-2 -2 -7 -6.5t-7 -6t-6 -4t-7.5 -3.5t-9.5 -2t-13 -1h-264q-18 0 -18 14q0 13 8 21l186 233q14 19 25 25t33 6h323q23 0 23 -14z" />
    <glyph glyph-name="zacute" unicode="&#x17a;" horiz-adv-x="1110" 
d="M1014 41q0 -17 -12 -29t-29 -12h-821q-23 0 -39.5 16t-16.5 39v172q0 49 31 90l391 531q8 11 8 18q0 13 -18 13h-365q-32 0 -32 32v240q0 17 12 29t29 12h804q23 0 38.5 -16t15.5 -39v-187q0 -32 -7 -49.5t-28 -44.5l-373 -506q-8 -12 -8 -18q0 -13 18 -13h365
q16 0 26.5 -8.5t10.5 -23.5v-246zM926 1581q0 -8 -8 -16l-259 -246q-2 -2 -8 -7.5t-8 -7t-7.5 -4t-11.5 -3.5t-14 -1h-264q-18 0 -18 15q0 12 8 20l186 234q14 18 25 24t33 6h323q23 0 23 -14z" />
    <glyph glyph-name="Zdotaccent" unicode="&#x17b;" horiz-adv-x="1294" 
d="M1182 41q0 -17 -12 -29t-29 -12h-965q-27 0 -45 14t-18 39v215q0 42 37 101l489 755q8 13 8 25q0 14 -22 14h-449q-17 0 -29 12t-12 29v279q0 17 12 28t29 11h934q53 0 53 -33v-258q0 -50 -65 -150l-447 -684q-8 -11 -8 -22q0 -17 25 -17h473q17 0 29 -11t12 -28v-278z
M840 1663q0 -17 -13 -29t-30 -12h-299q-17 0 -29 12t-12 29v223q0 17 12 29t29 12h299q17 0 30 -12t13 -29v-223z" />
    <glyph glyph-name="zdotaccent" unicode="&#x17c;" horiz-adv-x="1110" 
d="M1014 41q0 -17 -12 -29t-29 -12h-821q-23 0 -39.5 16t-16.5 39v172q0 49 31 90l391 531q8 11 8 18q0 13 -18 13h-365q-32 0 -32 32v240q0 17 12 29t29 12h804q23 0 38.5 -16t15.5 -39v-187q0 -32 -7 -49.5t-28 -44.5l-373 -506q-8 -12 -8 -18q0 -13 18 -13h365
q16 0 26.5 -8.5t10.5 -23.5v-246zM748 1333q0 -17 -13 -29t-30 -12h-299q-17 0 -29 12t-12 29v223q0 17 12 29t29 12h299q17 0 30 -12t13 -29v-223z" />
    <glyph glyph-name="Zcaron" unicode="&#x17d;" horiz-adv-x="1294" 
d="M1182 41q0 -17 -12 -29t-29 -12h-965q-27 0 -45 14t-18 39v215q0 42 37 101l489 755q8 13 8 25q0 14 -22 14h-449q-17 0 -29 12t-12 29v279q0 17 12 28t29 11h934q53 0 53 -33v-258q0 -50 -65 -150l-447 -684q-8 -11 -8 -22q0 -17 25 -17h473q17 0 29 -11t12 -28v-278z
M1100 1913q0 -10 -8 -21l-183 -233q-15 -19 -25 -25t-32 -6h-389q-23 0 -33 6t-24 25l-183 233q-8 11 -8 21q0 14 18 14h261q14 0 22.5 -3t12.5 -6t14 -13l114 -117l115 117q10 10 14 13t12.5 6t22.5 3h260q19 0 19 -14z" />
    <glyph glyph-name="zcaron" unicode="&#x17e;" horiz-adv-x="1110" 
d="M1014 41q0 -17 -12 -29t-29 -12h-821q-23 0 -39.5 16t-16.5 39v172q0 49 31 90l391 531q8 11 8 18q0 13 -18 13h-365q-32 0 -32 32v240q0 17 12 29t29 12h804q23 0 38.5 -16t15.5 -39v-187q0 -32 -7 -49.5t-28 -44.5l-373 -506q-8 -12 -8 -18q0 -13 18 -13h365
q16 0 26.5 -8.5t10.5 -23.5v-246zM1012 1581q0 -9 -8 -20l-183 -234q-15 -19 -25 -25t-32 -6h-389q-23 0 -33.5 6t-24.5 25l-182 234q-8 11 -8 20q0 14 18 14h261q19 0 27.5 -4t21.5 -18l114 -117l115 117q10 10 14.5 13.5t13 6t21.5 2.5h260q19 0 19 -14z" />
    <glyph glyph-name="florin" unicode="&#x192;" 
d="M1311 1569v-8l-27 -189q-3 -18 -17 -29.5t-32 -11.5h-139q-74 0 -97.5 -16.5t-31.5 -67.5l-41 -295h266q17 0 27 -9.5t10 -24.5v-7l-29 -211q-3 -18 -17 -30.5t-32 -12.5h-266l-90 -641q-12 -87 -43.5 -153t-75.5 -107.5t-103 -67.5t-120 -36t-134 -10q-119 0 -227 20
q-37 8 -37 33v8l25 188q1 17 15.5 28t33.5 11h141q74 0 96.5 17t30.5 69l90 641h-256q-17 0 -26.5 10.5t-9.5 26.5v6l28 211q3 18 17 29.5t32 11.5h258l41 295q12 87 43.5 153t74.5 107.5t101.5 67.5t119.5 36.5t134 10.5q122 0 230 -20q37 -8 37 -33z" />
    <glyph glyph-name="AEacute" unicode="&#x1fc;" horiz-adv-x="1931" 
d="M1823 47q0 -35 -41 -41q-187 -24 -359 -24q-77 0 -139 7t-127 29t-112 58.5t-82.5 99t-49.5 146.5h-385l-57 -283q-3 -16 -15 -27.5t-26 -11.5h-356q-15 0 -25 9.5t-10 23.5q0 2 1 5t1 5l274 1243q13 59 40.5 102t62 68.5t83.5 40.5t97.5 20t112.5 5h1071q41 0 41 -41
v-264q0 -17 -12 -29t-29 -12h-467v-242h459q17 0 29 -12t12 -29v-242q0 -17 -12 -29t-29 -12h-459v-170q0 -59 22 -80.5t78 -21.5h367q17 0 29 -12t12 -29v-250zM899 651v529h-182q-14 0 -20 -8t-11 -29l-98 -492h311zM1550 1913q0 -9 -8 -17l-258 -245q-2 -2 -8 -7.5t-8 -7
t-7.5 -4t-11.5 -3.5t-14 -1h-264q-19 0 -19 14q0 12 9 21l186 233q15 19 25 25t32 6h324q22 0 22 -14z" />
    <glyph glyph-name="aeacute" unicode="&#x1fd;" horiz-adv-x="1826" 
d="M1745 537q0 -17 -14 -30t-31 -13h-627v-70q0 -63 52 -90t155 -27q181 0 371 15h8q19 0 27 -8t8 -27v-181q0 -25 -8 -36.5t-31 -20.5q-183 -67 -436 -67q-148 0 -261 77q-184 -77 -356 -77q-263 0 -392.5 93t-129.5 285v23q0 72 25.5 128t71 93t113.5 61t147.5 34
t178.5 10h68v30q0 83 -33 114.5t-98 31.5q-209 0 -346 -15h-4q-17 0 -27 11.5t-10 29.5v197q0 38 41 51q60 18 160.5 34.5t185.5 16.5q220 0 352 -108q133 108 320 108q262 0 391 -145.5t129 -400.5v-127zM1368 698v29q0 182 -147 182q-73 0 -110.5 -49t-37.5 -133v-29h295z
M696 268v236h-80q-165 0 -165 -121v-23q0 -61 38 -83.5t113 -22.5q45 0 94 14zM1327 1581q0 -8 -8 -16l-258 -246q-2 -2 -8 -7.5t-8 -7t-7.5 -4t-11.5 -3.5t-14 -1h-264q-19 0 -19 15q0 12 8 20l187 234q14 18 24.5 24t32.5 6h324q22 0 22 -14z" />
    <glyph glyph-name="Oslashacute" unicode="&#x1fe;" horiz-adv-x="1449" 
d="M1419 1520q0 -8 -6 -17l-160 -219q101 -164 101 -418v-211q0 -146 -33 -261.5t-90 -192t-138 -126.5t-172 -71.5t-196 -21.5q-206 0 -348 81l-29 -43q-28 -38 -53 -38h-242q-22 0 -22 22q0 7 6 16l158 222q-99 166 -99 413v211q0 146 33 262t90 192.5t138 127t172 72.5
t196 22q202 0 346 -82l31 43q29 39 53 39h242q22 0 22 -22zM844 1145q-42 31 -119 31q-108 0 -157.5 -73.5t-49.5 -236.5v-174zM932 655v179l-326 -453q44 -33 119 -33q108 0 157.5 72t49.5 235zM1139 1913q0 -8 -9 -17l-258 -245q-2 -2 -8 -7.5t-8 -7t-7.5 -4t-11.5 -3.5
t-14 -1h-264q-18 0 -18 14q0 13 8 21l186 233q14 19 25 25t33 6h323q23 0 23 -14z" />
    <glyph glyph-name="oslashacute" unicode="&#x1ff;" horiz-adv-x="1239" 
d="M1178 1245q0 -10 -9 -22l-131 -179q119 -140 119 -389v-118q0 -269 -139 -412t-397 -143q-183 0 -312 75l-80 -108q-16 -21 -32 -21h-119q-17 0 -17 17q0 10 9 22l133 180q-121 143 -121 390v118q0 269 140.5 412t398.5 143q185 0 311 -75l78 106q16 21 32 21h119
q17 0 17 -17zM717 844q-37 37 -96 37q-73 0 -110.5 -53.5t-37.5 -172.5v-118v-15v-8zM766 670v6l-244 -328q36 -39 99 -39q73 0 109 54t36 174v118v15zM1016 1581q0 -8 -8 -16l-258 -246q-2 -2 -7 -6.5t-7 -6t-6 -4t-7.5 -3.5t-9.5 -2t-13 -1h-264q-18 0 -18 15q0 12 8 20
l186 234q14 18 25 24t33 6h323q23 0 23 -14z" />
    <glyph glyph-name="uni0218" unicode="&#x218;" horiz-adv-x="1243" 
d="M1163 451q0 -90 -32 -170.5t-98 -149t-181.5 -109t-267.5 -40.5q-228 0 -414 53q-43 13 -43 41v252q0 19 11.5 30t27.5 11h4q333 -31 416 -31q72 0 100.5 26t28.5 78q0 31 -20 53t-77 56l-294 174q-136 80 -190 180t-54 230q0 407 536 407q119 0 259.5 -16t205.5 -35
q37 -12 37 -39v-256q0 -16 -10 -27.5t-27 -11.5h-4q-11 1 -85 6.5t-127 9.5t-127.5 7.5t-125.5 3.5q-102 0 -102 -70q0 -28 20.5 -48.5t85.5 -55.5l277 -148q144 -77 207 -177.5t63 -233.5zM836 -133q0 -2 -1 -4t-2 -5t-2 -5l-114 -207q-21 -41 -51 -41h-224q-30 0 -30 26
q0 10 6 33l49 189q9 38 41 38h299q29 0 29 -24z" />
    <glyph glyph-name="uni0219" unicode="&#x219;" horiz-adv-x="1058" 
d="M979 348q0 -165 -118.5 -265.5t-356.5 -100.5q-208 0 -379 49q-39 9 -39 45v211q0 43 43 43h8q250 -33 352 -33q56 0 76.5 14t20.5 45q0 18 -13.5 33t-48.5 35l-250 135q-194 105 -194 324q0 159 112 243t338 84q192 0 377 -51q41 -10 41 -45v-217q0 -41 -35 -41h-6
q-243 33 -352 33q-40 0 -58 -10.5t-18 -34.5t45 -47l240 -129q215 -115 215 -320zM731 -133q0 -2 -4 -14l-115 -207q-21 -41 -51 -41h-223q-31 0 -31 26q0 10 6 33l49 189q9 38 41 38h299q29 0 29 -24z" />
    <glyph glyph-name="uni021A" unicode="&#x21a;" horiz-adv-x="1216" 
d="M1167 1221q0 -17 -12.5 -28t-30.5 -11h-305v-1141q0 -17 -12 -29t-29 -12h-334q-17 0 -29 12t-12 29v1141h-311q-17 0 -29 11t-12 28v262q0 17 12 28t29 11h1032q18 0 30.5 -11t12.5 -28v-262zM797 -133q0 -2 -4 -14l-115 -207q-21 -41 -51 -41h-224q-30 0 -30 26
q0 10 6 33l49 189q9 38 41 38h299q29 0 29 -24z" />
    <glyph glyph-name="uni021B" unicode="&#x21b;" horiz-adv-x="884" 
d="M817 942q0 -17 -12 -29t-29 -12h-155v-551q0 -48 10 -63t47 -15h94q19 0 31 -11t12 -28v-192q0 -34 -43 -41q-108 -18 -182 -18q-88 0 -150 15.5t-112.5 55.5t-75.5 115t-25 186v547l-135 31q-18 5 -30.5 17t-12.5 28v172q0 18 12.5 30.5t30.5 12.5h135v166
q0 17 12.5 28.5t30.5 14.5l305 53h7q15 0 27 -12t12 -27v-223h155q17 0 29 -12t12 -29v-209zM684 -133q0 -2 -4 -14l-115 -207q-21 -41 -51 -41h-223q-31 0 -31 26q0 10 6 33l49 189q9 38 41 38h299q29 0 29 -24z" />
    <glyph glyph-name="circumflex" unicode="&#x2c6;" horiz-adv-x="966" 
d="M920 1311q0 -15 -19 -15h-254q-14 0 -23 3.5t-12 6t-14 13.5l-115 121l-114 -121q-19 -19 -32 -22q-7 -1 -18 -1h-253q-19 0 -19 15q0 9 8 20l176 234q14 18 25 24t33 6h389q23 0 33 -5.5t24 -24.5l176 -234q9 -12 9 -20z" />
    <glyph glyph-name="caron" unicode="&#x2c7;" horiz-adv-x="966" 
d="M926 1581q0 -9 -8 -20l-183 -234q-15 -19 -25 -25t-32 -6h-389q-23 0 -33.5 6t-24.5 25l-182 234q-8 11 -8 20q0 14 18 14h260q20 0 28 -4t22 -18l114 -117l115 117q10 10 14 13t12.5 6t22.5 3h260q19 0 19 -14z" />
    <glyph glyph-name="uni02C9" unicode="&#x2c9;" horiz-adv-x="966" 
d="M872 1360q0 -17 -12 -29t-29 -12h-694q-17 0 -29 12t-12 29v180q0 17 12 28t29 11h694q17 0 29 -11t12 -28v-180z" />
    <glyph glyph-name="breve" unicode="&#x2d8;" horiz-adv-x="966" 
d="M909 1583q0 -2 -4 -14q-56 -143 -162.5 -218t-259.5 -75t-259.5 75t-162.5 218q-4 12 -4 14q0 12 19 12h241q12 0 19 -3.5t9.5 -8.5t4.5 -14q16 -52 53 -73t80 -21t80 21t53 73q2 9 4.5 14t9.5 8.5t19 3.5h242q18 0 18 -12z" />
    <glyph glyph-name="dotaccent" unicode="&#x2d9;" horiz-adv-x="966" 
d="M676 1333q0 -17 -13 -29t-30 -12h-299q-17 0 -29 12t-12 29v223q0 17 12 29t29 12h299q17 0 30 -12t13 -29v-223z" />
    <glyph glyph-name="ring" unicode="&#x2da;" horiz-adv-x="966" 
d="M733 1464q0 -103 -73.5 -176.5t-176.5 -73.5q-102 0 -172.5 73.5t-70.5 176.5t70.5 176.5t172.5 73.5q103 0 176.5 -73.5t73.5 -176.5zM569 1466q0 34 -25 59t-59 25t-58 -24.5t-24 -59.5t24 -61.5t58 -26.5q33 0 58.5 27t25.5 61z" />
    <glyph glyph-name="ogonek" unicode="&#x2db;" horiz-adv-x="923" 
d="M682 -338v-2q0 -20 -23 -31q-32 -13 -99.5 -27t-141.5 -14q-55 0 -102.5 10t-88 32t-63.5 62t-23 95q0 72 33.5 121.5t112.5 95.5l98 57q22 15 59 15h201q17 0 19 -11t-11 -20l-159 -106q-18 -11 -27.5 -18.5t-18 -19t-8.5 -24.5q0 -30 19.5 -42.5t64.5 -12.5
q29 0 79.5 9t58.5 9q13 0 16.5 -4.5t3.5 -19.5v-154z" />
    <glyph glyph-name="tilde" unicode="&#x2dc;" horiz-adv-x="1019" 
d="M934 1542q0 -139 -69.5 -199.5t-202.5 -60.5q-31 0 -75 12t-75 31l-82 49q-50 31 -80 31q-39 0 -39 -41v-35q0 -35 -32 -35h-173q-34 0 -34 35v35q0 260 274 260q32 0 74 -11t74 -30l84 -49q61 -33 79 -33q21 0 29 9.5t8 33.5v35q0 35 35 35h170q35 0 35 -35v-37z" />
    <glyph glyph-name="hungarumlaut" unicode="&#x2dd;" horiz-adv-x="966" 
d="M1059 1581q0 -8 -8 -16l-258 -246l-4.5 -4.5t-5 -4.5t-4.5 -3.5t-4.5 -3t-5 -2.5t-6 -2.5t-6 -1t-7.5 -1t-9 -0.5h-262q-18 0 -18 15q0 12 8 20l186 234q14 18 25 24t33 6h323q23 0 23 -14zM535 1581q0 -7 -9 -16l-258 -246q-1 -1 -7 -6.5t-7 -6t-6 -4t-8.5 -4t-9.5 -1.5
t-13 -1h-264q-19 0 -19 15q0 11 9 20l186 234q14 18 24.5 24t32.5 6h326q23 0 23 -14z" />
    <glyph glyph-name="uni03A9" unicode="&#x3a9;" horiz-adv-x="1466" 
d="M733 1178q114 0 163.5 -63.5t49.5 -211.5v-24q0 -33 -0.5 -51t-3 -51t-8.5 -55t-15.5 -48t-26 -46.5t-38.5 -35.5q-2 -1 -7 -4.5t-6.5 -4.5t-5 -4.5t-4.5 -6t-3 -7t-2.5 -10.5t-0.5 -14v-498q0 -43 43 -43h392q47 0 47 43v233q0 41 -47 41h-228v56q72 24 127.5 58
t91.5 76.5t60.5 88t37 101.5t17 107.5t4.5 115.5v24q0 158 -45.5 275t-131.5 188t-200.5 105t-259.5 34t-259.5 -34t-200.5 -105t-131.5 -188t-45.5 -275v-24q0 -64 4.5 -115.5t17 -107.5t37 -101.5t60.5 -88t91.5 -76.5t127.5 -58v-56h-227q-47 0 -47 -41v-233
q0 -43 47 -43h391q43 0 43 43v498q0 8 -0.5 14t-2.5 10.5t-3 7t-4.5 6t-5 4.5t-6.5 4.5t-7 4.5q-22 15 -38.5 35.5t-26 46.5t-15.5 48t-8.5 55t-3 51t-0.5 51v24q0 148 49.5 211.5t163.5 63.5z" />
    <glyph glyph-name="uni03BC" unicode="&#x3bc;" horiz-adv-x="1294" 
d="M1182 98q0 -26 -14.5 -40.5t-57.5 -26.5q-174 -49 -457 -49q-77 0 -145 12v-346q0 -17 -12 -29t-29 -12h-313q-17 0 -29 12t-12 29v1499q0 17 13 31t30 14h307q17 0 30 -14t13 -31v-709q0 -71 35.5 -104t109.5 -33q93 0 137 10v836q0 18 12 31.5t29 13.5h308q17 0 31 -14
t14 -31v-1049z" />
    <glyph glyph-name="pi" unicode="&#x3c0;" horiz-adv-x="1376" 
d="M1303 887h-82v-551q0 -38 8.5 -44.5t60.5 -6.5h23q20 0 20 -23v-252v-7t-1 -5t-1.5 -4t-2 -3t-2.5 -2t-3 -1.5t-3.5 -1t-4 -1.5t-4.5 -1q-14 -3 -79.5 -6t-94.5 -3q-310 0 -310 299v613h-280v-846q0 -41 -29 -41h-332q-30 0 -30 41v846h-82q-18 0 -24.5 6t-6.5 25v243
q0 20 6.5 26.5t24.5 6.5h1229q18 0 24 -6.5t6 -26.5v-243q0 -20 -6 -25.5t-24 -5.5z" />
    <glyph glyph-name="Wgrave" unicode="&#x1e80;" horiz-adv-x="1878" 
d="M1835 1499v-4l-180 -1321q-14 -102 -52.5 -138t-111.5 -36h-211q-67 0 -103.5 35t-62.5 123l-151 516q-3 12 -6 15t-11 3t-11.5 -3.5t-6.5 -14.5l-152 -516q-26 -88 -62.5 -123t-103.5 -35h-211q-73 0 -111 36t-52 138l-181 1321v4q0 23 33 23h348q12 0 21 -11t10 -28
l100 -908q3 -26 15 -26q10 0 16 26l119 414q13 49 42 68.5t79 19.5h215q50 0 79 -19.5t42 -68.5l118 -414q6 -26 17 -26t14 26l100 908q1 17 10 28t21 11h348q33 0 33 -23zM1135 1642q0 -14 -19 -14h-264q-8 0 -14 1t-11.5 3.5t-7.5 4t-8 7t-8 7.5l-258 245q-8 8 -8 17
q0 14 22 14h324q22 0 32 -6t25 -25l186 -233q9 -9 9 -21z" />
    <glyph glyph-name="wgrave" unicode="&#x1e81;" horiz-adv-x="1783" 
d="M1733 1161v-6l-181 -973q-18 -97 -60.5 -139.5t-113.5 -42.5h-186q-66 0 -107 44t-67 132l-111 375q-3 14 -14 14t-14 -14l-111 -375q-26 -88 -66.5 -132t-107.5 -44h-186q-71 0 -114 42.5t-61 139.5l-180 973v6q0 12 9.5 21.5t21.5 9.5h328q28 0 34 -35l101 -702
q3 -17 14 -17t17 17l118 419q12 42 36.5 63t78.5 21h164q54 0 78.5 -21t36.5 -63l118 -419q6 -17 17 -17t14 17l100 702q6 35 35 35h328q12 0 21.5 -9.5t9.5 -21.5zM1081 1311q0 -15 -18 -15h-264q-8 0 -14 1t-11.5 3.5t-7.5 4t-8 7t-8 7.5l-258 246q-9 9 -9 16q0 14 23 14
h323q22 0 33 -6t25 -24l186 -234q8 -8 8 -20z" />
    <glyph glyph-name="Wacute" unicode="&#x1e82;" horiz-adv-x="1878" 
d="M1835 1499v-4l-180 -1321q-14 -102 -52.5 -138t-111.5 -36h-211q-67 0 -103.5 35t-62.5 123l-151 516q-3 12 -6 15t-11 3t-11.5 -3.5t-6.5 -14.5l-152 -516q-26 -88 -62.5 -123t-103.5 -35h-211q-73 0 -111 36t-52 138l-181 1321v4q0 23 33 23h348q12 0 21 -11t10 -28
l100 -908q3 -26 15 -26q10 0 16 26l119 414q13 49 42 68.5t79 19.5h215q50 0 79 -19.5t42 -68.5l118 -414q6 -26 17 -26t14 26l100 908q1 17 10 28t21 11h348q33 0 33 -23zM1370 1913q0 -9 -8 -17l-258 -245q-2 -2 -8 -7.5t-8 -7t-7.5 -4t-11.5 -3.5t-14 -1h-264
q-19 0 -19 14q0 13 8 21l187 233q15 19 25 25t32 6h324q22 0 22 -14z" />
    <glyph glyph-name="wacute" unicode="&#x1e83;" horiz-adv-x="1783" 
d="M1733 1161v-6l-181 -973q-18 -97 -60.5 -139.5t-113.5 -42.5h-186q-66 0 -107 44t-67 132l-111 375q-3 14 -14 14t-14 -14l-111 -375q-26 -88 -66.5 -132t-107.5 -44h-186q-71 0 -114 42.5t-61 139.5l-180 973v6q0 12 9.5 21.5t21.5 9.5h328q28 0 34 -35l101 -702
q3 -17 14 -17t17 17l118 419q12 42 36.5 63t78.5 21h164q54 0 78.5 -21t36.5 -63l118 -419q6 -17 17 -17t14 17l100 702q6 35 35 35h328q12 0 21.5 -9.5t9.5 -21.5zM1311 1581q0 -8 -8 -16l-259 -246q-2 -2 -8 -7.5t-8 -7t-7.5 -4t-11.5 -3.5t-14 -1h-264q-18 0 -18 15
q0 12 8 20l186 234q14 18 25 24t33 6h323q23 0 23 -14z" />
    <glyph glyph-name="Wdieresis" unicode="&#x1e84;" horiz-adv-x="1878" 
d="M1835 1499v-4l-180 -1321q-14 -102 -52.5 -138t-111.5 -36h-211q-67 0 -103.5 35t-62.5 123l-151 516q-3 12 -6 15t-11 3t-11.5 -3.5t-6.5 -14.5l-152 -516q-26 -88 -62.5 -123t-103.5 -35h-211q-73 0 -111 36t-52 138l-181 1321v4q0 23 33 23h348q12 0 21 -11t10 -28
l100 -908q3 -26 15 -26q10 0 16 26l119 414q13 49 42 68.5t79 19.5h215q50 0 79 -19.5t42 -68.5l118 -414q6 -26 17 -26t14 26l100 908q1 17 10 28t21 11h348q33 0 33 -23zM1350 1690q0 -17 -14.5 -29t-32.5 -12h-238q-18 0 -31.5 12t-13.5 29v200q0 17 13.5 29t31.5 12h238
q18 0 32.5 -12t14.5 -29v-200zM870 1690q0 -17 -13.5 -29t-31.5 -12h-237q-18 0 -32.5 12t-14.5 29v200q0 17 14.5 29t32.5 12h237q18 0 31.5 -12t13.5 -29v-200z" />
    <glyph glyph-name="wdieresis" unicode="&#x1e85;" horiz-adv-x="1783" 
d="M1733 1161v-6l-181 -973q-18 -97 -60.5 -139.5t-113.5 -42.5h-186q-66 0 -107 44t-67 132l-111 375q-3 14 -14 14t-14 -14l-111 -375q-26 -88 -66.5 -132t-107.5 -44h-186q-71 0 -114 42.5t-61 139.5l-180 973v6q0 12 9.5 21.5t21.5 9.5h328q28 0 34 -35l101 -702
q3 -17 14 -17t17 17l118 419q12 42 36.5 63t78.5 21h164q54 0 78.5 -21t36.5 -63l118 -419q6 -17 17 -17t14 17l100 702q6 35 35 35h328q12 0 21.5 -9.5t9.5 -21.5zM1298 1346q0 -17 -14.5 -29t-32.5 -12h-237q-18 0 -31.5 12t-13.5 29v200q0 17 13.5 29t31.5 12h237
q18 0 32.5 -12t14.5 -29v-200zM819 1346q0 -17 -13.5 -29t-31.5 -12h-237q-18 0 -33 12t-15 29v200q0 17 15 29t33 12h237q18 0 31.5 -12t13.5 -29v-200z" />
    <glyph glyph-name="Ygrave" unicode="&#x1ef2;" horiz-adv-x="1396" 
d="M1356 1495q0 -4 -4 -16l-301 -707q-60 -140 -146 -176v-555q0 -17 -12 -29t-29 -12h-334q-17 0 -27.5 11.5t-10.5 29.5v555q-86 36 -146 176l-301 707q-4 12 -4 16q0 11 8 19t21 8h370q25 0 41 -39l197 -543q8 -20 20 -20q14 0 21 20l196 543q16 39 41 39h371q13 0 21 -8
t8 -19zM915 1642q0 -14 -18 -14h-264q-8 0 -14 1t-11.5 3.5t-7.5 4t-8 7t-8 7.5l-258 245q-9 9 -9 17q0 14 23 14h324q22 0 32 -6t25 -25l186 -233q8 -8 8 -21z" />
    <glyph glyph-name="ygrave" unicode="&#x1ef3;" horiz-adv-x="1271" 
d="M1237 1155q0 -1 -1 -4t-1 -4l-348 -1217q-20 -71 -42.5 -121t-59 -95t-86 -72t-122 -42.5t-167.5 -15.5q-64 0 -150.5 11t-126.5 26q-16 5 -23.5 8.5t-15.5 11.5t-8 19v199q0 17 13 30t32 13h2q13 -1 124 -9t157 -8q91 0 110 78l17 68h-27q-32 0 -51.5 3t-43.5 14.5
t-41 34t-35.5 62.5t-35.5 99l-270 903q-2 4 -2 14q0 31 45 31h334q34 0 41 -41l161 -705q8 -34 23 -34h16l162 741q7 39 43 39h334q16 0 29.5 -11t13.5 -26zM838 1311q0 -15 -19 -15h-264q-8 0 -14 1t-11.5 3.5t-7.5 4t-8 7t-8 7.5l-258 246q-8 8 -8 16q0 14 22 14h324
q22 0 32.5 -6t24.5 -24l186 -234q9 -9 9 -20z" />
    <glyph glyph-name="endash" unicode="&#x2013;" horiz-adv-x="632" 
d="M664 510q0 -17 -12 -28t-29 -11h-615q-17 0 -28 11t-11 28v184q0 17 11 29t28 12h615q17 0 29 -12t12 -29v-184z" />
    <glyph glyph-name="emdash" unicode="&#x2014;" horiz-adv-x="1226" 
d="M1257 510q0 -17 -11.5 -28t-28.5 -11h-1209q-17 0 -28 11t-11 28v184q0 17 11 29t28 12h1209q17 0 28.5 -12t11.5 -29v-184z" />
    <glyph glyph-name="quoteleft" unicode="&#x2018;" horiz-adv-x="567" 
d="M524 1563q0 -13 -2 -19l-119 -471q-11 -39 -41 -39h-294q-11 0 -18 6.5t-7 16.5q0 4 4 16l168 471q8 21 16.5 30t22.5 9h252q18 0 18 -20z" />
    <glyph glyph-name="quoteright" unicode="&#x2019;" horiz-adv-x="567" 
d="M524 1561q0 -5 -4 -17l-168 -471q-8 -21 -16.5 -30t-22.5 -9h-252q-18 0 -18 21q0 12 2 18l119 471q11 39 41 39h295q24 0 24 -22z" />
    <glyph glyph-name="quotesinglbase" unicode="&#x201a;" horiz-adv-x="567" 
d="M561 338q0 -8 -2 -12l-213 -488q-18 -41 -47 -41h-213q-15 0 -27 10t-12 23q0 1 1 4t1 4l137 488q11 41 43 41h301q13 0 22 -8.5t9 -20.5z" />
    <glyph glyph-name="quotedblleft" unicode="&#x201c;" horiz-adv-x="1054" 
d="M1012 1563q0 -13 -2 -19l-119 -471q-11 -39 -41 -39h-295q-11 0 -18 6.5t-7 16.5q0 1 5 16l165 471q8 21 16.5 30t22.5 9h254q19 0 19 -20zM522 1563q0 -13 -2 -19l-117 -471q-8 -39 -41 -39h-294q-11 0 -18 6.5t-7 16.5q0 4 4 16l166 471q8 21 16.5 30t22.5 9h252
q18 0 18 -20z" />
    <glyph glyph-name="quotedblright" unicode="&#x201d;" horiz-adv-x="1054" 
d="M1012 1561q0 -5 -4 -17l-168 -471q-8 -21 -16.5 -30t-22.5 -9h-252q-19 0 -19 21q0 12 2 18l119 471q11 39 41 39h295q25 0 25 -22zM522 1561q0 -5 -4 -17l-166 -471q-8 -21 -16.5 -30t-22.5 -9h-252q-18 0 -18 21q0 12 2 18l119 471q11 39 41 39h293q24 0 24 -22z" />
    <glyph glyph-name="quotedblbase" unicode="&#x201e;" horiz-adv-x="1054" 
d="M1044 338q0 -8 -2 -12l-213 -488q-18 -41 -47 -41h-213q-15 0 -27 10t-12 23q0 1 1 4t1 4l138 488q11 41 43 41h301q13 0 21.5 -8.5t8.5 -20.5zM543 338q0 -8 -2 -12l-213 -488q-18 -41 -47 -41h-213q-15 0 -27 10t-12 23q0 1 1 4t1 4l137 488q11 41 43 41h301
q13 0 22 -8.5t9 -20.5z" />
    <glyph glyph-name="dagger" unicode="&#x2020;" horiz-adv-x="931" 
d="M877 930q0 -15 -11 -24t-28 -9h-176v-868q0 -41 -33 -41h-332q-33 0 -33 41v868h-168q-17 0 -28 9t-11 24v260q0 31 39 31h168v323q0 16 9.5 27.5t25.5 11.5h330q14 0 23.5 -11.5t9.5 -27.5v-323h176q39 0 39 -31v-260z" />
    <glyph glyph-name="daggerdbl" unicode="&#x2021;" horiz-adv-x="931" 
d="M877 446q0 -15 -10.5 -23.5t-28.5 -8.5h-176v-385q0 -41 -33 -41h-332q-33 0 -33 41v385h-168q-18 0 -28.5 8.5t-10.5 23.5v261q0 30 39 30h168v160h-168q-17 0 -28 9t-11 24v260q0 31 39 31h168v323q0 16 9.5 27.5t25.5 11.5h330q14 0 23.5 -11.5t9.5 -27.5v-323h176
q39 0 39 -31v-260q0 -15 -11 -24t-28 -9h-176v-160h176q39 0 39 -30v-261z" />
    <glyph glyph-name="bullet" unicode="&#x2022;" horiz-adv-x="856" 
d="M778 752q0 -145 -102.5 -247t-247.5 -102t-246.5 102t-101.5 247t101.5 247.5t246.5 102.5t247.5 -102.5t102.5 -247.5z" />
    <glyph glyph-name="ellipsis" unicode="&#x2026;" horiz-adv-x="1705" 
d="M1608 41q0 -17 -12 -29t-29 -12h-299q-17 0 -30 12t-13 29v285q0 17 13 29t30 12h299q17 0 29 -12t12 -29v-285zM1044 41q0 -17 -11.5 -29t-28.5 -12h-299q-17 0 -30 12t-13 29v285q0 17 13 29t30 12h299q17 0 28.5 -12t11.5 -29v-285zM481 41q0 -17 -12 -29t-29 -12
h-299q-17 0 -30 12t-13 29v285q0 17 13 29t30 12h299q17 0 29 -12t12 -29v-285z" />
    <glyph glyph-name="perthousand" unicode="&#x2030;" horiz-adv-x="2508" 
d="M2433 348q0 -181 -80 -270.5t-233 -89.5t-233.5 89.5t-80.5 270.5v139q0 181 80.5 271t233.5 90t233 -90t80 -271v-139zM1702 348q0 -360 -311 -360q-153 0 -233.5 89.5t-80.5 270.5v139q0 181 80.5 271t233.5 90q152 0 231.5 -90t79.5 -271v-139zM1481 1503q0 -6 -8 -22
l-850 -1436q-12 -19 -16.5 -25.5t-13.5 -13t-20 -6.5h-249q-12 0 -19.5 8t-7.5 19q0 9 6 18l850 1436q14 24 25 32.5t28 8.5h252q10 0 16.5 -5.5t6.5 -13.5zM702 1034q0 -181 -80 -270.5t-233 -89.5t-233 89.5t-80 270.5v140q0 358 313 358t313 -358v-140zM2195 348v139
q0 94 -18 126t-57 32t-58.5 -32.5t-19.5 -125.5v-139q0 -93 19.5 -125.5t58.5 -32.5t57 32t18 126zM1466 348v139q0 94 -18 126t-57 32t-58.5 -32.5t-19.5 -125.5v-139q0 -93 19.5 -125.5t58.5 -32.5t57 32t18 126zM465 1034v140q0 93 -18.5 125t-57.5 32t-58.5 -32
t-19.5 -125v-140q0 -93 19.5 -126.5t58.5 -33.5t57.5 33t18.5 127z" />
    <glyph glyph-name="guilsinglleft" unicode="&#x2039;" horiz-adv-x="868" 
d="M801 145q0 -9 -7.5 -15.5t-19.5 -6.5h-303q-42 0 -59 22l-324 394q-27 35 -27 55q0 22 27 57l324 391q18 23 59 23h303q12 0 19.5 -6t7.5 -15t-10 -22l-351 -428l351 -426q10 -13 10 -23z" />
    <glyph glyph-name="guilsinglright" unicode="&#x203a;" horiz-adv-x="868" 
d="M809 594q0 -20 -27 -55l-323 -394q-17 -22 -60 -22h-303q-12 0 -19 6.5t-7 15.5q0 10 10 23l350 426l-350 428q-10 13 -10 22q0 21 26 21h303q42 0 60 -23l323 -391q27 -35 27 -57z" />
    <glyph glyph-name="fraction" unicode="&#x2044;" horiz-adv-x="647" 
d="M915 1501q0 -8 -6 -20l-854 -1444q-13 -23 -21 -30t-24 -7h-252q-24 0 -24 25q0 11 6 20l854 1442q12 21 22 28t27 7h250q22 0 22 -21z" />
    <glyph glyph-name="n.superior" unicode="&#x207f;" horiz-adv-x="731" 
d="M666 739q0 -14 -10 -25.5t-23 -11.5h-168q-13 0 -25 12t-12 25v387q0 36 -11.5 50t-43.5 14q-33 0 -70 -16v-435q0 -14 -11 -25.5t-24 -11.5h-168q-13 0 -23.5 11.5t-10.5 25.5v598q0 14 9.5 23.5t22.5 9.5h156q14 0 24.5 -10t10.5 -23v-2q39 27 73.5 36t94.5 9
q63 0 106.5 -21.5t64.5 -61t29.5 -82.5t8.5 -99v-377z" />
    <glyph glyph-name="franc" unicode="&#x20a3;" horiz-adv-x="1187" 
d="M41 483h70v598q0 114 30.5 199t78 133.5t119 78t140.5 39t156 9.5q216 0 403 -24q41 -6 41 -41v-250q0 -17 -12 -29t-29 -12h-413q-56 0 -77.5 -22t-21.5 -81v-147h504q17 0 29 -12t12 -29v-242q0 -17 -12 -29t-29 -12h-504v-127h199q17 0 29 -12t12 -29v-180
q0 -17 -12 -29t-29 -12h-199v-180q0 -17 -12 -29t-29 -12h-333q-17 0 -29 12t-12 29v180h-70q-17 0 -29 12t-12 29v180q0 17 12 29t29 12z" />
    <glyph glyph-name="lira" unicode="&#x20a4;" 
d="M999 522h-313v-69q0 -65 -33 -129h525q17 0 29 -11t12 -28v-244q0 -17 -12 -29t-29 -12h-936q-19 0 -30 13.5t-11 31.5v184q0 28 20 52q23 26 43.5 77.5t20.5 94.5v69h-101q-17 0 -28 12t-11 29v80q0 17 12 28t29 11h99v127h-101q-17 0 -28 12t-11 29v80q0 17 12 28
t29 11h99v57q0 273 131.5 388.5t421.5 115.5q154 0 342 -37q26 -6 33.5 -14.5t7.5 -28.5v-262q0 -43 -41 -37q-193 23 -342 23q-89 0 -120.5 -28t-31.5 -116v-61h311q17 0 29 -11t12 -28v-80q0 -17 -11 -29t-28 -12h-313v-127h311q17 0 29 -11t12 -28v-80q0 -17 -11 -29
t-28 -12z" />
    <glyph glyph-name="peseta" unicode="&#x20a7;" horiz-adv-x="3330" 
d="M1323 1012q0 -116 -38 -207.5t-99.5 -148.5t-146 -94t-170 -51.5t-179.5 -14.5q-26 0 -77.5 2.5t-67.5 3.5v-461q0 -17 -12 -29t-29 -12h-328q-18 0 -30.5 10t-12.5 27v1343q0 71 25.5 98t93.5 38q166 26 432 26q98 0 184.5 -14t172 -50t146 -92.5t98.5 -148t38 -209.5
v-16zM909 1012v16q0 166 -219 166q-102 0 -145 -2v-348q10 -2 145 -2q219 0 219 170zM2204 942q0 -17 -12 -29t-29 -12h-156v-551q0 -48 10 -63t47 -15h95q19 0 31 -11t12 -28v-192q0 -34 -43 -41q-108 -18 -183 -18q-88 0 -150 15.5t-112 55.5t-75 114.5t-25 186.5v547
l-135 31q-18 5 -30.5 17t-12.5 28v172q0 18 12.5 30.5t30.5 12.5h135v166q0 17 12.5 28.5t30.5 14.5l305 53q28 4 36.5 -6.5t8.5 -32.5v-223h156q17 0 29 -12t12 -29v-209zM3250 348q0 -165 -118.5 -265.5t-356.5 -100.5q-208 0 -379 49q-39 9 -39 45v211q0 23 14 34.5
t37 8.5q254 -33 353 -33q56 0 76 14t20 45q0 18 -13 33.5t-48 34.5l-250 135q-195 106 -195 324q0 159 112.5 243t338.5 84q191 0 376 -51q41 -10 41 -45v-217q0 -21 -11.5 -32.5t-29.5 -8.5q-243 33 -352 33q-40 0 -58 -10.5t-18 -34.5q0 -23 46 -47l239 -129
q215 -115 215 -320z" />
    <glyph glyph-name="Euro" unicode="&#x20ac;" 
d="M1208 63q0 -19 -9.5 -28t-35.5 -17q-106 -36 -276 -36q-130 0 -237 32.5t-191.5 97.5t-137.5 171t-69 247h-53q-17 0 -29 12t-12 29v95q0 17 12 29t29 12h47v114h-47q-17 0 -29 12t-12 29v94q0 17 12 29t29 12h53q16 141 69 246.5t137.5 170t191.5 96.5t237 32
q167 0 276 -37q27 -8 36 -16t9 -29v-248q0 -38 -37 -38h-6q-168 16 -266 16q-190 0 -219 -193h385q13 0 22 -6t9 -14v-4l-29 -127q-5 -25 -33 -25h-366v-114h323q33 0 33 -29v-8l-27 -109q-8 -31 -34 -31h-285q30 -196 221 -196q98 0 266 16h6q37 0 37 -39v-248z" />
    <glyph glyph-name="afii61289" unicode="&#x2113;" horiz-adv-x="1173" 
d="M1085 127q14 -35 -16 -51q-59 -39 -167.5 -75t-227.5 -36q-203 0 -290 103.5t-87 339.5v84l-121 -78q-7 -7 -19.5 -6t-19.5 12l-55 88q-15 26 8 39l207 133v537q0 210 98 312.5t303 102.5q108 0 188 -25.5t125 -71t66 -101t21 -123.5q0 -158 -103 -318t-313 -299v-260
q0 -170 131 -170q65 0 152 41q20 9 30.5 7t18.5 -21zM924 1311q0 153 -115 153q-78 0 -102.5 -59t-24.5 -188v-324q122 94 182 208t60 210z" />
    <glyph glyph-name="trademark" unicode="&#x2122;" horiz-adv-x="1734" 
d="M1653 719q0 -9 -7 -15t-16 -6h-190q-9 0 -16 6t-7 15v487q0 75 -19.5 95t-92.5 20v-602q0 -9 -7 -15t-16 -6h-192q-9 0 -15 6t-6 15v602q-2 0 -113 -6v-596q0 -9 -6.5 -15t-15.5 -6h-191q-9 0 -15.5 6t-6.5 15v713q0 44 14.5 61t52.5 20q214 19 398 19q86 0 144 -4
t115.5 -16t92.5 -34t63 -58t40 -89t12 -125v-487zM659 1354q0 -11 -7 -18t-17 -7h-156v-608q0 -9 -7 -16t-17 -7h-195q-10 0 -17 7t-7 16v608h-160q-10 0 -17.5 7.5t-7.5 17.5v143q0 9 7.5 17t17.5 8h559q10 0 17 -8t7 -17v-143z" />
    <glyph glyph-name="Omega" unicode="&#x2126;" horiz-adv-x="1466" 
d="M733 1178q114 0 163.5 -63.5t49.5 -211.5v-24q0 -33 -0.5 -51t-3 -51t-8.5 -55t-15.5 -48t-26 -46.5t-38.5 -35.5q-2 -1 -7 -4.5t-6.5 -4.5t-5 -4.5t-4.5 -6t-3 -7t-2.5 -10.5t-0.5 -14v-498q0 -43 43 -43h392q47 0 47 43v233q0 41 -47 41h-228v56q72 24 127.5 58
t91.5 76.5t60.5 88t37 101.5t17 107.5t4.5 115.5v24q0 158 -45.5 275t-131.5 188t-200.5 105t-259.5 34t-259.5 -34t-200.5 -105t-131.5 -188t-45.5 -275v-24q0 -64 4.5 -115.5t17 -107.5t37 -101.5t60.5 -88t91.5 -76.5t127.5 -58v-56h-227q-47 0 -47 -41v-233
q0 -43 47 -43h391q43 0 43 43v498q0 8 -0.5 14t-2.5 10.5t-3 7t-4.5 6t-5 4.5t-6.5 4.5t-7 4.5q-22 15 -38.5 35.5t-26 46.5t-15.5 48t-8.5 55t-3 51t-0.5 51v24q0 148 49.5 211.5t163.5 63.5z" />
    <glyph glyph-name="estimated" unicode="&#x212e;" horiz-adv-x="1241" 
d="M1182 578h-879v-396q135 -129 311 -129q67 0 124.5 14.5t99.5 36.5t81 58t66.5 70t58.5 81l64 -39q-43 -67 -87 -115.5t-103 -89.5t-135 -62t-169 -21q-163 0 -291 81.5t-196 216.5t-68 296q0 164 67 298t197 215t300 81q169 0 298 -82.5t195 -217t66 -296.5zM936 645
v334q-59 54 -143.5 90.5t-169.5 36.5q-196 0 -320 -127v-334h633z" />
    <glyph glyph-name="onethird" unicode="&#x2153;" horiz-adv-x="1740" 
d="M1382 1501q0 -8 -6 -20l-854 -1448q-12 -21 -20 -27t-23 -6h-252q-24 0 -24 25q0 11 6 20l854 1446q10 19 19.5 25t27.5 6h250q22 0 22 -21zM100 1446l183 78q12 6 28 6h127q15 0 24 -9.5t9 -23.5v-780q0 -14 -9 -23.5t-24 -9.5h-180q-14 0 -23.5 10t-9.5 23v563
l-104 -43q-39 -16 -39 20v160q0 20 18 29zM1659 242q0 -125 -83.5 -189.5t-232.5 -64.5q-59 0 -137 14.5t-110 30.5q-21 8 -21 24v115q0 12 8.5 20.5t20.5 8.5h2q140 -11 213 -11q55 0 77.5 12t22.5 46v16q0 34 -20.5 50t-65.5 16h-174q-12 0 -21.5 9t-9.5 21v123
q0 12 9.5 21.5t21.5 9.5h174q88 0 88 57v19q0 29 -20.5 41t-79.5 12q-81 0 -209 -10h-2q-12 0 -20.5 8.5t-8.5 20.5v118q0 19 29 29q126 37 238 37q152 0 231.5 -51.5t79.5 -173.5v-15q0 -117 -92 -180q92 -54 92 -174v-10z" />
    <glyph glyph-name="twothirds" unicode="&#x2154;" horiz-adv-x="1935" 
d="M1577 1501q0 -8 -6 -20l-854 -1448q-12 -21 -20 -27t-23 -6h-252q-25 0 -25 25q0 11 6 20l854 1446q10 19 20 25t28 6h249q23 0 23 -21zM1853 242q0 -125 -83 -189.5t-232 -64.5q-59 0 -137.5 14.5t-110.5 30.5q-20 8 -20 24v115q0 12 8 20.5t20 8.5h2q140 -11 213 -11
q55 0 78 12t23 46v16q0 34 -20.5 50t-65.5 16h-174q-12 0 -21.5 9t-9.5 21v123q0 12 9.5 21.5t21.5 9.5h174q88 0 88 57v19q0 29 -20.5 41t-79.5 12q-82 0 -209 -10h-2q-12 0 -20.5 8.5t-8.5 20.5v118q0 19 29 29q126 37 237 37q152 0 231.5 -51.5t79.5 -173.5v-15
q0 -117 -92 -180q92 -54 92 -174v-10zM678 1313q0 -131 -121 -211l-127 -84q-7 -5 -23.5 -15.5t-23.5 -15t-20 -13.5t-19 -14.5t-14.5 -14t-12 -15.5t-7 -15.5t-3.5 -17.5h326q13 0 23 -9.5t10 -23.5v-145q0 -13 -10 -23t-23 -10h-518q-13 0 -23 10t-10 23v117q0 90 37 162
t100 120l113 84q73 54 88.5 69t15.5 34q0 21 -19 29.5t-77 8.5q-26 0 -57 -2t-70 -5.5t-57 -4.5q-13 0 -27.5 -1t-25.5 7t-11 25v108q0 19 27 31q118 41 254 41q163 0 234 -55.5t71 -173.5z" />
    <glyph glyph-name="oneeighth" unicode="&#x215b;" horiz-adv-x="1773" 
d="M1382 1501q0 -8 -6 -20l-854 -1448q-12 -21 -20 -27t-23 -6h-252q-24 0 -24 25q0 11 6 20l854 1446q10 19 19.5 25t27.5 6h250q22 0 22 -21zM100 1446l183 78q12 6 28 6h127q15 0 24 -9.5t9 -23.5v-780q0 -14 -9 -23.5t-24 -9.5h-180q-14 0 -23.5 10t-9.5 23v563
l-104 -43q-39 -16 -39 20v160q0 20 18 29zM1692 244q0 -118 -82 -187t-234 -69h-12q-152 0 -233.5 69t-81.5 187v16q0 105 81 176q-77 59 -77 160v20q0 115 78.5 176.5t232.5 61.5h12q154 0 233 -61.5t79 -176.5v-20q0 -100 -78 -160q82 -72 82 -176v-16zM1452 254v12
q0 36 -17 59t-53 23h-24q-36 0 -53 -23t-17 -59v-12q0 -37 19.5 -59.5t56.5 -22.5h12q37 0 56.5 22.5t19.5 59.5zM1376 670h-12q-76 0 -76 -80q0 -70 70 -70h24q70 0 70 70q0 80 -76 80z" />
    <glyph glyph-name="threeeighths" unicode="&#x215c;" horiz-adv-x="1904" 
d="M1513 1501q0 -8 -6 -20l-854 -1448q-12 -21 -20 -27t-23 -6h-252q-24 0 -24 25q0 11 6 20l854 1446q10 19 19.5 25t27.5 6h250q22 0 22 -21zM1823 244q0 -118 -82 -187t-234 -69h-12q-152 0 -233.5 69t-81.5 187v16q0 104 82 176q-78 60 -78 160v20q0 115 78.5 176.5
t232.5 61.5h12q154 0 233 -61.5t79 -176.5v-20q0 -100 -78 -160q82 -72 82 -176v-16zM1583 254v12q0 36 -17 59t-53 23h-24q-36 0 -53 -23t-17 -59v-12q0 -37 19.5 -59.5t56.5 -22.5h12q37 0 56.5 22.5t19.5 59.5zM1507 670h-12q-76 0 -76 -80q0 -70 70 -70h24q70 0 70 70
q0 80 -76 80zM666 938q0 -125 -83.5 -189.5t-232.5 -64.5q-59 0 -137.5 14.5t-110.5 30.5q-20 8 -20 25v114q0 12 8.5 20.5t20.5 8.5h2q128 -10 213 -10q55 0 77.5 11.5t22.5 45.5v17q0 34 -20.5 49.5t-65.5 15.5h-174q-12 0 -21.5 9.5t-9.5 21.5v123q0 12 9.5 21t21.5 9
h174q88 0 88 58v18q0 29 -20.5 41t-79.5 12q-81 0 -209 -10h-2q-12 0 -20.5 8.5t-8.5 20.5v119q0 18 29 28q126 37 237 37q152 0 232 -51.5t80 -173.5v-14q0 -117 -93 -181q93 -55 93 -174v-10z" />
    <glyph glyph-name="fiveeighths" unicode="&#x215d;" horiz-adv-x="1900" 
d="M1509 1501q0 -8 -6 -20l-854 -1448q-12 -21 -20 -27t-23 -6h-252q-24 0 -24 25q0 11 6 20l854 1446q10 19 19.5 25t27.5 6h250q22 0 22 -21zM1819 244q0 -118 -82 -187t-234 -69h-12q-152 0 -233.5 69t-81.5 187v16q0 105 81 176q-77 59 -77 160v20q0 115 78.5 176.5
t232.5 61.5h12q154 0 233 -61.5t79 -176.5v-20q0 -100 -78 -160q82 -72 82 -176v-16zM1579 254v12q0 36 -17 59t-53 23h-24q-36 0 -53 -23t-17 -59v-12q0 -37 19.5 -59.5t56.5 -22.5h12q37 0 56.5 22.5t19.5 59.5zM1503 670h-12q-76 0 -76 -80q0 -70 70 -70h24q70 0 70 70
q0 80 -76 80zM666 958q0 -140 -86 -212t-240 -72q-126 0 -227 37q-31 13 -31 34v109q0 14 10 23.5t27 9.5q106 -13 182 -13q70 0 92.5 18.5t22.5 65.5v11q0 36 -23.5 51.5t-85.5 15.5h-194q-12 0 -20.5 8t-8.5 21l35 436q2 12 11 20.5t22 8.5h458q14 0 23.5 -10t9.5 -23
v-137q0 -13 -9.5 -22t-23.5 -9h-293l-10 -102h35q166 0 245 -64t79 -194v-11z" />
    <glyph glyph-name="seveneighths" unicode="&#x215e;" horiz-adv-x="1748" 
d="M1391 1501q0 -6 -7 -20l-854 -1448q-12 -21 -20 -27t-23 -6h-251q-25 0 -25 25q0 11 6 20l854 1446q10 19 19.5 25t27.5 6h250q23 0 23 -21zM1700 244q0 -118 -82 -187t-234 -69h-12q-152 0 -233.5 69t-81.5 187v16q0 104 82 176q-78 60 -78 160v20q0 115 78.5 176.5
t232.5 61.5h12q154 0 233 -61.5t79 -176.5v-20q0 -100 -78 -160q82 -72 82 -176v-16zM1460 254v12q0 36 -16.5 59t-52.5 23h-25q-36 0 -53 -23t-17 -59v-12q0 -37 19.5 -59.5t56.5 -22.5h12q37 0 56.5 22.5t19.5 59.5zM1384 670h-12q-76 0 -76 -80q0 -70 70 -70h25
q69 0 69 70q0 80 -76 80zM639 1333l-283 -620q-14 -29 -37 -29h-188q-15 0 -24 8t-9 19q0 8 4 16q227 480 285 602h-270q-14 0 -24.5 9t-10.5 22v137q0 13 10.5 23t24.5 10h497q19 0 30 -11t11 -30v-100q0 -20 -16 -56z" />
    <glyph glyph-name="partialdiff" unicode="&#x2202;" horiz-adv-x="1325" 
d="M1243 918q0 -212 -43 -414q-59 -268 -210.5 -398.5t-409.5 -130.5q-244 0 -371 116.5t-127 332.5q0 94 18 205q83 485 564 485q56 0 115 -13.5t93 -35.5q-11 50 -16 61q-12 60 -34.5 106t-64.5 88t-113 64.5t-167 22.5q-114 0 -194 -16q-16 -3 -24.5 4t-6.5 20l16 160
q3 21 13 29t28 12q114 24 242 24q339 0 515.5 -193t176.5 -529zM827 676q0 73 -32 108t-103 35q-86 0 -133 -61t-65 -189q-17 -108 -17 -153q0 -76 32.5 -112t102.5 -36q85 0 131.5 60.5t67.5 189.5q16 104 16 158z" />
    <glyph glyph-name="Delta" unicode="&#x2206;" horiz-adv-x="1417" 
d="M1378 33q0 -33 -32 -33h-1272q-15 0 -25 9.5t-10 23.5q0 2 1 5t1 5l274 1253q16 74 52 123.5t90 75t113.5 35.5t138.5 10q63 0 112 -6t97 -22t82.5 -42.5t61.5 -70.5t40 -103l274 -1253q0 -2 1 -5.5t1 -4.5zM831 328l-100 843q0 2 -1 6q-4 20 -14 22q-3 1 -7 1
q-8 0 -12.5 -3.5t-6 -7.5t-3.5 -14q-1 -3 -1 -4l-100 -843h245z" />
    <glyph glyph-name="product" unicode="&#x220f;" horiz-adv-x="1527" 
d="M41 1522h1446q17 0 29 -12t12 -29v-277q0 -17 -12 -29t-29 -12h-92v-1323q0 -17 -12 -29t-29 -12h-334q-17 0 -29 12t-12 29v1321h-428v-1321q0 -17 -12 -29t-29 -12h-334q-17 0 -30 12t-13 29v1323h-92q-17 0 -29 12t-12 29v277q0 17 12 29t29 12z" />
    <glyph glyph-name="summation" unicode="&#x2211;" horiz-adv-x="1161" 
d="M1049 -168q0 -19 -6 -26t-23 -7h-873q-21 0 -27.5 10t-6.5 31v320q0 30 12 49l268 428q6 10 6 25q0 14 -6 24l-268 426q-12 19 -12 49v320q0 21 6.5 31t27.5 10h873q17 0 23 -7t6 -26v-293q0 -35 -29 -35h-459q-17 0 -6 -18l240 -412q12 -18 12 -41v-57q0 -23 -12 -41
l-240 -416q-11 -18 6 -18h459q29 0 29 -35v-291z" />
    <glyph glyph-name="minus" unicode="&#x2212;" 
d="M1171 688q0 -33 -41 -33h-897q-40 0 -40 33v225q0 33 40 33h897q41 0 41 -33v-225z" />
    <glyph glyph-name="uni2215" unicode="&#x2215;" horiz-adv-x="647" 
d="M915 1501q0 -8 -6 -20l-854 -1444q-13 -23 -21 -30t-24 -7h-252q-24 0 -24 25q0 11 6 20l854 1442q12 21 22 28t27 7h250q22 0 22 -21z" />
    <glyph glyph-name="uni2219" unicode="&#x2219;" horiz-adv-x="595" 
d="M489 631q0 -17 -13 -29t-30 -12h-296q-18 0 -31 12t-13 29v284q0 17 13 29t31 12h296q17 0 30 -12t13 -29v-284z" />
    <glyph glyph-name="radical" unicode="&#x221a;" horiz-adv-x="1495" 
d="M1071 1757l-362 -1673l-154 866q-9 31 -41 31h-446q-23 0 -23 -29v-239q0 -25 23 -25h127q11 0 15 -4t9 -18l170 -783q6 -21 14.5 -29t26.5 -8h563q42 0 51 33l441 1880q11 29 -21 29h-358q-19 0 -24.5 -6t-10.5 -25z" />
    <glyph glyph-name="infinity" unicode="&#x221e;" horiz-adv-x="1355" 
d="M1274 752q0 -72 -8 -134.5t-32.5 -131.5t-64 -117t-108.5 -79.5t-160 -31.5h-12q-132 0 -223 88q-80 -92 -201 -92h-12q-77 0 -138 21.5t-100.5 60.5t-66.5 85.5t-41 105.5t-19.5 111.5t-5.5 111.5v49q0 72 8 135t32.5 131.5t64 117t108.5 80t160 31.5h14q125 0 219 -88
q73 90 205 90h12q369 0 369 -497v-47zM993 752v47q0 48 -1 78.5t-6 67.5t-14 58t-26 35.5t-41 14.5h-10q-38 -1 -56.5 -63t-37.5 -218q-16 -134 -33 -217q52 -59 123 -59h8q30 0 50 20.5t29 60.5t12 79.5t3 95.5zM586 987q-54 66 -119 66h-10q-31 0 -51 -22t-29 -62.5
t-12 -79t-3 -90.5v-49q0 -54 2.5 -91.5t11 -78.5t28 -62.5t49.5 -21.5h12q37 0 55.5 62.5t38.5 229.5q15 124 27 199z" />
    <glyph glyph-name="integral" unicode="&#x222b;" horiz-adv-x="884" 
d="M227 -47v1294q0 90 17 156t47 107.5t77 66t99.5 34t122.5 9.5q83 0 182 -18q43 -7 43 -41v-193q0 -17 -12 -28t-31 -11h-86q-38 0 -51.5 -18t-13.5 -64v-1294q0 -90 -17 -156t-47 -107.5t-77 -66t-99.5 -34t-122.5 -9.5q-78 0 -182 19q-43 7 -43 41v192q0 17 12 28t31 11
h86q38 0 51.5 18t13.5 64z" />
    <glyph glyph-name="approxequal" unicode="&#x2248;" horiz-adv-x="1124" 
d="M993 1208q0 -139 -69.5 -199.5t-202.5 -60.5q-31 0 -75 12t-75 31l-82 49q-50 31 -79 31q-39 0 -39 -41v-35q0 -34 -33 -34h-172q-35 0 -35 34v35q0 260 275 260q79 0 147 -41l84 -49q61 -33 80 -33q21 0 29 9.5t8 33.5v35q0 35 34 35h170q35 0 35 -35v-37zM993 737
q0 -139 -69.5 -199.5t-202.5 -60.5q-31 0 -75 12t-75 31l-82 49q-50 31 -79 31q-39 0 -39 -41v-35q0 -35 -33 -35h-172q-35 0 -35 35v35q0 260 275 260q79 0 147 -41l84 -49q61 -33 80 -33q21 0 29 9.5t8 33.5v35q0 35 34 35h170q35 0 35 -35v-37z" />
    <glyph glyph-name="notequal" unicode="&#x2260;" 
d="M727 1522h272q50 0 39 -41l-75 -258h161q41 0 41 -33v-225q0 -33 -41 -33h-247l-76 -262h323q41 0 41 -33v-225q0 -33 -41 -33h-409l-97 -334q-12 -45 -43 -45h-272q-21 0 -35.5 10.5t-7.5 34.5l98 334h-118q-41 0 -41 33v225q0 33 41 33h202l78 262h-280q-41 0 -41 33
v225q0 33 41 33h366l76 258q11 41 45 41z" />
    <glyph glyph-name="lessequal" unicode="&#x2264;" 
d="M1151 303q0 -10 -7 -17t-18 -7h-344q-33 0 -53 20l-479 436q-37 32 -37 66q0 37 37 67l479 435q25 22 53 22h344q10 0 17.5 -7.5t7.5 -17.5q0 -12 -12 -24l-527 -475l527 -473q12 -12 12 -25zM1171 -18q0 -33 -41 -33h-897q-40 0 -40 33v176q0 32 40 32h897q41 0 41 -32
v-176z" />
    <glyph glyph-name="greaterequal" unicode="&#x2265;" 
d="M1151 801q0 -34 -37 -66l-479 -436q-20 -20 -53 -20h-344q-11 0 -18 7t-7 17q0 13 12 25l529 473l-529 475q-12 12 -12 24q0 10 7.5 17.5t17.5 7.5h344q28 0 53 -22l479 -435q37 -30 37 -67zM1171 -18q0 -33 -41 -33h-897q-40 0 -40 33v176q0 32 40 32h897q41 0 41 -32
v-176z" />
    <glyph glyph-name="lozenge" unicode="&#x25ca;" horiz-adv-x="1224" 
d="M1143 748q0 -37 -27 -76l-452 -557q-23 -29 -52 -29q-26 0 -49 29l-454 557q-27 39 -27 76q0 39 27 73l454 570q19 22 49 22q31 0 50 -22l454 -570q27 -30 27 -73zM801 745q0 17 -15 35l-135 178q-21 21 -39 21q-19 0 -37 -21l-137 -178q-14 -21 -14 -35q0 -17 16 -36
l133 -170q22 -25 39 -25q20 0 39 25l135 170q15 18 15 36z" />
    <glyph glyph-name="j.dotless" unicode="&#xe008;" horiz-adv-x="638" 
d="M518 -43q0 -108 -24.5 -183.5t-72 -117.5t-108 -60t-141.5 -18q-78 0 -192 19q-41 7 -41 43v190q0 17 12 29t31 12h88q34 0 43.5 19.5t9.5 66.5v1192q0 17 14 30t31 13h305q17 0 31 -13t14 -30v-1192z" />
    <glyph glyph-name="uni2014.alt" unicode="&#xe009;" horiz-adv-x="1226" 
d="M1135 510q0 -17 -12 -28t-29 -11h-963q-17 0 -28 11t-11 28v184q0 17 11 29t28 12h963q17 0 29 -12t12 -29v-184z" />
    <glyph glyph-name="zero.fitted" unicode="&#xf639;" 
d="M1251 662q0 -680 -569 -680t-569 680v198q0 682 569 682t569 -682v-198zM834 662v198q0 100 -11 167.5t-32.5 101.5t-47 47.5t-61.5 13.5t-61.5 -13.5t-47 -47.5t-32.5 -101.5t-11 -167.5v-198q0 -100 11 -167.5t32.5 -101.5t47 -47.5t61.5 -13.5t61.5 13.5t47 47.5
t32.5 101.5t11 167.5z" />
    <glyph glyph-name="two.fitted" unicode="&#xf63a;" 
d="M1212 1137q0 -234 -215 -375l-166 -111q-20 -13 -65 -42t-65 -42.5t-54 -38t-49.5 -41t-34.5 -39.5t-26 -45.5t-7 -46.5v-6h619q17 0 29 -12t12 -29v-268q0 -17 -12 -29t-29 -12h-954q-17 0 -29 12t-12 29v217q0 163 65.5 292t177.5 212l176 131q168 125 199 155t31 72
q0 52 -38 72t-155 20q-94 0 -399 -24h-4q-15 0 -26 12t-11 29v198q0 11 6.5 19t13 11.5t19.5 8.5q217 76 461 76q290 0 416 -99t126 -306z" />
    <glyph glyph-name="three.fitted" unicode="&#xf63b;" 
d="M1208 442q0 -233 -146.5 -346.5t-412.5 -113.5q-122 0 -249.5 20t-202.5 49q-41 16 -41 41v201q0 17 11 28t26 11h4q267 -21 426 -21q174 0 174 131v33q0 32 -6 55.5t-22 45.5t-49.5 33.5t-82.5 11.5h-340q-17 0 -29 12t-12 29v219q0 17 12 28t29 11h340q88 0 124 43.5
t36 107.5v33q0 59 -38 82.5t-120 23.5q-139 0 -432 -22h-4q-16 0 -27.5 11t-11.5 28v200q0 24 43 41q79 31 196.5 52.5t235.5 21.5q274 0 419.5 -96t145.5 -316v-28q0 -91 -47.5 -180.5t-138.5 -145.5q89 -45 139.5 -123t50.5 -178v-33z" />
    <glyph glyph-name="four.fitted" unicode="&#xf63c;" 
d="M1276 358q0 -17 -12 -29t-29 -12h-119v-276q0 -17 -12 -29t-29 -12h-336q-17 0 -28 12t-11 29v276h-571q-17 0 -29 12t-12 29v232q0 31 23 61l663 852q14 19 49 19h252q17 0 29 -12t12 -29v-848h119q17 0 29 -12t12 -29v-234zM717 633v389q0 8 -4 8q-2 0 -6 -4l-283 -375
q-6 -9 -6 -12q0 -6 10 -6h289z" />
    <glyph glyph-name="five.fitted" unicode="&#xf63d;" 
d="M1202 487q0 -250 -153 -377.5t-428 -127.5q-225 0 -414 67q-15 6 -21 9t-14 12t-8 22v203q0 17 11.5 28t27.5 11h4q221 -23 342 -23q97 0 147 19t66 54.5t16 102.5v21q0 77 -46.5 109t-170.5 32h-358q-15 0 -25 9t-10 24v4l63 797q2 16 13 27.5t28 11.5h848q17 0 29 -11
t12 -28v-254q0 -17 -12 -28t-29 -11h-557l-20 -225h84q295 0 435 -113t140 -344v-21z" />
    <glyph glyph-name="six.fitted" unicode="&#xf63e;" 
d="M1241 508q0 -245 -142.5 -385.5t-412.5 -140.5q-267 0 -414 147.5t-147 423.5v422q0 149 43.5 260.5t123 177.5t180 97.5t224.5 31.5q236 0 428 -53q27 -7 36 -18t9 -31v-215q0 -43 -36 -43h-11q-192 28 -366 28q-136 0 -180 -46.5t-44 -188.5v-12q31 6 99 13t110 7
q261 0 380.5 -101t119.5 -352v-22zM834 508v22q0 100 -37 134t-121 34q-74 0 -144 -12v-133q0 -106 16 -161.5t47 -75t91 -19.5q72 0 110 45t38 166z" />
    </font>
</defs>
</svg>
