<?xml version="1.0" encoding="utf-8"?>
<!-- Generator: Adobe Illustrator 21.0.0, SVG Export Plug-In . SVG Version: 6.00 Build 0)  -->
<svg version="1.1" id="Layer_1" xmlns="http://www.w3.org/2000/svg" xmlns:xlink="http://www.w3.org/1999/xlink" x="0px" y="0px"
	 viewBox="0 0 203 189" style="enable-background:new 0 0 203 189;" xml:space="preserve">
<style type="text/css">
	.st0{fill:#0074FF;}
	.st1{fill:#FFFFFF;}
	.st2{fill:none;stroke:#FFFFFF;stroke-width:3;stroke-miterlimit:10;}
	.st3{fill:none;stroke:#FFFFFF;stroke-width:1.3;stroke-miterlimit:10;}
</style>
<g>
	<g>
		<polygon class="st0" points="0,0.4 203,0.4 203,189.4 0,189.4 		"/>
	</g>
</g>
<g>
	<g>
		<rect x="54.9" y="161.8" class="st1" width="93.2" height="7.8"/>
	</g>
	<g>
		<g>
			<path class="st1" d="M93.2,114.7v15.4H74.7v-15.4H93.2 M96.2,111.7H71.7v21.4h24.5V111.7L96.2,111.7z"/>
		</g>
	</g>
	<g>
		<g>
			<path class="st1" d="M128.2,114.7V155h-18.5v-40.3L128.2,114.7 M131.2,111.7h-24.5V158h24.5V111.7L131.2,111.7z"/>
		</g>
	</g>
	<g>
		<g>
			<path class="st1" d="M103.2,74.1l41.9,32.6v48.1H57.9v-48.1L103.2,74.1 M103.2,70.4l-48.3,34.9v52.6H148v-52.6L103.2,70.4
				L103.2,70.4z"/>
		</g>
	</g>
	<polyline class="st2" points="161.6,108.7 103.4,62.1 41.3,108.7 	"/>
	<g>
		<g>
			<g>
				<line class="st3" x1="103.7" y1="19.4" x2="103.7" y2="28.4"/>
				<g>
					<path class="st1" d="M103.7,36.3c-1.4-3.7-3.7-8.3-6.2-11.1l6.2,2.2l6.2-2.2C107.3,28,104.9,32.6,103.7,36.3z"/>
				</g>
			</g>
		</g>
		<g>
			<g>
				<line class="st3" x1="45.9" y1="72.8" x2="54.9" y2="72.8"/>
				<g>
					<path class="st1" d="M62.8,72.8c-3.7,1.4-8.3,3.7-11.1,6.2l2.2-6.2l-2.2-6.2C54.5,69.1,59.2,71.5,62.8,72.8z"/>
				</g>
			</g>
		</g>
		<g>
			<g>
				<line class="st3" x1="157" y1="74.2" x2="148" y2="74.2"/>
				<g>
					<path class="st1" d="M140.1,74.2c3.7-1.4,8.3-3.7,11.1-6.2l-2.2,6.2l2.2,6.2C148.5,77.9,143.9,75.6,140.1,74.2z"/>
				</g>
			</g>
		</g>
		<g>
			<g>
				<line class="st3" x1="65.7" y1="37.7" x2="69.9" y2="42"/>
				<g>
					<path class="st1" d="M75.4,47.5c-3.6-1.6-8.5-3.2-12.2-3.5l6-2.8l2.8-6C72.2,39,73.8,43.9,75.4,47.5z"/>
				</g>
			</g>
		</g>
		<g>
			<g>
				<line class="st3" x1="137.4" y1="37.7" x2="133" y2="42"/>
				<g>
					<path class="st1" d="M127.5,47.5c1.6-3.6,3.2-8.5,3.5-12.2l2.8,6l6,2.8C136,44.3,131,45.9,127.5,47.5z"/>
				</g>
			</g>
		</g>
	</g>
	<g>
		<path class="st1" d="M101.4,106.1c-17.5,0-31.7-14.2-31.7-31.7s14.2-31.7,31.7-31.7s31.7,14.2,31.7,31.7S119,106.1,101.4,106.1z"
			/>
		<path class="st0" d="M101.4,43.7c16.9,0,30.7,13.8,30.7,30.7s-13.8,30.7-30.7,30.7S70.8,91.3,70.8,74.4S84.5,43.7,101.4,43.7
			 M101.4,41.7c-18.1,0-32.7,14.6-32.7,32.7s14.6,32.7,32.7,32.7s32.7-14.6,32.7-32.7S119.5,41.7,101.4,41.7L101.4,41.7z"/>
	</g>
	<g>
		<polygon class="st0" points="91.7,92.6 97.9,80.6 93.8,80.6 100.4,71.5 96.5,71.5 105.2,59.2 116.2,59.3 107.4,67.8 112.7,67.8 
			103.5,77.1 108.7,77.1 91.7,92.8 		"/>
	</g>
</g>
</svg>
