<?xml version="1.0" encoding="utf-8"?>
<!-- Generator: Adobe Illustrator 21.0.0, SVG Export Plug-In . SVG Version: 6.00 Build 0)  -->
<svg version="1.1" id="Layer_1" xmlns="http://www.w3.org/2000/svg" xmlns:xlink="http://www.w3.org/1999/xlink" x="0px" y="0px"
	 viewBox="0 0 203 189" style="enable-background:new 0 0 203 189;" xml:space="preserve">
<style type="text/css">
	.st0{fill:#FFFFFF;}
	.st1{fill:none;stroke:#FFFFFF;stroke-width:3;stroke-miterlimit:10;}
	.st2{fill:none;stroke:#FFFFFF;stroke-width:1.3;stroke-miterlimit:10;}
</style>
<g>
	<rect x="54.9" y="161.8" class="st0" width="93.2" height="7.8"/>
</g>
<g>
	<path class="st0" d="M93.2,114.7v15.4H74.7v-15.4L93.2,114.7 M96.2,111.7H71.7v21.4h24.5V111.7L96.2,111.7z"/>
</g>
<g>
	<path class="st0" d="M128.2,114.7V155h-18.5v-40.3H128.2 M131.2,111.7h-24.5V158h24.5V111.7L131.2,111.7z"/>
</g>
<g>
	<path class="st0" d="M124.3,90.5l20.8,16.2v48.1H57.9v-48.1l23.9-17.2l1-4.3l-27.9,20.2v52.6H148v-52.6l-21.7-16.9L124.3,90.5z"/>
</g>
<line class="st1" x1="79.4" y1="80.1" x2="41.3" y2="108.7"/>
<line class="st1" x1="161.6" y1="108.7" x2="123.6" y2="78.3"/>
<g>
	<g>
		<g>
			<line class="st2" x1="103.7" y1="36.3" x2="103.7" y2="27.2"/>
			<g>
				<path class="st0" d="M103.7,19.4c1.4,3.7,3.7,8.3,6.2,11.1l-6.2-2.2l-6.2,2.2C99.8,27.7,102.2,23.1,103.7,19.4z"/>
			</g>
		</g>
	</g>
	<g>
		<g>
			<line class="st2" x1="62.8" y1="72.8" x2="53.8" y2="72.8"/>
			<g>
				<path class="st0" d="M45.9,72.8c3.7-1.4,8.3-3.7,11.1-6.2l-2.2,6.2L57,79C54.2,76.5,49.7,74.2,45.9,72.8z"/>
			</g>
		</g>
	</g>
	<g>
		<g>
			<line class="st2" x1="140.1" y1="74.2" x2="149.1" y2="74.2"/>
			<g>
				<path class="st0" d="M157,74.2c-3.7,1.4-8.3,3.7-11.1,6.2l2.2-6.2l-2.2-6.2C148.8,70.5,153.4,72.9,157,74.2z"/>
			</g>
		</g>
	</g>
	<g>
		<g>
			<line class="st2" x1="75.4" y1="47.5" x2="71.2" y2="43.2"/>
			<g>
				<path class="st0" d="M65.7,37.7c3.6,1.6,8.5,3.2,12.2,3.5l-6,2.8L69,50C68.8,46.1,67.2,41.3,65.7,37.7z"/>
			</g>
		</g>
	</g>
	<g>
		<g>
			<line class="st2" x1="127.5" y1="47.5" x2="131.8" y2="43.2"/>
			<g>
				<path class="st0" d="M137.4,37.7c-1.6,3.6-3.2,8.5-3.5,12.2l-2.8-6l-6-2.8C128.9,40.9,133.8,39.3,137.4,37.7z"/>
			</g>
		</g>
	</g>
</g>
<path class="st0" d="M101.4,43.7c-16.9,0-30.6,13.8-30.6,30.7c0,16.9,13.7,30.7,30.6,30.7c16.9,0,30.7-13.8,30.7-30.7
	C132.1,57.5,118.3,43.7,101.4,43.7z M112.7,67.8l-9.2,9.3h5.2l-17,15.7v-0.2l6.2-12h-4.1l6.6-9.1h-3.9l8.7-12.3l11,0.1l-8.8,8.5
	H112.7z"/>
</svg>
