<?xml version="1.0" encoding="utf-8"?>
<!-- Generator: Adobe Illustrator 21.0.0, SVG Export Plug-In . SVG Version: 6.00 Build 0)  -->
<svg version="1.1" id="Layer_1" xmlns="http://www.w3.org/2000/svg" xmlns:xlink="http://www.w3.org/1999/xlink" x="0px" y="0px"
	 viewBox="0 0 203 189" style="enable-background:new 0 0 203 189;" xml:space="preserve">
<style type="text/css">
	.st0{fill:#FFFFFF;}
	.st1{fill:none;stroke:#FFFFFF;stroke-width:3;stroke-miterlimit:10;}
	.st2{font-family:'Roboto-Bold';}
	.st3{font-size:20px;}
</style>
<g>
	<path class="st0" d="M124.3,90.5l20.8,16.2v48.1H57.9v-48.1l23.9-17.2l1-4.3l-27.9,20.2v52.6H148v-52.6l-21.7-16.9L124.3,90.5z"/>
</g>
<g>
	<path class="st0" d="M93.2,114.7v15.4H74.7v-15.4L93.2,114.7 M96.2,111.7H71.7v21.4h24.5V111.7L96.2,111.7z"/>
</g>
<g>
	<path class="st0" d="M128.2,114.7V155h-18.5v-40.3H128.2 M131.2,111.7h-24.5V158h24.5V111.7L131.2,111.7z"/>
</g>
<line class="st1" x1="79.4" y1="80.1" x2="41.3" y2="108.7"/>
<line class="st1" x1="161.6" y1="108.7" x2="123.6" y2="78.3"/>
<g>
	<text transform="matrix(1 0 0 1 49.4885 80.5693)" class="st0 st2 st3">€</text>
	<text transform="matrix(1 0 0 1 140.5988 80.5693)" class="st0 st2 st3">€</text>
	<text transform="matrix(1 0 0 1 98.0812 34.4062)" class="st0 st2 st3">€</text>
	<text transform="matrix(1 0 0 1 62.8518 50.1992)" class="st0 st2 st3">€</text>
	<text transform="matrix(1 0 0 1 129.6652 50.1992)" class="st0 st2 st3">€</text>
</g>
<g>
	<rect x="54.7" y="163.9" class="st0" width="93.5" height="7.8"/>
</g>
<path class="st0" d="M101.4,45.3c-16.8,0-30.8,13.8-30.8,30.8s13.8,30.8,30.8,30.8s30.8-13.8,30.8-30.8S118.4,45.3,101.4,45.3z
	 M110.2,69.6l-9.1,9.3h5.1L89.1,94.6l0.1-0.1l6.2-12.1h-4.2l6.9-9.1h-4l8.7-12.4l11.1,0.2l-8.8,8.5H110.2z"/>
</svg>
