<?xml version="1.0" encoding="utf-8"?>
<!-- Generator: Adobe Illustrator 21.0.0, SVG Export Plug-In . SVG Version: 6.00 Build 0)  -->
<svg version="1.1" id="Capa_1" xmlns="http://www.w3.org/2000/svg" xmlns:xlink="http://www.w3.org/1999/xlink" x="0px" y="0px"
	 viewBox="0 0 539 477" style="enable-background:new 0 0 539 477;" xml:space="preserve">
<style type="text/css">
	.st0{fill:none;stroke:#FFFFFF;stroke-width:29;stroke-linecap:round;stroke-miterlimit:10;}
	.st1{fill:none;stroke:#FAD730;stroke-width:25;stroke-linecap:round;stroke-miterlimit:10;}
</style>
<g>
	<line class="st0" x1="78.7" y1="463" x2="463.3" y2="463"/>
	<line class="st0" x1="16" y1="402" x2="525.5" y2="402"/>
	<path class="st0" d="M128,402c0,0,17.8-142,143-142s141,142,141,142"/>
	<g>
		<line class="st0" x1="96.1" y1="337.4" x2="32.1" y2="311.3"/>
		<line class="st0" x1="137.7" y1="271.7" x2="59.7" y2="192.7"/>
		<line class="st0" x1="196.6" y1="231.5" x2="172.5" y2="166.7"/>
		<line class="st0" x1="271" y1="216" x2="271" y2="105"/>
	</g>
	<line class="st0" x1="445.9" y1="337.4" x2="509.9" y2="311.3"/>
	<line class="st0" x1="404.3" y1="271.7" x2="482.3" y2="192.7"/>
	<line class="st0" x1="345.4" y1="231.5" x2="369.5" y2="166.7"/>
	<g>
		<line class="st1" x1="468.1" y1="14" x2="468.1" y2="133.4"/>
		<line class="st1" x1="468.1" y1="133.4" x2="422.8" y2="75.9"/>
		<line class="st1" x1="514" y1="76.2" x2="468.1" y2="133.4"/>
	</g>
</g>
</svg>
