<svg id="Layer_1" data-name="Layer 1" xmlns="http://www.w3.org/2000/svg" viewBox="0 0 179 149.02"><defs><style>.cls-1,.cls-2{fill:#000028;}.cls-1{fill-rule:evenodd;}</style></defs><polygon class="cls-1" points="24.53 148.58 37.46 148.58 37.46 26.95 89.72 65.19 154.59 17.6 154.59 0 89.5 49.33 24.96 1.74 24.53 148.58"/><polygon class="cls-1" points="141.22 72.58 154.15 63.45 154.15 149.02 140.79 149.02 141.22 72.58"/><polygon class="cls-2" points="0.08 13.37 0 38.95 0 148.44 2.57 148.44 2.57 15.47 0.08 13.37"/><polygon class="cls-2" points="5.14 17.64 5.14 148.44 7.71 148.44 7.71 19.82 5.14 17.64"/><polygon class="cls-2" points="10.23 148.44 12.8 148.44 12.8 24.12 10.23 21.95 10.23 148.44"/><polygon class="cls-2" points="178.91 12.71 179 38.3 179 147.79 176.43 147.79 176.43 14.81 178.91 12.71"/><polygon class="cls-2" points="173.86 16.99 173.86 147.79 171.29 147.79 171.29 19.16 173.86 16.99"/><polygon class="cls-2" points="89.28 80.65 70.97 67.2 48.92 51.52 48.98 54.26 87.13 82.25 85.02 83.83 49.06 57.44 49.14 60.68 82.86 85.43 80.71 87.04 49.22 63.93 49.28 66.51 80.61 90.32 166.2 26.6 166.2 29.8 82.75 91.93 84.88 93.55 166.2 33 166.2 36.14 86.97 95.13 89.05 96.7 166.2 39.34 166.2 147.79 168.77 147.79 168.77 21.41 89.28 80.65"/></svg>