<?xml version="1.0" encoding="utf-8"?>
<!-- Generator: Adobe Illustrator 21.0.0, SVG Export Plug-In . SVG Version: 6.00 Build 0)  -->
<svg version="1.1" id="Layer_1" xmlns="http://www.w3.org/2000/svg" xmlns:xlink="http://www.w3.org/1999/xlink" x="0px" y="0px"
	 viewBox="0 0 231 348" style="enable-background:new 0 0 231 348;" xml:space="preserve">
<style type="text/css">
	.st0{opacity:0.7777;fill:#A43B2C;enable-background:new    ;}
	.st1{opacity:0.3466;fill:#8B1A12;enable-background:new    ;}
	.st2{fill:#D10000;}
</style>
<title>Group</title>
<desc>Created with Sketch.</desc>
<g id="Homes">
	<g id="Home-Sygris-LITE" transform="translate(0.000000, -676.000000)">
		<g id="menu-lateral-izq" transform="translate(0.000000, 39.000000)">
			<g id="Group" transform="translate(0.000000, 637.000000)">
				<path id="Path-2" class="st0" d="M0,72c42.4,2.1,71.5,15.3,87.5,39.4c23.9,36.2,23.2,62.2,48.6,62.2s38.9-16.1,49.6,0
					c7.2,10.7,22.3,24.1,45.3,40.3v131.4L0,346V72z"/>
				<path id="Path-2_1_" class="st1" d="M231,0c-42.4,2.1-71.5,15.3-87.5,39.4c-23.9,36.2-23.2,62.3-48.6,62.3s-38.9-16.1-49.6,0
					C38.1,112.4,23,125.8,0,142v204.3l231,0.8V0z"/>
				<path id="Path-3" class="st2" d="M0,348h231v-55.3c-26.1-6.4-44.7-9.7-55.6-9.7c-16.4,0-49.8,36.6-67,32.5s-63.6-6.7-77,4.7
					c-9,7.6-19.4,12.9-31.4,15.8V348z"/>
			</g>
		</g>
	</g>
</g>
</svg>
