<?xml version="1.0" encoding="utf-8"?>
<!-- Generator: Adobe Illustrator 24.1.0, SVG Export Plug-In . SVG Version: 6.00 Build 0)  -->
<svg version="1.1" id="Capa_1" xmlns="http://www.w3.org/2000/svg" xmlns:xlink="http://www.w3.org/1999/xlink" x="0px" y="0px"
	 viewBox="0 0 29 29" style="enable-background:new 0 0 29 29;" xml:space="preserve">
<style type="text/css">
	.st0{clip-path:url(#SVGID_2_);}
	.st1{fill:#FFFFFF;}
</style>
<g>
	<defs>
		<rect id="SVGID_1_" y="0" width="29" height="29"/>
	</defs>
	<clipPath id="SVGID_2_">
		<use xlink:href="#SVGID_1_"  style="overflow:visible;"/>
	</clipPath>
	<g class="st0">
		<path class="st1" d="M22.4,8.4c-0.2-0.5-0.4-0.8-0.8-1.2c-0.4-0.4-0.7-0.6-1.2-0.8c-0.4-0.1-0.9-0.3-1.9-0.3
			c-1.1,0-1.4-0.1-4.1-0.1s-3,0-4.1,0.1c-1,0-1.5,0.2-1.9,0.3C8.1,6.7,7.7,6.9,7.4,7.3C7,7.6,6.8,7.9,6.6,8.4
			c-0.1,0.4-0.3,0.9-0.3,1.9c0,1.1-0.1,1.4-0.1,4.1s0,3,0.1,4.1c0,1,0.2,1.5,0.3,1.9C6.8,20.7,7,21,7.4,21.4
			c0.4,0.4,0.7,0.6,1.2,0.8c0.4,0.1,0.9,0.3,1.9,0.3c1.1,0,1.4,0.1,4.1,0.1s3,0,4.1-0.1c1,0,1.5-0.2,1.9-0.3
			c0.5-0.2,0.8-0.4,1.2-0.8c0.4-0.4,0.6-0.7,0.8-1.2c0.1-0.4,0.3-0.9,0.3-1.9c0-1.1,0.1-1.4,0.1-4.1s0-3-0.1-4.1
			C22.7,9.3,22.5,8.8,22.4,8.4z M14.5,19.5c-2.9,0-5.2-2.3-5.2-5.2s2.3-5.2,5.2-5.2s5.2,2.3,5.2,5.2S17.3,19.5,14.5,19.5z
			 M19.9,10.2c-0.7,0-1.2-0.5-1.2-1.2c0-0.7,0.5-1.2,1.2-1.2s1.2,0.5,1.2,1.2C21.1,9.6,20.5,10.2,19.9,10.2z"/>
		<path class="st1" d="M0,0v29h29V0H0z M24.5,18.5c0,1.1-0.2,1.8-0.5,2.4c-0.3,0.7-0.6,1.2-1.2,1.8c-0.6,0.6-1.1,0.9-1.8,1.2
			c-0.6,0.2-1.4,0.4-2.4,0.5c-1.1,0-1.4,0.1-4.2,0.1s-3.1,0-4.2-0.1c-1.1,0-1.8-0.2-2.4-0.5c-0.7-0.3-1.2-0.6-1.8-1.2
			c-0.6-0.6-0.9-1.1-1.2-1.8c-0.2-0.6-0.4-1.4-0.5-2.4c0-1.1-0.1-1.4-0.1-4.1c0-2.7,0-3.1,0.1-4.1c0-1.1,0.2-1.8,0.5-2.4
			C5.2,7.1,5.5,6.5,6.1,6c0.6-0.6,1.1-0.9,1.8-1.2c0.6-0.2,1.4-0.4,2.4-0.5c1.1,0,1.4-0.1,4.2-0.1s3.1,0,4.2,0.1
			c1.1,0,1.8,0.2,2.4,0.5c0.7,0.3,1.2,0.6,1.8,1.2c0.6,0.6,0.9,1.1,1.2,1.8c0.2,0.6,0.4,1.4,0.5,2.4c0,1.1,0.1,1.4,0.1,4.1
			C24.6,17.1,24.6,17.4,24.5,18.5z"/>
		<path class="st1" d="M14.5,11c-1.9,0-3.4,1.5-3.4,3.3s1.5,3.3,3.4,3.3c1.9,0,3.4-1.5,3.4-3.3S16.3,11,14.5,11z"/>
	</g>
</g>
</svg>
