<?xml version="1.0" encoding="utf-8"?>
<!-- Generator: Adobe Illustrator 24.1.0, SVG Export Plug-In . SVG Version: 6.00 Build 0)  -->
<svg version="1.1" id="Capa_1" xmlns="http://www.w3.org/2000/svg" xmlns:xlink="http://www.w3.org/1999/xlink" x="0px" y="0px"
	 viewBox="0 0 29 29" style="enable-background:new 0 0 29 29;" xml:space="preserve">
<style type="text/css">
	.st0{fill:#FFFFFF;}
</style>
<path class="st0" d="M0,0v29h29V0H0z M9.5,22.5H5.8v-12h3.7V22.5z M7.6,8.8c-1.2,0-2.2-1-2.2-2.2c0-1.2,1-2.2,2.2-2.2
	c1.2,0,2.2,1,2.2,2.2S8.8,8.8,7.6,8.8z M23.5,22.5h-3.7v-5.8c0-1.4,0-3.2-1.9-3.2c-1.9,0-2.2,1.5-2.2,3.1v5.9h-3.7v-12h3.6v1.6h0.1
	c0.5-0.9,1.7-1.9,3.5-1.9c3.8,0,4.5,2.5,4.5,5.7V22.5L23.5,22.5z"/>
</svg>
