<?xml version="1.0" encoding="utf-8"?>
<!-- Generator: Adobe Illustrator 24.1.0, SVG Export Plug-In . SVG Version: 6.00 Build 0)  -->
<svg version="1.1" id="Capa_1" xmlns="http://www.w3.org/2000/svg" xmlns:xlink="http://www.w3.org/1999/xlink" x="0px" y="0px"
	 viewBox="0 0 29.1 29" style="enable-background:new 0 0 29.1 29;" xml:space="preserve">
<style type="text/css">
	.st0{clip-path:url(#SVGID_2_);}
	.st1{fill:#FFFFFF;}
</style>
<g>
	<defs>
		<rect id="SVGID_1_" y="0" width="29" height="29"/>
	</defs>
	<clipPath id="SVGID_2_">
		<use xlink:href="#SVGID_1_"  style="overflow:visible;"/>
	</clipPath>
	<g class="st0">
		<path class="st1" d="M12.4,16.8l5.4-2.8l-5.4-2.8V16.8z"/>
		<path class="st1" d="M0,0v29h29V0H0z M24.5,14.9c0,1.6-0.2,3.2-0.2,3.2s-0.2,1.4-0.8,2c-0.8,0.8-1.6,0.8-2,0.8
			c-2.8,0.2-7,0.2-7,0.2s-5.2,0-6.8-0.2c-0.4-0.1-1.4-0.1-2.2-0.9c-0.6-0.6-0.8-2-0.8-2s-0.2-1.6-0.2-3.2v-1.5
			c0-1.6,0.2-3.2,0.2-3.2s0.2-1.4,0.8-2c0.8-0.8,1.6-0.8,2-0.8c2.8-0.2,7-0.2,7-0.2h0c0,0,4.2,0,7,0.2c0.4,0,1.2,0.1,2,0.8
			c0.6,0.6,0.8,2,0.8,2s0.2,1.6,0.2,3.2V14.9z"/>
	</g>
</g>
</svg>
