<?xml version="1.0" encoding="utf-8"?>
<!-- Generator: Adobe Illustrator 24.1.0, SVG Export Plug-In . SVG Version: 6.00 Build 0)  -->
<svg version="1.1" id="Capa_1" xmlns="http://www.w3.org/2000/svg" xmlns:xlink="http://www.w3.org/1999/xlink" x="0px" y="0px"
	 viewBox="0 0 29.1 29" style="enable-background:new 0 0 29.1 29;" xml:space="preserve">
<style type="text/css">
	.st0{fill:#FFFFFF;}
</style>
<path class="st0" d="M0,0v29h29V0H0z M22.8,10.5c0,0.2,0,0.4,0,0.6c0,5.8-4.4,12.4-12.4,12.4c-2.5,0-4.7-0.7-6.7-2
	c0.3,0,0.7,0.1,1,0.1c2,0,3.9-0.7,5.4-1.9c-1.9,0-3.5-1.3-4.1-3c0.3,0.1,0.5,0.1,0.8,0.1c0.4,0,0.8-0.1,1.1-0.2
	c-2-0.4-3.5-2.2-3.5-4.3c0,0,0,0,0-0.1c0.6,0.3,1.3,0.5,2,0.5C5.4,12,4.6,10.7,4.6,9.2c0-0.8,0.2-1.5,0.6-2.2c2.1,2.6,5.4,4.4,9,4.5
	c-0.1-0.3-0.1-0.7-0.1-1c0-2.4,1.9-4.4,4.4-4.4c1.3,0,2.4,0.5,3.2,1.4c1-0.2,1.9-0.6,2.8-1.1c-0.3,1-1,1.9-1.9,2.4
	c0.9-0.1,1.7-0.3,2.5-0.7C24.4,9.1,23.6,9.9,22.8,10.5L22.8,10.5z"/>
</svg>
