<svg width="56" height="113" viewBox="0 0 56 113" fill="none" xmlns="http://www.w3.org/2000/svg">
<path d="M9.48829 112H1V1H55V112H46.5117" stroke="#004254" stroke-width="2" stroke-linecap="round"/>
<path d="M38.4745 44.491C37.9222 44.491 37.4745 44.9387 37.4745 45.491C37.4745 46.0433 37.9222 46.491 38.4745 46.491V44.491ZM41.9059 46.491C42.4582 46.491 42.9059 46.0433 42.9059 45.491C42.9059 44.9387 42.4582 44.491 41.9059 44.491V46.491ZM16.441 65.5992C15.8888 65.5992 15.441 66.0469 15.441 66.5992C15.441 67.1515 15.8888 67.5992 16.441 67.5992V65.5992ZM8.48787 111.454C8.48787 112.006 8.93559 112.454 9.48787 112.454C10.0402 112.454 10.4879 112.006 10.4879 111.454H8.48787ZM9.48787 85.0688H10.4879C10.4879 85.0585 10.4877 85.0482 10.4874 85.0378L9.48787 85.0688ZM14.635 79.5188V78.5188C14.6245 78.5188 14.614 78.519 14.6036 78.5193L14.635 79.5188ZM18.3374 79.5188L18.3688 78.5193C18.3584 78.519 18.3479 78.5188 18.3374 78.5188V79.5188ZM23.4845 85.0688L22.485 85.0388C22.4847 85.0488 22.4845 85.0588 22.4845 85.0688H23.4845ZM23.4845 112H22.4845C22.4845 112.552 22.9322 113 23.4845 113V112ZM32.5146 113C33.0669 113 33.5146 112.552 33.5146 112C33.5146 111.448 33.0669 111 32.5146 111V113ZM39.5581 65.5992C39.0058 65.5992 38.5581 66.0469 38.5581 66.5992C38.5581 67.1515 39.0058 67.5992 39.5581 67.5992V65.5992ZM31.5146 112C31.5146 112.552 31.9623 113 32.5146 113C33.0669 113 33.5146 112.552 33.5146 112H31.5146ZM32.5146 85.1598H33.5146C33.5146 85.1495 33.5145 85.1392 33.5141 85.1288L32.5146 85.1598ZM37.6618 79.6098V78.6098C37.6513 78.6098 37.6408 78.61 37.6303 78.6103L37.6618 79.6098ZM41.3641 79.6098L41.3956 78.6103C41.3851 78.61 41.3746 78.6098 41.3641 78.6098V79.6098ZM46.5113 85.1598L45.5117 85.1298C45.5114 85.1398 45.5113 85.1498 45.5113 85.1598H46.5113ZM45.5113 112C45.5113 112.552 45.959 113 46.5113 113C47.0636 113 47.5113 112.552 47.5113 112H45.5113ZM31.7019 57.4098L32.6997 57.4759C32.7012 57.4539 32.7019 57.4319 32.7019 57.4098H31.7019ZM34.3206 48.4025L33.3941 48.0263C33.3922 48.031 33.3903 48.0357 33.3885 48.0404L34.3206 48.4025ZM34.2303 42.2156L35.1345 41.7883C35.1288 41.7762 35.1229 41.7643 35.1167 41.7526L34.2303 42.2156ZM24.9293 39.0311L25.3549 39.9361L25.3601 39.9336L24.9293 39.0311ZM21.7688 42.2156L20.885 41.7477C20.8779 41.7611 20.8712 41.7746 20.8647 41.7883L21.7688 42.2156ZM21.6785 48.4025L22.6238 48.0761C22.6138 48.0473 22.6026 48.019 22.59 47.9912L21.6785 48.4025ZM24.2972 54.4984H25.2972C25.2972 54.4856 25.297 54.4729 25.2965 54.4602L24.2972 54.4984ZM24.2972 57.4098H25.2972H24.2972ZM24.4778 54.4082C23.9256 54.4082 23.4778 54.8559 23.4778 55.4082C23.4778 55.9605 23.9256 56.4082 24.4778 56.4082V54.4082ZM31.6116 56.4082C32.1639 56.4082 32.6116 55.9605 32.6116 55.4082C32.6116 54.8559 32.1639 54.4082 31.6116 54.4082V56.4082ZM13.5514 44.491C12.9991 44.491 12.5514 44.9387 12.5514 45.491C12.5514 46.0433 12.9991 46.491 13.5514 46.491V44.491ZM16.8023 46.491C17.3545 46.491 17.8023 46.0433 17.8023 45.491C17.8023 44.9387 17.3545 44.491 16.8023 44.491V46.491ZM26.9093 33.9361C26.9093 34.4883 27.357 34.9361 27.9093 34.9361C28.4616 34.9361 28.9093 34.4883 28.9093 33.9361H26.9093ZM28.9093 30.7516C28.9093 30.1993 28.4616 29.7516 27.9093 29.7516C27.357 29.7516 26.9093 30.1993 26.9093 30.7516H28.9093ZM18.4011 34.5826C18.0044 34.1983 17.3713 34.2083 16.987 34.605C16.6028 35.0017 16.6128 35.6347 17.0094 36.019L18.4011 34.5826ZM19.3573 38.2936C19.7539 38.6779 20.387 38.6679 20.7713 38.2712C21.1556 37.8746 21.1456 37.2415 20.7489 36.8572L19.3573 38.2936ZM38.8091 36.019C39.2058 35.6347 39.2158 35.0017 38.8315 34.605C38.4472 34.2083 37.8141 34.1983 37.4175 34.5826L38.8091 36.019ZM35.0696 36.8572C34.673 37.2415 34.663 37.8746 35.0472 38.2712C35.4315 38.6679 36.0646 38.6779 36.4613 38.2936L35.0696 36.8572ZM38.4745 46.491H41.9059V44.491H38.4745V46.491ZM20.5882 71.7852C20.5882 74.0606 18.681 75.9713 16.441 75.9713V77.9713C19.7998 77.9713 22.5882 75.1509 22.5882 71.7852H20.5882ZM16.441 75.9713C14.2011 75.9713 12.2939 74.0606 12.2939 71.7852H10.2939C10.2939 75.1509 13.0823 77.9713 16.441 77.9713V75.9713ZM12.2939 71.7852C12.2939 69.5099 14.2011 67.5992 16.441 67.5992V65.5992C13.0823 65.5992 10.2939 68.4196 10.2939 71.7852H12.2939ZM16.441 67.5992C18.7713 67.5992 20.5882 69.4189 20.5882 71.7852H22.5882C22.5882 68.3286 19.8901 65.5992 16.441 65.5992V67.5992ZM10.4879 111.454V85.0688H8.48787V111.454H10.4879ZM10.4874 85.0378C10.4138 82.6642 12.3426 80.5915 14.6665 80.5183L14.6036 78.5193C11.1482 78.6281 8.38137 81.6505 8.48835 85.0998L10.4874 85.0378ZM14.635 80.5188H18.3374V78.5188H14.635V80.5188ZM18.3059 80.5183C20.6399 80.5918 22.5588 82.5836 22.485 85.0388L24.4841 85.0989C24.5908 81.5491 21.8141 78.6278 18.3688 78.5193L18.3059 80.5183ZM22.4845 85.0688V112H24.4845V85.0688H22.4845ZM23.4845 113H32.5146V111H23.4845V113ZM43.7053 71.7852C43.7053 74.1515 41.8884 75.9713 39.5581 75.9713V77.9713C43.0071 77.9713 45.7053 75.2419 45.7053 71.7852H43.7053ZM39.5581 75.9713C37.2278 75.9713 35.4109 74.1515 35.4109 71.7852H33.4109C33.4109 75.2419 36.1091 77.9713 39.5581 77.9713V75.9713ZM35.4109 71.7852C35.4109 69.4189 37.2278 67.5992 39.5581 67.5992V65.5992C36.1091 65.5992 33.4109 68.3286 33.4109 71.7852H35.4109ZM39.5581 67.5992C41.8095 67.5992 43.7053 69.4304 43.7053 71.7852H45.7053C45.7053 68.3172 42.9054 65.5992 39.5581 65.5992V67.5992ZM33.5146 112V85.1598H31.5146V112H33.5146ZM33.5141 85.1288C33.4405 82.7552 35.3693 80.6825 37.6933 80.6093L37.6303 78.6103C34.175 78.7191 31.4081 81.7415 31.5151 85.1908L33.5141 85.1288ZM37.6618 80.6098H41.3641V78.6098H37.6618V80.6098ZM41.3327 80.6093C43.6667 80.6828 45.5856 82.6746 45.5117 85.1298L47.5108 85.1899C47.6176 81.6401 44.8409 78.7188 41.3956 78.6103L41.3327 80.6093ZM45.5113 85.1598V112H47.5113V85.1598H45.5113ZM27.9093 59.7746H30.3474V57.7746H27.9093V59.7746ZM30.3474 59.7746C31.4385 59.7746 32.0745 59.1421 32.3826 58.56C32.527 58.2872 32.6034 58.0252 32.6446 57.8384C32.6657 57.7429 32.6788 57.6612 32.6869 57.5997C32.691 57.5688 32.6939 57.5425 32.6959 57.5217C32.6969 57.5113 32.6977 57.5023 32.6983 57.4946C32.6987 57.4907 32.6989 57.4873 32.6992 57.4841C32.6993 57.4826 32.6994 57.4811 32.6995 57.4797C32.6995 57.479 32.6996 57.4784 32.6996 57.4777C32.6996 57.4774 32.6997 57.4769 32.6997 57.4768C32.6997 57.4763 32.6997 57.4759 31.7019 57.4098C30.7041 57.3438 30.7041 57.3434 30.7042 57.3429C30.7042 57.3428 30.7042 57.3423 30.7042 57.3421C30.7043 57.3415 30.7043 57.341 30.7043 57.3404C30.7044 57.3394 30.7045 57.3384 30.7045 57.3375C30.7047 57.3357 30.7048 57.3342 30.7049 57.3329C30.7051 57.3304 30.7052 57.329 30.7053 57.3286C30.7053 57.3278 30.7051 57.3309 30.7042 57.3373C30.7025 57.3504 30.6987 57.3753 30.6915 57.4077C30.6763 57.4768 30.6511 57.556 30.6149 57.6244C30.5795 57.6913 30.5471 57.7227 30.5262 57.7371C30.515 57.7448 30.4718 57.7746 30.3474 57.7746V59.7746ZM32.7019 57.4098V54.4984H30.7019V57.4098H32.7019ZM32.7019 54.4984C32.7019 53.6295 33.044 52.8169 33.577 51.8744C34.0714 51.0001 34.8118 49.9 35.2528 48.7645L33.3885 48.0404C33.0168 48.9976 32.4478 49.8081 31.8361 50.8899C31.2629 51.9036 30.7019 53.0926 30.7019 54.4984H32.7019ZM35.2472 48.7786C36.1555 46.5415 36.1675 43.9741 35.1345 41.7883L33.3262 42.6429C34.0992 44.2784 34.1112 46.2601 33.3941 48.0263L35.2472 48.7786ZM35.1167 41.7526C33.0667 37.828 28.4259 36.2543 24.4986 38.1287L25.3601 39.9336C28.2957 38.5325 31.782 39.6883 33.344 42.6786L35.1167 41.7526ZM24.5038 38.1262C22.9077 38.8767 21.6824 40.2413 20.885 41.7477L22.6526 42.6834C23.3 41.4603 24.2419 40.4594 25.3548 39.9361L24.5038 38.1262ZM20.8647 41.7883C19.8444 43.947 19.736 46.5284 20.767 48.8137L22.59 47.9912C21.815 46.2732 21.8872 44.3054 22.6729 42.6429L20.8647 41.7883ZM20.7332 48.7288C21.1352 49.893 21.8558 50.9688 22.3569 51.8447C22.8912 52.7785 23.2624 53.6045 23.298 54.5365L25.2965 54.4602C25.2418 53.0266 24.6648 51.851 24.0929 50.8514C23.4878 49.7939 22.9443 49.0045 22.6238 48.0761L20.7332 48.7288ZM23.2972 54.4984V57.4098H25.2972V54.4984H23.2972ZM24.2972 57.4098C23.2972 57.4098 23.2972 57.4103 23.2972 57.4108C23.2972 57.4109 23.2972 57.4114 23.2972 57.4117C23.2972 57.4124 23.2972 57.413 23.2972 57.4137C23.2972 57.4151 23.2973 57.4166 23.2973 57.4182C23.2973 57.4213 23.2973 57.4248 23.2974 57.4287C23.2975 57.4364 23.2977 57.4455 23.298 57.456C23.2987 57.4769 23.2998 57.5034 23.3019 57.5345C23.306 57.5964 23.3138 57.679 23.3287 57.7757C23.3578 57.964 23.4178 58.2317 23.5479 58.5125C23.6789 58.7953 23.8945 59.1197 24.2464 59.373C24.6086 59.6336 25.0539 59.7746 25.5615 59.7746V57.7746C25.4942 57.7746 25.4561 57.7657 25.4389 57.7604C25.4225 57.7553 25.4164 57.7509 25.4147 57.7497C25.4111 57.7471 25.3897 57.7303 25.3627 57.6719C25.3347 57.6115 25.3157 57.538 25.3053 57.4705C25.3005 57.4392 25.2984 57.4151 25.2975 57.4024C25.2971 57.3963 25.297 57.3934 25.2971 57.3943C25.2971 57.3948 25.2971 57.3963 25.2972 57.3988C25.2972 57.4001 25.2972 57.4016 25.2972 57.4035C25.2972 57.4044 25.2972 57.4054 25.2972 57.4064C25.2972 57.407 25.2972 57.4075 25.2972 57.4081C25.2972 57.4084 25.2972 57.4088 25.2972 57.4089C25.2972 57.4094 25.2972 57.4098 24.2972 57.4098ZM25.5615 59.7746H27.9093V57.7746H25.5615V59.7746ZM24.4778 56.4082H31.6116V54.4082H24.4778V56.4082ZM13.5514 46.491H16.8023V44.491H13.5514V46.491ZM28.9093 33.9361V30.7516H26.9093V33.9361H28.9093ZM17.0094 36.019L19.3573 38.2936L20.7489 36.8572L18.4011 34.5826L17.0094 36.019ZM37.4175 34.5826L35.0696 36.8572L36.4613 38.2936L38.8091 36.019L37.4175 34.5826Z" fill="#004254"/>
</svg>
