<?xml version="1.0" encoding="utf-8"?>
<!-- Generator: Adobe Illustrator 21.0.0, SVG Export Plug-In . SVG Version: 6.00 Build 0)  -->
<svg version="1.1" id="Layer_1" xmlns="http://www.w3.org/2000/svg" xmlns:xlink="http://www.w3.org/1999/xlink" x="0px" y="0px"
	 viewBox="0 0 77 106" style="enable-background:new 0 0 77 106;" xml:space="preserve">
<style type="text/css">
	.st0{fill:#FF0000;}
</style>
<g>
	<g>
		<rect x="2" y="103.5" class="st0" width="73.9" height="2"/>
	</g>
	<g>
		<polygon class="st0" points="13,105 11.3,103.9 47.2,50.9 48.9,51.1 66.6,104.2 64.7,104.8 47.7,53.7 		"/>
	</g>
	<g>
		<polygon class="st0" points="64.9,105 30.6,53.6 13.1,104.8 11.2,104.2 29.4,51.1 31.1,50.9 66.5,103.9 		"/>
	</g>
	<g>
		<polygon class="st0" points="1.4,52.5 -0.1,51.2 10.1,39.7 11.6,39.7 20.6,50.3 29.1,39.7 30.7,39.7 38.7,50.3 47.7,39.7 
			49.2,39.7 57.3,50.3 66.3,39.7 67.8,39.7 77.1,51.2 75.5,52.5 67,41.9 58,52.5 56.5,52.5 48.4,41.9 39.5,52.5 37.9,52.5 29.8,42 
			21.3,52.5 19.8,52.5 10.8,41.9 		"/>
	</g>
	<g>
		<polygon class="st0" points="69.3,24.2 61.4,13.8 55,24.1 53.4,24.1 46.6,13.8 39.5,24.1 37.9,24.1 31.6,13.9 24.9,24.1 
			23.3,24.1 16.5,13.8 9,24.1 7.4,23 15.8,11.5 17.4,11.5 24.1,21.7 30.8,11.5 32.5,11.5 38.8,21.7 45.8,11.5 47.5,11.5 54.2,21.7 
			60.4,11.5 62.1,11.4 70.9,22.9 		"/>
	</g>
	<g>
		<polygon class="st0" points="33.8,13 32.1,12 38.3,0.5 40,0.5 45.8,12 44,12.9 39.1,3.2 		"/>
	</g>
	<g>
		<path class="st0" d="M47.3,41.1l-8.4-8.2l-8.4,8.2l-1.7-0.7V22.7l1.7-0.7l8.4,8.2l8.4-8.2l1.7,0.7v17.7L47.3,41.1z M40.4,31.5
			L47,38V25L40.4,31.5z M30.9,25v13l6.6-6.5L30.9,25z"/>
	</g>
	<g>
		<rect x="1.1" y="50.4" class="st0" width="75.2" height="2"/>
	</g>
	<g>
		<rect x="8.6" y="21.7" class="st0" width="61.5" height="2"/>
	</g>
	<g>
		<rect x="10.8" y="39.4" class="st0" width="56.2" height="2"/>
	</g>
	<g>
		<rect x="16.1" y="11.5" class="st0" width="46" height="2"/>
	</g>
</g>
</svg>
