<?xml version="1.0" encoding="utf-8"?>
<!-- Generator: Adobe Illustrator 21.0.0, SVG Export Plug-In . SVG Version: 6.00 Build 0)  -->
<svg version="1.1" id="Layer_1" xmlns="http://www.w3.org/2000/svg" xmlns:xlink="http://www.w3.org/1999/xlink" x="0px" y="0px"
	 viewBox="0 0 77 106" style="enable-background:new 0 0 77 106;" xml:space="preserve">
<g>
	<g>
		<path d="M58.2,100.3H18.8c-9,0-16.3-7.3-16.3-16.3V22.1c0-9,7.3-16.3,16.3-16.3h39.3c9,0,16.3,7.3,16.3,16.3V84
			C74.5,93,67.2,100.3,58.2,100.3z M18.8,7.7C10.9,7.7,4.5,14.1,4.5,22v61.9c0,7.9,6.4,14.3,14.3,14.3h39.3
			c7.9,0,14.3-6.4,14.3-14.3V22.1c0-7.9-6.4-14.3-14.3-14.3H18.8V7.7z"/>
	</g>
	<g>
		<path d="M38.7,17.9c-2.3,0-4.2-1.9-4.2-4.2s1.9-4.2,4.2-4.2s4.2,1.9,4.2,4.2S41,17.9,38.7,17.9z M38.7,11.5c-1.2,0-2.2,1-2.2,2.2
			s1,2.2,2.2,2.2s2.2-1,2.2-2.2S39.9,11.5,38.7,11.5z"/>
	</g>
	<g>
		<path d="M38.7,84.1c-2.3,0-4.2-1.9-4.2-4.2s1.9-4.2,4.2-4.2s4.2,1.9,4.2,4.2S41,84.1,38.7,84.1z M38.7,77.7c-1.2,0-2.2,1-2.2,2.2
			s1,2.2,2.2,2.2s2.2-1,2.2-2.2S39.9,77.7,38.7,77.7z"/>
	</g>
	<g>
		<path d="M13.2,34.1h-1.7c-1.8,0-3.3-1.5-3.3-3.3v-4c0-1.8,1.5-3.3,3.3-3.3h1.7c1.8,0,3.3,1.5,3.3,3.3v4
			C16.5,32.6,15,34.1,13.2,34.1z M11.5,25.4c-0.7,0-1.3,0.6-1.3,1.3v4c0,0.7,0.6,1.3,1.3,1.3h1.7c0.7,0,1.3-0.6,1.3-1.3v-4
			c0-0.7-0.6-1.3-1.3-1.3H11.5z"/>
	</g>
	<g>
		<path d="M23.7,34.1H22c-1.8,0-3.3-1.5-3.3-3.3v-4c0-1.8,1.5-3.3,3.3-3.3h1.7c1.8,0,3.3,1.5,3.3,3.3v4
			C27.1,32.6,25.6,34.1,23.7,34.1z M22,25.4c-0.7,0-1.3,0.6-1.3,1.3v4c0,0.7,0.6,1.3,1.3,1.3h1.7c0.7,0,1.3-0.6,1.3-1.3v-4
			c0-0.7-0.6-1.3-1.3-1.3H22z"/>
	</g>
	<g>
		<path d="M34.3,34.1h-1.7c-1.8,0-3.3-1.5-3.3-3.3v-4c0-1.8,1.5-3.3,3.3-3.3h1.7c1.8,0,3.3,1.5,3.3,3.3v4
			C37.6,32.6,36.1,34.1,34.3,34.1z M32.6,25.4c-0.7,0-1.3,0.6-1.3,1.3v4c0,0.7,0.6,1.3,1.3,1.3h1.7c0.7,0,1.3-0.6,1.3-1.3v-4
			c0-0.7-0.6-1.3-1.3-1.3H32.6z"/>
	</g>
	<g>
		<path d="M44.8,34.1h-1.7c-1.8,0-3.3-1.5-3.3-3.3v-4c0-1.8,1.5-3.3,3.3-3.3h1.7c1.8,0,3.3,1.5,3.3,3.3v4
			C48.2,32.6,46.7,34.1,44.8,34.1z M43.1,25.4c-0.7,0-1.3,0.6-1.3,1.3v4c0,0.7,0.6,1.3,1.3,1.3h1.7c0.7,0,1.3-0.6,1.3-1.3v-4
			c0-0.7-0.6-1.3-1.3-1.3H43.1z"/>
	</g>
	<g>
		<path d="M55.3,34.1h-1.7c-1.8,0-3.3-1.5-3.3-3.3v-4c0-1.8,1.5-3.3,3.3-3.3h1.7c1.8,0,3.3,1.5,3.3,3.3v4
			C58.7,32.6,57.2,34.1,55.3,34.1z M53.6,25.4c-0.7,0-1.3,0.6-1.3,1.3v4c0,0.7,0.6,1.3,1.3,1.3h1.7c0.7,0,1.3-0.6,1.3-1.3v-4
			c0-0.7-0.6-1.3-1.3-1.3H53.6z"/>
	</g>
	<g>
		<path d="M65.9,34.1h-1.7c-1.8,0-3.3-1.5-3.3-3.3v-4c0-1.8,1.5-3.3,3.3-3.3h1.7c1.8,0,3.3,1.5,3.3,3.3v4
			C69.2,32.6,67.7,34.1,65.9,34.1z M64.2,25.4c-0.7,0-1.3,0.6-1.3,1.3v4c0,0.7,0.6,1.3,1.3,1.3h1.7c0.7,0,1.3-0.6,1.3-1.3v-4
			c0-0.7-0.6-1.3-1.3-1.3H64.2z"/>
	</g>
	<g>
		<path d="M55.5,51H23.4c-1.8,0-3.2-1.4-3.2-3.2v-5c0-1.8,1.4-3.2,3.2-3.2h32.1c1.8,0,3.2,1.4,3.2,3.2v5C58.7,49.5,57.2,51,55.5,51z
			 M23.4,41.6c-0.7,0-1.2,0.5-1.2,1.2v5c0,0.7,0.5,1.2,1.2,1.2h32.1c0.7,0,1.2-0.5,1.2-1.2v-5c0-0.7-0.5-1.2-1.2-1.2H23.4z"/>
	</g>
	<g>
		<path d="M30.2,51c-0.6,0-1-0.4-1-1v-9.4c0-0.6,0.4-1,1-1s1,0.4,1,1V50C31.2,50.5,30.8,51,30.2,51z"/>
	</g>
	<g>
		<path d="M57.7,46.1H30.2c-0.6,0-1-0.4-1-1s0.4-1,1-1h27.5c0.6,0,1,0.4,1,1S58.2,46.1,57.7,46.1z"/>
	</g>
	<g>
		<path d="M57.7,58.5H21.2c-0.6,0-1-0.4-1-1s0.4-1,1-1h36.5c0.6,0,1,0.4,1,1S58.2,58.5,57.7,58.5z"/>
	</g>
	<g>
		<path d="M48.7,63H30.2c-0.6,0-1-0.4-1-1s0.4-1,1-1h18.4c0.6,0,1,0.4,1,1S49.2,63,48.7,63z"/>
	</g>
	<g>
		<path d="M67.5,89.3H9.9c-1,0-1.7-0.8-1.7-1.7V68.1c0-0.6,0.4-1,1-1s1,0.4,1,1v19.2h57.1V68.1c0-0.6,0.4-1,1-1s1,0.4,1,1v19.5
			C69.2,88.5,68.5,89.3,67.5,89.3z"/>
	</g>
	<g>
		<path d="M62.8,69.1h-49c-0.6,0-1-0.4-1-1s0.4-1,1-1h49c9.7,0,9.7-1.6,9.7-5.4v-4.1c0-0.6,0.4-1,1-1s1,0.4,1,1v4.1
			C74.5,66.9,73.4,69.1,62.8,69.1z"/>
	</g>
	<g>
		<path d="M14.3,69.1C3.6,69.1,2.6,67,2.6,61.7v-4.1c0-0.6,0.4-1,1-1s1,0.4,1,1v4.1c0,3.8,0,5.4,9.7,5.4c0.6,0,1,0.4,1,1
			S14.8,69.1,14.3,69.1z"/>
	</g>
</g>
</svg>
