<svg width="24" height="24" viewBox="0 0 24 24" fill="none" xmlns="http://www.w3.org/2000/svg">
<path d="M6.86028 19.5125C6.44545 19.5125 6.09353 19.3744 5.80453 19.0983C5.51553 18.8221 5.37103 18.4765 5.37103 18.0615C5.37103 17.7647 5.45478 17.499 5.62228 17.2645C5.78995 17.0298 6.00811 16.8554 6.27678 16.7413L10.3103 15.1538V12.0528C9.26295 13.3009 8.20445 14.2077 7.13478 14.773C6.06528 15.3385 4.84978 15.6565 3.48828 15.727V14.3183C4.54128 14.2863 5.51911 14.0358 6.42178 13.5668C7.32445 13.0979 8.14145 12.4328 8.87278 11.5713L10.2028 10.0105C10.3604 9.82784 10.5527 9.68176 10.7795 9.57226C11.0065 9.46259 11.2466 9.40775 11.4998 9.40775H12.4998C12.7529 9.40775 12.993 9.46259 13.22 9.57226C13.4469 9.68176 13.6391 9.82784 13.7968 10.0105L15.1268 11.5713C15.8581 12.4328 16.6751 13.0979 17.5778 13.5668C18.4804 14.0358 19.4583 14.2863 20.5113 14.3183V15.727C19.1498 15.6565 17.9343 15.3385 16.8648 14.773C15.7951 14.2077 14.7366 13.3009 13.6893 12.0528V15.1538L17.7228 16.7413C17.9914 16.8554 18.2096 17.0298 18.3773 17.2645C18.5448 17.499 18.6285 17.7653 18.6285 18.0635C18.6285 18.4763 18.484 18.821 18.195 19.0975C17.906 19.3742 17.5541 19.5125 17.1393 19.5125H10.02V19.2065C10.02 18.8053 10.1475 18.4775 10.4025 18.223C10.6577 17.9685 10.9844 17.8413 11.3825 17.8413H14.479C14.621 17.8413 14.7366 17.7971 14.8258 17.7088C14.9148 17.6204 14.9593 17.5047 14.9593 17.3615C14.9593 17.2183 14.9151 17.1026 14.8268 17.0143C14.7384 16.9259 14.6227 16.8818 14.4795 16.8818H11.3855C10.7124 16.8818 10.1565 17.101 9.71803 17.5395C9.27953 17.9778 9.06028 18.5333 9.06028 19.2058V19.5125H6.86028ZM11.9998 8.2155C11.4966 8.2155 11.0699 8.04034 10.7195 7.69C10.3692 7.33967 10.194 6.91292 10.194 6.40975C10.194 5.90642 10.3692 5.47959 10.7195 5.12925C11.0699 4.77909 11.4966 4.604 11.9998 4.604C12.5029 4.604 12.9297 4.77909 13.28 5.12925C13.6304 5.47959 13.8055 5.90642 13.8055 6.40975C13.8055 6.91292 13.6304 7.33967 13.28 7.69C12.9297 8.04034 12.5029 8.2155 11.9998 8.2155Z" fill="#881F67"/>
</svg>
