<?xml version="1.0" encoding="utf-8"?>
<!-- Generator: Adobe Illustrator 28.3.0, SVG Export Plug-In . SVG Version: 6.00 Build 0)  -->
<svg version="1.1" id="Livello_1" xmlns="http://www.w3.org/2000/svg" xmlns:xlink="http://www.w3.org/1999/xlink" x="0px" y="0px"
	 viewBox="0 0 24 24" style="enable-background:new 0 0 24 24;" xml:space="preserve">
<style type="text/css">
	.st0{fill:none;}
	.st1{fill:#F6F7F9;}
</style>
<rect class="st0" width="24" height="24"/>
<path class="st1" d="M9.7,13.7l0.9-2.9L8.3,9h2.9l0.9-2.8L13,9h2.9l-2.5,1.8l0.9,2.9L12,11.9L9.7,13.7z M6,23v-7.7
	c-0.6-0.7-1.1-1.5-1.5-2.4S4,11,4,10c0-2.2,0.8-4.1,2.3-5.7C7.8,2.8,9.7,2,12,2s4.1,0.8,5.7,2.3C19.2,5.9,20,7.7,20,10
	c0,1-0.2,2-0.5,2.9s-0.8,1.7-1.5,2.4V23l-6-2L6,23z M12,16c1.7,0,3.1-0.6,4.2-1.8C17.4,13,18,11.6,18,10c0-1.7-0.6-3.1-1.8-4.2
	C15,4.6,13.6,4,12,4S8.9,4.6,7.8,5.8C6.6,7,6,8.4,6,10c0,1.7,0.6,3.1,1.8,4.2C8.9,15.4,10.3,16,12,16z M8,20l4-1l4,1v-3.1
	c-0.6,0.3-1.2,0.6-1.9,0.8S12.7,18,12,18s-1.4-0.1-2.1-0.3S8.6,17.2,8,16.9V20z"/>
</svg>
