<svg width="32" height="32" viewBox="0 0 32 32" fill="none" xmlns="http://www.w3.org/2000/svg">
<g clip-path="url(#clip0_5003_3572)">
<path d="M15.875 24C15.9417 24 16.0083 23.9833 16.075 23.95C16.1417 23.9167 16.1917 23.8833 16.225 23.85L24.425 15.65C24.625 15.45 24.7708 15.225 24.8625 14.975C24.9542 14.725 25 14.475 25 14.225C25 13.9583 24.9542 13.7042 24.8625 13.4625C24.7708 13.2208 24.625 13.0083 24.425 12.825L20.175 8.575C19.9917 8.375 19.7792 8.22917 19.5375 8.1375C19.2958 8.04583 19.0417 8 18.775 8C18.525 8 18.275 8.04583 18.025 8.1375C17.775 8.22917 17.55 8.375 17.35 8.575L17.075 8.85L18.925 10.725C19.175 10.9583 19.3583 11.225 19.475 11.525C19.5917 11.825 19.65 12.1417 19.65 12.475C19.65 13.175 19.4125 13.7625 18.9375 14.2375C18.4625 14.7125 17.875 14.95 17.175 14.95C16.8417 14.95 16.5208 14.8917 16.2125 14.775C15.9042 14.6583 15.6333 14.4833 15.4 14.25L13.525 12.4L9.14999 16.775C9.09999 16.825 9.06249 16.8792 9.03749 16.9375C9.01249 16.9958 8.99999 17.0583 8.99999 17.125C8.99999 17.2583 9.04999 17.3792 9.14999 17.4875C9.24999 17.5958 9.36666 17.65 9.49999 17.65C9.56666 17.65 9.63332 17.6333 9.69999 17.6C9.76666 17.5667 9.81666 17.5333 9.84999 17.5L13.25 14.1L14.65 15.5L11.275 18.9C11.225 18.95 11.1875 19.0042 11.1625 19.0625C11.1375 19.1208 11.125 19.1833 11.125 19.25C11.125 19.3833 11.175 19.5 11.275 19.6C11.375 19.7 11.4917 19.75 11.625 19.75C11.6917 19.75 11.7583 19.7333 11.825 19.7C11.8917 19.6667 11.9417 19.6333 11.975 19.6L15.375 16.225L16.775 17.625L13.4 21.025C13.35 21.0583 13.3125 21.1083 13.2875 21.175C13.2625 21.2417 13.25 21.3083 13.25 21.375C13.25 21.5083 13.3 21.625 13.4 21.725C13.5 21.825 13.6167 21.875 13.75 21.875C13.8167 21.875 13.8792 21.8625 13.9375 21.8375C13.9958 21.8125 14.05 21.775 14.1 21.725L17.5 18.35L18.9 19.75L15.5 23.15C15.45 23.2 15.4125 23.2542 15.3875 23.3125C15.3625 23.3708 15.35 23.4333 15.35 23.5C15.35 23.6333 15.4042 23.75 15.5125 23.85C15.6208 23.95 15.7417 24 15.875 24ZM15.85 26C15.2333 26 14.6875 25.7958 14.2125 25.3875C13.7375 24.9792 13.4583 24.4667 13.375 23.85C12.8083 23.7667 12.3333 23.5333 11.95 23.15C11.5667 22.7667 11.3333 22.2917 11.25 21.725C10.6833 21.6417 10.2125 21.4042 9.83749 21.0125C9.46249 20.6208 9.23332 20.15 9.14999 19.6C8.51666 19.5167 7.99999 19.2417 7.59999 18.775C7.19999 18.3083 6.99999 17.7583 6.99999 17.125C6.99999 16.7917 7.06249 16.4708 7.18749 16.1625C7.31249 15.8542 7.49166 15.5833 7.72499 15.35L13.525 9.575L16.8 12.85C16.8333 12.9 16.8833 12.9375 16.95 12.9625C17.0167 12.9875 17.0833 13 17.15 13C17.3 13 17.425 12.9542 17.525 12.8625C17.625 12.7708 17.675 12.65 17.675 12.5C17.675 12.4333 17.6625 12.3667 17.6375 12.3C17.6125 12.2333 17.575 12.1833 17.525 12.15L13.95 8.575C13.7667 8.375 13.5542 8.22917 13.3125 8.1375C13.0708 8.04583 12.8167 8 12.55 8C12.3 8 12.05 8.04583 11.8 8.1375C11.55 8.22917 11.325 8.375 11.125 8.575L7.59999 12.125C7.44999 12.275 7.32499 12.45 7.22499 12.65C7.12499 12.85 7.05832 13.05 7.02499 13.25C6.99166 13.45 6.99166 13.6542 7.02499 13.8625C7.05832 14.0708 7.12499 14.2667 7.22499 14.45L5.77499 15.9C5.49166 15.5167 5.28332 15.0958 5.14999 14.6375C5.01666 14.1792 4.96666 13.7167 4.99999 13.25C5.03332 12.7833 5.14999 12.3292 5.34999 11.8875C5.54999 11.4458 5.82499 11.05 6.17499 10.7L9.69999 7.175C10.1 6.79167 10.5458 6.5 11.0375 6.3C11.5292 6.1 12.0333 6 12.55 6C13.0667 6 13.5708 6.1 14.0625 6.3C14.5542 6.5 14.9917 6.79167 15.375 7.175L15.65 7.45L15.925 7.175C16.325 6.79167 16.7708 6.5 17.2625 6.3C17.7542 6.1 18.2583 6 18.775 6C19.2917 6 19.7958 6.1 20.2875 6.3C20.7792 6.5 21.2167 6.79167 21.6 7.175L25.825 11.4C26.2083 11.7833 26.5 12.225 26.7 12.725C26.9 13.225 27 13.7333 27 14.25C27 14.7667 26.9 15.2708 26.7 15.7625C26.5 16.2542 26.2083 16.6917 25.825 17.075L17.625 25.25C17.3917 25.4833 17.1208 25.6667 16.8125 25.8C16.5042 25.9333 16.1833 26 15.85 26Z" fill="#881F67"/>
</g>
<defs>
<clipPath id="clip0_5003_3572">
<rect width="24" height="24" fill="white" transform="translate(4 4)"/>
</clipPath>
</defs>
</svg>
