<svg width="32" height="32" viewBox="0 0 32 32" fill="none" xmlns="http://www.w3.org/2000/svg">
<g clip-path="url(#clip0_5003_7509)">
<path d="M14.2 17.2L13.15 16.15C13.2833 15.9667 13.375 15.7792 13.425 15.5875C13.475 15.3958 13.5 15.2 13.5 15C13.5 14.8 13.475 14.6042 13.425 14.4125C13.375 14.2208 13.2833 14.0417 13.15 13.875L14.2 12.8C14.4667 13.1167 14.6667 13.4667 14.8 13.85C14.9333 14.2333 15 14.6167 15 15C15 15.3833 14.9333 15.7625 14.8 16.1375C14.6667 16.5125 14.4667 16.8667 14.2 17.2ZM16.325 19.35L15.25 18.275C15.6667 17.8083 15.9792 17.2917 16.1875 16.725C16.3958 16.1583 16.5 15.5833 16.5 15C16.5 14.4167 16.3958 13.8458 16.1875 13.2875C15.9792 12.7292 15.6667 12.2167 15.25 11.75L16.325 10.675C16.8917 11.2917 17.3125 11.9708 17.5875 12.7125C17.8625 13.4542 18 14.2167 18 15C18 15.7833 17.8625 16.55 17.5875 17.3C17.3125 18.05 16.8917 18.7333 16.325 19.35ZM9 16C8.45 16 7.97917 15.8042 7.5875 15.4125C7.19583 15.0208 7 14.55 7 14C7 13.45 7.19583 12.9792 7.5875 12.5875C7.97917 12.1958 8.45 12 9 12C9.55 12 10.0208 12.1958 10.4125 12.5875C10.8042 12.9792 11 13.45 11 14C11 14.55 10.8042 15.0208 10.4125 15.4125C10.0208 15.8042 9.55 16 9 16ZM5 20V19.425C5 19.025 5.10833 18.6583 5.325 18.325C5.54167 17.9917 5.84167 17.7417 6.225 17.575C6.65833 17.3917 7.10417 17.25 7.5625 17.15C8.02083 17.05 8.5 17 9 17C9.5 17 9.97917 17.05 10.4375 17.15C10.8958 17.25 11.3417 17.3917 11.775 17.575C12.1583 17.7417 12.4583 17.9917 12.675 18.325C12.8917 18.6583 13 19.025 13 19.425V20H5ZM23 16C22.45 16 21.9792 15.8042 21.5875 15.4125C21.1958 15.0208 21 14.55 21 14C21 13.45 21.1958 12.9792 21.5875 12.5875C21.9792 12.1958 22.45 12 23 12C23.55 12 24.0208 12.1958 24.4125 12.5875C24.8042 12.9792 25 13.45 25 14C25 14.55 24.8042 15.0208 24.4125 15.4125C24.0208 15.8042 23.55 16 23 16ZM19 20V19.425C19 19.025 19.1083 18.6583 19.325 18.325C19.5417 17.9917 19.8417 17.7417 20.225 17.575C20.6583 17.3917 21.1042 17.25 21.5625 17.15C22.0208 17.05 22.5 17 23 17C23.5 17 23.9792 17.05 24.4375 17.15C24.8958 17.25 25.3417 17.3917 25.775 17.575C26.1583 17.7417 26.4583 17.9917 26.675 18.325C26.8917 18.6583 27 19.025 27 19.425V20H19Z" fill="#F6F7F9"/>
</g>
<defs>
<clipPath id="clip0_5003_7509">
<rect width="24" height="24" fill="white" transform="translate(4 4)"/>
</clipPath>
</defs>
</svg>
