<svg width="32" height="32" viewBox="0 0 32 32" fill="none" xmlns="http://www.w3.org/2000/svg">
<path fill-rule="evenodd" clip-rule="evenodd" d="M16 8C11.5817 8 8 11.5817 8 16C8 20.4183 11.5817 24 16 24C20.4183 24 24 20.4183 24 16C24 11.5817 20.4183 8 16 8ZM6 16C6 10.4772 10.4772 6 16 6C21.5228 6 26 10.4772 26 16C26 21.5228 21.5228 26 16 26C10.4772 26 6 21.5228 6 16ZM15.8284 10.7574C16.3807 10.7574 16.8284 11.2051 16.8284 11.7574V16.7245L20.3553 18.0653C20.8716 18.2615 21.131 18.8391 20.9347 19.3553C20.7385 19.8716 20.1609 20.131 19.6447 19.9347L15.4731 18.349C15.085 18.2014 14.8284 17.8294 14.8284 17.4142V11.7574C14.8284 11.2051 15.2761 10.7574 15.8284 10.7574Z" fill="#881F67"/>
</svg>
