<svg width="32" height="32" viewBox="0 0 32 32" fill="none" xmlns="http://www.w3.org/2000/svg">
<path d="M12.9711 26.0068C12.1964 26.0068 11.5097 25.7827 10.9111 25.3345C10.3124 24.8865 9.88615 24.3061 9.63231 23.5933C9.40281 23.9503 9.09398 24.2261 8.70581 24.4208C8.31765 24.6153 7.91523 24.7125 7.49856 24.7125C6.74406 24.7125 6.1039 24.4503 5.57806 23.9258C5.05206 23.4014 4.78906 22.7646 4.78906 22.0153C4.78906 21.3404 5.01948 20.7368 5.48031 20.2043C5.94131 19.6719 6.52081 19.3943 7.21881 19.3713C6.92065 19.0508 6.68681 18.6819 6.51731 18.2645C6.34781 17.8472 6.26306 17.4131 6.26306 16.9623C6.26306 16.3381 6.42556 15.7555 6.75056 15.2145C7.07556 14.6735 7.53198 14.2392 8.11981 13.9115C8.17898 14.1219 8.26248 14.343 8.37031 14.575C8.47831 14.807 8.58898 15.015 8.70231 15.199C8.37165 15.4112 8.11973 15.6744 7.94656 15.9885C7.77356 16.3029 7.68706 16.6359 7.68706 16.9875C7.68706 17.9889 8.07373 18.6246 8.84706 18.8948C9.62056 19.1649 10.3877 19.3731 11.1486 19.5193L11.4581 20.0568C11.2664 20.5998 11.1108 21.0561 10.9913 21.4258C10.8718 21.7956 10.8121 22.1313 10.8121 22.4328C10.8121 23.0103 11.0204 23.5155 11.4371 23.9485C11.8539 24.3815 12.3581 24.598 12.9496 24.598C13.6309 24.598 14.1926 24.3226 14.6346 23.7718C15.0767 23.2211 15.439 22.5692 15.7213 21.816C16.0036 21.063 16.2212 20.2944 16.3741 19.51C16.5269 18.7259 16.654 18.0994 16.7553 17.6308L18.1236 18.0103C17.9799 18.7054 17.8069 19.5109 17.6046 20.4265C17.4021 21.3424 17.1172 22.215 16.7501 23.0445C16.3831 23.8739 15.8996 24.5749 15.2996 25.1475C14.6996 25.7204 13.9234 26.0068 12.9711 26.0068ZM7.49831 23.3135C7.85948 23.3135 8.16698 23.1874 8.42081 22.9353C8.67465 22.6831 8.80156 22.3765 8.80156 22.0155C8.80156 21.6545 8.67515 21.3471 8.42231 21.0933C8.16948 20.8394 7.86215 20.7125 7.50031 20.7125C7.13831 20.7125 6.83115 20.8389 6.57881 21.0918C6.32665 21.3444 6.20056 21.6518 6.20056 22.0138C6.20056 22.3758 6.32665 22.6829 6.57881 22.935C6.83081 23.1874 7.13731 23.3135 7.49831 23.3135ZM14.1216 19.1885C13.4037 18.5455 12.7499 17.945 12.1601 17.387C11.5704 16.829 11.0617 16.2858 10.6341 15.7573C10.2066 15.2288 9.87756 14.7009 9.64706 14.1735C9.41673 13.6462 9.30156 13.0982 9.30156 12.5295C9.30156 11.527 9.6439 10.6837 10.3286 9.99953C11.0132 9.31519 11.8532 8.97303 12.8486 8.97303C12.9864 8.97303 13.1124 8.97919 13.2266 8.99153C13.3406 9.00369 13.4511 9.02194 13.5583 9.04628C13.4758 8.87994 13.4124 8.71153 13.3681 8.54103C13.3237 8.37036 13.3016 8.18744 13.3016 7.99228C13.3016 7.24178 13.5637 6.60386 14.0881 6.07853C14.6126 5.55319 15.2495 5.29053 15.9988 5.29053C16.748 5.29053 17.3856 5.55319 17.9116 6.07853C18.4376 6.60386 18.7006 7.24178 18.7006 7.99228C18.7006 8.18678 18.6773 8.36803 18.6308 8.53603C18.5843 8.70386 18.5178 8.87294 18.4313 9.04328C18.5351 9.01894 18.6461 9.00119 18.7643 8.99003C18.8826 8.97869 19.0107 8.97303 19.1486 8.97303C20.0337 8.97303 20.7922 9.25111 21.4241 9.80728C22.0557 10.3633 22.4415 11.0593 22.5813 11.8953C22.3661 11.8664 22.1271 11.8507 21.8641 11.848C21.6012 11.8455 21.3608 11.8561 21.1428 11.8798C21.0126 11.4426 20.771 11.082 20.4178 10.798C20.0646 10.514 19.643 10.372 19.1528 10.372C18.5475 10.372 18.0664 10.5389 17.7096 10.8725C17.3529 11.2062 16.8806 11.7128 16.2928 12.3923H15.6793C15.0723 11.6908 14.5936 11.1787 14.2433 10.856C13.893 10.5334 13.4281 10.372 12.8486 10.372C12.2292 10.372 11.7164 10.5751 11.3101 10.9813C10.9037 11.3873 10.7006 11.8996 10.7006 12.5183C10.7006 12.9133 10.8041 13.316 11.0111 13.7265C11.2181 14.137 11.5126 14.5735 11.8948 15.036C12.2768 15.4985 12.7402 15.9902 13.2851 16.511C13.8299 17.0319 14.445 17.5949 15.1303 18.2L14.1216 19.1885ZM15.9983 9.29053C16.3593 9.29053 16.6668 9.16444 16.9208 8.91228C17.1746 8.66011 17.3016 8.35353 17.3016 7.99253C17.3016 7.63153 17.1751 7.32411 16.9223 7.07028C16.6695 6.81644 16.3621 6.68953 16.0001 6.68953C15.6382 6.68953 15.3311 6.81586 15.0788 7.06853C14.8266 7.32136 14.7006 7.62878 14.7006 7.99078C14.7006 8.35278 14.8266 8.65986 15.0786 8.91203C15.3307 9.16436 15.6373 9.29053 15.9983 9.29053ZM18.9868 26.0163C18.6653 26.0163 18.3489 25.971 18.0376 25.8805C17.7262 25.7899 17.4251 25.6444 17.1341 25.4443C17.2554 25.2709 17.3817 25.0724 17.5131 24.8488C17.6444 24.6251 17.7572 24.4149 17.8516 24.2183C18.0391 24.3561 18.2313 24.4554 18.4283 24.5163C18.6255 24.5773 18.8226 24.6078 19.0198 24.6078C19.615 24.6078 20.1264 24.3915 20.5541 23.959C20.9817 23.5267 21.1956 23.018 21.1956 22.433C21.1956 22.115 21.133 21.7726 21.0078 21.4058C20.8825 21.0391 20.7297 20.5875 20.5496 20.051L20.8563 19.5135C21.6421 19.3674 22.4176 19.1589 23.1828 18.888C23.9478 18.6172 24.3303 17.9787 24.3303 16.9725C24.3303 16.224 24.0621 15.6734 23.5256 15.3205C22.9892 14.9677 22.3901 14.7913 21.7283 14.7913C21.0431 14.7913 20.2376 14.9159 19.3116 15.165C18.3856 15.414 17.3168 15.7389 16.1053 16.1395L15.7456 14.7713C16.9646 14.3801 18.0559 14.0493 19.0196 13.7788C19.9832 13.5083 20.8679 13.373 21.6736 13.373C22.7344 13.373 23.6756 13.6881 24.4971 14.3183C25.3186 14.9483 25.7293 15.837 25.7293 16.9845C25.7293 17.436 25.6474 17.8634 25.4836 18.2665C25.3199 18.6697 25.089 19.0379 24.7908 19.3713C25.4888 19.4008 26.0662 19.6787 26.5231 20.205C26.9797 20.7314 27.2081 21.3354 27.2081 22.0173C27.2081 22.7583 26.9451 23.3927 26.4191 23.9205C25.8932 24.4485 25.2531 24.7125 24.4986 24.7125C24.0819 24.7125 23.6795 24.6149 23.2913 24.4195C22.9031 24.2244 22.596 23.9489 22.3698 23.5933C22.0991 24.3144 21.6645 24.8986 21.0658 25.3458C20.4671 25.7928 19.7741 26.0163 18.9868 26.0163ZM24.5238 23.3135C24.8845 23.3135 25.1876 23.1874 25.4331 22.9353C25.6786 22.6831 25.8013 22.3765 25.8013 22.0155C25.8013 21.6545 25.675 21.3429 25.4223 21.0808C25.1695 20.8186 24.8621 20.6875 24.5001 20.6875C24.1381 20.6875 23.831 20.8139 23.5788 21.0668C23.3265 21.3194 23.2003 21.6268 23.2003 21.9888C23.2003 22.3508 23.3307 22.662 23.5916 22.9225C23.8522 23.1832 24.163 23.3135 24.5238 23.3135Z" fill="#881F67"/>
</svg>
