<svg width="32" height="32" viewBox="0 0 32 32" fill="none" xmlns="http://www.w3.org/2000/svg">
<path fill-rule="evenodd" clip-rule="evenodd" d="M6.06055 14.8927C6.59839 9.90964 10.7303 6 15.7887 6C18.6485 6 21.216 7.25301 23.0011 9.23997V8C23.0011 7.44772 23.4489 7 24.0011 7C24.5534 7 25.0011 7.44772 25.0011 8V12C25.0011 12.2652 24.8958 12.5196 24.7082 12.7071C24.5207 12.8946 24.2664 13 24.0011 13L20.0011 13C19.4489 13 19.0011 12.5523 19.0011 12C19.0011 11.4477 19.4489 11 20.0011 11L21.8682 11C20.4363 9.16504 18.2414 8 15.7887 8C11.8007 8 8.48256 11.0905 8.049 15.1073C7.98973 15.6564 7.49656 16.0535 6.94746 15.9942C6.39836 15.935 6.00128 15.4418 6.06055 14.8927ZM25.0549 16.0058C25.604 16.065 26.001 16.5582 25.9418 17.1073C25.4039 22.0904 21.272 26 16.2136 26C13.3538 26 10.7863 24.747 9.00114 22.76V24C9.00114 24.5523 8.55343 25 8.00114 25C7.44886 25 7.00114 24.5523 7.00114 24L7.00114 20C7.00114 19.7348 7.1065 19.4804 7.29403 19.2929C7.48157 19.1054 7.73592 19 8.00114 19L12.0011 19C12.5534 19 13.0011 19.4477 13.0011 20C13.0011 20.5523 12.5534 21 12.0011 21H10.1341C11.566 22.835 13.7609 24 16.2136 24C20.2016 24 23.5198 20.9095 23.9533 16.8927C24.0126 16.3436 24.5058 15.9465 25.0549 16.0058Z" fill="#881F67"/>
</svg>
