<svg width="32" height="32" viewBox="0 0 32 32" fill="none" xmlns="http://www.w3.org/2000/svg">
<path fill-rule="evenodd" clip-rule="evenodd" d="M16.0001 12C13.791 12 12.0001 13.7909 12.0001 16C12.0001 18.2092 13.791 20 16.0001 20C18.2093 20 20.0001 18.2092 20.0001 16C20.0001 13.7909 18.2093 12 16.0001 12ZM14.0001 16C14.0001 14.8955 14.8955 14 16.0001 14C17.1047 14 18.0001 14.8955 18.0001 16C18.0001 17.1046 17.1047 18 16.0001 18C14.8955 18 14.0001 17.1046 14.0001 16Z" fill="#881F67"/>
<path fill-rule="evenodd" clip-rule="evenodd" d="M16.0001 12C13.791 12 12.0001 13.7909 12.0001 16C12.0001 18.2092 13.791 20 16.0001 20C18.2093 20 20.0001 18.2092 20.0001 16C20.0001 13.7909 18.2093 12 16.0001 12ZM14.0001 16C14.0001 14.8955 14.8955 14 16.0001 14C17.1047 14 18.0001 14.8955 18.0001 16C18.0001 17.1046 17.1047 18 16.0001 18C14.8955 18 14.0001 17.1046 14.0001 16Z" fill="#881F67"/>
<path fill-rule="evenodd" clip-rule="evenodd" d="M14.7674 5.01709C14.9927 4.99983 15.2455 4.99993 15.4517 5.00001L16.5486 5.00001C16.7548 4.99993 17.0076 4.99983 17.2328 5.01709C17.499 5.03749 17.8679 5.08936 18.2636 5.26937C18.7636 5.49689 19.1916 5.85736 19.5008 6.31147C19.7455 6.67075 19.8593 7.0255 19.9247 7.2843C19.98 7.50334 20.0229 7.75249 20.0579 7.9557L20.1994 8.77635L20.2022 8.77788C20.237 8.79712 20.2717 8.81659 20.3062 8.8363L20.3087 8.83774L21.2456 8.49865C21.4357 8.42978 21.6694 8.34509 21.8836 8.28543C22.1373 8.2148 22.4955 8.13889 22.9217 8.17026C23.4615 8.20998 23.9804 8.39497 24.4236 8.70563C24.7736 8.95095 25.003 9.23636 25.1548 9.4515C25.283 9.63326 25.4104 9.84671 25.5141 10.0203L26.016 10.86C26.1257 11.0435 26.2595 11.2671 26.3628 11.4753C26.4844 11.7203 26.633 12.0747 26.6778 12.5207C26.7343 13.0822 26.6312 13.6483 26.3804 14.1539C26.1812 14.5554 25.9173 14.8347 25.7171 15.0212C25.547 15.1795 25.3429 15.3417 25.1756 15.4746L24.5001 16L25.1756 16.5254C25.343 16.6584 25.547 16.8205 25.717 16.9789C25.9172 17.1653 26.1812 17.4446 26.3803 17.8461C26.6311 18.3517 26.7342 18.9178 26.6778 19.4794C26.6329 19.9253 26.4844 20.2797 26.3627 20.5248C26.2594 20.7329 26.1256 20.9566 26.0159 21.14L25.5139 21.9799C25.4103 22.1535 25.2829 22.3668 25.1547 22.5485C25.003 22.7637 24.7735 23.0491 24.4236 23.2944C23.9804 23.6051 23.4614 23.7901 22.9217 23.8298C22.4955 23.8612 22.1372 23.7852 21.8836 23.7146C21.6693 23.6549 21.4356 23.5703 21.2455 23.5014L20.3087 23.1623L20.3061 23.1638C20.2716 23.1835 20.237 23.2029 20.2022 23.2222L20.1994 23.2237L20.0579 24.0443C20.0229 24.2475 19.98 24.4967 19.9247 24.7157C19.8593 24.9745 19.7455 25.3293 19.5008 25.6886C19.1916 26.1427 18.7636 26.5032 18.2636 26.7307C17.8679 26.9107 17.499 26.9626 17.2328 26.983C17.0076 27.0002 16.7547 27.0001 16.5485 27H15.4517C15.2455 27.0001 14.9927 27.0002 14.7674 26.983C14.5013 26.9626 14.1323 26.9107 13.7367 26.7307C13.2366 26.5032 12.8086 26.1427 12.4994 25.6886C12.2547 25.3293 12.1409 24.9745 12.0755 24.7157C12.0202 24.4967 11.9773 24.2475 11.9424 24.0443L11.8008 23.2237L11.798 23.2222C11.7632 23.2029 11.7286 23.1835 11.6941 23.1637L11.6915 23.1623L10.7547 23.5014C10.5646 23.5702 10.3309 23.6549 10.1166 23.7146C9.863 23.7852 9.50475 23.8611 9.07854 23.8298C8.53878 23.7901 8.01983 23.6051 7.57666 23.2944C7.22672 23.0491 6.99726 22.7637 6.84551 22.5485C6.7173 22.3668 6.58986 22.1534 6.48622 21.9798L5.98431 21.14C5.87459 20.9566 5.74079 20.7329 5.63749 20.5248C5.51587 20.2797 5.36731 19.9253 5.32247 19.4794C5.26601 18.9178 5.36909 18.3517 5.61989 17.8461C5.81904 17.4446 6.08302 17.1653 6.2832 16.9789C6.45324 16.8205 6.65729 16.6584 6.82462 16.5254L7.47856 16.0054V15.9947L6.82457 15.4746C6.65724 15.3417 6.4532 15.1795 6.28316 15.0212C6.08297 14.8347 5.819 14.5554 5.61984 14.1539C5.36905 13.6483 5.26596 13.0822 5.32243 12.5207C5.36726 12.0748 5.51583 11.7203 5.63745 11.4753C5.74075 11.2671 5.87455 11.0435 5.98427 10.8601L6.48617 10.0203C6.58981 9.84669 6.71726 9.63326 6.84546 9.45151C6.99722 9.23637 7.22667 8.95096 7.57662 8.70565C8.01979 8.39498 8.53874 8.20999 9.07849 8.17027C9.5047 8.1389 9.86296 8.21481 10.1166 8.28544C10.3308 8.34511 10.5646 8.4298 10.7546 8.49867L11.6915 8.83775L11.6941 8.8363C11.7286 8.8166 11.7632 8.79712 11.798 8.77788L11.8008 8.77635L11.9424 7.95571C11.9774 7.7525 12.0202 7.50334 12.0755 7.2843C12.1409 7.0255 12.2547 6.67075 12.4994 6.31147C12.8086 5.85736 13.2366 5.49689 13.7367 5.26937C14.1323 5.08936 14.5013 5.03749 14.7674 5.01709ZM18.094 8.3363C18.0112 7.85634 17.9698 7.61637 17.8477 7.43717C17.7447 7.2858 17.602 7.16564 17.4353 7.0898C17.238 7.00002 16.9944 7.00002 16.5074 7.00002H15.4928C15.0058 7.00002 14.7623 7.00002 14.5649 7.0898C14.3982 7.16564 14.2556 7.2858 14.1525 7.43717C14.0305 7.61637 13.9891 7.85634 13.9063 8.3363L13.7502 9.24064C13.6946 9.56333 13.6667 9.72467 13.6078 9.84869C13.5499 9.97047 13.5025 10.037 13.4065 10.1317C13.3087 10.228 13.1277 10.3281 12.7657 10.5282C12.739 10.543 12.7124 10.5579 12.6859 10.573C12.3397 10.7708 12.1665 10.8697 12.038 10.9031C11.9117 10.936 11.833 10.9428 11.703 10.932C11.5706 10.9209 11.4223 10.8673 11.1256 10.7599L10.1121 10.3931C9.66283 10.2305 9.43821 10.1492 9.22528 10.1649C9.04536 10.1781 8.87237 10.2398 8.72465 10.3433C8.54982 10.4659 8.42727 10.6709 8.18218 11.081L7.72281 11.8497C7.46406 12.2826 7.33468 12.4991 7.31239 12.7208C7.29357 12.908 7.32793 13.0967 7.41153 13.2652C7.51054 13.4648 7.70792 13.6218 8.10268 13.9357L8.82757 14.5122C9.07939 14.7124 9.2053 14.8126 9.28424 14.9199C9.36956 15.036 9.40595 15.1114 9.44367 15.2504C9.47856 15.379 9.47856 15.586 9.47856 16C9.47856 16.414 9.47856 16.621 9.44366 16.7497C9.40594 16.8887 9.36956 16.9641 9.28425 17.0801C9.20531 17.1875 9.07939 17.2876 8.82755 17.4879L8.10273 18.0643C7.70798 18.3783 7.51059 18.5352 7.41157 18.7349C7.32798 18.9034 7.29362 19.0921 7.31244 19.2793C7.33473 19.501 7.4641 19.7174 7.72286 20.1504L8.18222 20.919C8.42732 21.3291 8.54987 21.5342 8.7247 21.6567C8.87242 21.7603 9.0454 21.8219 9.22532 21.8352C9.43825 21.8508 9.66287 21.7695 10.1121 21.607L11.1256 21.2402C11.4223 21.1328 11.5706 21.0791 11.703 21.0681C11.8331 21.0573 11.9117 21.064 12.038 21.0969C12.1666 21.1304 12.3397 21.2293 12.6859 21.427C12.7124 21.4421 12.739 21.4571 12.7657 21.4718C13.1277 21.6719 13.3087 21.772 13.4065 21.8684C13.5025 21.963 13.5499 22.0296 13.6078 22.1514C13.6667 22.2754 13.6946 22.4367 13.7502 22.7594L13.9063 23.6637C13.9891 24.1437 14.0305 24.3837 14.1525 24.5629C14.2556 24.7142 14.3982 24.8344 14.5649 24.9102C14.7623 25 15.0058 25 15.4928 25H16.5074C16.9944 25 17.238 25 17.4353 24.9102C17.602 24.8344 17.7447 24.7142 17.8477 24.5629C17.9698 24.3837 18.0112 24.1437 18.094 23.6637L18.25 22.7594C18.3057 22.4367 18.3335 22.2754 18.3925 22.1514C18.4504 22.0296 18.4977 21.963 18.5938 21.8684C18.6916 21.772 18.8726 21.6719 19.2346 21.4718C19.2613 21.4571 19.2878 21.4421 19.3143 21.427C19.6605 21.2293 19.8337 21.1304 19.9622 21.0969C20.0885 21.064 20.1672 21.0573 20.2972 21.0681C20.4296 21.0791 20.5779 21.1328 20.8746 21.2402L21.8881 21.607C22.3374 21.7696 22.562 21.8509 22.7749 21.8352C22.9548 21.8219 23.1278 21.7603 23.2755 21.6567C23.4504 21.5342 23.5729 21.3291 23.818 20.919L24.2774 20.1504C24.5361 19.7175 24.6655 19.501 24.6878 19.2793C24.7066 19.0921 24.6723 18.9034 24.5887 18.7349C24.4896 18.5353 24.2923 18.3783 23.8975 18.0643L23.1727 17.4879C22.9208 17.2876 22.7949 17.1875 22.716 17.0801C22.6307 16.9641 22.5943 16.8887 22.5566 16.7497C22.5217 16.6211 22.5217 16.414 22.5217 16C22.5217 15.586 22.5217 15.379 22.5566 15.2504C22.5943 15.1114 22.6307 15.036 22.716 14.9199C22.7949 14.8126 22.9208 14.7124 23.1727 14.5122L23.8975 13.9357C24.2923 13.6218 24.4897 13.4648 24.5887 13.2652C24.6723 13.0966 24.7067 12.9079 24.6878 12.7208C24.6655 12.4991 24.5362 12.2826 24.2774 11.8496L23.8181 11.081C23.573 10.6709 23.4504 10.4659 23.2756 10.3433C23.1279 10.2398 22.9549 10.1781 22.775 10.1649C22.562 10.1492 22.3374 10.2305 21.8882 10.3931L20.8746 10.7599C20.5779 10.8672 20.4296 10.9209 20.2972 10.932C20.1672 10.9428 20.0885 10.936 19.9622 10.9031C19.8337 10.8696 19.6605 10.7708 19.3143 10.573C19.2878 10.5579 19.2613 10.543 19.2346 10.5282C18.8726 10.3281 18.6916 10.228 18.5938 10.1317C18.4977 10.037 18.4504 9.97047 18.3925 9.84869C18.3335 9.72467 18.3057 9.56332 18.25 9.24064L18.094 8.3363Z" fill="#881F67"/>
</svg>
