<svg width="32" height="32" viewBox="0 0 32 32" fill="none" xmlns="http://www.w3.org/2000/svg">
<path d="M17.9231 13.7057V12.5115C18.4668 12.2403 19.0394 12.0395 19.6409 11.9092C20.2424 11.7787 20.8625 11.7135 21.5011 11.7135C21.888 11.7135 22.2695 11.7383 22.6456 11.788C23.0218 11.8376 23.396 11.91 23.7684 12.005V13.1777C23.4024 13.0554 23.0369 12.9694 22.6719 12.9197C22.3069 12.87 21.917 12.8452 21.5021 12.8452C20.8633 12.8452 20.2405 12.9178 19.6336 13.063C19.0266 13.2081 18.4565 13.4224 17.9231 13.7057ZM17.9231 19.1865V17.973C18.454 17.7018 19.025 17.4976 19.6361 17.3605C20.2473 17.2233 20.869 17.1547 21.5011 17.1547C21.888 17.1547 22.2695 17.1807 22.6456 17.2327C23.0218 17.2845 23.396 17.3624 23.7684 17.4662V18.6395C23.402 18.517 23.0365 18.4275 22.6716 18.3712C22.3066 18.3147 21.9167 18.2865 21.5019 18.2865C20.8629 18.2865 20.2399 18.363 19.6329 18.5162C19.0259 18.6695 18.456 18.893 17.9231 19.1865ZM17.9231 16.4557V15.2422C18.4668 14.971 19.0394 14.7703 19.6409 14.64C20.2424 14.5095 20.8625 14.4442 21.5011 14.4442C21.888 14.4442 22.2695 14.4668 22.6456 14.512C23.0218 14.5571 23.396 14.6316 23.7684 14.7355V15.9087C23.402 15.7862 23.0365 15.6967 22.6716 15.6402C22.3066 15.5839 21.9167 15.5557 21.5019 15.5557C20.8629 15.5557 20.2399 15.6349 19.6329 15.7932C19.0259 15.9515 18.456 16.1724 17.9231 16.4557ZM10.5656 19.9787C11.3913 19.9787 12.1958 20.0726 12.9791 20.2605C13.7625 20.4483 14.54 20.7429 15.3116 21.1442V11.4347C14.6226 10.9769 13.8654 10.6302 13.0399 10.3947C12.2144 10.159 11.388 10.0412 10.5606 10.0412C9.96996 10.0412 9.41662 10.0884 8.90062 10.1827C8.38479 10.2769 7.85579 10.4314 7.31362 10.6462C7.23662 10.6719 7.18212 10.7087 7.15012 10.7567C7.11812 10.8047 7.10213 10.8576 7.10213 10.9155V20.251C7.10213 20.3406 7.13412 20.4063 7.19812 20.448C7.26229 20.4896 7.33288 20.4945 7.40988 20.4625C7.86554 20.301 8.35588 20.18 8.88088 20.0995C9.40604 20.019 9.96762 19.9787 10.5656 19.9787ZM16.7106 21.1442C17.4831 20.7429 18.2581 20.4483 19.0356 20.2605C19.8131 20.0726 20.613 19.9787 21.4351 19.9787C22.0305 19.9787 22.5915 20.019 23.1184 20.0995C23.6454 20.18 24.1367 20.301 24.5924 20.4625C24.6694 20.4945 24.74 20.4896 24.8041 20.448C24.8681 20.4063 24.9001 20.3406 24.9001 20.251V10.9145C24.9001 10.8568 24.8841 10.8055 24.8521 10.7605C24.8201 10.7156 24.7656 10.6772 24.6886 10.6452C24.147 10.4445 23.6181 10.2937 23.1021 10.1927C22.586 10.0917 22.0321 10.0412 21.4406 10.0412C20.6123 10.0412 19.7892 10.159 18.9714 10.3947C18.1534 10.6302 17.3998 10.9774 16.7106 11.4362V21.1442ZM16.0011 23.2027C15.1998 22.6265 14.3392 22.1784 13.4194 21.8582C12.4995 21.5379 11.547 21.3777 10.5616 21.3777C9.97896 21.3777 9.40671 21.4407 8.84488 21.5667C8.28304 21.6927 7.73637 21.8767 7.20487 22.1187C6.84721 22.2767 6.50754 22.2484 6.18587 22.0337C5.86404 21.8189 5.70312 21.5146 5.70312 21.121V10.5865C5.70312 10.366 5.76196 10.1633 5.87962 9.97846C5.99712 9.79346 6.16038 9.65771 6.36938 9.57121C7.02838 9.26354 7.71088 9.03179 8.41688 8.87596C9.12288 8.72013 9.83779 8.64221 10.5616 8.64221C11.5273 8.64221 12.4706 8.77655 13.3916 9.04521C14.3126 9.31371 15.1825 9.70505 16.0011 10.2192C16.8198 9.70505 17.6896 9.31371 18.6106 9.04521C19.5316 8.77655 20.475 8.64221 21.4406 8.64221C22.1645 8.64221 22.8794 8.72013 23.5854 8.87596C24.2914 9.03179 24.9739 9.26354 25.6329 9.57121C25.8419 9.65771 26.0051 9.79346 26.1226 9.97846C26.2403 10.1633 26.2991 10.366 26.2991 10.5865V21.121C26.2991 21.5146 26.1318 21.8156 25.7971 22.024C25.4626 22.2323 25.1101 22.2575 24.7396 22.0995C24.2146 21.8638 23.6767 21.6846 23.1259 21.562C22.5752 21.4391 22.0135 21.3777 21.4406 21.3777C20.4553 21.3777 19.5027 21.5379 18.5829 21.8582C17.663 22.1784 16.8025 22.6265 16.0011 23.2027Z" fill="#881F67"/>
</svg>
