<svg width="32" height="32" viewBox="0 0 32 32" fill="none" xmlns="http://www.w3.org/2000/svg">
<path fill-rule="evenodd" clip-rule="evenodd" d="M14.1643 6.73721C14.8585 5.12529 17.1439 5.12528 17.8381 6.73721L19.4241 10.4201C19.5689 10.7563 19.8858 10.9865 20.2502 11.0203L24.243 11.3906C25.9905 11.5527 26.6968 13.7263 25.3783 14.8846L22.3657 17.5311C22.0907 17.7727 21.9697 18.1452 22.0502 18.5023L22.9318 22.414C23.3177 24.1261 21.4687 25.4695 19.9596 24.5735L16.5118 22.5262C16.197 22.3393 15.8054 22.3393 15.4906 22.5262L12.0428 24.5735C10.5337 25.4695 8.6847 24.1261 9.07058 22.414L9.95221 18.5023C10.0327 18.1452 9.91166 17.7727 9.63667 17.5311L6.62413 14.8846C5.3056 13.7263 6.01186 11.5527 7.7594 11.3906L11.7522 11.0203C12.1166 10.9865 12.4335 10.7563 12.5783 10.4201L14.1643 6.73721ZM17.5872 11.2112L16.0012 7.52827L14.4152 11.2112C13.9809 12.2197 13.0302 12.9104 11.9369 13.0118L7.9441 13.3821L10.9566 16.0286C11.7816 16.7533 12.1447 17.8708 11.9033 18.942L11.0216 22.8538L14.4695 20.8065C15.4137 20.2458 16.5887 20.2458 17.5329 20.8065L20.9808 22.8538L20.0991 18.942C19.8577 17.8708 20.2208 16.7533 21.0457 16.0286L24.0583 13.3821L20.0655 13.0118C18.9721 12.9104 18.0215 12.2197 17.5872 11.2112Z" fill="#881F67"/>
</svg>
