<?xml version="1.0" encoding="utf-8"?>
<!-- Generator: Adobe Illustrator 28.3.0, SVG Export Plug-In . SVG Version: 6.00 Build 0)  -->
<svg version="1.1" id="Livello_1" xmlns="http://www.w3.org/2000/svg" xmlns:xlink="http://www.w3.org/1999/xlink" x="0px" y="0px"
	 viewBox="0 0 24 24" style="enable-background:new 0 0 24 24;" xml:space="preserve">
<style type="text/css">
	.st0{clip-path:url(#SVGID_00000155860173852023164020000003183356318509012654_);fill:#F6F7F9;}
</style>
<defs>
	<rect id="SVGID_1_" width="24" height="24"/>
</defs>
<clipPath id="SVGID_00000087401822622144338160000018395835475211462299_">
	<use xlink:href="#SVGID_1_"  style="overflow:visible;"/>
</clipPath>
<path style="clip-path:url(#SVGID_00000087401822622144338160000018395835475211462299_);fill:#F6F7F9;" d="M11.9,20
	c0.1,0,0.1,0,0.2,0s0.1-0.1,0.2-0.1l8.2-8.2c0.2-0.2,0.3-0.4,0.4-0.7c0.1-0.2,0.1-0.5,0.1-0.8s0-0.5-0.1-0.8
	c-0.1-0.2-0.2-0.5-0.4-0.6l-4.2-4.2c-0.2-0.2-0.4-0.3-0.6-0.4c-0.2-0.1-0.5-0.1-0.8-0.1c-0.2,0-0.5,0-0.8,0.1s-0.5,0.2-0.7,0.4
	l-0.3,0.2L15,6.7c0.2,0.2,0.4,0.5,0.5,0.8s0.2,0.6,0.2,0.9c0,0.7-0.2,1.3-0.7,1.8s-1.1,0.7-1.8,0.7c-0.3,0-0.7-0.1-1-0.2
	s-0.6-0.3-0.8-0.5L9.5,8.3l-4.3,4.5c0,0-0.1,0.1-0.1,0.2s0,0.1,0,0.2s0,0.3,0.1,0.4s0.2,0.2,0.4,0.2c0.1,0,0.1,0,0.2-0.1
	c0.1,0,0.1-0.1,0.2-0.1l3.4-3.4l1.4,1.4L7.4,15c0,0.1-0.1,0.1-0.1,0.2c0,0.1,0,0.1,0,0.2c0,0.1,0,0.2,0.1,0.3s0.2,0.2,0.4,0.2
	c0.1,0,0.1,0,0.2,0c0.1,0,0.1-0.1,0.2-0.1l3.4-3.4l1.4,1.4l-3.4,3.4c0,0-0.1,0.1-0.1,0.2s0,0.1,0,0.2s0,0.2,0.1,0.3s0.2,0.2,0.4,0.2
	c0.1,0,0.1,0,0.2,0s0.1-0.1,0.2-0.1l3.4-3.4l1.4,1.4l-3.4,3.4c-0.1,0.1-0.1,0.1-0.1,0.2s0,0.1,0,0.2s0.1,0.2,0.2,0.3
	C11.6,19.9,11.7,20,11.9,20z M11.9,22c-0.6,0-1.2-0.2-1.6-0.6c-0.5-0.4-0.8-0.9-0.8-1.5c-0.6-0.1-1-0.3-1.4-0.7s-0.6-0.9-0.7-1.4
	c-0.6-0.1-1-0.3-1.4-0.7s-0.6-0.9-0.7-1.4c-0.6-0.1-1.1-0.4-1.5-0.8c-0.4-0.5-0.6-1-0.6-1.6c0-0.3,0.1-0.7,0.2-1s0.3-0.6,0.5-0.8
	l5.8-5.8L13,9c0,0.1,0.1,0.1,0.1,0.1c0.1,0,0.1,0,0.2,0s0.3,0,0.4-0.1s0.1-0.2,0.1-0.4c0-0.1,0-0.1,0-0.2s-0.1-0.1-0.1-0.1L10,4.6
	C9.8,4.4,9.6,4.3,9.4,4.2S8.9,4.1,8.6,4.1c-0.2,0-0.5,0-0.8,0.1S7.3,4.4,7.1,4.6L3.6,8.2C3.4,8.3,3.3,8.5,3.2,8.7S3,9.1,3,9.3
	s0,0.4,0,0.6s0.1,0.4,0.2,0.6L1.7,12c-0.3-0.4-0.5-0.8-0.6-1.3S1,9.7,1,9.2s0.1-0.9,0.4-1.4C1.6,7.4,1.9,7,2.2,6.6l3.5-3.5
	C6.1,2.7,6.5,2.4,7,2.2s1-0.3,1.5-0.3S9.5,2,10,2.2s0.9,0.5,1.3,0.9l0.3,0.3l0.3-0.3c0.4-0.4,0.8-0.7,1.3-0.9s1-0.3,1.5-0.3
	s1,0.1,1.5,0.3s0.9,0.5,1.3,0.9l4.2,4.2c0.4,0.4,0.7,0.8,0.9,1.3s0.3,1,0.3,1.5s-0.1,1-0.3,1.5s-0.5,0.9-0.9,1.3l-8.2,8.2
	c-0.2,0.2-0.5,0.4-0.8,0.5C12.5,21.9,12.2,22,11.9,22z"/>
</svg>
