<svg width="32" height="32" viewBox="0 0 32 32" fill="none" xmlns="http://www.w3.org/2000/svg">
<path fill-rule="evenodd" clip-rule="evenodd" d="M11.788 6H20.212C21.0305 5.99999 21.7061 5.99998 22.2561 6.04565C22.8274 6.0931 23.3523 6.19496 23.8439 6.45035C24.5745 6.82985 25.1702 7.42553 25.5497 8.1561C25.805 8.64774 25.9069 9.17258 25.9543 9.74393C26 10.2939 26 10.9695 26 11.788V15.212C26 16.0305 26 16.7061 25.9543 17.2561C25.9069 17.8274 25.805 18.3523 25.5497 18.8439C25.1702 19.5745 24.5745 20.1702 23.8439 20.5497C23.3523 20.805 22.8274 20.9069 22.2561 20.9544C21.7061 21 21.0305 21 20.212 21H17V23H21C21.5523 23 22 23.4477 22 24C22 24.5523 21.5523 25 21 25H11C10.4477 25 10 24.5523 10 24C10 23.4477 10.4477 23 11 23H15V21H11.788C10.9695 21 10.2939 21 9.74393 20.9544C9.17258 20.9069 8.64774 20.805 8.1561 20.5497C7.42553 20.1702 6.82985 19.5745 6.45035 18.8439C6.19496 18.3523 6.0931 17.8274 6.04565 17.2561C5.99998 16.7061 5.99999 16.0305 6 15.212V11.788C5.99999 10.9695 5.99998 10.2939 6.04565 9.74393C6.0931 9.17258 6.19496 8.64774 6.45035 8.1561C6.82985 7.42553 7.42553 6.82985 8.1561 6.45035C8.64774 6.19496 9.17258 6.0931 9.74393 6.04565C10.2939 5.99998 10.9695 5.99999 11.788 6ZM20.17 19C21.041 19 21.6331 18.9992 22.0905 18.9612C22.536 18.9242 22.7634 18.8572 22.9219 18.7748C23.2872 18.5851 23.5851 18.2872 23.7748 17.9219C23.8572 17.7634 23.9242 17.536 23.9612 17.0905C23.9992 16.6331 24 16.041 24 15.17V11.83C24 10.959 23.9992 10.3669 23.9612 9.90945C23.9242 9.46401 23.8572 9.23663 23.7748 9.07805C23.5851 8.71277 23.2872 8.41493 22.9219 8.22517C22.7634 8.1428 22.536 8.07578 22.0905 8.03879C21.6331 8.0008 21.041 8 20.17 8H11.83C10.959 8 10.3669 8.0008 9.90945 8.03879C9.46401 8.07578 9.23663 8.1428 9.07805 8.22517C8.71277 8.41493 8.41493 8.71277 8.22517 9.07805C8.1428 9.23663 8.07578 9.46401 8.03879 9.90945C8.0008 10.3669 8 10.959 8 11.83V15.17C8 16.041 8.0008 16.6331 8.03879 17.0905C8.07578 17.536 8.1428 17.7634 8.22517 17.9219C8.41493 18.2872 8.71277 18.5851 9.07805 18.7748C9.23663 18.8572 9.46401 18.9242 9.90945 18.9612C10.3669 18.9992 10.959 19 11.83 19H20.17Z" fill="#F6F7F9"/>
</svg>
