<?xml version="1.0" encoding="utf-8"?>
<!-- Generator: Adobe Illustrator 28.3.0, SVG Export Plug-In . SVG Version: 6.00 Build 0)  -->
<svg version="1.1" id="Livello_1" xmlns="http://www.w3.org/2000/svg" xmlns:xlink="http://www.w3.org/1999/xlink" x="0px" y="0px"
	 viewBox="0 0 24 24" style="enable-background:new 0 0 24 24;" xml:space="preserve">
<style type="text/css">
	.st0{fill:none;}
	.st1{fill:#F6F7F9;}
</style>
<rect class="st0" width="24" height="24"/>
<path class="st1" d="M12,22c-0.5,0-1-0.2-1.4-0.6C10.2,21,10,20.5,10,20h4c0,0.5-0.2,1-0.6,1.4C13,21.8,12.5,22,12,22z M8,19v-2h8v2
	H8z M8.2,16c-1.1-0.7-2.1-1.6-2.7-2.8c-0.7-1.2-1-2.4-1-3.8c0-2.1,0.7-3.9,2.2-5.3C8.2,2.6,9.9,1.9,12,1.9s3.9,0.7,5.3,2.2
	c1.5,1.5,2.2,3.2,2.2,5.3c0,1.3-0.3,2.6-1,3.8c-0.7,1.1-1.6,2.1-2.7,2.8H8.2z M8.9,14h6.3c0.8-0.5,1.3-1.2,1.7-2s0.6-1.6,0.6-2.5
	c0-1.5-0.5-2.8-1.6-3.9S13.5,4,12,4S9.2,4.5,8.1,5.6S6.5,8,6.5,9.5c0,0.9,0.2,1.7,0.6,2.5S8.1,13.5,8.9,14z"/>
</svg>
