<svg width="24" height="25" viewBox="0 0 24 25" fill="none" xmlns="http://www.w3.org/2000/svg">
<path fill-rule="evenodd" clip-rule="evenodd" d="M16 3.56055H8C5.23858 3.56055 3 5.79913 3 8.56055V16.5605C3 19.3219 5.23858 21.5605 8 21.5605H16C18.7614 21.5605 21 19.3219 21 16.5605V8.56055C21 5.79913 18.7614 3.56055 16 3.56055ZM19.25 16.5605C19.2445 18.3531 17.7926 19.805 16 19.8105H8C6.20735 19.805 4.75549 18.3531 4.75 16.5605V8.56055C4.75549 6.7679 6.20735 5.31604 8 5.31055H16C17.7926 5.31604 19.2445 6.7679 19.25 8.56055V16.5605ZM16.75 8.81055C17.3023 8.81055 17.75 8.36283 17.75 7.81055C17.75 7.25827 17.3023 6.81055 16.75 6.81055C16.1977 6.81055 15.75 7.25827 15.75 7.81055C15.75 8.36283 16.1977 8.81055 16.75 8.81055ZM12 8.06055C9.51472 8.06055 7.5 10.0753 7.5 12.5605C7.5 15.0458 9.51472 17.0605 12 17.0605C14.4853 17.0605 16.5 15.0458 16.5 12.5605C16.5027 11.3662 16.0294 10.2201 15.1849 9.37563C14.3404 8.53114 13.1943 8.05789 12 8.06055ZM9.25 12.5605C9.25 14.0793 10.4812 15.3105 12 15.3105C13.5188 15.3105 14.75 14.0793 14.75 12.5605C14.75 11.0417 13.5188 9.81055 12 9.81055C10.4812 9.81055 9.25 11.0417 9.25 12.5605Z" fill="#F6F7F9"/>
</svg>
