<svg width="24" height="25" viewBox="0 0 24 25" fill="none" xmlns="http://www.w3.org/2000/svg">
<path fill-rule="evenodd" clip-rule="evenodd" d="M4.5 3.56055C3.67157 3.56055 3 4.23212 3 5.06055V20.0605C3 20.8889 3.67157 21.5605 4.5 21.5605H19.5C20.3284 21.5605 21 20.8889 21 20.0605V5.06055C21 4.23212 20.3284 3.56055 19.5 3.56055H4.5ZM8.52076 7.56327C8.52639 8.51952 7.81061 9.10874 6.96123 9.10452C6.16107 9.1003 5.46357 8.46327 5.46779 7.56468C5.47201 6.71952 6.13998 6.0403 7.00764 6.05999C7.88795 6.07968 8.52639 6.72515 8.52076 7.56327ZM12.2797 10.3223H9.75971H9.7583V18.8821H12.4217V18.6824C12.4217 18.3025 12.4214 17.9225 12.4211 17.5424C12.4203 16.5286 12.4194 15.5137 12.4246 14.5002C12.426 14.2541 12.4372 13.9982 12.5005 13.7633C12.7381 12.8858 13.5271 12.3191 14.4074 12.4584C14.9727 12.5469 15.3467 12.8746 15.5042 13.4076C15.6013 13.7408 15.6449 14.0994 15.6491 14.4468C15.6605 15.4944 15.6589 16.542 15.6573 17.5897C15.6567 17.9595 15.6561 18.3295 15.6561 18.6993V18.8807H18.328V18.6754C18.328 18.2234 18.3278 17.7715 18.3275 17.3196C18.327 16.1901 18.3264 15.0606 18.3294 13.9307C18.3308 13.4202 18.276 12.9168 18.1508 12.4232C17.9638 11.6891 17.5771 11.0816 16.9485 10.6429C16.5027 10.3307 16.0133 10.1296 15.4663 10.1071C15.404 10.1046 15.3412 10.1012 15.2781 10.0978C14.9984 10.0826 14.7141 10.0673 14.4467 10.1212C13.6817 10.2745 13.0096 10.6246 12.5019 11.2419C12.4429 11.3127 12.3852 11.3846 12.2991 11.4919L12.2797 11.5162V10.3223ZM5.68164 18.8849H8.33242V10.3279H5.68164V18.8849Z" fill="#F6F7F9"/>
</svg>
