<svg width="244" height="57" viewBox="0 0 244 57" fill="none" xmlns="http://www.w3.org/2000/svg">
<g clip-path="url(#clip0_1367_19285)">
<g clip-path="url(#clip1_1367_19285)">
<mask id="mask0_1367_19285" style="mask-type:luminance" maskUnits="userSpaceOnUse" x="-42" y="-169" width="333" height="430">
<path d="M-41.2915 -168.267H290.413V260.997H-41.2915V-168.267Z" fill="white"/>
</mask>
<g mask="url(#mask0_1367_19285)">
<path d="M41.0677 39.957L55.5142 0.362225H52.4086L39.3989 35.9441L41.0677 39.957Z" fill="white"/>
<path d="M43.2143 45.082L59.5199 0.362061H56.4175L41.5542 41.1086L43.2143 45.082Z" fill="white"/>
<path d="M45.3578 50.2019L63.5344 0.362194H60.4314L43.6934 46.2383L45.3578 50.2019Z" fill="white"/>
<path d="M47.5001 55.335L67.539 0.361958H64.442L45.8389 51.3616L47.5001 55.335Z" fill="white"/>
<path d="M74.5292 2.59634L73.5016 5.4413H76.6121C77.1622 5.4413 77.6625 5.33561 78.076 5.11502C78.4988 4.90418 78.8142 4.53237 79.0159 3.98712C79.2321 3.38224 79.1487 2.98767 78.7492 2.79797C78.4099 2.66463 77.9275 2.59634 77.3194 2.59634H74.5292ZM72.7314 7.55565L71.4896 10.9643H74.5942C75.1487 10.9643 75.6132 10.8911 75.9747 10.7448C76.6484 10.4592 77.1167 9.93612 77.4105 9.14263C77.6452 8.4738 77.5389 8.00985 77.0847 7.76757C76.8338 7.6299 76.4343 7.55565 75.8831 7.55565H72.7314ZM81.7953 1.75732C81.9893 2.30312 81.9492 2.95027 81.6679 3.70744C81.3833 4.48684 80.9579 5.11502 80.3915 5.59252C80.0712 5.86244 79.6646 6.1058 79.1579 6.31772C79.7194 6.55999 80.0712 6.93127 80.2126 7.44617C80.3606 7.95998 80.3053 8.58328 80.0397 9.31336C79.7638 10.0803 79.3243 10.7535 78.7324 11.3497C78.3357 11.7534 77.914 12.0879 77.4517 12.3594C76.934 12.6716 76.3747 12.8814 75.7725 13.0017C75.1801 13.1117 74.5492 13.1757 73.901 13.1757H68.1406L72.7964 0.399611H78.9714C80.5253 0.417497 81.4663 0.876029 81.7953 1.75732Z" fill="white"/>
<path d="M86.1623 8.34444H89.4316L89.6457 3.31629L86.1623 8.34444ZM89.2235 0.399243H92.2484L92.1064 13.1753H89.2148L89.3346 10.5466H84.6257L82.8149 13.1753H80.0171L89.2235 0.399243Z" fill="white"/>
<path d="M98.3527 0.399487H101.141L103.011 9.31324L106.253 0.399487H108.731L104.074 13.1755H101.428L99.492 4.07805L96.1734 13.1755H93.7051L98.3527 0.399487Z" fill="white"/>
<path d="M111.973 1.72957C113.387 0.668871 114.882 0.13771 116.479 0.13771C118.601 0.13771 119.905 0.848273 120.369 2.25693C120.62 3.05097 120.627 3.84446 120.377 4.64174H117.722C117.773 4.02874 117.722 3.5637 117.571 3.2618C117.29 2.70679 116.689 2.42604 115.749 2.42604C114.8 2.42604 113.901 2.81682 113.065 3.60489C112.231 4.38537 111.55 5.49647 111.034 6.93115C110.506 8.36474 110.403 9.43682 110.725 10.1479C111.047 10.8628 111.652 11.2162 112.542 11.2162C113.456 11.2162 114.267 10.9132 114.978 10.2997C115.359 9.96907 115.758 9.47693 116.179 8.81732H118.83C118.093 10.2075 117.088 11.3447 115.837 12.2157C114.584 13.0888 113.214 13.5289 111.743 13.5289C109.931 13.5289 108.717 12.9409 108.102 11.762C107.492 10.5739 107.564 8.95065 108.322 6.88996C109.129 4.64716 110.35 2.92631 111.973 1.72957Z" fill="white"/>
<path d="M128.708 10.0975C129.616 9.31325 130.327 8.2016 130.851 6.76259C131.384 5.32629 131.465 4.2206 131.131 3.43253C130.8 2.64609 130.098 2.2526 129.039 2.2526C127.975 2.2526 126.993 2.64609 126.077 3.43253C125.163 4.20705 124.443 5.32195 123.92 6.76259C123.387 8.2016 123.295 9.31325 123.644 10.0975C124.002 10.8856 124.701 11.2661 125.755 11.2661C126.819 11.2661 127.806 10.8856 128.708 10.0975ZM129.659 12.0373C128.332 13.0335 126.756 13.5289 124.92 13.5289C123.102 13.5289 121.887 13.0335 121.285 12.0373C120.434 10.8124 120.424 9.06067 121.258 6.76259C122.117 4.42711 123.396 2.66073 125.122 1.49163C126.444 0.500309 128.026 4.29153e-05 129.852 4.29153e-05C131.681 4.29153e-05 132.889 0.500309 133.493 1.49163C134.363 2.66073 134.363 4.42711 133.512 6.76259C132.677 9.06067 131.398 10.8124 129.659 12.0373Z" fill="white"/>
<path fill-rule="evenodd" clip-rule="evenodd" d="M155.444 20.1163H163.454H163.774H172.405C172.405 20.1163 178.224 40.5118 179.28 44.1698L186.214 20.1163H194.929L182.923 55.3399H175.331L163.774 21.0686V55.3399H155.444V20.1163ZM124.049 20.1163V27.4339H134.252V55.3399H142.703V27.4339H152.905V20.1163H124.049ZM106.492 20.1163V55.3399H131.77V47.9448H114.869V20.1163H106.492ZM94.9823 20.1163V41.5812C94.9823 43.7985 94.7237 45.4131 94.224 46.3904C93.462 48.0782 91.8192 48.8809 89.1959 48.8809C86.5726 48.8809 84.926 48.0782 84.1639 46.4175C83.6501 45.4131 83.3921 43.7985 83.3921 41.5812V20.1163H74.906V41.605C74.906 45.3074 75.5017 48.2478 76.6708 50.3432C78.8897 54.2261 83.0946 56.193 89.1959 56.193C95.2928 56.193 99.5091 54.2261 101.706 50.3497C102.881 48.2478 103.467 45.3074 103.467 41.605V20.1163H94.9823ZM61.2156 20.1163L55.5799 35.9438V55.335H71.7917V20.1163H61.2156ZM32.7736 20.1163H23.2002V55.335H39.399V35.9438L32.7736 20.1163ZM208.354 20.1163H199.426L186.852 55.3399H195.647L197.946 48.3573H209.483C209.726 49.147 211.711 55.3399 211.711 55.3399H220.8L208.354 20.1163ZM200.307 41.2099L203.794 30.6273L207.188 41.2099H200.307Z" fill="white"/>
</g>
</g>
</g>
<defs>
<clipPath id="clip0_1367_19285">
<rect width="243.6" height="56.193" fill="white" transform="translate(0.200195)"/>
</clipPath>
<clipPath id="clip1_1367_19285">
<rect width="197.6" height="56.193" fill="white" transform="translate(23.2002)"/>
</clipPath>
</defs>
</svg>
