<svg width="228" height="56" viewBox="0 0 228 56" fill="none" xmlns="http://www.w3.org/2000/svg">
<g clip-path="url(#clip0_1367_19314)">
<g clip-path="url(#clip1_1367_19314)">
<path d="M47.7891 28.6202C42.6248 28.6202 41.0917 28.3781 40.0427 28.2974C38.9937 28.136 37.7833 27.9747 37.7833 26.1187C37.7833 24.2628 37.7833 19.502 37.7833 19.502C37.7833 19.502 37.4606 17.0006 40.5269 16.9199C43.5931 16.9199 58.3597 16.9199 58.3597 16.9199V9.89973C58.3597 9.89973 51.2588 9.01212 45.0456 9.41558C38.8323 9.73835 35.6047 10.3032 33.426 11.5136C31.328 12.7239 29.7949 15.2254 29.7949 17.7268C29.7949 20.4703 29.6335 26.6836 29.7949 28.136C30.0369 29.6692 29.9563 32.8162 35.2012 34.43C40.4462 36.0438 46.9822 36.2859 51.6623 36.0438C56.4231 35.7211 58.5211 35.5597 58.5211 35.5597V28.0553C58.5211 28.0553 52.9534 28.7009 47.7891 28.6202Z" fill="white"/>
<path d="M65.1376 22.4069C65.1376 22.4069 66.348 22.0035 67.1549 21.1158C68.0425 20.2282 68.6074 19.0986 68.6074 17.3233V9.81901C68.6074 8.68933 69.4143 1.42708 60.2961 0.458781C53.276 -0.348136 48.5958 -0.186752 44.2385 -0.106061C36.4114 0.136014 29.6333 2.07261 29.6333 2.07261V11.7556C29.6333 11.7556 30.9244 9.41555 35.6045 8.52795C40.2846 7.64034 46.7399 7.0755 51.7428 7.39826C56.7457 7.72103 57.7947 7.72103 58.6016 7.80172C59.4892 7.9631 60.6996 8.20518 60.6189 10.3839C60.6189 12.5625 60.6189 17.0813 60.6189 17.0813C60.6189 17.0813 60.7803 19.2599 58.5209 19.2599C56.1809 19.2599 40.2846 19.2599 40.2846 19.2599V26.038C40.2846 26.038 46.2558 26.6029 49.4028 26.4415C52.5497 26.2801 56.4229 26.038 57.714 26.038C59.0051 26.038 60.6189 25.7153 60.7803 28.2974C60.9417 30.8795 60.7803 35.2369 60.7803 35.2369L68.7687 33.8651V28.9429C68.7687 27.8132 69.2529 25.4732 65.299 22.4069H65.1376Z" fill="white"/>
<path d="M123.477 6.75269H120.088V36.0437H123.477V6.75269Z" fill="white"/>
<path d="M193.195 -0.186768H189.806V36.0438H193.195V-0.186768Z" fill="white"/>
<path d="M123.477 -0.186768H120.088V4.0092H123.477V-0.186768Z" fill="white"/>
<path d="M81.2757 32.6547C80.4688 32.6547 79.7426 32.0092 79.7426 31.1216V5.13887C79.7426 4.33195 80.3881 3.60573 81.2757 3.60573C82.0826 3.60573 82.8088 4.25126 82.8088 5.13887V13.5308H86.1172V4.00919C86.1172 1.83051 84.4227 0.135986 82.244 0.135986H80.2267C78.048 0.135986 76.3535 1.83051 76.3535 4.00919V32.332C76.3535 34.3492 78.048 36.0438 80.0653 36.0438H82.244C84.4227 36.0438 86.1172 34.3492 86.1172 32.1706V22.1648H82.8088V31.0409C82.8088 31.8478 82.1633 32.574 81.2757 32.574V32.6547Z" fill="white"/>
<path d="M144.861 0.135986H142.843C140.665 0.135986 138.97 1.83051 138.97 4.00919V32.332C138.97 34.3492 140.665 36.0438 142.682 36.0438H144.861C147.039 36.0438 148.734 34.3492 148.734 32.1706V4.00919C148.734 1.83051 147.039 0.135986 144.861 0.135986ZM145.426 13.5308V31.1216C145.426 31.9285 144.78 32.6547 143.892 32.6547C143.085 32.6547 142.359 32.0092 142.359 31.1216V5.13887C142.359 4.33195 143.005 3.60573 143.892 3.60573C144.699 3.60573 145.426 4.25126 145.426 5.13887V13.5308Z" fill="white"/>
<path d="M94.8319 34.1072C94.8319 34.1072 95.1547 34.1072 95.2354 34.1879L95.5581 36.0438H98.7858C98.7858 36.0438 98.1403 30.3147 98.3016 27.3291C98.3823 25.8766 98.2209 14.8219 98.2209 14.8219V3.60573C98.2209 1.66913 96.6878 0.135986 94.7512 0.135986H92.1691C90.3939 0.135986 88.9414 1.58844 88.9414 3.36365V13.5308H92.4111V4.65472C92.4111 4.08988 92.8953 3.60573 93.4601 3.60573H93.7829C94.3477 3.60573 94.8319 4.08988 94.8319 4.65472V12.6432C94.8319 13.0466 94.6705 13.4501 94.2671 13.6922L92.4111 15.0639L91.2008 15.9515C89.829 17.0005 88.9414 18.6144 88.9414 20.3896V33.5423C88.9414 34.9948 90.0711 36.1245 91.5235 36.1245H92.0077C92.0077 36.1245 92.976 36.2858 93.9443 35.2369C94.9126 34.1879 94.7512 34.1879 94.7512 34.1879L94.8319 34.1072ZM94.8319 31.525C94.8319 32.1706 94.2671 32.7354 93.6215 32.7354C92.976 32.7354 92.4111 32.1706 92.4111 31.525V20.7124C92.4111 19.7441 92.8953 18.7758 93.7022 18.2109L94.5091 17.6461C94.5091 17.6461 94.8319 17.6461 94.8319 17.8075V31.525Z" fill="white"/>
<path d="M117.022 3.60574C117.022 1.83052 116.619 0.862221 115.893 0.378071C115.489 0.135996 114.924 -0.0253875 114.279 -0.0253875C112.907 -0.0253875 111.455 1.1043 110.728 1.74983L110.567 1.91121C110.406 1.1043 110.083 0.620146 109.599 0.297379C109.195 0.0553042 108.63 -0.106079 107.985 -0.106079C106.613 -0.106079 105.161 1.0236 104.434 1.66914V0.378071H101.126V36.1245H104.434V5.05819C104.434 4.25127 105.161 3.52504 105.967 3.52504C106.774 3.52504 107.42 4.17058 107.42 4.8968V36.0438H110.728V5.05819C110.728 4.25127 111.455 3.52504 112.261 3.52504C113.068 3.52504 113.714 4.17058 113.714 4.8968V36.0438H117.022V4.41265C117.022 4.41265 117.022 4.25127 117.022 4.08989C117.022 3.9285 117.022 3.76712 117.022 3.52504V3.60574Z" fill="white"/>
<path d="M136.146 3.60573C136.146 1.83052 135.743 0.862217 135.017 0.378068C134.613 0.135993 134.048 -0.0253906 133.403 -0.0253906C132.031 -0.0253906 130.579 1.10429 129.852 1.74983V0.378068H126.544V36.1245H129.852V5.05818C129.852 4.25127 130.579 3.52504 131.385 3.52504C132.192 3.52504 132.838 4.17057 132.838 4.8968V36.0438H136.146V4.41265C136.146 4.41265 136.146 4.25127 136.146 4.08988C136.146 3.9285 136.146 3.76712 136.146 3.52504V3.60573Z" fill="white"/>
<path d="M162.048 31.8478V18.6144C162.048 18.1302 161.806 17.7268 161.402 17.404L160.757 17.0005C160.757 17.0005 160.676 16.8392 160.757 16.7585L161.322 16.355C161.806 15.9515 162.048 15.2253 162.048 14.5798V3.20227C162.048 1.50774 160.676 0.135986 158.982 0.135986H152.284V36.1245H154.786H155.835C155.835 36.1245 155.593 35.6403 155.593 34.1072C155.593 33.9458 155.593 33.8651 155.593 33.7844V19.0178H157.368C158.094 19.0178 158.659 19.5827 158.659 20.3089V32.4933C158.74 34.7527 159.385 36.1245 159.385 36.1245H162.774C162.774 36.1245 162.048 34.5106 162.048 31.9285V31.8478ZM158.74 14.3377C158.74 15.2253 158.013 16.0322 157.045 16.0322H155.673V3.60573H157.448C158.175 3.60573 158.74 4.17057 158.74 4.89679V14.3377Z" fill="white"/>
<path d="M171.005 0.135986H168.987C166.809 0.135986 165.114 1.83051 165.114 4.00919V32.332C165.114 34.3492 166.809 36.0438 168.826 36.0438H171.005C173.183 36.0438 174.878 34.3492 174.878 32.1706V22.1648L171.57 22.0841V31.1216C171.57 31.9285 170.924 32.6547 170.036 32.6547C169.149 32.6547 168.503 32.0092 168.503 31.1216V18.9371H174.878V4.00919C174.878 1.83051 173.183 0.135986 171.005 0.135986ZM168.503 16.1936V5.13887C168.503 4.33195 169.149 3.60573 170.036 3.60573C170.924 3.60573 171.57 4.25126 171.57 5.13887V16.1936H168.503Z" fill="white"/>
<path d="M183.512 34.1072C183.512 34.1072 183.835 34.1072 183.916 34.1879L184.238 36.0438H187.466C187.466 36.0438 186.82 30.3147 186.982 27.3291C187.063 25.8766 186.901 14.8219 186.901 14.8219V3.60573C186.901 1.66913 185.368 0.135986 183.431 0.135986H180.849C179.074 0.135986 177.622 1.58844 177.622 3.36365V13.5308H181.091V4.65472C181.091 4.08988 181.575 3.60573 182.14 3.60573H182.463C183.028 3.60573 183.512 4.08988 183.512 4.65472V12.6432C183.512 13.0466 183.351 13.4501 182.947 13.6922L181.091 15.0639L179.881 15.9515C178.509 17.0005 177.622 18.6144 177.622 20.3896V33.5423C177.622 34.9948 178.751 36.1245 180.204 36.1245H180.688C180.688 36.1245 181.656 36.2858 182.624 35.2369C183.593 34.1879 183.431 34.1879 183.431 34.1879L183.512 34.1072ZM183.512 31.525C183.512 32.1706 182.947 32.7354 182.302 32.7354C181.656 32.7354 181.091 32.1706 181.091 31.525V20.7124C181.091 19.7441 181.575 18.7758 182.382 18.2109L183.189 17.6461C183.189 17.6461 183.512 17.6461 183.512 17.8075V31.525Z" fill="white"/>
<path d="M195.132 33.9458C195.132 32.8161 196.019 31.8478 197.149 31.8478C198.279 31.8478 199.166 32.7354 199.166 33.9458C199.166 35.1561 198.279 36.0437 197.149 36.0437C196.019 36.0437 195.132 35.1561 195.132 33.9458ZM195.455 33.9458C195.455 34.9141 196.181 35.721 197.149 35.721C198.117 35.721 198.844 34.9141 198.844 33.9458C198.844 32.9775 198.117 32.1705 197.149 32.1705C196.181 32.1705 195.455 32.9775 195.455 33.9458ZM196.423 32.8161H197.311C197.714 32.8161 197.956 33.0582 197.956 33.3809C197.956 33.7037 197.795 33.9458 197.472 34.0265C197.633 34.3492 197.875 34.672 198.037 34.9948L198.198 35.2368C198.198 35.2368 198.037 35.2368 197.956 35.2368C197.875 35.2368 197.795 35.2368 197.714 35.2368L197.149 34.1878H197.068V35.2368C197.068 35.2368 196.907 35.2368 196.826 35.2368C196.826 35.2368 196.665 35.2368 196.584 35.2368V32.8968L196.423 32.8161ZM196.907 33.9458C196.907 33.9458 197.472 33.7844 197.472 33.4616C197.472 33.0582 197.311 33.0582 197.068 33.0582H196.907V33.9458Z" fill="white"/>
<path d="M103.466 45.0005H104.112V51.2944H110.325V45.0005H110.971V55.7325H110.325V51.94H104.112V55.7325H103.466V45.0005Z" fill="white"/>
<path d="M113.553 50.3261C113.553 47.0985 115.973 44.8391 119.04 44.8391C122.106 44.8391 124.527 47.0985 124.527 50.3261C124.527 53.5538 122.106 55.8132 119.04 55.8132C115.973 55.8132 113.553 53.5538 113.553 50.3261ZM123.881 50.3261C123.881 47.5019 121.783 45.404 119.04 45.404C116.296 45.404 114.198 47.5019 114.198 50.3261C114.198 53.1504 116.296 55.2483 119.04 55.2483C121.783 55.2483 123.881 53.1504 123.881 50.3261Z" fill="white"/>
<path d="M128.723 45.5653H125.334V45.0005H132.758V45.5653H129.369V55.7325H128.723V45.5653Z" fill="white"/>
<path d="M134.855 45.0005H141.149V45.5653H135.501V51.2944H140.504V51.8593H135.501V55.1676H141.311V55.7325H134.855V45.0005Z" fill="white"/>
<path d="M143.893 45.0005H144.538V55.1676H149.702V55.7325H143.893V45.0005Z" fill="white"/>
<path d="M151.962 45.0005H158.256V45.5653H152.607V51.2944H157.61V51.8593H152.607V55.1676H158.417V55.7325H151.962V45.0005Z" fill="white"/>
<path d="M159.951 53.6345L160.516 53.3924C161 54.3607 161.807 55.2483 163.582 55.2483C164.954 55.2483 166.164 54.4414 166.164 53.0697C166.164 51.8593 165.438 51.1331 163.985 50.4875L163.017 50.0034C161.484 49.2772 160.758 48.6316 160.758 47.2599C160.758 45.8074 161.968 44.8391 163.42 44.8391C164.873 44.8391 165.68 45.5653 166.164 46.3723L165.68 46.695C165.276 45.9688 164.631 45.404 163.42 45.404C162.129 45.404 161.403 46.1302 161.403 47.1792C161.403 48.2282 161.968 48.793 163.259 49.3578L164.227 49.842C165.922 50.6489 166.809 51.5365 166.809 52.989C166.809 54.6835 165.518 55.7325 163.663 55.7325C161.645 55.7325 160.596 54.6835 160.031 53.5538L159.951 53.6345Z" fill="white"/>
</g>
</g>
<defs>
<clipPath id="clip0_1367_19314">
<rect width="227.6" height="54.5664" fill="white" transform="translate(0.399902 0.813232)"/>
</clipPath>
<clipPath id="clip1_1367_19314">
<rect width="169.533" height="56" fill="white" transform="translate(29.6333 -0.186768)"/>
</clipPath>
</defs>
</svg>
