<?xml version="1.0" encoding="utf-8"?>
<!-- Generator: Adobe Illustrator 28.3.0, SVG Export Plug-In . SVG Version: 6.00 Build 0)  -->
<svg version="1.1" id="Livello_1" xmlns="http://www.w3.org/2000/svg" xmlns:xlink="http://www.w3.org/1999/xlink" x="0px" y="0px"
	 viewBox="0 0 24 24" style="enable-background:new 0 0 24 24;" xml:space="preserve">
<style type="text/css">
	.st0{fill:none;}
	.st1{fill:#F6F7F9;}
</style>
<rect class="st0" width="24" height="24"/>
<path class="st1" d="M0,18v-1.6c0-0.7,0.4-1.3,1.1-1.8s1.7-0.7,2.9-0.7c0.2,0,0.4,0,0.6,0s0.4,0,0.6,0.1c-0.2,0.3-0.4,0.7-0.5,1.1
	c-0.1,0.4-0.2,0.8-0.2,1.2v1.6L0,18L0,18z M6,18v-1.6c0-0.5,0.1-1,0.4-1.5s0.7-0.8,1.2-1.2c0.5-0.3,1.2-0.6,1.9-0.8s1.5-0.2,2.4-0.2
	s1.7,0.1,2.4,0.2c0.7,0.2,1.4,0.4,1.9,0.8c0.5,0.3,0.9,0.7,1.2,1.2c0.3,0.4,0.4,0.9,0.4,1.5V18H6z M19.5,18v-1.6
	c0-0.4-0.1-0.8-0.2-1.2s-0.3-0.7-0.5-1.1c0.2,0,0.4-0.1,0.6-0.1s0.4,0,0.6,0c1.2,0,2.2,0.2,2.9,0.7c0.7,0.4,1.1,1,1.1,1.8v1.6
	L19.5,18L19.5,18z M8.1,16h7.8c-0.2-0.3-0.6-0.6-1.4-0.9s-1.6-0.4-2.5-0.4s-1.8,0.1-2.5,0.4C8.7,15.4,8.3,15.7,8.1,16z M4,13
	c-0.5,0-1-0.2-1.4-0.6S2,11.5,2,11c0-0.6,0.2-1,0.6-1.4S3.5,9,4,9c0.6,0,1,0.2,1.4,0.6S6,10.5,6,11s-0.2,1-0.6,1.4S4.6,13,4,13z
	 M20,13c-0.5,0-1-0.2-1.4-0.6S18,11.5,18,11c0-0.6,0.2-1,0.6-1.4C19,9.2,19.5,9,20,9c0.6,0,1,0.2,1.4,0.6S22,10.5,22,11
	s-0.2,1-0.6,1.4C21,12.8,20.6,13,20,13z M12,12c-0.8,0-1.5-0.3-2.1-0.9S9,9.8,9,9c0-0.9,0.3-1.6,0.9-2.1S11.2,6,12,6
	c0.9,0,1.6,0.3,2.1,0.9S15,8.2,15,9s-0.3,1.5-0.9,2.1C13.6,11.7,12.9,12,12,12z M12,10c0.3,0,0.5-0.1,0.7-0.3S13,9.3,13,9
	s-0.1-0.5-0.3-0.7S12.3,8,12,8s-0.5,0.1-0.7,0.3S11,8.7,11,9s0.1,0.5,0.3,0.7S11.7,10,12,10z"/>
</svg>
