<svg width="24" height="25" viewBox="0 0 24 25" fill="none" xmlns="http://www.w3.org/2000/svg">
<path d="M21.5928 7.52088C21.4789 7.09828 21.2563 6.71288 20.9472 6.40305C20.6381 6.09321 20.2532 5.86974 19.8308 5.75488C18.2648 5.32488 11.9998 5.31788 11.9998 5.31788C11.9998 5.31788 5.73584 5.31088 4.16884 5.72188C3.74677 5.84202 3.36266 6.06866 3.05341 6.38001C2.74415 6.69137 2.52013 7.077 2.40284 7.49988C1.98984 9.06588 1.98584 12.3139 1.98584 12.3139C1.98584 12.3139 1.98184 15.5779 2.39184 17.1279C2.62184 17.9849 3.29684 18.6619 4.15484 18.8929C5.73684 19.3229 11.9848 19.3299 11.9848 19.3299C11.9848 19.3299 18.2498 19.3369 19.8158 18.9269C20.2383 18.8122 20.6236 18.5893 20.9335 18.2801C21.2434 17.9709 21.4672 17.5861 21.5828 17.1639C21.9968 15.5989 21.9998 12.3519 21.9998 12.3519C21.9998 12.3519 22.0198 9.08688 21.5928 7.52088ZM9.99584 15.3229L10.0008 9.32288L15.2078 12.3279L9.99584 15.3229Z" fill="#F6F7F9"/>
</svg>
