<?xml version="1.0" encoding="utf-8"?>
<!-- Generator: Adobe Illustrator 24.1.0, SVG Export Plug-In . SVG Version: 6.00 Build 0)  -->
<svg version="1.1" id="Capa_1" xmlns="http://www.w3.org/2000/svg" xmlns:xlink="http://www.w3.org/1999/xlink" x="0px" y="0px"
	 viewBox="0 0 500 122" style="enable-background:new 0 0 500 122;" xml:space="preserve">
<style type="text/css">
	.st0{clip-path:url(#SVGID_2_);}
	.st1{fill:#024254;}
</style>
<g>
	<defs>
		<rect id="SVGID_1_" y="0" width="500" height="121.2"/>
	</defs>
	<clipPath id="SVGID_2_">
		<use xlink:href="#SVGID_1_"  style="overflow:visible;"/>
	</clipPath>
	<g class="st0">
		<path class="st1" d="M15.9,111.3c0,0.5-0.2,0.8-0.7,0.8h-12v0.5c0,2.1,0.4,3.6,1.3,4.5c0.8,0.9,2.1,1.3,3.7,1.3
			c1.1,0,2.2,0,3.4-0.1c1.2-0.1,2.2-0.2,3-0.3h0.2c0.1,0,0.3,0,0.4,0.1s0.2,0.2,0.2,0.4v1.2c0,0.2,0,0.4-0.1,0.6
			c-0.1,0.1-0.3,0.2-0.6,0.3c-1,0.2-2.1,0.3-3.1,0.4c-1,0.1-2.1,0.2-3.4,0.2c-1,0-2-0.1-3-0.4c-1-0.3-1.9-0.7-2.6-1.4
			c-0.8-0.7-1.4-1.5-1.8-2.6c-0.5-1.1-0.7-2.5-0.7-4.2v-3.2c0-2.6,0.7-4.6,2.1-6.1c1.4-1.5,3.3-2.3,5.9-2.3c1.3,0,2.5,0.2,3.4,0.6
			c1,0.4,1.8,1,2.5,1.7c0.7,0.7,1.2,1.6,1.5,2.7c0.3,1,0.5,2.2,0.5,3.5L15.9,111.3L15.9,111.3z M12.7,109.4c0-2-0.4-3.5-1.2-4.3
			c-0.8-0.9-2-1.3-3.5-1.3s-2.8,0.5-3.6,1.4c-0.8,0.9-1.2,2.3-1.2,4.3v0.3h9.5V109.4z"/>
		<path class="st1" d="M39.3,120.2c0,0.2-0.1,0.4-0.2,0.5c-0.1,0.1-0.3,0.2-0.5,0.2h-1.7c-0.2,0-0.4-0.1-0.5-0.2
			c-0.1-0.1-0.2-0.3-0.2-0.5v-11.8c0-0.9-0.1-1.7-0.2-2.3c-0.2-0.6-0.4-1.1-0.7-1.5c-0.3-0.4-0.7-0.6-1.2-0.8
			c-0.5-0.2-1.1-0.2-1.8-0.2c-0.8,0-1.6,0.1-2.4,0.4c-0.8,0.3-1.6,0.6-2.5,1v15.1c0,0.2-0.1,0.4-0.2,0.5c-0.1,0.1-0.3,0.2-0.5,0.2
			h-1.8c-0.2,0-0.4-0.1-0.5-0.2c-0.1-0.1-0.2-0.3-0.2-0.5v-18.3c0-0.2,0.1-0.4,0.2-0.5c0.1-0.1,0.3-0.2,0.5-0.2h1.8
			c0.2,0,0.4,0.1,0.5,0.2c0.1,0.1,0.2,0.3,0.2,0.5v0.7c1-0.6,1.9-1,2.8-1.3c0.9-0.3,1.8-0.4,2.9-0.4c2.2,0,3.8,0.6,4.8,1.9
			c1,1.3,1.5,3.1,1.5,5.5L39.3,120.2L39.3,120.2z"/>
		<path class="st1" d="M60.4,120c0,0.2,0,0.4-0.1,0.5c-0.1,0.1-0.3,0.2-0.6,0.3c-0.6,0.1-1.3,0.2-2.1,0.3c-0.8,0.1-1.6,0.1-2.4,0.1
			c-1.2,0-2.3-0.2-3.2-0.6c-0.9-0.4-1.8-1-2.4-1.8c-0.7-0.8-1.2-1.7-1.5-2.8c-0.3-1.1-0.5-2.3-0.5-3.6v-2.8c0-1.3,0.2-2.5,0.5-3.6
			c0.3-1.1,0.8-2,1.5-2.8c0.6-0.8,1.5-1.3,2.4-1.8c1-0.4,2.1-0.6,3.3-0.6c0.8,0,1.6,0,2.4,0.1c0.8,0.1,1.5,0.2,2.1,0.3
			c0.3,0,0.5,0.1,0.6,0.2c0.1,0.1,0.1,0.3,0.1,0.6v1.3c0,0.2-0.1,0.3-0.2,0.4c-0.1,0.1-0.3,0.1-0.4,0.1h-0.1
			c-0.8-0.1-1.5-0.2-2.2-0.2c-0.6,0-1.4-0.1-2.3-0.1c-1.4,0-2.5,0.5-3.3,1.5c-0.8,1-1.2,2.5-1.2,4.5v2.8c0,2,0.4,3.5,1.2,4.5
			c0.8,1,1.9,1.5,3.3,1.5c0.9,0,1.7,0,2.3-0.1c0.6,0,1.4-0.1,2.2-0.2h0.1c0.2,0,0.3,0,0.4,0.1c0.1,0.1,0.2,0.2,0.2,0.4L60.4,120
			L60.4,120z"/>
		<path class="st1" d="M82.4,112.4c0,1.3-0.2,2.5-0.5,3.6c-0.3,1.1-0.8,2-1.5,2.8c-0.7,0.8-1.5,1.4-2.5,1.8c-1,0.4-2.2,0.6-3.5,0.6
			c-1.3,0-2.5-0.2-3.5-0.6c-1-0.4-1.8-1-2.5-1.8c-0.7-0.8-1.2-1.7-1.5-2.8c-0.3-1.1-0.5-2.3-0.5-3.6v-2.7c0-1.3,0.2-2.5,0.5-3.6
			c0.3-1.1,0.8-2,1.5-2.8s1.5-1.4,2.5-1.8c1-0.4,2.2-0.6,3.5-0.6c1.3,0,2.5,0.2,3.5,0.6c1,0.4,1.8,1,2.5,1.8
			c0.7,0.8,1.2,1.7,1.5,2.8c0.3,1.1,0.5,2.3,0.5,3.6V112.4z M79.2,109.7c0-1.8-0.4-3.3-1.2-4.4c-0.8-1.1-2-1.6-3.7-1.6
			c-1.7,0-2.9,0.5-3.7,1.6c-0.8,1.1-1.2,2.5-1.2,4.4v2.7c0,1.8,0.4,3.3,1.1,4.4c0.8,1.1,2,1.6,3.7,1.6c1.7,0,2.9-0.5,3.7-1.6
			c0.8-1.1,1.2-2.5,1.2-4.4L79.2,109.7L79.2,109.7z"/>
		<path class="st1" d="M105.8,120.2c0,0.2-0.1,0.4-0.2,0.5c-0.1,0.1-0.3,0.2-0.5,0.2h-1.8c-0.2,0-0.4-0.1-0.5-0.2
			c-0.1-0.1-0.2-0.3-0.2-0.5v-0.7c-1,0.6-1.9,1-2.8,1.3c-0.9,0.3-1.8,0.4-2.9,0.4c-2.2,0-3.8-0.6-4.8-1.9c-1-1.3-1.5-3.1-1.5-5.5
			v-11.8c0-0.2,0.1-0.4,0.2-0.5c0.1-0.1,0.3-0.2,0.5-0.2h1.7c0.2,0,0.4,0.1,0.5,0.2c0.1,0.1,0.2,0.3,0.2,0.5v11.8
			c0,0.9,0.1,1.7,0.2,2.3c0.2,0.6,0.4,1.1,0.7,1.5c0.3,0.4,0.7,0.6,1.2,0.8c0.5,0.2,1.1,0.2,1.8,0.2c0.8,0,1.6-0.1,2.4-0.4
			c0.8-0.3,1.6-0.6,2.5-1v-15.1c0-0.2,0.1-0.4,0.2-0.5c0.1-0.1,0.3-0.2,0.5-0.2h1.8c0.2,0,0.4,0.1,0.5,0.2c0.1,0.1,0.2,0.3,0.2,0.5
			L105.8,120.2L105.8,120.2z"/>
		<path class="st1" d="M129.7,120.2c0,0.2-0.1,0.4-0.2,0.5c-0.1,0.1-0.3,0.2-0.5,0.2h-1.7c-0.2,0-0.4-0.1-0.5-0.2
			c-0.1-0.1-0.2-0.3-0.2-0.5v-11.8c0-0.9-0.1-1.7-0.2-2.3c-0.2-0.6-0.4-1.1-0.7-1.5c-0.3-0.4-0.7-0.6-1.2-0.8s-1.1-0.2-1.8-0.2
			c-0.8,0-1.6,0.1-2.4,0.4c-0.8,0.3-1.6,0.6-2.5,1v15.1c0,0.2-0.1,0.4-0.2,0.5c-0.1,0.1-0.3,0.2-0.5,0.2h-1.8
			c-0.2,0-0.4-0.1-0.5-0.2c-0.1-0.1-0.2-0.3-0.2-0.5v-18.3c0-0.2,0.1-0.4,0.2-0.5c0.1-0.1,0.3-0.2,0.5-0.2h1.8
			c0.2,0,0.4,0.1,0.5,0.2c0.1,0.1,0.2,0.3,0.2,0.5v0.7c1-0.6,1.9-1,2.8-1.3c0.9-0.3,1.8-0.4,2.9-0.4c2.2,0,3.8,0.6,4.8,1.9
			c1,1.3,1.5,3.1,1.5,5.5L129.7,120.2L129.7,120.2z"/>
		<path class="st1" d="M148.4,120.4c0,0.3-0.2,0.5-0.6,0.6c-0.4,0-0.8,0.1-1.2,0.1c-0.4,0-0.8,0.1-1.2,0.1c-0.8,0-1.6-0.1-2.2-0.2
			c-0.6-0.1-1.1-0.4-1.5-0.7s-0.7-0.9-0.9-1.5c-0.2-0.6-0.3-1.4-0.3-2.4v-12.5l-3.5-0.4c-0.5,0-0.7-0.3-0.7-0.6v-1
			c0-0.4,0.2-0.6,0.7-0.6h3.5v-3.5c0-0.4,0.2-0.6,0.6-0.7l1.9-0.3h0.1c0.1,0,0.3,0.1,0.4,0.2c0.1,0.1,0.2,0.3,0.2,0.5v3.9h3.9
			c0.2,0,0.4,0.1,0.5,0.2c0.1,0.1,0.2,0.3,0.2,0.5v1.2c0,0.2-0.1,0.4-0.2,0.5c-0.1,0.1-0.3,0.2-0.5,0.2h-3.9v12.5
			c0,1,0.1,1.6,0.4,1.9c0.3,0.3,0.8,0.4,1.5,0.4h2c0.5,0,0.8,0.2,0.8,0.5V120.4L148.4,120.4z"/>
		<path class="st1" d="M170.9,111.3c0,0.5-0.2,0.8-0.7,0.8h-12v0.5c0,2.1,0.4,3.6,1.3,4.5c0.8,0.9,2.1,1.3,3.7,1.3
			c1.1,0,2.2,0,3.4-0.1c1.2-0.1,2.2-0.2,3-0.3h0.2c0.1,0,0.3,0,0.4,0.1c0.1,0.1,0.2,0.2,0.2,0.4v1.2c0,0.2,0,0.4-0.1,0.6
			c-0.1,0.1-0.3,0.2-0.6,0.3c-1,0.2-2.1,0.3-3.1,0.4c-1,0.1-2.1,0.2-3.4,0.2c-1,0-2-0.1-3-0.4c-1-0.3-1.9-0.7-2.6-1.4
			c-0.8-0.7-1.4-1.5-1.8-2.6c-0.5-1.1-0.7-2.5-0.7-4.2v-3.2c0-2.6,0.7-4.6,2.1-6.1c1.4-1.5,3.3-2.3,5.9-2.3c1.3,0,2.5,0.2,3.4,0.6
			c1,0.4,1.8,1,2.5,1.7c0.7,0.7,1.2,1.6,1.5,2.7c0.3,1,0.5,2.2,0.5,3.5L170.9,111.3L170.9,111.3z M167.8,109.4c0-2-0.4-3.5-1.2-4.3
			c-0.8-0.9-2-1.3-3.5-1.3s-2.8,0.5-3.6,1.4c-0.8,0.9-1.2,2.3-1.2,4.3v0.3h9.6V109.4z"/>
		<path class="st1" d="M188.1,103.1c0,0.4-0.3,0.6-0.8,0.6c-0.8,0-1.6,0.1-2.4,0.3c-0.8,0.2-1.6,0.6-2.5,1.2v15
			c0,0.2-0.1,0.4-0.2,0.5c-0.1,0.1-0.3,0.2-0.5,0.2h-1.8c-0.2,0-0.4-0.1-0.5-0.2c-0.1-0.1-0.2-0.3-0.2-0.5v-18.3
			c0-0.2,0.1-0.4,0.2-0.5c0.1-0.1,0.3-0.2,0.5-0.2h1.7c0.2,0,0.4,0.1,0.5,0.2c0.1,0.1,0.2,0.3,0.2,0.5v0.8c0.9-0.6,1.8-1.1,2.6-1.3
			c0.8-0.3,1.7-0.4,2.5-0.4c0.5,0,0.8,0.2,0.8,0.7L188.1,103.1L188.1,103.1z"/>
		<path class="st1" d="M236.5,112.4c0,1.3-0.2,2.5-0.5,3.6c-0.3,1.1-0.8,2-1.5,2.8c-0.7,0.8-1.5,1.4-2.5,1.8c-1,0.4-2.2,0.6-3.5,0.6
			c-1.3,0-2.5-0.2-3.5-0.6c-1-0.4-1.8-1-2.5-1.8c-0.7-0.8-1.2-1.7-1.5-2.8c-0.3-1.1-0.5-2.3-0.5-3.6v-2.7c0-1.3,0.2-2.5,0.5-3.6
			c0.3-1.1,0.8-2,1.5-2.8c0.7-0.8,1.5-1.4,2.5-1.8c1-0.4,2.2-0.6,3.5-0.6c1.3,0,2.5,0.2,3.5,0.6c1,0.4,1.8,1,2.5,1.8
			c0.7,0.8,1.2,1.7,1.5,2.8s0.5,2.3,0.5,3.6V112.4z M233.4,109.7c0-1.8-0.4-3.3-1.2-4.4c-0.8-1.1-2-1.6-3.7-1.6s-2.9,0.5-3.7,1.6
			c-0.8,1.1-1.2,2.5-1.2,4.4v2.7c0,1.8,0.4,3.3,1.1,4.4c0.7,1.1,2,1.6,3.7,1.6c1.7,0,2.9-0.5,3.7-1.6c0.8-1.1,1.2-2.5,1.2-4.4
			L233.4,109.7L233.4,109.7z"/>
		<path class="st1" d="M254.4,95.6c0,0.4-0.2,0.5-0.6,0.5H252c-0.8,0-1.4,0.2-1.7,0.5c-0.3,0.3-0.5,1-0.5,2v2.6h3.8
			c0.2,0,0.4,0.1,0.5,0.2c0.1,0.1,0.2,0.3,0.2,0.5v1.4c0,0.4-0.2,0.6-0.7,0.6h-3.8v16.4c0,0.2-0.1,0.4-0.2,0.5
			c-0.1,0.1-0.3,0.2-0.5,0.2h-1.8c-0.2,0-0.4-0.1-0.5-0.2c-0.1-0.1-0.2-0.3-0.2-0.5v-16.4l-3.5-0.4c-0.5,0-0.7-0.3-0.7-0.6v-1
			c0-0.2,0.1-0.3,0.2-0.5c0.1-0.1,0.3-0.2,0.5-0.2h3.5v-2.6c0-1,0.1-1.8,0.3-2.4c0.2-0.6,0.6-1.2,1-1.5c0.4-0.4,1-0.7,1.6-0.8
			c0.6-0.2,1.3-0.2,2.1-0.2c0.5,0,0.9,0,1.2,0.1c0.3,0,0.6,0.1,0.8,0.1c0.5,0.1,0.7,0.3,0.7,0.6L254.4,95.6L254.4,95.6z"/>
		<path class="st1" d="M302,119.8c0,0.2,0,0.4-0.1,0.6c-0.1,0.1-0.3,0.2-0.6,0.3c-1.1,0.2-2.2,0.4-3.3,0.5c-1.1,0.1-2.2,0.1-3.3,0.1
			c-1.3,0-2.5-0.2-3.5-0.6c-1-0.4-1.8-1-2.4-1.8c-0.6-0.8-1.1-1.7-1.4-2.8c-0.3-1.1-0.5-2.3-0.5-3.7v-2.6c0-2.8,0.6-5,1.9-6.5
			c1.3-1.5,3.2-2.3,5.9-2.3c0.6,0,1.2,0,2,0.1c0.8,0.1,1.5,0.2,2.2,0.3v-6.7c0-0.2,0.1-0.4,0.2-0.5c0.1-0.1,0.3-0.2,0.5-0.2h1.8
			c0.2,0,0.3,0.1,0.5,0.2c0.1,0.1,0.2,0.3,0.2,0.5L302,119.8L302,119.8z M298.8,104c-0.6-0.1-1.3-0.2-2.1-0.2c-0.8,0-1.5,0-2.1,0
			c-0.9,0-1.6,0.1-2.2,0.4c-0.6,0.3-1.1,0.7-1.4,1.2c-0.4,0.5-0.6,1.2-0.8,1.9c-0.2,0.8-0.2,1.6-0.2,2.6v2.6c0,2,0.3,3.5,1,4.5
			c0.7,1.1,1.9,1.6,3.7,1.6c0.6,0,1.3,0,2.1-0.1c0.8,0,1.5-0.1,2.1-0.1L298.8,104L298.8,104z"/>
		<path class="st1" d="M314.5,97.3c0,0.2-0.1,0.4-0.2,0.5c-0.1,0.1-0.3,0.2-0.5,0.2h-1.8c-0.2,0-0.4-0.1-0.5-0.2
			c-0.1-0.1-0.2-0.3-0.2-0.5v-2.9c0-0.2,0.1-0.4,0.2-0.5c0.1-0.1,0.3-0.2,0.5-0.2h1.8c0.2,0,0.4,0.1,0.5,0.2
			c0.1,0.1,0.2,0.3,0.2,0.5V97.3z M314.4,120.2c0,0.2-0.1,0.4-0.2,0.5c-0.1,0.1-0.3,0.2-0.5,0.2h-1.7c-0.2,0-0.4-0.1-0.5-0.2
			c-0.1-0.1-0.2-0.3-0.2-0.5v-18.3c0-0.2,0.1-0.4,0.2-0.5c0.1-0.1,0.3-0.2,0.5-0.2h1.7c0.2,0,0.4,0.1,0.5,0.2
			c0.1,0.1,0.2,0.3,0.2,0.5V120.2z"/>
		<path class="st1" d="M336.2,116c0,0.9-0.2,1.7-0.5,2.4c-0.3,0.7-0.8,1.2-1.4,1.6c-0.6,0.4-1.3,0.7-2.1,0.9
			c-0.8,0.2-1.7,0.3-2.8,0.3c-0.3,0-0.7,0-1.2,0c-0.5,0-1,0-1.5-0.1c-0.5,0-1-0.1-1.6-0.2c-0.5-0.1-1-0.2-1.4-0.3
			c-0.5-0.1-0.8-0.4-0.8-0.7v-1.3c0-0.2,0.1-0.3,0.2-0.4c0.1-0.1,0.3-0.1,0.5-0.1h0.1c0.4,0,0.9,0.1,1.4,0.1c0.5,0,1,0.1,1.6,0.1
			c0.5,0,1,0.1,1.5,0.1c0.5,0,0.9,0,1.2,0c1.2,0,2.1-0.2,2.7-0.5c0.6-0.4,0.9-1,0.9-2c0-0.6-0.2-1-0.6-1.4c-0.4-0.4-1.1-0.9-2.1-1.5
			l-3.6-2.2c-1.1-0.7-2-1.4-2.7-2.2c-0.7-0.8-1-1.8-1-2.9c0-0.9,0.2-1.7,0.5-2.3c0.3-0.6,0.8-1.1,1.4-1.5c0.6-0.4,1.3-0.6,2.1-0.8
			c0.8-0.1,1.7-0.2,2.6-0.2c1,0,2,0,2.9,0.1c0.9,0.1,1.8,0.2,2.7,0.3c0.5,0.1,0.7,0.3,0.7,0.7v1.2c0,0.4-0.2,0.6-0.6,0.6h-0.1
			c-0.6,0-1.5-0.1-2.5-0.2c-1-0.1-2.1-0.1-3.1-0.1c-1,0-1.8,0.1-2.4,0.4c-0.6,0.2-0.9,0.8-0.9,1.7c0,0.6,0.2,1,0.6,1.4
			s1,0.8,1.9,1.3l3.5,2.1c1.5,0.9,2.5,1.8,3.1,2.6C335.9,114,336.2,115,336.2,116L336.2,116z"/>
		<path class="st1" d="M356.6,120c0,0.2,0,0.4-0.1,0.5c-0.1,0.1-0.3,0.2-0.6,0.3c-0.6,0.1-1.3,0.2-2.1,0.3c-0.8,0.1-1.6,0.1-2.4,0.1
			c-1.2,0-2.3-0.2-3.2-0.6c-0.9-0.4-1.8-1-2.4-1.8c-0.7-0.8-1.2-1.7-1.5-2.8c-0.3-1.1-0.5-2.3-0.5-3.6v-2.8c0-1.3,0.2-2.5,0.5-3.6
			c0.3-1.1,0.8-2,1.5-2.8c0.6-0.8,1.5-1.3,2.4-1.8c1-0.4,2.1-0.6,3.3-0.6c0.8,0,1.6,0,2.4,0.1c0.8,0.1,1.5,0.2,2.1,0.3
			c0.3,0,0.5,0.1,0.6,0.2c0.1,0.1,0.1,0.3,0.1,0.6v1.3c0,0.2-0.1,0.3-0.2,0.4c-0.1,0.1-0.3,0.1-0.4,0.1h-0.1
			c-0.8-0.1-1.5-0.2-2.2-0.2c-0.6,0-1.4-0.1-2.3-0.1c-1.4,0-2.5,0.5-3.3,1.5c-0.8,1-1.2,2.5-1.2,4.5v2.8c0,2,0.4,3.5,1.2,4.5
			c0.8,1,1.9,1.5,3.3,1.5c0.9,0,1.7,0,2.3-0.1c0.6,0,1.4-0.1,2.2-0.2h0.1c0.2,0,0.3,0,0.4,0.1c0.1,0.1,0.2,0.2,0.2,0.4V120z"/>
		<path class="st1" d="M378.7,112.4c0,1.3-0.2,2.5-0.5,3.6c-0.3,1.1-0.8,2-1.5,2.8c-0.7,0.8-1.5,1.4-2.5,1.8c-1,0.4-2.2,0.6-3.5,0.6
			c-1.3,0-2.5-0.2-3.5-0.6c-1-0.4-1.8-1-2.5-1.8c-0.7-0.8-1.2-1.7-1.5-2.8c-0.3-1.1-0.5-2.3-0.5-3.6v-2.7c0-1.3,0.2-2.5,0.5-3.6
			s0.8-2,1.5-2.8c0.7-0.8,1.5-1.4,2.5-1.8c1-0.4,2.2-0.6,3.5-0.6c1.3,0,2.5,0.2,3.5,0.6c1,0.4,1.8,1,2.5,1.8
			c0.7,0.8,1.2,1.7,1.5,2.8c0.3,1.1,0.5,2.3,0.5,3.6V112.4z M375.5,109.7c0-1.8-0.4-3.3-1.2-4.4c-0.8-1.1-2-1.6-3.7-1.6
			s-2.9,0.5-3.7,1.6s-1.2,2.5-1.2,4.4v2.7c0,1.8,0.4,3.3,1.1,4.4c0.8,1.1,2,1.6,3.7,1.6c1.7,0,2.9-0.5,3.7-1.6
			c0.8-1.1,1.2-2.5,1.2-4.4L375.5,109.7L375.5,109.7z"/>
		<path class="st1" d="M401.3,101.8c0,0.1,0,0.2,0,0.3l-4.8,17.1c-0.2,0.8-0.6,1.4-1.2,1.6c-0.6,0.3-1.2,0.4-2,0.4
			c-0.8,0-1.4-0.1-2-0.4c-0.6-0.3-1-0.8-1.2-1.6l-4.8-17.1c0-0.1,0-0.2,0-0.3c0-0.4,0.2-0.6,0.6-0.6h2c0.3,0,0.5,0.2,0.7,0.7
			l4.1,15.7c0.1,0.4,0.2,0.7,0.3,0.8c0.1,0.1,0.2,0.2,0.4,0.2c0.2,0,0.3-0.1,0.4-0.2c0.1-0.1,0.2-0.4,0.3-0.8l4.1-15.7
			c0.1-0.5,0.4-0.7,0.7-0.7h2C401.1,101.2,401.3,101.4,401.3,101.8L401.3,101.8z"/>
		<path class="st1" d="M423.6,111.3c0,0.5-0.2,0.8-0.7,0.8h-12v0.5c0,2.1,0.4,3.6,1.3,4.5c0.8,0.9,2.1,1.3,3.7,1.3
			c1.1,0,2.2,0,3.4-0.1c1.2-0.1,2.2-0.2,3-0.3h0.2c0.1,0,0.3,0,0.4,0.1c0.1,0.1,0.2,0.2,0.2,0.4v1.2c0,0.2,0,0.4-0.1,0.6
			c-0.1,0.1-0.3,0.2-0.6,0.3c-1,0.2-2.1,0.3-3.1,0.4c-1,0.1-2.1,0.2-3.4,0.2c-1,0-2-0.1-3-0.4c-1-0.3-1.9-0.7-2.6-1.4
			c-0.8-0.7-1.4-1.5-1.8-2.6c-0.5-1.1-0.7-2.5-0.7-4.2v-3.2c0-2.6,0.7-4.6,2.1-6.1c1.4-1.5,3.3-2.3,5.9-2.3c1.3,0,2.5,0.2,3.4,0.6
			c1,0.4,1.8,1,2.5,1.7c0.7,0.7,1.2,1.6,1.5,2.7c0.3,1,0.5,2.2,0.5,3.5L423.6,111.3L423.6,111.3z M420.5,109.4c0-2-0.4-3.5-1.2-4.3
			c-0.8-0.9-2-1.3-3.5-1.3s-2.8,0.5-3.6,1.4c-0.8,0.9-1.2,2.3-1.2,4.3v0.3h9.5V109.4z"/>
		<path class="st1" d="M440.8,103.1c0,0.4-0.3,0.6-0.8,0.6c-0.8,0-1.7,0.1-2.4,0.3c-0.8,0.2-1.6,0.6-2.5,1.2v15
			c0,0.2-0.1,0.4-0.2,0.5c-0.1,0.1-0.3,0.2-0.5,0.2h-1.8c-0.2,0-0.4-0.1-0.5-0.2c-0.1-0.1-0.2-0.3-0.2-0.5v-18.3
			c0-0.2,0.1-0.4,0.2-0.5c0.1-0.1,0.3-0.2,0.5-0.2h1.7c0.2,0,0.4,0.1,0.5,0.2c0.1,0.1,0.2,0.3,0.2,0.5v0.8c0.9-0.6,1.8-1.1,2.6-1.3
			c0.8-0.3,1.6-0.4,2.5-0.4c0.5,0,0.8,0.2,0.8,0.7L440.8,103.1L440.8,103.1z"/>
		<path class="st1" d="M451.8,97.3c0,0.2-0.1,0.4-0.2,0.5c-0.1,0.1-0.3,0.2-0.5,0.2h-1.8c-0.2,0-0.4-0.1-0.5-0.2
			c-0.1-0.1-0.2-0.3-0.2-0.5v-2.9c0-0.2,0.1-0.4,0.2-0.5c0.1-0.1,0.3-0.2,0.5-0.2h1.8c0.2,0,0.4,0.1,0.5,0.2
			c0.1,0.1,0.2,0.3,0.2,0.5V97.3z M451.7,120.2c0,0.2-0.1,0.4-0.2,0.5c-0.1,0.1-0.3,0.2-0.5,0.2h-1.7c-0.2,0-0.4-0.1-0.5-0.2
			c-0.1-0.1-0.2-0.3-0.2-0.5v-18.3c0-0.2,0.1-0.4,0.2-0.5c0.1-0.1,0.3-0.2,0.5-0.2h1.7c0.2,0,0.4,0.1,0.5,0.2
			c0.1,0.1,0.2,0.3,0.2,0.5V120.2z"/>
		<path class="st1" d="M476.3,111.3c0,0.5-0.2,0.8-0.7,0.8h-12v0.5c0,2.1,0.4,3.6,1.3,4.5c0.8,0.9,2.1,1.3,3.7,1.3
			c1.1,0,2.2,0,3.4-0.1c1.2-0.1,2.2-0.2,3-0.3h0.2c0.1,0,0.3,0,0.4,0.1c0.1,0.1,0.2,0.2,0.2,0.4v1.2c0,0.2,0,0.4-0.1,0.6
			c-0.1,0.1-0.3,0.2-0.6,0.3c-1,0.2-2.1,0.3-3.1,0.4c-1,0.1-2.1,0.2-3.4,0.2c-1,0-2-0.1-3-0.4c-1-0.3-1.9-0.7-2.6-1.4
			c-0.8-0.7-1.4-1.5-1.8-2.6c-0.5-1.1-0.7-2.5-0.7-4.2v-3.2c0-2.6,0.7-4.6,2.1-6.1c1.4-1.5,3.3-2.3,5.9-2.3c1.3,0,2.5,0.2,3.4,0.6
			c1,0.4,1.8,1,2.5,1.7c0.7,0.7,1.2,1.6,1.5,2.7c0.3,1,0.5,2.2,0.5,3.5L476.3,111.3L476.3,111.3z M473.1,109.4c0-2-0.4-3.5-1.2-4.3
			c-0.8-0.9-2-1.3-3.5-1.3s-2.8,0.5-3.6,1.4c-0.8,0.9-1.2,2.3-1.2,4.3v0.3h9.5V109.4z"/>
		<path class="st1" d="M497,116c0,0.9-0.2,1.7-0.5,2.4c-0.3,0.7-0.8,1.2-1.4,1.6c-0.6,0.4-1.3,0.7-2.1,0.9c-0.8,0.2-1.7,0.3-2.8,0.3
			c-0.3,0-0.7,0-1.2,0c-0.5,0-1,0-1.5-0.1c-0.5,0-1-0.1-1.6-0.2c-0.5-0.1-1-0.2-1.4-0.3c-0.5-0.1-0.8-0.4-0.8-0.7v-1.3
			c0-0.2,0.1-0.3,0.2-0.4c0.1-0.1,0.3-0.1,0.5-0.1h0.1c0.4,0,0.9,0.1,1.4,0.1c0.5,0,1,0.1,1.6,0.1c0.5,0,1,0.1,1.5,0.1
			c0.5,0,0.9,0,1.2,0c1.2,0,2.1-0.2,2.7-0.5c0.6-0.4,0.9-1,0.9-2c0-0.6-0.2-1-0.6-1.4c-0.4-0.4-1.1-0.9-2.1-1.5l-3.6-2.2
			c-1.1-0.7-2-1.4-2.7-2.2c-0.7-0.8-1-1.8-1-2.9c0-0.9,0.2-1.7,0.5-2.3c0.3-0.6,0.8-1.1,1.4-1.5c0.6-0.4,1.3-0.6,2.1-0.8
			c0.8-0.1,1.7-0.2,2.6-0.2c1,0,2,0,2.9,0.1c0.9,0.1,1.8,0.2,2.7,0.3c0.5,0.1,0.7,0.3,0.7,0.7v1.2c0,0.4-0.2,0.6-0.6,0.6H496
			c-0.6,0-1.5-0.1-2.5-0.2c-1-0.1-2.1-0.1-3.1-0.1c-1,0-1.8,0.1-2.4,0.4c-0.6,0.2-0.9,0.8-0.9,1.7c0,0.6,0.2,1,0.6,1.4
			c0.4,0.4,1,0.8,1.9,1.3l3.6,2.1c1.5,0.9,2.5,1.8,3.1,2.6C496.8,114,497.1,115,497,116L497,116z"/>
		<path class="st1" d="M46.1,0.9v20.6h-0.2l-11-17.5c-0.6-0.9-1.4-1.4-2.4-1.4h-8.8c-0.6,0-1,0.1-1.2,0.3c-0.2,0.2-0.3,0.7-0.3,1.4
			v25.6h5.8c0.9-0.1,1.6-0.5,2.2-1.2l7.7-8.9h0.2v21.7H38l-7.7-8.9c-0.7-0.7-1.4-1.1-2.3-1.1h-5.7v25.7c0,0.7,0.1,1.2,0.3,1.4
			c0.2,0.2,0.6,0.3,1.2,0.3h9.8c1.2,0,2.1-0.4,2.6-1.2l10.5-18h0.2v20.9H0.5v-0.2l5.7-5.4c0.5-0.5,0.8-1.2,0.8-2V8.4
			c0-0.9-0.3-1.5-0.8-2L0.5,1V0.9H46.1z"/>
		<path class="st1" d="M98.2,35.8c0,2,0,5.4-0.1,10.2S98,53.6,98,54.5c0,0.9,0.3,1.5,0.8,2l4.2,3.9v0.2H79.1v-0.2l4.1-3.9
			c0.5-0.5,0.8-1.2,0.8-2c0-0.2,0-2.6,0.1-7.4c0.1-4.7,0.1-7.9,0.1-9.5c0-4.2-0.5-7.5-1.4-9.6c-0.9-2.2-2.6-3.2-5.1-3.2
			c-2.5,0-4.6,1.3-6.3,3.7v25.9c0,0.9,0.3,1.6,0.8,2l4.2,3.9v0.2H52.6v-0.2l4.2-3.9c0.5-0.5,0.8-1.1,0.8-2V25.1
			c0-0.9-0.3-1.6-0.8-2.1l-4.2-4.3v-0.2h18.9v9c2.3-6.5,6.8-9.7,13.5-9.7c4.2,0,7.5,1.5,9.8,4.6C97.1,25.5,98.2,30,98.2,35.8
			L98.2,35.8z"/>
		<path class="st1" d="M106.1,32c0-4.6,1.7-8.2,5-10.5c3.3-2.4,7.8-3.6,13.3-3.6c4.8,0,8.7,0.8,11.7,2.4c0.6,0.3,1.2,0.2,1.8-0.4
			l8.9-9.4l0.2,0.1v12.8h-8c2.9,2.3,4.3,5.4,4.3,9.2c0,4.5-1.7,7.8-5.1,10c-3.4,2.2-7.9,3.3-13.5,3.3c-2.7,0-5-0.2-6.9-0.7
			c-1.8,0.7-2.6,1.7-2.6,3.1c0,2.5,2.9,3.7,8.7,3.7h7.9c10.1,0,15.2,3.8,15.2,11.3c0,5.2-2.3,9.4-6.8,12.6
			c-4.5,3.2-10.3,4.8-17.2,4.8c-4.6,0-8.7-0.8-12.2-2.3c-3.5-1.5-5.2-3.6-5.2-6.3c0-1.8,0.8-3.4,2.4-4.8c1.6-1.4,4.1-2.3,7.4-2.9
			c-3-0.6-5.2-1.8-6.9-3.4c-1.6-1.7-2.4-3.6-2.4-5.9c0-2.5,1-4.6,2.9-6.5c1.9-1.8,4.5-3.1,7.8-3.9C109.6,43,106,38.7,106.1,32
			L106.1,32z M119.1,64.9c-1.3-0.1-2.3-0.2-3-0.3c-2.3,1.4-3.4,3.2-3.4,5.4c0,2.7,1.3,4.9,3.9,6.5c2.6,1.6,5.7,2.4,9.2,2.4
			c3.5,0,6.3-0.7,8.8-2.1c2.5-1.4,3.7-3.4,3.7-6c0-1.8-0.6-3.1-1.8-4c-1.2-0.9-3.3-1.4-6.3-1.5L119.1,64.9L119.1,64.9z M119.2,31.7
			c0,4.5,0.5,7.8,1.4,9.7c0.9,1.9,2.3,2.9,4.1,2.9c1.8,0,3.2-1,4.1-2.9s1.4-5.1,1.4-9.7c0-4.5-0.4-7.7-1.3-9.6
			c-0.9-1.9-2.3-2.9-4.1-2.9c-1.9,0-3.2,1-4.1,2.9C119.6,24.1,119.2,27.3,119.2,31.7z"/>
		<path class="st1" d="M186.4,35c0,0.3,0,0.9,0,1.7c0,0.8,0,1.3,0,1.3l-0.5,12.1c-0.2,3.3,0.6,4.9,2.3,4.9c1.1,0,1.9-0.5,2.4-1.5
			h0.2c0,1.1-0.2,2.2-0.7,3.1c-1.5,3.1-4.3,4.7-8.3,4.7c-2.6,0-4.7-0.7-6.5-2.2c-1.8-1.4-2.7-3.5-2.8-6.1c-0.9,2.5-2.3,4.5-4.4,6
			c-2.1,1.5-4.5,2.3-7.2,2.3c-3.3,0-6-1.1-8.3-3.2s-3.3-5.1-3.3-8.8c0-4,1.4-7.1,4.3-9.4c2.9-2.3,6.2-3.4,10-3.4
			c3.8,0,6.9,0.8,9,2.3l0.2-9.1v-0.4c0-6.5-2.1-9.8-6.2-9.8c-0.9,0-1.4,0.1-1.6,0.2c-0.2,0.1-0.4,0.4-0.7,0.9l-6.9,12.8h-0.2
			l-5.4-12.2c6-2.2,11.7-3.2,17.2-3.2c6,0,10.4,1.3,13.2,3.9C184.9,24.4,186.4,28.8,186.4,35L186.4,35z M169.4,39.1
			c-2.2,0-3.8,0.8-5.1,2.5c-1.2,1.6-1.8,3.7-1.8,6.3c0,2.3,0.5,4,1.4,5.3c0.9,1.3,2.1,1.9,3.6,1.9c1.9,0,3.5-1,4.8-3v-0.1l0.2-12.4
			C171.5,39.3,170.5,39.1,169.4,39.1L169.4,39.1z"/>
		<path class="st1" d="M194.1,32c0-4.6,1.7-8.2,5-10.5c3.4-2.4,7.8-3.6,13.3-3.6c4.8,0,8.7,0.8,11.7,2.4c0.6,0.3,1.2,0.2,1.8-0.4
			l8.9-9.4l0.2,0.1v12.8h-8c2.9,2.3,4.3,5.4,4.3,9.2c0,4.5-1.7,7.8-5.1,10c-3.4,2.2-7.9,3.3-13.5,3.3c-2.7,0-5-0.2-6.9-0.7
			c-1.8,0.7-2.6,1.7-2.6,3.1c0,2.5,2.9,3.7,8.7,3.7h7.9c10.1,0,15.2,3.8,15.2,11.3c0,5.2-2.3,9.4-6.8,12.6
			c-4.5,3.2-10.3,4.8-17.2,4.8c-4.6,0-8.7-0.8-12.2-2.3c-3.5-1.5-5.2-3.6-5.2-6.3c0-1.8,0.8-3.4,2.4-4.8c1.6-1.4,4.1-2.3,7.4-2.9
			c-2.9-0.6-5.2-1.8-6.9-3.4c-1.6-1.7-2.4-3.6-2.4-5.9c0-2.5,1-4.6,2.9-6.5c1.9-1.8,4.5-3.1,7.8-3.9C197.7,43,194.1,38.7,194.1,32
			L194.1,32z M207.1,64.9c-1.3-0.1-2.3-0.2-3-0.3c-2.3,1.4-3.4,3.2-3.4,5.4c0,2.7,1.3,4.9,3.9,6.5c2.6,1.6,5.7,2.4,9.2,2.4
			c3.5,0,6.3-0.7,8.8-2.1c2.5-1.4,3.7-3.4,3.7-6c0-1.8-0.6-3.1-1.8-4c-1.2-0.9-3.3-1.4-6.3-1.5L207.1,64.9L207.1,64.9z M207.2,31.7
			c0,4.5,0.5,7.8,1.4,9.7c0.9,1.9,2.3,2.9,4.1,2.9c1.8,0,3.2-1,4.1-2.9s1.4-5.1,1.4-9.7c0-4.5-0.4-7.7-1.3-9.6
			c-0.9-1.9-2.3-2.9-4.1-2.9c-1.9,0-3.2,1-4.1,2.9C207.7,24.1,207.2,27.3,207.2,31.7z"/>
		<path class="st1" d="M276.7,37.7h-25.5v0.2c0,5.2,1.1,9.1,3.4,11.7c2.3,2.6,5.2,3.9,8.8,3.9c6,0,10.3-2.6,12.9-7.8h0.2
			c-2.2,10.5-8.4,15.7-18.8,15.7c-5.8,0-10.8-1.8-14.8-5.4c-4-3.6-6-9-6-16c0-7.4,2-13,6-16.6c4-3.6,9.1-5.4,15.3-5.4
			c2.4,0,4.6,0.3,6.7,0.9c2.1,0.6,4.1,1.6,5.9,2.9c1.8,1.3,3.3,3.2,4.4,5.6c1.1,2.4,1.6,5.3,1.6,8.6C276.7,36.4,276.7,37,276.7,37.7
			L276.7,37.7z M257.9,19.5c-2.2,0-3.9,1.3-5,3.9c-1.1,2.6-1.7,6.9-1.8,12.8h12.5c0.1-0.7,0.1-1.6,0.1-2.6c0-5.3-0.5-9-1.5-11
			C261.3,20.5,259.8,19.5,257.9,19.5L257.9,19.5z"/>
		<path class="st1" d="M342.2,0.9v20.6h-0.2l-11-17.5c-0.6-0.9-1.4-1.4-2.4-1.4H320c-0.6,0-1,0.1-1.2,0.3c-0.2,0.2-0.3,0.6-0.3,1.3
			v25.7h5.8c0.9-0.1,1.6-0.5,2.2-1.2l7.7-8.9h0.2v21.7h-0.2l-7.7-8.9c-0.7-0.7-1.4-1.1-2.3-1.1h-5.7v21c0,0.8,0.3,1.4,0.9,2l7.8,6
			v0.2h-30.6v-0.2l5.7-5.4c0.5-0.5,0.8-1.2,0.8-2V8.4c0-0.9-0.3-1.5-0.8-2L296.6,1V0.9H342.2z"/>
		<path class="st1" d="M393.9,1.6v20.9h-0.2L380.8,3c-0.6-0.9-1.5-1.4-2.8-1.4h-1.2c-8.6,0-12.9,9.8-12.9,29.3
			c0,19.5,4.4,29,13.1,29h0.9c1.3,0,2.2-0.4,2.8-1.2l13-20.1h0.2v21.4c-5.6,1-11.6,1.5-18.1,1.5c-9.9,0-17.2-2.7-22.1-8.1
			c-4.9-5.4-7.3-12.9-7.3-22.5s2.5-17.1,7.6-22.6c5-5.5,12.2-8.3,21.5-8.3C381.8,0,387.9,0.5,393.9,1.6L393.9,1.6z"/>
		<path class="st1" d="M410.4,39.8l-2.2,6.8c-0.2,0.7-0.3,1.2-0.2,1.4c0.1,0.3,0.4,0.8,0.9,1.5l7.6,10.9v0.2h-20.2v-0.2l8.2-10.9
			c0.9-1.2,1.6-2.4,2-3.6l11.8-36.2c0.3-0.8,0.4-1.3,0.3-1.7c-0.1-0.3-0.3-0.8-0.9-1.3l-5-5.8V0.8h20l15.9,50.5
			c0.3,1,0.9,2.1,1.7,3.5l3.6,5.7v0.2h-25.2v-0.2l4.1-5.7c0.4-0.6,0.5-1.3,0.2-2.3l-4-12.7H410.4z M419.9,10.6l-8.9,27.6h17.5
			L419.9,10.6z"/>
		<path class="st1" d="M500,42.1c0,5.8-2.2,10.5-6.6,14c-4.4,3.6-10.1,5.4-17.3,5.4c-6.2,0-12-0.8-17.4-2.4V38.8h0.2l11.2,19.4
			c0.5,0.9,1.1,1.4,1.9,1.5c0.9,0.1,2,0.2,3.6,0.2c3.5,0,6.3-0.9,8.4-2.6c2.1-1.7,3.2-4.1,3.2-7.2c0-2.7-0.9-4.8-2.6-6.4
			c-1.8-1.6-4.8-3.4-9.1-5.5l-2.6-1.3c-2.3-1.1-4.2-2.1-5.8-3.1s-3.2-2.2-4.9-3.7c-1.7-1.5-3-3.3-3.8-5.4c-0.9-2.1-1.3-4.4-1.3-6.9
			c0-5.4,2-9.7,6-12.9c4-3.2,9.4-4.8,16.1-4.8c5.5,0,10.9,0.7,16.3,2v19.4h-0.2L483.7,3c-0.5-0.7-1-1.1-1.7-1.2
			c-0.6-0.1-1.4-0.2-2.5-0.2c-3.1,0-5.5,0.8-7.4,2.5c-1.8,1.6-2.8,3.9-2.8,6.9c0,2.5,0.8,4.5,2.5,6c1.7,1.5,4.4,3.2,8.3,5.1l3.1,1.5
			c2.2,1.1,4,2,5.3,2.7c1.3,0.7,2.8,1.6,4.4,2.8c1.6,1.2,2.9,2.3,3.7,3.4c0.9,1.1,1.6,2.5,2.3,4.2C499.7,38.4,500,40.2,500,42.1
			L500,42.1z"/>
	</g>
</g>
</svg>
