<?xml version="1.0" encoding="utf-8"?>
<!-- Generator: Adobe Illustrator 24.1.0, SVG Export Plug-In . SVG Version: 6.00 Build 0)  -->
<svg version="1.1" id="Capa_1" xmlns="http://www.w3.org/2000/svg" xmlns:xlink="http://www.w3.org/1999/xlink" x="0px" y="0px"
	 viewBox="0 0 93 24" style="enable-background:new 0 0 93 24;" xml:space="preserve">
<style type="text/css">
	.st0{fill-rule:evenodd;clip-rule:evenodd;fill:#FFFFFF;}
</style>
<g>
	<path class="st0" d="M0,24h6V5.9H0V24z"/>
	<path class="st0" d="M16.4,24h-6V5.9h12.7c3.1,0,5.3,1.2,6.1,3.2c0.4,1.1,0.6,2.5,0.6,4.9v10h-6v-9.4c0-1.9-0.1-2.5-0.4-3
		c-0.4-0.6-1-0.8-2.6-0.8h-4.5V24"/>
	<path class="st0" d="M48,10.8h-4.9c-2.8,0-3.3,0.5-3.3,3.9v0.6c0,3.4,0.4,3.9,3.3,3.9H48V10.8z M42.6,24c-4,0-6.2-0.8-7.6-2.7
		c-0.8-1.2-1.2-3.1-1.2-6.1v-0.5c0-3.6,0.5-5.4,1.7-6.7c1.5-1.5,3.5-2.1,7-2.1H48V0h6v24H42.6L42.6,24z"/>
	<path class="st0" d="M58,14.1c0-2.4,0.2-3.9,0.6-4.9c0.9-2,3.1-3.2,6.2-3.2H69v4.8h-2c-1.6,0-2.2,0.2-2.6,0.8
		c-0.3,0.5-0.4,1.2-0.4,3V24h-6V14.1z"/>
	<path class="st0" d="M87.1,10.8h-4.9c-2.8,0-3.2,0.5-3.2,3.8v0.6c0,3.3,0.4,3.8,3.2,3.8h4.9V10.8z M81.7,24c-3.9,0-6.2-0.8-7.5-2.7
		c-0.8-1.2-1.2-3.1-1.2-6.1v-0.5c0-3.6,0.5-5.4,1.7-6.6c1.5-1.5,3.5-2.1,7-2.1H93v18H81.7z"/>
</g>
</svg>
