<?xml version="1.0" encoding="utf-8"?>
<!-- Generator: Adobe Illustrator 24.1.0, SVG Export Plug-In . SVG Version: 6.00 Build 0)  -->
<svg version="1.1" id="Capa_1" xmlns="http://www.w3.org/2000/svg" xmlns:xlink="http://www.w3.org/1999/xlink" x="0px" y="0px"
	 viewBox="0 0 503 123" style="enable-background:new 0 0 503 123;" xml:space="preserve">
<style type="text/css">
	.st0{fill:#23926E;}
	.st1{fill:#024254;}
</style>
<g>
	<path class="st0" d="M38.6,60.6c0.3,1.1,0.5,2.2,0.5,3.5c0,3.7-1.2,6.5-3.7,8.5c-2.5,2-5.7,3-9.9,3c-1.8,0-3.2-0.1-4.2-0.2
		c-0.9-0.1-1.6-0.7-2.2-1.8l-6.8-11.7l-6.4-11H5.9v23.8c6.4,1.9,13.2,2.8,20.4,2.8c8.4,0,15.1-2.1,20.2-6.3c3.7-3,6.1-6.8,7.1-11.2
		L38.6,60.6z"/>
	<path class="st1" d="M74,25.3h12.2v-2H74V6.6h-0.2L59.9,22.2c-0.7,0.7-1.7,1.1-3.1,1.1h-4.5v2h5.5v30.4L74,54.9V25.3z"/>
	<path class="st0" d="M83.1,69.4c-1.7,0-2.9-0.6-3.9-1.8c-0.9-1.2-1.4-3-1.4-5.2v-3.6l-16.2,0.8v4c0,9.1,4.3,13.6,12.9,13.6
		c4.4,0,7.7-1.1,10.1-3.3c2.4-2.2,3.8-4.9,4.4-8.1l-0.2-0.1C87.6,68.2,85.6,69.4,83.1,69.4L83.1,69.4z"/>
	<path class="st0" d="M136.6,69.9c-2,0-2.9-1.9-2.7-5.8l0.3-8l-15.9,0.7l-0.1,9.5v0.1c-1.5,2.3-3.4,3.5-5.7,3.5
		c-1.7,0-3.1-0.7-4.2-2.2c-1.1-1.5-1.6-3.6-1.6-6.2c0-1.5,0.2-2.9,0.5-4.1L92,58.1c-0.5,1.5-0.8,3.2-0.8,5.1c0,4.4,1.3,7.8,3.9,10.3
		c2.6,2.5,5.8,3.7,9.7,3.7c3.2,0,6-0.9,8.4-2.6c2.4-1.8,4.1-4.1,5.1-7c0.1,3,1.2,5.4,3.3,7.1c2.1,1.7,4.6,2.5,7.6,2.5
		c4.7,0,8-1.8,9.8-5.5c0.5-1.1,0.8-2.3,0.8-3.6h-0.2C138.8,69.3,137.9,69.9,136.6,69.9L136.6,69.9z"/>
	<path class="st1" d="M105,50.2c1.4-1.9,3.4-2.9,5.9-2.9c1.3,0,2.5,0.2,3.7,0.6l-0.1,5l15.9-0.7l0.3-6.1c0,0,0-0.6,0-1.5
		c0-1,0-1.6,0-2c0-7.2-1.7-12.4-5-15.5c-3.3-3-8.4-4.6-15.4-4.6c-6.4,0-13.1,1.3-20.1,3.8l6.3,14.2h0.2l8.1-14.9
		c0.3-0.5,0.6-0.9,0.8-1c0.2-0.1,0.8-0.2,1.8-0.2c4.8,0,7.3,3.8,7.3,11.4v0.5l-0.2,10.6c-2.5-1.8-6-2.7-10.5-2.7
		c-4.5,0-8.3,1.3-11.7,4c-2,1.6-3.4,3.6-4.2,5.9l15.2-0.7C103.7,52.3,104.3,51.2,105,50.2L105,50.2z"/>
	<path class="st1" d="M160.6,37.3c1.6-2.9,3-4.8,4.3-5.8c0.6-0.4,1.2-0.2,1.8,0.5l7.9,9.4h0.2l5.5-15.6c-1.7-2.2-3.9-3.3-6.8-3.3
		c-3.3,0-6,1.3-8.2,3.8c-2.2,2.6-3.8,5.8-4.7,9.7V23.3h-22.1v0.2l4.9,5c0.6,0.7,0.9,1.5,0.9,2.5v20.7l16.3-0.8L160.6,37.3
		L160.6,37.3z"/>
	<path class="st0" d="M164.4,68V54.6l-16.3,0.8v13.8c0,1.1-0.3,1.9-0.9,2.4l-4.9,4.6v0.2h33.3v-0.2l-9.8-5.7
		C164.9,69.8,164.4,69,164.4,68z"/>
	<path class="st1" d="M201.2,25.3h12.2v-2h-12.2V6.6H201l-13.9,15.6c-0.7,0.7-1.7,1.1-3.1,1.1h-4.5v2h5.5v24.4l16.2-0.8V25.3z"/>
	<path class="st0" d="M210.3,69.4c-1.7,0-2.9-0.6-3.9-1.8s-1.4-3-1.4-5.2v-9.6l-16.2,0.8v10c0,9.1,4.3,13.6,12.9,13.6
		c4.4,0,7.7-1.1,10.1-3.3c2.4-2.2,3.8-4.9,4.4-8.1l-0.2-0.1C214.8,68.2,212.9,69.4,210.3,69.4z"/>
	<path class="st1" d="M239,2.6h-23.8v0.2l8.2,10.7c0.6,0.7,0.9,1.7,0.9,2.9v31.4l2.1-0.1V17.8c0.3,0.9,0.9,2.3,1.9,4.4l11.4,24.9
		l19.4-0.9L239,2.6L239,2.6z"/>
	<path class="st0" d="M228.1,59.6c0,1-0.4,2.1-1.3,3.3l-10,13.2v0.2h24.8v-0.2l-10-13.2c-0.9-1.2-1.3-2.3-1.3-3.3v-8.1l-2.1,0.1
		L228.1,59.6L228.1,59.6z"/>
	<path class="st0" d="M295.8,67.5v-19l-18,0.8v18.2c0,1-0.3,1.8-0.9,2.4l-6.7,6.3v0.2h33.1v-0.2l-6.6-6.3
		C296.1,69.3,295.8,68.5,295.8,67.5L295.8,67.5z"/>
	<path class="st0" d="M263.6,51.8l-0.8-1.7l-19.4,0.9l11.9,26.2h0.2l11-27.3l-2.2,0.1L263.6,51.8z"/>
	<path class="st1" d="M292,12.5c0-1,0.3-1.8,1-2.5l6.6-7.3V2.6h-21.4l-17.6,43.5l2.2-0.1l11.5-28.3c-0.2,2-0.3,4-0.3,6v21.8l18-0.8
		V12.5z"/>
	<path class="st1" d="M340.5,27.1c-3.3-3-8.4-4.6-15.4-4.6c-6.4,0-13.1,1.3-20.1,3.8l6.3,14.2h0.2l8.1-14.9c0.3-0.5,0.6-0.9,0.8-1
		c0.2-0.1,0.8-0.2,1.8-0.2c4.8,0,7.3,3.8,7.3,11.4v0.5l-0.1,6.6l16.1-0.8C345.4,35.2,343.7,30.1,340.5,27.1z"/>
	<path class="st0" d="M351.3,69.9c-2,0-2.9-1.9-2.7-5.8l0.6-14.1c0,0,0-0.6,0.1-1.5c0-1,0-1.6,0-2c0-0.1,0-0.3,0-0.4l-16.1,0.8
		l-0.1,4.1c-2.5-1.8-6-2.7-10.5-2.7s-8.3,1.3-11.7,4c-3.4,2.7-5,6.3-5,11c0,4.4,1.3,7.8,3.9,10.3c2.6,2.5,5.8,3.7,9.7,3.7
		c3.2,0,6-0.9,8.4-2.6c2.4-1.8,4.1-4.1,5.1-7c0.1,3,1.2,5.4,3.3,7.1c2.1,1.7,4.6,2.5,7.6,2.5c4.7,0,8-1.8,9.8-5.5
		c0.5-1.1,0.8-2.3,0.8-3.6h-0.2C353.5,69.3,352.6,69.9,351.3,69.9L351.3,69.9z M332.9,66.3v0.1c-1.5,2.3-3.4,3.5-5.7,3.5
		c-1.7,0-3.1-0.7-4.2-2.2c-1.1-1.5-1.6-3.6-1.6-6.2c0-3,0.7-5.4,2.1-7.4c1.4-1.9,3.4-2.9,5.9-2.9c1.3,0,2.5,0.2,3.7,0.6L332.9,66.3
		L332.9,66.3z"/>
	<path class="st1" d="M372.7,25.3H385v-2h-12.2V6.6h-0.2l-13.9,15.6c-0.7,0.7-1.7,1.1-3.1,1.1H351v2h5.5v16.4l16.2-0.8V25.3z"/>
	<path class="st0" d="M381.8,69.4c-1.7,0-2.9-0.6-3.9-1.8c-0.9-1.2-1.4-3-1.4-5.2V44.7l-16.2,0.8v18.1c0,9.1,4.3,13.6,12.9,13.6
		c4.4,0,7.7-1.1,10.1-3.3c2.4-2.2,3.8-4.9,4.4-8.1l-0.2-0.1C386.3,68.2,384.3,69.4,381.8,69.4z"/>
	<path class="st0" d="M420.2,67.8c-3.8,0-7-1.6-9.6-4.9c-2.6-3.3-3.8-8.4-3.8-15.4c0-1.5,0-2.9,0.1-4.2L390.4,44
		c-0.6,2.5-1,5.3-1,8.2c0,8,2.3,14.1,6.8,18.4c4.5,4.3,10,6.5,16.4,6.5c5.6,0,10.2-1.5,13.6-4.6c3.5-3.1,5.6-7.4,6.5-12.9h-0.2
		C429.6,65,425.5,67.8,420.2,67.8L420.2,67.8z"/>
	<path class="st1" d="M412,22.5c-3.4,0-6.6,0.5-9.6,1.4c-3,0.9-5.8,2.4-8.4,4.3c-2.6,2-4.6,4.7-6.2,8.2c-0.5,1.2-0.9,2.5-1.3,3.9
		l16.5-0.8c0.6-10,3.8-15.1,9.3-15.1h0.5c0.6,0,1,0.1,1.2,0.2c0.2,0.1,0.4,0.5,0.6,1l5.9,13l1.8,4h0.2l1.5-4.1l4.8-13
		C423,23.5,417.3,22.5,412,22.5L412,22.5z"/>
	<path class="st0" d="M440.9,69.2c0,1-0.3,1.8-0.9,2.4l-4.9,4.6v0.2H463v-0.2l-4.9-4.6c-0.7-0.6-1-1.4-1-2.4V40.9l-16.2,0.8V69.2z"
		/>
	<path class="st1" d="M480.6,27.8c-2.6-3.6-6.5-5.4-11.5-5.4c-7.8,0-13.1,3.9-15.8,11.6V0l-22,2.6v0.2l4.9,4.6
		c0.6,0.6,0.9,1.4,0.9,2.5v28l16.2-0.8v-1.9c2.1-3,4.5-4.5,7.5-4.5c2.9,0,4.8,1.3,5.9,3.8c0.2,0.6,0.5,1.2,0.6,1.9l16.6-0.8
		C483.2,32.5,482.2,29.9,480.6,27.8L480.6,27.8z"/>
	<path class="st1" d="M50.3,50.8c0-2.3-0.4-4.3-1.1-6.3c-0.7-1.9-1.6-3.6-2.6-4.9c-1-1.3-2.5-2.7-4.4-4c-1.9-1.4-3.6-2.4-5.1-3.3
		c-1.5-0.8-3.6-1.9-6.2-3.1l-3.7-1.8c-4.5-2.2-7.7-4.2-9.7-6c-2-1.8-2.9-4.1-2.9-7.1c0-3.5,1.1-6.1,3.2-8.1c2.2-1.9,5-2.9,8.6-2.9
		c1.2,0,2.2,0.1,2.9,0.2c0.8,0.1,1.5,0.6,2,1.4l13.4,21.5H45V3.9c-6.3-1.5-12.7-2.3-19.1-2.3c-7.8,0-14.1,1.9-18.8,5.7
		C2.4,11,0,16.1,0,22.4c0,3,0.5,5.7,1.5,8.1c1,2.4,2.5,4.5,4.5,6.3c2,1.8,3.9,3.2,5.7,4.4c1.9,1.2,4.1,2.4,6.8,3.6l3.1,1.5
		c5,2.4,8.6,4.5,10.6,6.4c1.2,1.1,1.9,2.3,2.4,3.8l-6.8,0.1l-8.4-0.1l3.8,1l13.2-0.7L49.7,56C50.1,54.4,50.3,52.7,50.3,50.8
		L50.3,50.8z"/>
	<path class="st0" d="M488.2,69.2c0-1.1,0-4.5,0.1-10c0.1-5.5,0.1-9.5,0.1-11.9c0-2.7-0.2-5.2-0.7-7.4l15.2-0.3l-5.2-0.9l-10.1,0.7
		l-16.5,0.8c0.7,2.4,1,5.5,1,9.3c0,1.9,0,5.6-0.1,11.1c-0.1,5.5-0.1,8.4-0.1,8.6c0,0.9-0.3,1.7-1,2.3l-4.7,4.6v0.2H494v-0.2
		l-4.9-4.6C488.5,71,488.2,70.2,488.2,69.2L488.2,69.2z"/>
	<path class="st1" d="M21.2,112.8c0,0.5-0.2,0.8-0.7,0.8H8.9v0.5c0,2,0.4,3.5,1.2,4.3c0.8,0.8,2,1.3,3.6,1.3c1,0,2.1,0,3.2-0.1
		c1.1-0.1,2.1-0.2,2.9-0.3h0.2c0.1,0,0.3,0,0.4,0.1c0.1,0.1,0.2,0.2,0.2,0.4v1.2c0,0.2,0,0.4-0.1,0.5c-0.1,0.1-0.3,0.2-0.5,0.3
		c-1,0.2-2,0.3-2.9,0.4c-1,0.1-2.1,0.2-3.2,0.2c-1,0-2-0.1-2.9-0.4c-0.9-0.3-1.8-0.7-2.5-1.4c-0.7-0.6-1.3-1.5-1.8-2.5
		c-0.4-1.1-0.7-2.4-0.7-4V111c0-2.5,0.7-4.4,2-5.9c1.3-1.5,3.2-2.2,5.7-2.2c1.3,0,2.4,0.2,3.3,0.6c0.9,0.4,1.7,0.9,2.4,1.6
		c0.6,0.7,1.1,1.6,1.4,2.5c0.3,1,0.5,2.1,0.5,3.3L21.2,112.8L21.2,112.8z M18.1,110.9c0-2-0.4-3.4-1.1-4.2c-0.7-0.8-1.9-1.2-3.4-1.2
		s-2.6,0.4-3.5,1.3c-0.8,0.9-1.2,2.2-1.2,4.1v0.3h9.2V110.9z"/>
	<path class="st1" d="M43.7,121.4c0,0.2-0.1,0.3-0.2,0.5c-0.1,0.1-0.3,0.2-0.5,0.2h-1.7c-0.2,0-0.3-0.1-0.5-0.2
		c-0.1-0.1-0.2-0.3-0.2-0.5v-11.3c0-0.9-0.1-1.6-0.2-2.2c-0.1-0.6-0.4-1.1-0.7-1.4c-0.3-0.3-0.7-0.6-1.2-0.7
		c-0.5-0.1-1.1-0.2-1.7-0.2c-0.7,0-1.5,0.1-2.3,0.4c-0.8,0.3-1.6,0.6-2.4,1v14.5c0,0.2-0.1,0.3-0.2,0.5c-0.1,0.1-0.3,0.2-0.5,0.2
		h-1.7c-0.2,0-0.3-0.1-0.5-0.2c-0.1-0.1-0.2-0.3-0.2-0.5v-17.6c0-0.2,0.1-0.3,0.2-0.5c0.1-0.1,0.3-0.2,0.5-0.2h1.7
		c0.2,0,0.3,0.1,0.5,0.2c0.1,0.1,0.2,0.3,0.2,0.5v0.7c1-0.5,1.9-0.9,2.7-1.2c0.8-0.3,1.8-0.4,2.8-0.4c2.1,0,3.6,0.6,4.6,1.9
		c0.9,1.2,1.4,3,1.4,5.3L43.7,121.4L43.7,121.4z"/>
	<path class="st1" d="M63.9,121.2c0,0.2,0,0.4-0.1,0.5c-0.1,0.1-0.3,0.2-0.5,0.2c-0.6,0.1-1.2,0.2-2,0.3c-0.7,0.1-1.5,0.1-2.3,0.1
		c-1.2,0-2.2-0.2-3.1-0.6c-0.9-0.4-1.7-1-2.3-1.7s-1.1-1.6-1.4-2.6c-0.3-1-0.5-2.2-0.5-3.5v-2.7c0-1.3,0.2-2.4,0.5-3.5
		c0.3-1,0.8-1.9,1.4-2.6c0.6-0.7,1.4-1.3,2.3-1.7c0.9-0.4,2-0.6,3.1-0.6c0.8,0,1.6,0,2.3,0.1c0.7,0.1,1.4,0.2,2,0.3
		c0.3,0,0.5,0.1,0.5,0.2s0.1,0.3,0.1,0.5v1.2c0,0.2-0.1,0.3-0.2,0.4c-0.1,0.1-0.3,0.1-0.4,0.1h-0.1c-0.8-0.1-1.5-0.2-2.1-0.2
		c-0.6,0-1.4-0.1-2.2-0.1c-1.4,0-2.4,0.5-3.2,1.4c-0.7,0.9-1.1,2.4-1.1,4.3v2.7c0,2,0.4,3.4,1.1,4.3c0.7,0.9,1.8,1.4,3.2,1.4
		c0.8,0,1.6,0,2.2-0.1c0.6,0,1.3-0.1,2.1-0.2h0.1c0.2,0,0.3,0,0.4,0.1c0.1,0.1,0.2,0.2,0.2,0.4L63.9,121.2L63.9,121.2z"/>
	<path class="st1" d="M85.1,113.9c0,1.3-0.2,2.4-0.5,3.5c-0.3,1-0.8,1.9-1.5,2.7c-0.6,0.7-1.5,1.3-2.4,1.7c-1,0.4-2.1,0.6-3.4,0.6
		c-1.3,0-2.4-0.2-3.3-0.6s-1.8-1-2.4-1.7c-0.6-0.7-1.1-1.6-1.5-2.7c-0.3-1-0.5-2.2-0.5-3.5v-2.6c0-1.3,0.2-2.4,0.5-3.5
		c0.3-1,0.8-1.9,1.5-2.7c0.6-0.7,1.4-1.3,2.4-1.7s2.1-0.6,3.3-0.6c1.3,0,2.4,0.2,3.4,0.6c1,0.4,1.8,1,2.4,1.7
		c0.6,0.7,1.1,1.6,1.5,2.7c0.3,1,0.5,2.2,0.5,3.5V113.9z M82.1,111.3c0-1.8-0.4-3.2-1.1-4.2c-0.7-1-1.9-1.6-3.6-1.6
		c-1.6,0-2.8,0.5-3.5,1.5c-0.7,1-1.1,2.4-1.1,4.2v2.6c0,1.8,0.4,3.2,1.1,4.2c0.7,1,1.9,1.6,3.5,1.6s2.8-0.5,3.5-1.5
		c0.7-1,1.1-2.4,1.1-4.2L82.1,111.3L82.1,111.3z"/>
	<path class="st1" d="M107.5,121.4c0,0.2-0.1,0.3-0.2,0.5c-0.1,0.1-0.3,0.2-0.5,0.2h-1.7c-0.2,0-0.3-0.1-0.5-0.2
		c-0.1-0.1-0.2-0.3-0.2-0.5v-0.7c-1,0.5-1.9,0.9-2.7,1.2c-0.8,0.3-1.8,0.4-2.8,0.4c-2.1,0-3.6-0.6-4.6-1.9c-0.9-1.2-1.4-3-1.4-5.3
		v-11.3c0-0.2,0.1-0.3,0.2-0.5c0.1-0.1,0.3-0.2,0.5-0.2h1.7c0.2,0,0.3,0.1,0.5,0.2c0.1,0.1,0.2,0.3,0.2,0.5v11.3
		c0,0.9,0.1,1.6,0.2,2.2c0.2,0.6,0.4,1.1,0.7,1.4c0.3,0.3,0.7,0.6,1.2,0.7c0.5,0.1,1,0.2,1.7,0.2c0.7,0,1.5-0.1,2.3-0.4
		c0.8-0.3,1.6-0.6,2.4-1v-14.5c0-0.2,0.1-0.3,0.2-0.5c0.1-0.1,0.3-0.2,0.5-0.2h1.7c0.2,0,0.3,0.1,0.5,0.2c0.1,0.1,0.2,0.3,0.2,0.5
		V121.4L107.5,121.4z"/>
	<path class="st1" d="M130.6,121.4c0,0.2-0.1,0.3-0.2,0.5c-0.1,0.1-0.3,0.2-0.5,0.2h-1.7c-0.2,0-0.3-0.1-0.5-0.2
		c-0.1-0.1-0.2-0.3-0.2-0.5v-11.3c0-0.9-0.1-1.6-0.2-2.2c-0.1-0.6-0.4-1.1-0.7-1.4c-0.3-0.3-0.7-0.6-1.2-0.7
		c-0.5-0.1-1.1-0.2-1.7-0.2c-0.7,0-1.5,0.1-2.3,0.4c-0.8,0.3-1.6,0.6-2.4,1v14.5c0,0.2-0.1,0.3-0.2,0.5c-0.1,0.1-0.3,0.2-0.5,0.2
		h-1.7c-0.2,0-0.3-0.1-0.5-0.2c-0.1-0.1-0.2-0.3-0.2-0.5v-17.6c0-0.2,0.1-0.3,0.2-0.5c0.1-0.1,0.3-0.2,0.5-0.2h1.7
		c0.2,0,0.3,0.1,0.5,0.2c0.1,0.1,0.2,0.3,0.2,0.5v0.7c1-0.5,1.9-0.9,2.7-1.2c0.8-0.3,1.8-0.4,2.8-0.4c2.1,0,3.6,0.6,4.6,1.9
		c1,1.2,1.4,3,1.4,5.3L130.6,121.4L130.6,121.4z"/>
	<path class="st1" d="M148.5,121.6c0,0.3-0.2,0.5-0.6,0.6c-0.3,0-0.7,0.1-1.1,0.1c-0.4,0-0.8,0.1-1.1,0.1c-0.8,0-1.5-0.1-2.1-0.2
		c-0.6-0.1-1.1-0.4-1.5-0.7c-0.4-0.3-0.7-0.8-0.9-1.4c-0.2-0.6-0.3-1.4-0.3-2.3v-12l-3.4-0.4c-0.4,0-0.7-0.3-0.7-0.6v-0.9
		c0-0.4,0.2-0.6,0.7-0.6h3.4v-3.4c0-0.4,0.2-0.6,0.6-0.7l1.8-0.3h0.1c0.1,0,0.3,0.1,0.4,0.2c0.1,0.1,0.2,0.2,0.2,0.4v3.8h3.7
		c0.2,0,0.3,0.1,0.5,0.2c0.1,0.1,0.2,0.3,0.2,0.5v1.2c0,0.2-0.1,0.3-0.2,0.5c-0.1,0.1-0.3,0.2-0.5,0.2h-3.7v12
		c0,0.9,0.1,1.5,0.4,1.8c0.3,0.3,0.8,0.4,1.5,0.4h1.9c0.5,0,0.7,0.2,0.7,0.5V121.6z"/>
	<path class="st1" d="M170.1,112.8c0,0.5-0.2,0.8-0.7,0.8h-11.6v0.5c0,2,0.4,3.5,1.2,4.3c0.8,0.8,2,1.3,3.6,1.3c1,0,2.1,0,3.2-0.1
		c1.1-0.1,2.1-0.2,2.9-0.3h0.2c0.1,0,0.3,0,0.4,0.1c0.1,0.1,0.2,0.2,0.2,0.4v1.2c0,0.2,0,0.4-0.1,0.5c-0.1,0.1-0.3,0.2-0.5,0.3
		c-1,0.2-2,0.3-2.9,0.4c-1,0.1-2.1,0.2-3.2,0.2c-1,0-2-0.1-2.9-0.4c-0.9-0.3-1.8-0.7-2.5-1.4c-0.7-0.6-1.3-1.5-1.8-2.5
		c-0.4-1.1-0.7-2.4-0.7-4V111c0-2.5,0.7-4.4,2-5.9c1.3-1.5,3.2-2.2,5.7-2.2c1.3,0,2.4,0.2,3.3,0.6c0.9,0.4,1.7,0.9,2.4,1.6
		c0.6,0.7,1.1,1.6,1.4,2.5c0.3,1,0.5,2.1,0.5,3.3L170.1,112.8L170.1,112.8z M167.1,110.9c0-2-0.4-3.4-1.1-4.2
		c-0.7-0.8-1.9-1.2-3.4-1.2c-1.5,0-2.6,0.4-3.4,1.3c-0.8,0.9-1.2,2.2-1.2,4.1v0.3h9.2L167.1,110.9L167.1,110.9z"/>
	<path class="st1" d="M186.6,104.9c0,0.4-0.2,0.6-0.7,0.6c-0.8,0-1.6,0.1-2.3,0.3c-0.7,0.2-1.6,0.6-2.4,1.1v14.4
		c0,0.2-0.1,0.3-0.2,0.5c-0.1,0.1-0.3,0.2-0.5,0.2h-1.7c-0.2,0-0.3-0.1-0.5-0.2c-0.1-0.1-0.2-0.3-0.2-0.5v-17.6
		c0-0.2,0.1-0.3,0.2-0.5c0.1-0.1,0.3-0.2,0.5-0.2h1.6c0.2,0,0.3,0.1,0.5,0.2c0.1,0.1,0.2,0.3,0.2,0.5v0.7c0.9-0.6,1.7-1,2.5-1.3
		c0.8-0.3,1.6-0.4,2.4-0.4c0.5,0,0.7,0.2,0.7,0.6L186.6,104.9L186.6,104.9z"/>
	<path class="st1" d="M233.2,113.9c0,1.3-0.2,2.4-0.5,3.5c-0.3,1-0.8,1.9-1.5,2.7c-0.6,0.7-1.5,1.3-2.4,1.7s-2.1,0.6-3.4,0.6
		c-1.3,0-2.4-0.2-3.3-0.6c-0.9-0.4-1.8-1-2.4-1.7c-0.6-0.7-1.1-1.6-1.5-2.7c-0.3-1-0.5-2.2-0.5-3.5v-2.6c0-1.3,0.2-2.4,0.5-3.5
		c0.3-1,0.8-1.9,1.5-2.7c0.6-0.7,1.4-1.3,2.4-1.7c1-0.4,2.1-0.6,3.3-0.6c1.3,0,2.4,0.2,3.4,0.6s1.8,1,2.4,1.7
		c0.6,0.7,1.1,1.6,1.5,2.7c0.3,1,0.5,2.2,0.5,3.5V113.9z M230.1,111.3c0-1.8-0.4-3.2-1.1-4.2c-0.7-1-1.9-1.6-3.6-1.6
		s-2.8,0.5-3.5,1.5c-0.7,1-1.1,2.4-1.1,4.2v2.6c0,1.8,0.4,3.2,1.1,4.2c0.7,1,1.9,1.6,3.5,1.6s2.8-0.5,3.5-1.5c0.7-1,1.1-2.4,1.1-4.2
		L230.1,111.3L230.1,111.3z"/>
	<path class="st1" d="M250.3,97.7c0,0.3-0.2,0.5-0.6,0.5H248c-0.8,0-1.4,0.2-1.7,0.5c-0.3,0.3-0.4,0.9-0.4,1.9v2.5h3.6
		c0.2,0,0.3,0.1,0.5,0.2c0.1,0.1,0.2,0.3,0.2,0.4v1.4c0,0.4-0.2,0.6-0.7,0.6h-3.6v15.7c0,0.2-0.1,0.3-0.2,0.5
		c-0.1,0.1-0.3,0.2-0.5,0.2h-1.7c-0.2,0-0.3-0.1-0.5-0.2c-0.1-0.1-0.2-0.3-0.2-0.5v-15.7l-3.4-0.4c-0.4,0-0.7-0.3-0.7-0.6v-0.9
		c0-0.2,0.1-0.3,0.2-0.4c0.1-0.1,0.3-0.2,0.5-0.2h3.4v-2.5c0-0.9,0.1-1.7,0.3-2.3c0.2-0.6,0.5-1.1,1-1.5c0.4-0.4,0.9-0.6,1.5-0.8
		c0.6-0.1,1.3-0.2,2-0.2c0.5,0,0.8,0,1.1,0.1c0.3,0,0.6,0.1,0.8,0.1c0.4,0.1,0.7,0.3,0.7,0.5L250.3,97.7L250.3,97.7z"/>
	<path class="st1" d="M308.4,120.9c0,0.2,0,0.4-0.1,0.5c-0.1,0.1-0.3,0.2-0.6,0.3c-1.1,0.2-2.1,0.4-3.2,0.4
		c-1.1,0.1-2.1,0.1-3.1,0.1c-1.3,0-2.4-0.2-3.4-0.6c-0.9-0.4-1.7-1-2.3-1.7c-0.6-0.7-1.1-1.6-1.4-2.7c-0.3-1.1-0.4-2.2-0.4-3.5v-2.5
		c0-2.7,0.6-4.8,1.9-6.3c1.2-1.5,3.1-2.2,5.7-2.2c0.5,0,1.2,0,1.9,0.1c0.7,0.1,1.5,0.1,2.1,0.3v-6.4c0-0.2,0.1-0.3,0.2-0.5
		c0.1-0.1,0.3-0.2,0.5-0.2h1.8c0.2,0,0.3,0.1,0.4,0.2c0.1,0.1,0.2,0.3,0.2,0.5L308.4,120.9L308.4,120.9z M305.3,105.8
		c-0.6-0.1-1.3-0.2-2-0.2c-0.8,0-1.5,0-2,0c-0.8,0-1.6,0.1-2.1,0.4c-0.6,0.3-1,0.6-1.4,1.1s-0.6,1.1-0.7,1.8
		c-0.2,0.7-0.2,1.6-0.2,2.5v2.5c0,1.9,0.3,3.3,1,4.3c0.6,1,1.8,1.5,3.5,1.5c0.6,0,1.3,0,2-0.1c0.7,0,1.4-0.1,2-0.1L305.3,105.8
		L305.3,105.8z"/>
	<path class="st1" d="M320.4,99.4c0,0.2-0.1,0.3-0.2,0.5c-0.1,0.1-0.3,0.2-0.5,0.2h-1.8c-0.2,0-0.3-0.1-0.5-0.2
		c-0.1-0.1-0.2-0.3-0.2-0.5v-2.8c0-0.2,0.1-0.3,0.2-0.5c0.1-0.1,0.3-0.2,0.5-0.2h1.8c0.2,0,0.3,0.1,0.5,0.2c0.1,0.1,0.2,0.3,0.2,0.5
		V99.4z M320.3,121.4c0,0.2-0.1,0.3-0.2,0.5c-0.1,0.1-0.3,0.2-0.5,0.2H318c-0.2,0-0.3-0.1-0.5-0.2c-0.1-0.1-0.2-0.3-0.2-0.5v-17.6
		c0-0.2,0.1-0.3,0.2-0.5c0.1-0.1,0.3-0.2,0.5-0.2h1.7c0.2,0,0.3,0.1,0.5,0.2c0.1,0.1,0.2,0.3,0.2,0.5V121.4z"/>
	<path class="st1" d="M341.2,117.3c0,0.9-0.2,1.6-0.5,2.3c-0.3,0.6-0.7,1.2-1.3,1.6s-1.2,0.7-2,0.9c-0.8,0.2-1.7,0.3-2.6,0.3
		c-0.3,0-0.7,0-1.2,0c-0.4,0-0.9,0-1.4-0.1c-0.5,0-1-0.1-1.5-0.2c-0.5-0.1-1-0.1-1.4-0.3c-0.5-0.1-0.7-0.3-0.7-0.7v-1.2
		c0-0.2,0.1-0.3,0.2-0.4c0.1-0.1,0.3-0.1,0.4-0.1h0.1c0.4,0,0.9,0.1,1.4,0.1c0.5,0,1,0.1,1.5,0.1c0.5,0,1,0.1,1.4,0.1
		c0.4,0,0.8,0,1.1,0c1.1,0,2-0.2,2.5-0.5c0.6-0.3,0.9-1,0.9-1.9c0-0.5-0.2-1-0.5-1.4c-0.4-0.4-1.1-0.9-2-1.5l-3.5-2.1
		c-1.1-0.6-1.9-1.4-2.5-2.1c-0.6-0.8-1-1.7-1-2.8c0-0.9,0.2-1.6,0.5-2.2c0.3-0.6,0.8-1.1,1.3-1.4c0.5-0.4,1.2-0.6,2-0.7
		c0.8-0.1,1.6-0.2,2.5-0.2c1,0,1.9,0,2.8,0.1c0.9,0.1,1.8,0.2,2.6,0.3c0.4,0.1,0.7,0.3,0.7,0.7v1.1c0,0.4-0.2,0.6-0.6,0.6h-0.1
		c-0.6,0-1.4-0.1-2.4-0.2c-1-0.1-2-0.1-2.9-0.1c-1,0-1.7,0.1-2.3,0.3c-0.6,0.2-0.9,0.8-0.9,1.7c0,0.5,0.2,1,0.6,1.4
		c0.4,0.4,1,0.8,1.8,1.3l3.4,2c1.4,0.8,2.4,1.7,3,2.5C341,115.4,341.3,116.3,341.2,117.3L341.2,117.3z"/>
	<path class="st1" d="M360.9,121.2c0,0.2,0,0.4-0.1,0.5c-0.1,0.1-0.3,0.2-0.5,0.2c-0.6,0.1-1.2,0.2-2,0.3c-0.7,0.1-1.5,0.1-2.3,0.1
		c-1.2,0-2.2-0.2-3.1-0.6c-0.9-0.4-1.7-1-2.3-1.7c-0.6-0.7-1.1-1.6-1.4-2.6c-0.3-1-0.5-2.2-0.5-3.5v-2.7c0-1.3,0.2-2.4,0.5-3.5
		c0.3-1,0.8-1.9,1.4-2.6c0.6-0.7,1.4-1.3,2.3-1.7c0.9-0.4,2-0.6,3.1-0.6c0.8,0,1.6,0,2.3,0.1c0.7,0.1,1.4,0.2,2,0.3
		c0.3,0,0.5,0.1,0.5,0.2c0.1,0.1,0.1,0.3,0.1,0.5v1.2c0,0.2-0.1,0.3-0.2,0.4c-0.1,0.1-0.3,0.1-0.4,0.1h-0.1
		c-0.8-0.1-1.5-0.2-2.1-0.2c-0.6,0-1.4-0.1-2.2-0.1c-1.4,0-2.4,0.5-3.2,1.4c-0.7,0.9-1.1,2.4-1.1,4.3v2.7c0,2,0.4,3.4,1.1,4.3
		c0.7,0.9,1.8,1.4,3.2,1.4c0.8,0,1.6,0,2.2-0.1c0.6,0,1.3-0.1,2.1-0.2h0.1c0.2,0,0.3,0,0.4,0.1c0.1,0.1,0.2,0.2,0.2,0.4L360.9,121.2
		L360.9,121.2z"/>
	<path class="st1" d="M382,113.9c0,1.3-0.2,2.4-0.5,3.5c-0.3,1-0.8,1.9-1.5,2.7c-0.6,0.7-1.5,1.3-2.4,1.7c-1,0.4-2.1,0.6-3.4,0.6
		s-2.4-0.2-3.3-0.6c-0.9-0.4-1.8-1-2.4-1.7c-0.6-0.7-1.1-1.6-1.5-2.7c-0.3-1-0.5-2.2-0.5-3.5v-2.6c0-1.3,0.2-2.4,0.5-3.5
		c0.3-1,0.8-1.9,1.5-2.7c0.6-0.7,1.4-1.3,2.4-1.7s2.1-0.6,3.3-0.6c1.3,0,2.4,0.2,3.4,0.6c1,0.4,1.8,1,2.4,1.7
		c0.6,0.7,1.1,1.6,1.5,2.7c0.3,1,0.5,2.2,0.5,3.5V113.9z M379,111.3c0-1.8-0.4-3.2-1.1-4.2c-0.7-1-1.9-1.6-3.6-1.6
		c-1.6,0-2.8,0.5-3.5,1.5c-0.7,1-1.1,2.4-1.1,4.2v2.6c0,1.8,0.4,3.2,1.1,4.2c0.7,1,1.9,1.6,3.5,1.6c1.6,0,2.8-0.5,3.5-1.5
		c0.7-1,1.1-2.4,1.1-4.2L379,111.3L379,111.3z"/>
	<path class="st1" d="M403.8,103.7c0,0.1,0,0.2,0,0.2l-4.7,16.4c-0.2,0.8-0.6,1.3-1.2,1.6c-0.5,0.3-1.2,0.4-1.9,0.4
		c-0.7,0-1.4-0.1-1.9-0.4c-0.5-0.3-0.9-0.8-1.2-1.6l-4.7-16.4c0,0,0-0.1,0-0.2c0-0.4,0.2-0.6,0.5-0.6h1.9c0.3,0,0.5,0.2,0.7,0.7
		l4,15.1c0.1,0.4,0.2,0.7,0.3,0.8c0.1,0.1,0.2,0.2,0.4,0.2c0.2,0,0.3-0.1,0.4-0.2c0.1-0.1,0.2-0.4,0.3-0.8l4-15.1
		c0.1-0.4,0.4-0.7,0.7-0.7h1.9C403.6,103.1,403.8,103.3,403.8,103.7L403.8,103.7z"/>
	<path class="st1" d="M425.2,112.8c0,0.5-0.2,0.8-0.7,0.8H413v0.5c0,2,0.4,3.5,1.2,4.3c0.8,0.8,2,1.3,3.6,1.3c1,0,2.1,0,3.2-0.1
		c1.1-0.1,2.1-0.2,2.9-0.3h0.2c0.1,0,0.3,0,0.4,0.1c0.1,0.1,0.2,0.2,0.2,0.4v1.2c0,0.2,0,0.4-0.1,0.5c-0.1,0.1-0.3,0.2-0.5,0.3
		c-1,0.2-2,0.3-2.9,0.4c-1,0.1-2.1,0.2-3.2,0.2c-1,0-2-0.1-2.9-0.4c-0.9-0.3-1.8-0.7-2.5-1.4c-0.7-0.6-1.3-1.5-1.8-2.5
		c-0.4-1.1-0.7-2.4-0.7-4V111c0-2.5,0.7-4.4,2-5.9c1.3-1.5,3.2-2.2,5.7-2.2c1.3,0,2.4,0.2,3.3,0.6c0.9,0.4,1.7,0.9,2.4,1.6
		c0.6,0.7,1.1,1.6,1.4,2.5c0.3,1,0.5,2.1,0.5,3.3L425.2,112.8L425.2,112.8z M422.2,110.9c0-2-0.4-3.4-1.1-4.2
		c-0.7-0.8-1.9-1.2-3.4-1.2s-2.6,0.4-3.5,1.3c-0.8,0.9-1.2,2.2-1.2,4.1v0.3h9.2V110.9z"/>
	<path class="st1" d="M441.7,104.9c0,0.4-0.2,0.6-0.7,0.6c-0.8,0-1.6,0.1-2.3,0.3c-0.7,0.2-1.6,0.6-2.4,1.1v14.4
		c0,0.2-0.1,0.3-0.2,0.5c-0.1,0.1-0.3,0.2-0.5,0.2h-1.7c-0.2,0-0.3-0.1-0.5-0.2c-0.1-0.1-0.2-0.3-0.2-0.5v-17.6
		c0-0.2,0.1-0.3,0.2-0.5c0.1-0.1,0.3-0.2,0.5-0.2h1.6c0.2,0,0.3,0.1,0.5,0.2c0.1,0.1,0.2,0.3,0.2,0.5v0.7c0.9-0.6,1.7-1,2.5-1.3
		c0.8-0.3,1.6-0.4,2.4-0.4c0.5,0,0.7,0.2,0.7,0.6V104.9L441.7,104.9z"/>
	<path class="st1" d="M452.3,99.4c0,0.2-0.1,0.3-0.2,0.5c-0.1,0.1-0.3,0.2-0.5,0.2h-1.8c-0.2,0-0.3-0.1-0.5-0.2
		c-0.1-0.1-0.2-0.3-0.2-0.5v-2.8c0-0.2,0.1-0.3,0.2-0.5c0.1-0.1,0.3-0.2,0.5-0.2h1.8c0.2,0,0.3,0.1,0.5,0.2c0.1,0.1,0.2,0.3,0.2,0.5
		V99.4z M452.3,121.4c0,0.2-0.1,0.3-0.2,0.5c-0.1,0.1-0.3,0.2-0.5,0.2h-1.7c-0.2,0-0.3-0.1-0.5-0.2c-0.1-0.1-0.2-0.3-0.2-0.5v-17.6
		c0-0.2,0.1-0.3,0.2-0.5c0.1-0.1,0.3-0.2,0.5-0.2h1.7c0.2,0,0.3,0.1,0.5,0.2c0.1,0.1,0.2,0.3,0.2,0.5V121.4z"/>
	<path class="st1" d="M475.8,112.8c0,0.5-0.2,0.8-0.7,0.8h-11.6v0.5c0,2,0.4,3.5,1.2,4.3c0.8,0.8,2,1.3,3.6,1.3c1,0,2.1,0,3.2-0.1
		c1.1-0.1,2.1-0.2,2.9-0.3h0.2c0.1,0,0.3,0,0.4,0.1c0.1,0.1,0.2,0.2,0.2,0.4v1.2c0,0.2,0,0.4-0.1,0.5c-0.1,0.1-0.3,0.2-0.5,0.3
		c-1,0.2-2,0.3-2.9,0.4c-1,0.1-2.1,0.2-3.2,0.2c-1,0-2-0.1-2.9-0.4c-0.9-0.3-1.8-0.7-2.5-1.4c-0.7-0.6-1.3-1.5-1.8-2.5
		c-0.4-1.1-0.7-2.4-0.7-4V111c0-2.5,0.7-4.4,2-5.9c1.3-1.5,3.2-2.2,5.7-2.2c1.3,0,2.4,0.2,3.3,0.6c0.9,0.4,1.7,0.9,2.4,1.6
		c0.6,0.7,1.1,1.6,1.4,2.5c0.3,1,0.5,2.1,0.5,3.3L475.8,112.8L475.8,112.8z M472.8,110.9c0-2-0.4-3.4-1.1-4.2
		c-0.7-0.8-1.9-1.2-3.4-1.2c-1.5,0-2.6,0.4-3.5,1.3c-0.8,0.9-1.2,2.2-1.2,4.1v0.3h9.2V110.9z"/>
	<path class="st1" d="M495.8,117.3c0,0.9-0.2,1.6-0.5,2.3c-0.3,0.6-0.7,1.2-1.3,1.6s-1.2,0.7-2,0.9c-0.8,0.2-1.7,0.3-2.6,0.3
		c-0.3,0-0.7,0-1.2,0c-0.4,0-0.9,0-1.4-0.1c-0.5,0-1-0.1-1.5-0.2c-0.5-0.1-1-0.1-1.4-0.3c-0.5-0.1-0.7-0.3-0.7-0.7v-1.2
		c0-0.2,0.1-0.3,0.2-0.4s0.3-0.1,0.4-0.1h0.1c0.4,0,0.9,0.1,1.4,0.1c0.5,0,1,0.1,1.5,0.1c0.5,0,1,0.1,1.4,0.1c0.4,0,0.8,0,1.1,0
		c1.1,0,2-0.2,2.5-0.5c0.6-0.3,0.9-1,0.9-1.9c0-0.5-0.2-1-0.5-1.4c-0.4-0.4-1-0.9-2-1.5l-3.5-2.1c-1.1-0.6-1.9-1.4-2.5-2.1
		c-0.6-0.8-1-1.7-1-2.8c0-0.9,0.2-1.6,0.5-2.2c0.3-0.6,0.8-1.1,1.3-1.4c0.5-0.4,1.2-0.6,2-0.7c0.8-0.1,1.6-0.2,2.5-0.2
		c1,0,1.9,0,2.8,0.1c0.9,0.1,1.8,0.2,2.6,0.3c0.4,0.1,0.7,0.3,0.7,0.7v1.1c0,0.4-0.2,0.6-0.6,0.6h-0.1c-0.6,0-1.4-0.1-2.4-0.2
		s-2-0.1-2.9-0.1s-1.7,0.1-2.3,0.3c-0.6,0.2-0.9,0.8-0.9,1.7c0,0.5,0.2,1,0.6,1.4s1,0.8,1.8,1.3l3.4,2c1.4,0.8,2.4,1.7,3,2.5
		C495.6,115.4,495.9,116.3,495.8,117.3L495.8,117.3z"/>
</g>
</svg>
