<?xml version="1.0" encoding="utf-8"?>
<!-- Generator: Adobe Illustrator 21.0.0, SVG Export Plug-In . SVG Version: 6.00 Build 0)  -->
<svg version="1.1" id="Layer_1" xmlns="http://www.w3.org/2000/svg" xmlns:xlink="http://www.w3.org/1999/xlink" x="0px" y="0px"
	 viewBox="0 0 77 106" style="enable-background:new 0 0 77 106;" xml:space="preserve">
<style type="text/css">
	.st0{fill:#E8C100;}
</style>
<g>
	<g>
		<path class="st0" d="M67,96.1H10c-4.5,0-8.2-3.7-8.2-8.2V11.5C1.8,7,5.5,3.2,10,3.2h57c4.5,0,8.2,3.7,8.2,8.2v76.4
			C75.2,92.4,71.5,96.1,67,96.1z M10,5.2c-3.4,0-6.2,2.8-6.2,6.2v76.4c0,3.4,2.8,6.2,6.2,6.2h57c3.4,0,6.2-2.8,6.2-6.2V11.5
			c0-3.4-2.8-6.2-6.2-6.2H10z"/>
	</g>
	<g>
		<path class="st0" d="M70.8,16.9h-65V8.8h65V16.9z M7.8,14.9h61v-4.1h-61V14.9z"/>
	</g>
	<g>
		<path class="st0" d="M15.2,40.6H7.3v-6.1h7.9V40.6z M9.3,38.6h3.9v-2.1H9.3V38.6z"/>
	</g>
	<g>
		<path class="st0" d="M21,40.6h-7.9v-6.1H21V40.6z M15.2,38.6H19v-2.1h-3.9V38.6z"/>
	</g>
	<g>
		<path class="st0" d="M26.9,40.6H19v-6.1h7.9V40.6z M21,38.6h3.9v-2.1H21V38.6z"/>
	</g>
	<g>
		<path class="st0" d="M32.8,40.6h-7.9v-6.1h7.9V40.6z M26.9,38.6h3.9v-2.1h-3.9V38.6z"/>
	</g>
	<g>
		<path class="st0" d="M38.7,40.6h-7.9v-6.1h7.9V40.6z M32.8,38.6h3.9v-2.1h-3.9V38.6z"/>
	</g>
	<g>
		<path class="st0" d="M44.5,40.6h-7.9v-6.1h7.9V40.6z M38.7,38.6h3.9v-2.1h-3.9V38.6z"/>
	</g>
	<g>
		<path class="st0" d="M50.4,40.6h-7.9v-6.1h7.9V40.6z M44.5,38.6h3.9v-2.1h-3.9V38.6z"/>
	</g>
	<g>
		<path class="st0" d="M56.3,40.6h-7.9v-6.1h7.9V40.6z M50.4,38.6h3.9v-2.1h-3.9V38.6z"/>
	</g>
	<g>
		<path class="st0" d="M62.2,40.6h-7.9v-6.1h7.9V40.6z M56.3,38.6h3.9v-2.1h-3.9V38.6z"/>
	</g>
	<g>
		<path class="st0" d="M68.1,40.6h-7.9v-6.1h7.9V40.6z M62.2,38.6h3.9v-2.1h-3.9V38.6z"/>
	</g>
	<g>
		<path class="st0" d="M15.2,52.5H7.3v-6.1h7.9V52.5z M9.3,50.5h3.9v-2.1H9.3V50.5z"/>
	</g>
	<g>
		<path class="st0" d="M21,52.5h-7.9v-6.1H21V52.5z M15.2,50.5H19v-2.1h-3.9V50.5z"/>
	</g>
	<g>
		<path class="st0" d="M26.9,52.5H19v-6.1h7.9V52.5z M21,50.5h3.9v-2.1H21V50.5z"/>
	</g>
	<g>
		<path class="st0" d="M32.8,52.5h-7.9v-6.1h7.9V52.5z M26.9,50.5h3.9v-2.1h-3.9V50.5z"/>
	</g>
	<g>
		<path class="st0" d="M38.7,52.5h-7.9v-6.1h7.9V52.5z M32.8,50.5h3.9v-2.1h-3.9V50.5z"/>
	</g>
	<g>
		<path class="st0" d="M44.5,52.5h-7.9v-6.1h7.9V52.5z M38.7,50.5h3.9v-2.1h-3.9V50.5z"/>
	</g>
	<g>
		<path class="st0" d="M67.9,52.5H42.5v-6.1h25.3V52.5z M44.5,50.5h21.3v-2.1H44.5V50.5z"/>
	</g>
	<g>
		<path class="st0" d="M15.2,64.6H7.3v-6.1h7.9V64.6z M9.3,62.6h3.9v-2.1H9.3V62.6z"/>
	</g>
	<g>
		<path class="st0" d="M24,90.3H7.3V68.7H24V90.3z M9.3,88.3H22V70.7H9.3V88.3z"/>
	</g>
	<g>
		<path class="st0" d="M24,64.6H13.2v-6.1H24V64.6z M15.2,62.6H22v-2.1h-6.9V62.6z"/>
	</g>
	<g>
		<path class="st0" d="M35.8,64.6H22v-6.1h13.8V64.6z M24,62.6h9.8v-2.1H24V62.6z"/>
	</g>
	<g>
		<path class="st0" d="M41,64.6h-7.2v-6.1H41V64.6z M35.8,62.6H39v-2.1h-3.2V62.6z"/>
	</g>
	<g>
		<path class="st0" d="M55.3,64.6H41.2v-6.1h14.2V64.6z M43.2,62.6h10.2v-2.1H43.2V62.6z"/>
	</g>
	<g>
		<path class="st0" d="M67.9,64.6H53.3v-6.1h14.5V64.6z M55.3,62.6h10.5v-2.1H55.3V62.6z"/>
	</g>
	<g>
		<path class="st0" d="M35.8,77.1h-9.7v-6.1h9.7V77.1z M28.1,75.1h5.7v-2.1h-5.7V75.1z"/>
	</g>
	<g>
		<path class="st0" d="M21.4,83.8H10.2v-9h11.2V83.8z M12.2,81.8h7.2v-5h-7.2V81.8z"/>
	</g>
	<g>
		<path class="st0" d="M45.8,87.8H35.3V82h10.5V87.8z M37.3,85.8h6.5V84h-6.5V85.8z"/>
	</g>
	<g>
		<path class="st0" d="M73,102.8H55.6v-8.6H73V102.8z M57.6,100.8H71v-4.6H57.6V100.8z"/>
	</g>
	<g>
		<path class="st0" d="M52.8,98.3h-9v-4.2h9V98.3z M45.8,96.3h5v-0.2h-5V96.3z"/>
	</g>
	<g>
		<path class="st0" d="M34.3,98.3h-9v-4.2h9V98.3z M27.3,96.3h5v-0.2h-5V96.3z"/>
	</g>
	<g>
		<path class="st0" d="M20,98.3h-9v-4.2h9V98.3z M13,96.3h5v-0.2h-5V96.3z"/>
	</g>
	<g>
		<path class="st0" d="M62.4,77.1H33.8v-6.1h28.5V77.1z M35.8,75.1h24.5v-2.1H35.8V75.1z"/>
	</g>
	<g>
		<path class="st0" d="M67.9,77.1h-7.5v-6.1h7.5V77.1z M62.4,75.1h3.5v-2.1h-3.5V75.1z"/>
	</g>
	<g>
		<path class="st0" d="M67.9,77.1h-4.6v-6.1h4.6V77.1z M65.3,75.1h0.6v-2.1h-0.6V75.1z"/>
	</g>
	<g>
		<path class="st0" d="M43.2,64.6H39v-6.1h4.2V64.6z M41,62.6h0.2v-2.1H41V62.6z"/>
	</g>
	<g>
		<path class="st0" d="M74.2,20.2H2.8c-0.6,0-1-0.4-1-1s0.4-1,1-1h71.5c0.6,0,1,0.4,1,1S74.8,20.2,74.2,20.2z"/>
	</g>
	<g>
		<path class="st0" d="M74.2,32.3H2.8c-0.6,0-1-0.4-1-1s0.4-1,1-1h71.5c0.6,0,1,0.4,1,1S74.8,32.3,74.2,32.3z"/>
	</g>
	<g>
		<path class="st0" d="M74.2,44.2H2.8c-0.6,0-1-0.4-1-1s0.4-1,1-1h71.5c0.6,0,1,0.4,1,1S74.8,44.2,74.2,44.2z"/>
	</g>
	<g>
		<path class="st0" d="M74.2,56.6H2.8c-0.6,0-1-0.4-1-1s0.4-1,1-1h71.5c0.6,0,1,0.4,1,1S74.8,56.6,74.2,56.6z"/>
	</g>
	<g>
		<path class="st0" d="M74.2,68.2H2.8c-0.6,0-1-0.4-1-1s0.4-1,1-1h71.5c0.6,0,1,0.4,1,1S74.8,68.2,74.2,68.2z"/>
	</g>
	<g>
		<path class="st0" d="M73.2,92.5h-69c-0.6,0-1-0.4-1-1s0.4-1,1-1h69c0.6,0,1,0.4,1,1S73.8,92.5,73.2,92.5z"/>
	</g>
	<g>
		<path class="st0" d="M72.2,8h-68c-0.6,0-1-0.4-1-1s0.4-1,1-1h68c0.6,0,1,0.4,1,1S72.8,8,72.2,8z"/>
	</g>
	<g>
		<path class="st0" d="M20.2,72.9h-9c-0.6,0-1-0.4-1-1s0.4-1,1-1h9c0.6,0,1,0.4,1,1S20.8,72.9,20.2,72.9z"/>
	</g>
	<g>
		<path class="st0" d="M20.2,76.2h-9c-0.6,0-1-0.4-1-1s0.4-1,1-1h9c0.6,0,1,0.4,1,1S20.8,76.2,20.2,76.2z"/>
	</g>
	<g>
		<path class="st0" d="M20.2,84h-9c-0.6,0-1-0.4-1-1s0.4-1,1-1h9c0.6,0,1,0.4,1,1S20.8,84,20.2,84z"/>
	</g>
	<g>
		<path class="st0" d="M20.2,87.8h-9c-0.6,0-1-0.4-1-1s0.4-1,1-1h9c0.6,0,1,0.4,1,1S20.8,87.8,20.2,87.8z"/>
	</g>
	<g>
		<path class="st0" d="M64.3,101.4c-2,0-3.6-1.3-3.6-2.9s1.6-2.9,3.6-2.9s3.6,1.3,3.6,2.9S66.3,101.4,64.3,101.4z M64.3,97.5
			c-0.9,0-1.6,0.5-1.6,0.9s0.7,0.9,1.6,0.9s1.6-0.5,1.6-0.9S65.2,97.5,64.3,97.5z"/>
	</g>
</g>
</svg>
