<?xml version="1.0" encoding="utf-8"?>
<!-- Generator: Adobe Illustrator 21.0.0, SVG Export Plug-In . SVG Version: 6.00 Build 0)  -->
<svg version="1.1" id="Layer_1" xmlns="http://www.w3.org/2000/svg" xmlns:xlink="http://www.w3.org/1999/xlink" x="0px" y="0px"
	 viewBox="0 0 105 106" style="enable-background:new 0 0 105 106;" xml:space="preserve">
<style type="text/css">
	.st0{fill:#E8C100;}
</style>
<g>
	<g>
		<path class="st0" d="M100.7,79.3H4.4c-0.7,0-1.3-0.4-1.7-0.9c-0.4-0.6-0.4-1.3-0.1-1.9l13-27.1c0.7-1.4,2.1-2.3,3.6-2.3h66.6
			c1.5,0,2.9,0.9,3.6,2.3l13.1,27.3c0.3,0.6,0.2,1.3-0.1,1.8C102,79,101.4,79.3,100.7,79.3z M19.2,49c-0.8,0-1.5,0.4-1.8,1.1
			l-13,27.1l0,0h96.2L87.6,50c-0.3-0.7-1-1.1-1.8-1.1H19.2V49z"/>
	</g>
	<g>
		<path class="st0" d="M25.1,79.3c-0.1,0-0.2,0-0.3,0c-0.5-0.1-0.9-0.7-0.7-1.2l8-30.3c0.1-0.5,0.7-0.9,1.2-0.7
			c0.5,0.1,0.9,0.7,0.7,1.2l-8,30.3C25.9,79,25.5,79.3,25.1,79.3z"/>
	</g>
	<g>
		<path class="st0" d="M52.6,79.3c-0.5,0-1-0.4-1-1L51.3,48c0-0.6,0.4-1,1-1l0,0c0.5,0,1,0.4,1,1l0.2,30.3
			C53.6,78.8,53.2,79.3,52.6,79.3L52.6,79.3z"/>
	</g>
	<g>
		<path class="st0" d="M79.9,79.3c-0.4,0-0.8-0.3-1-0.7l-8-30.3c-0.1-0.5,0.2-1.1,0.7-1.2c0.5-0.1,1.1,0.2,1.2,0.7l8,30.3
			c0.1,0.5-0.2,1.1-0.7,1.2C80.1,79.3,80,79.3,79.9,79.3z"/>
	</g>
	<g>
		<path class="st0" d="M96.9,68.3H8c-0.6,0-1-0.4-1-1s0.4-1,1-1h88.9c0.6,0,1,0.4,1,1S97.5,68.3,96.9,68.3z"/>
	</g>
	<g>
		<path class="st0" d="M91.9,58.5H13.3c-0.6,0-1-0.4-1-1s0.4-1,1-1h78.6c0.6,0,1,0.4,1,1S92.5,58.5,91.9,58.5z"/>
	</g>
	<g>
		<path class="st0" d="M55.9,104.3h-6.6c-1.6,0-3-1.3-3-3V89.5c0-1.6,1.3-3,3-3h6.6c1.6,0,3,1.3,3,3v11.8
			C58.8,103,57.5,104.3,55.9,104.3z M49.3,88.6c-0.5,0-1,0.4-1,1v11.8c0,0.5,0.4,1,1,1h6.6c0.5,0,1-0.4,1-1V89.5c0-0.5-0.4-1-1-1
			L49.3,88.6L49.3,88.6z"/>
	</g>
	<g>
		<path class="st0" d="M52.3,88.6c-0.6,0-1-0.4-1-1v-9.3c0-0.6,0.4-1,1-1s1,0.4,1,1v9.3C53.3,88.1,52.9,88.6,52.3,88.6z"/>
	</g>
	<g>
		<path class="st0" d="M52.3,28.7c-4.4,0-8-3.6-8-8s3.6-8,8-8s8,3.6,8,8S56.8,28.7,52.3,28.7z M52.3,14.7c-3.3,0-6,2.7-6,6
			s2.7,6,6,6s6-2.7,6-6C58.4,17.4,55.7,14.7,52.3,14.7z"/>
	</g>
	<g>
		<path class="st0" d="M61.4,12.9c-0.3,0-0.5-0.1-0.7-0.3c-0.4-0.4-0.4-1,0-1.4l4-4c0.4-0.4,1-0.4,1.4,0s0.4,1,0,1.4l-4,4
			C61.9,12.8,61.6,12.9,61.4,12.9z"/>
	</g>
	<g>
		<path class="st0" d="M70.6,21.7h-5.3c-0.6,0-1-0.4-1-1s0.4-1,1-1h5.3c0.6,0,1,0.4,1,1S71.2,21.7,70.6,21.7z"/>
	</g>
	<g>
		<path class="st0" d="M65.5,34.6c-0.3,0-0.5-0.1-0.7-0.3l-3.9-3.9c-0.4-0.4-0.4-1,0-1.4s1-0.4,1.4,0l3.9,3.9c0.4,0.4,0.4,1,0,1.4
			C66,34.5,65.7,34.6,65.5,34.6z"/>
	</g>
	<g>
		<path class="st0" d="M52.6,40.2c-0.6,0-1-0.4-1-1v-5.8c0-0.6,0.4-1,1-1s1,0.4,1,1v5.8C53.6,39.8,53.1,40.2,52.6,40.2z"/>
	</g>
	<g>
		<path class="st0" d="M52.6,8.7c-0.6,0-1-0.4-1-1v-5c0-0.6,0.4-1,1-1s1,0.4,1,1v5C53.6,8.2,53.1,8.7,52.6,8.7z"/>
	</g>
	<g>
		<path class="st0" d="M43.6,12.9c-0.3,0-0.5-0.1-0.7-0.3l-4-4c-0.4-0.4-0.4-1,0-1.4s1-0.4,1.4,0l4,4c0.4,0.4,0.4,1,0,1.4
			C44.1,12.8,43.8,12.9,43.6,12.9z"/>
	</g>
	<g>
		<path class="st0" d="M39.6,21.7h-5.3c-0.6,0-1-0.4-1-1s0.4-1,1-1h5.3c0.6,0,1,0.4,1,1S40.1,21.7,39.6,21.7z"/>
	</g>
	<g>
		<path class="st0" d="M39.4,34.6c-0.3,0-0.5-0.1-0.7-0.3c-0.4-0.4-0.4-1,0-1.4l3.9-3.9c0.4-0.4,1-0.4,1.4,0s0.4,1,0,1.4l-3.9,3.9
			C40,34.5,39.7,34.6,39.4,34.6z"/>
	</g>
</g>
</svg>
