<?xml version="1.0" encoding="utf-8"?>
<!-- Generator: Adobe Illustrator 21.0.0, SVG Export Plug-In . SVG Version: 6.00 Build 0)  -->
<svg version="1.1" id="Layer_1" xmlns="http://www.w3.org/2000/svg" xmlns:xlink="http://www.w3.org/1999/xlink" x="0px" y="0px"
	 viewBox="0 0 203 189" style="enable-background:new 0 0 203 189;" xml:space="preserve">
<style type="text/css">
	.st0{fill:#0074FF;}
	.st1{fill:none;stroke:#0074FF;stroke-miterlimit:10;}
	.st2{fill:#FFFFFF;}
	.st3{fill:none;stroke:#FFFFFF;stroke-width:3;stroke-miterlimit:10;}
	.st4{fill:none;stroke:#FFFFFF;stroke-width:1.3;stroke-miterlimit:10;}
</style>
<g>
	<g>
		<polygon class="st0" points="55,0.4 203,0.4 203,189.4 5,189.4 		"/>
	</g>
	<line class="st1" x1="0" y1="189.4" x2="50" y2="0.4"/>
</g>
<g>
	<g>
		<rect x="72.6" y="162.2" class="st2" width="93.2" height="7.8"/>
	</g>
	<g>
		<g>
			<path class="st2" d="M110.8,115.1v15.4H92.3v-15.4H110.8 M113.8,112.1H89.3v21.4h24.5V112.1L113.8,112.1z"/>
		</g>
	</g>
	<g>
		<g>
			<path class="st2" d="M145.9,115.1v40.3h-18.5v-40.3H145.9 M148.9,112.1h-24.5v46.3h24.5V112.1L148.9,112.1z"/>
		</g>
	</g>
	<g>
		<g>
			<path class="st2" d="M120.8,74.5l41.9,32.6v48.1H75.6v-48.1L120.8,74.5 M120.8,70.8l-48.3,34.9v52.6h93.2v-52.6L120.8,70.8
				L120.8,70.8z"/>
		</g>
	</g>
	<polyline class="st3" points="179.3,109.1 121.1,62.5 59,109.1 	"/>
	<g>
		<g>
			<g>
				<line class="st4" x1="121.3" y1="19.8" x2="121.3" y2="28.8"/>
				<g>
					<path class="st2" d="M121.3,36.7c-1.4-3.7-3.7-8.3-6.2-11.1l6.2,2.2l6.2-2.2C125,28.4,122.6,33,121.3,36.7z"/>
				</g>
			</g>
		</g>
		<g>
			<g>
				<line class="st4" x1="63.6" y1="73.2" x2="72.6" y2="73.2"/>
				<g>
					<path class="st2" d="M80.5,73.2c-3.7,1.4-8.3,3.7-11.1,6.2l2.2-6.2L69.4,67C72.2,69.5,76.8,71.9,80.5,73.2z"/>
				</g>
			</g>
		</g>
		<g>
			<g>
				<line class="st4" x1="174.7" y1="74.6" x2="165.6" y2="74.6"/>
				<g>
					<path class="st2" d="M157.8,74.6c3.7-1.4,8.3-3.7,11.1-6.2l-2.2,6.2l2.2,6.2C166.1,78.3,161.5,76,157.8,74.6z"/>
				</g>
			</g>
		</g>
		<g>
			<g>
				<line class="st4" x1="83.3" y1="38.1" x2="87.6" y2="42.4"/>
				<g>
					<path class="st2" d="M93.1,47.9c-3.6-1.6-8.5-3.2-12.2-3.5l6-2.8l2.8-6C89.9,39.4,91.5,44.3,93.1,47.9z"/>
				</g>
			</g>
		</g>
		<g>
			<g>
				<line class="st4" x1="155" y1="38.1" x2="150.7" y2="42.4"/>
				<g>
					<path class="st2" d="M145.2,47.9c1.6-3.6,3.2-8.5,3.5-12.2l2.8,6l6,2.8C153.6,44.7,148.7,46.3,145.2,47.9z"/>
				</g>
			</g>
		</g>
	</g>
	<g>
		<path class="st2" d="M119.1,106.5c-17.5,0-31.7-14.2-31.7-31.7s14.2-31.7,31.7-31.7c17.5,0,31.7,14.2,31.7,31.7
			S136.6,106.5,119.1,106.5z"/>
		<path class="st0" d="M119.1,44.1c16.9,0,30.7,13.8,30.7,30.7s-13.8,30.7-30.7,30.7S88.5,91.7,88.5,74.8S102.2,44.1,119.1,44.1
			 M119.1,42.1c-18.1,0-32.7,14.6-32.7,32.7s14.6,32.7,32.7,32.7s32.7-14.6,32.7-32.7S137.2,42.1,119.1,42.1L119.1,42.1z"/>
	</g>
	<g>
		<polygon class="st0" points="109.3,93 115.6,81 111.4,81 118.1,71.9 114.2,71.9 122.8,59.6 133.9,59.7 125.1,68.2 130.3,68.2 
			121.2,77.5 126.3,77.5 109.3,93.2 		"/>
	</g>
</g>
</svg>
