<?xml version="1.0" encoding="utf-8"?>
<!-- Generator: Adobe Illustrator 21.0.0, SVG Export Plug-In . SVG Version: 6.00 Build 0)  -->
<svg version="1.1" id="Layer_1" xmlns="http://www.w3.org/2000/svg" xmlns:xlink="http://www.w3.org/1999/xlink" x="0px" y="0px"
	 viewBox="0 0 203 189" style="enable-background:new 0 0 203 189;" xml:space="preserve">
<style type="text/css">
	.st0{fill:#61FF17;}
	.st1{fill:none;stroke:#61FF17;stroke-miterlimit:10;}
	.st2{fill:#FFFFFF;}
	.st3{fill:none;stroke:#FFFFFF;stroke-width:3;stroke-miterlimit:10;}
	.st4{fill:none;stroke:#FFFFFF;stroke-width:1.3;stroke-miterlimit:10;}
</style>
<g>
	<g>
		<polygon class="st0" points="55,0.4 203,0.4 203,189.4 5,189.4 		"/>
	</g>
	<line class="st1" x1="0" y1="189.4" x2="50" y2="0.4"/>
</g>
<g>
	<g>
		<rect x="71.6" y="162.2" class="st2" width="93.2" height="7.8"/>
	</g>
	<g>
		<path class="st2" d="M109.8,115.1v15.4H91.3v-15.4H109.8 M112.8,112.1H88.3v21.4h24.5V112.1L112.8,112.1z"/>
	</g>
	<g>
		<path class="st2" d="M144.9,115.1v40.3h-18.5v-40.3H144.9 M147.9,112.1h-24.5v46.3h24.5V112.1L147.9,112.1z"/>
	</g>
	<g>
		<path class="st2" d="M119.8,74.5l41.9,32.6v48.1H74.6v-48.1L119.8,74.5 M119.8,70.8l-48.3,34.9v52.6h93.2v-52.6L119.8,70.8
			L119.8,70.8z"/>
	</g>
	<polyline class="st3" points="178.3,109.1 120.1,62.5 58,109.1 	"/>
	<g>
		<g>
			<g>
				<line class="st4" x1="120.3" y1="36.7" x2="120.3" y2="27.6"/>
				<g>
					<path class="st2" d="M120.3,19.8c1.4,3.7,3.7,8.3,6.2,11.1l-6.2-2.2l-6.2,2.2C116.5,28.1,118.9,23.5,120.3,19.8z"/>
				</g>
			</g>
		</g>
		<g>
			<g>
				<line class="st4" x1="79.5" y1="73.2" x2="70.5" y2="73.2"/>
				<g>
					<path class="st2" d="M62.6,73.2c3.7-1.4,8.3-3.7,11.1-6.2l-2.2,6.2l2.2,6.2C70.9,76.9,66.3,74.6,62.6,73.2z"/>
				</g>
			</g>
		</g>
		<g>
			<g>
				<line class="st4" x1="156.8" y1="74.6" x2="165.8" y2="74.6"/>
				<g>
					<path class="st2" d="M173.7,74.6c-3.7,1.4-8.3,3.7-11.1,6.2l2.2-6.2l-2.2-6.2C165.4,70.9,170,73.3,173.7,74.6z"/>
				</g>
			</g>
		</g>
		<g>
			<g>
				<line class="st4" x1="92.1" y1="47.9" x2="87.8" y2="43.6"/>
				<g>
					<path class="st2" d="M82.3,38.1c3.6,1.6,8.5,3.2,12.2,3.5l-6,2.8l-2.8,6C85.5,46.5,83.9,41.7,82.3,38.1z"/>
				</g>
			</g>
		</g>
		<g>
			<g>
				<line class="st4" x1="144.2" y1="47.9" x2="148.4" y2="43.6"/>
				<g>
					<path class="st2" d="M154,38.1c-1.6,3.6-3.2,8.5-3.5,12.2l-2.8-6l-6-2.8C145.5,41.3,150.4,39.7,154,38.1z"/>
				</g>
			</g>
		</g>
	</g>
	<g>
		<path class="st2" d="M118.1,106.5c-17.5,0-31.7-14.2-31.7-31.7s14.2-31.7,31.7-31.7c17.5,0,31.7,14.2,31.7,31.7
			S135.6,106.5,118.1,106.5z"/>
		<path class="st0" d="M118.1,44.1c16.9,0,30.7,13.8,30.7,30.7s-13.8,30.7-30.7,30.7S87.5,91.7,87.5,74.8S101.2,44.1,118.1,44.1
			 M118.1,42.1c-18.1,0-32.7,14.6-32.7,32.7s14.6,32.7,32.7,32.7s32.7-14.6,32.7-32.7S136.2,42.1,118.1,42.1L118.1,42.1z"/>
	</g>
	<g>
		<polygon class="st0" points="108.3,93 114.6,81 110.4,81 117.1,71.9 113.2,71.9 121.8,59.6 132.9,59.7 124.1,68.2 129.3,68.2 
			120.2,77.5 125.3,77.5 108.3,93.2 		"/>
	</g>
</g>
</svg>
