<?xml version="1.0" encoding="utf-8"?>
<!-- Generator: Adobe Illustrator 21.0.0, SVG Export Plug-In . SVG Version: 6.00 Build 0)  -->
<svg version="1.1" id="Layer_1" xmlns="http://www.w3.org/2000/svg" xmlns:xlink="http://www.w3.org/1999/xlink" x="0px" y="0px"
	 viewBox="0 0 203 189" style="enable-background:new 0 0 203 189;" xml:space="preserve">
<style type="text/css">
	.st0{fill:#F9CF00;}
	.st1{fill:none;stroke:#F9CF00;stroke-miterlimit:10;}
	.st2{fill:#FFFFFF;}
	.st3{font-family:'Roboto-Bold';}
	.st4{font-size:20px;}
	.st5{fill:none;stroke:#FFFFFF;stroke-width:3;stroke-miterlimit:10;}
</style>
<g>
	<g>
		<polygon class="st0" points="55,0.4 203,0.4 203,189.4 5,189.4 		"/>
	</g>
	<line class="st1" x1="0" y1="189.4" x2="50" y2="0.4"/>
</g>
<g>
	<g>
		<text transform="matrix(1 0 0 1 66.9385 78.8662)" class="st2 st3 st4">€</text>
		<text transform="matrix(1 0 0 1 158.0488 78.8662)" class="st2 st3 st4">€</text>
		<text transform="matrix(1 0 0 1 115.5312 32.7031)" class="st2 st3 st4">€</text>
		<text transform="matrix(1 0 0 1 80.3018 48.4961)" class="st2 st3 st4">€</text>
		<text transform="matrix(1 0 0 1 147.1152 48.4961)" class="st2 st3 st4">€</text>
	</g>
	<g>
		<rect x="72.2" y="162.2" class="st2" width="93.5" height="7.8"/>
	</g>
	<g>
		<g>
			<g>
				<path class="st2" d="M110.6,114.9v15.5H92v-15.5H110.6 M113.6,111.9H89v21.5h24.6V111.9L113.6,111.9z"/>
			</g>
			<g>
				<path class="st2" d="M145.8,114.9v40.4h-18.6v-40.4H145.8 M148.8,111.9h-24.6v46.4h24.6V111.9L148.8,111.9z"/>
			</g>
		</g>
		<g>
			<path class="st2" d="M120.6,74.2l42.1,32.8v48.3H75.2V107L120.6,74.2 M120.6,70.5l-48.4,35v52.8h93.5v-52.8L120.6,70.5
				L120.6,70.5z"/>
		</g>
	</g>
	<polyline class="st5" points="179.3,108.9 120.9,62.2 58.6,108.9 	"/>
	<g>
		<path class="st2" d="M118.9,106.2c-17.5,0-31.8-14.3-31.8-31.8c0-17.5,14.3-31.8,31.8-31.8c17.5,0,31.8,14.3,31.8,31.8
			C150.7,92,136.5,106.2,118.9,106.2z"/>
		<path class="st0" d="M118.9,43.6c17,0,30.8,13.8,30.8,30.8s-13.8,30.8-30.8,30.8S88.1,91.4,88.1,74.4S102,43.6,118.9,43.6
			 M118.9,41.6c-18.1,0-32.8,14.7-32.8,32.8s14.7,32.8,32.8,32.8s32.8-14.7,32.8-32.8S137.1,41.6,118.9,41.6L118.9,41.6z"/>
	</g>
	<g>
		<polygon class="st0" points="106.7,92.8 112.9,80.7 108.7,80.7 115.5,71.6 111.5,71.6 120.2,59.2 131.3,59.4 122.5,67.9 
			127.7,67.9 118.5,77.2 123.7,77.2 106.6,92.9 		"/>
	</g>
</g>
</svg>
