<?xml version="1.0" encoding="utf-8"?>
<!-- Generator: Adobe Illustrator 21.0.0, SVG Export Plug-In . SVG Version: 6.00 Build 0)  -->
<svg version="1.1" id="Layer_1" xmlns="http://www.w3.org/2000/svg" xmlns:xlink="http://www.w3.org/1999/xlink" x="0px" y="0px"
	 viewBox="0 0 77 106" style="enable-background:new 0 0 77 106;" xml:space="preserve">
<style type="text/css">
	.st0{fill:#30C400;}
</style>
<g>
	<g>
		<path class="st0" d="M60.3,91.9H16.7C8,91.9,1,84.8,1,76.2V29.8c0-8.7,7-15.7,15.7-15.7h43.6c8.7,0,15.7,7,15.7,15.7v46.4
			C76,84.8,69,91.9,60.3,91.9z M16.7,16.1C9.1,16.1,3,22.3,3,29.8v46.4c0,7.5,6.1,13.7,13.7,13.7h43.6c7.5,0,13.7-6.1,13.7-13.7
			V29.8c0-7.5-6.1-13.7-13.7-13.7H16.7z"/>
	</g>
	<g>
		<path class="st0" d="M26.5,91.4c-0.6,0-1-0.4-1-1c0-0.1,0.1-13,13-13s13,12.9,13,13c0,0.6-0.4,1-1,1c0,0,0,0,0,0c-0.6,0-1-0.4-1-1
			c0-0.4-0.2-11-11-11c-10.9,0-11,10.6-11,11C27.5,91,27,91.4,26.5,91.4z"/>
	</g>
	<g>
		<path class="st0" d="M34.8,90.4c0,0,0-3.7,3.7-3.7s3.7,3.7,3.7,3.7"/>
		<path class="st0" d="M42.2,91.4c-0.6,0-1-0.4-1-1c0-0.4-0.2-2.7-2.7-2.7s-2.7,2.3-2.7,2.7c0,0.5-0.5,1-1,1c0,0,0,0,0,0
			c-0.5,0-1-0.4-1-1c0-1.9,1.3-4.7,4.7-4.7s4.7,2.8,4.7,4.7C43.2,91,42.7,91.4,42.2,91.4z"/>
	</g>
</g>
</svg>
