<?xml version="1.0" encoding="utf-8"?>
<!-- Generator: Adobe Illustrator 21.0.0, SVG Export Plug-In . SVG Version: 6.00 Build 0)  -->
<svg version="1.1" id="Layer_1" xmlns="http://www.w3.org/2000/svg" xmlns:xlink="http://www.w3.org/1999/xlink" x="0px" y="0px"
	 viewBox="0 0 97 90" style="enable-background:new 0 0 97 90;" xml:space="preserve">
<style type="text/css">
	.st0{fill:#30C400;}
</style>
<g>
	<g>
		<path class="st0" d="M79.1,89.3H27.3l33.3-30.6h-9.8l17.8-18.2h-9.9l8.5-9.7l17.1,13.2v38.8C84.2,89.3,79.2,89.3,79.1,89.3z
			 M32.5,87.3h46.7c0.3,0,3.1-0.2,3.1-4.5V45L67.4,33.6l-4.3,4.9h10.2L55.5,56.8h10.2L32.5,87.3z"/>
	</g>
	<g>
		<path class="st0" d="M26.8,89.3h-7.8c-4.8,0-6-3.3-6-5.1V43.6l35.6-27.2l8.2,6L41.3,45.8h7.9L36,63.6h8.1L26.8,89.3z M14.9,44.6
			v39.6c0,0.3,0.2,3.1,4,3.1h6.8l14.6-21.7H32l13.2-17.8h-7.6l16.5-24.9l-5.5-4L14.9,44.6z"/>
	</g>
	<g>
		<path class="st0" d="M5.9,45.5c-0.1,0-0.1,0-0.2,0c-1.4-0.1-2.8-0.8-3.9-2.2c-2.6-3-1.2-6.6,0-8.1l0.2-0.2
			C3.5,33.9,40.3,4.9,44.8,1.8c4.7-3.3,7.5-0.6,8.1,0.1l10.2,7.8V4.8h12v14.7c2.4,1.9,15,11.8,17.8,13.8c2.3,1.6,3.8,4.1,4,6.3
			c0.1,1.6-0.4,3.1-1.6,4.3c-2.7,2.6-6.2,1.2-7.7,0.1L48.6,13.9l-39,30C9.1,44.4,7.7,45.5,5.9,45.5z M3.3,36.6c-0.4,0.5-2,3.2,0,5.5
			c0.8,0.9,1.6,1.4,2.5,1.5C7,43.6,8,42.7,8.2,42.5l0.1-0.1l40.3-31l40.3,31c0.1,0.1,3,2.2,5.1,0.1c0.8-0.8,1.1-1.7,1-2.8
			c-0.1-1.7-1.4-3.5-3.2-4.8c-3.2-2.3-17.7-13.7-18.3-14.2l-0.4-0.3V6.8h-8v7L51.4,3.2c-0.2-0.2-1.9-2.3-5.5,0.2
			C41.6,6.5,5.6,34.7,3.3,36.6z"/>
	</g>
</g>
</svg>
