<?xml version="1.0" encoding="utf-8"?>
<!-- Generator: Adobe Illustrator 24.1.0, SVG Export Plug-In . SVG Version: 6.00 Build 0)  -->
<svg version="1.1" id="Capa_1" xmlns="http://www.w3.org/2000/svg" xmlns:xlink="http://www.w3.org/1999/xlink" x="0px" y="0px"
	 viewBox="0 0 79 79" style="enable-background:new 0 0 79 79;" xml:space="preserve">
<style type="text/css">
	.st0{fill:#8D9200;}
	.st1{fill:#FFFFFF;}
</style>
<path class="st0" d="M79,0H0v79h79V0z"/>
<path class="st1" d="M41.7,52.2c0-0.8,0.2-1.6,0.7-2.2c0.4-0.7,1.1-1.2,1.8-1.5c0.7-0.3,1.5-0.4,2.3-0.2c0.8,0.2,1.5,0.5,2.1,1.1
	c0.6,0.6,0.9,1.3,1.1,2.1c0.2,0.8,0.1,1.6-0.2,2.3c-0.3,0.7-0.8,1.4-1.5,1.8c-0.7,0.4-1.4,0.7-2.2,0.7c-1.1,0-2.1-0.4-2.8-1.2
	C42.1,54.3,41.7,53.3,41.7,52.2L41.7,52.2z M42.9,52.2c0,0.6,0.2,1.2,0.5,1.6c0.3,0.5,0.8,0.9,1.3,1.1c0.5,0.2,1.1,0.3,1.7,0.2
	s1.1-0.4,1.5-0.8c0.4-0.4,0.7-0.9,0.8-1.5c0.1-0.6,0-1.2-0.2-1.7c-0.2-0.5-0.6-1-1.1-1.3c-0.5-0.3-1.1-0.5-1.6-0.5
	c-0.8,0-1.5,0.3-2.1,0.9C43.1,50.8,42.8,51.5,42.9,52.2L42.9,52.2z M29.3,48.2h1.1v3.4h4.4v-3.4h1.1v8h-1.1v-3.4h-4.4v3.4h-1.1V48.2
	z M39.9,48.2v8h-1.1v-6.9h-1.1v-1.1H39.9z"/>
<path class="st1" d="M20.2,42.5c-5.1,0-8.3-3.7-8.3-8.8c0-5.1,3.5-9,8.7-9c1.5-0.1,3.1,0.3,4.4,1v2.1c-1.3-0.9-2.9-1.4-4.5-1.4
	c-3.9,0-6.5,3.1-6.5,7.1s2.4,7.1,6.5,7.1c1.4,0,2.8-0.4,4.1-1.1l0.6,1.6C23.6,42,21.9,42.4,20.2,42.5z"/>
<path class="st1" d="M28.2,42.2V24.8h1.9v15.6h6.6v1.8H28.2z"/>
<path class="st1" d="M50.6,40.7c-0.7,0.6-1.4,1.1-2.3,1.4s-1.7,0.4-2.6,0.4C44,42.6,42.3,42,41,40.9c-1.2-1.4-1.8-3.2-1.7-5V24.8h2
	V36c-0.1,1.3,0.3,2.6,1.1,3.6c0.4,0.4,0.9,0.7,1.5,0.9c0.5,0.2,1.1,0.3,1.7,0.2c0.6,0.1,1.2,0,1.8-0.2c0.6-0.2,1.1-0.5,1.6-0.9
	c0.8-1,1.2-2.2,1.1-3.4V24.8h1.9v11.6C52.2,38,51.6,39.5,50.6,40.7z"/>
<path class="st1" d="M61.1,42.2h-4.3V24.8h4.9c0.6-0.1,1.2,0,1.7,0.2c0.6,0.2,1.1,0.5,1.5,0.9c0.4,0.4,0.8,0.9,1,1.4
	c0.2,0.5,0.4,1.1,0.3,1.7c0.1,0.8-0.2,1.6-0.6,2.3c-0.4,0.7-1.1,1.2-1.8,1.5c1,0.2,1.8,0.7,2.5,1.5c0.6,0.8,1,1.7,1,2.7
	C67.2,39.4,65.8,42.2,61.1,42.2z M60.9,26.6h-2.2v5.8H61c0.4,0,0.8,0,1.2-0.2c0.4-0.1,0.7-0.4,1-0.6c0.3-0.3,0.5-0.6,0.7-1
	c0.2-0.4,0.2-0.8,0.2-1.2C64.1,27.6,63.1,26.6,60.9,26.6z M61.5,34.2h-2.8v6.2h2.6c2.5,0,3.8-1.4,3.8-3.2
	C65.1,35.5,63.7,34.2,61.5,34.2z"/>
</svg>
