<svg width="136" height="54" viewBox="0 0 136 54" fill="none" xmlns="http://www.w3.org/2000/svg">
<path fill-rule="evenodd" clip-rule="evenodd" d="M4.17603 27.4052C7.26442 30.8455 11.814 32.875 16.74 32.875C21.7877 32.875 26.2759 30.8462 29.3114 27.4047L24.9377 27.4052C23.2791 29.9061 20.7402 31.5802 17.0146 31.5802C13.105 31.5802 10.4053 29.9335 8.64052 27.4074L4.17603 27.4052ZM40.161 27.4052C41.7212 30.7558 44.9854 32.875 49.0086 32.875C51.9843 32.875 55.1425 31.6769 57.0648 29.1834L56.1039 28.3201C54.639 30.0942 52.6247 31.341 50.3355 31.341C47.3052 31.341 45.5631 29.6948 44.6398 27.4058L40.161 27.4052ZM63.1687 27.4052C64.8825 30.7929 68.3902 32.875 72.4008 32.875C75.8337 32.875 78.3972 31.5802 80.5484 28.7993L79.5873 27.7924C78.2142 29.7109 76.1542 31.341 73.8191 31.341C71.0188 31.341 69.0713 29.6793 67.9169 27.4047L63.1687 27.4052ZM87.1112 27.4052C87.0129 27.7942 86.9598 28.211 86.9598 28.6558C86.9598 31.341 89.2948 32.875 91.7206 32.875C94.5586 32.875 97.2135 31.2927 99.3647 29.4708C99.823 31.3884 101.425 32.875 103.302 32.875C104.995 32.875 106.689 31.2451 107.422 29.6626L106.552 29.1834C106.049 29.8544 105.59 30.7177 104.675 30.7177C103.392 30.7177 103.126 28.8826 103.077 27.4061L99.1819 27.4052V28.2242C97.9 29.5185 95.9319 30.9577 94.1464 30.9577C92.2696 30.9577 91.2171 29.2793 91.2171 27.505C91.2171 27.4713 91.2173 27.4378 91.2182 27.4043L87.1112 27.4052ZM114.932 27.4052C114.944 30.1387 114.944 31.1642 111.726 31.3884V32.3476L117.036 32.1561L122.025 32.3476V31.3884C118.754 31.1722 118.779 29.9745 118.814 27.4054L114.932 27.4052ZM128.893 27.4052C128.906 30.1387 128.906 31.1642 125.687 31.3884V32.3476L130.997 32.1561L135.987 32.3476V31.3884C132.757 31.1722 132.748 29.9745 132.776 27.4054L128.893 27.4052Z" fill="#009EE0"/>
<path fill-rule="evenodd" clip-rule="evenodd" d="M0.983643 21.9353C1.68236 24.0102 2.77993 25.8526 4.17605 27.4069L8.64055 27.4054C7.5569 25.8564 6.82577 23.9734 6.38404 21.9371L0.983643 21.9353ZM27.0952 21.9353C26.672 23.9434 25.9783 25.8372 24.9377 27.4058L29.3115 27.4054C30.6826 25.8502 31.7573 24.0074 32.4532 21.9331L27.0952 21.9353ZM39.1881 21.9353C39.1735 22.1912 39.1664 22.4493 39.1664 22.71C39.1664 24.442 39.5197 26.0274 40.161 27.4047L44.6399 27.4054C43.9875 25.7883 43.7442 23.8493 43.7442 21.9432C43.7442 21.9402 43.7442 21.9371 43.7442 21.934L39.1881 21.9353ZM62.0707 21.9353C62.06 22.146 62.0546 22.3561 62.0546 22.5666C62.0546 24.368 62.4569 25.9999 63.1687 27.4067L67.917 27.4054C67.0864 25.7684 66.6662 23.8147 66.6344 21.9342L62.0707 21.9353ZM93.3307 21.9353C90.8376 23.1037 87.815 24.6025 87.1112 27.403L91.2182 27.4054C91.2794 24.8504 93.6658 23.1778 96.0448 21.9362L93.3307 21.9353ZM99.182 21.9353V27.4052L103.077 27.4054C103.059 26.8295 103.073 26.3075 103.073 25.971V21.9353H99.182ZM114.93 21.9353V26.8334C114.93 27.0314 114.931 27.2214 114.932 27.4036L118.814 27.4054C118.817 27.1345 118.821 26.8482 118.821 26.546V21.9353H114.93ZM128.892 21.9353V26.8334C128.892 27.0314 128.893 27.2214 128.894 27.4036L132.776 27.4054C132.779 27.1345 132.782 26.8482 132.782 26.546V21.9353H128.892Z" fill="#009EE0"/>
<path fill-rule="evenodd" clip-rule="evenodd" d="M6.38408 21.9351C6.0122 20.2224 5.84508 18.3991 5.84508 16.5731C5.84508 9.47613 8.82076 1.325 16.7401 1.325C24.7963 1.325 27.6345 9.23699 27.6345 16.4289C27.6345 18.257 27.4726 20.1415 27.0952 21.9338L32.4532 21.9351C33.039 20.1871 33.3565 18.2773 33.3565 16.2372C33.3565 6.74351 25.666 0.0307617 16.9231 0.0307617C8.08789 0.0307617 0.123291 7.03093 0.123291 16.5731C0.123291 18.488 0.427061 20.2856 0.983681 21.9371L6.38408 21.9351ZM43.7443 21.9351C43.7464 17.7161 45.2585 12.4494 50.1987 12.4494C51.8919 12.4494 52.2585 12.8329 52.8077 14.2713C53.1283 15.1823 53.7234 16.1413 54.8221 16.1413C55.6457 16.1413 56.3322 15.2305 56.3322 14.367C56.3322 11.7302 52.1671 11.1545 50.3819 11.1545C44.2658 11.1545 39.5457 15.6282 39.1881 21.9362L43.7443 21.9351ZM66.6345 21.9351C66.6332 21.8569 66.6325 21.78 66.6325 21.7033L66.8155 19.4013H79.9533C80.4107 19.4013 81.0975 19.5931 81.0975 18.9704C81.0975 13.7919 76.841 11.1545 72.3547 11.1545C66.6127 11.1545 62.3625 16.1986 62.0707 21.9367L66.6345 21.9351ZM96.0451 21.9351C97.1757 21.3458 98.3048 20.8529 99.182 20.409V21.9351H103.073V18.059C103.073 12.5453 100.739 11.1545 95.6573 11.1545C93.3231 11.1545 87.2342 11.8261 87.2342 15.3738C87.2342 16.4289 87.9671 17.1005 88.9742 17.1005C90.1185 17.1005 90.7137 16.0454 90.805 14.9905C90.9426 12.4494 92.8194 12.257 95.1083 12.257C98.8621 12.257 99.1365 14.5587 99.1365 17.8197C99.1365 18.3471 99.2279 18.9704 98.7705 19.2098L94.2381 21.5115C93.9478 21.6493 93.6434 21.7903 93.3307 21.9367L96.0451 21.9351ZM118.821 21.9351V19.1139C118.821 15.6138 121.11 12.6886 124.68 12.6886C129.029 12.6886 128.892 17.3879 128.892 20.6965V21.9351H132.782V17.7714C132.782 13.2162 130.311 11.1545 125.962 11.1545C122.712 11.1545 120.24 12.5453 118.638 15.518L117.952 11.1545C115.708 11.5861 114.015 12.3536 111.634 12.6412V13.5995C113.099 13.5995 114.335 13.408 114.701 15.1347C114.93 16.2372 114.93 19.5931 114.93 20.9365V21.9351H118.821ZM67.0446 18.1073C67.5937 14.9905 68.9669 12.257 72.4009 12.257C75.2841 12.257 76.841 14.1755 76.841 17.1481C76.841 18.3471 75.3302 18.1073 74.5973 18.1073H67.0446Z" fill="#009EE0"/>
<path fill-rule="evenodd" clip-rule="evenodd" d="M6.2878 44.3951H9.97851C11.3392 44.3951 12.6147 44.8584 12.6147 46.5152C12.6147 47.9046 11.7302 48.7955 10.3356 48.7955H6.2878V44.3951ZM4.67212 50.2207H10.5399C12.9551 50.2207 14.2304 48.4391 14.2304 46.5685C14.2304 45.001 13.414 43.8251 11.9173 43.5042V43.4687C13.0401 42.9875 13.7201 41.9723 13.7201 40.6182C13.7201 39.3713 13.0911 38.4626 12.2916 37.9636C11.5602 37.5005 10.1485 37.5005 9.07721 37.5005H4.67212V50.2207ZM6.2878 38.9259H9.51938C10.9142 38.9259 12.1045 39.1751 12.1045 40.9391C12.1045 42.2752 11.3561 42.9699 9.51938 42.9699H6.2878V38.9259Z" fill="#87888A"/>
<path fill-rule="evenodd" clip-rule="evenodd" d="M23.3607 41.0103H21.8297L19.3638 48.546H19.3299L16.7615 41.0103H15.1287L18.6153 50.1671L18.0201 51.7349C17.7479 52.2696 17.425 52.5722 16.8296 52.5722C16.5405 52.5722 16.2515 52.4475 15.979 52.3584V53.7479C16.3022 53.8728 16.6425 53.9083 16.9826 53.9083C18.2752 53.9083 18.8705 53.2491 19.5338 51.4499L23.3607 41.0103Z" fill="#87888A"/>
<path fill-rule="evenodd" clip-rule="evenodd" d="M28.5298 50.2207H30.1455V44.3951H36.5405V50.2207H38.1562V37.5005H36.5405V42.9699H30.1455V37.5005H28.5298V50.2207Z" fill="#87888A"/>
<path fill-rule="evenodd" clip-rule="evenodd" d="M44.6864 37.5898H43.581C43.2578 39.4959 41.7612 39.959 40.1113 39.959V41.1706H43.2406V50.2208H44.6864V37.5898Z" fill="#87888A"/>
<path fill-rule="evenodd" clip-rule="evenodd" d="M46.9299 44.0209C46.9299 46.8003 47.1678 50.4343 50.9436 50.4343C54.7194 50.4343 54.9576 46.8003 54.9576 44.0209C54.9576 41.2239 54.7194 37.5898 50.9436 37.5898C47.1678 37.5898 46.9299 41.2239 46.9299 44.0209ZM48.4605 44.0033C48.4605 42.1329 48.4773 38.926 50.9436 38.926C53.4098 38.926 53.4268 42.1329 53.4268 44.0033C53.4268 45.8917 53.4098 49.0982 50.9436 49.0982C48.4773 49.0982 48.4605 45.8917 48.4605 44.0033Z" fill="#87888A"/>
<path fill-rule="evenodd" clip-rule="evenodd" d="M61.7227 50.2207H63.3383V44.3951H69.7332V50.2207H71.3488V37.5005H69.7332V42.9699H63.3383V37.5005H61.7227V50.2207Z" fill="#87888A"/>
<path fill-rule="evenodd" clip-rule="evenodd" d="M73.1165 45.6242C73.1165 48.3143 74.5961 50.4342 77.3853 50.4342C80.1747 50.4342 81.6542 48.3143 81.6542 45.6242C81.6542 42.9163 80.1747 40.7964 77.3853 40.7964C74.5961 40.7964 73.1165 42.9163 73.1165 45.6242ZM74.6473 45.6242C74.6473 43.3793 75.8717 42.1327 77.3853 42.1327C78.8992 42.1327 80.1236 43.3793 80.1236 45.6242C80.1236 47.8512 78.8992 49.0981 77.3853 49.0981C75.8717 49.0981 74.6473 47.8512 74.6473 45.6242Z" fill="#87888A"/>
<path fill-rule="evenodd" clip-rule="evenodd" d="M84.8513 38.2485H83.4056V41.01H81.9089V42.3461H83.4056V48.2072C83.4056 49.8995 84.0009 50.2204 85.4976 50.2204H86.6032V48.8843H85.94C85.0382 48.8843 84.8513 48.7596 84.8513 48.0646V42.3461H86.6032V41.01H84.8513V38.2485Z" fill="#87888A"/>
<path fill-rule="evenodd" clip-rule="evenodd" d="M93.7631 47.2989C93.5078 48.4926 92.6744 49.0981 91.4839 49.0981C89.5619 49.0981 88.6945 47.6729 88.7459 46.0697H95.3276C95.4127 43.8426 94.4605 40.7964 91.3479 40.7964C88.9495 40.7964 87.2148 42.8274 87.2148 45.5887C87.2999 48.4033 88.6266 50.4342 91.4328 50.4342C93.4056 50.4342 94.8004 49.3297 95.1918 47.2989H93.7631ZM88.7459 44.7335C88.8477 43.3262 89.749 42.1327 91.2629 42.1327C92.6914 42.1327 93.7291 43.2903 93.797 44.7335H88.7459Z" fill="#87888A"/>
<path fill-rule="evenodd" clip-rule="evenodd" d="M96.3962 50.2207H97.8422V37.5005H96.3962V50.2207Z" fill="#87888A"/>
<path fill-rule="evenodd" clip-rule="evenodd" d="M99.3538 47.3167C99.4384 49.5968 101.105 50.4342 103.078 50.4342C104.864 50.4342 106.82 49.7216 106.82 47.5305C106.82 45.749 105.392 45.25 103.946 44.9114C102.602 44.5731 101.071 44.395 101.071 43.3082C101.071 42.3818 102.075 42.1327 102.942 42.1327C103.895 42.1327 104.881 42.5065 104.983 43.6824H106.429C106.31 41.4378 104.762 40.7964 102.823 40.7964C101.293 40.7964 99.5409 41.5625 99.5409 43.4151C99.5409 45.1788 100.986 45.6775 102.415 46.0161C103.861 46.3546 105.289 46.5508 105.289 47.7265C105.289 48.8845 104.065 49.0981 103.163 49.0981C101.973 49.0981 100.85 48.6705 100.799 47.3167H99.3538Z" fill="#87888A"/>
</svg>
