<?xml version="1.0" encoding="utf-8"?>
<!-- Generator: Adobe Illustrator 26.3.1, SVG Export Plug-In . SVG Version: 6.00 Build 0)  -->
<svg version="1.1" id="Capa_1" xmlns="http://www.w3.org/2000/svg" xmlns:xlink="http://www.w3.org/1999/xlink" x="0px" y="0px"
	 viewBox="0 0 51 49" style="enable-background:new 0 0 51 49;" xml:space="preserve">
<style type="text/css">
	.st0{opacity:0.5;}
	.st1{clip-path:url(#SVGID_00000157273878866322453700000008393245345223626942_);}
	.st2{fill-rule:evenodd;clip-rule:evenodd;fill:#0B0030;}
	.st3{fill-rule:evenodd;clip-rule:evenodd;fill:#FFFFFF;}
</style>
<g class="st0">
	<g>
		<defs>
			<rect id="SVGID_1_" x="0" y="12.2" width="51" height="24.7"/>
		</defs>
		<clipPath id="SVGID_00000103227649882486280390000007418473576012707753_">
			<use xlink:href="#SVGID_1_"  style="overflow:visible;"/>
		</clipPath>
		<g style="clip-path:url(#SVGID_00000103227649882486280390000007418473576012707753_);">
			<path class="st2" d="M0,36.9h24.7V12.2H0V36.9z"/>
			<path class="st3" d="M7.5,18.7v11.8h1.6v-5.1h6.4v5.1h1.6V18.7h-1.6v5.1H9.2v-5.1H7.5z"/>
			<path class="st2" d="M26.4,36.9h24.7V12.2H26.4V36.9z"/>
			<path class="st3" d="M32.2,34.5v-2.4h0.4V33h1.1v-0.9h0.4v2.4h-0.4v-1.1h-1.1v1.1H32.2z"/>
			<path class="st3" d="M35.9,32c0.2,0,0.4,0.1,0.6,0.2c0.2,0.1,0.3,0.3,0.4,0.4c0.1,0.2,0.1,0.4,0.1,0.6s-0.1,0.4-0.1,0.6
				c-0.1,0.2-0.2,0.3-0.4,0.4c-0.2,0.1-0.4,0.2-0.6,0.2s-0.4-0.1-0.6-0.2c-0.2-0.1-0.3-0.3-0.4-0.4c-0.1-0.2-0.1-0.4-0.1-0.6
				c0-0.2,0.1-0.4,0.1-0.6c0.1-0.2,0.2-0.3,0.4-0.4C35.4,32.1,35.6,32,35.9,32z M35.9,32.4c-0.2,0-0.3,0.1-0.4,0.1
				c-0.1,0.1-0.2,0.2-0.2,0.3c-0.1,0.1-0.1,0.3-0.1,0.4s0,0.3,0.1,0.4c0.1,0.1,0.1,0.2,0.2,0.3c0.1,0.1,0.2,0.1,0.4,0.1
				c0.2,0,0.3-0.1,0.4-0.1c0.1-0.1,0.2-0.2,0.2-0.3s0.1-0.3,0.1-0.4s0-0.3-0.1-0.4c-0.1-0.1-0.1-0.2-0.2-0.3
				C36.2,32.4,36,32.4,35.9,32.4z"/>
			<path class="st3" d="M37.4,32.4v-0.4h1.9v0.4h-0.8v2h-0.4v-2H37.4z"/>
			<path class="st3" d="M40,34.5v-2.4h1.7v0.4h-1.3v0.6h1.2v0.3h-1.2v0.7h1.3v0.4L40,34.5L40,34.5z"/>
			<path class="st3" d="M42.7,34.5v-2.4h0.4v2h1.2v0.4H42.7z"/>
			<path class="st3" d="M44.7,33.7h0.4c0,0.2,0.1,0.3,0.2,0.4c0.1,0.1,0.3,0.1,0.4,0.1c0.2,0,0.3,0,0.4-0.1c0.1-0.1,0.1-0.2,0.1-0.2
				s0-0.2-0.1-0.2c0,0-0.1-0.1-0.1-0.1c-0.1,0-0.2-0.1-0.3-0.1s-0.3-0.1-0.4-0.1c-0.2-0.1-0.3-0.1-0.4-0.3c-0.1-0.1-0.1-0.2-0.1-0.4
				c0-0.2,0.1-0.3,0.1-0.4c0.1-0.1,0.2-0.2,0.3-0.2s0.3-0.1,0.4-0.1c0.2,0,0.3,0,0.5,0.1c0.1,0.1,0.2,0.1,0.3,0.3
				c0.1,0.1,0.1,0.3,0.1,0.4h-0.4c0-0.2-0.1-0.3-0.2-0.3c-0.1-0.1-0.2-0.1-0.4-0.1c-0.1,0-0.1,0-0.2,0c-0.1,0-0.1,0.1-0.2,0.1
				c-0.1,0.1-0.1,0.1-0.1,0.2c0,0.1,0,0.2,0.1,0.2c0.1,0.1,0.1,0.1,0.2,0.1c0,0,0.1,0,0.1,0c0.1,0,0.1,0,0.2,0.1
				c0.1,0,0.2,0,0.2,0.1c0.1,0,0.1,0,0.2,0c0.2,0.1,0.3,0.1,0.3,0.2s0.1,0.2,0.1,0.4c0,0.2-0.1,0.3-0.1,0.4
				c-0.1,0.1-0.2,0.2-0.3,0.2s-0.3,0.1-0.5,0.1c-0.2,0-0.3,0-0.5-0.1c-0.2-0.1-0.3-0.2-0.4-0.3C44.8,34,44.7,33.9,44.7,33.7z"/>
			<path class="st3" d="M33.8,18.7v11.8h-1.6V20.3h-1.7v-1.6H33.8z"/>
			<path class="st3" d="M36.8,24.5c0,2.4,1.9,4.3,4.3,4.3c2.4,0,4.3-1.9,4.3-4.3s-1.9-4.3-4.3-4.3C38.7,20.3,36.8,22.2,36.8,24.5z
				 M35.2,24.5c0-3.2,2.6-5.9,5.9-5.9c3.2,0,5.9,2.6,5.9,5.9s-2.6,5.9-5.9,5.9C37.8,30.4,35.2,27.8,35.2,24.5z"/>
		</g>
	</g>
</g>
</svg>
