<?xml version="1.0" encoding="utf-8"?>
<!-- Generator: Adobe Illustrator 24.1.0, SVG Export Plug-In . SVG Version: 6.00 Build 0)  -->
<svg version="1.1" id="Capa_1" xmlns="http://www.w3.org/2000/svg" xmlns:xlink="http://www.w3.org/1999/xlink" x="0px" y="0px"
	 viewBox="0 0 401 194.1" style="enable-background:new 0 0 401 194.1;" xml:space="preserve">
<style type="text/css">
	.st0{clip-path:url(#SVGID_2_);}
	.st1{fill-rule:evenodd;clip-rule:evenodd;fill:#0B0030;}
	.st2{fill-rule:evenodd;clip-rule:evenodd;fill:#FFFFFF;}
</style>
<g>
	<defs>
		<rect id="SVGID_1_" width="401" height="194.1"/>
	</defs>
	<clipPath id="SVGID_2_">
		<use xlink:href="#SVGID_1_"  style="overflow:visible;"/>
	</clipPath>
	<g class="st0">
		<path class="st1" d="M0,194.7h194.5V0.3H0V194.7z"/>
		<path class="st2" d="M59.3,51.2v92.6h12.7v-39.9h50.3v39.9h12.7V51.2h-12.7v39.9H72.1V51.2H59.3z"/>
		<path class="st1" d="M207.2,194.7h194.5V0.3H207.2V194.7z"/>
		<path class="st2" d="M253.3,175.3v-18.6h3.3v7.4h8.5v-7.4h3.3v18.6H265v-8.4h-8.5v8.4H253.3z"/>
		<path class="st2" d="M281.9,156.3c1.9,0,3.5,0.5,4.8,1.3c1.3,0.9,2.3,2,3,3.5c0.7,1.5,1.1,3.1,1.1,4.9c0,1.8-0.4,3.4-1.1,4.9
			c-0.7,1.5-1.7,2.6-3,3.5c-1.3,0.9-2.9,1.3-4.8,1.3c-1.9,0-3.5-0.5-4.8-1.3c-1.3-0.9-2.3-2-3-3.5c-0.7-1.5-1.1-3.1-1.1-4.9
			c0-1.8,0.4-3.4,1.1-4.9c0.7-1.5,1.7-2.6,3-3.5C278.5,156.8,280.1,156.3,281.9,156.3z M281.9,158.9c-1.3,0-2.4,0.4-3.2,1
			c-0.8,0.7-1.4,1.5-1.8,2.6c-0.4,1.1-0.6,2.2-0.6,3.4c0,1.2,0.2,2.3,0.6,3.4c0.4,1.1,1,1.9,1.8,2.6c0.8,0.7,1.9,1,3.2,1
			c1.3,0,2.4-0.4,3.2-1c0.8-0.7,1.4-1.5,1.8-2.6c0.4-1.1,0.6-2.2,0.6-3.4c0-1.2-0.2-2.3-0.6-3.4c-0.4-1.1-1-1.9-1.8-2.6
			S283.3,159,281.9,158.9z"/>
		<path class="st2" d="M293.8,159.5v-2.8h15v2.8h-5.9v15.8h-3.3v-15.8H293.8z"/>
		<path class="st2" d="M314.9,175.3v-18.6h13.4v2.8h-10.1v4.9h9.4v2.7h-9.4v5.4h10.3v2.8H314.9z"/>
		<path class="st2" d="M335.4,175.3v-18.6h3.3v15.8h9.4v2.8H335.4z"/>
		<path class="st2" d="M351.6,169.1h3.3c0,1.4,0.5,2.4,1.4,3.1c0.9,0.6,2,0.9,3.3,0.9c1.4,0,2.4-0.3,3-0.9c0.6-0.6,0.9-1.2,0.9-1.9
			c0-0.7-0.2-1.2-0.5-1.6c-0.3-0.3-0.7-0.6-1.1-0.7c-0.6-0.2-1.4-0.5-2.3-0.7c-0.9-0.2-2-0.5-3.2-0.8c-1.6-0.4-2.6-1.1-3.2-2
			c-0.6-0.9-0.9-1.8-0.9-2.8c0-1.2,0.4-2.3,1-3.1c0.7-0.8,1.5-1.4,2.5-1.8c1-0.4,2.1-0.6,3.3-0.6c1.3,0,2.5,0.2,3.6,0.7
			c1.1,0.4,1.9,1.1,2.6,2c0.6,0.9,1,2,1,3.3H363c-0.1-1.2-0.5-2-1.2-2.5c-0.7-0.5-1.6-0.8-2.8-0.7c-0.5,0-1,0.1-1.6,0.2
			c-0.5,0.1-1,0.4-1.3,0.7c-0.4,0.4-0.5,0.8-0.5,1.5c0,0.6,0.2,1.2,0.6,1.5c0.4,0.4,0.9,0.7,1.6,0.8c0.1,0,0.4,0.1,0.8,0.2
			c0.5,0.1,1,0.3,1.6,0.4c0.6,0.2,1.2,0.3,1.7,0.5c0.5,0.1,0.9,0.3,1.2,0.3c1.2,0.4,2.1,1,2.7,1.9c0.6,0.9,0.9,1.8,0.9,2.8
			c0,1.4-0.4,2.5-1.1,3.4c-0.7,0.9-1.6,1.5-2.7,1.9c-1.1,0.4-2.3,0.6-3.6,0.6c-1.4,0-2.7-0.2-3.9-0.7c-1.2-0.5-2.1-1.2-2.8-2.2
			C352,171.9,351.7,170.6,351.6,169.1z"/>
		<path class="st2" d="M266,51.2v92.6h-12.7V64h-13.5V51.2H266z"/>
		<path class="st2" d="M289.2,97.4c0,18.6,15.1,33.7,33.7,33.7c18.6,0,33.7-15.1,33.7-33.7c0-18.6-15.1-33.7-33.7-33.7
			C304.3,63.8,289.2,78.8,289.2,97.4z M276.6,97.4c0-25.5,20.7-46.2,46.2-46.2c25.5,0,46.2,20.7,46.2,46.2
			c0,25.5-20.7,46.2-46.2,46.2C297.3,143.7,276.6,123,276.6,97.4z"/>
	</g>
</g>
</svg>
