<svg width="176" height="46" viewBox="0 0 176 46" fill="none" xmlns="http://www.w3.org/2000/svg">
<path fill-rule="evenodd" clip-rule="evenodd" d="M105.243 26.2262C98.6842 26.2262 93.3492 20.8353 93.3492 14.2092C93.3492 7.58318 98.6842 2.19226 105.243 2.19226C111.801 2.19226 117.138 7.58318 117.138 14.2092C117.138 20.8353 111.801 26.2262 105.243 26.2262ZM105.282 0.146973C96.9772 0.146973 90.9402 6.47918 90.9402 14.2092V14.2875C90.9402 22.0176 96.8997 28.2715 105.204 28.2715C113.51 28.2715 119.546 21.94 119.546 14.2092V14.1317C119.546 6.4016 113.587 0.146973 105.282 0.146973Z" fill="#9B9060"/>
<path fill-rule="evenodd" clip-rule="evenodd" d="M76.0732 24.4584V25.8316H60.3406V2.58785H76.0732V3.96098H61.6997V24.4584H76.0732ZM62.4811 14.7971H74.1535V13.4239H62.4811V14.7971ZM63.9612 16.7737H76.6495V11.4514H63.9612V5.93555H78.3803V0.613281H58.0791V27.8061H78.5719V22.4839H63.9612V16.7737Z" fill="#9B9060"/>
<path fill-rule="evenodd" clip-rule="evenodd" d="M3.11829 2.70388H20.4206V4.07701H12.449V25.2961H11.0899V4.07701H3.11829V2.70388ZM0.619629 6.12916H8.80873V27.8061H14.7302V6.12916H22.9193V0.613281H0.619629V6.12916Z" fill="#9B9060"/>
<path fill-rule="evenodd" clip-rule="evenodd" d="M47.2726 3.39045H48.6316V25.2961H47.2726V14.8184H31.7907V25.2961H30.4316V3.39045H31.7907V13.4452H47.2726V3.39045ZM44.9913 11.3738H34.0719V0.613281H28.1504V27.8061H34.0719V16.8897H44.9913V27.8061H50.9122V0.613281H44.9913V11.3738Z" fill="#9B9060"/>
<path fill-rule="evenodd" clip-rule="evenodd" d="M113.356 14.2875C113.356 18.9487 110.049 22.7557 105.283 22.7557C100.514 22.7557 97.1301 18.8718 97.1301 14.2093V14.1317C97.1301 9.47059 100.437 5.66358 105.204 5.66358C109.973 5.66358 113.356 9.54818 113.356 14.2093V14.2875ZM105.243 3.56543C99.4337 3.56543 94.7083 8.33982 94.7083 14.2093C94.7083 20.0787 99.4337 24.8531 105.243 24.8531C111.052 24.8531 115.779 20.0787 115.779 14.2093C115.779 8.33982 111.052 3.56543 105.243 3.56543Z" fill="#9B9060"/>
<path fill-rule="evenodd" clip-rule="evenodd" d="M145.838 23.7801V2.56039H147.197V25.1533H145.092L129.194 4.06534H129.12V25.2961H127.761V2.69221H129.867L145.765 23.7801H145.838ZM143.592 17.3566L130.981 0.613281H125.521V27.8061H131.366V10.5198L144.399 27.8061H149.437V0.613281H143.592V17.3566Z" fill="#9B9060"/>
<path fill-rule="evenodd" clip-rule="evenodd" d="M173.469 25.8316H157.736V2.58785H173.469V3.96098H159.095V24.4584H173.469V25.8316ZM159.877 14.7971H171.549V13.4239H159.877V14.7971ZM161.357 22.4839V16.7737H174.045V11.4514H161.357V5.93555H175.776V0.613281H155.475V27.8061H175.968V22.4839H161.357Z" fill="#9B9060"/>
<path fill-rule="evenodd" clip-rule="evenodd" d="M26.7436 43.0624C26.7436 42.2804 26.1368 41.8238 24.8844 41.8238H22.3674V44.3277H25.0006C26.0852 44.3277 26.7436 43.8972 26.7436 43.0624ZM26.2401 39.2149C26.2401 38.4713 25.672 38.0415 24.652 38.0415H22.3674V40.4672H24.5365C25.5565 40.4672 26.2401 40.0628 26.2401 39.2149ZM27.8275 38.9546C27.8275 40.0758 27.2084 40.6498 26.5371 41.002C27.5958 41.3672 28.3317 41.9803 28.3317 43.2326C28.3317 44.8756 27.0019 45.7496 24.9884 45.7496H20.8052V36.6196H24.8586C26.6791 36.6196 27.8275 37.5197 27.8275 38.9546Z" fill="#9B9060"/>
<path fill-rule="evenodd" clip-rule="evenodd" d="M36.8403 45.7496H35.2399V42.1499L31.6506 36.6196H33.5228L36.0534 40.6628L38.6091 36.6196H40.4289L36.8403 42.1108V45.7496Z" fill="#9B9060"/>
<path fill-rule="evenodd" clip-rule="evenodd" d="M49.61 41.9021V45.7496H48.022V36.6196H49.61V40.415H53.9217V36.6196H55.5098V45.7496H53.9217V41.9021H49.61Z" fill="#9B9060"/>
<path fill-rule="evenodd" clip-rule="evenodd" d="M63.0494 36.5542H64.1598V45.7494H62.5853V38.1841L60.9585 38.6414L60.6228 37.3369L63.0494 36.5542Z" fill="#9B9060"/>
<path fill-rule="evenodd" clip-rule="evenodd" d="M73.676 37.9109C72.2687 37.9109 71.3908 39.3451 71.3908 41.1714C71.3908 42.9976 72.2945 44.458 73.7012 44.458C75.1085 44.458 75.9865 43.0107 75.9865 41.1975C75.9865 39.3849 75.0827 37.9109 73.676 37.9109ZM73.676 45.9059C71.3004 45.9059 69.7517 43.8195 69.7517 41.1975C69.7517 38.5761 71.3262 36.4629 73.7012 36.4629C76.0768 36.4629 77.6262 38.5501 77.6262 41.1714C77.6262 43.7927 76.051 45.9059 73.676 45.9059Z" fill="#9B9060"/>
<path fill-rule="evenodd" clip-rule="evenodd" d="M88.3437 41.9021V45.7496H86.7556V36.6196H88.3437V40.415H92.6553V36.6196H94.2434V45.7496H92.6553V41.9021H88.3437Z" fill="#9B9060"/>
<path fill-rule="evenodd" clip-rule="evenodd" d="M104.494 37.9369C102.7 37.9369 101.447 39.3849 101.447 41.1714C101.447 42.9585 102.726 44.4319 104.52 44.4319C106.314 44.4319 107.567 42.9846 107.567 41.1975C107.567 39.411 106.288 37.9369 104.494 37.9369ZM104.494 45.9059C101.719 45.9059 99.7825 43.7796 99.7825 41.1975C99.7825 38.6146 101.745 36.4629 104.52 36.4629C107.295 36.4629 109.231 38.5885 109.231 41.1714C109.231 43.7535 107.27 45.9059 104.494 45.9059Z" fill="#9B9060"/>
<path fill-rule="evenodd" clip-rule="evenodd" d="M118.101 45.7496H116.501V38.1067H113.635V36.6196H120.967V38.1067H118.101V45.7496Z" fill="#9B9060"/>
<path fill-rule="evenodd" clip-rule="evenodd" d="M132.962 38.0546H127.85V40.428H132.381V41.8629H127.85V44.3147H133.026V45.7496H126.262V36.6196H132.962V38.0546Z" fill="#9B9060"/>
<path fill-rule="evenodd" clip-rule="evenodd" d="M138.527 36.6196H140.115V44.2893H144.865V45.7496H138.527V36.6196Z" fill="#9B9060"/>
<path fill-rule="evenodd" clip-rule="evenodd" d="M153.619 40.4542C155.53 40.9238 156.524 41.6152 156.524 43.1414C156.524 44.8626 155.194 45.8801 153.297 45.8801C151.915 45.8801 150.612 45.3975 149.527 44.4198L150.482 43.2719C151.347 44.0278 152.212 44.4582 153.335 44.4582C154.317 44.4582 154.936 44.0024 154.936 43.2979C154.936 42.6327 154.575 42.2805 152.896 41.8891C150.973 41.4195 149.888 40.8455 149.888 39.1497C149.888 37.5589 151.179 36.4893 152.973 36.4893C154.291 36.4893 155.336 36.8936 156.253 37.6372L155.401 38.8504C154.587 38.2373 153.774 37.9111 152.948 37.9111C152.018 37.9111 151.476 38.3938 151.476 39.0062C151.476 39.7237 151.889 40.0368 153.619 40.4542Z" fill="#9B9060"/>
</svg>
