<?xml version="1.0" encoding="utf-8"?>
<!-- Generator: Adobe Illustrator 26.3.1, SVG Export Plug-In . SVG Version: 6.00 Build 0)  -->
<svg version="1.1" id="Capa_1" xmlns="http://www.w3.org/2000/svg" xmlns:xlink="http://www.w3.org/1999/xlink" x="0px" y="0px"
	 viewBox="0 0 51 49" style="enable-background:new 0 0 51 49;" xml:space="preserve">
<path d="M25.5,9.5c-6.8,0-13.1,1.8-17.4,4.7H0c1.3,1.5,2.3,3.6,2.5,5.1C1,21.4,0.1,24,0.1,26.8c0,7,5.7,12.7,12.7,12.7
	c4,0,7.5-1.9,9.9-4.7c0.9,1.1,2.5,3.3,2.8,4c0,0,1.8-2.7,2.8-3.9c2.3,2.9,5.9,4.7,9.9,4.7c7,0,12.7-5.7,12.7-12.7
	c0-2.8-0.9-5.4-2.4-7.5c0.2-1.4,1.2-3.5,2.5-5.1h-8.5C38.2,11.3,32.2,9.5,25.5,9.5z M25.5,11.7c4.5,0,8.7,0.9,12.3,2.4
	c-6.8,0.2-12.3,5.8-12.3,12.7c0-7-5.6-12.7-12.7-12.7C16.4,12.5,20.9,11.7,25.5,11.7z M12.8,16.5c5.6,0,10.2,4.6,10.2,10.3
	C23,32.4,18.4,37,12.8,37C7.1,37,2.6,32.4,2.6,26.8S7.1,16.5,12.8,16.5z M38.2,16.5c5.6,0,10.2,4.6,10.2,10.3
	c0,5.6-4.6,10.2-10.2,10.2C32.5,37,28,32.4,28,26.8S32.5,16.5,38.2,16.5z M12.6,20.6c-3.4,0-6.2,2.8-6.2,6.2S9.2,33,12.6,33
	s6.2-2.8,6.2-6.2S16,20.6,12.6,20.6z M38.2,20.6c-3.4,0-6.2,2.8-6.2,6.2s2.8,6.1,6.2,6.1s6.2-2.7,6.2-6.1S41.6,20.6,38.2,20.6z
	 M12.6,22.5c2.4,0,4.3,1.9,4.3,4.3S15,31,12.6,31s-4.3-1.9-4.3-4.3S10.3,22.5,12.6,22.5z M38.2,22.5c2.4,0,4.3,1.9,4.3,4.3
	s-2,4.2-4.3,4.2s-4.3-1.9-4.3-4.2S35.8,22.5,38.2,22.5z M12.3,24.6c-1.1,0-2.1,0.9-2.1,2.1s0.9,2.1,2.1,2.1s2-0.9,2-2.1
	S13.5,24.6,12.3,24.6z M37.8,24.6c-1.1,0-2,0.9-2,2.1s0.9,2,2,2s2.1-0.9,2.1-2S39,24.6,37.8,24.6z"/>
</svg>
