<?xml version="1.0" encoding="utf-8"?>
<!-- Generator: Adobe Illustrator 21.0.0, SVG Export Plug-In . SVG Version: 6.00 Build 0)  -->
<svg version="1.1" id="Layer_1" xmlns="http://www.w3.org/2000/svg" xmlns:xlink="http://www.w3.org/1999/xlink" x="0px" y="0px"
	 viewBox="0 0 523 500" style="enable-background:new 0 0 523 500;" xml:space="preserve">
<style type="text/css">
	.st0{clip-path:url(#SVGID_2_);}
	.st1{clip-path:url(#SVGID_4_);fill:#FFFFFF;}
	.st2{clip-path:url(#SVGID_6_);}
	.st3{clip-path:url(#SVGID_8_);fill:#FFFFFF;}
</style>
<g>
	<g>
		<defs>
			<rect id="SVGID_1_" x="222.8" width="77.4" height="226.4"/>
		</defs>
		<clipPath id="SVGID_2_">
			<use xlink:href="#SVGID_1_"  style="overflow:visible;"/>
		</clipPath>
		<g class="st0">
			<defs>
				<rect id="SVGID_3_" x="-48843" y="-509.5" width="50950.8" height="38194.4"/>
			</defs>
			<clipPath id="SVGID_4_">
				<use xlink:href="#SVGID_3_"  style="overflow:visible;"/>
			</clipPath>
			<rect x="36.3" y="-186.5" class="st1" width="450.4" height="599.4"/>
		</g>
	</g>
	<g>
		<defs>
			<path id="SVGID_5_" d="M261.5,500C117.5,500,0.4,385.7,0.4,245.3C0.4,139.5,68.8,43.6,170.7,6.7l26.9,70.8
				c-71.7,26-119.8,93.4-119.8,167.8c0,98.8,82.4,179.2,183.7,179.2s183.7-80.4,183.7-179.2c0-74.4-48.2-141.8-119.8-167.8
				l26.9-70.8c101.8,36.9,170.3,132.8,170.3,238.6C522.6,385.7,405.5,500,261.5,500"/>
		</defs>
		<clipPath id="SVGID_6_">
			<use xlink:href="#SVGID_5_"  style="overflow:visible;"/>
		</clipPath>
		<g class="st2">
			<defs>
				<rect id="SVGID_7_" x="-48843" y="-509.5" width="50950.8" height="38194.4"/>
			</defs>
			<clipPath id="SVGID_8_">
				<use xlink:href="#SVGID_7_"  style="overflow:visible;"/>
			</clipPath>
			<rect x="-186.1" y="-179.8" class="st3" width="895.2" height="866.3"/>
		</g>
	</g>
</g>
</svg>
