<?xml version="1.0" encoding="utf-8"?>
<!-- Generator: Adobe Illustrator 24.1.0, SVG Export Plug-In . SVG Version: 6.00 Build 0)  -->
<svg version="1.1" id="Capa_1" xmlns="http://www.w3.org/2000/svg" xmlns:xlink="http://www.w3.org/1999/xlink" x="0px" y="0px"
	 viewBox="0 0 48 48" style="enable-background:new 0 0 48 48;" xml:space="preserve">
<style type="text/css">
	.st0{fill:#000028;}
</style>
<path class="st0" d="M37.5,15.9l-1.9-4.3l-4.5-2l4.5-1.9l1.9-4.1l1.8,4.1l4.5,1.9l-4.5,2L37.5,15.9z M37.5,44.4l-1.9-4.2l-4.5-2
	l4.5-2l1.9-4.3l1.8,4.3l4.5,2l-4.5,2L37.5,44.4z M16.8,36.3l-3.9-8.5L4.2,24l8.6-3.9l3.9-8.5l4,8.5l8.6,3.9l-8.6,3.9L16.8,36.3z
	 M16.8,30.8l2.2-4.6l4.8-2.1L19,21.9l-2.2-4.6l-2.2,4.6L9.8,24l4.8,2.1L16.8,30.8z"/>
</svg>
