<?xml version="1.0" encoding="utf-8"?>
<!-- Generator: Adobe Illustrator 26.3.1, SVG Export Plug-In . SVG Version: 6.00 Build 0)  -->
<svg version="1.1" id="Capa_1" xmlns="http://www.w3.org/2000/svg" xmlns:xlink="http://www.w3.org/1999/xlink" x="0px" y="0px"
	 viewBox="0 0 20 20" style="enable-background:new 0 0 20 20;" xml:space="preserve">
<style type="text/css">
	.st0{fill:#000028;}
</style>
<path class="st0" d="M4.3,14.6h1v-1.5h9.5v1.5h1v-3.8c0-0.4-0.2-0.8-0.5-1.2c-0.3-0.3-0.7-0.5-1.1-0.6V7.5c0-0.4-0.2-0.8-0.5-1.2
	S13,5.9,12.6,5.9H7.4C7,5.9,6.6,6,6.3,6.3S5.8,7.1,5.8,7.5v1.6C5.4,9.1,5,9.3,4.7,9.6c-0.3,0.3-0.4,0.7-0.4,1.2V14.6z M6.8,9.1V7.2
	c0-0.1,0-0.2,0.1-0.2C7,6.9,7.1,6.9,7.2,6.9h5.6c0.1,0,0.2,0,0.2,0.1c0.1,0.1,0.1,0.1,0.1,0.2v1.9H6.8z M5.3,12.1v-1.2
	c0-0.2,0.1-0.4,0.2-0.6s0.3-0.2,0.6-0.2h7.9c0.2,0,0.4,0.1,0.6,0.2s0.2,0.3,0.2,0.6v1.2H5.3z M2,19.5c-0.4,0-0.7-0.1-1-0.4
	c-0.3-0.3-0.4-0.6-0.4-1V2c0-0.4,0.1-0.7,0.4-1c0.3-0.3,0.6-0.4,1-0.4H18c0.4,0,0.7,0.1,1,0.4c0.3,0.3,0.4,0.6,0.4,1V18
	c0,0.4-0.1,0.7-0.4,1c-0.3,0.3-0.6,0.4-1,0.4H2z M2,18.4H18c0.1,0,0.2,0,0.2-0.1s0.1-0.1,0.1-0.2V2c0-0.1,0-0.2-0.1-0.2
	c-0.1-0.1-0.1-0.1-0.2-0.1H2c-0.1,0-0.2,0-0.2,0.1C1.7,1.8,1.6,1.9,1.6,2V18c0,0.1,0,0.2,0.1,0.2C1.8,18.3,1.9,18.4,2,18.4z
	 M1.6,18.4C1.6,18.4,1.6,18.3,1.6,18.4c0-0.1,0-0.2,0-0.3V2c0-0.1,0-0.2,0-0.2c0-0.1,0-0.1,0-0.1s0,0,0,0.1c0,0.1,0,0.1,0,0.2V18
	C1.6,18.1,1.6,18.2,1.6,18.4C1.6,18.3,1.6,18.4,1.6,18.4z"/>
</svg>
