<?xml version="1.0" encoding="utf-8"?>
<!-- Generator: Adobe Illustrator 27.0.0, SVG Export Plug-In . SVG Version: 6.00 Build 0)  -->
<svg version="1.1" id="Capa_1" xmlns="http://www.w3.org/2000/svg" xmlns:xlink="http://www.w3.org/1999/xlink" x="0px" y="0px"
	 viewBox="0 0 48 48" style="enable-background:new 0 0 48 48;" xml:space="preserve">
<style type="text/css">
	.st0{fill:#D9D9D9;filter:url(#Adobe_OpacityMaskFilter);}
	.st1{mask:url(#mask0_4477_54697_00000148636740727728940530000017870601228822405299_);}
	.st2{fill:#1C1B1F;}
</style>
<defs>
	<filter id="Adobe_OpacityMaskFilter" filterUnits="userSpaceOnUse" x="5" y="12" width="38" height="25">
		<feColorMatrix  type="matrix" values="1 0 0 0 0  0 1 0 0 0  0 0 1 0 0  0 0 0 1 0"/>
	</filter>
</defs>
<mask maskUnits="userSpaceOnUse" x="5" y="12" width="38" height="25" id="mask0_4477_54697_00000148636740727728940530000017870601228822405299_">
	<rect class="st0" width="48" height="48"/>
</mask>
<g class="st1">
	<path class="st2" d="M5,37V25.5c0-0.7,0.2-1.4,0.5-2.1c0.3-0.7,0.8-1.2,1.5-1.6v-5.2c0-1.3,0.4-2.3,1.3-3.2s1.9-1.3,3.2-1.3h9.2
		c0.7,0,1.3,0.2,1.9,0.5s1,0.7,1.4,1.3c0.4-0.5,0.8-1,1.4-1.3s1.2-0.5,1.9-0.5h9.2c1.3,0,2.3,0.4,3.2,1.3s1.3,1.9,1.3,3.2v5.2
		c0.7,0.4,1.2,0.9,1.5,1.6c0.3,0.7,0.5,1.4,0.5,2.1V37h-2.2v-4H7.2v4H5z M25.1,21.1h13.6v-4.6c0-0.6-0.2-1.2-0.7-1.6s-1-0.6-1.6-0.6
		h-9.4c-0.6,0-1,0.2-1.4,0.7c-0.4,0.4-0.6,1-0.6,1.6V21.1z M9.2,21.1h13.6v-4.6c0-0.6-0.2-1.1-0.6-1.6c-0.4-0.4-0.9-0.7-1.4-0.7
		h-9.4c-0.6,0-1.1,0.2-1.6,0.7s-0.7,1-0.7,1.6V21.1z M7.2,30.8h33.5v-5.3c0-0.6-0.2-1-0.6-1.4c-0.4-0.4-0.9-0.6-1.4-0.6H9.2
		c-0.6,0-1,0.2-1.4,0.6c-0.4,0.4-0.6,0.9-0.6,1.4V30.8z M40.8,30.8H7.2c0,0,0.2,0,0.5,0s0.8,0,1.5,0h29.5c0.6,0,1.1,0,1.5,0
		S40.8,30.8,40.8,30.8z"/>
</g>
</svg>
