<?xml version="1.0" encoding="utf-8"?>
<!-- Generator: Adobe Illustrator 26.3.1, SVG Export Plug-In . SVG Version: 6.00 Build 0)  -->
<svg version="1.1" id="Capa_1" xmlns="http://www.w3.org/2000/svg" xmlns:xlink="http://www.w3.org/1999/xlink" x="0px" y="0px"
	 viewBox="0 0 48 48" style="enable-background:new 0 0 48 48;" xml:space="preserve">
<style type="text/css">
	.st0{fill:#000028;}
</style>
<path class="st0" d="M12.6,33.3h2v-3.1h18.9v3.1h2v-7.6c0-0.9-0.3-1.7-0.9-2.4c-0.6-0.7-1.3-1-2.2-1.1V19c0-0.9-0.3-1.7-0.9-2.3
	c-0.6-0.6-1.4-1-2.3-1H18.9c-0.9,0-1.7,0.3-2.3,1c-0.6,0.6-0.9,1.4-0.9,2.3v3.1c-0.9,0.1-1.6,0.5-2.2,1.1c-0.6,0.7-0.9,1.5-0.9,2.4
	V33.3z M17.7,22.1v-3.7c0-0.2,0.1-0.3,0.2-0.4c0.1-0.1,0.3-0.2,0.5-0.2h11.3c0.2,0,0.4,0.1,0.5,0.2c0.1,0.1,0.2,0.3,0.2,0.4v3.7
	H17.7z M14.6,28.1v-2.5c0-0.5,0.1-0.8,0.4-1.1s0.7-0.4,1.1-0.4h15.7c0.5,0,0.9,0.1,1.1,0.4s0.5,0.7,0.5,1.1v2.5H14.6z M7.9,43
	c-0.8,0-1.5-0.3-2.1-0.8S5,40.9,5,40.1V7.9c0-0.8,0.3-1.5,0.8-2.1S7.1,5,7.9,5h32.2c0.8,0,1.5,0.3,2.1,0.8S43,7.1,43,7.9v32.2
	c0,0.8-0.3,1.5-0.8,2.1S40.9,43,40.1,43H7.9z M7.9,40.8h32.2c0.2,0,0.4-0.1,0.5-0.2s0.2-0.3,0.2-0.5V7.9c0-0.2-0.1-0.4-0.2-0.5
	c-0.1-0.1-0.3-0.2-0.5-0.2H7.9c-0.2,0-0.4,0.1-0.5,0.2C7.3,7.5,7.2,7.7,7.2,7.9v32.2c0,0.2,0.1,0.4,0.2,0.5
	C7.5,40.7,7.7,40.8,7.9,40.8z M7.2,40.8c0,0,0-0.1,0-0.2s0-0.3,0-0.5V7.9c0-0.2,0-0.4,0-0.5c0-0.1,0-0.2,0-0.2s0,0.1,0,0.2
	c0,0.1,0,0.3,0,0.5v32.2c0,0.2,0,0.4,0,0.5S7.2,40.8,7.2,40.8z"/>
</svg>
