<?xml version="1.0" encoding="utf-8"?>
<!-- Generator: Adobe Illustrator 24.1.0, SVG Export Plug-In . SVG Version: 6.00 Build 0)  -->
<svg version="1.1" id="Capa_1" xmlns="http://www.w3.org/2000/svg" xmlns:xlink="http://www.w3.org/1999/xlink" x="0px" y="0px"
	 viewBox="0 0 80 80" style="enable-background:new 0 0 80 80;" xml:space="preserve">
<style type="text/css">
	.st0{fill:none;}
	.st1{fill:#629C47;}
	.st2{fill:#B52E34;}
	.st3{fill:#D5A74F;}
	.st4{fill:#D33A42;}
	.st5{fill:#EB4C34;}
	.st6{fill:#5ABBDE;}
	.st7{fill:#000028;}
</style>
<rect y="0" class="st0" width="80" height="80"/>
<path class="st1" d="M61.7,28.1l8.1-4c-1.7-3.1-3.8-5.9-6.3-8.3l-6.1,6.7C59.1,24.1,60.5,26,61.7,28.1z"/>
<path class="st2" d="M70.6,25.9l-8.1,4c1,2.1,1.6,4.4,1.9,6.9l9-0.8C73,32.3,72.1,29,70.6,25.9z"/>
<path class="st3" d="M49.8,17.3c2.2,1,4.2,2.2,6.1,3.7l6.1-6.7c-2.6-2.3-5.6-4.1-8.9-5.5L49.8,17.3z"/>
<path class="st4" d="M40.9,15.3c2.5,0.1,4.8,0.5,7.1,1.3l3.2-8.4C48,7,44.5,6.4,40.9,6.3L40.9,15.3L40.9,15.3z"/>
<path class="st5" d="M64.7,40c0,2-0.2,3.9-0.7,5.8l8.7,2.5c0.7-2.6,1-5.4,1-8.3c0-0.7,0-1.4-0.1-2.1l-9,0.8
	C64.7,39.1,64.7,39.6,64.7,40z"/>
<path class="st6" d="M63.5,47.7c-0.8,2.3-1.8,4.4-3.2,6.4l7.2,5.4c2-2.8,3.6-6,4.7-9.3L63.5,47.7z"/>
<path class="st7" d="M42.2,47.2c2.9,0,5.2-2,5.2-4.8v0c0-2.8-2.2-4.4-4.9-4.4c-1.5,0-2.5,0.6-3.4,1.4c0-1.9,0.9-4.5,3.4-4.5
	c1.2,0,2.1,0.5,3,1.2l1.3-1.9c-1.2-1-2.5-1.6-4.3-1.6c-4,0-6,3.3-6,7.6v0c0,2.8,0.6,4.3,1.7,5.3C39.2,46.7,40.5,47.2,42.2,47.2z
	 M42.1,45.1c-1.7,0-2.9-1.1-2.9-2.5v0c0-1.3,1.1-2.5,2.8-2.5c1.7,0,2.9,1,2.9,2.4v0C44.9,44,43.9,45.1,42.1,45.1z"/>
</svg>
