<?xml version="1.0" encoding="utf-8"?>
<!-- Generator: Adobe Illustrator 24.1.0, SVG Export Plug-In . SVG Version: 6.00 Build 0)  -->
<svg version="1.1" id="Capa_1" xmlns="http://www.w3.org/2000/svg" xmlns:xlink="http://www.w3.org/1999/xlink" x="0px" y="0px"
	 viewBox="0 0 80 80" style="enable-background:new 0 0 80 80;" xml:space="preserve">
<style type="text/css">
	.st0{fill:none;}
	.st1{fill:#629C47;}
	.st2{fill:#B52E34;}
	.st3{fill:#D5A74F;}
	.st4{fill:#73BD46;}
	.st5{fill:#F0A144;}
	.st6{fill:#4F7C4A;}
	.st7{fill:#D33A42;}
	.st8{fill:#EB4C34;}
	.st9{fill:#F4C445;}
	.st10{fill:#5ABBDE;}
	.st11{fill:#952943;}
	.st12{fill:#EC723B;}
	.st13{fill:#CB3267;}
	.st14{fill:#2A6799;}
	.st15{fill:#B88C41;}
	.st16{fill:#4296D3;}
	.st17{fill:#000028;}
</style>
<rect y="0" class="st0" width="80" height="80"/>
<path class="st1" d="M61.7,28.1l8.1-4c-1.7-3.1-3.8-5.9-6.3-8.3l-6.1,6.7C59.1,24.1,60.5,26,61.7,28.1z"/>
<path class="st2" d="M70.6,25.9l-8.1,4c1,2.1,1.6,4.4,1.9,6.9l9-0.8C73,32.3,72.1,29,70.6,25.9z"/>
<path class="st3" d="M49.8,17.3c2.2,1,4.2,2.2,6.1,3.7l6.1-6.7c-2.6-2.3-5.6-4.1-8.9-5.5L49.8,17.3z"/>
<path class="st4" d="M18.3,28.1c1.2-2.1,2.6-4,4.3-5.7l-6.1-6.7c-2.5,2.4-4.6,5.2-6.3,8.3L18.3,28.1z"/>
<path class="st5" d="M20.9,55.7l-7.2,5.4c2.2,2.7,4.8,5.1,7.7,7l4.7-7.7C24.2,59.1,22.4,57.5,20.9,55.7z"/>
<path class="st6" d="M15.3,40c0-0.4,0-0.9,0-1.3l-9-0.8c0,0.7-0.1,1.4-0.1,2.1c0,2.9,0.4,5.6,1,8.3l8.7-2.5
	C15.5,43.9,15.3,42,15.3,40z"/>
<path class="st7" d="M40.9,15.3c2.5,0.1,4.8,0.5,7.1,1.3l3.2-8.4C48,7,44.5,6.4,40.9,6.3L40.9,15.3L40.9,15.3z"/>
<path class="st8" d="M64.7,40c0,2-0.2,3.9-0.7,5.8l8.7,2.5c0.7-2.6,1-5.4,1-8.3c0-0.7,0-1.4-0.1-2.1l-9,0.8
	C64.7,39.1,64.7,39.6,64.7,40z"/>
<path class="st9" d="M59.1,55.7c-1.5,1.8-3.3,3.5-5.3,4.8l4.7,7.7c2.9-1.9,5.5-4.3,7.7-7L59.1,55.7z"/>
<path class="st10" d="M63.5,47.7c-0.8,2.3-1.8,4.4-3.2,6.4l7.2,5.4c2-2.8,3.6-6,4.7-9.3L63.5,47.7z"/>
<path class="st11" d="M56.9,69.2l-4.7-7.7c-2,1.2-4.3,2-6.6,2.6l1.7,8.9C50.6,72.2,53.9,70.9,56.9,69.2z"/>
<path class="st12" d="M43.5,64.5c-1.2,0.2-2.3,0.3-3.5,0.3c-1.2,0-2.4-0.1-3.6-0.3l-1.7,8.9c1.7,0.3,3.5,0.4,5.2,0.4
	c1.8,0,3.5-0.1,5.2-0.4L43.5,64.5z"/>
<path class="st13" d="M34.5,64.1c-2.4-0.5-4.6-1.4-6.6-2.6l-4.7,7.7c3,1.7,6.2,3,9.7,3.8L34.5,64.1z"/>
<path class="st14" d="M24.1,21.1c1.8-1.5,3.8-2.8,6-3.8l-3.3-8.4c-3.2,1.4-6.2,3.2-8.9,5.5L24.1,21.1z"/>
<path class="st15" d="M19.7,54.1c-1.3-1.9-2.4-4.1-3.2-6.4l-8.7,2.5c1.1,3.4,2.6,6.5,4.6,9.3L19.7,54.1z"/>
<path class="st16" d="M15.5,36.7c0.3-2.4,1-4.7,1.9-6.8l-8.1-4C7.9,29,7,32.4,6.5,35.9L15.5,36.7z"/>
<path class="st17" d="M34,47h2.4V32.9h-1.7L31,34.1l0.5,2l2.5-0.7V47z"/>
<path class="st17" d="M45.1,47.2c2.9,0,5.2-2,5.2-4.8v0c0-2.8-2.2-4.4-4.9-4.4c-1.5,0-2.5,0.6-3.4,1.4c0-1.9,0.9-4.5,3.4-4.5
	c1.2,0,2.1,0.5,3,1.2l1.3-1.9c-1.2-1-2.5-1.6-4.3-1.6c-4,0-6,3.3-6,7.6v0c0,2.8,0.6,4.3,1.7,5.3C42.2,46.7,43.4,47.2,45.1,47.2z
	 M45.1,45.1c-1.7,0-2.9-1.1-2.9-2.5v0c0-1.3,1.1-2.5,2.8-2.5s2.9,1,2.9,2.4v0C47.9,44,46.8,45.1,45.1,45.1z"/>
</svg>
