<?xml version="1.0" encoding="utf-8"?>
<!-- Generator: Adobe Illustrator 24.1.0, SVG Export Plug-In . SVG Version: 6.00 Build 0)  -->
<svg version="1.1" id="Capa_1" xmlns="http://www.w3.org/2000/svg" xmlns:xlink="http://www.w3.org/1999/xlink" x="0px" y="0px"
	 viewBox="0 0 80 80" style="enable-background:new 0 0 80 80;" xml:space="preserve">
<style type="text/css">
	.st0{fill:none;}
	.st1{fill:#629C47;}
	.st2{fill:#D5A74F;}
	.st3{fill:#D33A42;}
	.st4{fill:#000028;}
</style>
<rect y="0" class="st0" width="80" height="80"/>
<path class="st1" d="M61.7,28.1l8.1-4c-1.7-3.1-3.8-5.9-6.3-8.3l-6.1,6.7C59.1,24.1,60.5,26,61.7,28.1z"/>
<path class="st2" d="M49.8,17.3c2.2,1,4.2,2.2,6.1,3.7l6.1-6.7c-2.6-2.3-5.6-4.1-8.9-5.5L49.8,17.3z"/>
<path class="st3" d="M40.9,15.3c2.5,0.1,4.8,0.5,7.1,1.3l3.2-8.4C48,7,44.5,6.4,40.9,6.3L40.9,15.3L40.9,15.3z"/>
<path class="st4" d="M41.5,47.2c2.9,0,4.9-1.9,4.9-4.4v0c0-2.6-2-3.7-4.1-3.9l3.9-4V33H37v2.1H43l-3.8,4l0.4,1.5h1.1
	c2,0,3.2,0.8,3.2,2.2v0c0,1.3-1,2.1-2.4,2.1c-1.6,0-2.7-0.7-3.7-1.8l-1.7,1.6C37.4,46.2,39.1,47.2,41.5,47.2z"/>
</svg>
