<?xml version="1.0" encoding="utf-8"?>
<!-- Generator: Adobe Illustrator 24.1.0, SVG Export Plug-In . SVG Version: 6.00 Build 0)  -->
<svg version="1.1" id="Capa_1" xmlns="http://www.w3.org/2000/svg" xmlns:xlink="http://www.w3.org/1999/xlink" x="0px" y="0px"
	 viewBox="0 0 80 80" style="enable-background:new 0 0 80 80;" xml:space="preserve">
<style type="text/css">
	.st0{fill:none;}
	.st1{fill:#D5A74F;}
	.st2{fill:#D33A42;}
	.st3{fill:#000028;}
</style>
<rect y="0" class="st0" width="80" height="80"/>
<path class="st1" d="M49.8,17.3c2.2,1,4.2,2.2,6.1,3.7l6.1-6.7c-2.6-2.3-5.6-4.1-8.9-5.5L49.8,17.3z"/>
<path class="st2" d="M40.9,15.3c2.5,0.1,4.8,0.5,7.1,1.3l3.2-8.4C48,7,44.5,6.4,40.9,6.3L40.9,15.3L40.9,15.3z"/>
<path class="st3" d="M36.3,47h10.1v-2.2h-6.7l2.9-2.4c2.5-2,3.6-3.2,3.6-5.4v0c0-2.5-1.9-4.2-4.6-4.2c-2.5,0-3.8,1.1-5.2,2.9
	l1.8,1.4c1.1-1.4,1.9-2.1,3.2-2.1c1.3,0,2.3,0.8,2.3,2.2c0,1.3-0.7,2.1-2.6,3.8l-4.8,4.1V47z"/>
</svg>
