<?xml version="1.0" encoding="utf-8"?>
<!-- Generator: Adobe Illustrator 24.1.0, SVG Export Plug-In . SVG Version: 6.00 Build 0)  -->
<svg version="1.1" id="Capa_1" xmlns="http://www.w3.org/2000/svg" xmlns:xlink="http://www.w3.org/1999/xlink" x="0px" y="0px"
	 viewBox="0 0 22 22" style="enable-background:new 0 0 22 22;" xml:space="preserve">
<style type="text/css">
	.st0{fill:#000028;}
</style>
<path class="st0" d="M6.2,13.1h1c0.6,0,1-0.5,1-1V11c0-0.6-0.5-1-1-1h-1c-0.6,0-1,0.5-1,1v1C5.2,12.6,5.6,13.1,6.2,13.1z M6.2,11h1
	v1h-1V11z M14.7,17.4h1c0.6,0,1-0.5,1-1v-1c0-0.6-0.5-1-1-1h-1c-0.6,0-1,0.5-1,1v1C13.6,16.9,14.1,17.4,14.7,17.4z M14.7,15.2h1v1
	h-1V15.2z M14.7,13.1h1c0.6,0,1-0.5,1-1V11c0-0.6-0.5-1-1-1h-1c-0.6,0-1,0.5-1,1v1C13.6,12.6,14.1,13.1,14.7,13.1z M14.7,11h1v1h-1
	V11z M16.8,3.5h-2.1V3c0-0.3-0.2-0.5-0.5-0.5S13.6,2.7,13.6,3v0.5H8.3V3c0-0.3-0.2-0.5-0.5-0.5C7.5,2.5,7.3,2.7,7.3,3v0.5H5.2
	C4,3.5,3,4.5,3,5.7v11.7c0,1.2,1,2.1,2.1,2.1h11.7c1.2,0,2.1-1,2.1-2.1V5.7C18.9,4.5,18,3.5,16.8,3.5z M17.9,17.4c0,0.6-0.5,1-1,1
	H5.2c-0.6,0-1-0.5-1-1V7.8h13.8L17.9,17.4L17.9,17.4z M17.9,6.7H4.1v-1c0-0.6,0.5-1,1-1h2.1v0.5c0,0.3,0.2,0.5,0.5,0.5
	c0.3,0,0.5-0.2,0.5-0.5V4.6h5.3v0.5c0,0.3,0.2,0.5,0.5,0.5s0.5-0.2,0.5-0.5V4.6h2.1c0.6,0,1,0.5,1,1L17.9,6.7
	C17.8,6.7,17.9,6.7,17.9,6.7z M10.5,17.4h1c0.6,0,1-0.5,1-1v-1c0-0.6-0.5-1-1-1h-1c-0.6,0-1,0.5-1,1v1C9.4,16.9,9.8,17.4,10.5,17.4z
	 M10.5,15.2h1v1h-1V15.2z M10.5,13.1h1c0.6,0,1-0.5,1-1V11c0-0.6-0.5-1-1-1h-1c-0.6,0-1,0.5-1,1v1C9.4,12.6,9.8,13.1,10.5,13.1z
	 M10.5,11h1v1h-1V11z M6.2,17.4h1c0.6,0,1-0.5,1-1v-1c0-0.6-0.5-1-1-1h-1c-0.6,0-1,0.5-1,1v1C5.2,16.9,5.6,17.4,6.2,17.4z M6.2,15.2
	h1v1h-1V15.2z"/>
</svg>
