<?xml version="1.0" encoding="utf-8"?>
<!-- Generator: Adobe Illustrator 26.3.1, SVG Export Plug-In . SVG Version: 6.00 Build 0)  -->
<svg version="1.1" id="Capa_1" xmlns="http://www.w3.org/2000/svg" xmlns:xlink="http://www.w3.org/1999/xlink" x="0px" y="0px"
	 viewBox="0 0 32 32" style="enable-background:new 0 0 32 32;" xml:space="preserve">
<style type="text/css">
	.st0{fill:#FFFFFF;}
</style>
<path class="st0" d="M25.3,26.7c-2.3,0-4.7-0.6-7.1-1.8c-2.4-1.2-4.5-2.8-6.4-4.7c-1.9-1.9-3.5-4-4.7-6.4S5.3,9.1,5.3,6.7
	c0-0.4,0.1-0.7,0.4-1s0.6-0.4,1-0.4h3.6c0.3,0,0.6,0.1,0.8,0.3c0.2,0.2,0.4,0.5,0.5,0.8l0.8,3.4c0,0.3,0,0.6,0,0.8
	c-0.1,0.3-0.2,0.5-0.4,0.6l-3,2.9c1.2,2,2.5,3.7,4,5.2s3.2,2.7,5.1,3.8l2.8-3c0.2-0.2,0.4-0.4,0.7-0.5c0.3-0.1,0.5-0.1,0.8,0
	l3.1,0.7c0.3,0.1,0.6,0.2,0.8,0.5c0.2,0.3,0.3,0.6,0.3,0.9v3.5c0,0.4-0.1,0.7-0.4,1S25.7,26.7,25.3,26.7z M8.3,12.9l2.6-2.5l0.1-0.1
	c0-0.1,0-0.1,0-0.1L10.3,7c0-0.1-0.1-0.1-0.1-0.2c0,0-0.1,0-0.2,0H6.9c-0.1,0-0.1,0-0.1,0v0.1c0,0.8,0.1,1.7,0.4,2.7
	C7.4,10.7,7.8,11.8,8.3,12.9z M25.1,25.3c0.1,0,0.1,0,0.1,0v-0.1V22c0-0.1,0-0.1,0-0.2l-0.1-0.1l-2.9-0.6h-0.1c0,0-0.1,0-0.1,0.1
	l-2.5,2.6c0.9,0.4,1.8,0.7,2.8,1C23.3,25.1,24.2,25.2,25.1,25.3z"/>
</svg>
