<?xml version="1.0" encoding="utf-8"?>
<!-- Generator: Adobe Illustrator 24.1.0, SVG Export Plug-In . SVG Version: 6.00 Build 0)  -->
<svg version="1.1" id="Capa_1" xmlns="http://www.w3.org/2000/svg" xmlns:xlink="http://www.w3.org/1999/xlink" x="0px" y="0px"
	 viewBox="0 0 21.3 21.4" style="enable-background:new 0 0 21.3 21.4;" xml:space="preserve">
<style type="text/css">
	.st0{fill:#767676;}
</style>
<path class="st0" d="M20,21.4c-2.3,0-4.7-0.6-7.1-1.8c-2.4-1.2-4.5-2.8-6.4-4.7C4.6,13,3,10.9,1.8,8.5S0,3.8,0,1.4
	c0-0.4,0.1-0.7,0.4-1S1,0,1.4,0H5c0.3,0,0.6,0.1,0.8,0.3C6,0.5,6.2,0.8,6.3,1.1l0.8,3.4c0,0.3,0,0.6,0,0.8C7,5.6,6.9,5.8,6.7,5.9
	l-3,2.9c1.2,2,2.5,3.7,4,5.2s3.2,2.7,5.1,3.8l2.8-3c0.2-0.2,0.4-0.4,0.7-0.5c0.3-0.1,0.5-0.1,0.8,0l3.1,0.7c0.3,0.1,0.6,0.2,0.8,0.5
	c0.2,0.3,0.3,0.6,0.3,0.9v3.5c0,0.4-0.1,0.7-0.4,1S20.4,21.4,20,21.4z M3,7.6l2.6-2.5L5.7,5c0-0.1,0-0.1,0-0.1L5,1.7
	c0-0.1-0.1-0.1-0.1-0.2c0,0-0.1,0-0.2,0H1.6c-0.1,0-0.1,0-0.1,0v0.1c0,0.8,0.1,1.7,0.4,2.7C2.1,5.4,2.5,6.5,3,7.6z M19.8,20
	c0.1,0,0.1,0,0.1,0v-0.1v-3.2c0-0.1,0-0.1,0-0.2l-0.1-0.1l-2.9-0.6h-0.1c0,0-0.1,0-0.1,0.1l-2.5,2.6c0.9,0.4,1.8,0.7,2.8,1
	C18,19.8,18.9,19.9,19.8,20z"/>
</svg>
