<?xml version="1.0" encoding="utf-8"?>
<!-- Generator: Adobe Illustrator 24.1.0, SVG Export Plug-In . SVG Version: 6.00 Build 0)  -->
<svg version="1.1" id="Capa_1" xmlns="http://www.w3.org/2000/svg" xmlns:xlink="http://www.w3.org/1999/xlink" x="0px" y="0px"
	 viewBox="0 0 19 19" style="enable-background:new 0 0 19 19;" xml:space="preserve">
<style type="text/css">
	.st0{fill:#000028;}
</style>
<path class="st0" d="M3.8,14.1h1v-1.5h9.5v1.5h1v-3.8c0-0.4-0.2-0.8-0.5-1.2c-0.3-0.3-0.7-0.5-1.1-0.6V7c0-0.4-0.2-0.8-0.5-1.2
	s-0.7-0.5-1.1-0.5H6.9c-0.4,0-0.8,0.2-1.1,0.5S5.3,6.6,5.3,7v1.6C4.9,8.6,4.5,8.8,4.2,9.1c-0.3,0.3-0.4,0.7-0.4,1.2V14.1z M6.3,8.6
	V6.7c0-0.1,0-0.2,0.1-0.2c0.1-0.1,0.1-0.1,0.2-0.1h5.6c0.1,0,0.2,0,0.2,0.1c0.1,0.1,0.1,0.1,0.1,0.2v1.9H6.3z M4.8,11.6v-1.2
	c0-0.2,0.1-0.4,0.2-0.6s0.3-0.2,0.6-0.2h7.9c0.2,0,0.4,0.1,0.6,0.2s0.2,0.3,0.2,0.6v1.2H4.8z M1.5,19c-0.4,0-0.7-0.1-1-0.4
	C0.1,18.3,0,18,0,17.5V1.5c0-0.4,0.1-0.7,0.4-1C0.7,0.1,1,0,1.5,0h16.1c0.4,0,0.7,0.1,1,0.4C18.9,0.7,19,1,19,1.5v16.1
	c0,0.4-0.1,0.7-0.4,1c-0.3,0.3-0.6,0.4-1,0.4H1.5z M1.5,17.9h16.1c0.1,0,0.2,0,0.2-0.1s0.1-0.1,0.1-0.2V1.5c0-0.1,0-0.2-0.1-0.2
	c-0.1-0.1-0.1-0.1-0.2-0.1H1.5c-0.1,0-0.2,0-0.2,0.1C1.2,1.3,1.1,1.4,1.1,1.5v16.1c0,0.1,0,0.2,0.1,0.2C1.3,17.8,1.4,17.9,1.5,17.9z
	 M1.1,17.9C1.1,17.9,1.1,17.8,1.1,17.9c0-0.1,0-0.2,0-0.3V1.5c0-0.1,0-0.2,0-0.2c0-0.1,0-0.1,0-0.1s0,0,0,0.1c0,0.1,0,0.1,0,0.2
	v16.1C1.1,17.6,1.1,17.7,1.1,17.9C1.1,17.8,1.1,17.9,1.1,17.9z"/>
</svg>
