<?xml version="1.0" encoding="utf-8"?>
<!-- Generator: Adobe Illustrator 24.1.0, SVG Export Plug-In . SVG Version: 6.00 Build 0)  -->
<svg version="1.1" id="Capa_1" xmlns="http://www.w3.org/2000/svg" xmlns:xlink="http://www.w3.org/1999/xlink" x="0px" y="0px"
	 viewBox="0 0 19 19" style="enable-background:new 0 0 19 19;" xml:space="preserve">
<style type="text/css">
	.st0{fill:#000028;}
</style>
<path class="st0" d="M2.5,14.2h1.2v-1.6h11.6v1.6h1.2v-4.1c0-0.3-0.1-0.6-0.3-0.9C16,9,15.8,8.7,15.5,8.6V7c0-0.5-0.1-0.9-0.4-1.2
	c-0.3-0.3-0.7-0.4-1.2-0.4h-3.2c-0.3,0-0.5,0.1-0.7,0.2C9.8,5.6,9.6,5.8,9.5,5.9C9.4,5.8,9.2,5.6,9,5.5S8.6,5.4,8.3,5.4H5.1
	C4.6,5.4,4.3,5.5,4,5.8C3.7,6.1,3.5,6.5,3.5,7v1.6C3.2,8.7,3,9,2.8,9.3c-0.2,0.3-0.3,0.6-0.3,0.9V14.2z M10,8.6V6.7
	c0-0.1,0-0.2,0.1-0.2c0.1-0.1,0.1-0.1,0.2-0.1h3.9c0.1,0,0.2,0,0.2,0.1c0.1,0.1,0.1,0.1,0.1,0.2v1.9H10z M4.5,8.6V6.7
	c0-0.1,0-0.2,0.1-0.2c0.1-0.1,0.1-0.1,0.2-0.1h3.9c0.1,0,0.2,0,0.2,0.1C9,6.5,9,6.6,9,6.7v1.9H4.5z M3.7,11.6v-1
	c0-0.3,0.1-0.5,0.3-0.7s0.4-0.3,0.7-0.3h9.6c0.3,0,0.5,0.1,0.7,0.3s0.3,0.4,0.3,0.7v1H3.7z M1.5,19c-0.4,0-0.7-0.1-1-0.4
	C0.1,18.3,0,18,0,17.5V1.5c0-0.4,0.1-0.7,0.4-1C0.7,0.1,1,0,1.5,0h16.1c0.4,0,0.7,0.1,1,0.4C18.9,0.7,19,1,19,1.5v16.1
	c0,0.4-0.1,0.7-0.4,1c-0.3,0.3-0.6,0.4-1,0.4H1.5z M1.5,17.9h16.1c0.1,0,0.2,0,0.2-0.1s0.1-0.1,0.1-0.2V1.5c0-0.1,0-0.2-0.1-0.2
	c-0.1-0.1-0.1-0.1-0.2-0.1H1.5c-0.1,0-0.2,0-0.2,0.1C1.2,1.3,1.1,1.4,1.1,1.5v16.1c0,0.1,0,0.2,0.1,0.2C1.3,17.8,1.4,17.9,1.5,17.9z
	 M1.1,17.9C1.1,17.9,1.1,17.8,1.1,17.9c0-0.1,0-0.2,0-0.3V1.5c0-0.1,0-0.2,0-0.2c0-0.1,0-0.1,0-0.1s0,0,0,0.1c0,0.1,0,0.1,0,0.2
	v16.1C1.1,17.6,1.1,17.7,1.1,17.9C1.1,17.8,1.1,17.9,1.1,17.9z"/>
</svg>
