<svg width="94" height="94" viewBox="0 0 94 94" fill="none" xmlns="http://www.w3.org/2000/svg">
<path d="M45.1008 48.9969C44.6341 48.9969 44.2591 48.8623 43.9758 48.5929C43.6924 48.3235 43.5508 47.9671 43.5508 47.5234V40.1083C43.5508 39.6646 43.6924 39.3081 43.9758 39.0388C44.2591 38.7694 44.6341 38.6348 45.1008 38.6348H50.9008C51.3674 38.6348 51.7424 38.7694 52.0258 39.0388C52.3091 39.3081 52.4508 39.6646 52.4508 40.1083V47.5234C52.4508 47.9671 52.3091 48.3235 52.0258 48.5929C51.7424 48.8623 51.3674 48.9969 50.9008 48.9969H45.1008ZM45.4508 47.1907H50.5508V40.441H45.4508V47.1907ZM31.1008 48.9969C30.6341 48.9969 30.2591 48.8623 29.9758 48.5929C29.6924 48.3235 29.5508 47.9671 29.5508 47.5234V40.1083C29.5508 39.6646 29.6924 39.3081 29.9758 39.0388C30.2591 38.7694 30.6341 38.6348 31.1008 38.6348H36.9008C37.3674 38.6348 37.7424 38.7694 38.0258 39.0388C38.3091 39.3081 38.4508 39.6646 38.4508 40.1083V41.3917H36.5508V40.441H31.4508V47.1907H36.5508V46.24H38.4508V47.5234C38.4508 47.9354 38.3091 48.2839 38.0258 48.5691C37.7424 48.8543 37.3674 48.9969 36.9008 48.9969H31.1008ZM57.5508 54.7009V50.3754C57.5508 49.9317 57.6924 49.5752 57.9758 49.3059C58.2591 49.0365 58.6341 48.9019 59.1008 48.9019H63.5508V46.145H57.5508V44.3387H63.9008C64.3675 44.3387 64.7425 44.4734 65.0258 44.7427C65.3091 45.0121 65.4508 45.3686 65.4508 45.8122V48.6642C65.4508 49.1078 65.3091 49.4643 65.0258 49.7337C64.7425 50.003 64.3675 50.1377 63.9008 50.1377H59.4508V52.8946H65.4508V54.7009H57.5508Z" fill="#000028"/>
</svg>
