<?xml version="1.0" encoding="utf-8"?>
<!-- Generator: Adobe Illustrator 24.1.0, SVG Export Plug-In . SVG Version: 6.00 Build 0)  -->
<svg version="1.1" id="Capa_1" xmlns="http://www.w3.org/2000/svg" xmlns:xlink="http://www.w3.org/1999/xlink" x="0px" y="0px"
	 viewBox="0 0 48 48" style="enable-background:new 0 0 48 48;" xml:space="preserve">
<style type="text/css">
	.st0{fill:#000028;}
</style>
<path class="st0" d="M5.6,42.3l8.2-23.1L28.8,34L5.6,42.3z M9.4,38.5l15.2-5.5l-9.8-9.9L9.4,38.5z M27,25.9l-1.4-1.4l11.6-11.6
	c1-1,2.3-1.5,3.8-1.5c1.5,0,2.8,0.5,3.8,1.5l0.7,0.7L44.2,15l-0.8-0.8c-0.6-0.6-1.4-1-2.3-1c-0.9,0-1.7,0.3-2.4,1L27,25.9z
	 M19.8,18.8l-1.4-1.4l1.4-1.4c0.8-0.8,1.2-1.7,1.2-2.8s-0.4-2-1.2-2.7l-1.3-1.3l1.4-1.3L21.1,9c1.1,1.1,1.7,2.5,1.7,4.2
	c0,1.7-0.6,3.1-1.7,4.3L19.8,18.8z M23.5,22.3l-1.4-1.4l7.2-7.2c0.7-0.6,1-1.4,1-2.4c0-1-0.4-1.8-1-2.5l-2.8-2.9l1.4-1.4l2.9,3
	c1,1,1.5,2.3,1.5,3.8c0,1.5-0.5,2.8-1.5,3.8L23.5,22.3z M30.7,29.5l-1.4-1.3l1.8-1.8c1.2-1.1,2.6-1.7,4.2-1.8c1.6,0,3,0.5,4.1,1.7
	l1.9,1.9L40,29.6l-2-1.9c-0.8-0.8-1.7-1.2-2.7-1.2c-1,0-1.9,0.4-2.7,1.2L30.7,29.5z"/>
</svg>
