<svg width="40" height="38" viewBox="0 0 40 38" fill="none" xmlns="http://www.w3.org/2000/svg">
<path d="M14.5498 35.7501H24.2998V33.0501L25.5998 32.5501C28.1665 31.6168 30.2915 30.2751 31.9748 28.5251C33.6581 26.7751 34.8331 24.9168 35.4998 22.9501H3.3498C4.01647 24.9168 5.20814 26.7751 6.9248 28.5251C8.64147 30.2751 10.7498 31.6168 13.2498 32.5501L14.5498 33.0501V35.7501ZM12.2998 38.0001V34.5001C8.96647 33.2001 6.27481 31.3334 4.2248 28.9001C2.1748 26.4668 0.949805 23.7501 0.549805 20.7501V20.7001L3.7498 20.7501V4.0501L39.3498 0.100098V2.1501L15.3498 4.7501V9.2001H39.4498V11.2501H15.3498V20.7501H38.3498C37.9831 23.7501 36.7498 26.4668 34.6498 28.9001C32.5498 31.3334 29.8498 33.2001 26.5498 34.5001V38.0001H12.2998ZM10.5498 9.2001H13.2998V5.0001L10.5498 5.3001V9.2001ZM5.7998 9.2001H8.5498V5.5001L5.7998 5.7501V9.2001ZM10.5498 20.7501H13.2998V11.2501H10.5498V20.7501ZM5.7998 20.7501H8.5498V11.2501H5.7998V20.7501Z" fill="#000028"/>
</svg>
