<?xml version="1.0" encoding="utf-8"?>
<!-- Generator: Adobe Illustrator 24.1.0, SVG Export Plug-In . SVG Version: 6.00 Build 0)  -->
<svg version="1.1" id="Capa_1" xmlns="http://www.w3.org/2000/svg" xmlns:xlink="http://www.w3.org/1999/xlink" x="0px" y="0px"
	 viewBox="0 0 13 13" style="enable-background:new 0 0 13 13;" xml:space="preserve">
<style type="text/css">
	.st0{fill:#FFFFFF;}
</style>
<path class="st0" d="M5.7,9L5.2,8.5l1.6-1.6H0.9V6.1h5.9L5.1,4.5l0.5-0.6l2.6,2.6L5.7,9z M6.5,12.3v-0.8h4.6c0.1,0,0.1,0,0.2-0.1
	c0,0,0.1-0.1,0.1-0.2V1.6c0-0.1,0-0.1-0.1-0.2c0,0-0.1-0.1-0.2-0.1H6.5V0.7h4.6c0.3,0,0.5,0.1,0.7,0.3c0.2,0.2,0.3,0.4,0.3,0.7v9.7
	c0,0.3-0.1,0.5-0.3,0.7s-0.4,0.3-0.7,0.3H6.5z"/>
</svg>
