<?xml version="1.0" encoding="utf-8"?>
<!-- Generator: Adobe Illustrator 26.3.1, SVG Export Plug-In . SVG Version: 6.00 Build 0)  -->
<svg version="1.1" id="Capa_1" xmlns="http://www.w3.org/2000/svg" xmlns:xlink="http://www.w3.org/1999/xlink" x="0px" y="0px"
	 viewBox="0 0 21 20" style="enable-background:new 0 0 21 20;" xml:space="preserve">
<style type="text/css">
	.st0{fill:#000028;}
</style>
<path class="st0" d="M8.4,9.7h7.3l-2-2L14.4,7l3.2,3.2l-3.2,3.1l-0.7-0.7l2-2H8.4V9.7z M10.6,2.9v0.9H4.8c-0.1,0-0.1,0-0.2,0.1
	C4.6,4,4.5,4.1,4.5,4.1v12.2c0,0.1,0,0.1,0.1,0.2c0.1,0.1,0.1,0.1,0.2,0.1h5.8v0.9H4.8c-0.3,0-0.6-0.1-0.9-0.4
	c-0.2-0.2-0.4-0.5-0.4-0.9V4.1c0-0.3,0.1-0.6,0.4-0.9C4.2,3,4.5,2.9,4.8,2.9H10.6z"/>
</svg>
