<?xml version="1.0" encoding="utf-8"?>
<!-- Generator: Adobe Illustrator 27.4.0, SVG Export Plug-In . SVG Version: 6.00 Build 0)  -->
<svg version="1.1" id="Capa_1" xmlns="http://www.w3.org/2000/svg" xmlns:xlink="http://www.w3.org/1999/xlink" x="0px" y="0px"
	 viewBox="0 0 49 48" style="enable-background:new 0 0 49 48;" xml:space="preserve">
<style type="text/css">
	.st0{fill:#009EE0;}
</style>
<g>
	<path class="st0" d="M21.5,32.5L35,19l-1.8-1.7L21.5,29l-5.9-6l-1.7,1.8L21.5,32.5z M24.5,43c-2.7,0-5.2-0.5-7.5-1.5s-4.3-2.3-6-4
		s-3.1-3.7-4-6.1S5.5,26.7,5.5,24c0-2.6,0.5-5.1,1.4-7.4s2.3-4.3,4-6.1c1.7-1.7,3.7-3.1,6-4S21.8,5,24.5,5c2.6,0,5.1,0.5,7.4,1.5
		s4.3,2.3,6,4s3.1,3.7,4.1,6s1.5,4.8,1.5,7.5S43,29.2,42,31.5s-2.3,4.3-4.1,6.1c-1.7,1.7-3.7,3.1-6,4S27.2,43,24.5,43z M24.5,40.8
		c4.7,0,8.7-1.6,11.9-4.8s4.8-7.2,4.8-11.9s-1.6-8.7-4.8-11.9s-7.2-4.8-11.9-4.8S15.8,9,12.6,12.2C9.4,15.3,7.8,19.3,7.8,24
		s1.6,8.7,4.8,11.9C15.8,39.1,19.8,40.8,24.5,40.8z"/>
</g>
</svg>
