<?xml version="1.0" encoding="utf-8"?>
<!-- Generator: Adobe Illustrator 24.1.0, SVG Export Plug-In . SVG Version: 6.00 Build 0)  -->
<svg version="1.1" id="Capa_1" xmlns="http://www.w3.org/2000/svg" xmlns:xlink="http://www.w3.org/1999/xlink" x="0px" y="0px"
	 viewBox="0 0 24 24" style="enable-background:new 0 0 24 24;" xml:space="preserve">
<style type="text/css">
	.st0{fill:#D9D9D9;filter:url(#Adobe_OpacityMaskFilter);}
	.st1{mask:url(#mask0_9384_2306_1_);}
	.st2{fill:#4F8415;}
</style>
<defs>
	<filter id="Adobe_OpacityMaskFilter" filterUnits="userSpaceOnUse" x="2.5" y="2.5" width="19" height="19">
		<feColorMatrix  type="matrix" values="1 0 0 0 0  0 1 0 0 0  0 0 1 0 0  0 0 0 1 0"/>
	</filter>
</defs>
<mask maskUnits="userSpaceOnUse" x="2.5" y="2.5" width="19" height="19" id="mask0_9384_2306_1_">
	<rect class="st0" width="24" height="24"/>
</mask>
<g class="st1">
	<path class="st2" d="M10.5,16.2l6.8-6.8l-0.9-0.9l-5.9,5.9l-2.9-3l-0.8,0.9L10.5,16.2z M12,21.5c-1.3,0-2.6-0.2-3.7-0.7
		c-1.2-0.5-2.2-1.2-3-2c-0.9-0.9-1.5-1.9-2-3S2.5,13.3,2.5,12c0-1.3,0.2-2.6,0.7-3.7s1.2-2.2,2-3s1.9-1.5,3-2s2.4-0.7,3.7-0.7
		c1.3,0,2.6,0.2,3.7,0.7s2.2,1.2,3,2c0.9,0.9,1.5,1.9,2,3c0.5,1.2,0.7,2.4,0.7,3.7s-0.2,2.6-0.7,3.7c-0.5,1.2-1.2,2.2-2,3
		c-0.9,0.9-1.9,1.5-3,2C14.6,21.3,13.3,21.5,12,21.5z M12,20.4c2.4,0,4.4-0.8,6-2.4c1.6-1.6,2.4-3.6,2.4-6c0-2.4-0.8-4.4-2.4-6
		c-1.6-1.6-3.6-2.4-6-2.4C9.6,3.6,7.6,4.4,6,6s-2.4,3.6-2.4,6c0,2.4,0.8,4.4,2.4,6C7.6,19.6,9.6,20.4,12,20.4z"/>
</g>
</svg>
