<?xml version="1.0" encoding="utf-8"?>
<!-- Generator: Adobe Illustrator 24.1.0, SVG Export Plug-In . SVG Version: 6.00 Build 0)  -->
<svg version="1.1" id="Capa_1" xmlns="http://www.w3.org/2000/svg" xmlns:xlink="http://www.w3.org/1999/xlink" x="0px" y="0px"
	 viewBox="0 0 22 22" style="enable-background:new 0 0 22 22;" xml:space="preserve">
<style type="text/css">
	.st0{fill:#000028;}
</style>
<path class="st0" d="M6.8,11c2,0,3.3-1.6,3.3-3.5v0c0-1.9-1.3-3.5-3.2-3.5S3.6,5.5,3.6,7.5v0C3.6,9.4,4.9,11,6.8,11z M6.8,5.5
	c0.9,0,1.5,0.9,1.5,2v0c0,1-0.5,2-1.5,2c-0.9,0-1.5-0.9-1.5-2v0C5.4,6.4,5.9,5.5,6.8,5.5z M10.4,10.5L5,17.8H7l4.6-6.4L17,4.1H15
	L10.4,10.5z M15.1,18c1.9,0,3.3-1.6,3.3-3.5v0c0-1.9-1.3-3.5-3.2-3.5s-3.3,1.6-3.3,3.5v0C11.9,16.4,13.2,18,15.1,18z M15.2,16.4
	c-0.9,0-1.5-0.9-1.5-2v0c0-1,0.5-2,1.5-2c0.9,0,1.5,0.9,1.5,2v0C16.6,15.6,16.1,16.4,15.2,16.4z"/>
</svg>
