<svg width="42" height="40" viewBox="0 0 42 40" fill="none" xmlns="http://www.w3.org/2000/svg">
<path d="M2.4502 39.7798C1.88353 39.7798 1.40853 39.5976 1.0252 39.2331C0.641862 38.8687 0.450195 38.433 0.450195 37.926V37.3556H28.9502V37.926C28.9502 38.433 28.7585 38.8687 28.3752 39.2331C27.9919 39.5976 27.5169 39.7798 26.9502 39.7798H2.4502ZM0.450195 27.849C0.450195 26.6132 0.716862 25.4248 1.2502 24.2841C1.78353 23.1433 2.63353 22.1372 3.8002 21.2657C4.96686 20.3943 6.4502 19.6892 8.2502 19.1505C10.0502 18.6118 12.2002 18.3424 14.7002 18.3424C17.2335 18.3424 19.3919 18.6118 21.1752 19.1505C22.9585 19.6892 24.4335 20.3943 25.6002 21.2657C26.7669 22.1372 27.6169 23.1433 28.1502 24.2841C28.6835 25.4248 28.9502 26.6132 28.9502 27.849H0.450195ZM0.450195 33.7906V31.3665H28.9502V33.7906H0.450195ZM32.2502 39.7798V37.6408H36.1002L38.9502 10.6897H19.8002L19.5502 8.50314H29.3502V0.232422H31.6002V8.50314H41.5502L38.4002 37.4507C38.3002 38.1795 37.9919 38.7499 37.4752 39.1618C36.9585 39.5738 36.3335 39.7798 35.6002 39.7798H32.2502ZM32.2502 37.6408H36.1002H32.2502ZM3.0002 25.6625H26.4002C25.8335 24.1098 24.5335 22.866 22.5002 21.9312C20.4669 20.9964 17.8669 20.529 14.7002 20.529C11.5335 20.529 8.93353 20.9964 6.9002 21.9312C4.86686 22.866 3.56686 24.1098 3.0002 25.6625ZM3.0002 25.6625C3.56686 25.6625 4.86686 25.6625 6.9002 25.6625C8.93353 25.6625 11.5335 25.6625 14.7002 25.6625C17.8669 25.6625 20.4669 25.6625 22.5002 25.6625C24.5335 25.6625 25.8335 25.6625 26.4002 25.6625H3.0002Z" fill="#000028"/>
</svg>
