<?xml version="1.0" encoding="utf-8"?>
<!-- Generator: Adobe Illustrator 24.1.0, SVG Export Plug-In . SVG Version: 6.00 Build 0)  -->
<svg version="1.1" id="Capa_1" xmlns="http://www.w3.org/2000/svg" xmlns:xlink="http://www.w3.org/1999/xlink" x="0px" y="0px"
	 viewBox="0 0 42 38" style="enable-background:new 0 0 42 38;" xml:space="preserve">
<style type="text/css">
	.st0{fill:#000028;}
</style>
<path class="st0" d="M20.6,35.7c0.2,0,0.4-0.1,0.7-0.2s0.5-0.2,0.7-0.4l16.4-16.3c0.5-0.5,0.8-1,1.1-1.5s0.4-1.2,0.4-1.8
	c0-0.6-0.1-1.2-0.4-1.8c-0.2-0.6-0.6-1.1-1.1-1.6l-8.4-8.4c-0.5-0.5-1-0.8-1.6-1c-0.6-0.2-1.1-0.4-1.8-0.4c-0.6,0-1.2,0.1-1.8,0.4
	c-0.6,0.2-1.1,0.6-1.5,1L21.9,5l3.9,4c0.4,0.4,0.7,0.9,1,1.5s0.4,1.2,0.4,1.8c0,1.1-0.4,2.1-1.2,2.9c-0.8,0.8-1.8,1.2-2.9,1.2
	c-0.7,0-1.4-0.1-1.9-0.3c-0.5-0.2-1-0.5-1.4-0.9l-3.7-3.8l-9,9c-0.2,0.2-0.3,0.4-0.4,0.6c-0.1,0.2-0.1,0.5-0.1,0.7
	c0,0.5,0.2,0.9,0.5,1.2s0.7,0.5,1.2,0.5c0.3,0,0.5-0.1,0.8-0.2c0.2-0.1,0.4-0.2,0.6-0.4l6.6-6.7l1.6,1.6l-6.6,6.6
	c-0.2,0.2-0.3,0.4-0.4,0.6c-0.1,0.2-0.1,0.5-0.1,0.8c0,0.4,0.2,0.8,0.5,1.2c0.3,0.3,0.7,0.5,1.2,0.5c0.3,0,0.5,0,0.8-0.2
	c0.2-0.1,0.4-0.2,0.6-0.4l6.9-6.9l1.6,1.6l-6.8,6.8c-0.1,0.2-0.3,0.4-0.4,0.7c-0.1,0.3-0.2,0.5-0.2,0.8c0,0.5,0.2,0.9,0.5,1.2
	c0.3,0.3,0.7,0.5,1.2,0.5c0.2,0,0.5,0,0.7-0.1c0.2-0.1,0.4-0.2,0.6-0.4l6.9-6.9l1.6,1.6l-6.9,6.9c-0.2,0.2-0.3,0.4-0.4,0.6
	c-0.1,0.3-0.1,0.5-0.1,0.7c0,0.5,0.2,0.9,0.5,1.2C19.7,35.5,20.1,35.7,20.6,35.7L20.6,35.7z M20.6,38c-1.1,0-2-0.4-2.8-1.2
	c-0.8-0.8-1.2-1.8-1.2-2.9c-1.1-0.1-2.1-0.5-2.9-1.2C13,32,12.6,31,12.5,29.8c-1.2-0.1-2.1-0.5-2.8-1.2s-1.1-1.7-1.2-2.8
	c-1.1-0.1-2.1-0.5-2.9-1.2c-0.8-0.7-1.2-1.6-1.2-2.8c0-0.5,0.1-1,0.3-1.5c0.2-0.5,0.5-1,0.9-1.4L16.2,8.2l5.1,5.1
	c0.2,0.3,0.5,0.5,0.9,0.6c0.3,0.2,0.7,0.2,1,0.2c0.5,0,0.9-0.2,1.3-0.6c0.4-0.4,0.6-0.8,0.6-1.3c0-0.3-0.1-0.5-0.2-0.8
	c-0.1-0.3-0.3-0.5-0.6-0.8l-7-7.1c-0.5-0.5-1-0.8-1.5-1c-0.6-0.2-1.2-0.4-1.8-0.4c-0.6,0-1.2,0.1-1.7,0.4c-0.5,0.2-1.1,0.6-1.5,1
	l-7,7c-0.5,0.5-0.9,1-1.1,1.6c-0.2,0.6-0.3,1.2-0.4,1.9c0,0.6,0.1,1.2,0.4,1.8c0.2,0.6,0.5,1.1,0.9,1.5l-1.7,1.6
	c-0.5-0.6-0.9-1.4-1.3-2.3S0,15,0,14.1c0-1,0.2-1.9,0.5-2.8S1.4,9.7,2.1,9L9,2c0.7-0.7,1.5-1.2,2.3-1.5C12.1,0.2,13,0,14,0
	s1.8,0.2,2.6,0.5c0.8,0.3,1.6,0.9,2.3,1.5l1.4,1.4L21.7,2c0.7-0.7,1.4-1.2,2.3-1.5C24.8,0.2,25.7,0,26.6,0c0.9,0,1.8,0.2,2.7,0.5
	s1.6,0.9,2.3,1.5l8.4,8.4c0.7,0.7,1.2,1.4,1.5,2.3c0.4,0.9,0.6,1.8,0.6,2.7c0,0.9-0.2,1.8-0.6,2.6c-0.4,0.8-0.9,1.6-1.5,2.3
	L23.5,36.7c-0.4,0.4-0.9,0.8-1.4,1C21.7,37.8,21.1,38,20.6,38L20.6,38z"/>
</svg>
