<svg width="94" height="94" viewBox="0 0 94 94" fill="none" xmlns="http://www.w3.org/2000/svg">
<path d="M46.6 60.65C46.8 60.65 47.0333 60.6 47.3 60.5C47.5667 60.4 47.7833 60.2667 47.95 60.1L64.3 43.75C64.7667 43.2833 65.125 42.7667 65.375 42.2C65.625 41.6333 65.75 41.05 65.75 40.45C65.75 39.85 65.625 39.25 65.375 38.65C65.125 38.05 64.7667 37.5167 64.3 37.05L55.9 28.65C55.4333 28.1833 54.9167 27.8333 54.35 27.6C53.7833 27.3667 53.2 27.25 52.6 27.25C52 27.25 51.4167 27.3667 50.85 27.6C50.2833 27.8333 49.7667 28.1833 49.3 28.65L47.9 30.05L51.85 34.05C52.25 34.45 52.5917 34.9333 52.875 35.5C53.1583 36.0667 53.3 36.6833 53.3 37.35C53.3 38.45 52.8833 39.4167 52.05 40.25C51.2167 41.0833 50.25 41.5 49.15 41.5C48.4167 41.5 47.8 41.3917 47.3 41.175C46.8 40.9583 46.3333 40.65 45.9 40.25L42.2 36.5L33.25 45.45C33.0833 45.6167 32.95 45.825 32.85 46.075C32.75 46.325 32.7 46.5667 32.7 46.8C32.7 47.3 32.8583 47.7 33.175 48C33.4917 48.3 33.8833 48.45 34.35 48.45C34.6167 48.45 34.875 48.3917 35.125 48.275C35.375 48.1583 35.5667 48.0333 35.7 47.9L42.35 41.25L43.95 42.85L37.35 49.45C37.15 49.65 37.0083 49.8667 36.925 50.1C36.8417 50.3333 36.8 50.5833 36.8 50.85C36.8 51.2833 36.9667 51.6667 37.3 52C37.6333 52.3333 38.0167 52.5 38.45 52.5C38.7167 52.5 38.9667 52.45 39.2 52.35C39.4333 52.25 39.6333 52.1167 39.8 51.95L46.65 45.05L48.25 46.65L41.4 53.5C41.2667 53.6667 41.1417 53.8833 41.025 54.15C40.9083 54.4167 40.85 54.6667 40.85 54.9C40.85 55.3667 41.0167 55.7667 41.35 56.1C41.6833 56.4333 42.0833 56.6 42.55 56.6C42.7833 56.6 43.0167 56.55 43.25 56.45C43.4833 56.35 43.6833 56.2167 43.85 56.05L50.75 49.15L52.35 50.75L45.45 57.65C45.2833 57.8167 45.15 58.0333 45.05 58.3C44.95 58.5667 44.9 58.8 44.9 59C44.9 59.5333 45.0583 59.9417 45.375 60.225C45.6917 60.5083 46.1 60.65 46.6 60.65V60.65ZM46.6 62.95C45.5333 62.95 44.6167 62.5583 43.85 61.775C43.0833 60.9917 42.6833 60.0167 42.65 58.85C41.5167 58.7833 40.5667 58.3917 39.8 57.675C39.0333 56.9583 38.6167 56 38.55 54.8C37.3833 54.7 36.4333 54.2833 35.7 53.55C34.9667 52.8167 34.5667 51.8667 34.5 50.7C33.3667 50.6333 32.4083 50.2417 31.625 49.525C30.8417 48.8083 30.45 47.8833 30.45 46.75C30.45 46.25 30.55 45.7333 30.75 45.2C30.95 44.6667 31.25 44.2 31.65 43.8L42.2 33.25L47.3 38.35C47.5333 38.6167 47.8167 38.825 48.15 38.975C48.4833 39.125 48.8167 39.2 49.15 39.2C49.6167 39.2 50.05 39.0083 50.45 38.625C50.85 38.2417 51.05 37.8 51.05 37.3C51.05 37.0333 50.9833 36.7667 50.85 36.5C50.7167 36.2333 50.5167 35.9667 50.25 35.7L43.25 28.65C42.7833 28.1833 42.2667 27.8333 41.7 27.6C41.1333 27.3667 40.5333 27.25 39.9 27.25C39.3 27.25 38.725 27.3667 38.175 27.6C37.625 27.8333 37.1167 28.1833 36.65 28.65L29.7 35.65C29.2 36.1167 28.8417 36.6417 28.625 37.225C28.4083 37.8083 28.2833 38.45 28.25 39.15C28.25 39.75 28.3667 40.3333 28.6 40.9C28.8333 41.4667 29.1333 41.9833 29.5 42.45L27.8 44.1C27.3 43.4667 26.875 42.7083 26.525 41.825C26.175 40.9417 26 40.0333 26 39.1C26 38.1333 26.175 37.2083 26.525 36.325C26.875 35.4417 27.4 34.6667 28.1 34L35 27.05C35.7 26.35 36.4667 25.8333 37.3 25.5C38.1333 25.1667 39.0167 25 39.95 25C40.8833 25 41.7667 25.1667 42.6 25.5C43.4333 25.8333 44.2 26.35 44.9 27.05L46.3 28.45L47.7 27.05C48.3667 26.35 49.125 25.8333 49.975 25.5C50.825 25.1667 51.7 25 52.6 25C53.5333 25 54.4167 25.1667 55.25 25.5C56.0833 25.8333 56.85 26.35 57.55 27.05L65.9 35.4C66.5667 36.0667 67.0833 36.85 67.45 37.75C67.8167 38.65 68 39.55 68 40.45C68 41.3833 67.8167 42.2667 67.45 43.1C67.0833 43.9333 66.5667 44.7 65.9 45.4L49.55 61.7C49.15 62.1333 48.6917 62.45 48.175 62.65C47.6583 62.85 47.1333 62.95 46.6 62.95V62.95Z" fill="#000028"/>
</svg>
