<?xml version="1.0" encoding="utf-8"?>
<!-- Generator: Adobe Illustrator 27.0.0, SVG Export Plug-In . SVG Version: 6.00 Build 0)  -->
<svg version="1.1" id="Capa_1" xmlns="http://www.w3.org/2000/svg" xmlns:xlink="http://www.w3.org/1999/xlink" x="0px" y="0px"
	 viewBox="0 0 48 48" style="enable-background:new 0 0 48 48;" xml:space="preserve">
<style type="text/css">
	.st0{fill:#D9D9D9;filter:url(#Adobe_OpacityMaskFilter);}
	.st1{mask:url(#mask0_4477_54624_00000061436707133873002670000012271659288338308541_);}
	.st2{fill:#1C1B1F;}
</style>
<defs>
	<filter id="Adobe_OpacityMaskFilter" filterUnits="userSpaceOnUse" x="5" y="9" width="38" height="30">
		<feColorMatrix  type="matrix" values="1 0 0 0 0  0 1 0 0 0  0 0 1 0 0  0 0 0 1 0"/>
	</filter>
</defs>
<mask maskUnits="userSpaceOnUse" x="5" y="9" width="38" height="30" id="mask0_4477_54624_00000061436707133873002670000012271659288338308541_">
	<rect class="st0" width="48" height="48"/>
</mask>
<g class="st1">
	<path class="st2" d="M7.2,39c-0.6,0-1.2-0.2-1.6-0.7S5,37.4,5,36.8v-7c1.2-0.4,2.2-1.2,3-2.2s1.2-2.2,1.2-3.6S8.8,21.4,8,20.4
		s-1.8-1.8-3-2.2v-7c0-0.6,0.2-1.2,0.7-1.6C6.1,9.2,6.6,9,7.2,9h33.5c0.6,0,1.2,0.2,1.6,0.6c0.4,0.4,0.7,1,0.7,1.6v7
		c-1.2,0.4-2.2,1.1-3,2.2c-0.8,1-1.2,2.3-1.2,3.6s0.4,2.6,1.2,3.6c0.8,1,1.8,1.8,3,2.2v7c0,0.6-0.2,1.2-0.7,1.6s-1,0.7-1.6,0.7H7.2z
		 M7.2,36.8h33.5v-5.4c-1.3-0.8-2.3-1.9-3.1-3.2c-0.8-1.3-1.2-2.7-1.2-4.2s0.4-2.9,1.2-4.2c0.8-1.3,1.8-2.3,3.1-3.2v-5.4H7.2v5.4
		c1.3,0.8,2.3,1.9,3.1,3.2c0.8,1.3,1.1,2.7,1.1,4.2s-0.4,2.9-1.1,4.2c-0.8,1.3-1.8,2.3-3.1,3.2V36.8z M24,33.2
		c0.3,0,0.6-0.1,0.8-0.3c0.2-0.2,0.4-0.5,0.4-0.8c0-0.3-0.1-0.6-0.4-0.8C24.6,31.1,24.3,31,24,31s-0.6,0.1-0.8,0.3
		c-0.2,0.2-0.4,0.5-0.4,0.8c0,0.3,0.1,0.6,0.4,0.8C23.4,33.1,23.7,33.2,24,33.2z M24,25.1c0.3,0,0.6-0.1,0.8-0.4
		c0.2-0.2,0.4-0.5,0.4-0.8s-0.1-0.6-0.4-0.8c-0.2-0.2-0.5-0.4-0.8-0.4s-0.6,0.1-0.8,0.4c-0.2,0.2-0.4,0.5-0.4,0.8s0.1,0.6,0.4,0.8
		C23.4,25,23.7,25.1,24,25.1z M24,17c0.3,0,0.6-0.1,0.8-0.3c0.2-0.2,0.4-0.5,0.4-0.8c0-0.3-0.1-0.6-0.4-0.8
		c-0.2-0.2-0.5-0.3-0.8-0.3s-0.6,0.1-0.8,0.3c-0.2,0.2-0.4,0.5-0.4,0.8c0,0.3,0.1,0.6,0.4,0.8C23.4,16.9,23.7,17,24,17z"/>
</g>
</svg>
