<svg width="94" height="94" viewBox="0 0 94 94" fill="none" xmlns="http://www.w3.org/2000/svg">
<path d="M41.7992 38.9675L45.9492 32.5505L43.1992 28.225C42.8326 27.6547 42.2992 27.3695 41.5992 27.3695C40.8992 27.3695 40.3826 27.6547 40.0492 28.225L35.4992 35.4025L41.7992 38.9675ZM59.6992 50.8982L55.5992 44.4338L61.9992 40.9163L64.9492 45.5745C65.2826 46.0816 65.4659 46.652 65.4992 47.2857C65.5326 47.9195 65.3992 48.4899 65.0992 48.9969C64.7992 49.5673 64.3409 50.0268 63.7242 50.3754C63.1075 50.7239 62.4492 50.8982 61.7492 50.8982H59.6992ZM54.3992 63.2092L46.9992 56.1744L54.3992 49.1395V52.6569H63.1492L60.4992 57.743C60.1326 58.345 59.6576 58.8204 59.0742 59.1689C58.4909 59.5175 57.8492 59.6918 57.1492 59.6918H54.3992V63.2092ZM36.4992 59.6918C35.8992 59.6918 35.3492 59.5413 34.8492 59.2402C34.3492 58.9392 33.9659 58.5352 33.6992 58.0282C33.4659 57.5528 33.3576 57.0617 33.3742 56.5546C33.3909 56.0476 33.5326 55.5723 33.7992 55.1287L35.3492 52.6569H43.2992V59.6918H36.4992ZM31.9492 54.7009L28.9492 48.9969C28.6492 48.4582 28.5159 47.8878 28.5492 47.2857C28.5826 46.6836 28.7659 46.1133 29.0992 45.5745L29.7992 44.4338L26.6992 42.6275L36.7992 40.2033L39.3492 49.8525L36.1492 47.9987L31.9492 54.7009ZM56.8492 39.6805L46.7492 37.2563L49.9492 35.45L44.1992 26.3237H50.6992C51.3326 26.3237 51.9326 26.4822 52.4992 26.7991C53.0659 27.1159 53.5159 27.5279 53.8492 28.0349L56.2992 31.8851L59.3992 30.0313L56.8492 39.6805Z" fill="#000028"/>
</svg>
