<svg width="56" height="58" viewBox="0 0 56 58" fill="none" xmlns="http://www.w3.org/2000/svg">
<path d="M21.75 47.5834C15.8611 47.5834 10.7639 45.4861 6.45833 41.2917C2.15278 37.0972 0 32.0834 0 26.25V4.41669C0 3.41669 0.375 2.54169 1.125 1.79169C1.875 1.04169 2.75 0.666687 3.75 0.666687H45.9167C48.5833 0.666687 50.8611 1.58335 52.75 3.41669C54.6389 5.25002 55.5833 7.50002 55.5833 10.1667C55.5833 12.8334 54.6389 15.0972 52.75 16.9584C50.8611 18.8195 48.5833 19.75 45.9167 19.75H43.5833V26.25C43.5833 32.0834 41.4306 37.0972 37.125 41.2917C32.8194 45.4861 27.6944 47.5834 21.75 47.5834ZM3.75 15.9167H39.75V4.41669H3.75V15.9167ZM21.75 43.8334C26.6944 43.8334 30.9306 42.0972 34.4583 38.625C37.9861 35.1528 39.75 31.0278 39.75 26.25V19.75H3.75V26.25C3.75 31.0278 5.52778 35.1528 9.08333 38.625C12.6389 42.0972 16.8611 43.8334 21.75 43.8334ZM43.5833 15.9167H45.9167C47.5278 15.9167 48.9167 15.375 50.0833 14.2917C51.25 13.2084 51.8333 11.8334 51.8333 10.1667C51.8333 8.55558 51.25 7.19447 50.0833 6.08335C48.9167 4.97224 47.5278 4.41669 45.9167 4.41669H43.5833V15.9167ZM0 57.3334V53.5834H48.75V57.3334H0Z" fill="#000028"/>
</svg>
