<svg width="10" height="13" viewBox="0 0 10 13" fill="none" xmlns="http://www.w3.org/2000/svg">
<path d="M2.48333 10.2167H7.51667V9.45H2.48333V10.2167ZM2.48333 7.41667H7.51667V6.66667H2.48333V7.41667ZM0.966667 12.8333C0.7 12.8333 0.472222 12.7389 0.283333 12.55C0.0944446 12.3611 0 12.1333 0 11.8667V1.13334C0 0.866672 0.0944446 0.638894 0.283333 0.450005C0.472222 0.261116 0.7 0.166672 0.966667 0.166672H6.75L10 3.41667V11.8667C10 12.1333 9.90556 12.3611 9.71667 12.55C9.52778 12.7389 9.3 12.8333 9.03333 12.8333H0.966667ZM6.38333 3.75V0.916672H0.966667C0.911111 0.916672 0.861111 0.938894 0.816667 0.983338C0.772222 1.02778 0.75 1.07778 0.75 1.13334V11.8667C0.75 11.9222 0.772222 11.9722 0.816667 12.0167C0.861111 12.0611 0.911111 12.0833 0.966667 12.0833H9.03333C9.08889 12.0833 9.13889 12.0611 9.18333 12.0167C9.22778 11.9722 9.25 11.9222 9.25 11.8667V3.75H6.38333ZM0.75 0.916672V3.75V0.916672V3.75V11.8667C0.75 11.9222 0.75 11.9722 0.75 12.0167C0.75 12.0611 0.75 12.0833 0.75 12.0833C0.75 12.0833 0.75 12.0611 0.75 12.0167C0.75 11.9722 0.75 11.9222 0.75 11.8667V1.13334C0.75 1.07778 0.75 1.02778 0.75 0.983338C0.75 0.938894 0.75 0.916672 0.75 0.916672Z" fill="#000028"/>
</svg>
