<?xml version="1.0" encoding="utf-8"?>
<!-- Generator: Adobe Illustrator 24.1.0, SVG Export Plug-In . SVG Version: 6.00 Build 0)  -->
<svg version="1.1" id="Capa_1" xmlns="http://www.w3.org/2000/svg" xmlns:xlink="http://www.w3.org/1999/xlink" x="0px" y="0px"
	 viewBox="0 0 48 48" style="enable-background:new 0 0 48 48;" xml:space="preserve">
<style type="text/css">
	.st0{fill:#000028;}
</style>
<path class="st0" d="M19,25.5c-0.4,0-0.8-0.2-1.1-0.5s-0.5-0.7-0.5-1.1s0.2-0.8,0.5-1.1s0.7-0.5,1.1-0.5s0.8,0.2,1.1,0.5
	s0.5,0.7,0.5,1.1s-0.2,0.8-0.5,1.1S19.5,25.5,19,25.5z M29,25.5c-0.4,0-0.8-0.2-1.1-0.5s-0.5-0.7-0.5-1.1s0.2-0.8,0.5-1.1
	s0.7-0.5,1.1-0.5c0.4,0,0.8,0.2,1.1,0.5s0.5,0.7,0.5,1.1s-0.2,0.8-0.5,1.1S29.4,25.5,29,25.5z M7.5,41v-2.2h2.2V9.9
	c0-0.8,0.3-1.5,0.9-2c0.6-0.6,1.3-0.8,2-0.8h22.8c0.8,0,1.4,0.3,2,0.8c0.6,0.6,0.9,1.3,0.9,2v28.9h2.2V41H7.5z M12,38.8h10.9V9.2
	H12.6c-0.1,0-0.3,0.1-0.4,0.2C12.1,9.6,12,9.7,12,9.9V38.8z M25.1,38.8H36V9.9c0-0.2-0.1-0.3-0.2-0.4c-0.1-0.1-0.3-0.2-0.4-0.2H25.1
	V38.8z"/>
</svg>
