<svg width="10" height="11" viewBox="0 0 10 11" fill="none" xmlns="http://www.w3.org/2000/svg">
<path d="M5 8L2.23333 5.23333L2.78333 4.7L4.61667 6.53333V0.383331H5.38333V6.53333L7.21667 4.7L7.76667 5.23333L5 8ZM0.966667 10.5C0.7 10.5 0.472222 10.4056 0.283333 10.2167C0.0944446 10.0278 0 9.8 0 9.53333V7.46666H0.75V9.53333C0.75 9.58889 0.772222 9.63889 0.816667 9.68333C0.861111 9.72778 0.911111 9.75 0.966667 9.75H9.03333C9.08889 9.75 9.13889 9.72778 9.18333 9.68333C9.22778 9.63889 9.25 9.58889 9.25 9.53333V7.46666H10V9.53333C10 9.8 9.90556 10.0278 9.71667 10.2167C9.52778 10.4056 9.3 10.5 9.03333 10.5H0.966667Z" fill="#000028"/>
</svg>
