<?xml version="1.0" encoding="utf-8"?>
<!-- Generator: Adobe Illustrator 27.0.0, SVG Export Plug-In . SVG Version: 6.00 Build 0)  -->
<svg version="1.1" id="Capa_1" xmlns="http://www.w3.org/2000/svg" xmlns:xlink="http://www.w3.org/1999/xlink" x="0px" y="0px"
	 viewBox="0 0 48 48" style="enable-background:new 0 0 48 48;" xml:space="preserve">
<style type="text/css">
	.st0{fill:#D9D9D9;filter:url(#Adobe_OpacityMaskFilter);}
	.st1{mask:url(#mask0_4477_54708_00000075142785255242822230000005557754241286476719_);}
	.st2{fill:#1C1B1F;}
</style>
<defs>
	<filter id="Adobe_OpacityMaskFilter" filterUnits="userSpaceOnUse" x="6.5" y="4.5" width="35" height="39">
		<feColorMatrix  type="matrix" values="1 0 0 0 0  0 1 0 0 0  0 0 1 0 0  0 0 0 1 0"/>
	</filter>
</defs>
<mask maskUnits="userSpaceOnUse" x="6.5" y="4.5" width="35" height="39" id="mask0_4477_54708_00000075142785255242822230000005557754241286476719_">
	<rect class="st0" width="48" height="48"/>
</mask>
<g class="st1">
	<path class="st2" d="M14.5,43.5V31.1h-3.9c-1.1,0-2.1-0.4-2.9-1.1s-1.2-1.7-1.2-2.7c0-0.8,0.2-1.6,0.6-2.3s1-1.2,1.7-1.6L23,17.3
		v-2.5c-1.2-0.3-2.2-0.9-3-1.8s-1.1-2-1.1-3.3c0-1.4,0.5-2.6,1.5-3.6s2.2-1.5,3.7-1.5S26.7,5,27.7,6c1,1,1.5,2.2,1.5,3.6H27
		c0-0.8-0.3-1.5-0.9-2S24.9,6.8,24,6.8c-0.8,0-1.5,0.3-2.1,0.8s-0.9,1.3-0.9,2c0,0.8,0.3,1.5,0.9,2.1c0.6,0.6,1.3,0.9,2.1,0.9
		c0.3,0,0.6,0.1,0.8,0.3c0.2,0.2,0.3,0.5,0.3,0.8v3.5l13.9,6.1c0.7,0.3,1.3,0.9,1.7,1.6s0.6,1.5,0.6,2.3c0,1.1-0.4,2-1.2,2.7
		s-1.8,1.1-2.8,1.1h-4v12.4H14.5z M10.6,28.9h3.9v-2.4h19v2.4h4c0.5,0,1-0.2,1.3-0.5s0.5-0.7,0.5-1.2c0-0.4-0.1-0.7-0.3-1
		s-0.5-0.5-0.8-0.7l-14.1-6.3L9.9,25.5c-0.3,0.2-0.6,0.4-0.8,0.7s-0.3,0.6-0.3,1c0,0.4,0.2,0.8,0.5,1.2S10,28.9,10.6,28.9z
		 M16.8,41.2h14.5V28.8H16.8V41.2z"/>
</g>
</svg>
