<svg width="72" height="72" viewBox="0 0 72 72" fill="none" xmlns="http://www.w3.org/2000/svg">
<path d="M16.8754 52.875V33.6H20.2504V52.875H16.8754ZM40.8004 52.875V42.975H44.2504V52.875H40.8004ZM28.8754 52.875V24H32.2504V52.875H28.8754ZM9.37539 63.975C8.17539 63.975 7.15039 63.55 6.30039 62.7C5.45039 61.85 5.02539 60.825 5.02539 59.625V17.25C5.02539 16.1 5.45039 15.1 6.30039 14.25C7.15039 13.4 8.17539 12.975 9.37539 12.975H35.9254V16.35H9.37539C9.12539 16.35 8.91289 16.4375 8.73789 16.6125C8.56289 16.7875 8.47539 17 8.47539 17.25V59.625C8.47539 59.875 8.56289 60.0875 8.73789 60.2625C8.91289 60.4375 9.12539 60.525 9.37539 60.525H51.7504C52.0004 60.525 52.2129 60.4375 52.3879 60.2625C52.5629 60.0875 52.6504 59.875 52.6504 59.625V39.075H56.0254V59.625C56.0254 60.825 55.6004 61.85 54.7504 62.7C53.9004 63.55 52.9004 63.975 51.7504 63.975H9.37539ZM54.5254 34.125C53.0754 34.125 51.6129 33.875 50.1379 33.375C48.6629 32.875 47.2754 32.125 45.9754 31.125L44.0254 32.925C43.6754 33.275 43.2754 33.4625 42.8254 33.4875C42.3754 33.5125 41.9754 33.35 41.6254 33C41.2754 32.65 41.1004 32.25 41.1004 31.8C41.1004 31.35 41.2754 30.95 41.6254 30.6L43.6504 28.65C42.7504 27.3 42.0629 25.9375 41.5879 24.5625C41.1129 23.1875 40.8754 21.825 40.8754 20.475C40.8754 16.525 42.2254 13.25 44.9254 10.65C47.6254 8.05 50.8254 6.75 54.5254 6.75H68.2504V20.475C68.2504 24.125 66.9379 27.3125 64.3129 30.0375C61.6879 32.7625 58.4254 34.125 54.5254 34.125ZM54.5254 30.75C57.4254 30.75 59.8754 29.75 61.8754 27.75C63.8754 25.75 64.8754 23.325 64.8754 20.475V10.125H54.5254C51.7754 10.125 49.3754 11.1 47.3254 13.05C45.2754 15 44.2504 17.45 44.2504 20.4C44.2504 21.3 44.4129 22.2625 44.7379 23.2875C45.0629 24.3125 45.4754 25.3 45.9754 26.25L54.9754 17.25C55.3254 16.9 55.7254 16.725 56.1754 16.725C56.6254 16.725 57.0254 16.9 57.3754 17.25C57.7254 17.6 57.9004 18.0125 57.9004 18.4875C57.9004 18.9625 57.7254 19.375 57.3754 19.725L48.4504 28.65C49.3504 29.3 50.3379 29.8125 51.4129 30.1875C52.4879 30.5625 53.5254 30.75 54.5254 30.75Z" fill="#000028"/>
</svg>
