<?xml version="1.0" encoding="utf-8"?>
<!-- Generator: Adobe Illustrator 27.0.0, SVG Export Plug-In . SVG Version: 6.00 Build 0)  -->
<svg version="1.1" id="Capa_1" xmlns="http://www.w3.org/2000/svg" xmlns:xlink="http://www.w3.org/1999/xlink" x="0px" y="0px"
	 viewBox="0 0 48 48" style="enable-background:new 0 0 48 48;" xml:space="preserve">
<style type="text/css">
	.st0{fill:#D9D9D9;filter:url(#Adobe_OpacityMaskFilter);}
	.st1{mask:url(#mask0_4477_54719_00000104691807642796862420000012312557290259879855_);}
	.st2{fill:#1C1B1F;}
</style>
<defs>
	<filter id="Adobe_OpacityMaskFilter" filterUnits="userSpaceOnUse" x="9" y="7.1" width="33.2" height="33.8">
		<feColorMatrix  type="matrix" values="1 0 0 0 0  0 1 0 0 0  0 0 1 0 0  0 0 0 1 0"/>
	</filter>
</defs>
<mask maskUnits="userSpaceOnUse" x="9" y="7.1" width="33.2" height="33.8" id="mask0_4477_54719_00000104691807642796862420000012312557290259879855_">
	<rect class="st0" width="48" height="48"/>
</mask>
<g class="st1">
	<path class="st2" d="M9,40.9v-2.3h29.5v2.3H9z M15.6,34.6c-1.8,0-3.4-0.6-4.7-1.9C9.6,31.4,9,29.8,9,28V7.1h30.2
		c0.8,0,1.5,0.3,2,0.8c0.6,0.6,0.9,1.2,0.9,2.1v6.5c0,0.8-0.3,1.5-0.9,2c-0.6,0.6-1.2,0.9-2,0.9h-4.1V28c0,1.8-0.6,3.4-1.9,4.7
		c-1.3,1.3-2.9,1.9-4.7,1.9H15.6z M35.2,17.1h4.1c0.2,0,0.4-0.1,0.5-0.2c0.1-0.1,0.2-0.3,0.2-0.5V10c0-0.2-0.1-0.3-0.2-0.4
		c-0.1-0.1-0.3-0.2-0.5-0.2h-4.1V17.1z M15.6,32.3h12.9c1.2,0,2.2-0.4,3-1.3c0.9-0.9,1.3-1.9,1.3-3V9.4H19.8v2.1l3.3,2.7
		c0.1,0.1,0.2,0.4,0.5,0.9v6.6c0,0.3-0.1,0.6-0.3,0.8c-0.2,0.2-0.5,0.4-0.8,0.4h-7c-0.3,0-0.6-0.1-0.8-0.4c-0.2-0.2-0.3-0.5-0.3-0.8
		v-6.6c0-0.1,0.1-0.4,0.4-0.9l3.4-2.7V9.4h-6.8V28c0,1.1,0.4,2.1,1.4,3C13.5,31.9,14.5,32.3,15.6,32.3z"/>
</g>
</svg>
