<?xml version="1.0" encoding="utf-8"?>
<!-- Generator: Adobe Illustrator 24.1.0, SVG Export Plug-In . SVG Version: 6.00 Build 0)  -->
<svg version="1.1" id="Capa_1" xmlns="http://www.w3.org/2000/svg" xmlns:xlink="http://www.w3.org/1999/xlink" x="0px" y="0px"
	 viewBox="0 0 48 48" style="enable-background:new 0 0 48 48;" xml:space="preserve">
<style type="text/css">
	.st0{fill:#000028;}
</style>
<path class="st0" d="M4.9,43.5c0.7-2.3,1.3-4.7,1.6-7.3s0.6-5.3,0.7-8.3c-1.4-0.4-2.5-1.2-3.4-2.5c-0.9-1.3-1.3-2.8-1.3-4.5v-2.4
	c3-1,5.9-2.3,8.5-3.9c2.6-1.6,4.9-3.1,6.8-4.6C20,8.3,22.1,6.5,24,4.6c1.9,1.9,4,3.7,6.2,5.4c2,1.5,4.2,3,6.8,4.6
	c2.6,1.6,5.4,2.9,8.5,3.9v2.4c0,1.7-0.4,3.2-1.3,4.5c-0.9,1.3-2,2.1-3.4,2.5c0.1,2.9,0.3,5.6,0.7,8.2c0.4,2.6,0.9,5.1,1.7,7.4H4.9z
	 M7.9,18.6H40c-2.7-1.3-5.4-2.8-8.1-4.6s-5.3-3.9-8-6.3c-2.5,2.3-5.1,4.4-7.8,6.2S10.8,17.4,7.9,18.6z M29.1,25.9
	c1.2,0,2.2-0.5,2.9-1.5s1.1-2.1,1.1-3.5h-7.9c0,1.3,0.4,2.5,1.1,3.5S27.9,25.9,29.1,25.9z M18.9,25.9c1.2,0,2.2-0.5,2.9-1.5
	c0.7-1,1.1-2.1,1.1-3.5h-7.9c0,1.3,0.4,2.5,1.1,3.5C16.8,25.4,17.7,25.9,18.9,25.9z M8.8,25.9c1.2,0,2.2-0.5,2.9-1.5
	s1.1-2.1,1.1-3.5H4.8c0,1.3,0.4,2.5,1.1,3.5S7.6,25.9,8.8,25.9z M7.9,41.2h7.4c0.3-1.9,0.5-4,0.7-6.1s0.3-4.6,0.5-7.5
	c-0.4-0.2-0.9-0.5-1.4-1c-0.5-0.5-0.9-1-1.2-1.5c-0.5,0.8-1.1,1.5-1.9,2c-0.8,0.5-1.6,0.8-2.6,0.9c-0.1,2.4-0.2,4.7-0.5,6.9
	C8.7,37.1,8.4,39.2,7.9,41.2z M17.6,41.2h12.9c-0.3-1.9-0.6-4-0.8-6.1c-0.2-2.1-0.3-4.5-0.4-7.2c-1.2,0-2.3-0.3-3.3-0.8
	c-1-0.5-1.7-1.3-2.1-2.3c-0.5,1-1.2,1.8-2.1,2.3c-0.9,0.6-1.9,0.8-3.1,0.8c-0.1,2.3-0.2,4.5-0.4,6.7S17.9,39,17.6,41.2z M32.8,41.2
	h7.4c-0.5-2.1-0.9-4.3-1.2-6.5s-0.4-4.4-0.4-6.7c-0.9-0.1-1.8-0.4-2.5-0.9c-0.7-0.5-1.3-1.2-1.8-2c-0.3,0.6-0.8,1.2-1.3,1.6
	c-0.5,0.4-1,0.8-1.5,1c0.1,2.1,0.2,4.2,0.4,6.4S32.4,38.7,32.8,41.2z M39.3,25.9c1.2,0,2.2-0.5,2.9-1.5c0.7-1,1.1-2.1,1.1-3.5h-7.9
	c0,1.3,0.4,2.5,1.1,3.5C37.1,25.4,38.1,25.9,39.3,25.9z"/>
</svg>
