<?xml version="1.0" encoding="utf-8"?>
<!-- Generator: Adobe Illustrator 24.1.0, SVG Export Plug-In . SVG Version: 6.00 Build 0)  -->
<svg version="1.1" id="Capa_1" xmlns="http://www.w3.org/2000/svg" xmlns:xlink="http://www.w3.org/1999/xlink" x="0px" y="0px"
	 viewBox="0 0 16 17" style="enable-background:new 0 0 16 17;" xml:space="preserve">
<style type="text/css">
	.st0{fill:#000028;}
</style>
<path class="st0" d="M5.5,12.2h5v-0.8h-5V12.2z M5.5,9.4h5V8.7h-5V9.4z M4,14.8c-0.3,0-0.5-0.1-0.7-0.3C3.1,14.4,3,14.1,3,13.9V3.1
	c0-0.3,0.1-0.5,0.3-0.7C3.5,2.3,3.7,2.2,4,2.2h5.8L13,5.4v8.4c0,0.3-0.1,0.5-0.3,0.7c-0.2,0.2-0.4,0.3-0.7,0.3H4z M9.4,5.7V2.9H4
	c-0.1,0-0.1,0-0.2,0.1c0,0-0.1,0.1-0.1,0.1v10.7c0,0.1,0,0.1,0.1,0.1c0,0,0.1,0.1,0.2,0.1H12c0.1,0,0.1,0,0.1-0.1
	c0,0,0.1-0.1,0.1-0.1V5.7H9.4z M3.8,2.9v2.8V2.9v2.8v8.1c0,0.1,0,0.1,0,0.1c0,0,0,0.1,0,0.1s0,0,0-0.1c0,0,0-0.1,0-0.1V3.1
	C3.8,3.1,3.8,3,3.8,2.9C3.8,2.9,3.8,2.9,3.8,2.9z"/>
</svg>
