<?xml version="1.0" encoding="utf-8"?>
<!-- Generator: Adobe Illustrator 24.1.0, SVG Export Plug-In . SVG Version: 6.00 Build 0)  -->
<svg version="1.1" id="Capa_1" xmlns="http://www.w3.org/2000/svg" xmlns:xlink="http://www.w3.org/1999/xlink" x="0px" y="0px"
	 viewBox="0 0 16 17" style="enable-background:new 0 0 16 17;" xml:space="preserve">
<style type="text/css">
	.st0{fill:#000028;}
</style>
<path class="st0" d="M8,11L5.2,8.2l0.6-0.5l1.8,1.8V3.4h0.8v6.2l1.8-1.8l0.6,0.5L8,11z M4,13.5c-0.3,0-0.5-0.1-0.7-0.3
	C3.1,13,3,12.8,3,12.5v-2.1h0.8v2.1c0,0.1,0,0.1,0.1,0.2c0,0,0.1,0.1,0.2,0.1H12c0.1,0,0.1,0,0.1-0.1c0,0,0.1-0.1,0.1-0.2v-2.1H13
	v2.1c0,0.3-0.1,0.5-0.3,0.7c-0.2,0.2-0.4,0.3-0.7,0.3H4z"/>
</svg>
