<?xml version="1.0" encoding="utf-8"?>
<!-- Generator: Adobe Illustrator 27.0.0, SVG Export Plug-In . SVG Version: 6.00 Build 0)  -->
<svg version="1.1" id="Capa_1" xmlns="http://www.w3.org/2000/svg" xmlns:xlink="http://www.w3.org/1999/xlink" x="0px" y="0px"
	 viewBox="0 0 28 28" style="enable-background:new 0 0 28 28;" xml:space="preserve">
<style type="text/css">
	.st0{fill:#000028;}
</style>
<path class="st0" d="M3.1,21.2v-1.3h21.9v1.3H3.1z M3.9,18.1v-0.2c0-2.8,0.8-5,2.5-6.8c1.7-1.7,3.8-2.8,6.3-3.3V6.9
	c0-0.4,0.1-0.7,0.4-0.9c0.3-0.3,0.6-0.4,0.9-0.4s0.7,0.1,0.9,0.4c0.3,0.3,0.4,0.6,0.4,0.9v0.8c2.5,0.4,4.6,1.5,6.3,3.3
	c1.7,1.7,2.5,4,2.5,6.8v0.2H3.9z M5.3,16.8h17.4c-0.2-2.3-1.2-4.2-2.9-5.6c-1.7-1.4-3.6-2.1-5.9-2.1c-2.2,0-4.2,0.7-5.8,2.1
	C6.5,12.6,5.5,14.5,5.3,16.8z"/>
</svg>
