<?xml version="1.0" encoding="utf-8"?>
<!-- Generator: Adobe Illustrator 27.0.0, SVG Export Plug-In . SVG Version: 6.00 Build 0)  -->
<svg version="1.1" id="Capa_1" xmlns="http://www.w3.org/2000/svg" xmlns:xlink="http://www.w3.org/1999/xlink" x="0px" y="0px"
	 viewBox="0 0 28 28" style="enable-background:new 0 0 28 28;" xml:space="preserve">
<style type="text/css">
	.st0{fill:#000028;}
</style>
<path class="st0" d="M14,19.7c2.1-1.7,3.7-3.3,4.7-4.8c1.1-1.5,1.6-3,1.6-4.4c0-1.2-0.2-2.2-0.6-3c-0.4-0.8-1-1.5-1.6-2
	c-0.6-0.5-1.3-0.9-2.1-1.1c-0.7-0.2-1.4-0.3-2-0.3c-0.6,0-1.3,0.1-2,0.3c-0.7,0.2-1.4,0.6-2.1,1.1c-0.6,0.5-1.2,1.2-1.6,2
	c-0.4,0.8-0.6,1.8-0.6,3c0,1.4,0.5,2.8,1.6,4.4C10.3,16.4,11.9,18,14,19.7z M14,21.3c-2.6-1.9-4.5-3.8-5.8-5.6
	c-1.3-1.8-1.9-3.5-1.9-5.2C6.3,9.2,6.6,8,7,7.1c0.5-1,1.1-1.8,1.8-2.5c0.7-0.7,1.6-1.2,2.5-1.5c0.9-0.3,1.8-0.5,2.7-0.5
	c0.9,0,1.8,0.2,2.7,0.5c0.9,0.3,1.7,0.8,2.5,1.5c0.7,0.7,1.3,1.5,1.8,2.5c0.5,1,0.7,2.1,0.7,3.4c0,1.7-0.6,3.5-1.9,5.2
	C18.5,17.5,16.6,19.4,14,21.3z M14,12.1c0.5,0,0.9-0.2,1.3-0.5c0.4-0.4,0.5-0.8,0.5-1.3c0-0.5-0.2-0.9-0.5-1.3
	c-0.4-0.3-0.8-0.5-1.3-0.5c-0.5,0-0.9,0.2-1.3,0.5c-0.4,0.4-0.5,0.8-0.5,1.3c0,0.5,0.2,0.9,0.5,1.3C13.1,11.9,13.5,12.1,14,12.1z
	 M6.3,25.4v-1.3h15.3v1.3H6.3z"/>
</svg>
