<?xml version="1.0" encoding="utf-8"?>
<!-- Generator: Adobe Illustrator 27.0.0, SVG Export Plug-In . SVG Version: 6.00 Build 0)  -->
<svg version="1.1" id="Capa_1" xmlns="http://www.w3.org/2000/svg" xmlns:xlink="http://www.w3.org/1999/xlink" x="0px" y="0px"
	 viewBox="0 0 28 28" style="enable-background:new 0 0 28 28;" xml:space="preserve">
<style type="text/css">
	.st0{fill:#000028;}
</style>
<path class="st0" d="M2.8,24V3.6h10.9v4.8h11.6V24H2.8z M4.1,22.7h3.4v-3.5H4.1V22.7z M4.1,17.9h3.4v-3.4H4.1V17.9z M4.1,13.1h3.4
	V9.7H4.1V13.1z M4.1,8.4h3.4V4.9H4.1V8.4z M8.9,22.7h3.4v-3.5H8.9V22.7z M8.9,17.9h3.4v-3.4H8.9V17.9z M8.9,13.1h3.4V9.7H8.9V13.1z
	 M8.9,8.4h3.4V4.9H8.9V8.4z M13.6,22.7h10.3v-13H13.6v3.4h2.6v1.3h-2.6v3.4h2.6v1.3h-2.6V22.7z M19.3,14.5v-1.3h1.3v1.3H19.3z
	 M19.3,19.2v-1.3h1.3v1.3H19.3z"/>
</svg>
