<?xml version="1.0" encoding="utf-8"?>
<!-- Generator: Adobe Illustrator 27.0.0, SVG Export Plug-In . SVG Version: 6.00 Build 0)  -->
<svg version="1.1" id="Capa_1" xmlns="http://www.w3.org/2000/svg" xmlns:xlink="http://www.w3.org/1999/xlink" x="0px" y="0px"
	 viewBox="0 0 64 12" style="enable-background:new 0 0 64 12;" xml:space="preserve">
<style type="text/css">
	.st0{fill:#4AA482;stroke:#4AA482;}
	.st1{fill:none;stroke:#4AA482;}
</style>
<path class="st0" d="M9.3,6c0,1.8-1.5,3.3-3.3,3.3S2.7,7.8,2.7,6S4.2,2.7,6,2.7S9.3,4.2,9.3,6z"/>
<path class="st1" d="M11.5,6c0,3-2.5,5.5-5.5,5.5S0.5,9,0.5,6C0.5,3,3,0.5,6,0.5S11.5,3,11.5,6z"/>
<path class="st1" d="M24.5,6c0,3-2.5,5.5-5.5,5.5S13.5,9,13.5,6c0-3,2.5-5.5,5.5-5.5S24.5,3,24.5,6z"/>
<path class="st1" d="M37.5,6c0,3-2.5,5.5-5.5,5.5S26.5,9,26.5,6c0-3,2.5-5.5,5.5-5.5S37.5,3,37.5,6z"/>
<path class="st1" d="M50.5,6c0,3-2.5,5.5-5.5,5.5S39.5,9,39.5,6c0-3,2.5-5.5,5.5-5.5S50.5,3,50.5,6z"/>
<path class="st1" d="M63.5,6c0,3-2.5,5.5-5.5,5.5S52.5,9,52.5,6c0-3,2.5-5.5,5.5-5.5S63.5,3,63.5,6z"/>
</svg>
