<svg width="20" height="21" viewBox="0 0 20 21" fill="none" xmlns="http://www.w3.org/2000/svg">
<mask id="mask0_2445_54897" style="mask-type:alpha" maskUnits="userSpaceOnUse" x="0" y="0" width="20" height="21">
<rect y="0.5" width="20" height="20" fill="#D9D9D9"/>
</mask>
<g mask="url(#mask0_2445_54897)">
<path d="M11.2502 11.1875V16.0208C11.2502 16.2292 11.1807 16.4028 11.0419 16.5417C10.903 16.6806 10.7294 16.75 10.521 16.75H9.47935C9.27102 16.75 9.09741 16.6806 8.95852 16.5417C8.81963 16.4028 8.75019 16.2292 8.75019 16.0208V11.1875L3.97936 5.125C3.82658 4.94444 3.80574 4.75347 3.91686 4.55208C4.02797 4.35069 4.18769 4.25 4.39602 4.25H15.6044C15.8127 4.25 15.9724 4.35069 16.0835 4.55208C16.1946 4.75347 16.1738 4.94444 16.021 5.125L11.2502 11.1875ZM10.0002 11.25L14.771 5.1875H5.22936L10.0002 11.25Z" fill="white"/>
</g>
</svg>
