<?xml version="1.0" encoding="utf-8"?>
<!-- Generator: Adobe Illustrator 27.0.0, SVG Export Plug-In . SVG Version: 6.00 Build 0)  -->
<svg version="1.1" id="Capa_1" xmlns="http://www.w3.org/2000/svg" xmlns:xlink="http://www.w3.org/1999/xlink" x="0px" y="0px"
	 viewBox="0 0 28 28" style="enable-background:new 0 0 28 28;" xml:space="preserve">
<style type="text/css">
	.st0{fill:#000028;}
</style>
<path class="st0" d="M21.8,9.3l-1.1-2.5l-2.6-1.2l2.6-1.1l1.1-2.4l1.1,2.4l2.6,1.1l-2.6,1.2L21.8,9.3z M21.8,25.9l-1.1-2.4l-2.6-1.1
	l2.6-1.1l1.1-2.5l1.1,2.5l2.6,1.1l-2.6,1.1L21.8,25.9z M9.8,21.2l-2.3-5l-5-2.3l5-2.2l2.3-4.9l2.3,4.9l5,2.2l-5,2.3L9.8,21.2z
	 M9.8,17.9l1.3-2.7l2.8-1.3l-2.8-1.2L9.8,10l-1.3,2.7L5.7,14l2.8,1.3L9.8,17.9z"/>
</svg>
