<?xml version="1.0" encoding="utf-8"?>
<!-- Generator: Adobe Illustrator 27.0.0, SVG Export Plug-In . SVG Version: 6.00 Build 0)  -->
<svg version="1.1" id="Capa_1" xmlns="http://www.w3.org/2000/svg" xmlns:xlink="http://www.w3.org/1999/xlink" x="0px" y="0px"
	 viewBox="0 0 28 28" style="enable-background:new 0 0 28 28;" xml:space="preserve">
<style type="text/css">
	.st0{fill:#000028;}
</style>
<path class="st0" d="M4.2,22.8c-0.4,0-0.7-0.1-0.9-0.4c-0.3-0.3-0.4-0.6-0.4-0.9v-4.1c0.7-0.2,1.3-0.7,1.8-1.3
	c0.5-0.6,0.7-1.3,0.7-2.1c0-0.8-0.2-1.5-0.7-2.1c-0.5-0.6-1-1.1-1.8-1.3V6.6c0-0.4,0.1-0.7,0.4-0.9c0.3-0.3,0.6-0.4,0.9-0.4h19.5
	c0.4,0,0.7,0.1,0.9,0.4c0.3,0.3,0.4,0.6,0.4,0.9v4.1c-0.7,0.2-1.3,0.7-1.8,1.3c-0.4,0.6-0.7,1.3-0.7,2.1c0,0.8,0.2,1.5,0.7,2.1
	c0.4,0.6,1,1.1,1.8,1.3v4.1c0,0.4-0.1,0.7-0.4,0.9c-0.3,0.3-0.6,0.4-0.9,0.4H4.2z M4.2,21.4h19.5v-3.1c-0.7-0.5-1.3-1.1-1.8-1.8
	c-0.5-0.8-0.7-1.6-0.7-2.5c0-0.9,0.2-1.7,0.7-2.5c0.5-0.8,1-1.4,1.8-1.8V6.6H4.2v3.1c0.7,0.5,1.3,1.1,1.8,1.8
	c0.5,0.8,0.7,1.6,0.7,2.5c0,0.9-0.2,1.7-0.7,2.5c-0.5,0.8-1.1,1.4-1.8,1.8V21.4z M11.3,18.1L14,16l2.7,2.1l-1-3.3l2.6-2.1h-3.1
	L14,9.5l-1.1,3.1H9.8l2.6,2.1L11.3,18.1z"/>
</svg>
