<?xml version="1.0" encoding="utf-8"?>
<!-- Generator: Adobe Illustrator 27.0.0, SVG Export Plug-In . SVG Version: 6.00 Build 0)  -->
<svg version="1.1" id="Capa_1" xmlns="http://www.w3.org/2000/svg" xmlns:xlink="http://www.w3.org/1999/xlink" x="0px" y="0px"
	 viewBox="0 0 28 28" style="enable-background:new 0 0 28 28;" xml:space="preserve">
<style type="text/css">
	.st0{fill:#000028;}
</style>
<path class="st0" d="M26.2,13.7v-1.9c0-0.4-0.2-0.8-0.5-1.2c-0.3-0.3-0.7-0.5-1.2-0.5h-8.7L17,3.9V3.7c0-0.2,0-0.4-0.1-0.5
	c-0.1-0.2-0.1-0.3-0.3-0.4L16,2.2l-7.7,7.9H2.9v13.8h5.4h12.3c0.4,0,0.8-0.1,1.2-0.4c0.4-0.3,0.7-0.6,0.8-1l3.4-8
	c0.1-0.1,0.1-0.2,0.1-0.4S26.2,13.8,26.2,13.7z M8.3,22.6h-4V11.4h4V22.6z M24.8,14l-3.5,8.3c0,0.1-0.1,0.2-0.2,0.2
	c-0.1,0-0.2,0.1-0.2,0.1H9.6c0,0,0,0,0-0.1c0,0,0-0.1,0-0.2V14v-2.3c0-0.1,0-0.2,0-0.2c0-0.1,0-0.1,0-0.1v-0.8l6-6.2l-1.5,7h10.3
	c0.1,0,0.2,0,0.2,0.1c0.1,0.1,0.1,0.2,0.1,0.2V14z"/>
</svg>
