<?xml version="1.0" encoding="utf-8"?>
<!-- Generator: Adobe Illustrator 24.1.0, SVG Export Plug-In . SVG Version: 6.00 Build 0)  -->
<svg version="1.1" id="Capa_1" xmlns="http://www.w3.org/2000/svg" xmlns:xlink="http://www.w3.org/1999/xlink" x="0px" y="0px"
	 viewBox="0 0 48 48" style="enable-background:new 0 0 48 48;" xml:space="preserve">
<style type="text/css">
	.st0{fill:#000028;}
</style>
<path class="st0" d="M27.5,43.3l-1.8-1.8l7.1-7.1L13.6,15.2l-7.1,7.1l-1.8-1.8l2.9-2.9l-2.3-2.3l4.2-4.2L7.2,8.8l1.6-1.6l2.3,2.3
	l4.2-4.2l2.3,2.3l2.9-2.9l1.8,1.8l-7.1,7.1l19.2,19.2l7.1-7.1l1.8,1.8l-2.8,2.9l2.3,2.3L38.5,37l2.2,2.2l-1.6,1.6l-2.2-2.3l-4.2,4.2
	l-2.3-2.3L27.5,43.3z"/>
</svg>
