<svg width="94" height="94" viewBox="0 0 94 94" fill="none" xmlns="http://www.w3.org/2000/svg">
<path d="M47 61.8784C43.0333 61.8784 39.5417 60.5633 36.525 57.9331C33.5083 55.303 32 51.738 32 47.2382C32 44.2912 33.2417 41.059 35.725 37.5415C38.2083 34.0241 41.9667 30.1898 47 26.0386C52.0333 30.1898 55.7917 34.0241 58.275 37.5415C60.7583 41.059 62 44.2912 62 47.2382C62 51.738 60.4917 55.303 57.475 57.9331C54.4583 60.5633 50.9667 61.8784 47 61.8784ZM47 59.7394C50.5667 59.7394 53.5833 58.559 56.05 56.1982C58.5167 53.8374 59.75 50.8507 59.75 47.2382C59.75 44.7982 58.675 42.0255 56.525 38.92C54.375 35.8145 51.2 32.4872 47 28.9381C42.8 32.4872 39.625 35.8145 37.475 38.92C35.325 42.0255 34.25 44.7982 34.25 47.2382C34.25 50.8507 35.4833 53.8374 37.95 56.1982C40.4167 58.559 43.4333 59.7394 47 59.7394V59.7394ZM47.05 56.5547C47.4833 56.5547 47.8167 56.4834 48.05 56.3408C48.2833 56.1982 48.4 55.9684 48.4 55.6516C48.4 55.398 48.2833 55.1921 48.05 55.0336C47.8167 54.8752 47.4667 54.796 47 54.796C45.6333 54.8277 44.175 54.4078 42.625 53.5363C41.075 52.6649 40.1 51.1676 39.7 49.0445C39.6333 48.7593 39.5083 48.5375 39.325 48.379C39.1417 48.2206 38.9333 48.1414 38.7 48.1414C38.4 48.1414 38.1667 48.2523 38 48.4741C37.8333 48.6959 37.7833 48.9494 37.85 49.2346C38.35 51.8331 39.55 53.7106 41.45 54.8673C43.35 56.0239 45.2167 56.5864 47.05 56.5547V56.5547Z" fill="#000028"/>
</svg>
