<?xml version="1.0" encoding="utf-8"?>
<!-- Generator: Adobe Illustrator 26.3.1, SVG Export Plug-In . SVG Version: 6.00 Build 0)  -->
<svg version="1.1" id="Capa_1" xmlns="http://www.w3.org/2000/svg" xmlns:xlink="http://www.w3.org/1999/xlink" x="0px" y="0px"
	 viewBox="0 0 48 48" style="enable-background:new 0 0 48 48;" xml:space="preserve">
<style type="text/css">
	.st0{fill:#000028;}
</style>
<path class="st0" d="M2.5,43.5V4.5h20.8v9.2h22.2v29.9H2.5z M5,41h6.6v-6.6H5V41z M5,31.9h6.6v-6.6H5V31.9z M5,22.7h6.6v-6.6H5V22.7
	z M5,13.6h6.6V7H5V13.6z M14.2,41h6.6v-6.6h-6.6V41z M14.2,31.9h6.6v-6.6h-6.6V31.9z M14.2,22.7h6.6v-6.6h-6.6V22.7z M14.2,13.6h6.6
	V7h-6.6V13.6z M23.3,41H43V16.1H23.3v6.6h4.9v2.6h-4.9v6.6h4.9v2.5h-4.9V41z M34.1,25.3v-2.6h2.6v2.6H34.1z M34.1,34.4v-2.5h2.6v2.5
	H34.1z"/>
</svg>
