<svg width="14" height="14" viewBox="0 0 14 14" fill="none" xmlns="http://www.w3.org/2000/svg">
<path d="M6.66675 10.1667H7.41675V6.33335H6.66675V10.1667ZM7.00008 5.26669C7.1223 5.26669 7.22786 5.22502 7.31675 5.14169C7.40564 5.05835 7.45008 4.95558 7.45008 4.83335C7.45008 4.68891 7.40841 4.57502 7.32508 4.49169C7.24175 4.40835 7.13341 4.36669 7.00008 4.36669C6.86675 4.36669 6.75841 4.41113 6.67508 4.50002C6.59175 4.58891 6.55008 4.69446 6.55008 4.81669C6.55008 4.95002 6.59175 5.05835 6.67508 5.14169C6.75841 5.22502 6.86675 5.26669 7.00008 5.26669ZM7.00008 13.3334C6.11119 13.3334 5.28064 13.1722 4.50841 12.85C3.73619 12.5278 3.06397 12.0806 2.49175 11.5084C1.91953 10.9361 1.4723 10.2639 1.15008 9.49169C0.827859 8.71946 0.666748 7.88891 0.666748 7.00002C0.666748 6.11113 0.827859 5.28335 1.15008 4.51669C1.4723 3.75002 1.91953 3.08058 2.49175 2.50835C3.06397 1.93613 3.73619 1.48613 4.50841 1.15835C5.28064 0.830576 6.11119 0.666687 7.00008 0.666687C7.88897 0.666687 8.71675 0.830576 9.48341 1.15835C10.2501 1.48613 10.9195 1.93613 11.4917 2.50835C12.064 3.08058 12.514 3.75002 12.8417 4.51669C13.1695 5.28335 13.3334 6.11113 13.3334 7.00002C13.3334 7.88891 13.1695 8.71946 12.8417 9.49169C12.514 10.2639 12.064 10.9361 11.4917 11.5084C10.9195 12.0806 10.2501 12.5278 9.48341 12.85C8.71675 13.1722 7.88897 13.3334 7.00008 13.3334ZM7.00008 12.5834C8.53341 12.5834 9.8473 12.0361 10.9417 10.9417C12.0362 9.84724 12.5834 8.53335 12.5834 7.00002C12.5834 5.46669 12.0362 4.1528 10.9417 3.05835C9.8473 1.96391 8.53341 1.41669 7.00008 1.41669C5.46675 1.41669 4.15286 1.96391 3.05841 3.05835C1.96397 4.1528 1.41675 5.46669 1.41675 7.00002C1.41675 8.53335 1.96397 9.84724 3.05841 10.9417C4.15286 12.0361 5.46675 12.5834 7.00008 12.5834Z" fill="#000028"/>
</svg>
