<?xml version="1.0" encoding="utf-8"?>
<!-- Generator: Adobe Illustrator 26.3.1, SVG Export Plug-In . SVG Version: 6.00 Build 0)  -->
<svg version="1.1" id="Capa_1" xmlns="http://www.w3.org/2000/svg" xmlns:xlink="http://www.w3.org/1999/xlink" x="0px" y="0px"
	 viewBox="0 0 33 33" style="enable-background:new 0 0 33 33;" xml:space="preserve">
<style type="text/css">
	.st0{fill:#99999A;}
</style>
<g>
	<path class="st0" d="M19.7,7.8H18c0,0.6,0,2.9,0,5.9c0,1.6,0,3.3,0,4.5c0,1.2,0,2.1,0,2.1c0,2-1.9,3.5-4.1,3.5
		c-2.2,0-3.9-1.6-3.9-3.6c0-1.9,1.6-3.3,3.6-3.5v-1.5c-2.9,0.2-5.2,2.3-5.2,5c0,2.8,2.5,5,5.5,5c3.1,0,5.5-2.2,5.5-5v-7.7
		c0-0.2,0.1-0.4,0.3-0.6c0.3-0.2,0.8-0.1,1,0.2c0.8,1.1,2.2,1.8,3.8,1.9v-1.9C22.1,11.7,20.2,10,19.7,7.8z"/>
	<path class="st0" d="M16.5,0C7.4,0,0,7.4,0,16.5S7.4,33,16.5,33S33,25.6,33,16.5S25.6,0,16.5,0z M26,14.7c0,0.3-0.3,0.6-0.7,0.7
		c-0.2,0-0.4,0-0.6,0c-1.5,0-2.8-0.5-3.9-1.3v6c0,3.5-3.1,6.4-7,6.4c-3.9,0-7-2.9-7-6.4s3.1-6.4,7-6.4c0.2,0,0.3,0,0.4,0
		c0.4,0,0.7,0.3,0.7,0.7v2.8c0,0,0,0.1,0,0.1c0,0.4-0.4,0.6-0.8,0.6c-0.2,0-0.3,0-0.3,0c-1.4,0-2.5,1-2.5,2.2s1.1,2.2,2.5,2.2
		c1.4,0,2.6-1,2.6-2.2c0-0.1,0-0.8,0-2.1c0-1.2,0-2.9,0-4.5c0-3.3,0-6.5,0-6.5c0-0.4,0.3-0.7,0.7-0.7h2.9c0.4,0,0.7,0.3,0.7,0.6
		c0.2,2.1,2.1,3.7,4.4,3.9c0.4,0,0.7,0.3,0.7,0.7V14.7z"/>
</g>
</svg>
