<?xml version="1.0" encoding="utf-8"?>
<!-- Generator: Adobe Illustrator 26.3.1, SVG Export Plug-In . SVG Version: 6.00 Build 0)  -->
<svg version="1.1" id="Capa_1" xmlns="http://www.w3.org/2000/svg" xmlns:xlink="http://www.w3.org/1999/xlink" x="0px" y="0px"
	 viewBox="0 0 33 33" style="enable-background:new 0 0 33 33;" xml:space="preserve">
<style type="text/css">
	.st0{fill:#99999A;}
</style>
<g>
	<path class="st0" d="M23.5,11.2c-0.2-0.4-0.4-0.7-0.7-1c-0.3-0.3-0.6-0.5-1-0.7c-0.3-0.1-0.8-0.3-1.7-0.3c-0.9,0-1.2,0-3.6,0
		s-2.7,0-3.6,0c-0.9,0-1.4,0.2-1.7,0.3c-0.4,0.2-0.7,0.4-1,0.7c-0.3,0.3-0.5,0.6-0.7,1c-0.1,0.3-0.3,0.8-0.3,1.7c0,0.9,0,1.2,0,3.6
		s0,2.7,0,3.6c0,0.9,0.2,1.4,0.3,1.7c0.2,0.4,0.4,0.7,0.7,1c0.3,0.3,0.6,0.5,1,0.7c0.3,0.1,0.8,0.3,1.7,0.3c0.9,0,1.2,0,3.6,0
		s2.7,0,3.6,0c0.9,0,1.4-0.2,1.7-0.3c0.4-0.2,0.7-0.4,1-0.7c0.3-0.3,0.5-0.6,0.7-1c0.1-0.3,0.3-0.8,0.3-1.7c0-0.9,0-1.2,0-3.6
		s0-2.7,0-3.6C23.8,12,23.7,11.5,23.5,11.2z M16.5,21.1c-2.6,0-4.6-2.1-4.6-4.6c0-2.6,2.1-4.6,4.6-4.6c2.6,0,4.6,2.1,4.6,4.6
		C21.2,19.1,19.1,21.1,16.5,21.1z M21.3,12.8c-0.6,0-1.1-0.5-1.1-1.1s0.5-1.1,1.1-1.1s1.1,0.5,1.1,1.1S21.9,12.8,21.3,12.8z"/>
	<path class="st0" d="M16.5,0C7.4,0,0,7.4,0,16.5S7.4,33,16.5,33S33,25.6,33,16.5S25.6,0,16.5,0z M25.5,20.2c0,1-0.2,1.6-0.4,2.2
		c-0.2,0.6-0.5,1.1-1,1.6c-0.5,0.5-1,0.8-1.6,1c-0.6,0.2-1.2,0.4-2.2,0.4c-1,0-1.3,0-3.7,0s-2.7,0-3.7,0c-1,0-1.6-0.2-2.2-0.4
		C10,24.8,9.5,24.5,9,24c-0.5-0.5-0.8-1-1-1.6c-0.2-0.6-0.4-1.2-0.4-2.2c0-1,0-1.3,0-3.7s0-2.8,0-3.7c0-1,0.2-1.6,0.4-2.2
		C8.2,10,8.5,9.5,9,9c0.5-0.5,1-0.8,1.6-1c0.6-0.2,1.2-0.4,2.2-0.4c1,0,1.3,0,3.7,0s2.7,0,3.7,0.1s1.6,0.2,2.2,0.4
		C23,8.2,23.5,8.5,24,9c0.5,0.5,0.8,1,1,1.6c0.2,0.6,0.4,1.2,0.4,2.2c0,1,0,1.3,0,3.7S25.5,19.3,25.5,20.2z"/>
	<path class="st0" d="M16.5,13.5c-1.7,0-3,1.4-3,3c0,1.7,1.4,3,3,3c1.7,0,3-1.3,3-3C19.5,14.8,18.2,13.5,16.5,13.5z"/>
</g>
</svg>
