<?xml version="1.0" encoding="utf-8"?>
<!-- Generator: Adobe Illustrator 26.3.1, SVG Export Plug-In . SVG Version: 6.00 Build 0)  -->
<svg version="1.1" id="Capa_1" xmlns="http://www.w3.org/2000/svg" xmlns:xlink="http://www.w3.org/1999/xlink" x="0px" y="0px"
	 viewBox="0 0 20 20" style="enable-background:new 0 0 20 20;" xml:space="preserve">
<style type="text/css">
	.st0{fill:#000028;}
</style>
<path class="st0" d="M10,14c1.5-1.2,2.6-2.3,3.4-3.4c0.8-1.1,1.1-2.1,1.1-3.1c0-0.8-0.2-1.6-0.5-2.2c-0.3-0.6-0.7-1.1-1.1-1.4
	c-0.5-0.4-1-0.6-1.5-0.8s-1-0.2-1.4-0.2c-0.4,0-0.9,0.1-1.4,0.2C8,3.2,7.5,3.5,7.1,3.9C6.6,4.2,6.2,4.7,5.9,5.3
	C5.6,5.9,5.5,6.6,5.5,7.5c0,1,0.4,2,1.1,3.1C7.4,11.7,8.5,12.8,10,14z M10,15.2c-1.8-1.4-3.2-2.7-4.1-4C5,10,4.5,8.7,4.5,7.5
	C4.5,6.5,4.7,5.7,5,5c0.3-0.7,0.8-1.3,1.3-1.7c0.5-0.5,1.1-0.8,1.8-1.1C8.7,2,9.4,1.9,10,1.9c0.6,0,1.3,0.1,1.9,0.4s1.2,0.6,1.8,1.1
	C14.2,3.8,14.6,4.3,15,5c0.3,0.7,0.5,1.5,0.5,2.4c0,1.2-0.5,2.5-1.4,3.8C13.2,12.5,11.8,13.8,10,15.2z M10,8.6
	c0.4,0,0.7-0.1,0.9-0.4c0.3-0.3,0.4-0.6,0.4-0.9c0-0.4-0.1-0.7-0.4-0.9C10.7,6.2,10.4,6,10,6S9.3,6.2,9.1,6.4C8.8,6.7,8.7,7,8.7,7.4
	c0,0.4,0.1,0.7,0.4,0.9C9.3,8.5,9.6,8.6,10,8.6z M4.5,18.1v-0.9h11v0.9H4.5z"/>
</svg>
