<svg width="25" height="24" viewBox="0 0 25 24" fill="none" xmlns="http://www.w3.org/2000/svg">
<path d="M12.5355 16.85C14.3751 15.4167 15.7677 14.0417 16.7133 12.725C17.659 11.4083 18.1318 10.1583 18.1318 8.975C18.1318 7.95833 17.9426 7.09583 17.5644 6.3875C17.1862 5.67917 16.7133 5.1 16.146 4.65C15.5786 4.2 14.9683 3.875 14.315 3.675C13.6616 3.475 13.0685 3.375 12.5355 3.375C12.0025 3.375 11.4094 3.475 10.756 3.675C10.1027 3.875 9.49237 4.2 8.925 4.65C8.35764 5.1 7.88484 5.67917 7.5066 6.3875C7.12835 7.09583 6.93923 7.95833 6.93923 8.975C6.93923 10.1583 7.41204 11.4083 8.35764 12.725C9.30325 14.0417 10.6959 15.4167 12.5355 16.85ZM12.5355 18.275C10.2489 16.6083 8.54676 15.0083 7.42923 13.475C6.3117 11.9417 5.75293 10.4417 5.75293 8.975C5.75293 7.85833 5.95924 6.88333 6.37187 6.05C6.7845 5.21667 7.31318 4.51667 7.95791 3.95C8.60264 3.38333 9.32904 2.95833 10.1371 2.675C10.9452 2.39167 11.7446 2.25 12.5355 2.25C13.3264 2.25 14.1258 2.39167 14.9339 2.675C15.742 2.95833 16.4684 3.38333 17.1131 3.95C17.7578 4.51667 18.2865 5.21667 18.6991 6.05C19.1117 6.88333 19.3181 7.85833 19.3181 8.975C19.3181 10.4417 18.7593 11.9417 17.6418 13.475C16.5242 15.0083 14.8221 16.6083 12.5355 18.275ZM12.5355 10.375C12.9825 10.375 13.365 10.2208 13.6831 9.9125C14.0012 9.60417 14.1602 9.23333 14.1602 8.8C14.1602 8.36667 14.0012 8 13.6831 7.7C13.365 7.4 12.9825 7.25 12.5355 7.25C12.0885 7.25 11.7059 7.40417 11.3879 7.7125C11.0698 8.02083 10.9108 8.39167 10.9108 8.825C10.9108 9.25833 11.0698 9.625 11.3879 9.925C11.7059 10.225 12.0885 10.375 12.5355 10.375ZM5.75293 21.75V20.625H19.3181V21.75H5.75293Z" fill="#000028"/>
</svg>
