<?xml version="1.0" encoding="utf-8"?>
<!-- Generator: Adobe Illustrator 27.4.0, SVG Export Plug-In . SVG Version: 6.00 Build 0)  -->
<svg version="1.1" id="Capa_1" xmlns="http://www.w3.org/2000/svg" xmlns:xlink="http://www.w3.org/1999/xlink" x="0px" y="0px"
	 viewBox="0 0 20 20" style="enable-background:new 0 0 20 20;" xml:space="preserve">
<style type="text/css">
	.st0{fill:#000028;}
</style>
<path class="st0" d="M9.5,14.8h1.1V9H9.5V14.8z M10,7.4c0.2,0,0.3-0.1,0.5-0.2c0.1-0.1,0.2-0.3,0.2-0.5s-0.1-0.4-0.2-0.5
	S10.2,6.1,10,6.1s-0.4,0-0.5,0.1S9.3,6.5,9.3,6.7s0.1,0.4,0.2,0.5S9.8,7.4,10,7.4z M10,19.5c-1.3,0-2.6-0.2-3.7-0.7
	c-1.2-0.5-2.2-1.2-3-2c-0.9-0.9-1.5-1.9-2-3c-0.5-1.2-0.7-2.4-0.7-3.7s0.2-2.6,0.7-3.7c0.5-1.2,1.2-2.2,2-3s1.9-1.5,3-2
	C7.4,0.7,8.7,0.5,10,0.5s2.6,0.2,3.7,0.7s2.2,1.2,3,2c0.9,0.9,1.5,1.9,2,3c0.5,1.2,0.7,2.4,0.7,3.7s-0.2,2.6-0.7,3.7
	c-0.5,1.2-1.2,2.2-2,3c-0.9,0.9-1.9,1.5-3,2C12.6,19.3,11.3,19.5,10,19.5z M10,18.4c2.3,0,4.3-0.8,5.9-2.5c1.6-1.6,2.5-3.6,2.5-5.9
	s-0.8-4.3-2.5-5.9c-1.6-1.6-3.6-2.5-5.9-2.5S5.7,2.4,4.1,4.1S1.6,7.7,1.6,10s0.8,4.3,2.5,5.9C5.7,17.6,7.7,18.4,10,18.4z"/>
</svg>
