<?xml version="1.0" encoding="utf-8"?>
<!-- Generator: Adobe Illustrator 26.3.1, SVG Export Plug-In . SVG Version: 6.00 Build 0)  -->
<svg version="1.1" id="Capa_1" xmlns="http://www.w3.org/2000/svg" xmlns:xlink="http://www.w3.org/1999/xlink" x="0px" y="0px"
	 viewBox="0 0 32 32" style="enable-background:new 0 0 32 32;" xml:space="preserve">
<style type="text/css">
	.st0{fill:#FFFFFF;}
</style>
<g>
	<path class="st0" d="M31.9,9.4c-0.1-1.7-0.4-2.9-0.7-3.9c-0.4-1.1-1-1.9-1.9-2.8s-1.8-1.4-2.8-1.9c-1-0.4-2.2-0.7-3.9-0.7
		C20.9,0,20.4,0,16,0s-4.9,0-6.6,0.1S6.6,0.4,5.5,0.8s-1.9,1-2.8,1.9S1.2,4.5,0.8,5.5S0.1,7.7,0.1,9.4C0,11.1,0,11.7,0,16
		s0,4.9,0.1,6.6s0.4,2.9,0.7,3.9c0.4,1.1,1,1.9,1.9,2.8s1.8,1.4,2.8,1.9c1,0.4,2.2,0.7,3.9,0.7C11.1,32,11.6,32,16,32s4.9,0,6.6-0.1
		s2.9-0.4,3.9-0.7c1.1-0.4,1.9-1,2.8-1.9s1.4-1.8,1.9-2.8c0.4-1,0.7-2.2,0.7-3.9C32,20.9,32,20.4,32,16S31.9,11.1,31.9,9.4z
		 M29,22.4c-0.1,1.6-0.3,2.4-0.6,3c-0.3,0.7-0.6,1.3-1.2,1.8c-0.6,0.6-1.1,0.9-1.8,1.2c-0.6,0.2-1.4,0.5-3,0.6c-1.6,0-2.1,0-6.4,0
		s-4.8,0-6.5-0.1c-1.6-0.1-2.4-0.3-3-0.6c-0.7-0.3-1.3-0.6-1.8-1.2c-0.6-0.6-0.9-1.1-1.2-1.8c-0.2-0.6-0.5-1.4-0.6-3
		c-0.1-1.7-0.1-2.2-0.1-6.5S3,11.2,3,9.5c0.1-1.6,0.3-2.4,0.6-3c0.3-0.7,0.6-1.3,1.2-1.8s1.1-0.9,1.8-1.2C7.1,3.3,8,3,9.6,3
		c1.7-0.1,2.2-0.1,6.5-0.1s4.8,0,6.5,0.1c1.6,0.1,2.4,0.3,3,0.6c0.7,0.3,1.3,0.6,1.8,1.2c0.6,0.6,0.9,1.1,1.2,1.8
		c0.2,0.6,0.5,1.4,0.6,3c0.1,1.7,0.1,2.2,0.1,6.5S29.1,20.8,29,22.4z"/>
	<path class="st0" d="M16,7.8c-4.5,0-8.2,3.7-8.2,8.2s3.7,8.2,8.2,8.2s8.2-3.7,8.2-8.2S20.6,7.8,16,7.8z M16,21.3
		c-2.9,0-5.3-2.4-5.3-5.3s2.4-5.3,5.3-5.3c3,0,5.3,2.4,5.3,5.4C21.3,19,18.9,21.3,16,21.3z"/>
	<path class="st0" d="M24.5,5.5c-1.1,0-1.9,0.9-1.9,1.9s0.9,1.9,1.9,1.9c1.1,0,1.9-0.9,1.9-1.9S25.6,5.5,24.5,5.5z"/>
</g>
</svg>
