<svg width="72" height="72" viewBox="0 0 72 72" fill="none" xmlns="http://www.w3.org/2000/svg">
<path d="M17.1 57.825C15.05 55.675 13.4375 53.225 12.2625 50.475C11.0875 47.725 10.5 44.9 10.5 42C10.5 38.65 11.1 35.5375 12.3 32.6625C13.5 29.7875 15.3 27.15 17.7 24.75C19.5 22.9 21.7875 21.4 24.5625 20.25C27.3375 19.1 30.4625 18.2375 33.9375 17.6625C37.4125 17.0875 41.175 16.7375 45.225 16.6125C49.275 16.4875 53.5 16.55 57.9 16.8C58.2 21.2 58.3125 25.4375 58.2375 29.5125C58.1625 33.5875 57.825 37.3625 57.225 40.8375C56.625 44.3125 55.7375 47.4625 54.5625 50.2875C53.3875 53.1125 51.875 55.425 50.025 57.225C47.625 59.675 45.025 61.5 42.225 62.7C39.425 63.9 36.475 64.5 33.375 64.5C30.225 64.5 27.2625 63.9375 24.4875 62.8125C21.7125 61.6875 19.25 60.025 17.1 57.825ZM23.325 58.2C24.675 59.15 26.2375 59.875 28.0125 60.375C29.7875 60.875 31.575 61.125 33.375 61.125C35.975 61.125 38.5 60.6 40.95 59.55C43.4 58.5 45.625 56.925 47.625 54.825C48.875 53.575 49.9625 51.9375 50.8875 49.9125C51.8125 47.8875 52.5875 45.4375 53.2125 42.5625C53.8375 39.6875 54.275 36.375 54.525 32.625C54.775 28.875 54.8 24.675 54.6 20.025C50.55 19.925 46.725 19.9625 43.125 20.1375C39.525 20.3125 36.2625 20.6875 33.3375 21.2625C30.4125 21.8375 27.8375 22.5875 25.6125 23.5125C23.3875 24.4375 21.6 25.6 20.25 27C18.1 29.15 16.5 31.45 15.45 33.9C14.4 36.35 13.875 38.75 13.875 41.1C13.875 43.55 14.4 46.0625 15.45 48.6375C16.5 51.2125 17.85 53.325 19.5 54.975C21.55 50.525 24.1875 46.4875 27.4125 42.8625C30.6375 39.2375 34.425 36.175 38.775 33.675C34.725 37.175 31.4375 40.9125 28.9125 44.8875C26.3875 48.8625 24.525 53.3 23.325 58.2Z" fill="#000028"/>
</svg>
