<?xml version="1.0" encoding="utf-8"?>
<!-- Generator: Adobe Illustrator 27.0.0, SVG Export Plug-In . SVG Version: 6.00 Build 0)  -->
<svg version="1.1" id="Capa_1" xmlns="http://www.w3.org/2000/svg" xmlns:xlink="http://www.w3.org/1999/xlink" x="0px" y="0px"
	 viewBox="0 0 48 48" style="enable-background:new 0 0 48 48;" xml:space="preserve">
<style type="text/css">
	.st0{fill:#D9D9D9;filter:url(#Adobe_OpacityMaskFilter);}
	.st1{mask:url(#mask0_4477_54664_00000097467498972071616140000004181242801694351005_);}
	.st2{fill:#1C1B1F;}
</style>
<defs>
	<filter id="Adobe_OpacityMaskFilter" filterUnits="userSpaceOnUse" x="7.1" y="5.2" width="35.8" height="37.8">
		<feColorMatrix  type="matrix" values="1 0 0 0 0  0 1 0 0 0  0 0 1 0 0  0 0 0 1 0"/>
	</filter>
</defs>
<mask maskUnits="userSpaceOnUse" x="7.1" y="5.2" width="35.8" height="37.8" id="mask0_4477_54664_00000097467498972071616140000004181242801694351005_">
	<rect class="st0" width="48" height="48"/>
</mask>
<g class="st1">
	<path class="st2" d="M7.1,43v-2.2h3.6v-7.2c-1.1-0.3-2-0.8-2.6-1.6c-0.6-0.8-1-1.8-1-3V13.6h9.4V29c0,1-0.3,2-0.9,2.9
		c-0.6,0.9-1.5,1.5-2.7,1.7v7.2h3.6V43H7.1z M9.3,23.8h4.9v-7.9H9.3V23.8z M11.8,31.5c0.7,0,1.2-0.2,1.7-0.7
		c0.5-0.5,0.7-1.1,0.7-1.7v-3H9.3v3c0,0.7,0.2,1.2,0.7,1.7C10.6,31.2,11.1,31.5,11.8,31.5z M25.9,43c-0.6,0-1.1-0.2-1.6-0.7
		c-0.5-0.5-0.7-1-0.7-1.6v-20c0-0.5,0.1-0.9,0.4-1.2c0.3-0.3,0.7-0.6,1.2-0.8l1.9-0.9c0.9-0.4,1.6-0.8,2.1-1.4
		c0.4-0.6,0.7-1.4,0.7-2.4V6.8c0-0.5,0.1-0.8,0.4-1.1c0.3-0.3,0.7-0.4,1.1-0.4H35c0.5,0,0.8,0.1,1.1,0.4c0.3,0.3,0.4,0.7,0.4,1.1
		v7.2c0,1,0.3,1.8,0.8,2.4c0.5,0.6,1.2,1.1,2.2,1.4l1.9,0.9c0.5,0.2,0.8,0.5,1.1,0.8c0.3,0.3,0.4,0.7,0.4,1.2v20
		c0,0.6-0.2,1.1-0.7,1.6c-0.4,0.5-1,0.7-1.6,0.7H25.9z M32.2,9.7h2.1V7.5h-2.1V9.7z M25.9,25.2h14.8v-4.5l-2.1-0.8
		c-1.3-0.5-2.3-1.2-3.1-2.2c-0.8-1-1.2-2.3-1.2-3.8V12h-2.1v1.9c0,1.5-0.4,2.8-1.1,3.7s-1.8,1.7-3,2.2l-2.1,1V25.2z M25.9,40.8h14.8
		v-5.5H25.9V40.8z M25.9,33h14.8v-5.5H25.9V33z"/>
</g>
</svg>
