<?xml version="1.0" encoding="utf-8"?>
<!-- Generator: Adobe Illustrator 24.1.0, SVG Export Plug-In . SVG Version: 6.00 Build 0)  -->
<svg version="1.1" id="Capa_1" xmlns="http://www.w3.org/2000/svg" xmlns:xlink="http://www.w3.org/1999/xlink" x="0px" y="0px"
	 viewBox="0 0 32 32" style="enable-background:new 0 0 32 32;" xml:space="preserve">
<style type="text/css">
	.st0{fill:#000028;}
</style>
<path class="st0" d="M16,3.2c1.6,0,2.9,0.6,4,1.7c1.1,1.1,1.7,2.4,1.7,4v3h2.3c0.5,0,1,0.2,1.3,0.6c0.4,0.4,0.6,0.8,0.6,1.3v13.1
	c0,0.5-0.2,1-0.6,1.3c-0.4,0.4-0.8,0.6-1.3,0.6H8.1c-0.5,0-1-0.2-1.3-0.6c-0.4-0.4-0.6-0.8-0.6-1.3V13.8c0-0.5,0.2-1,0.6-1.3
	c0.4-0.4,0.8-0.6,1.3-0.6h2.3v-3c0-1.6,0.6-2.9,1.7-4S14.4,3.2,16,3.2z M16,4.7c-1.2,0-2.1,0.4-3,1.2c-0.8,0.8-1.2,1.8-1.2,3v3h8.3
	v-3c0-1.2-0.4-2.2-1.2-3C18.1,5.1,17.2,4.7,16,4.7z M8.1,27.3h15.9c0.1,0,0.2,0,0.3-0.1c0.1-0.1,0.1-0.2,0.1-0.3V13.8
	c0-0.1,0-0.2-0.1-0.3c-0.1-0.1-0.2-0.1-0.3-0.1H8.1c-0.1,0-0.2,0-0.3,0.1c-0.1,0.1-0.1,0.2-0.1,0.3v13.1c0,0.1,0,0.2,0.1,0.3
	C7.8,27.3,7.9,27.3,8.1,27.3z M16,18.1c-0.6,0-1.1,0.2-1.6,0.7c-0.4,0.5-0.7,1-0.7,1.6c0,0.6,0.2,1.1,0.7,1.5c0.4,0.4,1,0.6,1.6,0.6
	s1.1-0.2,1.6-0.6c0.4-0.4,0.7-0.9,0.7-1.6c0-0.6-0.2-1.1-0.7-1.6C17.1,18.3,16.6,18.1,16,18.1z M7.6,13.4c0,0,0,0,0,0.1
	c0,0.1,0,0.2,0,0.3v13.1c0,0.1,0,0.2,0,0.3c0,0.1,0,0.1,0,0.1s0,0,0-0.1c0-0.1,0-0.2,0-0.3V13.8c0-0.1,0-0.2,0-0.3
	C7.6,13.4,7.6,13.4,7.6,13.4z"/>
</svg>
