<svg width="38" height="29" viewBox="0 0 38 29" fill="none" xmlns="http://www.w3.org/2000/svg">
<path d="M2.9 28.9768C2.1 28.9768 1.41667 28.7074 0.85 28.1687C0.283333 27.63 0 26.9804 0 26.2198V3.21394C0 2.45341 0.283333 1.8038 0.85 1.26509C1.41667 0.726385 2.1 0.457031 2.9 0.457031H35.1C35.9 0.457031 36.5833 0.726385 37.15 1.26509C37.7167 1.8038 38 2.45341 38 3.21394V26.2198C38 26.9804 37.7167 27.63 37.15 28.1687C36.5833 28.7074 35.9 28.9768 35.1 28.9768H2.9ZM19 15.0021L2.25 4.49733V26.2198C2.25 26.41 2.30833 26.5605 2.425 26.6714C2.54167 26.7823 2.7 26.8378 2.9 26.8378H35.1C35.3 26.8378 35.4583 26.7823 35.575 26.6714C35.6917 26.5605 35.75 26.41 35.75 26.2198V4.49733L19 15.0021ZM19 12.7205L35.3 2.59601H2.75L19 12.7205ZM2.25 4.49733V2.59601V4.49733V26.2198C2.25 26.41 2.30833 26.5605 2.425 26.6714C2.54167 26.7823 2.7 26.8378 2.9 26.8378H2.25C2.25 26.8378 2.25 26.7823 2.25 26.6714C2.25 26.5605 2.25 26.41 2.25 26.2198V4.49733Z" fill="#000028"/>
</svg>
