<?xml version="1.0" encoding="utf-8"?>
<!-- Generator: Adobe Illustrator 27.2.0, SVG Export Plug-In . SVG Version: 6.00 Build 0)  -->
<svg version="1.1" id="Capa_1" xmlns="http://www.w3.org/2000/svg" xmlns:xlink="http://www.w3.org/1999/xlink" x="0px" y="0px"
	 viewBox="0 0 38 29" style="enable-background:new 0 0 38 29;" xml:space="preserve">
<style type="text/css">
	.st0{fill:#000028;}
</style>
<path class="st0" d="M2.9,29c-0.8,0-1.5-0.3-2.1-0.8C0.3,27.6,0,27,0,26.2v-23c0-0.8,0.3-1.4,0.9-1.9S2.1,0.5,3,0.5h32.2
	c0.8,0,1.5,0.3,2.1,0.8C37.7,1.8,38,2.5,38,3.2v23c0,0.8-0.3,1.4-0.8,1.9c-0.6,0.5-1.2,0.8-2.1,0.8H2.9V29z M19,15L2.3,4.5v21.7
	c0,0.2,0.1,0.3,0.2,0.5c0.1,0.1,0.3,0.2,0.5,0.2h32.2c0.2,0,0.4-0.1,0.5-0.2s0.2-0.3,0.2-0.5V4.5L19,15z M19,12.7L35.3,2.6H2.8
	L19,12.7z M2.3,4.5V2.6V4.5v21.7c0,0.2,0.1,0.3,0.2,0.5c0.1,0.1,0.3,0.2,0.5,0.2H2.3c0,0,0-0.1,0-0.2s0-0.3,0-0.5V4.5z"/>
</svg>
