<svg width="58" height="53" viewBox="0 0 58 53" fill="none" xmlns="http://www.w3.org/2000/svg">
<path d="M4.85 52.5C3.65 52.5 2.625 52.075 1.775 51.225C0.925 50.375 0.5 49.35 0.5 48.15V14.1C0.5 12.95 0.925 11.9375 1.775 11.0625C2.625 10.1875 3.65 9.75 4.85 9.75H19.025V4.35C19.025 3.15 19.45 2.125 20.3 1.275C21.15 0.425 22.175 0 23.375 0H34.625C35.825 0 36.85 0.425 37.7 1.275C38.55 2.125 38.975 3.15 38.975 4.35V9.75H53.15C54.35 9.75 55.375 10.1875 56.225 11.0625C57.075 11.9375 57.5 12.95 57.5 14.1V48.15C57.5 49.35 57.075 50.375 56.225 51.225C55.375 52.075 54.35 52.5 53.15 52.5H4.85ZM22.475 9.75H35.525V4.35C35.525 4.1 35.4375 3.875 35.2625 3.675C35.0875 3.475 34.875 3.375 34.625 3.375H23.375C23.125 3.375 22.9125 3.475 22.7375 3.675C22.5625 3.875 22.475 4.1 22.475 4.35V9.75ZM4.85 49.125H53.15C53.4 49.125 53.625 49.025 53.825 48.825C54.025 48.625 54.125 48.4 54.125 48.15V14.1C54.125 13.9 54.025 13.7 53.825 13.5C53.625 13.3 53.4 13.2 53.15 13.2H4.85C4.6 13.2 4.375 13.3 4.175 13.5C3.975 13.7 3.875 13.9 3.875 14.1V48.15C3.875 48.4 3.975 48.625 4.175 48.825C4.375 49.025 4.6 49.125 4.85 49.125ZM3.875 49.125V13.2V49.125Z" fill="#000028"/>
</svg>
