<svg width="61" height="60" viewBox="0 0 61 60" fill="none" xmlns="http://www.w3.org/2000/svg">
<path d="M43.8502 30.6749C39.2002 26.6749 35.2627 22.8749 32.0377 19.2749C28.8127 15.6749 27.2002 12.3499 27.2002 9.2999C27.2002 6.9499 28.0127 4.9624 29.6377 3.3374C31.2627 1.7124 33.2502 0.899902 35.6002 0.899902C37.0002 0.899902 38.4252 1.3124 39.8752 2.1374C41.3252 2.9624 42.6502 4.1499 43.8502 5.6999C45.0002 4.1499 46.3002 2.9624 47.7502 2.1374C49.2002 1.3124 50.6252 0.899902 52.0252 0.899902C54.3752 0.899902 56.3627 1.7124 57.9877 3.3374C59.6127 4.9624 60.4252 6.9499 60.4252 9.2999C60.4252 12.3499 58.8127 15.6749 55.5877 19.2749C52.3627 22.8749 48.4502 26.6749 43.8502 30.6749ZM43.8502 25.9499C47.2502 22.9499 50.3002 19.9749 53.0002 17.0249C55.7002 14.0749 57.0502 11.4999 57.0502 9.2999C57.0502 7.8499 56.5877 6.6624 55.6627 5.7374C54.7377 4.8124 53.5502 4.3499 52.1002 4.3499C51.2002 4.3499 50.2752 4.5749 49.3252 5.0249C48.3752 5.4749 47.3752 6.3999 46.3252 7.7999L43.8502 10.9499L41.3002 7.7999C40.2002 6.3999 39.1877 5.4749 38.2627 5.0249C37.3377 4.5749 36.4502 4.3499 35.6002 4.3499C34.1002 4.3499 32.8877 4.8124 31.9627 5.7374C31.0377 6.6624 30.5752 7.8499 30.5752 9.2999C30.5752 11.4999 31.9252 14.0749 34.6252 17.0249C37.3252 19.9749 40.4002 22.9499 43.8502 25.9499ZM37.8502 59.2499L14.2252 52.4249V56.4749H0.575195V30.2999H21.5752L40.3252 37.2749C41.4752 37.6749 42.4502 38.3749 43.2502 39.3749C44.0502 40.3749 44.4502 41.8499 44.4502 43.7999H53.9002C55.7502 43.7999 57.2252 44.4749 58.3252 45.8249C59.4252 47.1749 59.9752 48.9999 59.9752 51.2999V52.4249L37.8502 59.2499ZM3.9502 53.0999H10.7002V33.6749H3.9502V53.0999ZM37.5502 55.7249L56.4502 49.9499C56.2502 48.9999 55.9377 48.3124 55.5127 47.8874C55.0877 47.4624 54.5502 47.2499 53.9002 47.2499H38.8252C37.4252 47.2499 36.0627 47.1499 34.7377 46.9499C33.4127 46.7499 32.2252 46.4749 31.1752 46.1249L25.0252 44.2499L26.3752 40.8749L31.8502 42.7499C33.0502 43.1499 34.2377 43.4249 35.4127 43.5749C36.5877 43.7249 38.4002 43.7999 40.8502 43.7999C40.8502 43.0499 40.7252 42.3749 40.4752 41.7749C40.2252 41.1749 39.8002 40.7499 39.2002 40.4999L21.0502 33.6749H14.2252V48.8249L37.5502 55.7249Z" fill="#000028"/>
</svg>
