<?xml version="1.0" encoding="utf-8"?>
<!-- Generator: Adobe Illustrator 27.1.1, SVG Export Plug-In . SVG Version: 6.00 Build 0)  -->
<svg version="1.1" id="Capa_1" xmlns="http://www.w3.org/2000/svg" xmlns:xlink="http://www.w3.org/1999/xlink" x="0px" y="0px"
	 viewBox="0 0 24 24" style="enable-background:new 0 0 24 24;" xml:space="preserve">
<style type="text/css">
	.st0{fill:#000028;}
</style>
<path class="st0" d="M4.8,19.4h1L17.5,7.6L17,7.1l-0.5-0.5L4.8,18.3V19.4z M3.6,20.5v-2.6l14-14.1c0.2-0.2,0.5-0.3,0.8-0.3
	c0.3,0,0.6,0.1,0.8,0.4l1,1c0.2,0.2,0.3,0.5,0.3,0.8c0,0.3-0.1,0.6-0.3,0.8L6.2,20.5H3.6z M19.4,5.6l-0.9-1L19.4,5.6z M17.5,7.6
	L17,7.1l-0.5-0.5L17.5,7.6z"/>
</svg>
