<svg width="36" height="37" viewBox="0 0 36 37" fill="none" xmlns="http://www.w3.org/2000/svg">
<path d="M0.0996094 36.878V34.7391H3.64961V27.9419C2.54961 27.6884 1.68294 27.1655 1.04961 26.3733C0.416276 25.5811 0.0996094 24.6462 0.0996094 23.5688V8.97624H9.49961V23.5688C9.49961 24.5512 9.18294 25.4702 8.54961 26.3257C7.91628 27.1813 7.03294 27.72 5.89961 27.9419V34.7391H9.49961V36.878H0.0996094ZM2.34961 18.6254H7.24961V11.1152H2.34961V18.6254ZM4.79961 25.8979C5.46628 25.8979 6.04128 25.6682 6.52461 25.2087C7.00794 24.7492 7.24961 24.2026 7.24961 23.5688V20.7644H2.34961V23.5688C2.34961 24.2026 2.59128 24.7492 3.07461 25.2087C3.55794 25.6682 4.13294 25.8979 4.79961 25.8979ZM18.8996 36.878C18.2996 36.878 17.7746 36.6641 17.3246 36.2363C16.8746 35.8086 16.6496 35.3095 16.6496 34.7391V15.6784C16.6496 15.2031 16.7913 14.8149 17.0746 14.5138C17.3579 14.2128 17.7496 13.9672 18.2496 13.7771L20.1496 12.969C21.0829 12.6204 21.7746 12.1689 22.2246 11.6143C22.6746 11.0598 22.8996 10.3072 22.8996 9.35651V2.46424C22.8996 2.0206 23.0413 1.66411 23.3246 1.39475C23.6079 1.1254 23.9829 0.990723 24.4496 0.990723H27.9996C28.4663 0.990723 28.8413 1.1254 29.1246 1.39475C29.4079 1.66411 29.5496 2.0206 29.5496 2.46424V9.35651C29.5496 10.3072 29.8079 11.0598 30.3246 11.6143C30.8413 12.1689 31.5663 12.6204 32.4996 12.969L34.3996 13.7771C34.8663 13.9672 35.2329 14.2128 35.4996 14.5138C35.7663 14.8149 35.8996 15.2031 35.8996 15.6784V34.7391C35.8996 35.3095 35.6746 35.8086 35.2246 36.2363C34.7746 36.6641 34.2496 36.878 33.6496 36.878H18.8996ZM25.1496 5.22115H27.2996V3.1297H25.1496V5.22115ZM18.8996 20.0039H33.6496V15.6784L31.5996 14.9179C30.2996 14.4742 29.2579 13.7691 28.4746 12.8026C27.6913 11.8361 27.2996 10.6241 27.2996 9.16638V7.40766H25.1496V9.16638C25.1496 10.6241 24.7746 11.7965 24.0246 12.6838C23.2746 13.5711 22.2663 14.2682 20.9996 14.7753L18.8996 15.6784V20.0039ZM18.8996 34.7391H33.6496V29.5104H18.8996V34.7391ZM18.8996 27.3239H33.6496V22.1429H18.8996V27.3239ZM18.8996 27.3239V22.1429V27.3239Z" fill="#000028"/>
</svg>
