<?xml version="1.0" encoding="utf-8"?>
<!-- Generator: Adobe Illustrator 26.5.0, SVG Export Plug-In . SVG Version: 6.00 Build 0)  -->
<svg version="1.1" id="Capa_1" xmlns="http://www.w3.org/2000/svg" xmlns:xlink="http://www.w3.org/1999/xlink" x="0px" y="0px"
	 viewBox="0 0 43.3 70" style="enable-background:new 0 0 43.3 70;" xml:space="preserve">
<style type="text/css">
	.st0{fill:#529DCC;}
</style>
<path class="st0" d="M21.7,64.1c0.7,0,1.2-0.2,1.7-0.7c0.4-0.4,0.7-1,0.7-1.7s-0.2-1.2-0.7-1.7c-0.5-0.4-1-0.7-1.6-0.7
	c-0.7,0-1.2,0.2-1.7,0.7c-0.4,0.4-0.7,1-0.7,1.7s0.2,1.2,0.7,1.7C20.5,63.9,21.1,64.1,21.7,64.1z M3.7,53.5h35.8V11.1H3.7V53.5z
	 M4.8,70c-1.3,0-2.5-0.5-3.4-1.4C0.5,67.6,0,66.5,0,65.2V4.8c0-1.3,0.5-2.5,1.4-3.4C2.4,0.5,3.5,0,4.8,0h33.7c1.3,0,2.5,0.5,3.4,1.4
	c0.9,0.9,1.4,2.1,1.4,3.4v60.3c0,1.3-0.5,2.5-1.4,3.4C41,69.5,39.8,70,38.5,70H4.8z M3.7,7.3h35.8V4.8c0-0.3-0.1-0.5-0.3-0.8
	c-0.2-0.2-0.5-0.3-0.8-0.3H4.8c-0.3,0-0.5,0.1-0.8,0.3C3.9,4.3,3.7,4.6,3.7,4.8V7.3z M3.7,3.8c0,0,0,0.1,0,0.3c0,0.2,0,0.5,0,0.8
	v2.5V4.8c0-0.3,0-0.6,0-0.8C3.7,3.8,3.7,3.8,3.7,3.8z M3.7,57.2v7.9c0,0.3,0.1,0.5,0.3,0.8c0.2,0.2,0.5,0.3,0.8,0.3h33.7
	c0.3,0,0.5-0.1,0.8-0.3c0.2-0.2,0.3-0.5,0.3-0.8v-7.9H3.7z M3.7,66.2c0,0,0-0.1,0-0.3c0-0.2,0-0.5,0-0.8v-7.9v7.9c0,0.3,0,0.6,0,0.8
	C3.7,66.2,3.7,66.2,3.7,66.2z"/>
</svg>
