<?xml version="1.0" encoding="utf-8"?>
<!-- Generator: Adobe Illustrator 24.1.0, SVG Export Plug-In . SVG Version: 6.00 Build 0)  -->
<svg version="1.1" id="Capa_1" xmlns="http://www.w3.org/2000/svg" xmlns:xlink="http://www.w3.org/1999/xlink" x="0px" y="0px"
	 viewBox="0 0 42 40" style="enable-background:new 0 0 42 40;" xml:space="preserve">
<style type="text/css">
	.st0{fill:#000028;}
</style>
<path class="st0" d="M14.7,39.8l-3.6-6.1l-7.1-1.5l0.8-7L0.3,20l4.5-5.2l-0.8-7l7.1-1.4l3.6-6.2L21,3.1l6.3-2.8l3.6,6.2l7,1.4
	l-0.8,7l4.5,5.2l-4.5,5.2l0.8,7l-7,1.5l-3.6,6.1L21,36.9L14.7,39.8z M18.9,26l10.6-10.5l-1.7-1.6l-8.9,8.9L14.2,18l-1.8,1.7L18.9,26
	z M15.8,36.8l5.2-2.2l5.4,2.2l3.2-5l5.7-1.4l-0.5-5.9l4-4.5l-4-4.6l0.5-5.9l-5.7-1.4l-3.3-4.9L21,5.4l-5.4-2.2l-3.2,4.9L6.6,9.6
	l0.5,5.9L3.2,20l3.9,4.5l-0.5,6l5.8,1.3L15.8,36.8z"/>
</svg>
