<svg width="60" height="46" viewBox="0 0 60 46" fill="none" xmlns="http://www.w3.org/2000/svg">
<path d="M0.75 45.875V42.5C2.1 42.3 3.25 41.9 4.2 41.3C5.15 40.7001 6.1125 40.0875 7.0875 39.4625C8.0625 38.8375 9.1375 38.275 10.3125 37.775C11.4875 37.275 12.975 37.025 14.775 37.025C16.475 37.025 17.9625 37.3125 19.2375 37.8875C20.5125 38.4625 21.6875 39.1 22.7625 39.8C23.8375 40.5 24.95 41.1375 26.1 41.7125C27.25 42.2875 28.55 42.575 30 42.575C31.45 42.575 32.75 42.2875 33.9 41.7125C35.05 41.1375 36.1625 40.5 37.2375 39.8C38.3125 39.1 39.4875 38.4625 40.7625 37.8875C42.0375 37.3125 43.55 37.025 45.3 37.025C47.05 37.025 48.5 37.275 49.65 37.775C50.8 38.275 51.875 38.8375 52.875 39.4625C53.875 40.0875 54.85 40.7001 55.8 41.3C56.75 41.9 57.9 42.3 59.25 42.5V45.875C57.7 45.725 56.3875 45.3625 55.3125 44.7876C54.2375 44.2126 53.2 43.6 52.2 42.95C51.2 42.3 50.1625 41.7125 49.0875 41.1875C48.0125 40.6625 46.75 40.4 45.3 40.4C43.8 40.4 42.475 40.6875 41.325 41.2625C40.175 41.8375 39.05 42.4625 37.95 43.1375C36.85 43.8125 35.675 44.4501 34.425 45.05C33.175 45.65 31.7 45.95 30 45.95C28.3 45.95 26.825 45.65 25.575 45.05C24.325 44.4501 23.15 43.8125 22.05 43.1375C20.95 42.4625 19.825 41.8375 18.675 41.2625C17.525 40.6875 16.225 40.4 14.775 40.4C13.275 40.4 11.9875 40.6625 10.9125 41.1875C9.8375 41.7125 8.8 42.3 7.8 42.95C6.8 43.6 5.7625 44.2126 4.6875 44.7876C3.6125 45.3625 2.3 45.725 0.75 45.875ZM0.75 33.575V30.2C2.1 30 3.25 29.6 4.2 29C5.15 28.4 6.1125 27.775 7.0875 27.125C8.0625 26.475 9.1375 25.9125 10.3125 25.4375C11.4875 24.9625 12.975 24.725 14.775 24.725C16.475 24.725 17.9625 25.0126 19.2375 25.5876C20.5125 26.1626 21.6875 26.7876 22.7625 27.4626C23.8375 28.1376 24.95 28.7626 26.1 29.3376C27.25 29.9126 28.55 30.2 30 30.2C31.45 30.2 32.75 29.9126 33.9 29.3376C35.05 28.7626 36.1625 28.1376 37.2375 27.4626C38.3125 26.7876 39.4875 26.1626 40.7625 25.5876C42.0375 25.0126 43.55 24.725 45.3 24.725C47.05 24.725 48.5 24.9625 49.65 25.4375C50.8 25.9125 51.875 26.475 52.875 27.125C53.875 27.775 54.85 28.4 55.8 29C56.75 29.6 57.9 30 59.25 30.2V33.575C57.7 33.325 56.3875 32.9126 55.3125 32.3376C54.2375 31.7626 53.2 31.15 52.2 30.5C51.2 29.85 50.1625 29.2875 49.0875 28.8125C48.0125 28.3375 46.75 28.1 45.3 28.1C43.8 28.1 42.4875 28.3876 41.3625 28.9626C40.2375 29.5376 39.125 30.1626 38.025 30.8376C36.925 31.5126 35.7375 32.1376 34.4625 32.7126C33.1875 33.2876 31.7 33.575 30 33.575C28.3 33.575 26.825 33.2876 25.575 32.7126C24.325 32.1376 23.15 31.5126 22.05 30.8376C20.95 30.1626 19.825 29.5376 18.675 28.9626C17.525 28.3876 16.225 28.1 14.775 28.1C13.275 28.1 11.9875 28.3625 10.9125 28.8875C9.8375 29.4125 8.8 30.0001 7.8 30.6501C6.8 31.3001 5.7625 31.9125 4.6875 32.4875C3.6125 33.0625 2.3 33.425 0.75 33.575ZM0.75 8.90005V5.52505C2.1 5.32505 3.25 4.93755 4.2 4.36255C5.15 3.78755 6.1125 3.17505 7.0875 2.52505C8.0625 1.87505 9.1375 1.30005 10.3125 0.800049C11.4875 0.300049 12.975 0.0500488 14.775 0.0500488C16.475 0.0500488 17.9625 0.350049 19.2375 0.950049C20.5125 1.55005 21.6875 2.18755 22.7625 2.86255C23.8375 3.53755 24.95 4.16255 26.1 4.73755C27.25 5.31255 28.55 5.60005 30 5.60005C31.45 5.60005 32.75 5.31255 33.9 4.73755C35.05 4.16255 36.1625 3.53755 37.2375 2.86255C38.3125 2.18755 39.4875 1.55005 40.7625 0.950049C42.0375 0.350049 43.55 0.0500488 45.3 0.0500488C47.05 0.0500488 48.5 0.300049 49.65 0.800049C50.8 1.30005 51.875 1.87505 52.875 2.52505C53.875 3.17505 54.85 3.78755 55.8 4.36255C56.75 4.93755 57.9 5.32505 59.25 5.52505V8.90005C57.7 8.75005 56.3875 8.38755 55.3125 7.81255C54.2375 7.23755 53.2 6.62505 52.2 5.97505C51.2 5.32505 50.1625 4.73755 49.0875 4.21255C48.0125 3.68755 46.75 3.42505 45.3 3.42505C43.8 3.42505 42.475 3.71255 41.325 4.28755C40.175 4.86255 39.05 5.50005 37.95 6.20005C36.85 6.90005 35.675 7.53755 34.425 8.11255C33.175 8.68755 31.7 8.97505 30 8.97505C28.3 8.97505 26.825 8.68755 25.575 8.11255C24.325 7.53755 23.15 6.90005 22.05 6.20005C20.95 5.50005 19.825 4.86255 18.675 4.28755C17.525 3.71255 16.225 3.42505 14.775 3.42505C13.275 3.42505 11.9875 3.68755 10.9125 4.21255C9.8375 4.73755 8.8 5.32505 7.8 5.97505C6.8 6.62505 5.7625 7.23755 4.6875 7.81255C3.6125 8.38755 2.3 8.75005 0.75 8.90005ZM0.75 21.2V17.9C2.1 17.7001 3.25 17.3125 4.2 16.7376C5.15 16.1625 6.1125 15.55 7.0875 14.9C8.0625 14.25 9.1375 13.6751 10.3125 13.1751C11.4875 12.675 12.975 12.4251 14.775 12.4251C16.475 12.4251 17.9625 12.7125 19.2375 13.2875C20.5125 13.8625 21.6875 14.4875 22.7625 15.1625C23.8375 15.8375 24.95 16.4625 26.1 17.0375C27.25 17.6125 28.55 17.9 30 17.9C31.45 17.9 32.75 17.6125 33.9 17.0375C35.05 16.4625 36.1625 15.8375 37.2375 15.1625C38.3125 14.4875 39.4875 13.8625 40.7625 13.2875C42.0375 12.7125 43.55 12.4251 45.3 12.4251C47.05 12.4251 48.5 12.675 49.65 13.1751C50.8 13.6751 51.875 14.25 52.875 14.9C53.875 15.55 54.85 16.1625 55.8 16.7376C56.75 17.3125 57.9 17.7001 59.25 17.9V21.2C57.7 21.1 56.3875 20.7625 55.3125 20.1875C54.2375 19.6125 53.2 18.9875 52.2 18.3125C51.2 17.6375 50.1625 17.0501 49.0875 16.5501C48.0125 16.0501 46.75 15.8001 45.3 15.8001C43.8 15.8001 42.475 16.0875 41.325 16.6625C40.175 17.2375 39.05 17.8625 37.95 18.5375C36.85 19.2125 35.675 19.8375 34.425 20.4125C33.175 20.9875 31.7 21.275 30 21.275C28.3 21.275 26.825 20.9875 25.575 20.4125C24.325 19.8375 23.15 19.2125 22.05 18.5375C20.95 17.8625 19.825 17.2375 18.675 16.6625C17.525 16.0875 16.225 15.8001 14.775 15.8001C13.275 15.8001 11.9875 16.0501 10.9125 16.5501C9.8375 17.0501 8.8 17.6375 7.8 18.3125C6.8 18.9875 5.7625 19.6125 4.6875 20.1875C3.6125 20.7625 2.3 21.1 0.75 21.2Z" fill="#000028"/>
</svg>
