<svg width="73" height="72" viewBox="0 0 73 72" fill="none" xmlns="http://www.w3.org/2000/svg">
<path d="M5.675 58.875C4.675 58.875 3.8125 58.5 3.0875 57.75C2.3625 57 2 56.125 2 55.125H12.35C11.2 55.125 10.2 54.6875 9.35 53.8125C8.5 52.9375 8.075 51.925 8.075 50.775V14.85C8.075 13.65 8.5 12.625 9.35 11.775C10.2 10.925 11.2 10.5 12.35 10.5H60.65C61.8 10.5 62.8 10.925 63.65 11.775C64.5 12.625 64.925 13.65 64.925 14.85V50.775C64.925 51.925 64.5 52.9375 63.65 53.8125C62.8 54.6875 61.8 55.125 60.65 55.125H71C71 56.175 70.625 57.0625 69.875 57.7875C69.125 58.5125 68.225 58.875 67.175 58.875H5.675ZM36.5 57.6C37.1 57.6 37.6 57.4125 38 57.0375C38.4 56.6625 38.6 56.175 38.6 55.575C38.6 54.975 38.4 54.475 38 54.075C37.6 53.675 37.1 53.475 36.5 53.475C35.9 53.475 35.4 53.675 35 54.075C34.6 54.475 34.4 54.975 34.4 55.575C34.4 56.175 34.6 56.6625 35 57.0375C35.4 57.4125 35.9 57.6 36.5 57.6ZM12.35 51.675H60.65C60.85 51.675 61.05 51.5875 61.25 51.4125C61.45 51.2375 61.55 51.025 61.55 50.775V14.85C61.55 14.6 61.45 14.375 61.25 14.175C61.05 13.975 60.85 13.875 60.65 13.875H12.35C12.15 13.875 11.95 13.975 11.75 14.175C11.55 14.375 11.45 14.6 11.45 14.85V50.775C11.45 51.025 11.55 51.2375 11.75 51.4125C11.95 51.5875 12.15 51.675 12.35 51.675ZM11.45 51.675V13.875V51.675Z" fill="#000028"/>
</svg>
