<?xml version="1.0" encoding="utf-8"?>
<!-- Generator: Adobe Illustrator 24.1.0, SVG Export Plug-In . SVG Version: 6.00 Build 0)  -->
<svg version="1.1" id="Capa_1" xmlns="http://www.w3.org/2000/svg" xmlns:xlink="http://www.w3.org/1999/xlink" x="0px" y="0px"
	 viewBox="0 0 48 48" style="enable-background:new 0 0 48 48;" xml:space="preserve">
<style type="text/css">
	.st0{fill:#000028;}
</style>
<path class="st0" d="M28.5,42.8c-1.4,0-2.8-0.1-4.2-0.4c-1.4-0.3-2.6-0.6-3.7-1.1c-0.1,0.1-0.3,0.1-0.5,0.2s-0.4,0.1-0.5,0.1h-7.4
	c-2.6,0-4.9-0.9-6.7-2.8c-1.8-1.8-2.8-4.1-2.8-6.7c0-2.1,0.6-4,1.8-5.6c1.2-1.6,2.8-2.7,4.9-3.2c0.1-3.9,1.4-7.5,3.8-10.8
	c2.4-3.3,5.6-5.5,9.5-6.8c0.3-0.1,0.5-0.2,0.8-0.3c0.3-0.1,0.6-0.1,0.8-0.1c0.5,0,0.8,0.2,1.1,0.5c0.3,0.4,0.4,0.7,0.4,1.2
	c0,0.1,0,0.2,0,0.3c0,0.1,0,0.2-0.1,0.3c-0.3,1-0.5,2-0.7,3.1c-0.1,1-0.2,2.2-0.2,3.4c0,4.7,1.5,9,4.6,12.9s6.9,6.4,11.7,7.4
	c0.5,0.1,0.8,0.3,1.1,0.6c0.2,0.3,0.4,0.6,0.4,0.9c0,0.2,0,0.4-0.1,0.6c-0.1,0.2-0.2,0.3-0.4,0.5c-1.6,1.7-3.7,3.1-6,4.2
	C33.5,42.2,31.1,42.8,28.5,42.8z M12.2,39.2h8.6c1.2,0,2.2-0.4,3-1.2c0.8-0.8,1.2-1.8,1.2-3s-0.4-2.2-1.2-3c-0.8-0.8-1.8-1.2-3-1.2
	H19c-0.7-2-1.6-3.5-2.7-4.4S13.7,25,12,25c-2,0-3.7,0.7-5,2s-2,3-2,5s0.7,3.7,2.1,5.1C8.5,38.5,10.2,39.2,12.2,39.2z M24.8,40.2
	c0.5,0.1,1,0.1,1.8,0.2s1.4,0.1,2,0.1c2,0,3.9-0.4,5.9-1.2c2-0.8,3.6-1.8,5-2.9c-5-1.6-9.1-4.4-12.2-8.5s-4.7-8.7-4.7-13.9
	c0-0.8,0.1-1.9,0.2-3.1c0.1-1.2,0.3-2.2,0.5-3c-3.4,1.4-6.2,3.4-8.2,6s-3.1,5.6-3.3,8.9c1.7-0.1,3.3,0.3,4.9,1.2
	c1.6,0.9,2.9,2.5,3.7,4.5c1.9,0,3.5,0.7,4.9,1.9c1.4,1.2,2,2.7,2,4.6c0,1.1-0.2,2.1-0.7,3S25.5,39.5,24.8,40.2z"/>
</svg>
