<?xml version="1.0" encoding="utf-8"?>
<!-- Generator: Adobe Illustrator 24.1.0, SVG Export Plug-In . SVG Version: 6.00 Build 0)  -->
<svg version="1.1" id="Capa_1" xmlns="http://www.w3.org/2000/svg" xmlns:xlink="http://www.w3.org/1999/xlink" x="0px" y="0px"
	 viewBox="0 0 41 38" style="enable-background:new 0 0 41 38;" xml:space="preserve">
<style type="text/css">
	.st0{fill:#000028;}
</style>
<path class="st0" d="M26.5,37.8c-1.4,0-2.9-0.1-4.2-0.4c-1.4-0.3-2.6-0.6-3.7-1.1c-0.1,0.1-0.3,0.1-0.5,0.2c-0.2,0-0.4,0.1-0.5,0.1
	h-7.4c-2.6,0-4.9-0.9-6.7-2.8c-1.9-1.8-2.8-4.1-2.8-6.7c0-2.1,0.6-4,1.8-5.6c1.2-1.6,2.8-2.7,4.9-3.2c0.1-3.9,1.4-7.5,3.8-10.8
	c2.4-3.3,5.6-5.5,9.5-6.8c0.3-0.1,0.5-0.2,0.8-0.3c0.3-0.1,0.5-0.1,0.8-0.1c0.5,0,0.8,0.2,1.1,0.5c0.3,0.4,0.4,0.7,0.4,1.2
	c0,0.1,0,0.2,0,0.3c0,0.1,0,0.2-0.1,0.3c-0.3,1-0.5,2-0.7,3.1c-0.1,1-0.2,2.1-0.2,3.3c0,4.7,1.5,9,4.6,12.9c3,3.9,6.9,6.4,11.7,7.4
	c0.5,0.1,0.8,0.3,1.1,0.6c0.2,0.3,0.4,0.6,0.4,0.9c0,0.2,0,0.4-0.1,0.6c-0.1,0.2-0.2,0.3-0.4,0.5c-1.6,1.7-3.7,3.1-6,4.2
	C31.5,37.2,29.1,37.8,26.5,37.8z M10.2,34.2h8.6c1.2,0,2.2-0.4,3-1.2c0.8-0.8,1.2-1.8,1.2-3c0-1.2-0.4-2.2-1.2-3
	c-0.8-0.8-1.8-1.2-3-1.2H17c-0.7-2-1.6-3.5-2.7-4.4c-1.1-1-2.5-1.4-4.3-1.4c-2,0-3.7,0.7-5,2s-2,3-2,5s0.7,3.7,2.1,5.1
	C6.5,33.5,8.2,34.2,10.2,34.2z M22.8,35.2c0.5,0.1,1,0.1,1.8,0.2c0.7,0.1,1.4,0.1,2,0.1c2,0,3.9-0.4,5.9-1.2c2-0.8,3.6-1.8,5-2.9
	c-5-1.6-9.1-4.4-12.2-8.5c-3.1-4-4.7-8.7-4.7-13.9c0-0.8,0.1-1.9,0.2-3.1c0.1-1.2,0.3-2.2,0.5-3c-3.4,1.4-6.2,3.4-8.2,6
	c-2,2.6-3.1,5.6-3.3,8.9c1.7-0.1,3.3,0.3,4.9,1.2c1.6,0.9,2.9,2.5,3.7,4.5c1.9,0,3.5,0.7,4.9,1.9c1.4,1.2,2,2.7,2,4.6
	c0,1.1-0.2,2.1-0.7,3C24.2,33.8,23.5,34.6,22.8,35.2z"/>
</svg>
