<?xml version="1.0" encoding="utf-8"?>
<!-- Generator: Adobe Illustrator 26.3.1, SVG Export Plug-In . SVG Version: 6.00 Build 0)  -->
<svg version="1.1" id="Capa_1" xmlns="http://www.w3.org/2000/svg" xmlns:xlink="http://www.w3.org/1999/xlink" x="0px" y="0px"
	 viewBox="0 0 48 48" style="enable-background:new 0 0 48 48;" xml:space="preserve">
<style type="text/css">
	.st0{fill:#000028;}
</style>
<path class="st0" d="M23.7,23c-1.9,0-3.5-0.6-4.7-1.8c-1.2-1.2-1.8-2.8-1.8-4.7s0.6-3.5,1.8-4.7c1.2-1.2,2.8-1.8,4.7-1.8
	c1.9,0,3.5,0.6,4.7,1.8c1.2,1.2,1.8,2.8,1.8,4.7s-0.6,3.5-1.8,4.7C27.2,22.4,25.6,23,23.7,23z M9,38v-3.7c0-1,0.3-2,0.8-2.8
	c0.6-0.8,1.3-1.4,2.2-1.8c2.1-0.9,4.1-1.6,6-2.1s3.8-0.7,5.7-0.7c1.9,0,3.8,0.2,5.7,0.7c1.9,0.5,3.9,1.2,6,2.1
	c0.9,0.4,1.7,1,2.2,1.8c0.6,0.8,0.8,1.7,0.8,2.7V38H9z M11.2,35.8h25.1v-1.5c0-0.5-0.2-1-0.5-1.4c-0.3-0.5-0.8-0.8-1.3-1.1
	c-1.9-0.9-3.8-1.6-5.5-2c-1.7-0.4-3.5-0.6-5.3-0.6c-1.8,0-3.6,0.2-5.3,0.6c-1.8,0.4-3.6,1-5.5,2c-0.5,0.3-0.9,0.6-1.2,1.1
	c-0.3,0.5-0.5,1-0.5,1.4V35.8z M23.7,20.8c1.2,0,2.2-0.4,3-1.2c0.8-0.8,1.2-1.9,1.2-3.1c0-1.2-0.4-2.2-1.2-3c-0.8-0.8-1.8-1.2-3-1.2
	c-1.2,0-2.2,0.4-3,1.2c-0.8,0.8-1.2,1.8-1.2,3c0,1.2,0.4,2.3,1.2,3.1C21.5,20.4,22.5,20.8,23.7,20.8z"/>
</svg>
