<?xml version="1.0" encoding="utf-8"?>
<!-- Generator: Adobe Illustrator 24.1.0, SVG Export Plug-In . SVG Version: 6.00 Build 0)  -->
<svg version="1.1" id="Capa_1" xmlns="http://www.w3.org/2000/svg" xmlns:xlink="http://www.w3.org/1999/xlink" x="0px" y="0px"
	 viewBox="0 0 32 32" style="enable-background:new 0 0 32 32;" xml:space="preserve">
<style type="text/css">
	.st0{fill:#FFFFFF;}
</style>
<path class="st0" d="M15.8,15.3c-1.3,0-2.3-0.4-3.1-1.2c-0.8-0.8-1.2-1.9-1.2-3.1c0-1.3,0.4-2.3,1.2-3.1s1.9-1.2,3.1-1.2
	c1.3,0,2.3,0.4,3.1,1.2c0.8,0.8,1.2,1.8,1.2,3.1s-0.4,2.3-1.2,3.1C18.1,14.9,17.1,15.3,15.8,15.3z M6,25.3v-2.5
	c0-0.7,0.2-1.3,0.6-1.8s0.9-0.9,1.4-1.2c1.4-0.6,2.7-1.1,4-1.4s2.5-0.5,3.8-0.5s2.5,0.2,3.8,0.5c1.3,0.3,2.6,0.8,4,1.4
	c0.6,0.3,1.1,0.7,1.5,1.2s0.6,1.1,0.6,1.8v2.5H6z M7.5,23.9h16.7v-1c0-0.3-0.1-0.6-0.3-1c-0.2-0.3-0.5-0.6-0.9-0.7
	c-1.3-0.6-2.5-1.1-3.7-1.3c-1.1-0.3-2.3-0.4-3.5-0.4s-2.4,0.1-3.6,0.4s-2.4,0.7-3.7,1.3c-0.3,0.2-0.6,0.4-0.8,0.7
	c-0.2,0.3-0.3,0.6-0.3,1L7.5,23.9L7.5,23.9z M15.8,13.9c0.8,0,1.5-0.3,2-0.8s0.8-1.2,0.8-2.1c0-0.8-0.3-1.5-0.8-2s-1.2-0.8-2-0.8
	s-1.5,0.3-2,0.8S13,10.2,13,11s0.3,1.5,0.8,2.1C14.3,13.6,15,13.9,15.8,13.9z"/>
</svg>
