<svg width="10" height="15" viewBox="0 0 10 15" fill="none" xmlns="http://www.w3.org/2000/svg">
<path d="M5.00033 13.3167C5.13366 13.3167 5.24477 13.2722 5.33366 13.1833C5.42255 13.0944 5.46699 12.9833 5.46699 12.85C5.46699 12.7167 5.41977 12.6056 5.32533 12.5167C5.23088 12.4278 5.12255 12.3833 5.00033 12.3833C4.86699 12.3833 4.75588 12.4278 4.66699 12.5167C4.5781 12.6056 4.53366 12.7167 4.53366 12.85C4.53366 12.9833 4.58088 13.0944 4.67532 13.1833C4.76977 13.2722 4.8781 13.3167 5.00033 13.3167ZM1.41699 11.2H8.58366V2.71667H1.41699V11.2ZM1.63366 14.5C1.36699 14.5 1.13921 14.4056 0.950326 14.2167C0.761437 14.0278 0.666992 13.8 0.666992 13.5333V1.46667C0.666992 1.2 0.761437 0.972222 0.950326 0.783333C1.13921 0.594444 1.36699 0.5 1.63366 0.5H8.36699C8.63366 0.5 8.86144 0.594444 9.05033 0.783333C9.23921 0.972222 9.33366 1.2 9.33366 1.46667V13.5333C9.33366 13.8 9.23921 14.0278 9.05033 14.2167C8.86144 14.4056 8.63366 14.5 8.36699 14.5H1.63366ZM1.41699 1.96667H8.58366V1.46667C8.58366 1.41111 8.56144 1.36111 8.51699 1.31667C8.47255 1.27222 8.42255 1.25 8.36699 1.25H1.63366C1.5781 1.25 1.5281 1.27222 1.48366 1.31667C1.43921 1.36111 1.41699 1.41111 1.41699 1.46667V1.96667ZM1.41699 1.25C1.41699 1.25 1.41699 1.26944 1.41699 1.30833C1.41699 1.34722 1.41699 1.4 1.41699 1.46667V1.96667V1.46667C1.41699 1.4 1.41699 1.34722 1.41699 1.30833C1.41699 1.26944 1.41699 1.25 1.41699 1.25ZM1.41699 11.95V13.5333C1.41699 13.5889 1.43921 13.6389 1.48366 13.6833C1.5281 13.7278 1.5781 13.75 1.63366 13.75H8.36699C8.42255 13.75 8.47255 13.7278 8.51699 13.6833C8.56144 13.6389 8.58366 13.5889 8.58366 13.5333V11.95H1.41699ZM1.41699 13.75C1.41699 13.75 1.41699 13.7306 1.41699 13.6917C1.41699 13.6528 1.41699 13.6 1.41699 13.5333V11.95V13.5333C1.41699 13.6 1.41699 13.6528 1.41699 13.6917C1.41699 13.7306 1.41699 13.75 1.41699 13.75Z" fill="#000028"/>
</svg>
