<?xml version="1.0" encoding="utf-8"?>
<!-- Generator: Adobe Illustrator 24.1.0, SVG Export Plug-In . SVG Version: 6.00 Build 0)  -->
<svg version="1.1" id="Capa_1" xmlns="http://www.w3.org/2000/svg" xmlns:xlink="http://www.w3.org/1999/xlink" x="0px" y="0px"
	 viewBox="0 0 48 48" style="enable-background:new 0 0 48 48;" xml:space="preserve">
<style type="text/css">
	.st0{fill:#000028;}
</style>
<path class="st0" d="M24,33.7c3.6-2.9,6.3-5.6,8.1-8.2c1.8-2.6,2.8-5.1,2.8-7.5c0-2-0.4-3.8-1.1-5.2s-1.7-2.6-2.8-3.5
	c-1.1-0.9-2.3-1.6-3.5-2C26.2,6.9,25,6.8,24,6.8s-2.2,0.2-3.5,0.6c-1.3,0.4-2.4,1-3.5,2c-1.1,0.9-2,2.1-2.8,3.5s-1.1,3.1-1.1,5.2
	c0,2.4,0.9,4.9,2.8,7.5S20.4,30.8,24,33.7z M24,36.5c-4.4-3.3-7.7-6.5-9.9-9.6s-3.2-6.1-3.2-9c0-2.2,0.4-4.2,1.2-5.9
	s1.8-3.1,3.1-4.2s2.7-2,4.2-2.6s3.1-0.8,4.6-0.8s3.1,0.3,4.6,0.8s3,1.4,4.2,2.6s2.3,2.5,3.1,4.2s1.2,3.6,1.2,5.9
	c0,2.9-1.1,5.9-3.2,9C31.7,30,28.4,33.2,24,36.5z M24,20.8c0.9,0,1.6-0.3,2.2-0.9c0.6-0.6,0.9-1.4,0.9-2.2c0-0.9-0.3-1.6-0.9-2.2
	c-0.6-0.6-1.4-0.9-2.2-0.9s-1.6,0.3-2.2,0.9c-0.6,0.6-0.9,1.4-0.9,2.2c0,0.9,0.3,1.6,0.9,2.2C22.4,20.5,23.1,20.8,24,20.8z
	 M10.9,43.5v-2.2h26.3v2.2H10.9z"/>
</svg>
