<?xml version="1.0" encoding="utf-8"?>
<!-- Generator: Adobe Illustrator 27.0.0, SVG Export Plug-In . SVG Version: 6.00 Build 0)  -->
<svg version="1.1" id="Capa_1" xmlns="http://www.w3.org/2000/svg" xmlns:xlink="http://www.w3.org/1999/xlink" x="0px" y="0px"
	 viewBox="0 0 39 48" style="enable-background:new 0 0 39 48;" xml:space="preserve">
<style type="text/css">
	.st0{fill:#000028;}
</style>
<path class="st0" d="M19.5,48C12.9,43,8,38.2,4.8,33.6C1.6,29,0,24.5,0,20.1c0-3.3,0.6-6.3,1.8-8.8C3,8.9,4.5,6.8,6.3,5.1
	c1.9-1.7,3.9-3,6.3-3.8C14.9,0.4,17.2,0,19.5,0s4.6,0.4,6.9,1.3c2.3,0.8,4.4,2.1,6.3,3.8c1.9,1.7,3.4,3.8,4.6,6.3
	c1.2,2.5,1.8,5.4,1.8,8.8c0,4.4-1.6,8.9-4.8,13.5C31,38.2,26.1,43,19.5,48z"/>
</svg>
