<?xml version="1.0" encoding="utf-8"?>
<!-- Generator: Adobe Illustrator 24.1.0, SVG Export Plug-In . SVG Version: 6.00 Build 0)  -->
<svg version="1.1" id="Capa_1" xmlns="http://www.w3.org/2000/svg" xmlns:xlink="http://www.w3.org/1999/xlink" x="0px" y="0px"
	 viewBox="0 0 70 70" style="enable-background:new 0 0 70 70;" xml:space="preserve">
<style type="text/css">
	.st0{fill:#FFFFFF;}
</style>
<path class="st0" d="M26.9,49.1L49.1,35L26.9,20.9V49.1z M35,69.8c-4.8,0-9.3-0.9-13.5-2.8c-4.2-1.8-7.9-4.3-11.1-7.5
	c-3.1-3.1-5.6-6.8-7.5-11.1C1.1,44.3,0.2,39.8,0.2,35c0-4.8,0.9-9.3,2.7-13.5c1.8-4.2,4.3-7.9,7.5-11.1c3.1-3.1,6.8-5.6,11.1-7.5
	c4.2-1.8,8.8-2.8,13.5-2.8c4.8,0,9.3,0.9,13.5,2.8c4.2,1.8,7.9,4.3,11.1,7.5c3.1,3.1,5.6,6.8,7.5,11.1c1.8,4.2,2.8,8.8,2.8,13.5
	c0,4.8-0.9,9.3-2.8,13.5c-1.8,4.2-4.3,7.9-7.5,11.1c-3.1,3.1-6.8,5.6-11.1,7.5C44.3,68.9,39.8,69.8,35,69.8z M35,65.7
	c8.4,0,15.7-3,21.7-9c6-6,9-13.2,9-21.7c0-8.4-3-15.7-9-21.7c-6-6-13.2-9-21.7-9c-8.4,0-15.7,3-21.7,9c-6,6-9,13.2-9,21.7
	c0,8.4,3,15.7,9,21.7C19.3,62.7,26.6,65.7,35,65.7z"/>
</svg>
