<svg width="72" height="72" viewBox="0 0 72 72" fill="none" xmlns="http://www.w3.org/2000/svg">
<path d="M53.025 44.25V40.875H60.525C61.025 40.875 61.4375 41.025 61.7625 41.325C62.0875 41.625 62.25 42.025 62.25 42.525C62.25 43.025 62.0875 43.4375 61.7625 43.7625C61.4375 44.0875 61.025 44.25 60.525 44.25H53.025ZM53.025 56.25V52.875H60.525C61.025 52.875 61.4375 53.025 61.7625 53.325C62.0875 53.625 62.25 54.025 62.25 54.525C62.25 55.025 62.0875 55.4375 61.7625 55.7625C61.4375 56.0875 61.025 56.25 60.525 56.25H53.025ZM42 59.25C40.7 59.25 39.5875 58.6625 38.6625 57.4875C37.7375 56.3125 37.275 54.9 37.275 53.25H30.525V43.875H37.275C37.275 42.225 37.7375 40.8125 38.6625 39.6375C39.5875 38.4625 40.7 37.875 42 37.875H50.55V59.25H42ZM20.775 50.25C17.575 50.25 14.9375 49.2125 12.8625 47.1375C10.7875 45.0625 9.75 42.425 9.75 39.225C9.75 36.075 10.7875 33.4625 12.8625 31.3875C14.9375 29.3125 17.575 28.275 20.775 28.275H25.5C27.25 28.275 28.7 27.7 29.85 26.55C31 25.4 31.575 23.95 31.575 22.2C31.575 20.5 31 19.0625 29.85 17.8875C28.7 16.7125 27.25 16.125 25.5 16.125H14.475C13.975 16.125 13.5625 15.9625 13.2375 15.6375C12.9125 15.3125 12.75 14.925 12.75 14.475C12.75 13.975 12.9125 13.5625 13.2375 13.2375C13.5625 12.9125 13.975 12.75 14.475 12.75H25.5C28.2 12.75 30.4625 13.65 32.2875 15.45C34.1125 17.25 35.025 19.5 35.025 22.2C35.025 24.9 34.1125 27.1625 32.2875 28.9875C30.4625 30.8125 28.2 31.725 25.5 31.725H20.775C18.575 31.725 16.75 32.425 15.3 33.825C13.85 35.225 13.125 37.05 13.125 39.3C13.125 41.5 13.85 43.3125 15.3 44.7375C16.75 46.1625 18.575 46.875 20.775 46.875H28.05V50.25H20.775Z" fill="#000028"/>
</svg>
