<?xml version="1.0" encoding="utf-8"?>
<!-- Generator: Adobe Illustrator 24.1.0, SVG Export Plug-In . SVG Version: 6.00 Build 0)  -->
<svg version="1.1" id="Capa_1" xmlns="http://www.w3.org/2000/svg" xmlns:xlink="http://www.w3.org/1999/xlink" x="0px" y="0px"
	 viewBox="0 0 16 17" style="enable-background:new 0 0 16 17;" xml:space="preserve">
<style type="text/css">
	.st0{fill:#000028;}
</style>
<path class="st0" d="M10.9,5.9V3.8H5.1v2.2H4.4V3h7.3v2.9H10.9z M2.6,6.7c0,0,0.1,0,0.2,0s0.3,0,0.5,0h9.3c0.2,0,0.4,0,0.5,0
	s0.2,0,0.2,0h-1.8H4.4H2.6z M12.1,8.3c0.1,0,0.3-0.1,0.4-0.2c0.1-0.1,0.2-0.2,0.2-0.4c0-0.1-0.1-0.3-0.2-0.4
	c-0.1-0.1-0.2-0.2-0.4-0.2c-0.1,0-0.3,0.1-0.4,0.2c-0.1,0.1-0.2,0.2-0.2,0.4c0,0.2,0.1,0.3,0.2,0.4C11.8,8.2,12,8.3,12.1,8.3z
	 M10.9,13.4v-3.2H5.1v3.2H10.9z M11.6,14.2H4.4v-2.9H1.9V7.4C1.9,7,2,6.7,2.3,6.4s0.6-0.4,1.1-0.4h9.3c0.4,0,0.8,0.1,1.1,0.4
	C14,6.7,14.1,7,14.1,7.4v3.9h-2.5V14.2z M13.4,10.5V7.4c0-0.2-0.1-0.4-0.2-0.5c-0.1-0.1-0.3-0.2-0.5-0.2H3.4C3.1,6.7,3,6.8,2.8,6.9
	C2.7,7.1,2.6,7.2,2.6,7.4v3.1h1.8V9.4h7.3v1.1H13.4z"/>
</svg>
