<svg width="72" height="72" viewBox="0 0 72 72" fill="none" xmlns="http://www.w3.org/2000/svg">
<path d="M51.675 65.25V41.25H43.8V19.65C43.8 16.05 44.8 13.0625 46.8 10.6875C48.8 8.3125 51.575 7.025 55.125 6.825V65.25H51.675ZM22.05 65.25V37.875C19.55 37.475 17.4375 36.3125 15.7125 34.3875C13.9875 32.4625 13.125 30.125 13.125 27.375V6.75H16.5V27.375H22.05V6.75H25.425V27.375H30.975V6.75H34.35V27.375C34.35 30.125 33.4875 32.4625 31.7625 34.3875C30.0375 36.3125 27.925 37.475 25.425 37.875V65.25H22.05Z" fill="#000028"/>
</svg>
