<svg width="72" height="72" viewBox="0 0 72 72" fill="none" xmlns="http://www.w3.org/2000/svg">
<path d="M14.85 50.1H18.6V45.3H53.4V50.1H57.15V37.95C57.15 37.15 56.85 36.275 56.25 35.325C55.65 34.375 54.875 33.65 53.925 33.15V28.5C53.925 27 53.4875 25.8125 52.6125 24.9375C51.7375 24.0625 50.575 23.625 49.125 23.625H39.525C38.725 23.625 38.025 23.775 37.425 24.075C36.825 24.375 36.325 24.8 35.925 25.35C35.575 24.8 35.1 24.375 34.5 24.075C33.9 23.775 33.175 23.625 32.325 23.625H22.875C21.425 23.625 20.2625 24.0625 19.3875 24.9375C18.5125 25.8125 18.075 27 18.075 28.5V33.15C17.125 33.65 16.35 34.375 15.75 35.325C15.15 36.275 14.85 37.15 14.85 37.95V50.1ZM37.5 33.15V27.6C37.5 27.35 37.5875 27.1375 37.7625 26.9625C37.9375 26.7875 38.175 26.7 38.475 26.7H50.025C50.275 26.7 50.4875 26.7875 50.6625 26.9625C50.8375 27.1375 50.925 27.35 50.925 27.6V33.15H37.5ZM21.075 33.15V27.6C21.075 27.35 21.1625 27.1375 21.3375 26.9625C21.5125 26.7875 21.725 26.7 21.975 26.7H33.6C33.85 26.7 34.0625 26.7875 34.2375 26.9625C34.4125 27.1375 34.5 27.35 34.5 27.6V33.15H21.075ZM18.6 42.225V39.15C18.6 38.25 18.875 37.525 19.425 36.975C19.975 36.425 20.7 36.15 21.6 36.15H50.4C51.3 36.15 52.025 36.425 52.575 36.975C53.125 37.525 53.4 38.25 53.4 39.15V42.225H18.6ZM11.85 64.5C10.65 64.5 9.625 64.075 8.775 63.225C7.925 62.375 7.5 61.35 7.5 60.15V11.85C7.5 10.65 7.925 9.625 8.775 8.775C9.625 7.925 10.65 7.5 11.85 7.5H60.15C61.35 7.5 62.375 7.925 63.225 8.775C64.075 9.625 64.5 10.65 64.5 11.85V60.15C64.5 61.35 64.075 62.375 63.225 63.225C62.375 64.075 61.35 64.5 60.15 64.5H11.85ZM11.85 61.125H60.15C60.45 61.125 60.6875 61.0375 60.8625 60.8625C61.0375 60.6875 61.125 60.45 61.125 60.15V11.85C61.125 11.55 61.0375 11.3125 60.8625 11.1375C60.6875 10.9625 60.45 10.875 60.15 10.875H11.85C11.55 10.875 11.3125 10.9625 11.1375 11.1375C10.9625 11.3125 10.875 11.55 10.875 11.85V60.15C10.875 60.45 10.9625 60.6875 11.1375 60.8625C11.3125 61.0375 11.55 61.125 11.85 61.125ZM10.875 61.125C10.875 61.125 10.875 61.0375 10.875 60.8625C10.875 60.6875 10.875 60.45 10.875 60.15V11.85C10.875 11.55 10.875 11.3125 10.875 11.1375C10.875 10.9625 10.875 10.875 10.875 10.875C10.875 10.875 10.875 10.9625 10.875 11.1375C10.875 11.3125 10.875 11.55 10.875 11.85V60.15C10.875 60.45 10.875 60.6875 10.875 60.8625C10.875 61.0375 10.875 61.125 10.875 61.125Z" fill="#000028"/>
</svg>
