<svg width="72" height="72" viewBox="0 0 72 72" fill="none" xmlns="http://www.w3.org/2000/svg">
<path d="M36.5251 64.425C33.1751 64.075 29.8376 63.1499 26.5126 61.6499C23.1876 60.1499 20.1876 58.0375 17.5126 55.3125C14.8376 52.5875 12.6376 49.2 10.9126 45.1499C9.1876 41.1 8.2501 36.375 8.1001 30.975V28.35L10.5751 28.425C12.9751 28.475 15.6876 29.025 18.7126 30.0749C21.7376 31.125 24.3001 32.45 26.4001 34.05C26.7001 29.9 27.7376 25.5625 29.5126 21.0375C31.2876 16.5125 33.4501 12.65 36.0001 9.44995C38.5501 12.65 40.7126 16.525 42.4876 21.075C44.2626 25.625 45.3001 29.975 45.6001 34.125C47.6501 32.675 50.1626 31.375 53.1376 30.225C56.1126 29.075 58.8501 28.475 61.3501 28.425L63.9001 28.35V30.975C63.8001 35.875 63.0126 40.2499 61.5376 44.0999C60.0626 47.9499 58.1001 51.25 55.6501 54C53.2001 56.75 50.3376 59 47.0626 60.75C43.7876 62.5 40.2751 63.725 36.5251 64.425ZM36.9751 60.975C36.4251 51.975 33.8001 45.1375 29.1001 40.4625C24.4001 35.7875 18.5501 32.925 11.5501 31.875C12.2001 41.1749 14.9501 48.1375 19.8001 52.7625C24.6501 57.3875 30.3751 60.125 36.9751 60.975ZM35.9251 44.3999C36.6251 43.0499 37.5626 41.625 38.7376 40.125C39.9126 38.625 41.0751 37.375 42.2251 36.375C42.4251 33.025 41.9251 29.5875 40.7251 26.0625C39.5251 22.5375 37.9501 18.975 36.0001 15.375C34.0501 18.975 32.4751 22.5375 31.2751 26.0625C30.0751 29.5875 29.5751 33.025 29.7751 36.375C30.9251 37.375 32.0626 38.6374 33.1876 40.1624C34.3126 41.6875 35.2251 43.0999 35.9251 44.3999ZM40.3501 59.925C42.8501 59.025 45.2501 57.8625 47.5501 56.4375C49.8501 55.0125 51.9126 53.2 53.7376 51C55.5626 48.8 57.0751 46.125 58.2751 42.9749C59.4751 39.8249 60.2001 36.125 60.4501 31.875C55.2001 32.625 50.5626 34.475 46.5376 37.425C42.5126 40.375 39.6251 43.975 37.8751 48.225C38.4751 50.025 38.9751 51.825 39.3751 53.625C39.7751 55.425 40.1001 57.525 40.3501 59.925Z" fill="#000028"/>
</svg>
