<svg width="72" height="72" viewBox="0 0 72 72" fill="none" xmlns="http://www.w3.org/2000/svg">
<path d="M42.825 64.125C40.675 64.125 38.55 63.9249 36.45 63.5249C34.35 63.125 32.5 62.575 30.9 61.875C30.7 61.975 30.475 62.0625 30.225 62.1375C29.975 62.2125 29.7 62.25 29.4 62.25H18.3C14.35 62.25 10.9875 60.8624 8.21255 58.0874C5.43755 55.3125 4.05005 51.95 4.05005 48C4.05005 44.85 4.96255 42.0625 6.78755 39.6375C8.61255 37.2125 11.05 35.625 14.1 34.875C14.25 29.025 16.1375 23.6375 19.7625 18.7125C23.3876 13.7875 28.15 10.4 34.05 8.54995C34.45 8.39995 34.875 8.26245 35.325 8.13745C35.775 8.01245 36.15 7.94995 36.45 7.94995C37.15 7.94995 37.7 8.21245 38.1 8.73745C38.5 9.26245 38.7 9.84995 38.7 10.5C38.7 10.65 38.6875 10.8 38.6625 10.95C38.6375 11.1 38.6 11.25 38.55 11.4C38.1 12.9 37.775 14.425 37.575 15.975C37.375 17.525 37.275 19.2 37.275 21C37.275 28.0499 39.5625 34.5125 44.1375 40.3875C48.7125 46.2625 54.55 49.9749 61.65 51.5249C62.35 51.6749 62.8875 51.95 63.2625 52.35C63.6375 52.75 63.825 53.2 63.825 53.7C63.825 54.0499 63.75 54.35 63.6001 54.6C63.4501 54.85 63.25 55.125 63 55.425C60.55 58.025 57.525 60.125 53.925 61.725C50.3251 63.325 46.625 64.125 42.825 64.125ZM18.3 58.875H31.2C32.95 58.875 34.45 58.25 35.7 57C36.95 55.75 37.575 54.25 37.575 52.5C37.575 50.75 36.95 49.2625 35.7 48.0375C34.45 46.8125 32.95 46.2 31.2 46.2H28.425C27.375 43.2 26.025 40.9875 24.375 39.5625C22.725 38.1375 20.6 37.425 18 37.425C15 37.425 12.4875 38.4375 10.4625 40.4624C8.43755 42.4874 7.42505 45 7.42505 48C7.42505 51 8.48755 53.5625 10.6125 55.6875C12.7375 57.8125 15.3 58.875 18.3 58.875ZM37.125 60.225C37.825 60.325 38.7 60.4375 39.75 60.5625C40.8 60.6875 41.825 60.75 42.825 60.75C45.775 60.75 48.725 60.1375 51.675 58.9125C54.625 57.6875 57.1 56.2249 59.1001 54.5249C51.55 52.125 45.4501 47.8875 40.8 41.8125C36.15 35.7375 33.825 28.7999 33.825 21C33.825 19.75 33.9375 18.2125 34.1625 16.3875C34.3875 14.5625 34.625 13.05 34.875 11.85C29.725 13.9 25.625 16.8875 22.5751 20.8125C19.525 24.7375 17.875 29.175 17.625 34.125C20.125 33.975 22.5875 34.6 25.0125 36C27.4375 37.4 29.3 39.675 30.6 42.825C33.45 42.875 35.8875 43.8125 37.9125 45.6375C39.9375 47.4625 40.95 49.75 40.95 52.5C40.95 54.15 40.6125 55.625 39.9375 56.925C39.2625 58.225 38.325 59.325 37.125 60.225Z" fill="#000028"/>
</svg>
