<svg width="72" height="72" viewBox="0 0 72 72" fill="none" xmlns="http://www.w3.org/2000/svg">
<path d="M35.4 60.975C35.7 60.975 36.05 60.9 36.45 60.75C36.85 60.6 37.175 60.4 37.425 60.15L61.95 35.625C62.65 34.925 63.1875 34.15 63.5625 33.3C63.9375 32.45 64.125 31.575 64.125 30.675C64.125 29.775 63.9375 28.875 63.5625 27.975C63.1875 27.075 62.65 26.275 61.95 25.575L49.35 12.975C48.65 12.275 47.875 11.75 47.025 11.4C46.175 11.05 45.3 10.875 44.4 10.875C43.5 10.875 42.625 11.05 41.775 11.4C40.925 11.75 40.15 12.275 39.45 12.975L37.35 15.075L43.275 21.075C43.875 21.675 44.3875 22.4 44.8125 23.25C45.2375 24.1 45.45 25.025 45.45 26.025C45.45 27.675 44.825 29.125 43.575 30.375C42.325 31.625 40.875 32.25 39.225 32.25C38.125 32.25 37.2 32.0875 36.45 31.7625C35.7 31.4375 35 30.975 34.35 30.375L28.8 24.75L15.375 38.175C15.125 38.425 14.925 38.7375 14.775 39.1125C14.625 39.4875 14.55 39.85 14.55 40.2C14.55 40.95 14.7875 41.55 15.2625 42C15.7375 42.45 16.325 42.675 17.025 42.675C17.425 42.675 17.8125 42.5875 18.1875 42.4125C18.5625 42.2375 18.85 42.05 19.05 41.85L29.025 31.875L31.425 34.275L21.525 44.175C21.225 44.475 21.0125 44.8 20.8875 45.15C20.7625 45.5 20.7 45.875 20.7 46.275C20.7 46.925 20.95 47.5 21.45 48C21.95 48.5 22.525 48.75 23.175 48.75C23.575 48.75 23.95 48.675 24.3 48.525C24.65 48.375 24.95 48.175 25.2 47.925L35.475 37.575L37.875 39.975L27.6 50.25C27.4 50.5 27.2125 50.825 27.0375 51.225C26.8625 51.625 26.775 52 26.775 52.35C26.775 53.05 27.025 53.65 27.525 54.15C28.025 54.65 28.625 54.9 29.325 54.9C29.675 54.9 30.025 54.825 30.375 54.675C30.725 54.525 31.025 54.325 31.275 54.075L41.625 43.725L44.025 46.125L33.675 56.475C33.425 56.725 33.225 57.05 33.075 57.45C32.925 57.85 32.85 58.2 32.85 58.5C32.85 59.3 33.0875 59.9125 33.5625 60.3375C34.0375 60.7625 34.65 60.975 35.4 60.975ZM35.4 64.425C33.8 64.425 32.425 63.8375 31.275 62.6625C30.125 61.4875 29.525 60.025 29.475 58.275C27.775 58.175 26.35 57.5875 25.2 56.5125C24.05 55.4375 23.425 54 23.325 52.2C21.575 52.05 20.15 51.425 19.05 50.325C17.95 49.225 17.35 47.8 17.25 46.05C15.55 45.95 14.1125 45.3625 12.9375 44.2875C11.7625 43.2125 11.175 41.825 11.175 40.125C11.175 39.375 11.325 38.6 11.625 37.8C11.925 37 12.375 36.3 12.975 35.7L28.8 19.875L36.45 27.525C36.8 27.925 37.225 28.2375 37.725 28.4625C38.225 28.6875 38.725 28.8 39.225 28.8C39.925 28.8 40.575 28.5125 41.175 27.9375C41.775 27.3625 42.075 26.7 42.075 25.95C42.075 25.55 41.975 25.15 41.775 24.75C41.575 24.35 41.275 23.95 40.875 23.55L30.375 12.975C29.675 12.275 28.9 11.75 28.05 11.4C27.2 11.05 26.3 10.875 25.35 10.875C24.45 10.875 23.5875 11.05 22.7625 11.4C21.9375 11.75 21.175 12.275 20.475 12.975L10.05 23.475C9.3 24.175 8.7625 24.9625 8.4375 25.8375C8.1125 26.7125 7.925 27.675 7.875 28.725C7.875 29.625 8.05 30.5 8.4 31.35C8.75 32.2 9.2 32.975 9.75 33.675L7.2 36.15C6.45 35.2 5.8125 34.0625 5.2875 32.7375C4.7625 31.4125 4.5 30.05 4.5 28.65C4.5 27.2 4.7625 25.8125 5.2875 24.4875C5.8125 23.1625 6.6 22 7.65 21L18 10.575C19.05 9.525 20.2 8.75 21.45 8.25C22.7 7.75 24.025 7.5 25.425 7.5C26.825 7.5 28.15 7.75 29.4 8.25C30.65 8.75 31.8 9.525 32.85 10.575L34.95 12.675L37.05 10.575C38.05 9.525 39.1875 8.75 40.4625 8.25C41.7375 7.75 43.05 7.5 44.4 7.5C45.8 7.5 47.125 7.75 48.375 8.25C49.625 8.75 50.775 9.525 51.825 10.575L64.35 23.1C65.35 24.1 66.125 25.275 66.675 26.625C67.225 27.975 67.5 29.325 67.5 30.675C67.5 32.075 67.225 33.4 66.675 34.65C66.125 35.9 65.35 37.05 64.35 38.1L39.825 62.55C39.225 63.2 38.5375 63.675 37.7625 63.975C36.9875 64.275 36.2 64.425 35.4 64.425Z" fill="#000028"/>
</svg>
