<?xml version="1.0" encoding="utf-8"?>
<!-- Generator: Adobe Illustrator 27.0.0, SVG Export Plug-In . SVG Version: 6.00 Build 0)  -->
<svg version="1.1" id="Capa_1" xmlns="http://www.w3.org/2000/svg" xmlns:xlink="http://www.w3.org/1999/xlink" x="0px" y="0px"
	 viewBox="0 0 48 48" style="enable-background:new 0 0 48 48;" xml:space="preserve">
<style type="text/css">
	.st0{fill:#1C1B1F;}
</style>
<g>
	<path class="st0" d="M18.5,40.8h9.8V38l1.3-0.5c2.6-0.9,4.7-2.3,6.4-4c1.7-1.8,2.9-3.6,3.5-5.6H7.4c0.7,2,1.9,3.8,3.6,5.6
		c1.7,1.8,3.8,3.1,6.3,4l1.3,0.5L18.5,40.8L18.5,40.8z M16.3,43v-3.5c-3.3-1.3-6-3.2-8.1-5.6s-3.3-5.2-3.7-8.2l0,0h3.2V9l35.6-4v2.1
		l-24,2.6v4.5h24.1v2.1h-24v9.5h23c-0.4,3-1.6,5.7-3.7,8.2c-2.1,2.4-4.8,4.3-8.1,5.6V43H16.3z M14.6,14.2h2.7V10l-2.7,0.3
		C14.6,10.3,14.6,14.2,14.6,14.2z M9.8,14.2h2.7v-3.7l-2.7,0.2V14.2z M14.6,25.8h2.7v-9.5h-2.7C14.6,16.3,14.6,25.8,14.6,25.8z
		 M9.8,25.8h2.7v-9.5H9.8V25.8z"/>
</g>
</svg>
