<?xml version="1.0" encoding="utf-8"?>
<!-- Generator: Adobe Illustrator 27.0.0, SVG Export Plug-In . SVG Version: 6.00 Build 0)  -->
<svg version="1.1" id="Capa_1" xmlns="http://www.w3.org/2000/svg" xmlns:xlink="http://www.w3.org/1999/xlink" x="0px" y="0px"
	 viewBox="0 0 48 48" style="enable-background:new 0 0 48 48;" xml:space="preserve">
<style type="text/css">
	.st0{fill:#D9D9D9;filter:url(#Adobe_OpacityMaskFilter);}
	.st1{mask:url(#mask0_4477_54646_00000092444379519502367380000015284974452558010757_);}
	.st2{fill:#1C1B1F;}
</style>
<defs>
	<filter id="Adobe_OpacityMaskFilter" filterUnits="userSpaceOnUse" x="5" y="6" width="38" height="35">
		<feColorMatrix  type="matrix" values="1 0 0 0 0  0 1 0 0 0  0 0 1 0 0  0 0 0 1 0"/>
	</filter>
</defs>
<mask maskUnits="userSpaceOnUse" x="5" y="6" width="38" height="35" id="mask0_4477_54646_00000092444379519502367380000015284974452558010757_">
	<rect class="st0" width="48" height="48"/>
</mask>
<g class="st1">
	<path class="st2" d="M7.2,33.7v4.4c0,0.2,0.1,0.3,0.2,0.5c0.1,0.1,0.3,0.2,0.5,0.2h32.2c0.2,0,0.3-0.1,0.5-0.2s0.2-0.3,0.2-0.5
		v-4.4H7.2z M7.9,13.1h6.8c-0.2-0.3-0.3-0.7-0.4-1.1c-0.1-0.4-0.2-0.8-0.2-1.2c0-1.3,0.5-2.5,1.4-3.4C16.5,6.5,17.6,6,18.9,6
		c0.8,0,1.6,0.2,2.4,0.6c0.7,0.4,1.3,1,1.8,1.7l1,1.5l1-1.5c0.5-0.7,1-1.3,1.8-1.7C27.4,6.3,28.2,6,29,6c1.3,0,2.5,0.4,3.4,1.3
		c0.9,0.9,1.4,2,1.4,3.4c0,0.3,0,0.7-0.2,1.1c-0.1,0.4-0.2,0.8-0.4,1.2h6.9c0.8,0,1.5,0.3,2.1,0.8s0.8,1.2,0.8,2v22.2
		c0,0.8-0.3,1.5-0.8,2.1S40.9,41,40.1,41H7.9c-0.8,0-1.5-0.3-2.1-0.8S5,38.9,5,38.1V15.9c0-0.8,0.3-1.4,0.8-2S7.1,13.1,7.9,13.1z
		 M7.2,29h33.5V15.9c0-0.1-0.1-0.3-0.2-0.4s-0.3-0.2-0.5-0.2H27.5l4.7,6.5l-1.8,1.4L24,14.2l-6.5,8.9l-1.8-1.4l4.7-6.5H7.9
		c-0.2,0-0.3,0.1-0.5,0.2c-0.1,0.1-0.2,0.3-0.2,0.4V29z M18.9,13.2c0.7,0,1.3-0.2,1.8-0.7c0.5-0.5,0.7-1.1,0.7-1.7
		c0-0.7-0.2-1.3-0.7-1.8c-0.5-0.5-1.1-0.7-1.8-0.7c-0.7,0-1.2,0.2-1.7,0.7c-0.5,0.5-0.7,1.1-0.7,1.8c0,0.7,0.2,1.2,0.7,1.7
		C17.7,13,18.2,13.2,18.9,13.2z M29,13.2c0.7,0,1.3-0.2,1.8-0.7c0.5-0.5,0.7-1.1,0.7-1.7c0-0.7-0.2-1.3-0.7-1.8
		c-0.5-0.5-1.1-0.7-1.8-0.7c-0.7,0-1.2,0.2-1.7,0.7c-0.5,0.5-0.7,1.1-0.7,1.8c0,0.7,0.2,1.2,0.7,1.7C27.8,13,28.3,13.2,29,13.2z"/>
</g>
</svg>
