<?xml version="1.0" encoding="utf-8"?>
<!-- Generator: Adobe Illustrator 24.1.0, SVG Export Plug-In . SVG Version: 6.00 Build 0)  -->
<svg version="1.1" id="Capa_1" xmlns="http://www.w3.org/2000/svg" xmlns:xlink="http://www.w3.org/1999/xlink" x="0px" y="0px"
	 viewBox="0 0 38 35" style="enable-background:new 0 0 38 35;" xml:space="preserve">
<style type="text/css">
	.st0{fill:#000028;}
</style>
<path class="st0" d="M2.2,27.6V32c0,0.2,0.1,0.3,0.2,0.5c0.1,0.1,0.3,0.2,0.5,0.2h32.2c0.2,0,0.3-0.1,0.5-0.2s0.2-0.3,0.2-0.5v-4.4
	H2.2z M2.9,7h6.8C9.6,6.7,9.4,6.3,9.3,5.9C9.2,5.5,9.1,5.1,9.1,4.8c0-1.3,0.5-2.5,1.4-3.4C11.5,0.5,12.6,0,13.9,0
	c0.8,0,1.6,0.2,2.4,0.6c0.7,0.4,1.3,1,1.8,1.6l1,1.5l1-1.5c0.5-0.7,1-1.3,1.8-1.7C22.4,0.2,23.2,0,24,0c1.3,0,2.5,0.4,3.4,1.4
	s1.4,2,1.4,3.4c0,0.3,0,0.7-0.1,1.1c-0.1,0.4-0.2,0.8-0.4,1.2h6.9c0.8,0,1.5,0.3,2.1,0.8s0.8,1.2,0.8,2V32c0,0.8-0.3,1.5-0.8,2
	S35.9,35,35.1,35H2.9c-0.8,0-1.5-0.3-2.1-0.9C0.3,33.5,0,32.8,0,32V9.9c0-0.8,0.3-1.4,0.9-2C1.4,7.3,2.1,7,2.9,7z M2.2,27.6h33.5
	V9.9c0-0.1-0.1-0.3-0.2-0.4c-0.1-0.1-0.3-0.2-0.5-0.2H22.5l4.7,6.5l-1.8,1.4L19,8.2l-6.5,8.9l-1.8-1.4l4.7-6.5H2.9
	c-0.2,0-0.3,0.1-0.5,0.2C2.3,9.6,2.2,9.7,2.2,9.9V27.6z M13.9,7.2c0.7,0,1.3-0.2,1.8-0.7s0.7-1.1,0.7-1.7c0-0.7-0.2-1.3-0.7-1.8
	s-1.1-0.7-1.8-0.7c-0.7,0-1.2,0.2-1.7,0.7s-0.7,1.1-0.7,1.8c0,0.7,0.2,1.2,0.7,1.7S13.2,7.2,13.9,7.2z M24,7.2
	c0.7,0,1.3-0.2,1.8-0.7c0.5-0.5,0.7-1.1,0.7-1.7c0-0.7-0.2-1.3-0.7-1.8c-0.5-0.5-1.1-0.7-1.8-0.7c-0.7,0-1.2,0.2-1.7,0.7
	c-0.5,0.5-0.7,1.1-0.7,1.8c0,0.7,0.2,1.2,0.7,1.7C22.8,7,23.3,7.2,24,7.2z"/>
</svg>
