<?xml version="1.0" encoding="utf-8"?>
<!-- Generator: Adobe Illustrator 24.1.0, SVG Export Plug-In . SVG Version: 6.00 Build 0)  -->
<svg version="1.1" id="Capa_1" xmlns="http://www.w3.org/2000/svg" xmlns:xlink="http://www.w3.org/1999/xlink" x="0px" y="0px"
	 viewBox="0 0 48 48" style="enable-background:new 0 0 48 48;" xml:space="preserve">
<style type="text/css">
	.st0{fill:#000028;}
</style>
<path class="st0" d="M34.5,43.5v-16h-5.2V13.1c0-2.4,0.7-4.4,2-6c1.3-1.6,3.2-2.4,5.5-2.6v39H34.5z M14.7,43.5V25.2
	c-1.7-0.3-3.1-1-4.2-2.3c-1.2-1.3-1.7-2.8-1.7-4.7V4.5H11v13.8h3.7V4.5H17v13.8h3.7V4.5h2.2v13.8c0,1.8-0.6,3.4-1.7,4.7
	C20,24.2,18.6,25,17,25.2v18.2H14.7z"/>
</svg>
