<?xml version="1.0" encoding="utf-8"?>
<!-- Generator: Adobe Illustrator 24.1.0, SVG Export Plug-In . SVG Version: 6.00 Build 0)  -->
<svg version="1.1" id="Capa_1" xmlns="http://www.w3.org/2000/svg" xmlns:xlink="http://www.w3.org/1999/xlink" x="0px" y="0px"
	 viewBox="0 0 48 48" style="enable-background:new 0 0 48 48;" xml:space="preserve">
<style type="text/css">
	.st0{fill:#000028;}
</style>
<path class="st0" d="M5.2,36.4v-2.3h37.5v2.3H5.2z M6.7,31v-0.4C6.7,25.8,8.1,22,11,19c2.9-3,6.5-4.9,10.8-5.6v-1.5
	c0-0.6,0.2-1.2,0.6-1.6c0.4-0.4,1-0.7,1.6-0.7s1.2,0.2,1.6,0.7c0.4,0.4,0.6,1,0.6,1.6v1.5C30.5,14.1,34.1,16,37,19s4.3,6.9,4.3,11.6
	V31H6.7z M9.1,28.8H39c-0.4-4-2-7.2-4.9-9.6c-2.9-2.4-6.2-3.6-10.1-3.6c-3.8,0-7.1,1.2-10,3.6S9.4,24.8,9.1,28.8z"/>
</svg>
