<?xml version="1.0" encoding="utf-8"?>
<!-- Generator: Adobe Illustrator 27.0.0, SVG Export Plug-In . SVG Version: 6.00 Build 0)  -->
<svg version="1.1" id="Capa_1" xmlns="http://www.w3.org/2000/svg" xmlns:xlink="http://www.w3.org/1999/xlink" x="0px" y="0px"
	 viewBox="0 0 48 48" style="enable-background:new 0 0 48 48;" xml:space="preserve">
<style type="text/css">
	.st0{fill:#1C1B1F;}
</style>
<g>
	<path class="st0" d="M41.2,43.5V13.6c0-1.4-0.5-2.5-1.4-3.5s-2.1-1.4-3.5-1.4h-2.8v3c0,0.3-0.1,0.5-0.3,0.7s-0.5,0.3-0.8,0.3h-9.9
		c-0.4,0-0.7-0.2-0.9-0.6c-0.1-0.4-0.2-0.7,0-1l3.5-7.4c0.2-0.4,0.4-0.7,0.8-0.9s0.8-0.3,1.2-0.3h4.5c0.5,0,1,0.2,1.4,0.6
		s0.5,0.9,0.5,1.4v2h2.8c2,0,3.7,0.7,5.1,2.1s2.1,3.1,2.1,5.1v29.9L41.2,43.5L41.2,43.5z M24.5,10.5h6.8V4.8H27L24.5,10.5z
		 M9.6,43.5C8.2,43.5,7,43,6,42s-1.5-2.2-1.5-3.7v-5c0-1,0.4-1.9,1.1-2.7s1.7-1.3,2.9-1.4v-5.1c0-0.8,0.3-1.4,0.9-2
		c0.6-0.6,1.2-0.9,2-0.9h16.5c0.8,0,1.4,0.3,2,0.9s0.9,1.2,0.9,2v5.1c1.2,0.1,2.2,0.6,2.9,1.4s1.1,1.7,1.1,2.7v5
		c0,1.5-0.5,2.7-1.5,3.7s-2.2,1.5-3.6,1.5H9.6z M10.8,24.1v5.6c0.6,0.4,1.1,1,1.4,1.6c0.4,0.7,0.6,1.3,0.6,2v1.9h13.8v-1.9
		c0-0.7,0.2-1.3,0.5-2c0.4-0.6,0.9-1.2,1.5-1.6v-5.6c0-0.2-0.1-0.3-0.2-0.4s-0.3-0.2-0.4-0.2H11.4c-0.2,0-0.4,0.1-0.5,0.2
		C10.8,23.8,10.8,23.9,10.8,24.1z M9.6,41.2h20c0.8,0,1.5-0.3,2.1-0.9c0.5-0.6,0.8-1.3,0.8-2v-5c0-0.5-0.2-1-0.5-1.3
		c-0.4-0.4-0.8-0.5-1.3-0.5c-0.6,0-1,0.2-1.4,0.5s-0.5,0.8-0.5,1.3v4.2H10.5v-4.2c0-0.5-0.2-1-0.5-1.3c-0.4-0.4-0.8-0.5-1.3-0.5
		c-0.6,0-1,0.2-1.4,0.5c-0.3,0.3-0.5,0.8-0.5,1.3v5c0,0.7,0.3,1.4,0.8,2C8.1,41,8.8,41.2,9.6,41.2z"/>
</g>
</svg>
