<svg width="38" height="38" viewBox="0 0 38 38" fill="none" xmlns="http://www.w3.org/2000/svg">
<path d="M26.05 16.15C26.7167 16.15 27.275 15.925 27.725 15.475C28.175 15.025 28.4 14.45 28.4 13.75C28.4 13.05 28.175 12.475 27.725 12.025C27.275 11.575 26.7167 11.35 26.05 11.35C25.35 11.35 24.775 11.575 24.325 12.025C23.875 12.475 23.65 13.05 23.65 13.75C23.65 14.45 23.875 15.025 24.325 15.475C24.775 15.925 25.35 16.15 26.05 16.15ZM11.95 16.15C12.65 16.15 13.225 15.925 13.675 15.475C14.125 15.025 14.35 14.45 14.35 13.75C14.35 13.05 14.125 12.475 13.675 12.025C13.225 11.575 12.65 11.35 11.95 11.35C11.2833 11.35 10.725 11.575 10.275 12.025C9.825 12.475 9.6 13.05 9.6 13.75C9.6 14.45 9.825 15.025 10.275 15.475C10.725 15.925 11.2833 16.15 11.95 16.15ZM19 29.35C20.9667 29.35 22.8167 28.8333 24.55 27.8C26.2833 26.7667 27.5833 25.25 28.45 23.25H26.35C25.5833 24.55 24.5583 25.5583 23.275 26.275C21.9917 26.9917 20.5667 27.35 19 27.35C17.4667 27.35 16.05 27 14.75 26.3C13.45 25.6 12.4333 24.5833 11.7 23.25H9.55C10.45 25.25 11.7583 26.7667 13.475 27.8C15.1917 28.8333 17.0333 29.35 19 29.35ZM19 38C16.3667 38 13.9 37.5 11.6 36.5C9.3 35.5 7.29167 34.1417 5.575 32.425C3.85833 30.7083 2.5 28.7 1.5 26.4C0.5 24.1 0 21.6333 0 19C0 16.3667 0.5 13.8917 1.5 11.575C2.5 9.25833 3.85833 7.25 5.575 5.55C7.29167 3.85 9.3 2.5 11.6 1.5C13.9 0.5 16.3667 0 19 0C21.6333 0 24.1083 0.5 26.425 1.5C28.7417 2.5 30.75 3.85 32.45 5.55C34.15 7.25 35.5 9.25833 36.5 11.575C37.5 13.8917 38 16.3667 38 19C38 21.6333 37.5 24.1 36.5 26.4C35.5 28.7 34.15 30.7083 32.45 32.425C30.75 34.1417 28.7417 35.5 26.425 36.5C24.1083 37.5 21.6333 38 19 38ZM19 35.75C23.6667 35.75 27.625 34.1167 30.875 30.85C34.125 27.5833 35.75 23.6333 35.75 19C35.75 14.3333 34.125 10.375 30.875 7.125C27.625 3.875 23.6833 2.25 19.05 2.25C14.3833 2.25 10.4167 3.875 7.15 7.125C3.88333 10.375 2.25 14.3167 2.25 18.95C2.25 23.6167 3.88333 27.5833 7.15 30.85C10.4167 34.1167 14.3667 35.75 19 35.75Z" fill="#000028"/>
</svg>
