<?xml version="1.0" encoding="utf-8"?>
<!-- Generator: Adobe Illustrator 24.1.0, SVG Export Plug-In . SVG Version: 6.00 Build 0)  -->
<svg version="1.1" id="Capa_1" xmlns="http://www.w3.org/2000/svg" xmlns:xlink="http://www.w3.org/1999/xlink" x="0px" y="0px"
	 viewBox="0 0 48 48" style="enable-background:new 0 0 48 48;" xml:space="preserve">
<style type="text/css">
	.st0{fill:#000028;}
</style>
<path class="st0" d="M11,43V24l-0.8-0.8c-0.3-0.3-0.6-0.7-0.7-1c-0.1-0.4-0.2-0.8-0.2-1.2c0-0.4,0.1-0.8,0.2-1.2
	c0.1-0.4,0.4-0.7,0.7-1l6.3-6.4h8.2l7.6-7.6l3.5,3.5c1.3,1.3,2.2,2.7,2.9,4.3s1,3.3,1,4.9c0,1.6-0.4,3.3-1,4.9
	c-0.6,1.7-1.6,3.1-2.9,4.4l-4.3,4.4V43H11z M13.2,40.8h16V30.2l5-5c1.1-1.1,1.9-2.3,2.4-3.6s0.8-2.7,0.8-4.1c0-1.4-0.3-2.8-0.8-4.1
	c-0.5-1.3-1.3-2.5-2.4-3.5l-1.9-1.9l-1.9,1.9l-4.8,4.8h-8.2l-2.1,2l4,4c0.9,0.9,1.6,1.9,2,3S22,25.9,22,27c0,1-0.2,2.1-0.5,3.1
	s-0.9,1.9-1.6,2.8l-6.7-6.7V40.8z"/>
<path class="st0" d="M34.2,9.9l-1.9-1.9l-1.9,1.9C31.1,10.5,32.8,11.4,34.2,9.9z"/>
<path class="st0" d="M23.5,17L23.5,17c0.8,0,1.5,0.7,1.5,1.5l0,0c0,0.8-0.7,1.5-1.5,1.5l0,0c-0.8,0-1.5-0.7-1.5-1.5l0,0
	C22,17.7,22.7,17,23.5,17z"/>
</svg>
