<?xml version="1.0" encoding="utf-8"?>
<!-- Generator: Adobe Illustrator 24.1.0, SVG Export Plug-In . SVG Version: 6.00 Build 0)  -->
<svg version="1.1" id="Capa_1" xmlns="http://www.w3.org/2000/svg" xmlns:xlink="http://www.w3.org/1999/xlink" x="0px" y="0px"
	 viewBox="0 0 48 48" style="enable-background:new 0 0 48 48;" xml:space="preserve">
<style type="text/css">
	.st0{fill:#000028;}
</style>
<path class="st0" d="M24.4,43c-2.2-0.2-4.5-0.9-6.7-1.9c-2.2-1-4.2-2.4-6-4.2c-1.8-1.8-3.2-4.1-4.4-6.8s-1.8-5.9-1.9-9.5v-1.8
	L7.1,19c1.6,0,3.4,0.4,5.4,1.1c2,0.7,3.7,1.6,5.1,2.7c0.2-2.8,0.9-5.7,2.1-8.7c1.2-3,2.6-5.6,4.3-7.7c1.7,2.1,3.1,4.7,4.3,7.8
	c1.2,3,1.9,5.9,2.1,8.7c1.4-1,3-1.8,5-2.6c2-0.8,3.8-1.2,5.5-1.2l1.7-0.1v1.8c-0.1,3.3-0.6,6.2-1.6,8.8c-1,2.6-2.3,4.8-3.9,6.6
	c-1.6,1.8-3.5,3.3-5.7,4.5C29.2,41.7,26.9,42.5,24.4,43z M24.6,40.7c-0.4-6-2.1-10.6-5.2-13.7c-3.1-3.1-7-5-11.7-5.7
	c0.4,6.2,2.3,10.8,5.5,13.9C16.4,38.3,20.2,40.1,24.6,40.7z M24,29.6c0.5-0.9,1.1-1.9,1.9-2.9c0.8-1,1.6-1.8,2.3-2.5
	c0.1-2.2-0.2-4.5-1-6.9c-0.8-2.4-1.9-4.7-3.1-7.1c-1.3,2.4-2.4,4.8-3.1,7.1c-0.8,2.4-1.1,4.6-1,6.9c0.8,0.7,1.5,1.5,2.3,2.5
	C22.9,27.8,23.5,28.7,24,29.6z M26.9,40c1.7-0.6,3.3-1.4,4.8-2.3c1.5-1,2.9-2.2,4.1-3.6c1.2-1.5,2.2-3.2,3-5.4
	c0.8-2.1,1.3-4.6,1.5-7.4C36.8,21.8,33.7,23,31,25c-2.7,2-4.6,4.4-5.8,7.2c0.4,1.2,0.7,2.4,1,3.6C26.5,37,26.7,38.3,26.9,40z"/>
</svg>
