<?xml version="1.0" encoding="utf-8"?>
<!-- Generator: Adobe Illustrator 24.1.0, SVG Export Plug-In . SVG Version: 6.00 Build 0)  -->
<svg version="1.1" id="Capa_1" xmlns="http://www.w3.org/2000/svg" xmlns:xlink="http://www.w3.org/1999/xlink" x="0px" y="0px"
	 viewBox="0 0 22.8 21.7" style="enable-background:new 0 0 22.8 21.7;" xml:space="preserve">
<style type="text/css">
	.st0{fill:#A79B67;}
</style>
<g>
	<path class="st0" d="M11.4,3.2l1.7,5.4l0.2,0.7h0.7h5.6l-4.6,3.3L14.5,13l0.2,0.7l1.7,5.4L12,15.8l-0.6-0.4l-0.6,0.4l-4.6,3.3
		L8,13.7L8.2,13l-0.6-0.4L3.1,9.3h5.6h0.7l0.2-0.7L11.4,3.2 M11.4,0L8.7,8.3H0l7,5.1l-2.7,8.3l7.1-5.1l7,5.1l-2.7-8.3l7.1-5.1h-8.7
		L11.4,0L11.4,0z"/>
</g>
</svg>
