<?xml version="1.0" encoding="utf-8"?>
<!-- Generator: Adobe Illustrator 24.1.0, SVG Export Plug-In . SVG Version: 6.00 Build 0)  -->
<svg version="1.1" id="Capa_1" xmlns="http://www.w3.org/2000/svg" xmlns:xlink="http://www.w3.org/1999/xlink" x="0px" y="0px"
	 viewBox="0 0 88 16" style="enable-background:new 0 0 88 16;" xml:space="preserve">
<style type="text/css">
	.st0{fill:#A79B67;}
</style>
<path class="st0" d="M8,0l1.8,5.5h5.8l-4.7,3.4l1.8,5.5L8,11.1l-4.7,3.4l1.8-5.5L0.4,5.5h5.8L8,0z"/>
<path class="st0" d="M26,0l1.8,5.5h5.8l-4.7,3.4l1.8,5.5L26,11.1l-4.7,3.4l1.8-5.5l-4.7-3.4h5.8L26,0z"/>
<path class="st0" d="M44,0l1.8,5.5h5.8l-4.7,3.4l1.8,5.5L44,11.1l-4.7,3.4l1.8-5.5l-4.7-3.4h5.8L44,0z"/>
<path class="st0" d="M62,0l1.8,5.5h5.8l-4.7,3.4l1.8,5.5L62,11.1l-4.7,3.4l1.8-5.5l-4.7-3.4h5.8L62,0z"/>
<path class="st0" d="M80,0l1.8,5.5h5.8l-4.7,3.4l1.8,5.5L80,11.1l-4.7,3.4l1.8-5.5l-4.7-3.4h5.8L80,0z"/>
</svg>
