<svg width="72" height="72" viewBox="0 0 72 72" fill="none" xmlns="http://www.w3.org/2000/svg">
<path d="M7.7998 64.425L13.1998 37.5H58.7248L64.1248 64.425H7.7998ZM10.0498 10.875V7.5H18.5998V10.875H10.0498ZM12.0748 61.05H34.2748V52.725H13.7248L12.0748 61.05ZM17.6248 27.15L15.1498 24.75L21.2248 18.675L23.6998 21.075L17.6248 27.15ZM14.3998 49.275H34.2748V40.875H16.0498L14.3998 49.275ZM35.9998 19.95C32.5498 19.95 29.6498 18.7375 27.2998 16.3125C24.9498 13.8875 23.6998 10.95 23.5498 7.5H26.9248C27.0248 10 27.9498 12.125 29.6998 13.875C31.4498 15.625 33.5498 16.5 35.9998 16.5C38.4498 16.5 40.5498 15.625 42.2998 13.875C44.0498 12.125 44.9748 10 45.0748 7.5H48.4498C48.2998 10.95 47.0498 13.8875 44.6998 16.3125C42.3498 18.7375 39.4498 19.95 35.9998 19.95ZM34.2748 33.3V24.75H37.7248V33.3H34.2748ZM37.7248 61.05H59.9248L58.2748 52.725H37.7248V61.05ZM37.7248 49.275H57.5998L55.8748 40.875H37.7248V49.275ZM54.4498 27.075L48.3748 21L50.6998 18.675L56.9248 24.675L54.4498 27.075ZM53.3998 10.875V7.5H61.9498V10.875H53.3998Z" fill="#000028"/>
</svg>
