<?xml version="1.0" encoding="utf-8"?>
<!-- Generator: Adobe Illustrator 24.1.0, SVG Export Plug-In . SVG Version: 6.00 Build 0)  -->
<svg version="1.1" id="Capa_1" xmlns="http://www.w3.org/2000/svg" xmlns:xlink="http://www.w3.org/1999/xlink" x="0px" y="0px"
	 viewBox="0 0 14 18" style="enable-background:new 0 0 14 18;" xml:space="preserve">
<style type="text/css">
	.st0{fill:#000028;}
</style>
<path class="st0" d="M3,16.4h8.1c0.1,0,0.2,0,0.2-0.1c0.1-0.1,0.1-0.1,0.1-0.2V4.9H2.6V16c0,0.1,0,0.2,0.1,0.2
	C2.8,16.3,2.9,16.4,3,16.4z M0.8,3V1.8h2.9l1-1h4.7l1,1h2.9V3H0.8z M3,17.5c-0.4,0-0.7-0.1-1-0.4c-0.3-0.3-0.4-0.6-0.4-1V3.8h11V16
	c0,0.4-0.1,0.7-0.4,1c-0.3,0.3-0.6,0.4-1,0.4H3z M2.6,16.4h8.7c0,0,0,0-0.1,0c-0.1,0-0.1,0-0.2,0H3C2.9,16.4,2.8,16.4,2.6,16.4
	C2.7,16.4,2.6,16.4,2.6,16.4z"/>
</svg>
