<?xml version="1.0" encoding="utf-8"?>
<!-- Generator: Adobe Illustrator 24.1.0, SVG Export Plug-In . SVG Version: 6.00 Build 0)  -->
<svg version="1.1" id="Capa_1" xmlns="http://www.w3.org/2000/svg" xmlns:xlink="http://www.w3.org/1999/xlink" x="0px" y="0px"
	 viewBox="0 0 63 11" style="enable-background:new 0 0 63 11;" xml:space="preserve">
<style type="text/css">
	.st0{fill:#4AA482;stroke:#4AA482;}
	.st1{fill:none;stroke:#4AA482;}
</style>
<path class="st0" d="M8.5,5.5c0,1.7-1.3,3-3,3s-3-1.3-3-3s1.3-3,3-3S8.5,3.8,8.5,5.5z"/>
<path class="st1" d="M10.5,5.5c0,2.8-2.2,5-5,5s-5-2.2-5-5s2.2-5,5-5S10.5,2.7,10.5,5.5z"/>
<path class="st0" d="M21.5,5.5c0,1.7-1.3,3-3,3s-3-1.3-3-3s1.3-3,3-3S21.5,3.8,21.5,5.5z"/>
<path class="st1" d="M23.5,5.5c0,2.8-2.2,5-5,5s-5-2.2-5-5s2.2-5,5-5S23.5,2.7,23.5,5.5z"/>
<path class="st0" d="M34.5,5.5c0,1.7-1.3,3-3,3c-1.7,0-3-1.3-3-3s1.3-3,3-3C33.2,2.5,34.5,3.8,34.5,5.5z"/>
<path class="st1" d="M36.5,5.5c0,2.8-2.2,5-5,5s-5-2.2-5-5s2.2-5,5-5S36.5,2.7,36.5,5.5z"/>
<path class="st0" d="M47.5,5.5c0,1.7-1.3,3-3,3s-3-1.3-3-3s1.3-3,3-3S47.5,3.8,47.5,5.5z"/>
<path class="st1" d="M49.5,5.5c0,2.8-2.2,5-5,5s-5-2.2-5-5s2.2-5,5-5S49.5,2.7,49.5,5.5z"/>
<path class="st0" d="M60.5,5.5c0,1.7-1.3,3-3,3s-3-1.3-3-3s1.3-3,3-3S60.5,3.8,60.5,5.5z"/>
<path class="st1" d="M62.5,5.5c0,2.8-2.2,5-5,5s-5-2.2-5-5s2.2-5,5-5S62.5,2.7,62.5,5.5z"/>
</svg>
