<?xml version="1.0" encoding="utf-8"?>
<!-- Generator: Adobe Illustrator 24.1.0, SVG Export Plug-In . SVG Version: 6.00 Build 0)  -->
<svg version="1.1" id="Capa_1" xmlns="http://www.w3.org/2000/svg" xmlns:xlink="http://www.w3.org/1999/xlink" x="0px" y="0px"
	 viewBox="0 0 22 22" style="enable-background:new 0 0 22 22;" xml:space="preserve">
<style type="text/css">
	.st0{fill:#000028;}
</style>
<path class="st0" d="M11,15.5c1.7-1.3,2.9-2.6,3.8-3.8c0.9-1.2,1.2-2.4,1.2-3.5c0-0.9-0.2-1.8-0.6-2.4s-0.8-1.2-1.2-1.6
	c-0.6-0.5-1.1-0.6-1.7-0.9S11.5,3.1,11,3.1s-1,0.1-1.6,0.2C8.8,3.4,8.2,3.8,7.8,4.2c-0.6,0.3-1,0.9-1.3,1.6C6.1,6.4,6,7.2,6,8.2
	c0,1.1,0.5,2.2,1.2,3.5C8.1,12.9,9.4,14.1,11,15.5z M11,16.8c-2-1.6-3.6-3-4.6-4.5c-1-1.3-1.6-2.8-1.6-4.1c0-1.1,0.2-2,0.6-2.8
	C5.8,4.7,6.3,4,6.9,3.6c0.6-0.6,1.2-0.9,2-1.2C9.5,2.1,10.3,2,11,2s1.4,0.1,2.1,0.5c0.6,0.3,1.3,0.6,2,1.2c0.6,0.5,1,1,1.4,1.8
	c0.3,0.8,0.6,1.7,0.6,2.7c0,1.3-0.6,2.8-1.6,4.2S13,15.2,11,16.8z M11,9.4c0.5,0,0.8-0.1,1-0.5c0.3-0.3,0.5-0.6,0.5-1
	c0-0.5-0.1-0.8-0.5-1c-0.2-0.2-0.6-0.5-1-0.5s-0.8,0.2-1,0.5C9.7,7.3,9.5,7.6,9.5,8c0,0.5,0.1,0.8,0.5,1C10.2,9.3,10.6,9.4,11,9.4z
	 M4.9,20v-1h12.2v1H4.9z"/>
</svg>
