<?xml version="1.0" encoding="utf-8"?>
<!-- Generator: Adobe Illustrator 24.1.0, SVG Export Plug-In . SVG Version: 6.00 Build 0)  -->
<svg version="1.1" id="Capa_1" xmlns="http://www.w3.org/2000/svg" xmlns:xlink="http://www.w3.org/1999/xlink" x="0px" y="0px"
	 viewBox="0 0 48 48" style="enable-background:new 0 0 48 48;" xml:space="preserve">
<style type="text/css">
	.st0{fill:#000028;}
</style>
<path class="st0" d="M4.5,39.2V37c0.9-0.1,1.7-0.4,2.3-0.8c0.6-0.4,1.3-0.8,1.9-1.2c0.6-0.4,1.4-0.8,2.1-1.1c0.8-0.3,1.8-0.5,3-0.5
	c1.1,0,2.1,0.2,3,0.6c0.8,0.4,1.6,0.8,2.3,1.3c0.7,0.5,1.5,0.9,2.2,1.3C22.2,36.9,23,37,24,37s1.8-0.2,2.6-0.6
	c0.8-0.4,1.5-0.8,2.2-1.3c0.7-0.5,1.5-0.9,2.3-1.3c0.9-0.4,1.9-0.6,3-0.6c1.2,0,2.1,0.2,2.9,0.5c0.8,0.3,1.5,0.7,2.2,1.1
	c0.7,0.4,1.3,0.8,2,1.2c0.6,0.4,1.4,0.7,2.3,0.8v2.2c-1-0.1-1.9-0.3-2.6-0.7c-0.7-0.4-1.4-0.8-2.1-1.2c-0.7-0.4-1.4-0.8-2.1-1.2
	c-0.7-0.3-1.6-0.5-2.5-0.5c-1,0-1.9,0.2-2.7,0.6c-0.8,0.4-1.5,0.8-2.2,1.2c-0.7,0.5-1.5,0.9-2.3,1.3c-0.8,0.4-1.8,0.6-3,0.6
	s-2.1-0.2-3-0.6c-0.8-0.4-1.6-0.8-2.3-1.3c-0.7-0.5-1.5-0.9-2.2-1.2c-0.8-0.4-1.6-0.6-2.6-0.6c-1,0-1.9,0.2-2.6,0.5
	c-0.7,0.3-1.4,0.7-2.1,1.2s-1.4,0.8-2.1,1.2C6.4,38.9,5.5,39.2,4.5,39.2z M4.5,31v-2.2c0.9-0.1,1.7-0.4,2.3-0.8s1.3-0.8,1.9-1.2
	c0.6-0.4,1.4-0.8,2.1-1.1s1.8-0.5,3-0.5c1.1,0,2.1,0.2,3,0.6c0.8,0.4,1.6,0.8,2.3,1.2c0.7,0.4,1.5,0.9,2.2,1.2
	c0.8,0.4,1.6,0.6,2.6,0.6s1.8-0.2,2.6-0.6c0.8-0.4,1.5-0.8,2.2-1.2c0.7-0.5,1.5-0.9,2.3-1.2c0.9-0.4,1.9-0.6,3-0.6
	c1.2,0,2.1,0.2,2.9,0.5c0.8,0.3,1.5,0.7,2.2,1.1s1.3,0.9,2,1.2s1.4,0.7,2.3,0.8V31c-1-0.2-1.9-0.4-2.6-0.8c-0.7-0.4-1.4-0.8-2.1-1.2
	c-0.7-0.4-1.4-0.8-2.1-1.1c-0.7-0.3-1.6-0.5-2.5-0.5c-1,0-1.9,0.2-2.6,0.6c-0.8,0.4-1.5,0.8-2.2,1.2c-0.7,0.4-1.5,0.9-2.4,1.2
	c-0.9,0.4-1.8,0.6-3,0.6s-2.1-0.2-3-0.6c-0.8-0.4-1.6-0.8-2.3-1.2c-0.7-0.5-1.5-0.9-2.2-1.2c-0.8-0.4-1.6-0.6-2.6-0.6
	c-1,0-1.9,0.2-2.6,0.5c-0.7,0.4-1.4,0.7-2.1,1.2s-1.4,0.8-2.1,1.2C6.4,30.7,5.5,31,4.5,31z M4.5,14.6v-2.2c0.9-0.1,1.7-0.4,2.3-0.8
	s1.3-0.8,1.9-1.2c0.6-0.4,1.4-0.8,2.1-1.1c0.8-0.3,1.8-0.5,3-0.5c1.1,0,2.1,0.2,3,0.6c0.8,0.4,1.6,0.8,2.3,1.3
	c0.7,0.4,1.5,0.9,2.2,1.2c0.8,0.4,1.6,0.6,2.6,0.6s1.8-0.2,2.6-0.6c0.8-0.4,1.5-0.8,2.2-1.2c0.7-0.4,1.5-0.9,2.3-1.3
	c0.9-0.4,1.9-0.6,3-0.6c1.2,0,2.1,0.2,2.9,0.5c0.8,0.3,1.5,0.7,2.2,1.1c0.7,0.4,1.3,0.8,2,1.2s1.4,0.6,2.3,0.8v2.2
	c-1-0.1-1.9-0.3-2.6-0.7s-1.4-0.8-2.1-1.2c-0.7-0.4-1.4-0.8-2.1-1.2c-0.7-0.4-1.6-0.5-2.5-0.5c-1,0-1.9,0.2-2.7,0.6
	c-0.8,0.4-1.5,0.8-2.2,1.3c-0.7,0.5-1.5,0.9-2.3,1.3c-0.8,0.4-1.8,0.6-3,0.6s-2.1-0.2-3-0.6c-0.8-0.4-1.6-0.8-2.3-1.3
	c-0.7-0.5-1.5-0.9-2.2-1.3c-0.8-0.4-1.6-0.6-2.6-0.6c-1,0-1.9,0.2-2.6,0.5c-0.7,0.3-1.4,0.7-2.1,1.2s-1.4,0.8-2.1,1.2
	S5.5,14.5,4.5,14.6z M4.5,22.8v-2.2c0.9-0.1,1.7-0.4,2.3-0.8c0.6-0.4,1.3-0.8,1.9-1.2c0.6-0.4,1.4-0.8,2.1-1.1
	c0.8-0.3,1.8-0.5,3-0.5c1.1,0,2.1,0.2,3,0.6c0.8,0.4,1.6,0.8,2.3,1.2c0.7,0.5,1.5,0.9,2.2,1.2c0.8,0.4,1.6,0.6,2.6,0.6
	s1.8-0.2,2.6-0.6c0.8-0.4,1.5-0.8,2.2-1.2c0.7-0.4,1.5-0.9,2.3-1.2c0.9-0.4,1.9-0.6,3-0.6c1.2,0,2.1,0.2,2.9,0.5
	c0.8,0.3,1.5,0.7,2.2,1.1s1.3,0.8,2,1.2c0.6,0.4,1.4,0.6,2.3,0.8v2.2c-1-0.1-1.9-0.3-2.6-0.7s-1.4-0.8-2.1-1.2
	c-0.7-0.5-1.4-0.8-2.1-1.2c-0.7-0.3-1.6-0.5-2.5-0.5c-1,0-1.9,0.2-2.7,0.6c-0.8,0.4-1.5,0.8-2.2,1.2c-0.7,0.5-1.5,0.9-2.3,1.2
	c-0.8,0.4-1.8,0.6-3,0.6s-2.1-0.2-3-0.6c-0.8-0.4-1.6-0.8-2.3-1.2c-0.7-0.4-1.5-0.9-2.2-1.2c-0.8-0.4-1.6-0.6-2.6-0.6
	c-1,0-1.9,0.2-2.6,0.5c-0.7,0.3-1.4,0.7-2.1,1.2s-1.4,0.9-2.1,1.2S5.5,22.7,4.5,22.8z"/>
</svg>
