<?xml version="1.0" encoding="utf-8"?>
<!-- Generator: Adobe Illustrator 24.1.0, SVG Export Plug-In . SVG Version: 6.00 Build 0)  -->
<svg version="1.1" id="Capa_1" xmlns="http://www.w3.org/2000/svg" xmlns:xlink="http://www.w3.org/1999/xlink" x="0px" y="0px"
	 viewBox="0 0 48 48" style="enable-background:new 0 0 48 48;" xml:space="preserve">
<style type="text/css">
	.st0{fill:#000028;}
</style>
<path class="st0" d="M11.9,30.3L9.5,28c2.1-2.1,4.3-3.7,6.7-4.8c2.4-1.1,5-1.6,7.7-1.6c2.8,0,5.3,0.5,7.7,1.6
	c2.4,1.1,4.6,2.7,6.7,4.8l-2.4,2.3c-1.9-1.9-3.8-3.2-5.8-4.1c-2-0.9-4.1-1.3-6.2-1.3c-2.1,0-4.2,0.4-6.2,1.3
	C15.7,27.1,13.8,28.4,11.9,30.3z M3.4,21.9l-2.3-2.4c2.9-3,6.4-5.4,10.3-7.2c3.9-1.8,8.1-2.7,12.6-2.7s8.7,0.9,12.6,2.7
	c3.9,1.8,7.3,4.2,10.3,7.2l-2.4,2.4c-2.8-2.7-6-4.9-9.4-6.5S28,12.9,24,12.9c-4,0-7.7,0.8-11.1,2.4C9.4,16.9,6.3,19.1,3.4,21.9z
	 M24,42.4l6.2-6.2c-0.8-0.8-1.8-1.5-2.8-1.9c-1-0.4-2.2-0.7-3.4-0.7c-1.2,0-2.4,0.2-3.4,0.7c-1.1,0.5-2,1.1-2.8,1.9L24,42.4z"/>
</svg>
