<?xml version="1.0" encoding="utf-8"?>
<!-- Generator: Adobe Illustrator 27.0.0, SVG Export Plug-In . SVG Version: 6.00 Build 0)  -->
<svg version="1.1" id="Capa_1" xmlns="http://www.w3.org/2000/svg" xmlns:xlink="http://www.w3.org/1999/xlink" x="0px" y="0px"
	 viewBox="0 0 48 48" style="enable-background:new 0 0 48 48;" xml:space="preserve">
<style type="text/css">
	.st0{fill:#1C1B1F;}
</style>
<g>
	<path class="st0" d="M16.7,41v-2.2h6.1v-9.4c-3.2-0.5-5.6-1.8-7.4-3.9c-1.7-2.1-2.6-4.6-2.6-7.5V7H35v11c0,2.9-0.9,5.4-2.6,7.5
		c-1.7,2.1-4.2,3.4-7.4,3.9v9.4h6.1V41H16.7z M24,27.2c2.3,0,4.3-0.8,6-2.5s2.6-3.5,2.8-5.6H15.2c0.1,2.1,1.1,3.9,2.8,5.6
		C19.7,26.4,21.7,27.2,24,27.2z M15.1,16.9h17.7V9.2H15.1V16.9z"/>
</g>
</svg>
