<?xml version="1.0" encoding="utf-8"?>
<!-- Generator: Adobe Illustrator 24.1.0, SVG Export Plug-In . SVG Version: 6.00 Build 0)  -->
<svg version="1.1" id="Capa_1" xmlns="http://www.w3.org/2000/svg" xmlns:xlink="http://www.w3.org/1999/xlink" x="0px" y="0px"
	 viewBox="0 0 112 112" style="enable-background:new 0 0 112 112;" xml:space="preserve">
<path d="M91,7H28c-1.9,0-3.6,0.7-4.9,2.1C21.7,10.4,21,12.1,21,14v14h-7v7h7v17.5h-7v7h7V77h-7v7h7v14c0,1.9,0.7,3.6,2.1,4.9
	c1.3,1.3,3.1,2.1,4.9,2.1h63c1.9,0,3.6-0.7,4.9-2.1c1.3-1.3,2.1-3.1,2.1-4.9V14c0-1.9-0.7-3.6-2.1-4.9C94.6,7.7,92.9,7,91,7z M91,98
	H28V84h7v-7h-7V59.5h7v-7h-7V35h7v-7h-7V14h63V98z"/>
<path d="M77,28H49v7h28V28z"/>
<path d="M77,52.5H49v7h28V52.5z"/>
<path d="M77,77H49v7h28V77z"/>
</svg>
