<?xml version="1.0" encoding="utf-8"?>
<!-- Generator: Adobe Illustrator 24.1.0, SVG Export Plug-In . SVG Version: 6.00 Build 0)  -->
<svg version="1.1" id="Capa_1" xmlns="http://www.w3.org/2000/svg" xmlns:xlink="http://www.w3.org/1999/xlink" x="0px" y="0px"
	 viewBox="0 0 112 112" style="enable-background:new 0 0 112 112;" xml:space="preserve">
<path d="M73.5,105c-5.5,0-11-1.6-15.6-4.7s-8.2-7.4-10.3-12.6C45.5,82.6,45,77,46,71.5c1.1-5.4,3.7-10.4,7.7-14.3
	c3.9-3.9,8.9-6.6,14.3-7.7c5.4-1.1,11.1-0.5,16.2,1.6s9.5,5.7,12.6,10.3s4.7,10,4.7,15.6c0,7.4-2.9,14.5-8.2,19.8
	C88,102.1,80.9,105,73.5,105z M73.5,56c-4.2,0-8.2,1.2-11.7,3.5c-3.5,2.3-6.1,5.6-7.7,9.4c-1.6,3.8-2,8.1-1.2,12.1s2.8,7.8,5.7,10.8
	c2.9,2.9,6.7,4.9,10.8,5.7c4.1,0.8,8.3,0.4,12.1-1.2c3.8-1.6,7.1-4.3,9.4-7.7s3.5-7.5,3.5-11.7c0-5.6-2.2-10.9-6.2-14.8
	C84.4,58.2,79.1,56,73.5,56z"/>
<path d="M79.1,87.5L70,78.4V63h7v12.6l7,7L79.1,87.5z"/>
<path d="M98,21c0-1.9-0.7-3.6-2.1-4.9c-1.3-1.4-3-2.1-4.9-2.1H77V7h-7v7H42V7h-7v7H21c-1.9,0-3.6,0.7-4.9,2.1
	c-1.4,1.3-2.1,3-2.1,4.9v70c0,1.9,0.7,3.6,2.1,4.9c1.3,1.3,3.1,2.1,4.9,2.1h14v-7H21V21h14v7h7v-7h28v7h7v-7h14v21h7V21z"/>
</svg>
