<?xml version="1.0" encoding="utf-8"?>
<!-- Generator: Adobe Illustrator 24.1.0, SVG Export Plug-In . SVG Version: 6.00 Build 0)  -->
<svg version="1.1" id="Capa_1" xmlns="http://www.w3.org/2000/svg" xmlns:xlink="http://www.w3.org/1999/xlink" x="0px" y="0px"
	 viewBox="0 0 112 112" style="enable-background:new 0 0 112 112;" xml:space="preserve">
<path d="M99.8,28.5L57.8,4c-0.5-0.3-1.1-0.5-1.8-0.5S54.8,3.7,54.2,4l-42,24.5c-0.5,0.3-1,0.7-1.3,1.3c-0.3,0.5-0.5,1.1-0.5,1.7v49
	c0,0.6,0.2,1.2,0.5,1.7c0.3,0.5,0.7,1,1.3,1.3l42,24.5c0.5,0.3,1.1,0.5,1.8,0.5s1.2-0.2,1.8-0.5l42-24.5c0.5-0.3,1-0.7,1.3-1.3
	c0.3-0.5,0.5-1.1,0.5-1.7v-49c0-0.6-0.2-1.2-0.5-1.7C100.7,29.2,100.3,28.8,99.8,28.5z M56,11.1l35.1,20.4L56,51.9L20.9,31.5
	L56,11.1z M17.5,37.6l35,20.4v40.9l-35-20.4V37.6z M59.5,98.9V58l35-20.4v40.9L59.5,98.9z"/>
</svg>
