<?xml version="1.0" encoding="utf-8"?>
<!-- Generator: Adobe Illustrator 24.1.0, SVG Export Plug-In . SVG Version: 6.00 Build 0)  -->
<svg version="1.1" id="Capa_1" xmlns="http://www.w3.org/2000/svg" xmlns:xlink="http://www.w3.org/1999/xlink" x="0px" y="0px"
	 viewBox="0 0 112 112" style="enable-background:new 0 0 112 112;" xml:space="preserve">
<path d="M91,49h-7v7h7c2.8,0,5.5,1.1,7.4,3.1c2,2,3.1,4.6,3.1,7.4v14h7v-14c0-4.6-1.9-9.1-5.1-12.4C100.1,50.9,95.6,49,91,49z"/>
<path d="M84,14c2.1,0,4.1,0.6,5.8,1.8c1.7,1.2,3.1,2.8,3.9,4.7c0.8,1.9,1,4,0.6,6.1c-0.4,2-1.4,3.9-2.9,5.4
	c-1.5,1.5-3.3,2.5-5.4,2.9c-2,0.4-4.1,0.2-6.1-0.6c-1.9-0.8-3.6-2.1-4.7-3.9c-1.2-1.7-1.8-3.8-1.8-5.8c0-2.8,1.1-5.5,3.1-7.4
	C78.5,15.1,81.2,14,84,14z M84,7c-3.5,0-6.8,1-9.7,2.9c-2.9,1.9-5.1,4.7-6.4,7.9s-1.7,6.7-1,10.1c0.7,3.4,2.3,6.5,4.8,9
	c2.4,2.4,5.6,4.1,9,4.8c3.4,0.7,6.9,0.3,10.1-1s5.9-3.6,7.9-6.4c1.9-2.9,2.9-6.3,2.9-9.7c0-4.6-1.8-9.1-5.1-12.4
	C93.1,8.8,88.6,7,84,7z"/>
<path d="M80.5,105h-7v-7c0-2.8-1.1-5.5-3.1-7.4c-2-2-4.6-3.1-7.4-3.1H49c-2.8,0-5.5,1.1-7.4,3.1c-2,2-3.1,4.6-3.1,7.4v7h-7v-7
	c0-4.6,1.9-9.1,5.1-12.4c3.3-3.3,7.7-5.1,12.4-5.1h14c4.6,0,9.1,1.9,12.4,5.1s5.1,7.7,5.1,12.4V105z"/>
<path d="M56,45.5c2.1,0,4.1,0.6,5.8,1.8c1.7,1.2,3.1,2.8,3.9,4.7c0.8,1.9,1,4,0.6,6.1c-0.4,2-1.4,3.9-2.9,5.4
	c-1.5,1.5-3.3,2.5-5.4,2.9c-2,0.4-4.1,0.2-6.1-0.6c-1.9-0.8-3.6-2.1-4.7-3.9c-1.2-1.7-1.8-3.8-1.8-5.8c0-2.8,1.1-5.5,3.1-7.4
	C50.5,46.6,53.2,45.5,56,45.5z M56,38.5c-3.5,0-6.8,1-9.7,2.9c-2.9,1.9-5.1,4.7-6.4,7.9s-1.7,6.7-1,10.1c0.7,3.4,2.3,6.5,4.8,9
	c2.4,2.4,5.6,4.1,9,4.8c3.4,0.7,6.9,0.3,10.1-1s5.9-3.6,7.9-6.4c1.9-2.9,2.9-6.3,2.9-9.7c0-4.6-1.8-9.1-5.1-12.4
	C65.1,40.3,60.6,38.5,56,38.5z"/>
<path d="M28,49h-7c-4.6,0-9.1,1.9-12.4,5.1c-3.3,3.3-5.1,7.7-5.1,12.4v14h7v-14c0-2.8,1.1-5.5,3.1-7.4c2-2,4.6-3.1,7.4-3.1h7V49z"/>
<path d="M28,14c2.1,0,4.1,0.6,5.8,1.8c1.7,1.2,3.1,2.8,3.9,4.7c0.8,1.9,1,4,0.6,6.1c-0.4,2-1.4,3.9-2.9,5.4
	c-1.5,1.5-3.3,2.5-5.4,2.9c-2,0.4-4.1,0.2-6.1-0.6c-1.9-0.8-3.6-2.1-4.7-3.9c-1.2-1.7-1.8-3.8-1.8-5.8c0-2.8,1.1-5.5,3.1-7.4
	C22.5,15.1,25.2,14,28,14z M28,7c-3.5,0-6.8,1-9.7,2.9c-2.9,1.9-5.1,4.7-6.4,7.9s-1.7,6.7-1,10.1c0.7,3.4,2.3,6.5,4.8,9
	c2.4,2.4,5.6,4.1,9,4.8c3.4,0.7,6.9,0.3,10.1-1s5.9-3.6,7.9-6.4c1.9-2.9,2.9-6.3,2.9-9.7c0-4.6-1.8-9.1-5.1-12.4
	C37.1,8.8,32.6,7,28,7z"/>
</svg>
