<?xml version="1.0" encoding="utf-8"?>
<!-- Generator: Adobe Illustrator 24.1.0, SVG Export Plug-In . SVG Version: 6.00 Build 0)  -->
<svg version="1.1" id="Capa_1" xmlns="http://www.w3.org/2000/svg" xmlns:xlink="http://www.w3.org/1999/xlink" x="0px" y="0px"
	 viewBox="0 0 112 112" style="enable-background:new 0 0 112 112;" xml:space="preserve">
<path d="M59.5,77V49h-14v7h7v21H42v7h28v-7H59.5z"/>
<path d="M56,28c-1,0-2.1,0.3-2.9,0.9c-0.9,0.6-1.5,1.4-1.9,2.4c-0.4,1-0.5,2-0.3,3c0.2,1,0.7,2,1.4,2.7s1.7,1.2,2.7,1.4
	c1,0.2,2.1,0.1,3-0.3c1-0.4,1.8-1.1,2.4-1.9c0.6-0.9,0.9-1.9,0.9-2.9c0-1.4-0.6-2.7-1.5-3.7S57.4,28,56,28z"/>
<path d="M91,98H21c-1.9,0-3.6-0.7-4.9-2.1C14.7,94.6,14,92.9,14,91V21c0-1.9,0.7-3.6,2.1-4.9S19.1,14,21,14h70
	c1.9,0,3.6,0.7,4.9,2.1c1.3,1.3,2.1,3.1,2.1,4.9v70c0,1.9-0.7,3.6-2.1,4.9C94.6,97.3,92.9,98,91,98z M21,21v70h70V21H21z"/>
</svg>
