<?xml version="1.0" encoding="utf-8"?>
<!-- Generator: Adobe Illustrator 24.1.0, SVG Export Plug-In . SVG Version: 6.00 Build 0)  -->
<svg version="1.1" id="Capa_1" xmlns="http://www.w3.org/2000/svg" xmlns:xlink="http://www.w3.org/1999/xlink" x="0px" y="0px"
	 viewBox="0 0 112 112" style="enable-background:new 0 0 112 112;" xml:space="preserve">
<path d="M89.9,32.5L65.4,8.1C64.8,7.3,64.1,7,63,7H28c-3.9,0-7,3.1-7,7v84c0,3.8,3.1,7,7,7h56c3.8,0,7-3.2,7-7V35
	C91,34,90.7,33.2,89.9,32.5z M63,15.4L82.6,35H63V15.4z M84,98H28V14h28v21c0,3.8,3.2,7,7,7h21V98z"/>
<path d="M77,77H35v7h42V77z"/>
<path d="M77,56H35v7h42V56z"/>
</svg>
