<?xml version="1.0" encoding="utf-8"?>
<!-- Generator: Adobe Illustrator 24.1.0, SVG Export Plug-In . SVG Version: 6.00 Build 0)  -->
<svg version="1.1" id="Capa_1" xmlns="http://www.w3.org/2000/svg" xmlns:xlink="http://www.w3.org/1999/xlink" x="0px" y="0px"
	 viewBox="0 0 112 112" style="enable-background:new 0 0 112 112;" xml:space="preserve">
<path d="M91,21v7.6L19.7,41.5c-1.6,0.3-3.1,1.2-4.2,2.4c-1.1,1.3-1.6,2.9-1.6,4.6v15.2c0,1.7,0.5,3.3,1.6,4.6
	c1.1,1.3,2.5,2.1,4.2,2.4L28,72v12c0,1.9,0.7,3.6,2.1,4.9c1.3,1.3,3.1,2.1,4.9,2.1h28c1.9,0,3.6-0.7,4.9-2.1
	c1.3-1.3,2.1-3.1,2.1-4.9v-4.4l21,3.8V91h7V21H91z M63,84H35V73.3l28,5.1V84z M21,63.6V48.4l70-12.7v40.6L21,63.6z"/>
</svg>
