<?xml version="1.0" encoding="utf-8"?>
<!-- Generator: Adobe Illustrator 24.1.0, SVG Export Plug-In . SVG Version: 6.00 Build 0)  -->
<svg version="1.1" id="Capa_1" xmlns="http://www.w3.org/2000/svg" xmlns:xlink="http://www.w3.org/1999/xlink" x="0px" y="0px"
	 viewBox="0 0 112 112" style="enable-background:new 0 0 112 112;" xml:space="preserve">
<path d="M38.5,80.5c-0.9,0-1.8-0.4-2.5-1c-0.7-0.7-1-1.5-1-2.5V35c0-0.6,0.2-1.2,0.4-1.7c0.3-0.5,0.7-1,1.2-1.3
	c0.5-0.3,1.1-0.5,1.7-0.5c0.6,0,1.2,0.1,1.7,0.4l42,21c0.6,0.3,1.1,0.7,1.4,1.3c0.3,0.6,0.5,1.2,0.5,1.8s-0.2,1.3-0.5,1.8
	c-0.3,0.6-0.8,1-1.4,1.3l-42,21C39.6,80.4,39,80.5,38.5,80.5z M42,40.7v30.7L72.7,56L42,40.7z"/>
<path d="M56,14c8.3,0,16.4,2.5,23.3,7.1c6.9,4.6,12.3,11.2,15.5,18.8c3.2,7.7,4,16.1,2.4,24.3s-5.6,15.6-11.5,21.5
	s-13.4,9.9-21.5,11.5S47.6,98,39.9,94.8c-7.7-3.2-14.2-8.6-18.8-15.5C16.5,72.4,14,64.3,14,56c0-11.1,4.4-21.8,12.3-29.7
	C34.2,18.4,44.9,14,56,14z M56,7c-9.7,0-19.2,2.9-27.2,8.3s-14.3,13-18,22c-3.7,9-4.7,18.8-2.8,28.3c1.9,9.5,6.6,18.2,13.4,25.1
	c6.9,6.9,15.6,11.5,25.1,13.4c9.5,1.9,19.4,0.9,28.3-2.8c9-3.7,16.6-10,22-18c5.4-8.1,8.3-17.5,8.3-27.2c0-13-5.2-25.5-14.4-34.6
	C81.5,12.2,69,7,56,7z"/>
</svg>
