<?xml version="1.0" encoding="utf-8"?>
<!-- Generator: Adobe Illustrator 24.1.0, SVG Export Plug-In . SVG Version: 6.00 Build 0)  -->
<svg version="1.1" id="Capa_1" xmlns="http://www.w3.org/2000/svg" xmlns:xlink="http://www.w3.org/1999/xlink" x="0px" y="0px"
	 viewBox="0 0 112 112" style="enable-background:new 0 0 112 112;" xml:space="preserve">
<path d="M56,22.8l9.7,19.5l1.6,3.5l3.5,0.5l21.6,3.1L77,64.5l-2.6,2.6l0.6,3.5l3.7,21.5L59.4,81.9L56,80.5l-3.3,1.7l-19.3,10
	L37,70.7l0.6-3.5L35,64.5L19.5,49.3l21.6-3.1l3.5-0.5l1.6-3.5L56,22.8z M56,7L40.1,39.3L4.5,44.4l25.8,25.1L24.2,105L56,88.3
	L87.9,105l-6.1-35.5l25.8-25.1l-35.6-5.2L56,7z"/>
</svg>
