<svg width="112" height="112" viewBox="0 0 112 112" fill="none" xmlns="http://www.w3.org/2000/svg">
<path d="M56 49C53.2311 49 50.5243 48.1789 48.222 46.6406C45.9197 45.1022 44.1253 42.9157 43.0657 40.3576C42.0061 37.7994 41.7288 34.9845 42.269 32.2687C42.8092 29.553 44.1426 27.0584 46.1005 25.1005C48.0584 23.1426 50.553 21.8092 53.2687 21.269C55.9845 20.7288 58.7994 21.0061 61.3576 22.0657C63.9157 23.1253 66.1022 24.9197 67.6406 27.222C69.1789 29.5243 70 32.2311 70 35C69.9891 38.7097 68.5106 42.2643 65.8875 44.8875C63.2643 47.5106 59.7097 48.9891 56 49ZM56 28C54.6155 28 53.2622 28.4105 52.111 29.1797C50.9599 29.9489 50.0627 31.0421 49.5329 32.3212C49.003 33.6003 48.8644 35.0078 49.1345 36.3656C49.4046 37.7235 50.0713 38.9708 51.0503 39.9498C52.0292 40.9287 53.2765 41.5954 54.6344 41.8655C55.9922 42.1356 57.3997 41.997 58.6788 41.4672C59.9579 40.9374 61.0511 40.0401 61.8203 38.889C62.5895 37.7379 63 36.3845 63 35C62.9946 33.1452 62.2553 31.3679 60.9437 30.0563C59.6322 28.7447 57.8548 28.0055 56 28Z" fill="black"/>
<path d="M84 7H28C26.1441 7.00213 24.3649 7.74031 23.0526 9.05261C21.7403 10.3649 21.0021 12.1441 21 14V98C21.0021 99.8559 21.7403 101.635 23.0526 102.947C24.3649 104.26 26.1441 104.998 28 105H84C85.8559 104.998 87.6351 104.26 88.9474 102.947C90.2597 101.635 90.9979 99.8559 91 98V14C90.9979 12.1441 90.2597 10.3649 88.9474 9.05261C87.6351 7.74031 85.8559 7.00213 84 7ZM42 84V63C41.9718 62.533 42.0429 62.0653 42.2088 61.6279C42.3748 61.1905 42.6316 60.7932 42.9624 60.4624C43.2932 60.1316 43.6905 59.8748 44.1279 59.7089C44.5653 59.5429 45.033 59.4718 45.5 59.5H66.5C66.967 59.4718 67.4347 59.5429 67.8721 59.7089C68.3095 59.8748 68.7068 60.1316 69.0376 60.4624C69.3684 60.7932 69.6252 61.1905 69.7911 61.6279C69.9571 62.0653 70.0282 62.533 70 63V84H63V98H49V84H42ZM70 98V91C71.8549 90.9946 73.6322 90.2554 74.9438 88.9438C76.2554 87.6322 76.9946 85.8549 77 84V63C77.0255 61.6141 76.7713 60.2373 76.2527 58.9519C75.734 57.6664 74.9616 56.4987 73.9814 55.5186C73.0013 54.5384 71.8336 53.766 70.5481 53.2473C69.2627 52.7287 67.8859 52.4745 66.5 52.5H45.5C44.1141 52.4745 42.7373 52.7287 41.4519 53.2473C40.1664 53.766 38.9987 54.5384 38.0186 55.5186C37.0384 56.4987 36.266 57.6664 35.7473 58.9519C35.2287 60.2373 34.9745 61.6141 35 63V84C35.0054 85.8549 35.7446 87.6322 37.0562 88.9438C38.3678 90.2554 40.1451 90.9946 42 91V98H28V14H84V98H70Z" fill="black"/>
</svg>
