<?xml version="1.0" encoding="utf-8"?>
<!-- Generator: Adobe Illustrator 24.1.0, SVG Export Plug-In . SVG Version: 6.00 Build 0)  -->
<svg version="1.1" id="Capa_1" xmlns="http://www.w3.org/2000/svg" xmlns:xlink="http://www.w3.org/1999/xlink" x="0px" y="0px"
	 viewBox="0 0 112 112" style="enable-background:new 0 0 112 112;" xml:space="preserve">
<path d="M101.5,49c0.9,0,1.8-0.4,2.5-1c0.7-0.7,1-1.5,1-2.5V28c0-1.9-0.7-3.6-2.1-4.9c-1.3-1.3-3.1-2.1-4.9-2.1H14
	c-1.9,0-3.6,0.7-4.9,2.1C7.7,24.4,7,26.1,7,28v17.5c0,0.9,0.4,1.8,1,2.5c0.7,0.7,1.5,1,2.5,1c1.9,0,3.6,0.7,4.9,2.1
	c1.3,1.3,2.1,3.1,2.1,4.9s-0.7,3.6-2.1,4.9c-1.3,1.3-3.1,2.1-4.9,2.1c-0.9,0-1.8,0.4-2.5,1c-0.7,0.7-1,1.5-1,2.5V84
	c0,1.9,0.7,3.6,2.1,4.9c1.3,1.3,3.1,2.1,4.9,2.1h84c1.9,0,3.6-0.7,4.9-2.1c1.3-1.3,2.1-3.1,2.1-4.9V66.5c0-0.9-0.4-1.8-1-2.5
	c-0.7-0.7-1.5-1-2.5-1c-1.9,0-3.6-0.7-4.9-2.1c-1.3-1.3-2.1-3.1-2.1-4.9s0.7-3.6,2.1-4.9C97.9,49.7,99.6,49,101.5,49z M98,69.5V84
	H73.5V73.5h-7V84H14V69.5c3-0.8,5.6-2.5,7.5-5c1.9-2.5,2.9-5.5,2.9-8.6s-1-6.1-2.9-8.6c-1.9-2.5-4.5-4.2-7.5-5V28h52.5v10.5h7V28H98
	v14.5c-3,0.8-5.6,2.5-7.5,5c-1.9,2.5-2.9,5.5-2.9,8.6s1,6.1,2.9,8.6C92.4,67,95,68.8,98,69.5z"/>
<path d="M73.5,45.5h-7v21h7V45.5z"/>
</svg>
