<?xml version="1.0" encoding="utf-8"?>
<!-- Generator: Adobe Illustrator 24.1.0, SVG Export Plug-In . SVG Version: 6.00 Build 0)  -->
<svg version="1.1" id="Capa_1" xmlns="http://www.w3.org/2000/svg" xmlns:xlink="http://www.w3.org/1999/xlink" x="0px" y="0px"
	 viewBox="0 0 112 112" style="enable-background:new 0 0 112 112;" xml:space="preserve">
<path d="M87.5,38.5h-35c-0.9,0-1.8,0.4-2.5,1c-0.7,0.7-1,1.5-1,2.5v14c0,5,1.8,9.8,5,13.5c3.2,3.8,7.6,6.3,12.5,7.1V98H56v7h28v-7
	H73.5V76.7c4.9-0.8,9.3-3.4,12.5-7.1c3.2-3.8,5-8.6,5-13.5V42c0-0.9-0.4-1.8-1-2.5C89.3,38.9,88.4,38.5,87.5,38.5z M84,56
	c0,3.7-1.5,7.3-4.1,9.9C77.3,68.5,73.7,70,70,70s-7.3-1.5-9.9-4.1C57.5,63.3,56,59.7,56,56V45.5h28V56z"/>
<path d="M52.5,3.5H35c-0.9,0-1.8,0.4-2.5,1c-0.7,0.7-1,1.5-1,2.5v25.8c-3.4,2-6.2,4.9-8,8.4c-1.9,3.5-2.7,7.4-2.5,11.3v49
	c0,0.9,0.4,1.8,1,2.5c0.7,0.7,1.5,1,2.5,1H42v-7H28V52.5c0-11.2,7.8-14.1,8.1-14.2l2.4-0.8v-27H49V28h7V7c0-0.9-0.4-1.8-1-2.5
	C54.3,3.9,53.4,3.5,52.5,3.5z"/>
</svg>
