<?xml version="1.0" encoding="utf-8"?>
<!-- Generator: Adobe Illustrator 24.1.0, SVG Export Plug-In . SVG Version: 6.00 Build 0)  -->
<svg version="1.1" id="Capa_1" xmlns="http://www.w3.org/2000/svg" xmlns:xlink="http://www.w3.org/1999/xlink" x="0px" y="0px"
	 viewBox="0 0 112 112" style="enable-background:new 0 0 112 112;" xml:space="preserve">
<path d="M38.5,7h-7v35h7V7z"/>
<path d="M49,38.5c0,3.7-1.5,7.3-4.1,9.9c-2.6,2.6-6.2,4.1-9.9,4.1s-7.3-1.5-9.9-4.1c-2.6-2.6-4.1-6.2-4.1-9.9V7h-7v31.5
	c0,5,1.8,9.8,5,13.5c3.2,3.8,7.6,6.3,12.5,7.1V105h7V59.2c4.9-0.8,9.3-3.4,12.5-7.1c3.2-3.8,5-8.6,5-13.5V7h-7V38.5z"/>
<path d="M77,7h-3.5v98h7V70H91c1.9,0,3.6-0.7,4.9-2.1c1.3-1.3,2.1-3.1,2.1-4.9V28c0.1-2.8-0.4-5.6-1.4-8.2c-1-2.6-2.6-5-4.5-6.9
	c-2-2-4.3-3.5-6.9-4.5C82.6,7.4,79.8,6.9,77,7z M91,63H80.5V14.3C90.6,16.3,91,26.7,91,28V63z"/>
</svg>
