<?xml version="1.0" encoding="utf-8"?>
<!-- Generator: Adobe Illustrator 24.1.0, SVG Export Plug-In . SVG Version: 6.00 Build 0)  -->
<svg version="1.1" id="Capa_1" xmlns="http://www.w3.org/2000/svg" xmlns:xlink="http://www.w3.org/1999/xlink" x="0px" y="0px"
	 viewBox="0 0 112 112" style="enable-background:new 0 0 112 112;" xml:space="preserve">
<path d="M98,21h-2.1l9.1-9.1L100.1,7L7,100.1l4.9,4.9l14-14H98c1.9,0,3.6-0.7,4.9-2.1c1.3-1.3,2.1-3.1,2.1-4.9V66.5
	c0-0.9-0.4-1.8-1-2.5c-0.7-0.7-1.5-1-2.5-1c-1.9,0-3.6-0.7-4.9-2.1c-1.3-1.3-2.1-3.1-2.1-4.9s0.7-3.6,2.1-4.9
	c1.3-1.3,3.1-2.1,4.9-2.1c0.9,0,1.8-0.4,2.5-1c0.7-0.7,1-1.5,1-2.5V28c0-1.9-0.7-3.6-2.1-4.9C101.6,21.7,99.9,21,98,21z M98,42.4
	c-3,0.8-5.7,2.5-7.6,5c-1.9,2.5-2.9,5.5-2.9,8.6s1,6.1,2.9,8.6c1.9,2.5,4.6,4.2,7.6,5V84H73.5V73.5h-7V84H32.9l33.6-33.6v16.1h7
	V43.4L88.9,28H98V42.4z"/>
<path d="M14,42.4V28h52.5v-7H14c-1.9,0-3.6,0.7-4.9,2.1C7.7,24.4,7,26.1,7,28v17.5c0,0.9,0.4,1.8,1,2.5c0.7,0.7,1.5,1,2.5,1
	c1.9,0,3.6,0.7,4.9,2.1c1.3,1.3,2.1,3.1,2.1,4.9s-0.7,3.6-2.1,4.9c-1.3,1.3-3.1,2.1-4.9,2.1c-0.9,0-1.8,0.4-2.5,1
	c-0.7,0.7-1,1.5-1,2.5V84h7V69.6c3-0.8,5.7-2.5,7.6-5c1.9-2.5,2.9-5.5,2.9-8.6s-1-6.1-2.9-8.6C19.7,45,17,43.2,14,42.4z"/>
</svg>
