<?xml version="1.0" encoding="utf-8"?>
<!-- Generator: Adobe Illustrator 24.1.0, SVG Export Plug-In . SVG Version: 6.00 Build 0)  -->
<svg version="1.1" id="Capa_1" xmlns="http://www.w3.org/2000/svg" xmlns:xlink="http://www.w3.org/1999/xlink" x="0px" y="0px"
	 viewBox="0 0 112 112" style="enable-background:new 0 0 112 112;" xml:space="preserve">
<path d="M105,100.1L78.6,73.5c6.3-7.6,9.5-17.4,8.8-27.3c-0.7-9.9-5.2-19.1-12.5-25.8c-7.3-6.7-16.9-10.3-26.8-10
	c-9.9,0.2-19.3,4.3-26.3,11.3c-7,7-11,16.4-11.3,26.3c-0.2,9.9,3.4,19.5,10,26.8c6.7,7.3,15.9,11.8,25.8,12.5
	c9.9,0.7,19.6-2.4,27.3-8.8l26.6,26.4L105,100.1z M17.5,49c0-6.2,1.8-12.3,5.3-17.5c3.5-5.2,8.4-9.2,14.1-11.6
	c5.8-2.4,12.1-3,18.2-1.8s11.7,4.2,16.1,8.6c4.4,4.4,7.4,10,8.6,16.1c1.2,6.1,0.6,12.4-1.8,18.2c-2.4,5.8-6.4,10.7-11.6,14.1
	c-5.2,3.5-11.3,5.3-17.5,5.3c-8.4,0-16.4-3.3-22.3-9.2C20.8,65.4,17.5,57.4,17.5,49z"/>
</svg>
