<svg width="32" height="32" viewBox="0 0 32 32" fill="none" xmlns="http://www.w3.org/2000/svg">
<path fill-rule="evenodd" clip-rule="evenodd" d="M9.33333 4.00004C7.86058 4.00004 6.66667 5.19395 6.66667 6.66671V22.9334C6.66667 24.0755 6.6677 24.8519 6.71674 25.452C6.7645 26.0365 6.85106 26.3355 6.95732 26.544C7.21298 27.0458 7.62093 27.4537 8.12269 27.7094C8.33123 27.8156 8.63016 27.9022 9.21472 27.95C9.81484 27.999 10.5912 28 11.7333 28H20.2667C21.4088 28 22.1852 27.999 22.7853 27.95C23.3698 27.9022 23.6688 27.8156 23.8773 27.7094C24.3791 27.4537 24.787 27.0458 25.0427 26.544C25.1489 26.3355 25.2355 26.0365 25.2833 25.452C25.3323 24.8519 25.3333 24.0755 25.3333 22.9334V17.3334C25.3333 14.3879 22.9455 12 20 12H19C16.6068 12 14.6667 10.0599 14.6667 7.66671C14.6667 5.64166 13.025 4.00004 11 4.00004H9.33333ZM13.3333 1.33337C21.4335 1.33337 28 7.89986 28 16V22.9885C28 24.0618 28 24.9476 27.9411 25.6691C27.8798 26.4186 27.7484 27.1075 27.4187 27.7547C26.9074 28.7582 26.0915 29.5741 25.088 30.0854C24.4408 30.4151 23.7519 30.5465 23.0024 30.6078C22.2809 30.6667 21.395 30.6667 20.3218 30.6667H11.6782C10.605 30.6667 9.71915 30.6667 8.99757 30.6078C8.2481 30.5465 7.55917 30.4151 6.91205 30.0854C5.90852 29.5741 5.09262 28.7582 4.5813 27.7547C4.25158 27.1075 4.12016 26.4186 4.05893 25.6691C3.99997 24.9475 3.99998 24.0617 4 22.9884L4 6.66671C4 3.72119 6.38782 1.33337 9.33333 1.33337H13.3333ZM23.9299 10.3635C22.3823 7.46013 19.6763 5.26769 16.4288 4.40309C17.003 5.35621 17.3333 6.47288 17.3333 7.66671C17.3333 8.58718 18.0795 9.33337 19 9.33337H20C21.4283 9.33337 22.7692 9.70768 23.9299 10.3635Z" fill="#22B2C4"/>
</svg>
