<svg width="48" height="48" viewBox="0 0 48 48" fill="none" xmlns="http://www.w3.org/2000/svg">
<g filter="url(#filter0_d_944_5711)">
<rect x="2" y="1" width="44" height="44" rx="4" fill="white"/>
<rect x="2.5" y="1.5" width="43" height="43" rx="3.5" stroke="#D6D8E1"/>
<path fill-rule="evenodd" clip-rule="evenodd" d="M24 15.5C24.221 15.5 24.433 15.5878 24.5893 15.7441L27.9226 19.0774C28.2481 19.4028 28.2481 19.9305 27.9226 20.2559C27.5972 20.5814 27.0695 20.5814 26.7441 20.2559L24.8334 18.3452L24.8334 25.5C24.8334 25.9602 24.4603 26.3333 24 26.3333C23.5398 26.3333 23.1667 25.9602 23.1667 25.5L23.1667 18.3452L21.256 20.2559C20.9305 20.5814 20.4029 20.5814 20.0774 20.2559C19.752 19.9305 19.752 19.4028 20.0774 19.0774L23.4108 15.7441C23.5671 15.5878 23.779 15.5 24 15.5ZM17.3334 24.6667C17.7936 24.6667 18.1667 25.0398 18.1667 25.5C18.1667 26.3144 18.1707 26.5999 18.2147 26.8211C18.412 27.8128 19.1872 28.588 20.179 28.7853C20.4002 28.8293 20.6857 28.8333 21.5 28.8333H26.5C27.3144 28.8333 27.5999 28.8293 27.8211 28.7853C28.8128 28.588 29.5881 27.8128 29.7853 26.8211C29.8293 26.5999 29.8334 26.3144 29.8334 25.5C29.8334 25.0398 30.2065 24.6667 30.6667 24.6667C31.1269 24.6667 31.5 25.0398 31.5 25.5C31.5 25.5326 31.5 25.5648 31.5 25.5965C31.5002 26.2778 31.5003 26.7422 31.42 27.1462C31.0912 28.7991 29.7991 30.0912 28.1462 30.4199C27.7422 30.5003 27.2778 30.5002 26.5965 30.5C26.5648 30.5 26.5327 30.5 26.5 30.5H21.5C21.4674 30.5 21.4352 30.5 21.4035 30.5C20.7222 30.5002 20.2578 30.5003 19.8538 30.4199C18.2009 30.0912 16.9089 28.7991 16.5801 27.1462C16.4997 26.7422 16.4998 26.2778 16.5 25.5965C16.5 25.5648 16.5 25.5326 16.5 25.5C16.5 25.0398 16.8731 24.6667 17.3334 24.6667Z" fill="#005A7B"/>
</g>
<defs>
<filter id="filter0_d_944_5711" x="0" y="0" width="48" height="48" filterUnits="userSpaceOnUse" color-interpolation-filters="sRGB">
<feFlood flood-opacity="0" result="BackgroundImageFix"/>
<feColorMatrix in="SourceAlpha" type="matrix" values="0 0 0 0 0 0 0 0 0 0 0 0 0 0 0 0 0 0 127 0" result="hardAlpha"/>
<feOffset dy="1"/>
<feGaussianBlur stdDeviation="1"/>
<feComposite in2="hardAlpha" operator="out"/>
<feColorMatrix type="matrix" values="0 0 0 0 0.0627451 0 0 0 0 0.0941176 0 0 0 0 0.156863 0 0 0 0.05 0"/>
<feBlend mode="normal" in2="BackgroundImageFix" result="effect1_dropShadow_944_5711"/>
<feBlend mode="normal" in="SourceGraphic" in2="effect1_dropShadow_944_5711" result="shape"/>
</filter>
</defs>
</svg>
