<svg width="33" height="32" viewBox="0 0 33 32" fill="none" xmlns="http://www.w3.org/2000/svg">
<path fill-rule="evenodd" clip-rule="evenodd" d="M16.8 10.6666C13.8544 10.6666 11.4666 13.0544 11.4666 15.9999C11.4666 18.9455 13.8544 21.3333 16.8 21.3333C19.7455 21.3333 22.1333 18.9455 22.1333 15.9999C22.1333 13.0544 19.7455 10.6666 16.8 10.6666ZM14.1333 15.9999C14.1333 14.5272 15.3272 13.3333 16.8 13.3333C18.2727 13.3333 19.4666 14.5272 19.4666 15.9999C19.4666 17.4727 18.2727 18.6666 16.8 18.6666C15.3272 18.6666 14.1333 17.4727 14.1333 15.9999Z" fill="#22B2C4"/>
<path fill-rule="evenodd" clip-rule="evenodd" d="M16.8 10.6666C13.8544 10.6666 11.4666 13.0544 11.4666 15.9999C11.4666 18.9455 13.8544 21.3333 16.8 21.3333C19.7455 21.3333 22.1333 18.9455 22.1333 15.9999C22.1333 13.0544 19.7455 10.6666 16.8 10.6666ZM14.1333 15.9999C14.1333 14.5272 15.3272 13.3333 16.8 13.3333C18.2727 13.3333 19.4666 14.5272 19.4666 15.9999C19.4666 17.4727 18.2727 18.6666 16.8 18.6666C15.3272 18.6666 14.1333 17.4727 14.1333 15.9999Z" fill="#22B2C4"/>
<path fill-rule="evenodd" clip-rule="evenodd" d="M15.1563 1.35604C15.4567 1.33302 15.7938 1.33316 16.0687 1.33327L17.5312 1.33327C17.8062 1.33316 18.1432 1.33302 18.4436 1.35604C18.7984 1.38324 19.2903 1.45239 19.8179 1.69241C20.4846 1.99577 21.0553 2.4764 21.4676 3.08188C21.7938 3.56092 21.9456 4.03391 22.0327 4.37898C22.1065 4.67104 22.1636 5.00324 22.2103 5.27418L22.399 6.36838L22.4027 6.37043C22.4491 6.39608 22.4953 6.42204 22.5413 6.44831L22.5447 6.45024L23.794 5.99812C24.0474 5.90629 24.359 5.79338 24.6447 5.71382C24.9828 5.61965 25.4605 5.51844 26.0288 5.56026C26.7485 5.61322 27.4404 5.85988 28.0313 6.2741C28.4979 6.60118 28.8038 6.98174 29.0062 7.26858C29.1771 7.51093 29.3471 7.79553 29.4853 8.02697L30.1544 9.14663C30.3007 9.39119 30.4791 9.68942 30.6169 9.96694C30.779 10.2937 30.9771 10.7662 31.0369 11.3608C31.1122 12.1096 30.9747 12.8643 30.6403 13.5385C30.3748 14.0738 30.0228 14.4462 29.7559 14.6948C29.5292 14.9059 29.2571 15.1222 29.034 15.2994L28.1333 15.9999L29.034 16.7005C29.2571 16.8778 29.5291 17.094 29.7558 17.3051C30.0228 17.5537 30.3747 17.9261 30.6403 18.4614C30.9747 19.1356 31.1121 19.8903 31.0368 20.6391C30.977 21.2337 30.7789 21.7062 30.6168 22.033C30.4791 22.3105 30.3007 22.6087 30.1544 22.8533L29.4851 23.9732C29.3469 24.2046 29.177 24.489 29.0061 24.7313C28.8038 25.0182 28.4978 25.3987 28.0312 25.7258C27.4403 26.14 26.7484 26.3867 26.0287 26.4396C25.4604 26.4815 24.9828 26.3802 24.6446 26.2861C24.3589 26.2065 24.0473 26.0936 23.7938 26.0018L22.5447 25.5497L22.5413 25.5516C22.4953 25.5779 22.4491 25.6038 22.4027 25.6295L22.399 25.6315L22.2103 26.7257C22.1636 26.9966 22.1065 27.3289 22.0327 27.6209C21.9456 27.966 21.7938 28.439 21.4676 28.918C21.0553 29.5235 20.4846 30.0041 19.8179 30.3075C19.2903 30.5475 18.7984 30.6167 18.4436 30.6439C18.1432 30.6669 17.8061 30.6667 17.5312 30.6666H16.0687C15.7938 30.6667 15.4567 30.6669 15.1563 30.6439C14.8015 30.6167 14.3096 30.5475 13.782 30.3075C13.1153 30.0041 12.5446 29.5235 12.1323 28.918C11.8061 28.439 11.6543 27.966 11.5672 27.6209C11.4935 27.3289 11.4363 26.9966 11.3896 26.7257L11.2009 25.6315L11.1972 25.6295C11.1508 25.6038 11.1046 25.5779 11.0586 25.5516L11.0552 25.5497L9.80607 26.0017C9.55264 26.0936 9.241 26.2065 8.95531 26.2861C8.61714 26.3802 8.13947 26.4814 7.57119 26.4396C6.85152 26.3867 6.15958 26.14 5.56869 25.7258C5.1021 25.3987 4.79616 25.0181 4.59381 24.7313C4.42288 24.489 4.25295 24.2044 4.11476 23.973L3.44555 22.8532C3.29926 22.6087 3.12086 22.3105 2.98312 22.0329C2.82097 21.7062 2.62288 21.2336 2.5631 20.6391C2.48781 19.8903 2.62526 19.1355 2.95965 18.4614C3.22519 17.9261 3.57716 17.5537 3.84408 17.3051C4.07079 17.0939 4.34286 16.8778 4.56596 16.7005L5.43789 16.0071V15.9929L4.5659 15.2994C4.3428 15.1221 4.07074 14.906 3.84402 14.6948C3.5771 14.4462 3.22514 14.0738 2.95959 13.5385C2.6252 12.8644 2.48775 12.1096 2.56304 11.3608C2.62282 10.7663 2.82091 10.2937 2.98306 9.96696C3.1208 9.68945 3.2992 9.39121 3.44549 9.14666L4.1147 8.02693C4.25289 7.7955 4.42282 7.51093 4.59376 7.2686C4.7961 6.98175 5.10204 6.6012 5.56863 6.27412C6.15952 5.8599 6.85146 5.61324 7.57113 5.56028C8.13941 5.51846 8.61709 5.61967 8.95525 5.71384C9.24093 5.79339 9.55255 5.90631 9.80598 5.99814L11.0552 6.45025L11.0586 6.44832C11.1046 6.42205 11.1508 6.39608 11.1972 6.37043L11.2009 6.36838L11.3896 5.27419C11.4363 5.00325 11.4935 4.67104 11.5672 4.37898C11.6543 4.03391 11.8061 3.56092 12.1323 3.08188C12.5446 2.4764 13.1153 1.99577 13.782 1.69241C14.3096 1.45239 14.8015 1.38324 15.1563 1.35604ZM19.5918 5.78165C19.4813 5.14171 19.4261 4.82174 19.2634 4.58281C19.126 4.38099 18.9358 4.22078 18.7135 4.11966C18.4504 3.99995 18.1257 3.99995 17.4763 3.99995H16.1236C15.4742 3.99995 15.1495 3.99995 14.8864 4.11966C14.6641 4.22078 14.4739 4.38099 14.3365 4.58281C14.1738 4.82174 14.1186 5.14171 14.0082 5.78165L13.8001 6.98744C13.7259 7.41769 13.6888 7.63281 13.6102 7.79818C13.533 7.96054 13.4698 8.04929 13.3418 8.17546C13.2113 8.30398 12.97 8.43739 12.4873 8.70421C12.4518 8.72389 12.4163 8.7438 12.3811 8.76394C11.9194 9.02762 11.6885 9.15946 11.5171 9.2041C11.3487 9.24794 11.2439 9.25697 11.0705 9.24253C10.8939 9.22783 10.6962 9.15626 10.3006 9.01311L8.94923 8.52402C8.35024 8.30725 8.05075 8.19886 7.76684 8.21975C7.52695 8.23741 7.2963 8.31962 7.09934 8.4577C6.86623 8.62111 6.70284 8.8945 6.37605 9.44129L5.76355 10.4661C5.41855 11.0434 5.24605 11.332 5.21633 11.6276C5.19123 11.8772 5.23705 12.1288 5.34851 12.3535C5.48053 12.6197 5.7437 12.8289 6.27004 13.2475L7.23657 14.0162C7.57232 14.2832 7.7402 14.4167 7.84545 14.5598C7.95922 14.7146 8.00773 14.8152 8.05803 15.0005C8.10456 15.172 8.10456 15.448 8.10456 15.9999C8.10456 16.552 8.10456 16.828 8.05802 16.9995C8.00773 17.1848 7.95922 17.2854 7.84547 17.4401C7.74021 17.5832 7.57232 17.7168 7.23654 17.9838L6.27011 18.7524C5.74377 19.1709 5.48059 19.3802 5.34857 19.6464C5.23711 19.8711 5.19129 20.1227 5.21639 20.3723C5.24611 20.6679 5.41861 20.9565 5.76361 21.5338L6.3761 22.5586C6.7029 23.1054 6.86629 23.3788 7.0994 23.5422C7.29636 23.6803 7.52701 23.7625 7.7669 23.7801C8.05081 23.801 8.3503 23.6926 8.94929 23.4759L10.3007 22.9868C10.6962 22.8437 10.894 22.7721 11.0705 22.7574C11.2439 22.7429 11.3488 22.752 11.5171 22.7958C11.6886 22.8404 11.9194 22.9723 12.3811 23.236C12.4163 23.2561 12.4518 23.276 12.4874 23.2957C12.97 23.5625 13.2113 23.6959 13.3418 23.8244C13.4698 23.9506 13.533 24.0394 13.6102 24.2017C13.6888 24.3671 13.7259 24.5822 13.8001 25.0125L14.0082 26.2182C14.1186 26.8582 14.1738 27.1782 14.3365 27.4171C14.4739 27.6189 14.6641 27.7791 14.8864 27.8802C15.1495 27.9999 15.4742 27.9999 16.1236 27.9999H17.4763C18.1257 27.9999 18.4504 27.9999 18.7135 27.8802C18.9358 27.7791 19.126 27.6189 19.2634 27.4171C19.4261 27.1782 19.4813 26.8582 19.5918 26.2182L19.7998 25.0125C19.874 24.5822 19.9111 24.3671 19.9898 24.2017C20.0669 24.0394 20.1301 23.9506 20.2581 23.8244C20.3886 23.6959 20.6299 23.5625 21.1126 23.2957C21.1481 23.276 21.1836 23.2561 21.2188 23.236C21.6805 22.9723 21.9114 22.8405 22.0828 22.7958C22.2511 22.752 22.356 22.743 22.5294 22.7574C22.7059 22.7721 22.9037 22.8437 23.2992 22.9868L24.6506 23.4759C25.2496 23.6927 25.5491 23.8011 25.833 23.7802C26.0729 23.7625 26.3036 23.6803 26.5005 23.5422C26.7336 23.3788 26.897 23.1054 27.2238 22.5586L27.8363 21.5338C28.1813 20.9565 28.3538 20.6679 28.3835 20.3723C28.4086 20.1227 28.3628 19.8711 28.2513 19.6464C28.1193 19.3803 27.8562 19.171 27.3298 18.7524L26.3634 17.9838C26.0276 17.7168 25.8597 17.5833 25.7544 17.4401C25.6407 17.2854 25.5922 17.1848 25.5419 16.9995C25.4954 16.828 25.4954 16.552 25.4954 15.9999C25.4954 15.448 25.4954 15.172 25.5419 15.0005C25.5922 14.8151 25.6407 14.7146 25.7545 14.5598C25.8597 14.4167 26.0276 14.2832 26.3634 14.0161L27.3299 13.2475C27.8562 12.8289 28.1194 12.6196 28.2514 12.3535C28.3629 12.1288 28.4087 11.8772 28.3836 11.6276C28.3539 11.332 28.1814 11.0434 27.8364 10.4661L27.2239 9.44128C26.8971 8.89449 26.7337 8.62109 26.5006 8.45768C26.3036 8.31961 26.073 8.23739 25.8331 8.21973C25.5492 8.19884 25.2497 8.30723 24.6507 8.52401L23.2992 9.0131C22.9037 9.15625 22.706 9.22782 22.5294 9.24252C22.356 9.25695 22.2512 9.24793 22.0828 9.20409C21.9114 9.15945 21.6805 9.02761 21.2189 8.76394C21.1836 8.74379 21.1482 8.72389 21.1126 8.70421C20.6299 8.43739 20.3886 8.30398 20.2581 8.17546C20.1301 8.04929 20.0669 7.96054 19.9898 7.79818C19.9111 7.63281 19.874 7.41769 19.7998 6.98744L19.5918 5.78165Z" fill="#22B2C4"/>
</svg>
