<svg width="33" height="32" viewBox="0 0 33 32" fill="none" xmlns="http://www.w3.org/2000/svg">
<path fill-rule="evenodd" clip-rule="evenodd" d="M10.575 5.33337C6.24935 5.33337 2.8667 9.09313 2.8667 13.5413C2.8667 15.8549 3.23694 17.76 4.61714 19.7646C5.93404 21.6773 8.1239 23.6076 11.5218 26.1541L16.2 29.3334L20.8779 26.1544C24.276 23.6077 26.466 21.6774 27.7829 19.7646C29.1631 17.76 29.5334 15.8549 29.5334 13.5413C29.5334 9.09313 26.1507 5.33338 21.825 5.33338C19.6546 5.33338 17.7758 6.21765 16.2 7.81768C14.6243 6.21765 12.7454 5.33337 10.575 5.33337ZM10.575 8.00004C7.90071 8.00004 5.53337 10.3807 5.53337 13.5413C5.53337 14.2733 5.57479 14.9167 5.67807 15.5101C5.85105 16.504 6.19756 17.3577 6.81355 18.2524C7.86046 19.7729 9.73151 21.48 13.1221 24.021L16.2 26.3326L19.2779 24.021C22.6686 21.48 24.5396 19.7729 25.5865 18.2524C26.5703 16.8236 26.8667 15.4993 26.8667 13.5413C26.8667 10.3807 24.4994 8.00004 21.825 8.00004C20.1775 8.00004 18.6669 8.78174 17.2711 10.6644C17.0197 11.0037 16.6223 11.2037 16.2 11.2037C15.7777 11.2037 15.3804 11.0037 15.1289 10.6644C13.7332 8.78174 12.2226 8.00004 10.575 8.00004Z" fill="#22B2C4"/>
</svg>
