<svg width="82" height="56" viewBox="0 0 82 56" fill="none" xmlns="http://www.w3.org/2000/svg">
<path d="M26.8093 39.5249H1.30132V1.52415H26.8093V10.9283L13.938 20.4236L26.8093 30.0126V39.5249ZM75.4106 0H41.6217L28.3303 9.80582V0H0V41.0481H28.3303V31.1453L41.6217 41.0481H75.4106L47.727 20.4236L75.4106 0Z" fill="#005A7B"/>
<path d="M10.7424 43.6524H7.40406L2.65348 48.6669V43.6524H0.0830078V56H2.65348V51.8068L3.86725 50.602L7.67911 56H11.0153L5.63352 48.772L10.7424 43.6524Z" fill="#005A7B"/>
<path d="M19.0854 50.602H25.1692V48.4364H19.0854V45.8162H25.6918V43.6524H16.5215V56H25.9691V53.8345H19.0854V50.602Z" fill="#005A7B"/>
<path d="M40.0756 52.2366L35.118 43.6527H32.394V56H34.8024V47.2165L39.9134 56H42.4839V43.6527H40.0756V52.2366Z" fill="#005A7B"/>
<path d="M51.6732 50.602H57.7503V48.4364H51.6732V45.8162H58.2753V43.6524H49.105V56H58.5569V53.8345H51.6732V50.602Z" fill="#005A7B"/>
<path d="M70.5791 49.1133H67.5286V45.8162H70.7818C71.9935 45.8162 72.6014 46.3654 72.6014 47.461C72.6014 48.5614 71.925 49.1133 70.5791 49.1133ZM74.9369 55.1205C74.8794 54.8398 74.8454 54.4655 74.8454 53.996V53.505C74.8454 52.481 74.7557 51.7261 74.5873 51.247C74.4165 50.7656 73.9771 50.3871 73.2816 50.1142C74.5638 49.5683 75.2123 48.6003 75.2123 47.2079C75.2123 46.1209 74.8497 45.2524 74.1393 44.616C73.4246 43.9732 72.4754 43.6524 71.2829 43.6524H64.9624V56H67.5286V51.176H70.242C71.0525 51.176 71.588 51.3073 71.8505 51.5754C72.1125 51.8349 72.249 52.2743 72.2622 52.8919L72.2771 53.8108C72.2899 54.6082 72.386 55.3366 72.5544 56H75.4106V55.6684C75.1674 55.5762 75.0054 55.3942 74.9369 55.1205Z" fill="#005A7B"/>
<path d="M79.2826 39.7593H79.5362C79.8308 39.7593 80.0718 39.6592 80.0718 39.4212C80.0718 39.2118 79.9161 39.0717 79.5789 39.0717C79.4382 39.0717 79.3401 39.0857 79.2826 39.1004V39.7593ZM79.2677 41.0493H78.7343V38.7476C78.9453 38.7197 79.2374 38.6777 79.6195 38.6777C80.0588 38.6777 80.2553 38.7476 80.4086 38.8612C80.5517 38.9582 80.6476 39.1267 80.6476 39.3511C80.6476 39.6328 80.4365 39.8148 80.1678 39.8982V39.9274C80.396 39.9973 80.5069 40.1776 80.5795 40.4903C80.6476 40.8388 80.7054 40.9665 80.7479 41.0493H80.1804C80.1145 40.9665 80.0718 40.7687 80.0013 40.4903C79.9586 40.2498 79.8178 40.1379 79.5214 40.1379H79.2677V41.0493ZM77.8427 39.8567C77.8427 40.8814 78.6193 41.6932 79.6474 41.6932C80.6476 41.7099 81.4049 40.8814 81.4049 39.8697C81.4049 38.8456 80.6476 38.0189 79.6195 38.0189C78.6193 38.0189 77.8427 38.8456 77.8427 39.8567ZM82.0002 39.8567C82.0002 41.1456 80.9613 42.1735 79.6343 42.1735C78.3121 42.1735 77.2539 41.1456 77.2539 39.8567C77.2539 38.5646 78.3121 37.5556 79.6474 37.5556C80.9613 37.5556 82.0002 38.5646 82.0002 39.8567Z" fill="#005A7B"/>
</svg>
