<svg width="24" height="25" viewBox="0 0 24 25" fill="none" xmlns="http://www.w3.org/2000/svg">
<path fill-rule="evenodd" clip-rule="evenodd" d="M8.40961 4.44109C7.73794 3.94596 7.28563 3.83418 7.04293 3.88155C6.04168 4.07694 5.44816 4.46671 4.64404 5.27082C3.54642 6.36843 3.01385 7.18799 3.24581 8.43062C3.51286 9.86129 4.81757 12.0448 8.41358 15.6409C12.0094 19.2366 14.2061 20.5551 15.6447 20.8277C16.3115 20.9541 16.8192 20.8553 17.2748 20.6309C17.7619 20.391 18.2309 19.9872 18.7688 19.4258C19.2459 18.9279 19.5354 18.5804 19.7379 18.2386C19.9309 17.9128 20.0678 17.5527 20.1734 17.0118C20.2208 16.7691 20.1091 16.3168 19.6138 15.645C19.152 15.0185 18.5004 14.3963 17.898 13.8884C17.5005 13.5532 16.8855 13.5319 16.3887 13.9037L14.8703 15.0404C13.5008 16.0656 11.5871 15.9188 10.3788 14.7105L9.344 13.6757C8.13569 12.4674 7.98884 10.5537 9.01407 9.18412L10.1507 7.66584C10.5226 7.16903 10.5012 6.55403 10.166 6.15652C9.65813 5.55426 9.036 4.90284 8.40961 4.44109ZM9.59634 2.83122C10.4058 3.42791 11.1448 4.21478 11.6949 4.86721C12.6978 6.05643 12.616 7.70993 11.7517 8.86441L10.6152 10.3827C10.1917 10.9483 10.2464 11.7497 10.7582 12.2615L11.793 13.2962C12.3048 13.808 13.1061 13.8628 13.6718 13.4393L15.1901 12.3027C16.3446 11.4385 17.998 11.3566 19.1872 12.3593C19.8398 12.9096 20.6268 13.6487 21.2237 14.4582C21.7871 15.2225 22.354 16.2809 22.1363 17.3953C21.9966 18.1108 21.7913 18.6965 21.4586 19.258C21.1355 19.8034 20.7157 20.2848 20.2129 20.8095C19.6302 21.4176 18.966 22.0274 18.1585 22.4251C17.3195 22.8383 16.3714 23.0011 15.2723 22.7928C13.1793 22.3961 10.6044 20.6601 6.99937 17.0551C3.39455 13.4502 1.66968 10.8864 1.27976 8.79761C0.854751 6.52072 2.03783 5.04859 3.22983 3.8566C4.21442 2.87203 5.14803 2.21361 6.65985 1.91858C7.77398 1.70115 8.83219 2.26793 9.59634 2.83122Z" fill="#005A7B"/>
</svg>
