<svg width="33" height="32" viewBox="0 0 33 32" fill="none" xmlns="http://www.w3.org/2000/svg">
<path fill-rule="evenodd" clip-rule="evenodd" d="M16.5999 5.33329C10.7089 5.33329 5.93327 10.1089 5.93327 16C5.93327 21.891 10.7089 26.6666 16.5999 26.6666C22.491 26.6666 27.2666 21.891 27.2666 16C27.2666 10.1089 22.491 5.33329 16.5999 5.33329ZM3.2666 16C3.2666 8.63616 9.23614 2.66663 16.5999 2.66663C23.9637 2.66663 29.9333 8.63616 29.9333 16C29.9333 23.3638 23.9637 29.3333 16.5999 29.3333C9.23614 29.3333 3.2666 23.3638 3.2666 16ZM16.3712 9.00977C17.1076 9.00977 17.7045 9.60672 17.7045 10.3431V16.966L22.407 18.7536C23.0954 19.0153 23.4412 19.7854 23.1796 20.4737C22.9179 21.1621 22.1478 21.5079 21.4595 21.2463L15.8974 19.1319C15.3799 18.9352 15.0378 18.4392 15.0378 17.8856V10.3431C15.0378 9.60672 15.6348 9.00977 16.3712 9.00977Z" fill="#22B2C4"/>
</svg>
