<svg width="33" height="32" viewBox="0 0 33 32" fill="none" xmlns="http://www.w3.org/2000/svg">
<path fill-rule="evenodd" clip-rule="evenodd" d="M16.4001 6.66667C14.1909 6.66667 12.4001 8.45753 12.4001 10.6667C12.4001 12.8758 14.1909 14.6667 16.4001 14.6667C18.6092 14.6667 20.4001 12.8758 20.4001 10.6667C20.4001 8.45753 18.6092 6.66667 16.4001 6.66667ZM9.7334 10.6667C9.7334 6.98477 12.7182 4 16.4001 4C20.082 4 23.0667 6.98477 23.0667 10.6667C23.0667 14.3486 20.082 17.3333 16.4001 17.3333C12.7182 17.3333 9.7334 14.3486 9.7334 10.6667ZM10.3415 22.3019C8.93585 22.9261 8.40006 23.7144 8.40006 24.6667C8.40006 24.9649 8.45308 25.1336 8.52977 25.256C8.60651 25.3784 8.78959 25.5857 9.28299 25.8089C10.3376 26.286 12.4215 26.6667 16.4001 26.6667C20.3786 26.6667 22.4626 26.286 23.5171 25.8089C24.0105 25.5857 24.1936 25.3784 24.2704 25.256C24.3471 25.1336 24.4001 24.9649 24.4001 24.6667C24.4001 23.7144 23.8643 22.9261 22.4586 22.3019C21.0153 21.661 18.8963 21.3333 16.4001 21.3333C13.9039 21.3333 11.7848 21.661 10.3415 22.3019ZM9.25929 19.8647C11.194 19.0056 13.7416 18.6667 16.4001 18.6667C19.0585 18.6667 21.6061 19.0056 23.5408 19.8647C25.5132 20.7406 27.0667 22.2856 27.0667 24.6667C27.0667 25.2889 26.9531 25.9971 26.5298 26.6724C26.1065 27.3475 25.4563 27.8585 24.6163 28.2385C23.0042 28.9678 20.4215 29.3333 16.4001 29.3333C12.3786 29.3333 9.7959 28.9678 8.18381 28.2385C7.34388 27.8585 6.69362 27.3475 6.27036 26.6724C5.84705 25.9971 5.7334 25.2889 5.7334 24.6667C5.7334 22.2856 7.28695 20.7406 9.25929 19.8647Z" fill="#22B2C4"/>
</svg>
