<svg width="572" height="283" viewBox="0 0 572 283" fill="none" xmlns="http://www.w3.org/2000/svg">
<mask id="mask0_1_1986" style="mask-type:alpha" maskUnits="userSpaceOnUse" x="0" y="0" width="572" height="283">
<rect y="0.248535" width="571.813" height="282.618" fill="#D9D9D9"/>
</mask>
<g mask="url(#mask0_1_1986)">
<path fill-rule="evenodd" clip-rule="evenodd" d="M115.605 158.227C168.08 147.598 214.648 158.868 219.616 183.397C224.585 207.927 186.072 236.429 133.597 247.057C81.1209 257.686 34.5539 246.416 29.5859 221.887C24.6169 197.357 63.1289 168.856 115.605 158.227Z" fill="#FFF000"/>
<path fill-rule="evenodd" clip-rule="evenodd" d="M407.124 170.063C451.701 170.063 487.837 194.111 487.837 223.776C487.837 253.441 451.701 277.489 407.124 277.489C362.547 277.489 326.411 253.441 326.411 223.776C326.411 194.111 362.547 170.063 407.124 170.063Z" fill="#FFF000"/>
<path d="M480.901 201.101C474.832 199.11 474.832 199.11 474.449 192.049C474.003 183.81 470.577 177.491 464.27 173.26C455.044 167.07 447.217 164.201 438.893 163.962C429.896 163.704 427.891 161.748 426.953 152.186C426.934 152.002 426.913 151.815 426.914 151.634C427.039 139.455 424.755 127.414 422.546 115.773L422.02 112.995C418.711 95.4393 414.067 81.5713 407.406 69.3503C399.882 55.5533 388.365 45.2463 377.228 35.2773L374.518 32.8503C371.099 29.7743 366.932 26.3373 361.952 24.1723C357.368 22.1813 352.804 20.1513 348.237 18.1213C343.385 15.9653 338.534 13.8063 333.664 11.6953C327.368 8.96834 320.684 6.93834 313.794 5.65734C311.72 5.27334 309.647 4.87034 307.573 4.46334C301.165 3.21134 294.542 1.92034 287.947 1.24934C276.974 0.139342 265.302 -0.686658 253.76 2.40434C230.793 8.55534 213.04 15.7363 197.888 25.0083C178.258 37.0163 163.965 48.5573 152.904 61.3243C133.214 84.0533 122.19 109.448 120.134 136.812C119.863 140.449 119.215 144.144 118.589 147.713L118.451 148.497C118.205 149.898 117.693 150.879 116.927 151.415C116.181 151.928 115.129 152.073 113.803 151.831C106.487 150.502 100.129 152.796 92.84 156.653C87.83 159.299 84.892 162.704 83.857 167.06C82.92 171.001 80.614 171.743 76.409 171.782C64.87 171.885 54.204 175.977 44.709 183.945C36.845 190.548 33.156 199.791 34.592 209.305C35.977 218.489 41.929 226.132 50.515 229.749C51.28 230.072 52.045 230.43 52.811 230.792C54.985 231.815 57.234 232.873 59.601 233.128C65.141 233.719 69.014 236.436 72.554 242.216C78.445 251.827 87.078 257.397 98.217 258.778C103.171 259.395 107.915 258.497 112.502 257.623L114.166 257.31C125.385 255.235 133.26 249.526 137.57 240.344C138.838 237.64 140.432 237.075 143.667 238.217C146.031 239.047 148.426 239.792 150.821 240.535C152.967 241.203 155.118 241.874 157.243 242.603C165.475 245.437 176.143 242.607 183.779 235.568C190.11 229.733 192.745 222.469 191.006 215.64C190.743 214.604 190.817 213.745 191.227 213.087C191.69 212.345 192.623 211.806 193.924 211.528C195.674 211.157 197.504 210.689 199.366 210.131C207.111 207.811 212.44 202.928 215.657 195.202C218.602 188.131 219.131 181.121 217.276 173.763C215.025 164.837 210.634 154.532 196.565 154.1C195.863 154.077 194.945 153.929 194.549 153.338C194.206 152.822 194.241 151.941 194.653 150.86C195.158 149.524 195.847 148.204 196.513 146.929L197.021 145.954C200.844 138.499 206.492 132.384 212.431 126.259C224.993 113.298 241.236 106.269 265.101 103.474C285.664 102.264 312.159 117.939 321.711 136.931C329.659 152.735 333.75 169.694 336.987 185.665C337.398 187.689 336.859 189.38 335.134 191.507C331.134 196.438 328.917 202.528 328.544 209.611C327.888 222.13 330.482 233.851 336.252 244.449C340.685 252.598 346.897 257.658 354.716 259.488C358.026 260.263 359.724 261.925 360.396 265.052C362.168 273.272 367.861 278.296 377.801 280.41C389.622 282.931 399.319 281.54 407.435 276.154C411 273.791 413.517 273.843 416.408 276.36C420.901 280.271 426.529 281.236 431.971 282.172L432.966 282.343C434.974 282.692 436.938 282.866 438.863 282.866C445.488 282.866 451.651 280.798 457.565 276.615C463.598 272.342 466.471 266.22 466.608 257.345C466.65 254.592 467.853 253.443 470.763 253.385C474.29 253.311 478.354 252.888 481.768 250.303C486.932 246.389 490.686 242.342 493.247 237.927C497.129 231.234 497.798 222.081 494.954 214.61C492.453 208.053 487.462 203.254 480.901 201.101ZM457.493 248.909C458.236 252.043 458.518 255.038 458.355 258.071C457.839 267.717 451.201 274.446 442.204 274.446H442.176C432.861 274.433 423.944 273.814 417.243 266.472C415.552 264.619 414.385 263.758 413.13 263.758C411.801 263.758 410.375 264.726 408.127 266.517C400.437 272.636 391.638 274.734 381.223 272.897C373.26 271.5 368.802 267.547 367.596 260.811C366.609 255.309 363.971 252.824 358.185 251.943C350.362 250.749 344.625 245.659 340.647 236.384C336.789 227.39 335.463 217.341 336.701 206.513C337.763 197.206 345.266 191.771 357.284 191.6C361.447 191.842 366.323 193.107 372.194 195.47C375.082 196.638 376.934 197.283 378.328 196.512C379.598 195.802 380.078 194.163 380.617 190.981C381.638 184.952 385.424 181.622 392.534 180.495C397.664 179.682 403.656 179.198 409.177 181.741C410.919 182.551 412.419 182.674 413.634 182.112C414.864 181.547 415.76 180.305 416.297 178.417C416.637 177.233 417.013 175.977 417.57 174.822C419.349 171.133 421.593 169.945 424.839 170.956C428.205 172.008 431.504 172.001 434.779 172.005C436.474 172.011 438.202 172.001 439.888 172.156C452.618 173.318 460.349 177.604 464.947 186.053C467.083 189.98 467.635 193.411 466.686 196.851C466.174 198.69 465.988 200.607 465.806 202.46C465.672 203.812 465.943 204.909 466.613 205.723C467.272 206.523 468.277 206.994 469.598 207.117C470.393 207.191 471.191 207.139 471.992 207.181C479.07 207.63 484.768 211.018 487.626 216.482C490.518 222.01 490.029 228.729 486.286 234.913C480.827 243.933 475.717 246.257 465.238 244.446C464.813 244.372 464.393 244.252 463.974 244.133C463.376 243.965 462.758 243.788 462.102 243.723C460.171 243.523 458.846 243.875 458.038 244.801C457.245 245.705 457.061 247.086 457.493 248.909ZM181.782 207.92C181.984 209.124 182.326 210.296 182.657 211.428C182.914 212.309 183.172 213.187 183.361 214.081C184.427 219.116 183.493 224.063 180.73 228.016C177.931 232.018 173.519 234.632 168.306 235.378C163.524 236.058 158.945 235.574 154.687 233.948C152.904 233.267 151.129 232.563 149.354 231.863C146.269 230.646 143.079 229.385 139.898 228.252C137.316 227.335 135.669 227.242 134.384 227.961C133.147 228.652 132.364 230.043 131.848 232.47C129.834 241.942 123.991 247.338 112.904 249.965C99.776 253.063 90.058 250.713 82.31 242.555C80.335 240.477 78.327 238.243 77.383 235.826C75.034 229.807 70.566 226.741 63.324 226.174C58.846 225.825 54.862 223.734 51.225 221.523C46.057 218.383 42.628 213.326 41.815 207.656C41.066 202.431 42.638 197.383 46.237 193.44C54.869 183.981 64.796 179.214 75.817 179.214C77.684 179.214 79.583 179.353 81.511 179.624C84.759 180.089 86.999 180.302 88.443 179.159C89.781 178.098 90.195 176.103 90.496 172.789C90.952 167.725 93.458 164.275 98.381 161.939C105.87 158.376 113.94 158.14 122.366 161.229C125.797 162.487 128.314 165.13 129.848 169.081C130.137 169.826 130.405 170.578 130.673 171.33C131.107 172.55 131.556 173.812 132.095 175.032C132.829 176.69 134.4 177.526 136.214 177.242C137.51 177.033 138.557 176.103 139.085 174.689L139.193 174.409C139.361 173.98 139.551 173.495 139.596 172.963C140.088 167.002 143.383 163.572 150.614 161.49L151.059 161.361C156.717 159.735 162.063 158.195 167.142 162.345C170.553 165.14 173.15 163.307 175.034 161.403C179.714 156.685 180.474 156.64 186.669 160.719C189.281 162.442 191.911 162.087 194.14 161.519C199.818 160.077 204.046 162.271 207.445 168.432C212.256 177.149 212.238 186.285 207.391 194.853C203.758 201.282 197.688 204.148 189.366 203.386C189.047 203.344 188.729 203.292 188.411 203.241C187.68 203.125 186.923 203.002 186.147 202.989C184.495 202.957 183.314 203.405 182.538 204.306C181.781 205.184 181.528 206.4 181.782 207.92ZM416.987 164.198L416.328 164.537C414.682 165.379 412.815 166.334 412.25 167.874C410.339 173.095 406.944 172.989 401.589 172.182C400.934 172.082 400.273 172.046 399.614 172.046C398.642 172.046 397.672 172.127 396.721 172.205C395.927 172.269 395.13 172.334 394.34 172.35C390.63 172.43 390.473 172.301 390.346 168.803C390.292 167.283 390.258 165.763 390.226 164.246C390.124 159.496 390.018 154.584 389.201 149.737C385.25 126.307 377.97 104.868 367.563 86.0093C356.953 66.7873 340.38 52.5173 318.305 43.5963C302.461 37.1903 284.669 33.6443 265.424 33.0503C244.754 32.4463 227.749 35.8163 213.454 43.4453C196.491 52.5003 184.929 62.1893 177.071 73.9393C172.795 80.3353 168.325 87.3513 163.005 96.0233C154.183 110.397 148.871 126.588 147.217 144.144C147.091 145.49 146.877 146.832 146.666 148.171L146.444 149.585C145.875 153.348 144.314 155.501 141.224 156.782C139.487 157.501 137.984 158.692 136.532 159.844C136.04 160.232 135.551 160.622 135.056 160.987C127.204 157.027 126.039 151.608 126.662 143.082C128.38 119.491 136.342 97.4693 150.998 75.7533C156.812 67.1423 164.289 59.4163 173.86 52.1333C174.531 51.6193 175.209 51.1163 175.886 50.6123C177.528 49.3963 179.225 48.1373 180.8 46.7663C196.959 32.7013 216.867 22.2133 241.661 14.7003C252.411 11.4473 265.227 8.22034 278.719 9.02034C281.108 9.15934 283.518 9.46534 285.848 9.76234C287.124 9.92434 288.4 10.0853 289.682 10.2243C311.456 12.5573 333.114 19.3473 357.841 31.5883L358.213 31.7723C359.036 32.1753 359.812 32.5563 360.492 33.0533C378.12 45.8853 395.746 60.7783 405.255 82.6783C409.979 93.5603 412.255 105.307 414.457 116.671L415.098 119.956C416.913 129.228 417.789 138.79 418.638 148.039C418.956 151.495 419.272 154.952 419.637 158.402C419.95 161.358 419.182 163.036 416.987 164.198ZM181.008 150.153C173.94 152.415 167.136 152.286 159.91 152.138C158.848 152.118 157.785 152.096 156.717 152.083C154.816 152.06 153.541 151.934 153.063 151.379C152.655 150.905 152.591 149.866 152.85 148.013L153.068 146.461C154.498 136.215 155.978 125.623 160.321 115.954C167.105 100.854 175.155 87.4673 184.246 76.1623C197.201 60.0623 212.993 49.6093 231.188 45.1003C242.198 42.3733 252.154 40.9893 262.518 40.7473C286.781 41.8543 305.897 46.0043 322.677 53.8073C343.362 63.4243 358.661 79.8453 368.151 102.609C376.187 121.873 380.843 137.961 382.806 153.235C383.434 158.115 383.403 163.094 383.372 167.906C383.362 169.307 383.354 170.71 383.362 172.111C383.368 173.805 383.168 174.996 382.138 175.703C378.128 178.449 375.08 181.731 372.82 185.74C372.31 186.65 371.474 186.73 369.5 186.078C365.831 184.865 361.891 184.268 357.429 184.268C354.968 184.268 352.349 184.449 349.53 184.81C346.46 185.201 345.211 184.281 344.409 180.989C343.746 178.262 343.124 175.522 342.502 172.779C340.404 163.53 338.234 153.961 334.366 145.044C328.968 132.6 322.707 119.746 310.87 111.32C294.003 99.3213 278.64 94.2543 262.452 95.3873C250.739 96.2033 239.154 99.6793 225.995 106.321C210.347 114.224 198.151 126.723 189.751 143.469C187.787 147.387 185.266 148.794 181.008 150.153Z" fill="black"/>
<path d="M57.636 262.376C51.498 259.284 46.583 254.243 42.166 246.514L40.462 243.545C32.791 230.194 24.859 216.388 23.6 199.335L23.482 197.751L22.048 198.925C17.597 202.569 17.286 202.95 18.396 207.329C22.922 225.195 31.445 242.609 44.451 260.565C46.902 263.948 50.389 266.565 54.814 268.343C55.527 268.634 56.198 268.772 56.808 268.772C57.907 268.772 58.807 268.314 59.395 267.414C60.097 266.336 60.056 265.413 59.898 264.829C59.635 263.851 58.832 262.979 57.636 262.376Z" fill="black"/>
<path d="M28.6291 262.865C22.7211 259.238 19.6191 253.345 16.7081 247.113L16.3691 246.387C15.2751 244.05 14.1451 241.636 13.1461 239.226L12.8141 238.422C10.3551 232.51 7.81311 226.391 6.70811 219.962C6.4551 218.487 6.0721 216.264 3.4841 215.773L3.3471 215.744L3.2081 215.767C1.6381 215.999 0.639105 216.803 0.242105 218.158C-0.317895 220.066 0.197105 221.808 0.723105 223.293L1.28111 224.874C2.3081 227.782 3.3701 230.786 4.5091 233.713C7.8091 242.207 11.1411 250.476 15.6251 258.279C18.2861 262.907 21.4401 266.092 25.2691 268.012C25.9681 268.361 26.6601 268.535 27.3091 268.535C28.3401 268.535 29.2571 268.099 29.9001 267.261C30.4331 266.563 30.6361 265.85 30.5041 265.14C30.3461 264.295 29.7151 263.53 28.6291 262.865Z" fill="black"/>
<path d="M520.694 207.21C518.808 204.37 516.931 204.631 515.685 205.358C513.601 206.574 514.557 208.711 515.116 209.956L515.59 211.012C517.073 214.294 518.475 217.395 518.383 220.906C518.141 230.301 517.23 238.027 513.578 245.198C512.418 247.47 511.374 249.725 511.332 252.285C511.301 254.115 512.223 255.328 513.738 255.444C513.801 255.451 513.867 255.451 513.936 255.451C514.767 255.451 516.053 255.105 516.625 254.195C517.87 252.198 519.158 250.132 519.971 247.88C522.83 239.96 523.963 231.747 524.959 223.327L524.968 223.253L524.964 223.182C524.655 218.102 524.047 212.261 520.694 207.21Z" fill="black"/>
<path d="M558.591 180.944C557.185 180.005 555.809 180.047 554.709 181.063C553.586 182.093 553.392 183.674 554.226 185.001C555.62 187.205 557.492 190.093 559.616 192.878C566.417 201.802 567.505 210.451 562.938 219.316L562.575 219.987C561.683 221.614 560.573 223.637 561.849 226.322L562.041 226.725L562.485 226.787C562.754 226.822 563.007 226.838 563.246 226.838C565.492 226.838 566.464 225.338 567.191 224.215L567.38 223.924C575.95 210.964 571.597 189.674 558.591 180.944Z" fill="black"/>
</g>
</svg>
