<svg width="137" height="152" viewBox="0 0 137 152" fill="none" xmlns="http://www.w3.org/2000/svg">
<mask id="mask0_1_2045" style="mask-type:alpha" maskUnits="userSpaceOnUse" x="-1" y="0" width="138" height="152">
<rect x="23.0723" y="0.929932" width="115.52" height="132.923" transform="rotate(10 23.0723 0.929932)" fill="#D9D9D9"/>
</mask>
<g mask="url(#mask0_1_2045)">
<path d="M104.271 36.9052L103.064 36.6924C99.9095 36.1363 97.8033 33.1283 98.3595 29.9743L100.049 20.392C100.605 17.2374 103.613 15.1315 106.767 15.6877L107.974 15.9005C111.129 16.4567 113.235 19.4644 112.679 22.6189L110.989 32.2013C110.433 35.3552 107.425 37.4614 104.271 36.9052Z" fill="#FFF000"/>
<path d="M27.9755 89.7371L57.5583 94.9534L110.28 81.2736L116.69 41.0543C116.69 41.0543 116.985 33.1369 109.877 31.8836C102.77 30.6304 93.3122 30.3492 82.5553 31.8197C71.7985 33.2902 53.4935 36.0048 47.1326 40.627C40.7716 45.2493 32.6601 55.3068 30.8654 68.8552C29.0707 82.4036 27.9755 89.7371 27.9755 89.7371Z" fill="#FFF000"/>
<path fill-rule="evenodd" clip-rule="evenodd" d="M102.214 41.8048C102.811 42.168 103.624 42.2713 103.883 43.0427C103.902 43.3367 103.548 43.0985 103.619 43.4682C103.42 43.7684 103.921 43.5781 103.846 43.7912C103.391 44.8263 103.23 45.2189 103.502 46.2785C103.275 46.277 103.332 46.0763 103.06 46.1063C103.225 46.7657 103.242 47.5299 103.238 48.3081C102.3 48.9368 103.453 50.3437 102.587 50.93C103.244 51.6555 101.708 52.801 102.442 53.358C102.382 53.4637 102.292 53.5254 102.135 53.4927C102.318 53.926 102.192 54.6652 101.893 54.8657C101.89 55.0009 102.16 54.9458 102.135 55.097C102.08 55.7049 101.58 55.6787 101.317 55.9908C101.15 55.602 100.313 55.8211 100.004 55.9481C99.6145 55.7124 100.019 54.9209 99.6641 54.6613C99.8679 54.2952 100.459 53.4805 99.9385 53.1053C100.08 51.9873 100.917 50.9984 100.562 50.1013C100.871 49.4739 101.044 48.792 101.101 48.1201C101.145 47.5947 100.949 47.16 101.068 46.6988C101.158 46.3523 101.586 46.1298 101.52 45.7404C101.593 45.4219 101.264 45.3847 101.251 45.1266C101.46 44.0482 101.543 42.9076 102.257 42.0954C102.076 42.0105 102.089 41.9183 102.214 41.8048ZM102.387 47.7807L102.662 47.8291C102.703 47.6669 102.609 47.599 102.419 47.5977L102.387 47.7807ZM101.527 53.1967C101.498 53.4571 101.617 53.6147 101.92 53.6433C101.986 53.4366 101.967 53.2894 101.909 53.1697C101.751 53.1348 101.621 53.1398 101.527 53.1967Z" fill="black"/>
<path fill-rule="evenodd" clip-rule="evenodd" d="M68.5845 137.795C68.8667 137.764 68.5062 137.543 68.6651 137.337C69.3036 137.218 69.5983 136.607 70.3071 136.589C70.5174 136.284 70.7769 136.226 71.0286 136.244C70.9861 135.606 71.3192 135.104 71.3836 134.231C71.3832 134.237 71.5528 134.256 71.5666 134.263C71.4292 133.717 71.3937 133.029 71.965 132.54C72.1054 132.281 71.7895 132.342 71.631 132.292C71.6416 132.008 72.4233 131.625 71.7762 131.469C72.0896 131.273 71.9733 130.937 72.1045 130.677C72.5089 129.874 73.1885 129.468 73.8648 128.723C74.2115 128.873 74.3828 128.888 74.7044 128.776C75.1283 128.083 75.9099 127.901 76.6101 127.602L76.6746 127.236C76.9972 126.926 77.4244 126.938 77.8107 126.682C78.0089 126.55 78.1203 126.196 78.3811 126.122C78.8572 125.986 79.4828 126.472 79.8507 125.815C79.8815 125.632 79.6219 125.654 79.7323 125.416C80.963 125.107 81.0819 124.462 82.3271 124.081C82.4701 123.983 82.6133 124.073 82.6772 124.237C83.2123 124.046 83.5021 123.506 83.9099 123.133C84.3966 123.217 84.6482 122.966 84.8466 122.638C85.3714 122.882 85.5039 122.114 85.9017 122.541C86.1503 121.88 86.751 121.835 86.9672 121.313C87.1094 120.97 86.678 120.131 87.3169 119.864C87.1523 118.969 87.4026 118.066 87.7418 116.92C87.3334 116.572 87.7624 116.161 87.8174 115.423C87.8358 115.221 87.9434 115.145 88.1399 115.197C87.8056 114.522 88.0446 113.892 88.4035 113.167C88.49 112.973 88.2519 113.006 88.2693 112.86C88.803 112.111 88.3505 111.35 88.8715 110.513C88.958 110.319 88.72 110.352 88.7372 110.206C88.7216 109.726 89.0891 109.792 89.232 109.538C89.2622 109.304 89.1618 109.16 88.9309 109.108C89.4094 108.519 88.9505 106.707 89.8292 106.152C89.6883 106.037 89.6987 105.816 89.528 105.721C89.499 104.659 90.7949 103.49 89.9045 103.051C90.2428 102.647 90.4309 101.982 90.1628 101.587C91.0584 100.798 90.5391 99.5417 90.9533 98.7064C90.4832 97.9224 91.3658 97.306 91.1741 96.3859C91.2908 96.5156 91.3861 96.5324 91.5398 96.4504C91.1386 95.6449 91.8703 94.9178 91.6852 94.0224C92.1253 93.7104 92.2387 92.5541 92.0402 92.0089C92.0661 91.7789 92.2337 91.7507 92.3036 91.5834C92.0945 90.9969 92.6569 90.5951 92.7502 89.5861C92.5218 88.6519 93.2259 85.971 93.5682 85.4836C93.4417 85.2781 93.2447 85.1217 93.4225 84.7032C93.3557 84.3959 93.2419 84.6226 92.9973 84.4393C92.4542 84.9153 91.8509 84.1024 91.5708 85.0374C90.59 85.126 89.4367 84.9682 88.8306 85.5922C88.6938 85.5274 88.803 85.2903 88.4967 85.3444C88.3012 85.2938 88.3981 85.6616 88.3245 85.786C87.4679 85.47 86.7027 86.1867 85.8429 86.4808C85.5813 86.5033 85.6905 86.2662 85.5089 86.2332C85.2189 86.3586 85.3235 86.5131 84.9277 86.3194C84.6551 86.3641 85.0172 86.5868 84.7716 86.6696C84.1196 86.699 83.5724 87.3402 82.9951 87.111C82.524 87.3915 81.2696 87.7764 80.6693 87.4559C80.3844 87.4679 80.7222 87.6671 80.6047 87.8222C80.1454 88.2357 79.132 87.8577 78.7958 88.4469C78.5349 88.2655 78.0726 88.1737 78.0909 88.6999C77.8614 88.7166 77.65 88.7579 77.3422 88.6623C77.245 88.7144 77.1743 88.8043 77.1108 88.9045C76.4247 88.6121 76.3335 89.1691 75.765 89.0448C74.7517 89.8512 73.2545 89.9659 71.7218 90.0306C71.482 90.0695 71.3913 90.3221 71.1837 90.4074C69.9839 90.4445 69.0377 90.4747 67.9861 90.8816C67.9117 90.8267 67.8362 90.7724 67.835 90.6663C66.9541 90.9746 66.234 91.5118 65.1379 91.512C64.8439 91.5305 65.0821 91.1768 64.7127 91.2484C64.6317 91.3217 64.6451 91.6154 64.2065 91.4422C63.9762 91.6512 63.6344 92.301 63.1945 91.8297C62.8928 92.0865 62.3652 92.0201 61.8484 91.97C61.5637 91.9818 61.9013 92.1812 61.7838 92.3363C60.8402 92.589 59.9764 92.2634 59.1674 92.724C58.94 92.6964 58.724 92.6602 58.6346 92.5357C58.3862 92.6395 58.3084 92.9864 57.9885 92.9881C57.9635 92.5512 57.3855 92.5009 57.5095 91.9597C57.1585 91.8846 56.693 91.8898 56.6265 91.6156C56.3356 91.9676 55.7165 91.8829 55.4203 91.4973C54.9432 91.5428 54.3964 91.9216 53.5415 91.449C53.1345 91.2242 53.4203 91.0429 52.8577 91.0454C52.5 91.0468 52.1376 91.0038 52.0448 91.3737C51.6713 91.135 51.0703 90.9186 50.6721 91.1317C50.6349 90.9169 50.263 90.937 50.2789 90.6847C49.4745 90.8955 48.1364 90.1844 47.2261 90.3354C47.2134 89.7976 46.2339 89.7847 46.0956 90.3247C45.3705 90.0717 44.6898 90.0396 44.1629 89.5123C43.7479 90.1386 43.1412 89.2067 42.8007 89.7438C42.2951 89.1425 41.446 89.4086 40.9434 89.0386C39.806 89.7477 38.75 88.2517 37.6918 88.7486C37.3974 88.7673 37.6356 88.4136 37.2663 88.4849C37.038 88.7315 36.2627 88.6933 35.678 88.3935C35.256 88.1773 35.1017 87.9242 35.3121 88.329C34.7433 88.4755 34.2928 88.0277 33.7722 87.9631C33.5656 87.9376 33.6218 88.0813 33.4655 88.0977C33.4691 88.0974 33.146 87.9117 33.0239 87.9255C32.9927 87.9293 32.8696 88.0854 32.9001 88.0924C32.456 87.9903 31.9605 87.6671 31.6993 87.4086C31.0955 87.7068 30.2984 87.0191 29.8043 87.4521C29.4453 87.4899 29.5836 87.179 29.2876 87.1724C28.6016 87.576 27.7684 88.0307 26.9456 87.6087C27.0284 87.1921 27.0353 86.6671 27.3222 86.5428C27.3864 86.2573 27.1431 86.1868 26.9294 86.0959C27.0633 85.3016 27.3352 84.8204 27.8444 84.6532C27.7935 84.5216 27.2843 84.0596 27.3275 84.373C27.1531 83.4785 27.6047 82.8339 27.8386 82.0095C27.9452 81.7745 27.6806 81.7994 27.6125 81.6869C27.9397 80.7955 27.8405 79.5747 28.0697 78.5588C28.0946 78.3267 28.2606 78.297 28.4087 78.241C28.373 77.3593 28.3065 76.2624 28.7853 75.5703C28.6069 74.7935 29.1171 74.3145 28.9734 73.4335C29.1904 73.2474 29.4562 73.6909 29.7215 73.471C29.6901 73.2524 29.2146 73.3447 29.0058 73.2502C29.2508 72.4607 29.2193 71.4078 29.4899 70.5045C29.5221 70.3963 29.7678 70.2987 29.845 70.0954C29.8642 70.0449 29.7221 69.8953 29.802 69.8045C29.8285 69.7745 30.0814 69.8124 30.0926 69.7614C30.1327 69.5814 29.8708 69.6196 29.8504 69.53C29.8207 69.4 30.1182 68.9503 29.7804 68.857C29.9783 68.6355 29.7106 68.4029 30.0602 68.3403C30.0562 67.9953 29.5202 68.0231 29.5163 67.6781C28.8373 68.0147 28.1242 67.5584 27.4706 67.5061C27.6029 67.0138 27.293 67.0698 27.0935 66.9679C27.1337 66.7526 26.9835 66.6706 27.0988 66.4025C27.1314 66.1124 26.5021 66.2854 26.6144 65.9397C26.6485 65.5498 26.9237 65.9269 27.088 65.9289C26.601 64.8856 27.5905 64.8515 28.0031 64.4859C28.0244 64.4669 27.8867 64.2687 27.9601 64.195C28.192 63.9625 28.6142 63.9516 28.5466 63.5434C28.7229 63.4898 28.8529 63.3696 29.0528 63.3497C29.1475 62.7054 30.0944 62.3285 30.3984 61.6052C30.8741 61.7498 30.9786 61.3648 31.2275 61.1851C31.2885 61.0354 31.1863 61.0001 31.0768 60.9698C31.4606 60.449 32.0882 60.2761 32.3578 59.5914C32.2724 59.2968 31.9796 59.6492 31.7171 59.4784C31.538 58.6854 30.4329 59.0366 30.4466 58.122C30.014 57.9854 29.7776 58.1289 29.531 57.9606C29.4732 57.841 29.4536 57.6938 29.5202 57.487C29.2594 57.2973 29.116 57.4757 28.8472 57.557C27.865 57.1878 27.2952 56.8344 26.7045 56.3298C26.4689 56.5305 26.2681 56.4191 26.0638 56.2169C25.9224 56.0251 26.1507 55.9566 26.236 55.7752C25.852 55.6854 25.6604 55.8698 25.5145 56.12C25.0397 55.8287 24.6787 56.0654 24.2011 56.0771C24.1588 56.4608 24.0177 56.4125 24.0881 56.7178C23.0486 56.5679 23.874 57.7954 23.1138 57.9614C23.0425 58.2254 23.2711 58.2792 23.1999 58.5429C22.879 58.709 22.5677 58.7818 22.6887 59.3021C22.232 59.4523 21.9112 59.7959 21.5203 60.0398C21.3641 59.9994 20.8234 59.6101 20.7723 60.0022C19.8414 59.6472 18.7447 59.327 18.2041 58.5114C17.4566 58.4197 16.935 58.1695 16.745 57.6877C16.6047 57.7933 16.3313 57.7082 16.0881 57.6663C16.0051 57.4036 15.764 57.2513 15.7432 56.9451C14.8735 57.3029 14.7949 56.3399 13.9451 56.4394C13.7268 56.218 13.9134 55.7128 13.4173 55.6856C13.4581 55.5144 13.7313 55.6755 13.7405 55.4593C13.8726 55.18 13.5366 55.2276 13.5303 55.0449C13.9724 54.0877 13.758 53.5548 14.6929 53.2682C14.7249 53.1124 14.6669 53.0191 14.5584 52.9611C14.9839 52.9008 14.6526 52.4303 15.2044 52.509C15.2351 52.3803 15.2651 52.2524 15.1614 52.2181C15.2728 52.1101 15.4907 52.1539 15.5757 52.0082C15.5143 50.797 16.5898 50.3641 16.8997 49.3163C17.2413 49.2154 17.469 49.5453 17.7557 49.2785C17.7036 49.1811 17.6137 49.1104 17.5136 49.0468C17.5641 48.8898 17.7078 48.8661 17.9118 48.9284C17.9233 48.5996 17.8805 48.3087 17.9978 47.9055C18.2695 47.9881 18.2405 47.6409 18.3533 47.4962C18.5648 47.8438 19.2056 47.1742 18.8161 47.0118C19.3814 46.0241 20.9425 46.2168 21.7824 46.7798C21.8923 46.7841 21.889 46.6266 21.9226 46.5215C22.2391 46.5937 22.3457 46.8134 22.3909 47.0758C22.5628 47.0541 22.7791 47.0958 22.8806 46.9735C23.0582 47.2673 23.5584 47.8554 24.0222 47.4578C24.4701 47.6272 24.5166 48.3173 25.0236 48.2007C24.7289 48.536 25.5961 49.0624 25.815 48.5289C26.1731 48.92 26.6403 49.2347 27.258 49.444C27.0513 49.9633 27.6839 49.8945 27.7858 50.1977C27.9831 50.0596 28.214 49.9691 28.4911 49.9444C28.7375 50.183 28.8584 50.331 29.2826 50.2727C29.8029 51.165 31.6436 51.1331 31.9691 52.1621L32.6099 52.275C32.4099 52.4137 32.6964 52.6214 32.8037 52.7812C32.9684 52.7875 33.0399 52.6605 33.0512 52.4472C33.5472 52.7952 33.9301 53.2224 34.4619 53.5453C35.026 53.629 35.0274 52.546 34.9946 52.1292C35.1868 52.0219 35.2901 51.7876 35.5331 51.7525C35.4189 51.0187 35.7452 50.1672 36.2864 49.6203C36.187 49.0156 36.7397 48.5688 37.0938 48.253C37.0671 47.3909 38.0014 46.4778 38.6978 46.6484C38.6598 46.3539 38.4271 46.1961 38.5686 45.776C38.9197 45.7772 39.1489 45.5366 39.0478 45.2001C39.3551 45.1808 39.5895 45.0576 39.7689 44.8553C39.7608 44.6738 39.5367 44.6436 39.6667 44.3652C40.1394 44.3504 40.3956 43.6852 40.8617 44.0099C40.5468 42.8731 41.844 43.1792 41.7929 42.4755C42.0131 42.4841 42.1619 42.3916 42.4498 42.497C42.7116 42.3207 42.3432 42.3026 42.439 42.0231C42.6832 42.0286 42.7629 41.7987 43.0364 41.8454C43.7394 41.1687 44.6456 40.7824 45.4051 40.187C45.9115 40.234 45.9219 40.2534 46.2611 40.1493C46.6115 40.0641 46.2615 40.4696 46.4872 40.4721C46.7334 39.2959 47.9136 39.454 48.4897 38.7492C49.216 39.023 49.256 38.3161 49.9434 38.5335C49.9839 38.3713 49.8651 38.3208 49.9161 38.1514C51.3631 37.6589 52.6425 36.9273 54.0884 36.4334C54.0159 36.6176 54.1082 36.6868 54.1154 36.8155C54.3345 35.6329 55.848 36.8454 56.0049 35.7333C56.4117 35.7556 56.9337 35.4648 57.1193 35.8354C57.667 35.3952 58.478 35.3319 59.2188 35.1673C59.7871 34.2972 61.0636 34.9173 61.6145 33.8911C61.9207 33.8905 62.0292 34.0287 62.2388 34.0955C63.4566 33.7509 64.8248 33.0828 66.1579 33.2768C66.2676 33.2041 66.3753 33.1284 66.481 33.0508C67.1765 33.3794 67.5514 33.0637 68.3276 33.2821C68.5201 33.2897 68.5534 33.0697 68.6667 32.9642C69.2256 33.5158 69.7424 32.8888 70.1203 32.7488C70.2999 32.6823 70.5212 32.7701 70.5939 32.738C71.2196 32.4613 71.2574 32.1378 72.1875 32.264C72.5122 32.3081 72.9674 32.4779 73.1996 31.8761C74.1587 32.1001 74.4723 31.4023 75.3421 31.4989C75.4519 31.4261 75.5595 31.3505 75.6653 31.2729C75.962 31.279 75.9593 31.4947 76.2899 31.4773C76.6133 31.4265 76.6698 31.1355 76.9199 31.1164C77.4197 31.0788 78.1334 31.3005 78.4489 31.0087C78.8415 31.3699 79.4919 31.3553 79.7032 30.8522C80.1351 30.8975 80.4122 31.051 80.6776 31.213C80.9577 31.1802 80.8045 31.0938 80.8337 30.8628C81.8921 31.2365 82.0825 30.7737 82.9386 31.234C83.1495 31.1916 83.1569 30.8586 83.3102 30.7335C83.7462 30.7626 84.0824 30.9053 84.4568 30.6524C84.6881 30.791 85.2041 30.96 85.2372 30.5069C85.9823 30.6412 87.1537 30.4271 87.9293 30.2266C88.243 30.4347 88.7233 30.3291 88.909 30.022C89.4693 30.1731 89.9522 30.213 90.1633 29.8655C90.3902 29.867 90.3327 30.0677 90.6049 30.0381C90.7146 30.042 90.7115 29.8845 90.7448 29.7794C91.6093 29.9447 92.138 29.6307 92.9304 29.6931C93.1229 29.7004 93.1565 29.4808 93.2698 29.3753C93.4034 29.8057 93.6626 29.2366 93.878 29.6712C94.381 29.4644 94.9344 28.8772 95.6384 29.3212C96.0696 29.0777 96.8641 28.8629 97.2589 29.2293C97.5513 29.0742 97.8735 28.9613 97.9534 28.5024C97.7389 28.2012 97.8561 27.7007 98.2063 27.6033C98.1293 26.8938 98.4448 26.9222 98.6152 26.3544C98.3564 26.2135 98.4171 26.5297 98.3677 26.6881C98.1374 26.662 98.1098 26.4944 97.9422 26.4244C99.0224 25.1514 98.0552 23.3319 99.2069 21.9287C98.9985 21.2124 99.4078 20.5125 99.8206 20.0552C100.014 19.7325 99.5998 19.8353 99.7179 19.5654C99.9168 19.4677 100.129 19.3886 100.407 19.4036C100.751 18.3345 101.571 18.4377 102.329 18.1384C102.369 17.9762 102.251 17.9255 102.302 17.756L102.942 17.869C103.054 17.4141 103.936 17.9329 104.353 17.3627C104.546 17.4955 104.895 17.5182 105.053 17.6751C105.291 17.5948 105.345 17.252 105.683 17.3141C106.036 17.3347 106.081 17.5704 106.275 17.7016C106.933 17.3045 107.541 17.8976 108.245 17.766C108.317 17.9025 108.276 18.1192 108.348 18.256C108.503 18.1728 108.742 18.2082 108.854 18.062C109.045 18.2754 109.42 18.3607 109.398 18.7242C109.666 18.8395 109.748 18.6893 109.963 18.7295C110.05 19.0937 110.683 19.4219 110.335 19.8331C110.48 19.9983 110.388 20.3303 110.711 20.3715C110.678 20.5531 110.441 20.4436 110.464 20.7052C110.645 20.8725 110.843 21.0281 111.04 21.1842C110.986 21.2986 110.853 21.2998 110.809 21.4267C111.827 22.0676 111.019 24.1738 111.078 25.249C110.723 25.8974 110.251 26.7972 110.707 27.3539C110.592 28.0978 110.644 29.0527 110.26 29.3514C110.244 29.5232 110.56 29.4621 110.594 29.599C110.301 30.4089 110.24 31.0163 110.498 31.7527C110.982 31.7123 111.191 31.9849 111.537 31.7468C111.81 32.037 112.412 32.0966 112.43 32.5651L113.071 32.6781C113.072 33.1124 113.522 33.0776 113.723 33.265C113.81 33.3465 113.746 33.564 113.841 33.6632C113.967 33.7949 114.217 33.7519 114.283 33.8354C114.339 33.9067 114.334 34.1214 114.401 34.234C114.744 34.8111 115.02 35.3682 115.731 35.7895C115.29 36.5649 116.894 36.3883 116.437 37.1406C116.859 37.8071 117.716 38.17 117.794 39.0785C118.498 38.7805 118.437 40.1563 118.375 40.5968C118.554 40.6603 118.665 40.6283 118.682 40.4622C119.133 40.9518 118.872 41.9845 118.268 42.2765C118.321 42.4736 118.489 42.7647 118.246 42.9334C118.651 43.1183 118.179 43.4468 118.699 43.5792C118.741 43.9957 118.363 44.0975 118.279 44.3545C118.271 44.3773 118.484 44.8541 118.123 44.7044C118.336 45.5024 118.213 46.2367 118.069 47.1486C118.029 47.4027 117.899 47.8292 117.908 48.0638C117.918 48.3242 118.107 48.4213 118.085 48.6615C118.014 49.4761 117.872 50.6001 117.478 51.5743C118.053 53.2035 116.299 55.4788 116.816 56.9311C116.843 57.2368 116.622 57.1885 116.552 57.3563C116.722 58.092 116.654 59.0722 116.224 59.7521C116.17 60.149 116.465 60.462 116.063 60.6673C116.136 60.7767 116.211 60.8844 116.289 60.9902C115.874 61.4539 116.044 62.089 115.875 62.8046L115.6 62.7561C115.668 63.0302 115.628 63.3787 115.837 63.5529C115.002 64.1209 115.556 65.2668 115.246 66.3743C115.176 66.6101 115.588 66.5088 115.456 66.7886C115.509 67.1706 115.149 66.9631 115.1 67.198C115.269 67.7829 114.801 68.1636 115.117 68.7106C115.102 68.9566 114.937 68.9889 114.702 68.9205C114.866 69.2901 114.966 69.7025 114.524 69.9275C114.969 70.6236 114.88 71.3347 114.487 72.28C114.483 72.39 114.64 72.3866 114.746 72.4199C114.743 72.9501 114.493 73.128 114.294 73.3785C114.494 74.0165 114.659 75.3097 114.009 76.0649C114.555 76.8951 113.931 77.9072 113.616 78.8268C113.628 79.1116 113.827 78.7735 113.982 78.8913C114.025 79.3169 113.365 79.5622 113.928 79.7311C113.707 80.0686 113.401 80.2393 113.175 80.259C112.495 80.3176 112.291 79.4617 111.656 79.2362C111.523 79.2746 111.452 79.402 111.409 79.5699C111.074 79.2841 110.929 79.6455 110.477 79.5004C110.154 79.5284 110.43 79.7029 110.23 79.8341C109.695 80.0769 109.185 79.9071 108.685 80.0333C108.041 80.196 107.508 80.8211 106.693 80.6258C106.519 80.7208 106.479 81.0077 106.322 81.1266C105.78 80.8925 105.511 81.5147 105.099 81.0998C104.536 81.3646 104.042 81.728 103.366 81.8322C103.518 82.2533 103.241 82.5067 103.021 82.7151C103.006 82.8872 103.321 82.8261 103.355 82.963C103.266 83.8513 102.596 84.6619 102.844 85.3265C102.608 85.2938 102.65 85.6604 102.414 85.6276C102.885 86.1467 101.985 86.6379 102.645 86.9901C102.063 87.7576 102.308 88.9381 101.736 89.4718C102.09 90.0868 101.564 90.7214 101.623 91.7167C101.683 91.9174 101.345 91.9455 101.268 92.126C101.206 92.2695 101.358 92.6338 101.305 92.9823C101.258 93.2948 101.093 93.5436 101.069 93.7896C101.039 94.0888 101.15 94.5204 100.95 94.9954C100.826 95.2911 100.608 95.7172 100.541 96.2446C100.515 96.4528 100.67 96.3944 100.676 96.5514C100.686 96.8168 100.309 97.2959 100.606 97.4831C99.8756 98.631 100.174 99.1559 99.9499 100.67C99.8117 100.74 99.6472 100.772 99.5354 100.88C99.4554 101.282 99.7755 101.309 99.4225 101.521C99.4123 101.715 99.8202 101.617 99.848 101.784C99.3918 102.714 99.7861 103.911 99.0675 105.139C99.4032 105.404 99.0427 106.103 98.7071 106.113C98.7683 106.337 98.8437 106.552 98.9765 106.727C98.6807 106.996 99.1125 107.615 98.4758 107.96C98.5203 108.563 98.815 109.749 98.1961 110.081C98.2073 110.207 98.3319 110.253 98.331 110.388C98.3594 110.696 98.007 110.46 97.9917 110.706C97.8981 110.985 98.1765 111.004 98.2934 111.136C98.0099 111.381 98.0797 112.13 97.642 112.154C97.5292 112.5 97.9989 112.439 98.019 112.692C97.9458 113.16 97.5813 113.213 97.4752 113.634C97.4819 113.764 97.6909 113.751 97.8254 113.79C97.4727 114.378 97.6512 115.089 97.0933 115.266C97.7397 116.01 96.2736 117.268 97.0991 117.909C97.0107 118.203 96.7601 118.265 96.6199 118.485C96.5047 119.324 96.8666 119.98 96.5397 120.547C96.6669 120.859 96.9673 121.05 97.1586 121.317C97.4267 121.432 97.5087 121.282 97.724 121.322C97.7252 121.589 97.8507 121.768 98.1011 121.86C98.4788 121.86 98.1818 121.432 98.3806 121.344C98.6503 121.583 99.1979 121.627 99.1993 122.054C99.613 121.677 99.7565 122.117 100.098 122.307C100.37 122.458 100.873 122.378 101.105 122.484C101.345 122.595 101.532 122.774 101.681 122.964C102.645 122.749 102.771 123.907 103.722 123.701C103.745 123.845 103.816 123.956 103.84 124.099C104.713 123.921 105.367 124.45 105.848 125.019C106.117 125.135 106.146 124.909 106.414 125.025C106.479 125.273 106.724 125.396 106.667 125.73C106.851 125.687 107.029 125.636 107.248 125.644C107.297 126.137 107.589 126.563 107.313 126.882C107.84 127.408 107.747 128.178 107.814 128.858C107.711 128.941 107.471 128.827 107.491 129.084C108.046 129.578 108.282 130.295 108.789 130.823C108.567 131.324 109.37 132.083 109.139 132.583C109.546 132.707 109.832 132.657 110.011 132.454C110.278 132.588 110.312 132.885 110.463 133.1C110.567 133.057 110.595 132.906 110.77 132.965C111.025 133.152 110.966 133.647 111.438 133.46C111.545 133.626 111.567 133.851 111.616 134.058C112.196 133.922 112.143 134.486 112.649 134.618C112.373 134.943 112.712 134.899 112.628 135.275C112.869 135.319 113.216 135.29 113.037 135.63C113.711 135.785 113.888 135.612 114.318 135.856L114.254 136.222C114.432 136.285 114.544 136.254 114.561 136.087C114.886 136.582 115.493 136.878 115.309 137.729C115.508 137.839 115.599 137.859 116.025 137.95C115.921 138.157 115.605 138.776 116.063 138.806C116.013 138.963 115.869 138.987 115.665 138.924C115.63 139.291 115.96 138.907 115.998 139.172C115.943 139.551 115.588 139.502 115.579 139.947C115.317 139.97 115.426 139.733 115.245 139.699C115.493 140.215 114.99 140.588 114.567 140.335C114.35 140.952 113.465 141.545 113.016 141.1C112.887 141.106 112.9 141.315 112.86 141.45C112.372 141.121 112.085 141.62 112.015 141.961C111.658 141.833 111.477 141.957 111.175 141.907C111.242 141.7 111.223 141.553 111.164 141.434C110.888 141.393 110.745 142.201 111.019 142.257C110.783 142.683 110.138 142.526 109.867 142.904C109.64 142.902 109.697 142.701 109.426 142.731C108.806 143.641 107.615 143.735 106.858 144.449C106.568 144.417 106.197 144.269 106.018 144.395C105.857 144.603 106.329 144.746 106.045 144.778C105.814 144.763 105.332 144.441 105.307 145.214C104.667 145.127 104.512 145.804 103.886 145.246C103.615 145.429 104.045 145.475 103.881 145.811C102.932 145.895 102.734 146.356 101.722 146.28C101.498 146.341 101.34 146.499 101.259 146.765C100.677 146.698 100.316 146.945 100.032 147.303C98.9668 147.268 98.4996 147.75 97.6738 147.831C97.7189 147.532 97.2934 147.563 97.0815 147.444C96.8313 147.507 96.7445 147.803 96.6778 148.128C96.247 148.238 95.6822 148.157 95.391 148.467C95.3135 148.361 95.2381 148.253 95.165 148.144C94.2736 148.623 93.1122 148.025 92.1284 147.703C92.0188 147.699 92.0218 147.856 91.9884 147.962C91.6125 147.877 91.4467 147.646 91.4448 147.299C91.276 147.44 91.0656 147.521 91.0571 147.891C90.3455 147.383 89.072 147.729 88.6508 147.09C88.0955 147.165 87.3824 147.341 86.8957 146.875C86.7014 146.788 86.7345 147.026 86.5886 147.009C86.3805 146.941 86.2109 146.846 86.1796 146.654C85.933 147.084 84.7972 146.725 84.7312 146.304C84.4005 146.508 84.2348 146.266 84.1013 146.665C83.4041 146.423 83.1054 146.306 82.6099 146.024C82.4451 146.018 82.3739 146.145 82.3627 146.358C81.7494 146.086 81.1915 145.541 80.5483 145.944C80.6782 145.666 80.4542 145.635 80.4457 145.454C79.8829 145.436 79.7629 145.529 79.3314 145.352C78.9327 145.448 78.5239 145.722 78.4162 145.191C77.7559 145.432 76.7398 145.169 75.9719 145.137C75.8308 145.022 75.8412 144.801 75.6705 144.707C74.6122 144.894 73.7337 144.949 73.1078 144.255C72.9599 144.311 72.7406 144.265 72.7687 144.573C72.4115 144.555 72.1889 144.443 72.0685 144.26C71.7851 144.511 71.2019 144.125 70.7711 144.126C70.7904 144.126 70.0295 144.37 70.0551 143.905C69.9292 143.916 69.8829 144.041 69.7483 144.04C69.4402 143.725 68.6502 143.469 68.2841 143.782C68.0861 143.733 68.1281 143.516 68.1815 143.292C67.721 143.556 66.8719 143.602 66.4103 143.168C65.5371 143.434 64.8927 142.589 64.1866 142.399L64.2512 142.032C63.8699 141.9 63.6526 141.891 63.4436 141.796C63.3777 141.414 63.5302 140.715 64.0035 140.762C64.1189 140.494 63.9687 140.412 64.0089 140.197C64.2709 140.227 64.4197 140.096 64.6816 140.126C64.7548 139.693 65.3244 139.369 65.6186 139.631C66.2728 138.542 67.4884 138.253 68.4337 137.579C68.5953 137.573 68.5938 137.681 68.5845 137.795ZM106.087 19.8391C105.619 19.5584 105.184 19.6888 104.773 19.7962C104.705 19.7633 104.68 19.7009 104.714 19.5971C104.194 19.6863 103.855 20.0078 103.276 19.7209C103.142 20.2503 102.461 20.3629 101.99 20.0604C101.881 20.5157 101.724 20.9023 101.505 21.2017C101.68 21.7435 101.539 22.1717 101.538 22.623C102.131 22.9029 102.441 23.3813 102.733 23.8719C103.577 24.1765 103.979 23.987 104.531 24.3776C104.932 23.9682 105.52 24.1319 106.152 24.286C106.673 24.1888 106.925 23.71 107.638 23.8873C107.923 23.5474 108.474 23.4463 108.833 23.532C109.448 22.2549 108.358 21.5243 108.342 20.4255C107.603 20.1167 106.917 19.4353 106.087 19.8391ZM105.431 26.2348C105.294 26.2688 105.355 26.5847 105.183 26.5689C105.189 26.4038 105.062 26.3323 104.849 26.321C104.838 26.5343 104.767 26.6613 104.602 26.655C104.268 26.3206 103.801 26.6094 103.471 26.6444C103.16 26.398 102.58 26.0796 102.206 26.3269C101.646 25.863 101.173 25.3388 100.785 24.7549C100.578 25.085 100.62 25.8034 100.193 25.9719C100.539 26.1542 100.134 26.1567 100.112 26.4294C100.369 26.6184 100.542 27.4335 99.9506 27.3449C99.785 27.7816 99.9525 27.9851 100.08 28.217C99.6076 28.6311 99.7865 29.1122 99.714 29.7566C99.9003 29.919 100.099 29.5813 100.08 29.8211C100.045 30.6138 99.28 31.1422 99.1868 32.2116C99.2919 32.2449 99.4493 32.2419 99.4451 32.3515C99.3896 32.9594 98.9185 32.9742 98.9285 33.6761C99.462 33.6915 99.0033 34.0965 98.9985 34.3491C99.7339 34.3511 99.8097 34.9751 100.355 34.6827C100.489 34.7759 100.255 35.1268 100.565 35.097C100.733 35.0695 100.635 34.6617 100.829 34.6719C101.747 35.0844 102.226 35.0057 102.977 35.3337C103.912 34.9639 104.88 35.3511 105.879 35.4677C105.927 34.8874 106.404 34.9195 106.907 34.9886C107.615 34.471 107.57 33.3982 108.134 32.8456C108.052 32.6896 107.909 32.5753 107.94 32.3397C108.323 32.4281 108.281 31.9095 108.511 31.7797C108.255 31.6377 108.259 31.3143 107.951 31.209C107.992 30.7337 108.282 30.612 108.403 30.2506C108.369 30.1141 108.053 30.1748 108.069 30.0031C108.139 29.8354 108.36 29.8837 108.333 29.5776C107.737 29.0683 108.349 28.1404 108.247 27.392C108.405 27.427 108.535 27.4217 108.629 27.3651C108.731 26.9994 108.289 27.0148 108.268 26.7352C108.156 26.2799 108.889 26.0325 108.43 25.8199C107.85 26.5196 106.346 26.3831 105.431 26.2348ZM95.5632 30.8177C95.6553 30.8336 95.6593 30.911 95.7303 30.9418C95.747 30.7962 95.7984 30.6262 95.5954 30.6347L95.5632 30.8177ZM89.5769 32.1215C89.6273 32.0027 89.7381 31.9696 89.7333 31.7714C89.4332 31.6476 89.3143 32.0582 89.5769 32.1215ZM58.7901 88.9771C58.824 89.114 59.1403 89.0529 59.1241 89.2246C58.6302 89.5781 59.1581 90.0527 58.8066 90.49C59.7286 90.9645 60.0517 90.089 61.1914 90.3442C61.3414 89.7703 62.1753 89.7742 62.6612 90.037C63.0124 89.8162 63.368 89.2391 63.9477 89.6978C63.959 89.4848 64.0305 89.3575 64.1956 89.3642C64.6707 89.7011 65.1742 89.153 65.9827 89.396L66.0472 89.03C66.8574 88.5443 68.3498 89.0336 69.003 88.3242L69.4608 88.4049C69.4857 87.8853 69.9477 88.4256 70.0584 88.2273C69.9662 88.2097 69.9712 88.0467 70.0907 88.0443C70.7664 88.2883 71.0625 88.1849 71.6787 88.1353C71.7116 88.0304 71.7089 87.8727 71.8185 87.8773C72.301 87.9854 72.83 87.8018 73.213 87.4625C73.9732 87.5166 74.7026 87.0468 75.323 87.2682C75.505 86.7779 76.1819 86.4657 76.6424 86.7458C76.8963 86.6035 77.2382 86.1347 77.6218 86.5412C77.7419 86.0403 78.1267 86.3623 78.419 86.3041C78.5965 86.2144 78.517 85.757 78.7899 85.8035C79.2143 85.8536 79.2493 85.7841 79.614 85.9488C80.13 85.2517 81.3532 85.5351 81.9556 85.5123C82.085 85.2589 82.0874 85.2455 82.0525 84.9628L82.51 85.0434C83.1806 84.2065 85.0389 85.0648 85.6053 84.0795C86.1333 84.1842 86.3555 83.8524 86.7845 83.8158C86.8989 84.0298 87.2058 84.1089 87.576 84.144C87.8089 83.9422 87.947 83.6049 88.179 83.401C88.2951 83.4266 88.285 83.5406 88.4373 83.5409C88.9376 82.7181 89.9333 83.3384 90.4453 82.8569C90.5609 83.1186 90.2843 83.1587 90.4561 83.3305C90.6275 83.079 90.8292 82.8704 90.9673 82.5716C91.2734 82.5444 91.2251 82.7656 91.3928 82.8353C91.5311 82.6749 91.865 82.4918 92.0658 82.7653C92.2293 82.5025 92.4542 82.3275 92.7278 82.2211C93.7955 82.6002 93.6819 81.2922 94.7952 81.7366C95.6081 81.37 96.5548 81.1946 97.4005 80.8749C97.5193 80.9254 97.5525 81.0359 97.7507 81.031C98.0528 79.9728 99.6646 80.7855 100.114 79.9377C101.195 80.5014 102.153 78.9939 103.479 79.5873C103.845 79.3897 104.156 79.0124 104.658 79.3232C104.946 78.6164 105.409 79.0758 106.144 78.9245C106.471 78.5019 107.043 77.988 107.737 78.4508C107.763 78.0844 108.158 78.0264 108.227 78.3482C108.901 78.0887 109.287 77.4181 110.176 77.4651C110.143 77.5708 109.976 77.644 110.127 77.7399C110.229 77.6173 110.445 77.6593 110.617 77.6373C110.587 76.6399 111.998 77.7002 112.001 76.7489C111.596 76.3468 112.334 75.6387 111.984 75.236C112.115 75.1176 112.288 75.0589 112.339 74.827C111.99 74.4753 112.815 73.9623 112.167 73.6639C112.756 73.0782 111.952 71.7729 112.619 71.1012C112.186 70.5958 112.874 70.2163 112.586 69.6801C112.645 69.4966 112.863 69.5405 113.001 69.4699C112.778 68.7446 113.272 67.9368 112.914 67.2843C113.052 67.0601 113.332 67.0402 113.469 66.8157C112.772 66.5403 113.341 65.8216 113.286 65.1793C113.444 65.2143 113.574 65.209 113.668 65.1521C113.712 64.6981 113.557 64.5065 113.754 64.1292C113.189 63.8215 113.458 63.3895 113.554 62.5843C114.048 62.389 114.047 61.8222 113.764 61.3943C113.874 61.2459 114.061 61.207 114.044 60.8774C113.546 60.5461 114.078 59.7388 114.378 59.5208C114.295 59.3653 114.017 59.3462 114.076 59.09C114.439 58.297 114.379 57.5186 114.437 56.5115C114.838 56.1808 114.682 55.7567 114.937 55.2784C114.418 54.9838 115.15 54.6674 114.856 54.1318C115.063 54.4141 115.124 53.8404 115.228 53.6309C114.968 52.663 115.21 51.3445 115.609 50.3955C115.349 49.8244 115.706 49.0938 115.841 48.5487C115.787 48.3724 115.667 48.2427 115.647 48.0428C115.78 48.0041 115.852 47.8771 115.894 47.7088C115.651 47.1839 115.87 46.3356 115.883 45.6308C116.041 45.5119 116.08 45.2253 116.255 45.13C115.653 44.2997 116.535 43.6256 116.383 42.7936C116.62 42.8639 116.653 42.6442 116.723 42.4758C116.382 42.013 116.51 41.6909 116.69 41.0547C116.474 41.0455 116.635 40.7723 116.464 40.7315C116.049 40.9121 116.257 39.9698 116.076 39.7194C115.869 39.6531 115.722 39.6723 115.603 39.7302C115.55 39.0224 114.785 38.5539 114.978 37.9213C114.553 37.7357 114.132 37.3083 114.192 37.0281C114.135 37.2141 113.785 36.9821 113.702 37.1303C113.566 36.8751 113.416 36.582 113.664 36.2743C113.161 36.2605 113.308 35.7031 112.781 35.93C112.299 35.2511 111.932 34.492 111.133 34.0351C111.125 33.8539 110.977 33.7704 111.031 33.545C110.572 33.3483 110.422 33.5916 110.083 33.5666C109.987 34.0396 109.861 34.4711 109.524 34.6006C109.418 35.0491 109.577 35.3118 109.621 35.6557C109.122 35.7645 108.984 36.8049 108.361 36.3773C108.162 36.4755 108.117 36.7928 107.974 36.9697C107.283 36.8799 107.177 37.1954 106.579 37.3845C106.612 37.2279 106.55 37.1374 106.445 37.0774C105.97 37.4779 105.033 37.2678 104.442 37.1963C104.402 37.3305 104.415 37.5396 104.286 37.5461C103.935 37.5509 103.92 37.3206 103.569 37.3255C103.431 37.3951 103.346 37.5412 103.155 37.5355C102.124 37.4977 100.856 36.7735 100.027 37.0785C100.035 36.8852 99.6257 36.9849 99.7098 36.7392C99.4273 36.6798 99.3976 36.9813 99.0364 36.8092C98.854 36.6698 98.7867 36.4497 98.552 36.3464C98.4178 36.5364 98.2158 36.6301 97.9382 36.6155C97.8559 36.2728 97.4074 36.0323 96.9802 36.1636C97.1032 35.7608 96.9363 35.3752 96.8507 35.2914C97.1939 34.9518 96.9014 34.487 96.7537 34.2363C97.1679 33.7016 96.9605 33.2165 96.9524 32.5726C97.4037 32.0403 96.9542 31.8966 97.2863 31.2162C96.9926 31.2346 97.1545 30.9337 96.8608 30.9521C96.6576 31.0055 96.6998 31.4102 96.4138 31.3453C96.1085 31.2918 96.1542 30.9925 95.8218 30.9579C95.6603 31.6299 95.0585 31.2196 94.7018 31.4208C94.8685 31.438 94.9002 31.5495 94.8364 31.7275C94.2392 31.4092 94.3222 32.063 94.0076 32.1477C93.2968 31.9136 92.7949 32.016 91.9781 31.8842C91.6497 32.2999 91.0945 32.1677 90.5405 32.0084C90.2458 32.0456 90.175 32.4031 89.8191 32.3529C89.4466 32.3199 89.4154 32.0474 89.2432 31.874L89.1464 32.4229C88.6153 32.4287 88.0235 32.3472 87.4666 32.3157C87.4416 32.7265 86.0355 32.9015 86.1801 32.6549C85.6355 32.9067 84.812 33.1167 84.161 32.8652C84.1277 32.9704 84.1311 33.1275 84.0211 33.1235C83.4279 33.0395 82.8116 32.9732 82.2014 33.2747C81.8855 32.9681 81.7233 33.0784 81.3616 33.2209L81.4262 32.8547C81.044 32.8053 81.031 33.2833 80.6885 33.2909C80.0859 33.2386 79.4643 33.5355 78.6429 33.1189C78.3973 33.2011 78.6833 33.4774 78.4865 33.469C77.7923 33.3241 76.7797 33.6497 75.9511 33.3993C75.8775 33.5236 75.9747 33.8912 75.7785 33.8408C75.4723 33.8414 75.3638 33.7032 75.1542 33.6364C75.0087 33.7722 74.9016 33.9628 74.6319 33.9217C73.4889 33.7785 73.1891 34.84 71.8917 34.4765C71.6282 34.8956 70.8587 35.0452 70.4545 34.6004C70.1733 34.7723 69.7399 34.726 69.3829 34.7892C68.9443 35.1822 68.5503 35.6242 67.7896 35.2632C67.5777 35.3042 67.5249 35.5727 67.2673 35.5485C66.8863 35.5747 67.0401 35.2264 66.6588 35.2525C66.6194 35.3867 66.6319 35.5962 66.5031 35.6024C65.0814 35.4804 64.0218 35.6227 62.8151 36.1791C62.56 36.3648 62.6689 36.0125 62.3737 36.0069C62.1746 36.1047 61.9627 36.1838 61.6846 36.1684L61.6201 36.5344C61.0839 36.6019 60.6648 36.8457 60.2259 36.9492C60.1241 36.9733 60.1108 36.7884 59.9676 36.8094C59.712 36.8464 59.3859 37.2019 59.122 37.3209C58.7891 37.4711 58.4879 37.5489 58.1261 37.617C57.8545 37.6471 57.9117 37.4464 57.6848 37.4449C57.53 37.5292 57.4813 37.7655 57.3296 37.8542C56.5827 37.7504 56.2147 38.5105 55.4938 38.0969C55.4826 38.3099 55.4111 38.4368 55.246 38.4305L54.88 38.366C54.5157 39.144 53.3666 38.8018 52.8236 39.3247C52.814 39.8159 53.5074 39.556 53.6904 39.7606C53.7069 39.5164 53.7931 39.3728 54.0295 39.4427C54.7147 40.0426 56.3007 39.435 56.42 40.3362C56.6337 39.9683 56.7795 40.2119 56.9692 40.4331C56.9769 40.1386 57.2447 40.2156 57.3997 40.1316C57.5994 40.2859 57.9323 40.3468 58.0836 40.5352C58.1969 40.4294 58.2832 40.2855 58.4226 40.2173C58.6578 40.5126 58.8401 40.3484 59.322 40.4706C59.1505 41.0102 60.4044 40.8629 60.2961 40.831C60.6379 40.9327 60.6829 41.2345 60.7809 41.2938C60.9977 41.4251 61.4735 41.3928 61.6799 41.5467C61.8012 41.5671 61.792 41.4009 61.8952 41.396C62.2267 42.0962 63.4248 42.1691 63.1015 43.1187C63.6204 43.3748 63.7598 43.7395 63.6562 44.2545C64.0053 44.4094 63.9801 44.0296 64.3292 44.1845C64.5694 44.9658 64.2217 45.6624 65.0455 46.0092C65.0097 46.4543 65.0188 46.4027 64.9002 46.8329C64.987 47.0394 65.3626 47.0441 65.3849 47.296C65.1487 48.277 65.0499 48.799 65.4873 49.3901C65.3143 49.6599 65.2708 50.1506 65.369 50.5963C65.2827 50.7784 65.0961 50.8174 65.0892 51.1129C65.1333 51.2962 65.1422 51.5038 65.283 51.6191C65.2325 51.7761 65.0887 51.7999 64.8847 51.7376C64.847 52.1118 65.1508 52.2465 65.321 52.4752C65.2974 52.942 65.0023 53.5911 64.6051 53.8586C65.2875 53.9157 64.8002 54.7918 65.1436 55.0863C64.9932 55.4063 64.7152 55.5437 64.616 55.9369C64.6939 56.0427 64.7696 56.1504 64.8424 56.2598C64.4677 56.9927 65.1439 57.8689 64.4551 58.4562C64.6512 58.5598 64.68 58.7802 64.7403 58.9785C64.2322 59.5307 64.5187 60.5101 64.1539 61.2345C64.3262 61.3544 64.5696 61.4246 64.5467 61.6814C64.2137 62.4345 64.3765 63.3222 64.0199 64.1362C64.0143 64.3807 64.2441 64.4604 64.1975 64.7339C63.8394 65.376 63.8463 66.2234 63.3524 66.8496C63.8655 67.0806 63.6819 67.705 63.4171 68.088C63.6451 68.4035 63.4308 68.8454 63.3311 69.1108C63.4365 69.1442 63.5937 69.1408 63.5897 69.2508C63.1246 69.6812 63.2904 70.3204 62.933 70.8337C63.4252 71.8455 62.0172 73.1374 62.7021 74.2847C62.3258 74.7959 62.4566 75.7623 62.0131 76.0505C62.1135 76.1141 62.2035 76.1845 62.2556 76.282C61.8524 76.8218 62.1701 77.602 61.6258 78.2469C61.7313 78.2803 61.8884 78.2772 61.8844 78.3869C61.6591 78.9244 61.6861 79.1098 61.3248 79.4209C61.5637 79.7836 61.0243 80.0985 61.4056 80.5675C60.9516 81.4244 61.0719 82.0453 60.6198 82.8823C60.6314 83.115 60.9395 83.1399 60.7974 83.48C60.4886 83.6498 60.3272 84.0304 60.0871 84.2984C60.1809 84.4468 60.5285 84.4173 60.4961 84.6538C60.3345 84.8807 60.1053 85.012 60.001 85.3215C60.1109 85.3515 60.2128 85.3871 60.1517 85.5368C59.6248 85.7898 59.9783 86.8824 59.2369 86.9798C59.4362 87.2142 59.5622 87.5005 59.6568 87.8086C59.2706 88.139 59.1736 88.6966 58.8546 88.6111C59.0869 88.6748 58.7014 88.7465 58.7901 88.9771ZM84.8627 85.0813C85.1203 85.1052 85.1731 84.8366 85.3847 84.7956C85.2582 84.7509 85.2569 84.6178 85.1428 84.5643C85.0562 84.7464 84.8696 84.7857 84.8627 85.0813ZM114.396 36.4035C114.071 37.2913 114.784 36.666 114.396 36.4035V36.4035ZM100.151 35.307L100.334 35.3393L100.366 35.1563L100.183 35.124L100.151 35.307ZM115.629 38.5083C115.721 38.5241 115.725 38.6015 115.796 38.632C115.813 38.4867 115.865 38.3168 115.662 38.3253L115.629 38.5083ZM73.1781 32.533C73.3082 32.4141 73.5672 32.204 73.2588 32.0752C73.1964 32.1216 72.9682 32.4716 73.1781 32.533ZM56.145 37.079C56.2216 37.0229 56.4521 36.6711 56.118 36.6969C56.0661 36.9239 55.8926 36.9527 56.145 37.079ZM115.765 50.0454C115.857 49.9826 116.142 49.3745 115.787 49.3885C115.807 49.728 115.425 49.8902 115.765 50.0454ZM52.0701 41.4566C52.0304 41.5907 52.0432 41.8 51.914 41.8064C51.0964 41.6029 50.3224 41.7561 49.6853 41.6024C49.5627 42.1596 48.1006 41.1471 47.8331 41.9362C47.5628 41.7874 47.36 41.7876 47.0097 41.791C46.982 42.252 46.5861 42.2553 46.3044 42.0443C46.1957 42.6149 45.9885 43.0442 45.3192 42.8142C44.9263 43.3376 44.6658 43.3408 44.0597 43.5358C43.8941 43.8121 44.3433 43.658 44.1781 43.934C43.4794 43.8532 43.3226 44.5459 42.5845 44.4081C42.9894 44.5792 42.0757 44.775 42.4393 45.2318C41.8188 45.4532 41.2345 45.7262 41.0667 46.5941C40.9273 46.7005 40.6249 46.574 40.4852 46.6803C40.4453 46.8956 40.5954 46.9776 40.4798 47.2456C40.0227 48.0439 39.2472 48.3875 38.962 49.4317L38.6875 49.3833C38.5663 49.6286 38.7745 49.6432 38.6984 49.8569C38.429 49.7013 38.4505 49.9614 38.2998 49.9753C38.3501 50.6657 37.9971 50.7456 37.9343 51.5152C37.3759 51.3356 37.4173 52.1431 37.7456 52.0483C37.0003 52.4354 37.4126 54.2697 36.2279 54.234C36.2591 54.674 36.3852 54.8249 36.0665 55.1492C36.3306 55.2218 36.471 54.8426 36.5243 55.23C36.3395 55.5282 36.187 55.1609 35.9427 55.3164C35.9932 55.9398 35.7736 56.5611 35.846 57.4697C36.1572 57.5702 36.2063 57.2968 36.3683 57.1845C37.431 57.8342 38.2152 57.7213 39.2758 58.3578C40.0346 57.7029 41.0508 58.358 41.9189 58.3519C41.9522 58.2467 41.9491 58.0893 42.0588 58.0935C43.0437 58.1687 43.2916 58.5281 44.1317 58.6477C44.165 58.5426 44.1617 58.3851 44.2716 58.3894C44.9349 58.8278 45.5493 58.8319 46.2689 58.8359C46.1108 59.2139 46.5812 59.1521 46.646 59.3741C46.8438 59.2366 47.0192 59.0667 47.2756 59.0134C47.4186 59.0469 47.306 59.2594 47.5181 59.2448C48.5637 58.9838 49.5718 59.5117 50.4629 59.6697C50.4367 59.7951 50.4707 59.8784 50.506 59.9604C50.8274 59.9994 50.9597 59.7676 51.1359 59.5997C51.2582 59.9072 51.1628 59.8695 51.2221 60.181C51.5236 60.1529 51.6663 59.8986 51.8682 59.7289C52.6746 60.1634 53.6608 59.8059 54.3825 60.4552C54.5651 60.4492 54.5172 60.1132 54.7968 60.2453C54.9031 60.358 54.9331 60.5244 55.1144 60.5843C55.3409 60.0438 55.8682 60.6094 56.1214 60.7618C56.3421 60.7715 56.3477 60.4741 56.6273 60.568C57.347 61.3575 58.6843 60.4831 59.4917 61.4504C59.6283 61.4164 59.5675 61.1006 59.7392 61.1167C60.3064 61.0938 60.2538 61.5052 60.6976 61.5687C60.9041 61.2528 61.4372 61.403 61.936 61.5041C62.3703 61.1135 62.4947 60.5902 62.2854 60.0557C62.5965 59.4993 62.3207 58.909 62.592 58.3167C62.2566 58.0859 62.3849 56.8507 62.7913 56.6532C62.8852 56.3736 62.5875 56.3679 62.5972 56.147C62.8982 55.9722 62.9893 55.6738 62.9419 55.264C62.8594 55.0185 62.5834 55.3048 62.5918 55.108C62.6957 54.395 63.1198 53.7819 62.8553 53.0784C63.1128 52.8684 63.3556 52.5573 63.0759 52.3623C63.0588 52.5287 62.9472 52.5607 62.7688 52.4971C63.1178 51.6878 62.7068 51.1729 63.2588 50.7902C62.7031 50.6332 63.2711 50.2562 63.3125 49.9503C63.1442 49.9078 63.0172 49.8363 62.9785 49.7028C63.2969 49.2003 62.8974 48.6835 63.1937 47.9477C62.8774 47.8216 62.8639 47.4833 62.9729 47.0594C62.6479 46.9774 62.5797 46.4305 62.8437 46.1873C62.6676 46.043 62.3649 45.9877 62.359 45.7245C62.4123 45.1255 62.1105 44.7752 61.9441 44.3303C61.3273 44.1888 61.0683 43.5944 60.5173 43.3234C60.3785 43.2553 60.2492 43.3916 60.0437 43.3342C59.8547 43.2816 59.6968 43.0141 59.5429 42.9629C59.1427 42.8301 58.624 42.8657 58.2614 42.7369C58.1366 42.6928 58.0494 42.5176 57.9277 42.4894C57.119 42.3025 56.4404 42.2147 55.731 42.1021C55.421 42.0529 55.1836 42.2074 54.9668 42.156C54.6479 42.0808 54.3101 41.582 53.9008 41.7794C53.9321 41.2837 53.3245 41.6665 53.0337 41.3435C52.9045 41.7831 52.4341 41.6286 52.0701 41.4566ZM45.4751 40.86L45.7496 40.9084C45.7574 40.7423 45.9229 40.4663 45.6312 40.5099C45.5804 40.6286 45.47 40.6618 45.4751 40.86ZM20.6574 47.8081C20.9006 47.99 20.9965 47.4463 20.7058 47.5337L20.6574 47.8081ZM25.218 53.5197C25.9984 53.9089 26.6256 53.4438 26.8928 54.1923C27.1182 54.0964 26.8166 53.9489 27.0326 53.934C27.4799 53.9416 27.4933 54.253 27.7004 54.4291C28.7094 54.4132 29.2246 55.364 30.1981 55.2472C30.1494 55.7674 31.0457 56.5296 31.4905 55.9467C31.714 56.1113 31.9917 56.2376 31.8353 56.6682C32.4274 56.7585 32.7621 56.8929 33.1434 57.2765C33.5882 57.2247 33.5077 56.4221 33.811 56.1672C33.6275 56.1086 33.6714 55.8907 33.6007 55.7528C33.0598 55.7306 33.0395 55.3436 32.7662 55.1337C31.9812 55.0565 31.985 53.7172 30.6073 53.9983C30.2958 53.4941 29.5866 53.269 29.3204 52.733C29.0116 52.6741 28.8858 52.8762 28.7066 53.0022C27.955 52.6335 27.364 52.3425 27.129 51.7806C26.8174 51.6702 26.7518 52.1601 26.5478 51.8668C26.4258 51.7651 26.3914 51.6018 26.4452 51.3767C25.621 51.429 25.0195 51.3188 24.5717 50.7634C24.7396 50.1602 23.7751 50.1368 23.5434 49.6384C23.5545 49.9134 22.8854 50.0178 23.0856 49.5576C22.8296 49.4974 22.824 49.7948 22.5797 49.7515C22.4492 49.3617 21.677 49.4209 21.9013 48.7825C21.3264 48.6108 20.9519 48.7255 20.4206 48.6157C20.4358 49.0959 20.08 49.0463 19.6992 48.9605C19.5646 49.1977 19.3254 49.8194 19.6135 49.9834C19.4594 50.2219 19.1129 50.1856 18.892 50.3282C19.184 50.716 18.4255 50.572 18.4128 50.9041C18.4406 51.072 18.8481 50.9738 18.8383 51.1678C18.4541 51.5743 18.2512 52.2393 17.681 52.3794C17.5857 52.6597 17.9251 52.6361 17.7671 52.9609C16.9958 53.3062 17.2272 54.3924 16.1951 54.3824C16.1865 54.6023 16.2792 54.7515 16.174 55.039C16.5833 55.2036 16.7472 55.0182 17.03 55.0013C17.5452 56.0589 19.0315 55.7261 19.3506 56.8262C19.37 56.6249 19.6825 56.842 19.8242 56.8153C19.7986 56.9315 19.6845 56.9213 19.6843 57.0737C20.0881 57.0855 20.4006 57.0838 20.6587 57.4342C20.9311 57.0211 21.0846 56.4385 21.6761 56.4812C21.1255 55.8008 22.243 54.6746 22.6558 54.6722C22.5047 54.3369 23.0409 54.0041 23.4253 54.0529C23.2946 53.229 24.1017 53.6055 24.6529 53.5144C24.8028 53.3467 24.8807 53.0761 25.1911 53.1373C25.1635 53.4924 24.8519 53.8071 25.218 53.5197ZM31.8562 52.8028C31.7374 52.752 31.7043 52.6416 31.5061 52.6464C31.3823 52.9464 31.7929 53.0654 31.8562 52.8028ZM16.1089 52.1965L16.2919 52.2288C16.3175 52.1127 16.4315 52.1228 16.4317 51.9704L16.2488 51.9382C16.2231 52.0543 16.1091 52.0441 16.1089 52.1965ZM15.3122 54.0377C15.4091 53.7028 15.334 53.4881 15.043 53.4243C14.7912 53.624 14.9233 54.0417 15.3122 54.0377ZM29.4394 56.3401C29.6849 56.5072 29.6831 55.8661 29.5793 56.0817C29.5537 56.1979 29.4397 56.1877 29.4394 56.3401ZM51.427 61.1608C51.6508 60.8107 51.0984 60.5971 50.9262 60.7894C51.242 60.8089 50.9988 61.22 51.427 61.1608ZM48.8751 61.1828C48.8285 60.9394 49.2989 60.6883 48.8805 60.6174C48.9047 60.7876 48.6749 61.1356 48.8751 61.1828ZM48.5842 61.2258C48.6124 61.5334 48.3931 61.4873 48.2452 61.5434C47.6651 61.2977 46.6989 61.2906 46.2045 60.8062C45.9449 60.8172 45.9811 61.2507 45.6663 61.1833C45.2934 60.7049 44.4237 61.039 44.1749 60.5427C44.0311 61.151 43.2299 60.4977 43.0767 60.3491C42.9398 60.383 43.0009 60.6989 42.8291 60.6831C42.4406 60.4592 41.9858 59.8486 41.5046 60.1662C41.6051 60.2298 41.695 60.3005 41.7468 60.3976C41.095 60.4803 40.3556 59.8802 39.8841 60.2581C39.8014 60.1553 39.9153 59.9155 39.658 59.9349C39.4246 59.9502 39.1012 60.0649 38.7858 60.0645C38.4693 60.0638 37.9982 59.8508 37.6876 59.8708C37.5932 59.8766 37.5761 60.034 37.3809 60.0054C36.7645 59.9144 36.0548 59.6978 35.8788 60.4955C35.7211 60.2598 35.5877 60.5652 35.3134 60.4902C35.2302 61.0585 34.8721 61.2351 34.2691 61.061C34.3574 62.1069 33.6441 62.6819 33.2087 63.3278C33.2782 63.6269 33.4997 63.8193 33.3221 64.2914C32.8001 64.537 32.7886 65.461 32.6493 65.9655C32.7497 66.0291 32.8396 66.0998 32.8917 66.1973C34.1337 66.0235 35.4815 67.0017 36.4181 66.5357C36.7014 66.6049 36.674 66.8914 37.0101 66.9234C37.279 66.8871 37.4015 66.6417 37.7154 66.6705C38.2572 67.0314 39.1788 66.6506 39.6969 67.2082C40.0185 67.2094 40.222 67.0418 40.5687 67.0789C40.7986 67.1053 40.9403 67.1932 40.9942 67.3426C41.954 67.0456 42.8145 68.0794 43.7991 68.0262C43.936 67.9922 43.8752 67.6764 44.0469 67.6922C44.8098 68.1117 45.9176 67.8068 46.3779 68.3862C46.4897 68.2786 46.6544 68.2467 46.7926 68.1764C47.0058 68.6067 47.3832 68.4336 47.7347 68.7201C47.8476 68.6518 47.8226 68.3875 48.0576 68.4941C48.9578 68.7683 49.4523 68.2709 50.5342 68.3644C50.9867 67.3683 52.2748 67.5659 52.8112 66.6896C53.3858 66.9266 53.6629 66.1377 54.394 65.742C54.4996 65.6849 54.6779 65.7802 54.7761 65.715C54.8993 65.6331 54.9075 65.3843 55.0398 65.2895C55.1293 65.2257 55.3276 65.3204 55.4222 65.2626C55.6314 65.1349 55.7653 64.8485 55.9926 64.7025C56.4347 64.4191 57.0106 64.3555 57.3117 64.1804C57.5173 64.0604 57.5325 63.8744 57.6669 63.771C58.0473 63.4787 58.3552 63.7198 58.722 63.6741C58.5269 62.8513 57.0251 63.4272 56.73 62.6622C56.564 62.6922 56.5307 62.9119 56.3907 62.9797C55.0374 62.828 54.1775 62.4604 52.6867 62.0436C52.4807 61.9783 52.5386 62.2902 52.3639 62.2696C51.8931 62.0913 51.5223 61.8431 51.3786 61.4356C50.872 62.1811 48.9783 61.939 48.5842 61.2258ZM38.8666 59.6067C38.8485 59.5271 38.643 59.4534 38.5921 59.5583C38.494 59.7598 38.9148 59.8193 38.8666 59.6067ZM63.2336 64.8469C63.5369 64.7355 63.2023 64.2581 63.0075 64.5241C63.1788 64.5645 63.0176 64.8377 63.2336 64.8469ZM58.4717 82.2208C58.9086 80.8058 59.0604 79.6922 59.5316 78.3497C59.689 78.1214 59.9253 78.1842 59.8114 77.833C59.8368 77.6816 59.5669 77.7366 59.5692 77.6016C59.7588 77.5288 59.8263 77.2808 60.0159 77.2084C59.8872 76.3424 60.1336 75.7166 60.2041 75.0709C60.1648 75.1666 60.0148 75.264 60.005 75.1301C60.7501 74.2293 60.0111 72.6242 60.8927 71.7006C60.4216 71.048 61.0762 70.1908 61.2477 69.6872C60.7936 69.3764 61.2344 68.5075 61.506 68.2227C61.1402 67.6368 61.3684 67.052 61.7965 66.5752C61.3831 66.0772 61.9856 65.284 61.6618 64.6641L61.204 64.5834C60.7635 64.9854 60.0579 65.0089 59.6376 65.4399C59.4833 65.5217 59.3881 65.505 59.2713 65.3753C59.1228 65.4681 59.1809 65.857 58.8409 65.6767C58.5445 65.8545 59.067 66.0317 59.0185 66.2744C58.9978 66.3769 58.7743 66.4271 58.7871 66.5166C58.8312 66.825 59.1427 67.0295 59.0996 67.421C59.0584 67.7934 58.8507 67.9066 58.6473 68.3793C59.0246 68.243 58.9351 68.5744 58.9329 68.9013C58.8665 69.1123 58.5848 69.0158 58.5774 69.3107C58.6092 70.7303 58.1127 72.1374 57.97 73.8276L57.6952 73.7792C57.7485 74.6141 57.3289 74.914 57.6633 75.5666C57.2976 76.7836 57.4283 78.4993 56.7269 79.2705C57.2768 80.4013 56.2582 81.7651 56.3561 82.9802C56.2305 82.9538 56.1475 82.988 56.0652 83.0232C55.9865 83.9735 55.6133 84.3271 55.6026 85.112L55.3281 85.0636C55.2097 85.3873 55.3037 85.5621 55.3981 85.7366C54.9519 85.7869 54.5692 85.928 54.5045 86.5227C54.159 86.3822 53.9119 86.6515 53.5408 86.6358C53.2557 86.6241 53.2642 86.4198 53.0239 86.356C53.0487 86.3626 52.9417 86.5218 52.9001 86.5228C52.7936 86.5262 52.5713 86.4565 52.5341 86.4583C51.775 86.4945 50.7591 86.8095 49.8315 86.2651C49.6546 86.3183 49.6493 86.6161 49.3253 86.4588C49.105 86.3725 49.0626 86.1616 48.8248 86.0876C48.7227 86.3843 48.3491 86.4799 48.0118 86.4162C46.8188 86.1908 46.0009 86.0523 45.2662 85.9321C45.0552 85.8657 45.1517 85.584 44.8568 85.5766C44.5544 85.7177 44.1967 85.7794 43.9363 85.9806C43.8569 85.7048 42.6982 85.8829 43.0694 85.5447C42.8406 85.5615 42.6287 85.6024 42.3211 85.5071C42.3771 85.2805 42.2312 85.1958 42.1112 85.0925C41.847 85.5294 41.4793 85.0872 40.9968 84.9903C41.1096 85.3407 40.8635 85.2639 40.6413 85.3996C40.3698 84.9613 39.7629 85.0605 39.1499 84.759C38.8692 85.2027 37.5894 84.9019 37.901 84.3501C37.5212 84.2276 37.6368 84.813 37.1957 84.6034C37.045 84.5752 37.1892 84.3401 37.0611 84.2963C36.0544 84.5866 35.2163 84.221 34.3908 83.9198C34.2565 84.1102 34.0546 84.2035 33.777 84.1892C33.5392 84.0347 33.2197 83.9376 33.3246 83.5431C32.6221 83.822 32.3889 83.2248 31.7258 82.9782C31.6133 82.4736 32.2066 82.9773 32.1725 82.585C30.9525 82.2341 32.155 81.2304 31.8706 80.5501C31.9735 80.4674 32.2133 80.581 32.1938 80.324C32.263 79.3146 31.5619 77.8716 32.4516 77.2551C32.5154 76.4093 32.7999 76.2862 32.6344 75.6833C32.8292 75.503 33.0756 75.3963 33.1299 75.0154C33.0602 74.8773 32.9141 74.7922 32.9196 74.6013C33.7139 73.4357 33.0841 71.6375 34.1305 70.9454C33.8499 70.7297 34.2157 70.4769 34.2004 70.0141C33.9821 70.0041 33.7717 70.1397 33.7588 69.8419C34.1844 69.3791 34.4686 68.6935 33.834 68.3451C33.3796 68.995 32.9385 68.354 32.2135 68.4367C32.3706 69.0599 32.0031 69.2149 32.0468 69.9173C31.5944 70.0952 31.592 70.7805 31.837 71.1073C31.3841 71.794 31.7386 72.3696 31.2559 72.7979C31.264 72.979 31.4884 73.0096 31.3582 73.2876C31.3254 73.3553 31.2629 73.3805 31.1591 73.3468C31.5548 73.9066 31.0932 74.603 30.9117 75.2849C30.8184 75.4193 30.4672 75.185 30.4973 75.4952C30.6428 75.6068 30.9483 75.6068 31.0139 75.775C30.9907 76.0471 30.7578 76.0195 30.7342 76.2916C30.8115 76.4516 30.998 76.5348 30.9282 76.7979C30.6738 77.2365 30.7005 78.0765 30.363 78.3969C30.5995 78.6295 30.2921 79.226 30.0778 79.4789C30.2001 80.0139 30.1126 81.0086 29.6905 81.6757C29.8833 82.6495 29.6282 83.5504 29.2494 84.7119C29.4788 84.8724 29.5497 85.1438 29.7018 85.3581C29.8151 85.2526 29.8484 85.0329 30.0408 85.0405C30.0362 85.1504 29.9795 85.2976 30.0839 85.3311C30.9895 84.8939 31.7414 85.6651 32.6035 85.4923C33.0761 85.9148 33.676 85.7321 34.1595 85.7667C34.5572 85.7948 35.344 85.9804 35.6079 86.1164C35.7362 86.1821 35.804 86.4382 35.9254 86.4554C36.0218 86.4692 36.2318 86.1738 36.4477 86.1702C36.9827 86.1606 37.5091 86.4273 37.7559 86.7782C37.9706 86.2937 38.6752 86.9602 39.1019 86.6382C39.823 87.3692 40.7767 86.637 41.3579 87.2246C41.7169 86.6626 42.3548 87.5939 42.9458 87.316C42.8352 87.5535 43.0954 87.5323 43.0642 87.7142C44.2463 87.2937 45.5048 87.8015 46.607 87.9615C46.6023 88.2572 46.3251 88.2972 46.6179 88.4348C46.802 88.2786 46.9384 88.053 47.2474 88.0745C47.3131 88.2423 47.6186 88.2423 47.7644 88.3543C48.209 87.8911 48.6659 88.4825 49.3362 88.5371C49.5266 88.2437 50.3047 88.4948 50.4347 88.7308C50.918 88.4852 51.7663 88.7657 52.0661 89.1128C52.5232 88.4676 52.9061 89.5657 53.471 89.1718C53.4087 89.3758 53.4328 89.5197 53.5898 89.5701C53.8908 89.3495 53.9822 89.3499 54.2194 89.2095C54.817 89.4759 55.1071 89.4651 55.6355 89.7422C55.8374 89.5086 56.2793 89.4902 56.583 89.7206C56.6525 89.5522 56.6858 89.3322 56.9223 89.4028C56.7914 88.6513 57.3405 87.859 57.1103 87.2652C57.942 86.3899 57.5418 84.8433 58.4879 83.7337C57.8303 83.3437 58.8341 82.6223 58.73 82.3607C58.6806 82.5827 58.4242 82.3267 58.4717 82.2208ZM34.7322 60.5764C34.7689 60.5248 35.0218 60.2642 34.7967 60.2104C34.7601 60.2617 34.5068 60.5225 34.7322 60.5764ZM62.4587 66.0316C62.5505 66.0475 62.5545 66.1249 62.6255 66.1554C62.6421 66.0101 62.6939 65.8402 62.491 65.8483L62.4587 66.0316ZM19.4369 59.0118L19.6199 59.044L19.6521 58.861L19.4691 58.8288L19.4369 59.0118ZM21.5095 59.5662L21.6925 59.5985L21.7247 59.4155L21.5418 59.3832L21.5095 59.5662ZM30.5981 64.7545C30.6627 64.6176 30.8997 64.7271 30.8456 64.4208C30.631 64.2838 30.3854 64.6579 30.5981 64.7545ZM62.7553 70.2363L62.9383 70.2686L62.9705 70.0856L62.7875 70.0533L62.7553 70.2363ZM113.255 79.8012C113.323 79.5665 113.291 79.4016 113.045 79.3868C112.977 79.6216 113.009 79.7864 113.255 79.8012ZM30.1458 65.7131C30.4482 65.7629 30.5418 65.5143 30.6089 65.2284C30.4927 65.2028 30.5026 65.0887 30.3505 65.0885C30.2516 65.2822 29.9946 65.4987 30.1458 65.7131ZM61.9909 71.8942C62.0675 71.6 61.9603 71.4348 61.7056 71.3723C61.3698 71.5883 61.7564 72.0778 61.9909 71.8942ZM106.79 80.0768L106.973 80.1091L107.005 79.9261L106.822 79.8938L106.79 80.0768ZM27.6319 66.5908C27.5634 66.5062 27.3606 66.6011 27.3413 66.6339C27.151 66.9562 27.785 66.7799 27.6319 66.5908ZM50.2439 71.6159C50.4179 71.3678 50.5416 71.0482 50.7554 70.8568C50.5546 70.6651 50.2835 71.0691 50.2384 70.577C50.2048 70.7199 49.9924 70.6074 50.0069 70.8195C50.6791 70.8456 49.7801 71.529 50.2439 71.6159ZM38.8679 69.2327C38.9165 69.6379 38.4943 69.9559 38.8142 70.0726C39.2127 69.916 39.3254 69.3516 39.7239 69.195C39.5823 69.05 39.1692 69.2512 38.8679 69.2327ZM45.7915 70.6422C45.8891 71.0294 46.3375 70.8065 46.6906 70.8951C46.6684 70.6967 46.9505 70.2854 46.6044 70.3139C46.3318 70.6168 45.9702 70.4222 45.7915 70.6422ZM57.7973 72.6648L57.9803 72.6971L58.0126 72.5141L57.8296 72.4818L57.7973 72.6648ZM37.8566 74.4335C38.0043 74.5439 37.9077 74.8256 38.2656 74.7886C38.1109 74.1176 38.8837 74.2696 39.1754 73.911C38.9088 73.6849 38.252 73.9689 38.2171 73.459C38.6474 72.9275 38.6672 71.8105 39.455 71.7899C39.3458 71.2031 39.1347 71.2152 39.2827 70.6272C38.8619 70.681 38.9901 70.3507 38.7819 70.2556C38.4982 71.5278 38.3078 73.1208 37.8566 74.4335ZM56.0693 74.4362C56.3126 74.618 56.4084 74.0743 56.1177 74.1617L56.0693 74.4362ZM96.5828 83.3728C96.5908 83.2487 96.9505 83.0866 96.7388 83.023C96.5355 83.3786 96.25 83.5714 95.9097 83.4431C96.1138 83.9793 95.3514 84.4 95.8668 84.7566C95.546 85.0164 95.5426 85.5885 95.657 85.9462C95.3996 86.0372 95.2718 86.3128 95.1619 86.614C95.5787 87.0032 95.1667 87.855 94.8553 88.3529C94.9559 88.5231 95.0634 88.6884 95.1406 88.8749C94.3581 89.4493 95.0411 90.3709 94.4734 91.5886C94.3815 91.5728 94.3776 91.495 94.3066 91.4649C94.1883 92.1644 94.4408 93.2514 93.6445 93.6128C93.9951 93.528 93.6451 93.9335 93.8708 93.9361C94.0117 93.6702 94.1003 94.0814 94.113 94.1674C93.6676 95.1741 93.8398 96.5101 93.0904 97.2902C93.3105 97.962 92.622 98.8931 93.0693 99.5515C92.6419 99.5133 92.6186 100.053 92.5256 100.493C93.3217 101.27 92.1204 102.095 92.4723 102.938C91.9008 103.485 92.1839 104.442 91.7025 105.161C92.196 105.48 91.9161 106.554 91.4282 106.717C91.8617 107.281 91.2394 108.532 91.4502 109.269C91.307 109.561 91.0043 109.625 90.788 109.813C90.842 110.016 91.0389 110.118 91.1812 110.26C91.0954 110.863 90.9539 111.387 90.5729 111.568C91.032 111.708 90.7089 112.745 90.3146 113.032C90.4096 113.367 90.5467 113.673 90.5034 114.104C89.9122 114.25 90.2026 115.155 90.3529 115.492C90.1504 115.616 90.0045 116.198 89.7982 115.961C89.938 116.291 89.525 117.009 89.9709 117.124C89.6768 118.12 89.2059 118.852 89.6104 119.703C89.184 120.374 89.5538 121.547 88.8085 122.109C89.2453 122.436 88.7527 122.922 89.0726 123.288C88.8596 123.481 88.652 123.681 88.6367 124.155C89 124.522 88.5327 125.007 88.5938 125.469C88.6158 125.633 88.7782 125.664 88.8201 125.792C88.9915 126.314 88.5974 126.918 88.6211 127.455C88.6975 127.719 89.0817 127.642 88.8149 127.962C89.0086 128.273 89.5182 127.623 89.4234 128.257C89.7301 128.199 89.8633 127.893 90.2363 127.929C90.3757 128.232 90.8473 128.303 91.1785 128.472C91.5982 128.059 92.155 128.457 92.6318 128.257C93.0048 128.1 93.148 127.543 93.4771 127.745C92.9726 127.595 93.2405 126.8 93.5038 126.523C93.4259 126.418 93.3506 126.31 93.2778 126.2C93.6846 125.963 93.1847 124.878 93.8105 124.784C93.5311 124.414 94.2243 123.857 93.9449 123.487C93.9056 123.582 93.7556 123.68 93.7458 123.546C93.9093 122.874 93.8325 122.542 94.2623 122.222C94.456 121.899 94.0416 122.002 94.1601 121.732C94.8317 120.336 94.1266 119.254 94.8056 118.071C94.5282 116.312 95.6568 115 95.3969 113.645C95.6043 113.712 95.7512 113.692 95.8709 113.634C95.9118 113.195 95.5626 113.206 95.4022 113.08C96.2137 110.303 96.2516 108.501 97.0435 105.914C97.0125 105.695 96.73 105.652 96.7579 105.392C97.2245 105.158 96.9422 104.488 97.4093 104.374C97.3249 104.22 97.0887 104.171 97 104.019C97.0566 103.642 97.4305 103.718 97.42 103.244C97.4284 103.051 97.0183 103.151 97.1021 102.905C97.2869 102.27 97.6989 101.811 97.3765 101.349C98.1736 100.753 97.5576 99.1605 98.2161 98.194C98.1106 98.1606 97.9535 98.1637 97.9574 98.054C98.5929 97.1139 97.9956 95.8885 98.8402 95.1896C98.8933 94.9118 98.7097 94.7996 98.6622 94.5919C99.0896 93.8571 98.7626 92.6905 99.5718 92.1103C99.4726 91.9121 99.347 91.7328 99.1948 91.5718C99.2917 91.235 99.347 90.9922 99.6309 90.705C99.5629 90.5923 99.2983 90.6172 99.4045 90.3821C99.7076 89.8698 99.6582 89.1183 99.7596 88.3683C100.388 87.6539 100.296 86.9358 100.852 85.9186C100.644 85.7571 100.555 86.3058 100.47 85.9459C100.409 85.6297 100.778 85.9281 100.718 85.6119C100.207 85.2462 100.824 84.342 100.981 83.582C101.102 82.9982 101.176 82.7154 101.39 82.3331C101.016 82.3283 101.065 82.0261 100.69 82.021C100.381 82.5254 99.6331 82.2675 99.1127 82.4035C98.9469 82.4468 98.8488 82.6281 98.6822 82.705C98.5795 82.7523 98.4148 82.6745 98.3001 82.7319C98.1775 82.7937 98.2538 82.9509 98.0687 82.9744C97.7044 83.0206 97.3055 82.7641 96.9701 82.7807C97.1585 82.983 96.8232 83.4033 96.5828 83.3728ZM55.698 74.937C55.9343 75.0072 56.0206 74.8633 56.037 74.6194C55.8007 74.5492 55.7147 74.6932 55.698 74.937ZM44.0639 74.018L44.0316 74.2009C44.1234 74.2171 44.1274 74.2945 44.1984 74.325C44.2351 74.2734 44.4884 74.0126 44.263 73.9587C44.2302 74.0267 44.1677 74.0517 44.0639 74.018ZM55.3591 76.8593C55.3753 76.7672 55.4524 76.7631 55.4829 76.6921C55.2982 76.6878 55.3233 76.5363 55.2407 76.4607C55.2248 76.5526 55.1474 76.5563 55.1169 76.6276C55.3016 76.6319 55.2765 76.7831 55.3591 76.8593ZM60.7428 77.9029L60.9258 77.9352L60.9581 77.7519L60.7751 77.7196L60.7428 77.9029ZM54.9555 77.5428C54.9335 77.3711 54.9756 77.1542 54.8533 77.0528C54.6901 77.1594 54.6798 77.5144 54.9555 77.5428ZM44.3385 75.6707L44.5215 75.703L44.5537 75.52L44.3707 75.4877L44.3385 75.6707ZM93.5947 84.2616C93.5309 84.1701 93.3221 84.2822 93.3044 84.3047C93.1892 84.45 93.647 84.336 93.5947 84.2616ZM30.5452 73.6163C30.6487 73.8922 30.8764 73.536 30.6693 73.4492C30.6535 73.541 30.5757 73.5453 30.5452 73.6163ZM54.9287 78.7648C54.991 78.5608 54.9673 78.417 54.8103 78.3665C54.8025 78.5323 54.637 78.8086 54.9287 78.7648ZM30.761 75.0697C30.8376 75.0135 31.068 74.6621 30.7341 74.6873C30.7254 74.8272 30.6418 75.0195 30.761 75.0697ZM34.2819 75.9738L34.4649 76.0061L34.4972 75.8228L34.3142 75.7905L34.2819 75.9738ZM54.8427 79.7879C54.7298 79.6528 54.7845 79.4006 54.5413 79.3571C54.3753 79.6413 54.7701 79.9356 54.8427 79.7879ZM60.8402 80.5621C60.4475 80.2307 60.5657 80.8234 60.8402 80.5621V80.5621ZM37.7868 76.9692L37.9698 77.0015L38.002 76.8185L37.819 76.7862L37.7868 76.9692ZM54.832 80.9184C54.9293 80.7212 55.2042 80.1924 54.8857 80.0785C54.739 80.2047 54.546 80.85 54.832 80.9184ZM60.3771 81.0468C60.1873 81.5611 60.7671 81.155 60.3771 81.0468V81.0468ZM54.1482 80.5145C54.2782 80.3959 54.5373 80.1859 54.2289 80.0567C54.1665 80.1032 53.9382 80.4534 54.1482 80.5145ZM40.8019 78.0668C40.9125 78.2349 41.1928 78.241 41.2002 77.9484C40.9962 77.8861 40.8523 77.9102 40.8019 78.0668ZM34.078 78.2023C34.0187 77.7744 34.4298 78.0179 34.4492 77.7017C34.3331 77.6761 34.3433 77.5621 34.1909 77.5618C34.1033 77.7581 33.7752 78.1104 34.078 78.2023ZM34.8744 77.9657C34.9213 77.8453 34.8808 77.5981 34.8152 77.7662C34.7684 77.8863 34.8088 78.1335 34.8744 77.9657ZM41.5719 79.0523L41.7548 79.0845L41.7872 78.9012L41.6042 78.869L41.5719 79.0523ZM53.9868 81.43C54.1529 81.4375 54.4292 81.603 54.3853 81.3116L54.019 81.247L53.9868 81.43ZM47.8335 81.0054C48.1121 81.0542 48.3066 80.5353 47.9143 80.5476L47.8335 81.0054ZM34.4602 79.7797C34.8573 79.7769 35.1389 78.9059 34.8529 78.6222C34.813 78.965 34.3817 79.2678 34.4602 79.7797ZM38.6864 80.4308C38.949 80.6122 39.0921 79.8006 38.7833 79.8816C38.8182 80.164 38.8159 80.1771 38.6864 80.4308ZM38.3959 80.4736C38.4131 80.3012 38.3894 80.1574 38.2771 80.0753C38.0794 80.2067 38.2508 80.363 38.3959 80.4736ZM34.1051 81.7934C34.5569 82.0188 34.4715 81.4768 34.8104 81.5401C34.7023 81.0269 34.8259 80.4968 34.3041 80.1298C33.7216 80.5328 34.6448 81.1583 34.1051 81.7934ZM48.0328 82.5505C47.6704 82.4982 47.3893 82.4801 47.2844 82.5129C47.4773 82.6708 47.955 83.2116 48.0328 82.5505ZM73.1539 88.8674C73.3972 89.0493 73.493 88.5056 73.2023 88.593L73.1539 88.8674ZM27.4083 85.5197C27.4416 85.3381 27.6787 85.4473 27.6558 85.1859L27.3814 85.1375C27.3728 85.2772 27.2892 85.4694 27.4083 85.5197ZM27.6454 86.3168C27.8693 85.9664 27.3171 85.7529 27.1446 85.9452C27.3591 86.0356 27.2773 86.3337 27.6454 86.3168ZM42.8221 89.0872C42.9523 88.968 43.2116 88.7583 42.9029 88.6294C42.8404 88.6759 42.6122 89.0258 42.8221 89.0872ZM60.6695 92.2341L60.8525 92.2664L60.8848 92.0831L60.7018 92.0509L60.6695 92.2341ZM27.4571 86.8496C27.6137 86.8824 27.7042 86.8207 27.7639 86.7147C27.6186 86.6984 27.4487 86.6466 27.4571 86.8496ZM97.3396 108.515C97.5966 108.704 97.7267 107.966 97.4204 108.057L97.3396 108.515ZM90.8205 108.025L91.0035 108.058L91.0357 107.875L90.8527 107.842L90.8205 108.025ZM89.9059 112.677C89.7345 113.218 90.3144 112.812 89.9059 112.677V112.677ZM99.264 123.292C99.5073 123.474 99.6031 122.93 99.3124 123.018L99.264 123.292ZM85.9462 132.457C86.1707 132.455 86.1866 132.2 86.4362 132.355C86.7557 132.372 86.6627 132.677 86.8288 132.802C86.9234 132.631 87.1446 132.641 87.2596 132.5C87.1979 132.757 87.8782 132.495 87.669 132.855C88.4938 132.69 90.1397 133.072 90.4416 133.722C90.9751 133.584 91.3282 133.821 91.6205 133.457C92.4177 133.928 92.8462 133.816 93.5858 134.087C94.0091 133.945 94.4236 133.649 94.9315 133.947C95.3376 133.695 95.7741 133.513 96.2181 133.608C96.2582 133.393 96.1081 133.311 96.2234 133.042C96.9739 133.083 96.9187 131.973 97.7901 132.186C98.1234 131.326 98.7185 130.839 99.5612 130.706C99.904 130.05 100.434 129.662 101.176 129.575C101.613 129.129 101.968 128.566 102.608 128.412C102.616 128.593 102.572 128.812 102.818 128.826C102.972 128.257 103.254 127.473 103.76 127.765C104.011 127.208 104.67 127.232 104.901 126.645C104.353 126.19 103.58 126.212 102.86 125.908C102.603 125.8 102.393 125.43 102.118 125.306C101.958 125.233 101.808 125.359 101.644 125.316C101.357 125.242 101.013 124.855 100.702 124.773C100.522 124.725 100.4 124.879 100.228 124.784C99.9522 124.308 98.8677 124.399 98.5856 123.928C98.0531 123.954 97.6916 123.801 97.4444 123.443C97.0509 123.669 96.4628 123.167 96.147 123.309C96.0292 124.219 96.0927 124.796 95.6087 125.29C95.5367 126.155 95.6652 126.509 95.3454 127.32C95.4502 127.353 95.608 127.35 95.6034 127.46C95.258 128.149 95.6164 128.87 95.1895 129.274C94.9515 129.499 94.5107 129.311 94.0103 129.538C93.8228 130.463 92.4853 130.677 91.8194 130.19C91.8237 130.54 91.4579 130.362 91.297 130.475C91.3132 130.303 90.9972 130.365 90.9634 130.228C90.2923 130.84 89.5129 129.54 88.7344 130.023C88.621 129.862 88.5094 129.7 88.4491 129.501C87.5097 129.926 86.9773 129.032 86.5647 128.414C86.6487 128.236 86.8718 128.283 86.7208 128.064C86.4018 128.073 86.454 127.823 86.3115 127.709C86.6662 127.045 86.4985 126.331 86.7741 125.62C86.1117 125.522 86.4688 124.711 86.3596 124.226C86.304 124.55 85.895 124.302 85.6543 124.479C85.4457 124.632 85.5816 125.015 85.2396 124.689C85.0388 125.242 84.6226 125.487 83.9046 125.303C83.46 125.737 83.2646 126.527 82.3975 126.358C82.1395 127.576 80.8291 126.664 80.4757 127.624L80.2009 127.575C79.3061 128.552 78.8322 128.439 77.8055 128.851C77.6198 129.106 77.7726 129.212 77.6169 129.384C76.9255 129.275 76.7407 129.889 76.3412 130.197C76.5751 130.276 76.631 130.397 76.9338 130.585C77.9743 129.932 78.8754 131.056 80.0024 130.843C80.3804 131.27 81.3488 131.64 81.9081 131.274C82.7205 131.669 83.5551 131.778 84.374 132.274C84.6702 131.745 85.3584 132.462 85.9462 132.457ZM84.6808 132.14L84.6485 132.323L84.8318 132.355C84.8409 132.242 84.8427 132.133 84.6808 132.14ZM104.983 134.21C105.247 133.79 105.945 134.063 106.27 133.87C106.434 133.772 106.454 133.407 106.609 133.553C106.617 133.285 106.996 133.27 107.088 132.976C107.285 132.345 106.525 131.916 106.797 131.415C106.177 131.319 106.531 130.664 106.517 130.328C106.023 130.245 105.962 129.861 106.129 129.316C105.96 128.949 105.577 128.992 105.262 128.88C105.125 129.255 105.024 129.341 104.648 129.149C104.67 129.83 104.105 129.671 103.771 129.843C103.704 130.053 103.566 130.162 103.566 130.468C102.867 130.708 102.341 131.622 101.526 131.335C101.289 131.759 100.868 131.922 100.751 132.52C100.516 132.566 100.444 132.845 100.062 132.681C99.8657 132.957 99.855 133.061 99.7659 133.29C98.9389 133.178 98.9853 134.314 98.108 134.13L97.9951 134.77C97.3436 134.909 97.0356 135.539 96.1862 135.395C96.2437 136.318 95.4517 136.027 95.0774 136.332C95.1052 137.362 94.9281 138.147 94.3991 138.572C94.5691 138.774 94.8128 138.924 94.8516 139.218C95.262 139.248 95.2555 139.119 95.5246 139.148C95.518 139.419 95.6439 139.599 95.9013 139.686C95.9357 139.582 96.0639 139.612 96.1922 139.643C96.2272 139.485 96.2219 139.355 96.1653 139.261C96.5454 139.433 96.6317 138.878 97.0102 138.749L97.3765 138.814C97.8922 138.182 98.4012 137.865 99.2337 137.915C99.2424 137.694 99.1496 137.545 99.2549 137.258C99.8018 137.237 100.058 136.801 100.423 136.52L100.789 136.585C101.134 135.663 102.434 136.107 102.894 135.351C103.101 135.301 103.361 135.444 103.659 135.297C103.851 135.265 103.726 134.782 103.939 134.78C104.165 134.615 104.192 134.872 104.488 134.877C104.65 134.65 104.952 134.624 104.983 134.21ZM100.982 130.673C101.059 130.379 100.951 130.213 100.697 130.151C100.716 130.378 100.745 130.599 100.982 130.673ZM100.134 144.585C100.305 144.625 100.144 144.898 100.36 144.908C100.498 144.693 100.259 144.352 100.134 144.585ZM109.268 135.06C109.304 134.901 109.298 134.771 109.241 134.677C108.96 134.582 108.889 134.785 108.585 134.656L108.536 134.93C107.758 135.233 107.208 135.86 106.432 136.164C106.118 135.835 105.629 136.236 105.511 136.568C104.872 136.398 104.278 137.238 103.503 137.251C103.318 137.406 103.491 137.369 103.438 137.618C103.218 137.761 102.89 137.751 102.642 137.855C102.54 138.473 101.95 138.395 101.49 138.501C101.382 138.767 101.253 139.004 100.935 138.969C100.944 138.83 101.027 138.637 100.908 138.587C100.727 139.016 100.184 138.928 100.165 139.589C99.7616 139.508 99.5076 139.642 99.5033 140.132C99.1168 140.29 99.0408 140.179 98.5555 140.154C98.3629 140.473 98.1808 140.55 98.012 141.096C97.2752 141.128 97.1376 141.353 96.2838 141.263C96.1891 141.784 96.4472 142.059 96.5477 142.442C96.1985 142.892 96.3338 143.428 96.688 143.788C96.3835 144.394 96.5748 144.92 96.2899 145.511C96.7238 145.838 97.016 145.273 97.4957 145.63C97.9253 144.997 98.6104 145.427 99.197 145.08C99.2236 144.851 99.2585 144.633 99.4606 144.655C99.5767 144.68 99.5666 144.794 99.7193 144.795C100.165 144.362 100.64 143.971 101.452 144.062C101.535 144.165 101.422 144.405 101.679 144.385C101.829 144.217 101.907 143.947 102.217 144.008C102.339 143.763 102.13 143.748 102.206 143.534C102.765 143.612 103.383 143.188 103.703 143.61C103.649 143.236 103.792 143.189 103.757 142.77C104.149 142.872 104.306 142.638 104.629 142.641C104.596 142.797 104.658 142.888 104.763 142.947C105.479 142.792 105.702 141.428 106.561 141.849C106.416 141.355 107.029 141.312 107.573 141.461C107.79 141.307 107.565 141.274 107.547 141.079C107.66 141.088 107.768 141.09 107.762 140.928C108.883 141.115 109.084 139.99 110.168 140.125C110.255 139.868 110.435 139.742 110.706 139.749C111.065 139.712 110.791 140.117 111.116 140.104C111.09 139.57 111.481 139.633 111.778 139.56L111.875 139.011C112.104 138.994 112.315 138.953 112.623 139.048C112.521 138.699 112.826 138.485 113.269 138.596C113.395 138.224 112.991 138.174 113.366 138.047C113.046 137.935 112.908 137.941 112.467 137.794C112.327 137.481 112.396 137.486 112.305 137.105C111.712 136.905 111.261 136.606 110.846 136.281C110.872 136.165 110.985 136.175 110.986 136.023C110.452 135.501 109.717 135.614 109.268 135.06ZM112.256 135.775C112.5 135.957 112.596 135.413 112.305 135.501L112.256 135.775ZM111.885 136.276C112.121 136.346 112.208 136.202 112.224 135.958C111.988 135.888 111.901 136.032 111.885 136.276ZM96.2397 134.555C96.3638 134.228 95.9594 134.271 95.8471 134.109C95.7946 134.396 96.0171 134.702 96.2397 134.555ZM96.0352 135.18L96.2185 135.212C96.2344 135.12 96.3118 135.116 96.3423 135.045C96.2262 135.019 96.2363 134.906 96.0836 134.905L96.0352 135.18ZM83.3725 133.136C83.4646 133.152 83.4686 133.229 83.5396 133.26C83.5563 133.114 83.6077 132.944 83.4047 132.953L83.3725 133.136ZM83.0123 134.11C82.5764 133.747 82.0789 134.041 81.6393 133.868C81.387 133.769 81.2543 133.459 80.9719 133.373C80.6014 133.261 80.1254 133.474 79.7496 133.346C79.5867 133.291 79.52 133.044 79.3406 132.991C79.326 132.987 79.1755 133.158 79.0335 133.126C78.7078 133.053 78.5526 132.682 78.1667 132.69C77.7167 133.1 77.1812 132.528 76.6703 132.615C76.6883 132.15 76.1599 131.901 75.8785 132.286C75.0737 132.128 74.8022 132.019 73.8651 131.931C73.6869 133.198 73.8394 134.177 73.1173 135.102C73.3342 135.419 73.3434 135.41 73.2464 135.975C73.5336 136.281 74.4245 136.842 74.9531 136.464C75.0093 136.639 75.2036 136.716 75.4701 136.744C75.939 136.396 76.5202 136.816 77.1015 137.126C77.2763 136.994 77.4905 136.918 77.7149 136.857C78.4926 137.285 79.7883 137.028 80.4879 137.723C80.6662 137.745 80.3925 137.338 80.7354 137.39C81.2413 137.543 81.8895 137.598 81.9362 138.073C82.0921 137.799 82.5505 137.958 82.6735 137.637C83.108 138.046 83.7835 137.805 83.9655 138.336L84.0139 138.062C84.6583 138.436 85.5327 138.303 86.3775 138.573C86.5233 138.59 86.4902 138.352 86.6845 138.439C87.0174 138.607 87.1243 138.933 87.4111 139.133C88.5056 138.55 89.526 139.107 90.6791 139.332C90.7135 139.189 90.7229 139.012 90.9105 139.089C91.3125 139.263 91.3374 139.7 91.928 139.74C92.3908 138.727 92.9705 137.377 93.0313 136.16C92.3241 135.878 91.2423 136.239 90.9907 135.423C90.5574 135.407 89.8838 135.447 89.2789 135.499C88.8986 135.117 88.4538 135.063 87.9221 135.165C87.6735 134.815 87.5141 134.876 87.0714 134.637C86.5639 135.159 85.936 134.522 85.6395 134.196C85.5425 134.475 85.7892 134.608 85.4674 134.638C84.4252 134.364 83.7996 133.549 83.0123 134.11ZM103.967 143.185C104.21 143.366 104.306 142.822 104.015 142.91L103.967 143.185ZM89.2851 141.35C88.7768 141.298 88.5582 140.929 88.02 141.033C88.0854 140.824 88.285 140.673 88.0092 140.559C87.8025 140.687 87.126 141.226 86.9538 140.656C86.4071 140.885 85.7881 140.203 85.1664 140.624C84.6826 140.362 84.456 140.417 84.1328 140.065C83.8429 140.147 83.6222 140.329 83.2445 140.285C83.4053 139.772 82.4673 140.027 82.4099 139.666C82.3305 139.821 82.2959 140.038 82.146 140.092C81.5452 139.737 81.069 139.968 80.8378 139.484C80.1218 139.767 79.3145 139.648 78.8086 139.22C77.3655 139.063 75.7348 139.21 74.5066 138.462C73.9654 138.572 73.1565 138.219 72.5093 138.015C72.0446 138.383 71.6382 138.834 70.792 138.656C70.9571 139.206 70.1162 139.438 69.7476 139.227C69.6174 139.505 69.8418 139.535 69.8499 139.717C69.2123 139.952 68.5391 140.136 67.9334 140.417C68.0694 140.952 67.6927 140.843 67.5134 141.192C67.8967 141.076 68.3718 141.126 68.612 141.386C68.6752 141.285 68.7462 141.196 68.8437 141.143C69.0535 141.371 69.4552 141.464 69.694 141.671C70.2486 141.443 70.7619 141.465 71.067 141.913C71.2883 141.631 71.9194 141.865 72.0737 142.091C72.107 141.985 72.1039 141.828 72.2136 141.832C73.0623 141.663 74.1593 142.573 75.11 142.531C74.9904 142.509 75.0384 142.257 75.1584 142.257C75.5286 142.53 75.6647 142.527 76.1009 142.801C76.1406 142.667 76.1275 142.457 76.2569 142.451C76.7 142.697 77.2364 142.87 77.7161 143.274C77.9575 143.175 77.8755 142.905 77.9798 142.849C78.5059 142.999 79.4898 142.923 79.5465 143.597C79.8954 143.523 80.2854 143.288 80.677 143.608C80.8139 143.574 80.7529 143.257 80.9249 143.274C81.1917 143.434 81.4224 143.62 81.6837 143.785C81.9167 143.65 82.6435 143.552 82.7069 143.871C83.0946 143.707 83.5058 143.826 83.6971 144.14C83.9609 143.845 84.9294 143.883 84.9625 144.458C85.2985 144.517 85.3697 144.199 85.5925 144.097C86.1317 144.298 87.6114 145.05 88.1387 144.64C88.3106 144.76 88.468 144.891 88.6395 145.012C88.8705 144.663 89.5735 145.085 89.7216 145.297C90.2115 145.232 90.4444 144.828 90.992 145.049C91.1409 145.109 91.2076 145.364 91.4014 145.404C91.6992 145.466 92.0339 145.284 92.3492 145.382C92.4884 145.426 92.3819 145.621 92.5911 145.614C93.0008 145.35 93.2384 145.691 93.4904 145.867C93.5301 145.733 93.517 145.523 93.6465 145.517C93.7 145.667 93.9178 145.701 94.0717 145.78C94.3499 145.122 93.75 144.207 94.4267 143.767C94.1339 143.561 94.574 143.307 94.2655 143.078C94.1916 143.202 94.2889 143.57 94.093 143.52C94.249 143.25 93.9884 143.272 93.9746 143.121C94.0446 142.954 94.2125 142.926 94.2383 142.696C94.0044 142.191 93.4787 141.89 93.2419 141.388C92.8822 141.408 92.7228 141.715 92.3378 141.7C92.2489 141.469 92.6343 141.398 92.4023 141.334C91.4049 141.919 90.2495 140.754 89.2851 141.35ZM66.9697 138.926L67.1527 138.958L67.185 138.775L67.002 138.742L66.9697 138.926ZM94.3142 146.012C94.1431 146.553 94.7229 146.147 94.3142 146.012V146.012ZM80.0147 144.152L80.0793 143.785C79.783 143.713 79.6423 144.151 80.0147 144.152ZM94.6425 146.825L94.7071 146.459L94.4326 146.41C94.4404 146.592 94.3964 146.81 94.6425 146.825ZM84.8119 145.846L84.9949 145.879C85.1769 145.678 84.7315 145.555 84.7366 145.739C84.7917 145.754 84.8425 145.772 84.8119 145.846ZM67.7883 142.845C67.6172 143.386 68.1974 142.98 67.7883 142.845V142.845Z" fill="black"/>
<path fill-rule="evenodd" clip-rule="evenodd" d="M108.509 54.8053C108.057 54.7397 108.213 54.1245 107.75 54.2941C107.47 53.8215 107.302 53.2703 107.077 52.7597C107.056 52.1195 107.441 52.0585 107.561 51.6185C107.668 51.3834 107.403 51.4083 107.335 51.2953C107.966 50.6072 107.462 49.9278 107.997 49.1473C107.522 48.4395 108.267 47.6102 108.126 46.8106C108.624 46.4606 108.527 45.7855 108.185 45.4057C108.211 45.1754 108.378 45.1475 108.448 44.9802C108.182 43.8707 107.88 42.2539 109.272 41.917C109.257 42.3951 109.67 42.104 110.047 42.3367C109.73 42.599 110.312 42.7451 110.516 42.891C110.465 43.7025 110.459 43.8972 110.284 44.7376C110.778 45.579 110.419 46.9372 110.01 47.8979C110.119 48.5434 110.33 49.524 109.731 50.0193C109.897 51.6916 109.147 53.0471 109.155 54.3529C109.027 54.3092 109.171 54.0743 109.021 54.0462C108.512 54.4988 109.027 54.3659 108.509 54.8053Z" fill="black"/>
<path fill-rule="evenodd" clip-rule="evenodd" d="M86.2959 51.2662C86.3361 51.0911 86.6253 51.4873 86.6941 51.1478C86.6696 50.8008 86.4339 51.0441 86.161 50.9594C86.263 50.4172 86.703 50.3584 86.6779 49.6349C86.6617 49.4918 86.5542 49.6503 86.4031 49.5864C86.527 48.9364 86.6216 48.4544 86.9092 47.7883C86.9671 47.6541 86.962 47.607 87.1244 47.6376C87.1127 47.3525 86.9133 47.6902 86.7581 47.573C86.924 46.9143 86.8406 45.5895 87.4364 45.3332C86.9304 44.7925 87.5897 43.7341 87.0269 43.3737C87.014 42.7062 87.379 42.5778 87.4523 42.033C87.6609 41.8343 88.1322 42.0111 88.1142 41.489C88.2742 41.7338 88.7615 42.0216 88.6796 41.4944C89.1005 41.5365 89.1511 41.8374 88.9487 42.1082C89.1021 42.365 89.3697 42.099 89.4815 42.2965C89.1881 43.0581 89.1342 43.3348 89.2828 43.9601C89.0909 43.9914 88.9958 44.1611 88.9274 44.3691C89.0699 44.4835 89.0177 44.7338 89.3367 44.7246C88.9584 45.3417 89.0541 45.9891 89.3207 46.4205C89.2357 47.0938 88.9224 47.6601 88.9065 48.2348C88.9352 48.5431 88.5825 48.307 88.5674 48.5524C88.5608 48.7174 88.6881 48.789 88.9011 48.7999C88.6817 49.9369 88.5752 51.5109 88.0081 52.7948C87.9429 53.0009 88.2546 52.9432 88.2345 53.1177C87.892 54.6357 87.539 55.4895 87.1742 56.9888C87.1537 57.1636 87.4658 57.1057 87.4003 57.3117C87.2363 57.9942 86.6574 58.0839 86.3345 58.5394C86.0431 58.583 86.2083 58.307 86.2163 58.1413C85.9098 58.3147 85.7058 58.6343 85.204 58.5288C85.6247 58.1297 84.9442 57.6802 84.8809 57.1508C85.3583 56.5948 84.8074 55.8062 85.5374 55.5679C85.6437 55.2523 85.2529 55.2854 85.3595 54.9701C85.463 54.9271 85.4915 54.7765 85.6665 54.8356C85.4039 54.3234 85.6557 54.0216 85.984 53.5703C86.1179 53.2894 85.7079 53.389 85.6661 53.2312C85.9476 52.7264 86.1182 51.7281 86.2959 51.2662ZM85.8012 56.7467C85.6111 57.2609 86.1913 56.8547 85.8012 56.7467V56.7467Z" fill="black"/>
<path fill-rule="evenodd" clip-rule="evenodd" d="M96.9757 41.5419C96.5816 41.9608 97.266 41.9358 97.4281 42.188C97.369 42.6762 97.2624 43.097 97.0353 43.3454C97.9271 44.2387 96.1433 45.1201 96.9498 45.9727C96.9402 46.1886 96.667 46.0278 96.6265 46.199C96.8633 46.4924 96.484 46.7216 96.7722 46.9794C96.3711 48.4646 96.5325 49.8455 95.8466 51.1573C95.8263 51.3321 96.1379 51.2741 96.0727 51.4801C95.9283 51.7037 95.943 52.1497 95.8201 52.3796C95.7854 52.4431 95.5071 52.5327 95.513 52.5141C95.3112 53.1475 95.5132 53.8413 95.3571 54.4683C95.2926 54.7265 94.9675 54.8328 95.1365 55.1844C95.1178 55.3868 95.0102 55.4622 94.8136 55.4105C94.656 55.7347 95.131 55.6157 95.0074 55.9167C94.7883 56.0237 94.553 56.108 94.3021 56.1697C94.2858 56.5223 94.2602 56.5617 94.356 56.9342C93.919 56.7609 93.6901 56.7981 92.9671 56.7836C92.962 56.5854 93.0724 56.5522 93.1232 56.4338C92.7023 56.4876 92.8302 56.1572 92.6224 56.0621C92.8324 54.7692 93.3659 53.1646 93.58 51.7013C93.9128 51.5751 94.2772 50.5545 93.822 50.3286C94.1546 49.98 94.0506 49.809 94.0914 49.3378C94.1173 49.0343 94.4442 48.8108 94.2204 48.6058C94.2434 48.221 94.4511 48.7373 94.5434 48.3794C94.5595 48.2077 94.2433 48.2688 94.2094 48.1319C94.4483 47.6917 94.2759 46.6265 94.8069 46.3499C94.4003 45.6894 95.2497 44.6811 94.8118 44.1803C94.981 43.925 95.0035 43.4608 95.1726 43.2057C95.1028 42.9068 95.1094 42.5547 95.0592 42.242C95.1186 41.9069 95.5302 42.0747 95.4631 41.5582C95.8844 41.4348 96.4077 41.4565 96.9757 41.5419Z" fill="black"/>
<path fill-rule="evenodd" clip-rule="evenodd" d="M78.1596 42.2817C78.8037 42.2827 78.726 42.758 79.2256 42.6583C79.4448 43.0015 79.017 43.2989 79.57 43.3797C79.634 44.4743 79.8605 45.5737 79.5867 46.4971C79.5215 46.7031 79.833 46.6451 79.8128 46.8199C79.7202 47.6324 79.8768 48.6117 79.4524 49.3987C79.4241 49.7397 79.7498 49.8321 79.5816 50.2709C79.567 50.5173 79.3492 50.4734 79.1673 50.4808C79.317 50.7508 79.181 51.2203 79.4798 51.3853C79.0764 52.3643 78.7388 53.0926 79.3185 53.9049C78.8489 54.7048 79.0146 55.4065 78.5487 56.1285C78.5419 56.3474 78.5732 56.5393 78.7429 56.6344C78.3919 57.0673 78.4771 57.4119 78.3017 58.0666C78.3081 58.1958 78.5177 58.183 78.6515 58.2226C78.6459 58.8259 78.1544 58.7347 78.0162 59.1486C77.2562 58.8494 76.9259 58.8483 76.218 58.6429C76.0701 58.1153 76.306 57.0939 76.6323 56.8286C76.4725 56.2424 76.5041 55.1448 76.9281 54.6157C77.0224 54.3362 76.7246 54.3305 76.7346 54.1099C77.1667 53.6997 76.6479 53.2373 77.2186 52.9683C76.9656 52.8547 77.0872 52.1651 77.3639 52.1445C77.3228 51.8023 77.2103 51.5742 77.5091 51.3208C77.4448 50.3664 77.2279 49.6874 77.4604 48.3868L77.7352 48.4353C77.4973 48.025 77.375 47.5487 77.8535 47.2295C77.8034 46.8365 77.6106 46.5436 77.4656 46.2174C77.9123 45.7606 77.2716 44.8991 77.74 44.6614C77.6012 44.4643 77.4945 44.2449 77.2715 44.1068C77.3731 43.2558 78.2589 43.0542 78.1596 42.2817Z" fill="black"/>
<path fill-rule="evenodd" clip-rule="evenodd" d="M70.8882 58.3639C70.7165 58.348 70.7772 58.6639 70.6407 58.6976C70.1561 58.529 69.6957 58.3432 69.3322 58.0895C69.3141 57.4863 69.3495 56.9163 69.165 56.3613C69.7706 55.691 69.137 54.6638 69.6599 54.0896C69.7781 53.8197 69.4398 53.8692 69.5576 53.5995C69.7021 53.3096 69.7639 52.9011 70.0692 52.8404C69.9889 52.0289 69.7733 50.5877 70.327 49.7715C70.2751 49.6744 70.1852 49.6037 70.0848 49.5401C70.2141 49.2286 70.3336 48.9024 70.5959 48.7812C70.5611 48.5383 70.3265 48.435 70.2192 48.2428C70.2478 47.9019 70.4103 47.7522 70.5312 47.5428C70.1696 47.4046 70.3286 46.5682 70.6335 46.4282C70.5673 46.154 70.4946 45.8838 70.2886 45.707C70.4892 44.0838 70.4515 43.6735 70.8696 42.4121C71.1544 42.3602 71.4332 42.3003 71.8174 42.3905C71.8087 42.7708 72.2372 42.8451 72.4525 43.0688C72.5288 43.9246 72.0281 44.3529 72.6951 44.9046C72.7049 45.3004 72.4413 45.3053 72.383 45.6046C72.3769 45.9562 72.6195 46.134 72.7114 46.4172C71.9287 47.7789 73.0568 49.6265 72.0447 50.735C72.0915 51.2503 72.3695 51.6282 72.2601 52.1887C72.2299 52.3435 71.7008 53.1788 71.6682 53.4053C71.6131 53.7871 71.9636 54.1688 71.6414 54.6276C71.5552 54.8216 71.7933 54.7886 71.7759 54.9344C71.2765 55.8217 71.9072 57.0143 70.9581 57.4325C71.1572 57.9015 71.0935 58.3173 70.9152 58.746C70.5362 58.7077 70.9528 58.622 70.8882 58.3639ZM69.6981 56.5497C69.745 56.4296 69.7045 56.1824 69.6389 56.3506C69.592 56.471 69.6325 56.7178 69.6981 56.5497Z" fill="black"/>
<path fill-rule="evenodd" clip-rule="evenodd" d="M96.3004 64.6379C96.8211 64.8109 97.4242 65.0446 97.5278 65.7037C97.5608 65.9113 97.3185 65.8153 97.3125 65.8544C97.2958 65.964 97.4421 66.0948 97.431 66.2526C97.4176 66.445 97.1562 66.6428 97.135 66.8611C97.0914 67.3071 97.3297 67.8474 97.2592 68.2986C97.2168 68.5681 97.0599 68.8106 97.0386 69.0147C97.0066 69.3197 97.2451 69.5976 96.8772 69.93C97.1096 70.255 97.0947 70.8183 96.7589 71.1358C96.7251 71.3734 97.1337 71.3014 96.9527 71.642C96.9148 71.9696 96.4914 71.7467 96.4899 72.1264C96.7963 72.2593 96.8055 72.6007 96.9259 72.8639C96.6695 73.07 96.877 73.403 96.7968 73.5962C96.7704 73.6602 96.5895 73.62 96.5815 73.7469C96.5266 74.6318 97.3858 74.8799 96.8507 75.9651C96.4772 76.0038 96.2981 76.3207 96.0813 76.5841C95.8538 76.5183 95.6318 76.0996 95.4405 76.4711C95.4467 76.0922 95.1676 75.9137 94.9127 75.7176C94.9803 75.4832 95.0246 75.2651 94.7028 75.303C94.8249 74.796 94.5254 74.1673 94.9448 73.9303C94.961 73.7586 94.6445 73.8193 94.6112 73.6825C94.6807 73.1611 94.7257 72.844 95.2031 72.4658C95.1721 72.2483 94.8316 72.5328 94.7887 72.6757C94.8347 72.191 94.9699 71.9845 94.9393 71.287C94.9433 71.177 94.7861 71.18 94.6807 71.1467C94.9367 70.4118 94.6815 70.301 95.1057 69.8063C94.8969 69.8237 95.0035 69.4125 94.8366 69.1925C95.2896 67.9844 94.5143 66.2032 95.6651 65.5639L95.7619 65.0146C96.0519 65.4078 96.4143 65.1543 96.3004 64.6379ZM96.2689 71.2381C96.0095 70.9058 95.9317 71.5274 96.2689 71.2381V71.2381Z" fill="black"/>
<path fill-rule="evenodd" clip-rule="evenodd" d="M100.973 63.2914C101.399 63.5943 101.707 63.4818 102.222 63.7003C101.836 64.0728 102.379 64.0427 102.524 64.1311C103.111 65.126 102.145 66.5645 102.831 67.205C102.446 67.4817 102.779 68.1038 102.347 68.3463C102.383 68.6688 102.653 68.8274 102.567 69.2345C102.439 69.2039 102.311 69.1739 102.277 69.2777C102.149 69.635 102.623 69.5706 102.546 69.8914C102.554 70.0941 102.384 70.0426 102.239 70.026C102.287 70.2336 102.47 70.3459 102.417 70.6237C101.935 70.8609 102.214 71.5078 102.299 71.8296C102.496 71.7761 102.787 71.6086 102.956 71.8511C103.18 71.7131 103.344 71.4885 103.451 71.1833C103.744 71.4207 104.037 71.0653 104.323 71.0541C104.724 71.0381 104.874 71.1892 105.179 71.0164C105.393 70.8949 105.365 70.745 105.518 70.6985C105.966 70.5623 106.461 70.8179 106.972 70.4831C107.005 70.3793 106.98 70.3168 106.912 70.284C106.962 70.0617 107.218 70.3177 107.171 70.4239C107.349 70.1438 107.789 70.2367 107.924 69.8961C108.314 69.8904 108.019 70.3646 108.409 70.359C108.424 70.5707 108.211 70.4585 108.178 70.6015C108.178 70.7215 108.429 70.7694 108.452 70.6499C108.499 70.8663 108.391 71.0252 108.629 71.2472C108.667 71.6506 108.005 71.6447 108.302 72.0387C107.569 72.5911 105.995 72.6388 105.141 73.3688C104.286 73.3456 103.691 72.9633 103.306 73.6114C102.803 73.5424 102.326 73.5102 102.277 74.0908C101.867 74.2383 101.121 74.3723 100.905 73.8488C100.523 73.723 100.479 74.0808 100.124 73.9941C100.108 73.4972 100.087 73.0035 99.7846 72.7073C99.8252 72.4221 99.9737 72.2901 100.081 72.0992C99.9113 71.705 100.206 71.2555 100.183 70.9848C100.171 70.8518 100.1 70.3955 100.253 70.0534C100.319 69.9056 100.871 69.1915 100.279 68.8311C100.519 68.0037 100.541 67.5159 100.667 66.6347C100.647 66.515 100.583 66.4261 100.425 66.403C100.571 65.4642 100.939 64.8829 100.429 64.2335L100.462 64.0505C100.602 63.7545 100.988 63.8086 100.973 63.2914Z" fill="black"/>
<path fill-rule="evenodd" clip-rule="evenodd" d="M79.1156 65.76C79.3413 65.8139 79.0877 66.0746 79.0511 66.1259C79.1408 66.2505 79.3564 66.2866 79.5842 66.3143C79.5334 67.1482 80.3796 67.7046 79.8376 68.624C80.4216 68.9371 80.0237 69.9377 80.3709 70.4164C80.031 70.9135 80.427 71.3959 80.71 71.7031C80.6483 72.7357 80.9753 73.4977 80.5168 74.4058C80.528 74.5316 80.6526 74.5783 80.6514 74.7125C80.8591 74.874 81.0017 74.4015 81.0338 74.6856C81.1848 74.9048 80.9614 74.858 80.8774 75.0357C81.3217 75.7407 81.0015 76.9812 81.3407 77.7598C81.2025 78.1269 80.778 78.3816 81.0718 78.7504C80.8201 78.9637 80.4388 78.9917 80.1512 79.1544C79.8047 79.0227 79.7168 78.7098 79.4085 78.5514C79.5041 78.4585 79.5721 78.3275 79.5804 78.1097C79.5502 77.8278 79.276 78.1125 79.1229 78.0291C79.153 77.1834 78.9163 76.5494 79.1442 75.7681C78.4492 75.1569 79.0732 74.08 78.4334 73.3777C78.4161 73.0863 78.6386 73.1364 78.6217 72.845C78.5666 72.6694 78.3303 72.621 78.2123 72.4894C78.5656 72.1494 78.7642 71.1358 78.0881 71.0522C78.1365 70.7267 77.9833 70.6201 78.2764 70.5191C78.2807 70.4091 78.1232 70.4125 78.0181 70.3792C78.361 68.6184 76.4147 69.8443 77.0814 70.8747C76.6466 71.9339 76.5219 73.4364 76.0968 74.8535C75.9505 74.8353 75.7555 74.7477 75.7144 74.8804C75.7525 75.1428 76.0339 75.2229 76.0754 75.51C76.1324 75.9051 75.8287 76.3518 75.6072 76.5601C75.8347 77.5318 74.8009 77.3918 74.5091 77.9709C74.1669 77.7151 73.7149 77.8565 73.1849 77.454C73.228 77.1549 72.9627 76.8306 73.2386 76.6142C73.0502 76.4783 73.1464 76.1439 72.7539 76.1514C72.7804 75.8336 72.337 75.5221 72.3984 74.956C72.4046 74.7912 72.2773 74.7197 72.0646 74.7085C72.0733 74.4886 71.9805 74.3394 72.0861 74.0516C71.3616 73.1416 71.4304 71.6761 70.5727 70.8593C70.3083 71.1651 70.2077 71.8956 69.7652 72.227C69.6943 72.4908 69.9226 72.5445 69.8514 72.8082C69.5571 72.8847 69.3985 73.1545 69.1894 73.3522C69.1818 73.5446 69.4018 73.578 69.5069 73.6915C69.2427 74.2456 69.0902 74.3316 69.1896 74.9565C68.9759 75.3004 68.6799 75.5267 68.4631 75.8665C68.9045 76.5604 68.3293 77.564 68.2695 78.5693C68.2014 78.7771 68.106 78.9467 67.9144 78.9781C67.9102 79.3098 68.1331 79.7396 67.6773 79.786C67.5918 80.9623 66.5916 80.8318 65.9227 81.1752C65.9232 81.0682 65.8398 81.1083 65.8312 81.1591C65.4522 80.6479 65.7957 80.0009 66.197 79.6193C65.2569 79.1406 66.4094 78.2362 66.1105 77.4333C66.2857 77.2637 66.5007 77.1508 66.665 76.9651C66.7155 76.6621 66.318 76.6732 66.288 76.4266C66.9506 75.7111 66.5072 75.1596 67.1169 74.4024C67.1822 74.196 66.8703 74.254 66.8905 74.0795C66.8823 73.7238 67.2755 73.9414 67.3375 73.6863C67.4237 73.4923 67.1856 73.5251 67.2029 73.3795C67.2477 73.1 67.4586 73.0575 67.5742 72.8787C67.1338 72.2264 68.2643 71.5657 67.897 71.0482C68.4069 70.4836 68.385 69.8492 68.952 69.3469C69.0172 69.1409 68.7054 69.1985 68.7256 69.024C69.0796 68.4597 69.5165 68.0141 70.007 67.6456C70.1223 67.3774 69.9721 67.2955 70.0124 67.0802C70.6806 66.846 71.1859 67.5217 71.536 67.5375C71.5209 67.6687 71.5053 67.7994 71.3961 67.7962C71.8003 68.0208 71.6563 68.6298 72.2735 68.7055C72.1227 69.1654 72.8879 69.299 72.4783 69.6857C72.4278 69.8812 72.7956 69.7843 72.92 69.8576C73.0461 70.2507 73.3732 70.5029 73.1676 71.1283C73.4531 71.7039 73.8634 72.192 74.0991 72.8025C74.2415 72.277 75.0239 71.7466 74.5887 71.0955C75.2144 70.5095 74.7794 70.0231 75.1862 69.3138C75.3521 69.5796 75.7249 69.2724 75.4177 69.0713C75.3446 69.0235 75.2428 69.2208 75.2347 69.039C75.222 68.7637 75.9533 68.1062 76.1175 67.7793C76.3309 67.3533 76.3232 67.1386 76.6448 66.9286C76.7161 66.6646 76.4875 66.6108 76.5587 66.3471C77.0783 65.4367 78.2282 65.6773 79.1156 65.76ZM70.7878 69.1043C71.0308 69.2857 71.1266 68.7421 70.8362 68.8298L70.7878 69.1043ZM75.4344 72.1886C75.7035 72.3689 75.7622 71.6814 75.6227 71.6555C75.3722 71.8041 75.6845 72.0399 75.4344 72.1886ZM75.1331 73.3622C75.1666 73.2195 75.3791 73.3317 75.3644 73.12C75.19 73.0064 74.9115 73.2846 75.1331 73.3622ZM74.8856 73.6959L75.0686 73.7281L75.1008 73.5451L74.9178 73.5129L74.8856 73.6959ZM67.2515 74.7091L67.4345 74.7414L67.4667 74.5584L67.2837 74.5261L67.2515 74.7091ZM79.4837 77.0547L79.6667 77.087L79.6989 76.904L79.516 76.8717L79.4837 77.0547ZM79.2036 77.5716L79.4783 77.6201L79.5267 77.3456L79.252 77.2971L79.2036 77.5716Z" fill="black"/>
<path fill-rule="evenodd" clip-rule="evenodd" d="M88.4935 64.4878C89.4868 64.2009 90.0161 65.3917 89.8505 66.4258C90.3325 66.8823 90.0252 67.8389 89.6518 68.0894C89.8417 68.3842 90.1821 68.5738 90.4701 68.8001C90.2782 69.372 90.7173 69.6638 90.2604 69.9898C90.3168 70.1377 90.2704 70.357 90.5779 70.3291C90.4681 70.8446 90.629 71.0838 90.8097 71.691C90.8969 71.983 91.1209 72.421 91.1061 72.6869C91.0956 72.8703 90.9281 72.9668 90.9337 73.1282C90.9662 74.1046 91.5323 75.0724 91.2732 76.0194C91.5691 76.7217 91.5631 77.5145 91.3114 78.4799C90.8601 78.6753 90.4157 78.8809 89.8254 78.8782C90.0254 78.4976 89.5679 78.5771 89.3246 78.5069C89.3583 78.2632 89.6285 77.8167 89.2118 77.5433C89.6009 77.4313 89.4891 76.7134 88.9747 76.7465C88.8577 76.1904 89.2244 75.6101 89.2059 74.8999C89.1976 74.5975 88.9979 74.5892 89.3028 74.3507C89.2256 74.1641 89.1181 73.9985 89.0171 73.8286C88.8454 73.8125 88.9062 74.1286 88.7696 74.1623C88.2052 73.895 87.8009 74.3243 87.4723 74.0279C87.1494 74.2453 86.6395 74.3203 86.2177 74.1843C85.8185 74.2631 85.7093 74.7566 85.1896 74.6634C84.3802 75.578 84.7744 76.3104 84.2318 77.4202C84.1456 77.6142 84.3834 77.5811 84.3664 77.727C84.2797 77.9472 84.127 78.0727 83.995 78.2278C84.5231 78.7342 83.7131 78.9261 83.8445 79.617C83.576 79.5908 83.1518 79.5856 82.9401 79.9292C82.5042 79.8061 82.4159 79.4405 82.014 79.2942C81.9408 78.6376 81.9621 77.3069 82.1912 76.6828C82.2429 76.5423 82.2489 76.5065 82.4067 76.5321C82.2316 76.0112 82.4796 75.2544 82.8479 75.0999C82.718 74.2828 83.2318 73.3521 83.176 72.7043C83.3666 72.6333 83.5371 72.5325 83.7734 72.5263C83.7444 71.6077 84.1278 71.3461 84.0961 70.6959C84.5737 70.6768 84.2806 69.8884 84.8983 69.8937C85.0222 69.593 84.5469 69.712 84.7042 69.3877C85.4501 69.1532 85.0049 67.2492 86.0554 67.078C85.7299 66.7186 86.1416 66.2708 86.5666 66.3188C86.6736 65.8393 86.7866 65.3404 87.2504 65.118C87.2073 65.0145 87.0564 64.9862 87.1154 64.8112C87.3263 64.7688 87.334 64.4358 87.4871 64.3104C87.8347 64.397 88.5258 63.8989 88.4935 64.4878ZM87.1644 67.7452L87.3474 67.7775L87.3797 67.5945L87.1967 67.5622L87.1644 67.7452ZM87.5254 68.3752C87.4147 68.613 87.6746 68.5915 87.6435 68.7733C86.878 69.4518 86.8128 70.7151 86.2283 71.4492C86.7046 71.6394 86.0551 71.8801 86.0992 72.1814C86.7878 72.5002 87.2403 71.635 88.1341 71.8799C88.2961 71.6527 88.5982 71.6261 88.6295 71.2122C87.9989 71.2528 88.2542 70.5197 88.4246 70.2324C87.921 69.9549 88.8565 69.113 88.3761 68.9025C88.1284 68.8165 88.3596 69.414 88.112 69.328C87.9605 68.9685 88.2953 68.0011 87.5254 68.3752ZM89.3728 75.0237L89.556 75.056L89.5883 74.873L89.405 74.8407L89.3728 75.0237Z" fill="black"/>
</g>
</svg>
