<svg xmlns="http://www.w3.org/2000/svg" xmlns:xlink="http://www.w3.org/1999/xlink" width="182.149" height="181.062" viewBox="0 0 182.149 181.062">
  <defs>
    <clipPath id="clip-path">
      <rect id="Rectángulo_60" data-name="Rectángulo 60" width="95.289" height="96.68" fill="none"/>
    </clipPath>
    <clipPath id="clip-path-2">
      <rect id="Rectángulo_52" data-name="Rectángulo 52" width="106.47" height="153.836" fill="none"/>
    </clipPath>
    <clipPath id="clip-path-3">
      <rect id="Rectángulo_51" data-name="Rectángulo 51" width="106.129" height="153.496" fill="none"/>
    </clipPath>
  </defs>
  <g id="Grupo_72" data-name="Grupo 72" transform="translate(0)">
    <g id="Grupo_35" data-name="Grupo 35" transform="translate(0)">
      <g id="Grupo_34" data-name="Grupo 34" clip-path="url(#clip-path)">
        <path id="Trazado_268" data-name="Trazado 268" d="M76.932.944c-.382.811-.477,2.957-.286,7.774.429,9.157,1.765,14.833,3.148,13.354,1.335-1.335,2.051-18.362.858-20.7-.811-1.621-2.909-1.86-3.72-.429" transform="translate(-27.377 0)" fill-rule="evenodd"/>
        <path id="Trazado_269" data-name="Trazado 269" d="M121.367,23.782a28.676,28.676,0,0,0-5.771,8.633c-1.86,4.1-2.146,5.1-1.288,5.1s6.773-6.153,8.919-9.3c3.052-4.435,1.669-7.87-1.86-4.435" transform="translate(-40.716 -8.005)" fill-rule="evenodd"/>
        <path id="Trazado_270" data-name="Trazado 270" d="M21.421,38.384c-1.049,1.049-.716,2.242.954,3.434,2.909,2.194,13.975,6.534,16.645,6.534,1.192,0,1.287-.1.858-.954-.572-1.1-8.919-6.725-11.971-8.06-2.909-1.288-5.771-1.717-6.487-.954" transform="translate(-7.447 -13.592)" fill-rule="evenodd"/>
        <path id="Trazado_271" data-name="Trazado 271" d="M66.832,54.867a19.234,19.234,0,0,0-11.255,9.682,16.261,16.261,0,0,0,.286,12.592c2.814,5.723,8.3,8.966,15.119,8.966,5.437,0,8.489-1.24,12.258-5.008,2.528-2.528,3.052-3.387,3.958-6.391,1.86-6.057.477-12.019-3.672-15.835-2.384-2.194-4.674-3.291-6.916-3.291a7.407,7.407,0,0,1-2.766-.715c-1.479-.859-4.388-.859-7.011,0M79.28,60.543c4.292,2.528,5.914,9.11,3.434,14.4-4.388,9.443-18.314,9.825-22.893.572a9.69,9.69,0,0,1-.1-9.205,16.686,16.686,0,0,1,2.814-4.006l1.717-1.621-1.05,2.1a14.132,14.132,0,0,0-1.192,5.437c-.143,2.814,0,3.672,1,5.485a9.772,9.772,0,0,0,7.106,5.1c2.528.286,4.436-.572,6.3-2.718,2.337-2.814,1.335-8.633-1.812-10.54-1.813-1.1-3.052-1.145-4.484-.143s-1.335,2.051.334,2.623c3.816,1.335,3.816,6.63.048,6.63-2.957,0-5.723-4.245-4.96-7.488,1.669-7.011,7.965-10.016,13.736-6.63" transform="translate(-19.472 -19.392)" fill-rule="evenodd"/>
        <path id="Trazado_272" data-name="Trazado 272" d="M130.22,74.851c-4.2,1.145-1.955,3.1,4.054,3.529,5.1.382,8.2-1.192,6.2-3.148-.954-.954-7.25-1.192-10.255-.382" transform="translate(-45.801 -26.594)" fill-rule="evenodd"/>
        <path id="Trazado_273" data-name="Trazado 273" d="M8.918,97.97c-5.58,1-8.919,3-8.919,5.342,0,1.145.048,1.192,3,.906,3.339-.286,14.594-3.816,16.169-5.056.572-.477.858-1.1.668-1.383-.477-.763-6.249-.668-10.923.191" transform="translate(0 -34.785)" fill-rule="evenodd"/>
        <path id="Trazado_274" data-name="Trazado 274" d="M101.721,125.013c0,1.86,5.818,9.539,7.679,10.111,2.433.811,3.052-2.337,1.1-5.294-1.431-2.051-1.908-2.48-4.913-4.531-2.623-1.717-3.863-1.813-3.863-.286" transform="translate(-36.379 -44.325)" fill-rule="evenodd"/>
        <path id="Trazado_275" data-name="Trazado 275" d="M45.417,130.6c-3.338,4.15-5.485,8.394-5.055,10.064A2.2,2.2,0,0,0,43.8,141.9c1-.859,3.243-5.294,4.436-8.967,2-6.057.954-6.916-2.814-2.337" transform="translate(-14.415 -45.667)" fill-rule="evenodd"/>
      </g>
    </g>
    <g id="Grupo_19" data-name="Grupo 19" transform="translate(75.68 27.226)">
      <g id="Grupo_18" data-name="Grupo 18" clip-path="url(#clip-path-2)">
        <g id="Grupo_17" data-name="Grupo 17" transform="translate(0.171 0.17)">
          <g id="Grupo_16" data-name="Grupo 16" clip-path="url(#clip-path-3)">
            <g id="Grupo_15" data-name="Grupo 15">
              <g id="Grupo_14" data-name="Grupo 14" clip-path="url(#clip-path-3)">
                <path id="Trazado_151" data-name="Trazado 151" d="M140.485,34.009c-.109.116-.239.226-.349.328a9.449,9.449,0,0,1-2.579-4.59A2.721,2.721,0,0,1,137.5,28.6c.2-1.033,1.628.349,1.772.54.513.684.793,1.512,1.238,2.23a.262.262,0,0,0,.233.137.142.142,0,0,0,.274-.007c.4-1.628.109-3.317.643-4.945.164-.479,1.553-2.989,1.908-1.477a10,10,0,0,1-.6,5,.27.27,0,0,0,.034.233l-.082.1c-.1.109.027.321.164.219.082-.062.157-.137.233-.2a.306.306,0,0,0,.192-.13c.014-.021.027-.048.041-.068.568-.534,1.047-1.163,1.594-1.717a3.472,3.472,0,0,1,1.532-1.005c.52-.144,1.642.13,1.717.787.089.841-1.156,1.744-1.7,2.216a23.08,23.08,0,0,0-1.97,1.573.287.287,0,0,0-.055.315.143.143,0,0,1-.041.027c-.109.075-.048.274.1.226a1.679,1.679,0,0,1,.2-.055.247.247,0,0,0,.157-.048,9.209,9.209,0,0,1,2.025-.335c.506-.034,2.5.1,1.97,1.108-.294.575-1.587.636-2.12.684a16.664,16.664,0,0,0-1.854.075.194.194,0,0,0-.15.116h-.021c-.137.014-.178.205-.034.239a.636.636,0,0,0,.089.027.267.267,0,0,0,.116.1,2.222,2.222,0,0,0,.54.116,6.931,6.931,0,0,1,1.477.773c.629.431,1.929,1.655.663,2.12a7.816,7.816,0,0,1-4.248-.233,11.331,11.331,0,0,1-3.488-1.553,3.553,3.553,0,0,0,.711-1.662c.021-.144-.185-.205-.274-.116" transform="translate(-43.611 -7.943)" fill="#fff"/>
                <path id="Trazado_152" data-name="Trazado 152" d="M85.97,219.121c-2.743-1.867,2.264-6.1,4.1-6.669a1.354,1.354,0,0,1,.226-.055.051.051,0,0,0,.007.034.247.247,0,0,0,.472,0,.041.041,0,0,1,.007-.027c1.327.212,2.531,2.038,3.235,2.955a15.186,15.186,0,0,1,1.32,2.031,3.774,3.774,0,0,1,.39,1.32,8.535,8.535,0,0,1-5.109,1.341,9.984,9.984,0,0,1-4.61-.862.1.1,0,0,0-.034-.068" transform="translate(-27.085 -67.29)" fill="#fff"/>
                <path id="Trazado_153" data-name="Trazado 153" d="M8.575,198.5c-1.094-2.25-1.867-6.142-3.974-8.051a6.966,6.966,0,0,1,1.047.773,38.129,38.129,0,0,1,4.555,5.629,19.362,19.362,0,0,1,3.543,6.86c.39,1.655.274,3.981-1.2,4.973a10,10,0,0,0-1.04-4.159c-.841-2.072-1.963-4.015-2.934-6.026" transform="translate(-1.625 -60.354)" fill="#fff"/>
                <path id="Trazado_154" data-name="Trazado 154" d="M10.637,208.51c-2-.636-3.57-2.784-4.576-4.555a53.121,53.121,0,0,1-2.6-5.321c-.4-.9-3.694-8.488-1.97-9.186,3.338,1.32,4.049,6.156,5.4,9.056.848,1.806,1.826,3.55,2.64,5.376a16.546,16.546,0,0,1,1.033,2.982,5,5,0,0,1,.075,1.648" transform="translate(-0.486 -60.038)" fill="#fff"/>
                <path id="Trazado_155" data-name="Trazado 155" d="M42.579,117.416c.157-.287.3-.581.451-.869a7.278,7.278,0,0,0,1.956,1.17,10.152,10.152,0,0,0,2.531,1.122c-.178,1.73.1,3.126,1.43,3.181,1.012.034,1.867-1.135,2.346-1.86.048-.075.089-.157.13-.226a6.983,6.983,0,0,0,2.927,1.43,24.824,24.824,0,0,0,5.007.862,32.068,32.068,0,0,0,5.315.034,8.229,8.229,0,0,0,3.317-.657c.055.15.1.3.164.451.219.513.889,1.7,1.614,1.607,1.047-.137,1.587-1.327,1.895-2.572a11.024,11.024,0,0,0,7.455-2.77c.746,4.165,1.238,8.372,1.662,12.579.39,3.892,1.491,8.393.253,12.223-2.367,1.341-4.672,2.825-7.107,4-.424.157-.855.308-1.286.445v.144a19.718,19.718,0,0,1-4.549,1.347c-4.925.78-10.1-.342-14.863-1.512-4.521-1.108-9.1-2.189-12.825-5.13A31.984,31.984,0,0,1,36.156,138c-1.218-1.423-2.852-3.242-2.845-5.233,2.346-1.792,3.776-4.549,5.062-7.141q2.114-4.268,4.172-8.591c-.027.109-.068.219-.1.321a.071.071,0,0,0,.13.055" transform="translate(-10.698 -37)" fill="#fff"/>
                <path id="Trazado_156" data-name="Trazado 156" d="M85.478,119.951c.062-.144.109-.356.185-.554a2.331,2.331,0,0,1,.328-.123A.041.041,0,0,0,86,119.2a.431.431,0,0,0-.2-.068.568.568,0,0,1,.1-.116c.082-.055.267.253.308.308a2.262,2.262,0,0,1,.239,1.949c-.39.834-1.04-.027-1.17-.513a1.676,1.676,0,0,1-.055-.691.2.2,0,0,0,.253-.116" transform="translate(-27.099 -37.778)" fill="#fff"/>
                <path id="Trazado_157" data-name="Trazado 157" d="M56.571,120.6c-.294-.15-.274-.657-.164-1.156,0-.007.007-.007.014-.014.192-.246.287-.568.486-.807.1-.123.048-.109.137-.021a1.872,1.872,0,0,1,.274,1.313c-.034.383-.274.93-.746.684" transform="translate(-17.973 -37.629)" fill="#fff"/>
                <path id="Trazado_158" data-name="Trazado 158" d="M37.668,115.572a3.59,3.59,0,0,0,2.011.178c-.219.321-.445.65-.663.978-.062.089.068.178.144.109.855-.821,1.607-1.744,2.421-2.613a11.087,11.087,0,0,1,1.477-1.354,13.467,13.467,0,0,0,1.218-.814.241.241,0,0,0,.055-.089c.034.014.068.034.1.048-.212.54-.41,1.074-.609,1.621a.123.123,0,0,0-.068.041,18.525,18.525,0,0,0-2.77,4.678c-.212.431-.424.869-.629,1.306-.014-.014-.021-.034-.034-.041a3.879,3.879,0,0,0-.978-.356,9.735,9.735,0,0,1-1.423-.691,6.181,6.181,0,0,1-2.462-2.107c-.759-1.368,1.607-1.026,2.216-.9" transform="translate(-11.328 -35.553)" fill="#fff"/>
                <path id="Trazado_159" data-name="Trazado 159" d="M87.523,97.706c-.923-6.005-.691-12.332-3.242-17.955.219-.144.438-.294.657-.445a20.641,20.641,0,0,0,2.339,3.885l.021.021a.236.236,0,0,0,.123.308l.068.021a46.593,46.593,0,0,1,2.989,6.341,81.08,81.08,0,0,1,4.254,14.083c.123.575.233,1.156.342,1.73a13.7,13.7,0,0,1-7.2,3.112c.157-.787.233-1.539.287-2.025a34.024,34.024,0,0,0-.643-9.077" transform="translate(-26.805 -25.232)" fill="#fff"/>
                <path id="Trazado_160" data-name="Trazado 160" d="M84.031,107.3a1.775,1.775,0,0,0-.178,1.347c.157.828,1.074,1.785,1.84.923a2.66,2.66,0,0,0-.068-2.8c-.185-.315-.534-.629-.923-.492a1.216,1.216,0,0,0-.657,1.005c0,.007-.007.014-.014.021m.014-11a52.346,52.346,0,0,0-2-15.171c.308-.192.622-.376.93-.575,2.237,4.925,2.161,10.321,2.88,15.595.376,2.825.93,5.629,1.033,8.488a17.313,17.313,0,0,1-.349,4.111,9.421,9.421,0,0,1-.7,2.107c-.492,1.04-1.074.492-1.546-.26-1.142-1.833-.677-4.624-.458-6.648a63.384,63.384,0,0,0,.219-7.647" transform="translate(-26.097 -25.627)" fill="#fff"/>
                <path id="Trazado_161" data-name="Trazado 161" d="M55.862,111.04a.932.932,0,0,0,1.04.109,1.251,1.251,0,0,0,.554-.869,2.559,2.559,0,0,0-.39-2.066c-.711-.821-1.43.65-1.416,1.211a.1.1,0,0,0,.014.041,1.794,1.794,0,0,0,.2,1.573m.65.78c-1.819,1.334-1.259-2.695-1.156-3.379a37.82,37.82,0,0,1,2.12-6.977c.855-2.3,1.525-4.617,2.168-6.984s1.409-4.7,1.956-7.086c.4-.048.807-.109,1.211-.178a28.945,28.945,0,0,0-1.683,5.622c-.486,2.278-1.04,4.583-1.334,6.895a78.587,78.587,0,0,1-1.026,7.907,6.934,6.934,0,0,1-2.257,4.179" transform="translate(-17.613 -27.732)" fill="#fff"/>
                <path id="Trazado_162" data-name="Trazado 162" d="M52.267,97.873a49.764,49.764,0,0,1,5.027-8.468c.417-.233.834-.472,1.238-.718a54.016,54.016,0,0,0-2,6.5c-.752,2.784-1.662,5.472-2.633,8.181a35.118,35.118,0,0,0-1.7,5.944c-.834-.383-1.71-.677-2.531-1.088a7.94,7.94,0,0,0-1.847-.889c1.553-3.112,2.859-6.361,4.446-9.46" transform="translate(-15.283 -28.196)" fill="#fff"/>
                <path id="Trazado_163" data-name="Trazado 163" d="M64.918,85.985A3.983,3.983,0,0,0,70.2,89a5.615,5.615,0,0,0,2.791-2.811,13.72,13.72,0,0,0,1.573-4.042.4.4,0,0,0-.075-.287c.082-.048.178-.1.267-.144a75.3,75.3,0,0,1,1.662,18.331c-.055,2.654-.465,5.315-.41,7.962a8.9,8.9,0,0,0,.26,1.9c-1.04.157-2.045.52-3.112.616a32.064,32.064,0,0,1-4.726.027c-2.688-.164-5.971-.465-8.276-2.066a16.777,16.777,0,0,0,1.354-5.575c.185-1.484.287-2.982.465-4.466.185-1.58.568-3.112.882-4.665a42.939,42.939,0,0,1,2.066-7.8" transform="translate(-19.18 -25.994)" fill="#fff"/>
                <path id="Trazado_164" data-name="Trazado 164" d="M76.225,82.5c-.342.684-.534,1.5-.814,2.2a9.3,9.3,0,0,1-1.737,2.975,3.506,3.506,0,0,1-3.454.978c-1.471-.308-2.079-1.785-2.319-3.133a33.266,33.266,0,0,0,6.792-2.257c.52-.239,1.026-.492,1.532-.759" transform="translate(-21.629 -26.24)" fill="#fff"/>
                <path id="Trazado_165" data-name="Trazado 165" d="M100.839,77.864a11.957,11.957,0,0,1-3.6-6.306,17.724,17.724,0,0,1,1.6-.93c1.135,2.086,2.278,4.822,2,7.237" transform="translate(-30.9 -22.489)" fill="#fff"/>
                <path id="Trazado_166" data-name="Trazado 166" d="M113.47,62.057a1.877,1.877,0,0,1-.622,1.539,1.565,1.565,0,0,1-1.436-.13c.691-.458,1.375-.93,2.059-1.409" transform="translate(-35.378 -19.781)" fill="#fff"/>
                <path id="Trazado_167" data-name="Trazado 167" d="M108.031,59.5a4.434,4.434,0,0,0,1.73.629c-.308.2-.622.39-.93.581a5.992,5.992,0,0,1-.8-1.211" transform="translate(-34.31 -18.972)" fill="#fff"/>
                <path id="Trazado_168" data-name="Trazado 168" d="M120.759,71.181c.034.985-.3,1.922-1.464,1.573a5.083,5.083,0,0,1-2-1.272,10.758,10.758,0,0,1,2.414-4.945,15.124,15.124,0,0,1,1.053,4.644" transform="translate(-37.237 -21.197)" fill="#fff"/>
                <path id="Trazado_169" data-name="Trazado 169" d="M112.413,75.312c-1.183.15-2.237-1.922-2.688-2.736a11.188,11.188,0,0,1-1.334-3.249,11.707,11.707,0,0,1,5.1,2.921c.089.116.178.233.28.349-.219,1.2-.527,2.613-1.361,2.715" transform="translate(-34.424 -22.078)" fill="#fff"/>
                <path id="Trazado_170" data-name="Trazado 170" d="M115.254,63.976c.356,1.149.718,3.687-.8,4.227-1.211.438-2.367-2.8-2.722-4.213a1.624,1.624,0,0,0,2.346-1.04,4.044,4.044,0,0,0,.226-1.313,18.816,18.816,0,0,1,.951,2.339" transform="translate(-35.479 -19.648)" fill="#fff"/>
                <path id="Trazado_171" data-name="Trazado 171" d="M106.34,49.874a6.066,6.066,0,0,1-1.115-1.388c-.021-.048-.089-.007-.068.041.3.6,2.011,3.235,2.825,1.867.7-1.2-.5-3.092-1.1-4.118-.1-.185-.363-.021-.274.164a11.049,11.049,0,0,1,1.19,3.146.8.8,0,0,1-.3.807c-.369.246-.923-.308-1.156-.52m-1.819-.636a8.851,8.851,0,0,0,.431-2.394c.1-.67.185-1.341.246-2.018a.273.273,0,0,0,.027-.212c0-.014-.007-.027-.007-.041a34.753,34.753,0,0,0,.1-3.776c.034.055.068.1.1.144A5.483,5.483,0,0,0,106.3,42.3c.739.958,1.553,1.847,2.216,2.859A13.109,13.109,0,0,1,110,49.4c.219.951.828,3.5-.431,4.022-1.012.424-2.387-.554-3.071-1.163a8.62,8.62,0,0,1-1.977-3.023" transform="translate(-33.201 -13.063)" fill="#fff"/>
                <path id="Trazado_172" data-name="Trazado 172" d="M88.819,28c-1.2-2.729-3.051-5.062-4.528-7.626.226.144.451.287.677.424-.027.014-.034.062.007.062a.333.333,0,0,0,.082-.007,47.4,47.4,0,0,1,6.388,4.863c.424.39.834.78,1.238,1.183.609,1.977,1.423,3.885,2.045,5.855.007.021.048.014.041-.007-.472-1.717-.862-3.482-1.443-5.164a15.783,15.783,0,0,1,2.585,3.707,30.427,30.427,0,0,1,1.7,4.87,3.227,3.227,0,0,0-2.442-1.669,2.732,2.732,0,0,0-1.676.363c-1.156-2.62-1.854-5.39-3.133-7.962-.021-.041-.075-.007-.055.034,1.135,2.654,1.56,5.568,2.825,8.181a4.667,4.667,0,0,0-1.313,1.813,34.659,34.659,0,0,0-.917-3.475,38.014,38.014,0,0,0-1.388-5.356,37.943,37.943,0,0,0-1.751-5.144c-.027-.048-.109-.027-.1.027a24.664,24.664,0,0,0,1.512,5.212q.441,1.354.841,2.729c-.376-.985-.78-1.963-1.2-2.914" transform="translate(-26.808 -6.61)" fill="#fff"/>
                <path id="Trazado_173" data-name="Trazado 173" d="M18.593,82.244c-1.457,1.573-2.127-2.182-2.2-3.263a6.505,6.505,0,0,1,3.523-.691,6.5,6.5,0,0,1-1.32,3.953" transform="translate(-5.351 -24.906)" fill="#fff"/>
                <path id="Trazado_174" data-name="Trazado 174" d="M12.415,78.938c-.616.021-1.06-.732-1.306-1.183a4.808,4.808,0,0,1-.164-4.268,13.2,13.2,0,0,1,2.36,2.729c.021.075.034.144.055.212a.262.262,0,0,0,.13.15,4.029,4.029,0,0,1,.349,1c-.356.575-.67,1.341-1.423,1.361" transform="translate(-3.495 -23.393)" fill="#fff"/>
                <path id="Trazado_175" data-name="Trazado 175" d="M15.4,76.224a30.659,30.659,0,0,1-.062-3.167,1.841,1.841,0,0,0,1.033.52,1.447,1.447,0,0,0,1.156-.335,5.784,5.784,0,0,1-.123,1.231c-.116.554-.451,1.026-.568,1.573a.2.2,0,0,0,.1.233,2.765,2.765,0,0,0-1.108.609.333.333,0,0,0-.267.034,3.342,3.342,0,0,0-.164-.636c0-.021.007-.041.007-.062" transform="translate(-5.014 -23.257)" fill="#fff"/>
                <path id="Trazado_176" data-name="Trazado 176" d="M15.241,66.281c.027-.739.144-1.5.2-2.264.226,1.163.78,2.62,2.148,2.462a2.175,2.175,0,0,0,.828-.287c-.233,1.587-.848,4.494-2.271,3.728-1.129-.616-.958-2.585-.9-3.639" transform="translate(-4.974 -20.4)" fill="#fff"/>
                <path id="Trazado_177" data-name="Trazado 177" d="M19.323,58.409c-.328.622-1.211,1.553-2,1.115-1.047-.588-1.012-2.907-1.04-3.906a20.316,20.316,0,0,1,.4-4.637,28.232,28.232,0,0,1,2.326-6.334c-.075.588-.144,1.183-.178,1.772a22.844,22.844,0,0,0,1.388,9.213,16.443,16.443,0,0,1-.9,2.777" transform="translate(-5.314 -14.279)" fill="#fff"/>
                <path id="Trazado_178" data-name="Trazado 178" d="M29.5,16.351a5.136,5.136,0,0,1-3.7,1.943c-1.908,0-3.256-1.587-3.865-3.3a6.057,6.057,0,0,0,3.994,1.655,10.636,10.636,0,0,0,3.57-.3" transform="translate(-7.102 -4.91)" fill="#fff"/>
                <path id="Trazado_179" data-name="Trazado 179" d="M29.152,4.177c-.4,2.654,2.305,5.575,5.027,6.122a3.99,3.99,0,0,1-2.524.78,3.017,3.017,0,0,1-2.011-1.635,6.64,6.64,0,0,1-.492-5.267" transform="translate(-9.282 -1.49)" fill="#fff"/>
                <path id="Trazado_180" data-name="Trazado 180" d="M62.451,4.55c-7.223-2.736-15.718-.506-22.271,3l-.219-.3C47.574,1.67,58.661-1,67.28,3.182c5.431,2.64,9.644,7.449,12.811,12.49.52.828,1.012,1.662,1.457,2.517l-1.074.561c-1.9-3.427-5.2-5.958-8.235-8.317A37.838,37.838,0,0,0,62.451,4.55" transform="translate(-12.799 -0.529)" fill="#fff"/>
                <path id="Trazado_181" data-name="Trazado 181" d="M49.179,9.254a34.08,34.08,0,0,0-13.728,3.618.327.327,0,0,0-.26-.356,2.083,2.083,0,0,0,.451-.534A27.449,27.449,0,0,0,38.878,10.3a18.437,18.437,0,0,1,5.274-1.73,20.516,20.516,0,0,1,5.855-.356c1.922.15,3.81.575,5.739.7.178.014.219-.28.048-.308-1.943-.28-3.844-.773-5.787-1a19.324,19.324,0,0,0-5.616.239,20.533,20.533,0,0,0-5.144,1.573,9.647,9.647,0,0,0-.9.492c-.157.014-.308.021-.465.021a7.142,7.142,0,0,1-1.088-.089q.8-.677,1.662-1.313l.219.3c-.062.034-.007.123.055.089C45.54,5.7,53.454,3.809,60.779,6.443c3.611,1.3,6.806,3.646,9.808,5.971,1.491,1.149,2.962,2.312,4.336,3.6,1.4,1.306,2.585,2.756,3.878,4.145a.1.1,0,0,0,.164-.123l1.074-.561a21.761,21.761,0,0,1,2.305,6.375,22.979,22.979,0,0,1,.28,4.788,29.075,29.075,0,0,0-1.32-3.83,17.943,17.943,0,0,0-4.282-5.862,45,45,0,0,0-12.791-8.577A32.831,32.831,0,0,0,49.179,9.254" transform="translate(-11.292 -1.814)" fill="#fff"/>
                <path id="Trazado_182" data-name="Trazado 182" d="M60.509,78.832c-2.011,1.518-3.133-1.553-3.748-3.174a12.071,12.071,0,0,0,2.367-.691,5.848,5.848,0,0,0,.636,3.5c.034.055.13.027.123-.034-.062-.663-.212-1.313-.267-1.984a7.4,7.4,0,0,1,.171-1.778,9.311,9.311,0,0,0,1.648-1.04c.315,1.758.657,4.008-.93,5.205" transform="translate(-18.108 -23.437)" fill="#fff"/>
                <path id="Trazado_183" data-name="Trazado 183" d="M23.259,27.085c1.218-3.051,2.962-5.841,4.35-8.817a.1.1,0,0,0,.041-.014c.014-.014.027-.021.041-.034a20.714,20.714,0,0,0-1.286,3.721,9.536,9.536,0,0,0,.342,6.245c.048.1.239.055.226-.062a16.475,16.475,0,0,1,.246-6.388,18.018,18.018,0,0,1,1.512-3.625,14.716,14.716,0,0,0-.062,1.5A30.172,30.172,0,0,0,29.627,26c.021.109.178.082.185-.027.1-3.215-1.477-7.25.506-10.055,4.6-1.7,9.015-3.331,13.988-3.707a31.856,31.856,0,0,1,15.089,3,41.786,41.786,0,0,1,4.473,2.3c1.047,2.613,2.934,4.822,4.138,7.367a83.242,83.242,0,0,1,3.611,10.041,6.029,6.029,0,0,0-.267,1.047.092.092,0,0,0,.178.048c.588-1.484,1.532-3.482,3.386-3.482,1.922,0,2.695,2.339,2.866,3.858a8.416,8.416,0,0,1-.267,3.194.346.346,0,0,0-.233.438c.014.041.034.082.048.123-.048.13-.1.26-.15.383a3.843,3.843,0,0,1-.506.876.279.279,0,0,0-.15.144c-.014.027-.021.048-.034.075a3.177,3.177,0,0,1-1.149.814c-1.115.431-2.223-.629-3.03-1.231-.3-.219-.568.233-.369.486a3.474,3.474,0,0,0,3.871,1.347A50,50,0,0,1,72.1,49.835,30.9,30.9,0,0,1,65.79,56.64c-.581.465-1.183.9-1.8,1.32a.376.376,0,0,0-.534.349A30.562,30.562,0,0,1,53,62.536a.17.17,0,0,0-.328-.007c-.007.027-.007.055-.014.075-.718.137-1.436.26-2.161.342a.938.938,0,0,0-.711-.342,7.125,7.125,0,0,0-2.579.513c-.321,0-.643,0-.964-.021-13.324-.581-25.2-12.838-25.15-26.163a27.071,27.071,0,0,1,2.168-9.849m31.094,5.15c0-1.607-.951-2.921-2.127-2.921S50.1,30.628,50.1,32.236s.951,2.921,2.127,2.921,2.127-1.306,2.127-2.921m-1.6,18.372a.281.281,0,0,0-.465-.267c-1.4,1.648-2.319,3.379-4.378,4.343a11.685,11.685,0,0,1-4.549.93c-3.379.089-6.573-1.19-7.579-4.631a.112.112,0,0,0-.219.027c.055,3.8,4.049,5.294,7.271,5.41a13.089,13.089,0,0,0,2.367-.137c.376,1.963,1.416,5.027,3.967,3.871,2.018-.91,2.476-4.528,1.58-6.464a7.841,7.841,0,0,0,2-3.085M34.189,35.936c0-1.614-.951-2.921-2.127-2.921s-2.127,1.306-2.127,2.921.951,2.921,2.127,2.921,2.127-1.313,2.127-2.921" transform="translate(-6.836 -4.009)" fill="#fff"/>
                <path id="Trazado_184" data-name="Trazado 184" d="M108.274,52.887c-.814,1.368-2.524-1.265-2.825-1.867-.021-.048.048-.089.068-.041a6.067,6.067,0,0,0,1.115,1.389c.233.212.787.766,1.156.52a.8.8,0,0,0,.3-.807,11.049,11.049,0,0,0-1.19-3.146c-.089-.185.171-.349.274-.164.6,1.026,1.806,2.914,1.1,4.118" transform="translate(-33.493 -15.556)" fill="#231f20"/>
                <path id="Trazado_185" data-name="Trazado 185" d="M84.666,120.515a1.775,1.775,0,0,1,.178-1.347c.007-.007.014-.014.014-.021a1.216,1.216,0,0,1,.657-1.005c.39-.137.739.178.923.492a2.66,2.66,0,0,1,.068,2.8c-.766.862-1.683-.1-1.84-.923m.807-1.4c-.075.2-.123.41-.185.554a.2.2,0,0,1-.253.116,1.676,1.676,0,0,0,.055.691c.13.486.78,1.347,1.17.513a2.262,2.262,0,0,0-.239-1.949c-.041-.055-.226-.363-.308-.308a.568.568,0,0,0-.1.116.431.431,0,0,1,.2.068.041.041,0,0,1-.007.075,2.329,2.329,0,0,0-.328.123" transform="translate(-26.91 -37.494)" fill="#231f20"/>
                <path id="Trazado_186" data-name="Trazado 186" d="M65.628,37.247c1.176,0,2.127,1.313,2.127,2.921s-.951,2.921-2.127,2.921S63.5,41.782,63.5,40.168s.951-2.921,2.127-2.921" transform="translate(-20.238 -11.941)" fill="#231f20"/>
                <path id="Trazado_187" data-name="Trazado 187" d="M57.079,120.739a.932.932,0,0,1-1.04-.109,1.794,1.794,0,0,1-.2-1.573.1.1,0,0,1-.014-.041c-.014-.561.7-2.031,1.416-1.211a2.559,2.559,0,0,1,.39,2.066,1.251,1.251,0,0,1-.554.869m-.855-1.6c-.109.5-.13,1.005.164,1.156.472.246.711-.3.746-.684a1.872,1.872,0,0,0-.274-1.313c-.089-.089-.034-.1-.137.021-.2.239-.294.561-.486.807-.007.007-.014.007-.014.014" transform="translate(-17.79 -37.321)" fill="#231f20"/>
                <path id="Trazado_188" data-name="Trazado 188" d="M52.176,73.839c.616,1.621,1.737,4.692,3.748,3.174,1.587-1.2,1.245-3.447.93-5.205a9.311,9.311,0,0,1-1.648,1.04,7.4,7.4,0,0,0-.171,1.778c.055.67.205,1.32.267,1.984.007.062-.089.089-.123.034a5.848,5.848,0,0,1-.636-3.5,12.072,12.072,0,0,1-2.367.691m-.287.055a13.089,13.089,0,0,1-2.367.137c-3.222-.116-7.216-1.607-7.271-5.41a.112.112,0,0,1,.219-.027c1.005,3.44,4.2,4.72,7.579,4.631a11.685,11.685,0,0,0,4.549-.93c2.059-.964,2.975-2.695,4.378-4.343a.281.281,0,0,1,.465.267,7.841,7.841,0,0,1-2,3.085c.9,1.936.438,5.554-1.58,6.464-2.551,1.156-3.591-1.908-3.967-3.871" transform="translate(-13.523 -21.617)" fill="#231f20"/>
                <path id="Trazado_189" data-name="Trazado 189" d="M62.375,6.171C55.05,3.538,47.136,5.432,40.323,8.654c-.062.034-.116-.055-.055-.089,6.553-3.509,15.048-5.739,22.271-3a37.838,37.838,0,0,1,9.788,5.882c3.037,2.36,6.334,4.891,8.235,8.317a.1.1,0,0,1-.164.123c-1.293-1.388-2.483-2.839-3.878-4.145-1.375-1.286-2.845-2.449-4.336-3.6-3-2.326-6.2-4.672-9.808-5.971" transform="translate(-12.888 -1.542)" fill="#231f20"/>
                <path id="Trazado_190" data-name="Trazado 190" d="M36.148,42.657c1.176,0,2.127,1.306,2.127,2.921S37.325,48.5,36.148,48.5s-2.127-1.313-2.127-2.921.951-2.921,2.127-2.921" transform="translate(-10.922 -13.65)" fill="#231f20"/>
                <path id="Trazado_191" data-name="Trazado 191" d="M97.124,26.315c.089-.089.294-.027.274.116a3.554,3.554,0,0,1-.711,1.662,11.331,11.331,0,0,0,3.488,1.553,7.816,7.816,0,0,0,4.248.233c1.265-.465-.034-1.689-.663-2.12a6.931,6.931,0,0,0-1.477-.773,2.222,2.222,0,0,1-.54-.116.267.267,0,0,1-.116-.1.635.635,0,0,1-.089-.027c-.144-.034-.1-.226.034-.239h.021a.194.194,0,0,1,.15-.116,16.664,16.664,0,0,1,1.854-.075c.534-.048,1.826-.109,2.12-.684.527-1.005-1.464-1.142-1.97-1.108a9.208,9.208,0,0,0-2.025.335.247.247,0,0,1-.157.048,1.679,1.679,0,0,0-.2.055c-.144.048-.205-.15-.1-.226a.143.143,0,0,0,.041-.027.287.287,0,0,1,.055-.315,23.079,23.079,0,0,1,1.97-1.573c.547-.472,1.792-1.375,1.7-2.216-.075-.657-1.2-.93-1.717-.787a3.472,3.472,0,0,0-1.532,1.005c-.547.554-1.026,1.183-1.594,1.717-.014.021-.027.048-.041.068a.306.306,0,0,1-.192.13c-.075.062-.15.137-.233.2-.137.1-.26-.109-.164-.219l.082-.1a.27.27,0,0,1-.034-.233,10,10,0,0,0,.6-5c-.356-1.512-1.744,1-1.908,1.477-.534,1.628-.246,3.317-.643,4.945a.142.142,0,0,1-.274.007.262.262,0,0,1-.233-.137c-.445-.718-.725-1.546-1.238-2.23-.144-.192-1.573-1.573-1.772-.54a2.721,2.721,0,0,0,.055,1.149,9.448,9.448,0,0,0,2.579,4.59c.109-.1.239-.212.349-.328M80.3,50.535a5.083,5.083,0,0,0,2,1.272c1.163.349,1.5-.588,1.464-1.573a15.124,15.124,0,0,0-1.053-4.644A10.758,10.758,0,0,0,80.3,50.535m-.363-1.279a1.648,1.648,0,0,1-.39.171,2.379,2.379,0,0,0,.219.438,3.962,3.962,0,0,1,.137-.534c.014-.027.021-.048.034-.075m-3.659-5.321a1.565,1.565,0,0,0,1.436.13,1.877,1.877,0,0,0,.622-1.539c-.684.479-1.368.951-2.059,1.409m.219.657c.356,1.416,1.512,4.651,2.722,4.213,1.518-.54,1.156-3.078.8-4.227a18.816,18.816,0,0,0-.951-2.339,4.044,4.044,0,0,1-.226,1.313,1.624,1.624,0,0,1-2.346,1.04m2.818,5.828a11.707,11.707,0,0,0-5.1-2.921,11.188,11.188,0,0,0,1.334,3.249c.451.814,1.5,2.886,2.688,2.736.834-.1,1.142-1.512,1.361-2.715-.1-.116-.192-.233-.28-.349m-4.549-8.434c.308-.192.622-.383.93-.581a4.434,4.434,0,0,1-1.73-.629,5.992,5.992,0,0,0,.8,1.211M72,34.03a8.851,8.851,0,0,1-.431,2.394,8.62,8.62,0,0,0,1.977,3.023c.684.609,2.059,1.587,3.071,1.163,1.259-.527.65-3.071.431-4.022a13.109,13.109,0,0,0-1.484-4.241c-.663-1.012-1.477-1.9-2.216-2.859a5.482,5.482,0,0,1-.882-1.361c-.027-.048-.062-.089-.1-.144a34.753,34.753,0,0,1-.1,3.776c0,.014.007.027.007.041a.273.273,0,0,1-.027.212c-.062.677-.144,1.347-.246,2.018m-3.81,14.357a17.723,17.723,0,0,0-1.6.93,11.957,11.957,0,0,0,3.6,6.306c.28-2.414-.862-5.15-2-7.237m-.91-2.305c.869-.383,1.73-.746,2.476-1.156,1.525-.834,3.016-1.71,4.5-2.62a2.177,2.177,0,0,1-.588-1.614.14.14,0,0,1,.055-.089,8.4,8.4,0,0,1-2.565-3.222c-.109.205-.226.41-.349.6a4.04,4.04,0,0,1-.561.65,66.842,66.842,0,0,1-3.8,7.127.565.565,0,0,1,.431.192,1.043,1.043,0,0,1,.4.13m-4.049,99.329c-1.833.568-6.84,4.8-4.1,6.669a.1.1,0,0,1,.034.068,9.984,9.984,0,0,0,4.61.862,8.535,8.535,0,0,0,5.109-1.341,3.774,3.774,0,0,0-.39-1.32,15.184,15.184,0,0,0-1.32-2.031c-.7-.917-1.908-2.743-3.235-2.955a.041.041,0,0,0-.007.027.247.247,0,0,1-.472,0,.051.051,0,0,1-.007-.034,1.355,1.355,0,0,0-.226.055M57.727,54.768c2.551,5.622,2.319,11.949,3.242,17.955a34.024,34.024,0,0,1,.643,9.077c-.055.486-.13,1.238-.287,2.025a13.7,13.7,0,0,0,7.2-3.112c-.109-.575-.219-1.156-.342-1.73A81.081,81.081,0,0,0,63.923,64.9a46.593,46.593,0,0,0-2.989-6.341l-.068-.021a.236.236,0,0,1-.123-.308l-.021-.021a20.641,20.641,0,0,1-2.339-3.885c-.219.15-.438.3-.657.445M60,70.774c-.718-5.274-.643-10.67-2.88-15.595-.308.2-.622.383-.93.575a52.346,52.346,0,0,1,2,15.171,63.382,63.382,0,0,1-.219,7.647c-.219,2.025-.684,4.815.458,6.648.472.752,1.053,1.3,1.546.26a9.421,9.421,0,0,0,.7-2.107,17.313,17.313,0,0,0,.349-4.111C60.934,76.4,60.38,73.6,60,70.774M57.733,14.016c1.477,2.565,3.331,4.9,4.528,7.626.417.951.821,1.929,1.2,2.914q-.4-1.375-.841-2.729a24.665,24.665,0,0,1-1.512-5.212c-.007-.055.075-.075.1-.027a37.943,37.943,0,0,1,1.751,5.144,38.015,38.015,0,0,1,1.388,5.356,34.659,34.659,0,0,1,.917,3.475,4.667,4.667,0,0,1,1.313-1.813c-1.265-2.613-1.689-5.527-2.825-8.181-.021-.041.034-.075.055-.034,1.279,2.572,1.977,5.342,3.133,7.962a2.732,2.732,0,0,1,1.676-.363A3.227,3.227,0,0,1,71.057,29.8a30.429,30.429,0,0,0-1.7-4.87,15.784,15.784,0,0,0-2.585-3.707c.581,1.683.971,3.447,1.443,5.164.007.021-.034.027-.041.007-.622-1.97-1.436-3.878-2.045-5.855-.4-.4-.814-.793-1.238-1.183A47.4,47.4,0,0,0,58.5,14.5a.333.333,0,0,1-.082.007c-.041,0-.034-.048-.007-.062-.226-.137-.451-.28-.677-.424M53.315,57.265a33.265,33.265,0,0,1-6.792,2.257c.239,1.347.848,2.825,2.319,3.133a3.506,3.506,0,0,0,3.454-.978A9.3,9.3,0,0,0,54.033,58.7c.28-.691.472-1.512.814-2.2-.506.267-1.012.52-1.532.759M41.222,82.744c2.305,1.6,5.588,1.9,8.276,2.066a32.064,32.064,0,0,0,4.726-.027c1.067-.1,2.072-.458,3.112-.616a8.9,8.9,0,0,1-.26-1.9c-.055-2.647.356-5.308.41-7.962a75.3,75.3,0,0,0-1.662-18.331c-.089.048-.185.1-.267.144a.4.4,0,0,1,.075.287,13.719,13.719,0,0,1-1.573,4.042,5.615,5.615,0,0,1-2.791,2.811,3.983,3.983,0,0,1-5.28-3.016,42.94,42.94,0,0,0-2.066,7.8c-.315,1.553-.7,3.085-.882,4.665-.178,1.484-.28,2.982-.465,4.466a16.777,16.777,0,0,1-1.354,5.575m-3.228-1.785c-.1.684-.663,4.713,1.156,3.379a6.934,6.934,0,0,0,2.257-4.179,78.586,78.586,0,0,0,1.026-7.907c.294-2.312.848-4.617,1.334-6.895a28.945,28.945,0,0,1,1.683-5.622c-.4.068-.807.13-1.211.178-.547,2.387-1.32,4.726-1.956,7.086s-1.313,4.685-2.168,6.984a37.821,37.821,0,0,0-2.12,6.977M36.844,69.3a7.485,7.485,0,0,1-2.066-4.6c-2.681.944-5.41,1.772-8.071,2.6,1.963,3.208,4.945,5.622,6.874,8.844.978-2.346,2.12-4.637,3.263-6.847M34.635,80.274c.821.41,1.7.7,2.531,1.088a35.117,35.117,0,0,1,1.7-5.944c.971-2.709,1.881-5.4,2.633-8.181a54.016,54.016,0,0,1,2-6.5c-.4.246-.821.486-1.238.718a49.764,49.764,0,0,0-5.027,8.468c-1.587,3.1-2.893,6.347-4.446,9.46a7.939,7.939,0,0,1,1.847.889m-9.6-70.437c.356-.226.7-.458,1.047-.7a2.968,2.968,0,0,1-.349,0,.2.2,0,0,1-.055.13,5.151,5.151,0,0,1-.643.568m2.8-1.1A27.449,27.449,0,0,1,24.6,10.419a2.083,2.083,0,0,1-.451.534.327.327,0,0,1,.26.356A34.08,34.08,0,0,1,38.137,7.689,32.831,32.831,0,0,1,53.192,10.8a45,45,0,0,1,12.791,8.577,17.943,17.943,0,0,1,4.282,5.862,29.074,29.074,0,0,1,1.32,3.83,22.979,22.979,0,0,0-.28-4.788A21.761,21.761,0,0,0,69,17.908c-.445-.855-.937-1.689-1.457-2.517C64.375,10.35,60.162,5.542,54.731,2.9,46.112-1.284,35.025,1.39,27.412,6.971q-.862.636-1.662,1.313a7.142,7.142,0,0,0,1.088.089c.157,0,.308-.007.465-.021a9.646,9.646,0,0,1,.9-.492,20.533,20.533,0,0,1,5.144-1.573,19.324,19.324,0,0,1,5.616-.239c1.943.226,3.844.718,5.787,1,.171.027.13.321-.048.308-1.929-.13-3.817-.554-5.739-.7a20.516,20.516,0,0,0-5.855.356,18.437,18.437,0,0,0-5.274,1.73M26.591,80.268c-.609-.13-2.975-.472-2.216.9a6.181,6.181,0,0,0,2.462,2.107,9.735,9.735,0,0,0,1.423.691,3.878,3.878,0,0,1,.978.356c.014.007.021.027.034.041.205-.438.417-.876.629-1.306a18.525,18.525,0,0,1,2.77-4.678.123.123,0,0,1,.068-.041c.2-.547.4-1.081.609-1.621-.027-.014-.062-.034-.1-.048a.242.242,0,0,1-.055.089,13.47,13.47,0,0,1-1.218.814A11.087,11.087,0,0,0,30.5,78.92c-.814.869-1.566,1.792-2.421,2.613-.075.068-.205-.021-.144-.109.219-.328.445-.657.663-.978a3.591,3.591,0,0,1-2.011-.178m1.334,8.611c-1.286,2.592-2.715,5.349-5.062,7.141-.007,1.99,1.628,3.81,2.845,5.233a31.984,31.984,0,0,0,4.248,4.412c3.728,2.941,8.3,4.022,12.825,5.13,4.767,1.17,9.938,2.291,14.863,1.512a19.718,19.718,0,0,0,4.549-1.347v-.144c.431-.137.862-.287,1.286-.445,2.435-1.176,4.74-2.661,7.107-4,1.238-3.83.137-8.331-.253-12.223-.424-4.207-.917-8.413-1.662-12.579a11.024,11.024,0,0,1-7.455,2.77c-.308,1.245-.848,2.435-1.895,2.572-.725.1-1.4-1.094-1.614-1.607-.062-.15-.109-.3-.164-.451a8.229,8.229,0,0,1-3.317.657,32.069,32.069,0,0,1-5.315-.034,24.826,24.826,0,0,1-5.007-.862,6.983,6.983,0,0,1-2.927-1.43c-.041.068-.082.15-.13.226-.479.725-1.334,1.895-2.346,1.86-1.327-.055-1.607-1.45-1.43-3.181a10.153,10.153,0,0,1-2.531-1.122,7.278,7.278,0,0,1-1.956-1.17c-.15.287-.294.581-.451.869A.071.071,0,0,1,32,80.61c.027-.1.068-.212.1-.321q-2.052,4.319-4.172,8.591M25.148,9.057c-2.722-.547-5.424-3.468-5.027-6.122A6.64,6.64,0,0,0,20.613,8.2a3.017,3.017,0,0,0,2.011,1.635,3.99,3.99,0,0,0,2.524-.78m-4.124,5.451c-1.389,2.975-3.133,5.766-4.35,8.817a27.071,27.071,0,0,0-2.168,9.849C14.457,46.5,26.331,58.756,39.656,59.338c.321.021.643.021.964.021a7.125,7.125,0,0,1,2.579-.513.938.938,0,0,1,.711.342c.725-.082,1.443-.205,2.161-.342.007-.021.007-.048.014-.075a.17.17,0,0,1,.328.007A30.562,30.562,0,0,0,56.872,54.55a.376.376,0,0,1,.534-.349c.616-.417,1.218-.855,1.8-1.32a30.9,30.9,0,0,0,6.306-6.806,50,50,0,0,0,3.714-6.792,3.474,3.474,0,0,1-3.871-1.347c-.2-.253.068-.7.369-.486.807.6,1.915,1.662,3.03,1.231a3.177,3.177,0,0,0,1.149-.814c.014-.027.021-.048.034-.075a.279.279,0,0,1,.15-.144,3.842,3.842,0,0,0,.506-.876c.055-.123.1-.253.15-.383-.014-.041-.034-.082-.048-.123a.346.346,0,0,1,.233-.438,8.416,8.416,0,0,0,.267-3.194c-.171-1.518-.944-3.858-2.866-3.858-1.854,0-2.8,2-3.386,3.481a.092.092,0,0,1-.178-.048,6.03,6.03,0,0,1,.267-1.047A83.243,83.243,0,0,0,61.42,21.123c-1.2-2.544-3.092-4.754-4.138-7.367a41.786,41.786,0,0,0-4.473-2.3,31.856,31.856,0,0,0-15.089-3c-4.973.376-9.391,2-13.988,3.707-1.984,2.8-.41,6.84-.506,10.055-.007.109-.164.137-.185.027a30.173,30.173,0,0,1-.958-6.388,14.716,14.716,0,0,1,.062-1.5,18.018,18.018,0,0,0-1.512,3.625,16.475,16.475,0,0,0-.246,6.388c.014.116-.178.164-.226.062a9.536,9.536,0,0,1-.342-6.245,20.714,20.714,0,0,1,1.286-3.721c-.014.014-.027.021-.041.034a.1.1,0,0,1-.041.014M15.08,10.337c.609,1.71,1.956,3.3,3.865,3.3a5.136,5.136,0,0,0,3.7-1.943,10.636,10.636,0,0,1-3.57.3,6.057,6.057,0,0,1-3.994-1.655M11.222,41.588c.027,1-.007,3.317,1.04,3.906.787.438,1.669-.492,2-1.115a16.443,16.443,0,0,0,.9-2.777,22.844,22.844,0,0,1-1.388-9.213c.034-.588.1-1.183.178-1.772a28.232,28.232,0,0,0-2.326,6.334,20.316,20.316,0,0,0-.4,4.637m.068,12.736c.075,1.081.746,4.836,2.2,3.263a6.5,6.5,0,0,0,1.32-3.953,6.505,6.505,0,0,0-3.523.691m-.773-8.194c-.055,1.053-.226,3.023.9,3.639,1.423.766,2.038-2.141,2.271-3.728a2.175,2.175,0,0,1-.828.287c-1.368.157-1.922-1.3-2.148-2.462-.055.759-.171,1.525-.2,2.264m.062,3.919a30.659,30.659,0,0,0,.062,3.167c0,.021-.007.041-.007.062a3.342,3.342,0,0,1,.164.636.333.333,0,0,1,.267-.034,2.765,2.765,0,0,1,1.108-.609.2.2,0,0,1-.1-.233c.116-.547.451-1.019.568-1.573a5.784,5.784,0,0,0,.123-1.231,1.447,1.447,0,0,1-1.156.335,1.841,1.841,0,0,1-1.033-.52m-2.88.294a4.808,4.808,0,0,0,.164,4.268c.246.451.691,1.2,1.306,1.183.752-.021,1.067-.787,1.423-1.361a4.029,4.029,0,0,0-.349-1,.262.262,0,0,1-.13-.15c-.021-.068-.034-.137-.055-.212A13.205,13.205,0,0,0,7.7,50.343m-4.473,88.5a53.121,53.121,0,0,0,2.6,5.321c1.005,1.772,2.579,3.919,4.576,4.555a5,5,0,0,0-.075-1.648,16.547,16.547,0,0,0-1.033-2.982c-.814-1.826-1.792-3.57-2.64-5.376-1.347-2.9-2.059-7.736-5.4-9.056-1.724.7,1.573,8.283,1.97,9.186m1.047-7.729a6.967,6.967,0,0,0-1.047-.773c2.107,1.908,2.88,5.8,3.974,8.051.971,2.011,2.093,3.953,2.934,6.026a10,10,0,0,1,1.04,4.159c1.471-.992,1.587-3.317,1.2-4.973a19.362,19.362,0,0,0-3.543-6.86,38.13,38.13,0,0,0-4.555-5.629m-.985-1.464A8.793,8.793,0,0,1,5.983,132a57.955,57.955,0,0,1,5.034,6.724,21.583,21.583,0,0,1,1.423,2.77c1.108-1.758,2.784-3.352,3.817-4.932,2.175-3.317,4.726-6.341,6.963-9.6,3.967-5.8,7.291-12,10.985-17.975a18.565,18.565,0,0,1-5.862-3.735,39.264,39.264,0,0,1-4.131-4.767c-.862-1.156-1.956-2.674-1.813-4.207a.4.4,0,0,1-.178-.718c2.633-1.881,4.118-5.116,5.492-7.955.438-.91.876-1.819,1.306-2.729a2.834,2.834,0,0,1-1.252-.369,10.951,10.951,0,0,1-1.792-.951c-.848-.547-2.038-1.327-2.326-2.373A1.426,1.426,0,0,1,25.059,79.4a7.424,7.424,0,0,1,2.114.376c.4.109,1.2.458,1.614.267a.175.175,0,0,1,.1,0,20.433,20.433,0,0,1,1.4-1.772,5.883,5.883,0,0,1,2.449-1.888A22.593,22.593,0,0,1,24.115,67.2a1.132,1.132,0,0,1,.663-1.628c3.331-1.067,6.71-2.059,9.966-3.338,1.327-.52,2.777-1.423,4.261-2.161a23.632,23.632,0,0,1-4.432-.746,29.3,29.3,0,0,1-14.781-9.692,27.953,27.953,0,0,1-4.1-6.717,5.729,5.729,0,0,1-1.272,2.531,6.338,6.338,0,0,1-1.388,4.542,3.465,3.465,0,0,1-.527,3.174,8.694,8.694,0,0,1,2.64-.15.324.324,0,0,1,.321.315c-.021,1.4-.479,4.918-2.319,5.178a1.573,1.573,0,0,1-1.532-.622c.055.417.089.841.116,1.265a31.468,31.468,0,0,1,.814,4.6c.089.978.041,1.963.137,2.941.027.315.164.889-.137,1.129a.344.344,0,0,1-.561-.15.458.458,0,0,1-.048-.212.234.234,0,0,1,.062-.226c-.007-.109-.014-.226-.021-.335-.021-.226-.048-.465-.048-.7.007-1.108-.041-2.2-.123-3.3-.021-.274-.048-.547-.082-.814a42.153,42.153,0,0,1-.876,6.122.367.367,0,0,1-.7,0,2.832,2.832,0,0,1-.027-1.047.323.323,0,0,1,.246-.253,38.854,38.854,0,0,0,.677-9.248q-.092-.616-.144-1.231a.06.06,0,0,1,.034-.062c-.034-.137-.068-.274-.1-.417-.773,3.7-2.161,7.326-3.194,10.951-.13.479-.9.253-.732-.2a79.4,79.4,0,0,1,3.618-11.033c-.062.062-.123.123-.178.171-1.074,1.73-2.5,3.235-3.7,4.87-.6.821-1.115,1.662-1.648,2.517-.185.294-.376.581-.534.889a3,3,0,0,0-.253.54v.021a.267.267,0,0,1-.082.472c-1.676.424.527-2.859.732-3.174a52.727,52.727,0,0,1,4.6-5.691,1.712,1.712,0,0,1-1.751-.807,5.283,5.283,0,0,1-.321-5.752.3.3,0,0,1,.451-.055A19.39,19.39,0,0,1,9.916,51.95a14.017,14.017,0,0,1,.246-2.373.169.169,0,0,1,.027-.062c-1.005-1.908-.055-5.752.321-7.175.007-.014.014-.014.014-.027A20.673,20.673,0,0,1,14.2,29.071a39.129,39.129,0,0,1,6.915-15.212,3.966,3.966,0,0,1-3.276.287c-1.915-.752-3.762-2.784-3.331-4.959-.014-.062-.027-.123-.041-.178a.079.079,0,0,1,.1-.089c.007-.027.014-.048.021-.075a.073.073,0,0,1,.144.021,5.478,5.478,0,0,0,.109.657c.834,1.539,3.112,1.9,4.713,1.874a9.082,9.082,0,0,0,2.934-.431,4.565,4.565,0,0,0,.964-.5,3.21,3.21,0,0,1-3.181-1.546,6.481,6.481,0,0,1-.109-6.785.1.1,0,0,1,.171-.014,3.4,3.4,0,0,1,.171-.356c.082-.144.267-.034.246.1a5.607,5.607,0,0,0,4.576,6.341A10.054,10.054,0,0,1,26.5,7.019a29.451,29.451,0,0,1,14.6-6.4C46.359-.19,51.714.22,56.386,2.963A35.833,35.833,0,0,1,68.739,15.973,24.15,24.15,0,0,1,72.124,24.9c.1.752.164,1.525.205,2.3.219.26.445.52.67.793.752.821,1.45,1.778,2.148,2.62a9.649,9.649,0,0,1,1.778,2.88,17.324,17.324,0,0,1,1.142,4.48l.007.007c.178.479.369.992.54,1.532.349-.239.711-.472,1.06-.711,3.454-2.367,6.826-4.843,10.191-7.326,2.052-1.518,4.535-2.736,6.477-4.425a6.66,6.66,0,0,1-2.264-3.181c-.369-.971-.889-2.264-.506-3.3.294-.793,1.464-.732,2.038-.308a6.109,6.109,0,0,1,1.71,2.449c-.055-1.9.034-3.919,1.218-5.458.335-.424,1.272-1.546,1.888-.821.629.752.52,2.066.438,2.969a15.765,15.765,0,0,1-.233,1.922,6.314,6.314,0,0,1,2.066-1.9,2.21,2.21,0,0,1,2.866.8c.4.923-.588,1.929-1.19,2.5-.527.492-1.094.964-1.676,1.416,1.566-.4,3.625-.294,3.68,1.354.034,1.012-1.518,1.45-2.873,1.532,1.354.643,2.64,1.792,1.854,2.934-.7,1.019-2.88.725-3.865.575a13.077,13.077,0,0,1-5.205-1.949,38.312,38.312,0,0,1-3.94,3.16C89.087,34.5,85.736,37.19,82.268,39.7c-.882.636-1.778,1.286-2.674,1.936a12.137,12.137,0,0,1,1.388,4.186,5.906,5.906,0,0,1,0,1.047,7.6,7.6,0,0,1,1.635-2.114.338.338,0,0,1,.561.144,20.345,20.345,0,0,1,1.1,3.8c.157.937.424,2.339-.178,3.187-.684.964-1.806.821-2.845.239a27.328,27.328,0,0,1,4.46,6.888,38.243,38.243,0,0,1,1.313,3.762c.294.971.752,1.908,1.019,2.866a.321.321,0,0,1-.534.308,5.913,5.913,0,0,1-1.088-2.661c-.321-1.115-.629-2.23-1.033-3.311a22.419,22.419,0,0,0-2.2-4.22,27.507,27.507,0,0,1,1.033,2.585c.616,1.833.992,3.707,1.683,5.513.1.253-.26.54-.486.369a3.51,3.51,0,0,1-.9-1.881c-.274-1.005-.486-2.031-.759-3.03A27.668,27.668,0,0,0,81.18,53.25q.893,2.6,1.73,5.205c.431,1.341.848,2.688,1.19,4.042.123.513.41,1.19.014,1.642-.192.219-.492-.021-.451-.267-.034.178-.178-.568-.212-.718-.109-.52-.246-1.026-.383-1.532-.369-1.334-.766-2.654-1.149-3.974A38.037,38.037,0,0,1,80.3,51.684a1.378,1.378,0,0,1-.1-.171.149.149,0,0,1-.007-.15.894.894,0,0,1-.082-.075c-.007.014-.007.027-.014.034a4.824,4.824,0,0,1,.226,1.047c.185,1.231.253,2.49.349,3.735.109,1.45.178,2.907.39,4.35.068.451.123,1.792.629,2.045a.3.3,0,0,1,0,.506c-1.5.643-1.58-4.261-1.628-4.932-.109-1.5-.171-3-.219-4.507-.007-.164-.062-.527-.109-.923-.342.923-.951,1.86-2.045,1.423-1.347-.527-2.223-1.99-2.859-3.215a11.526,11.526,0,0,1-1.4-3.83c-.027-.246.246-.39.451-.342a11.686,11.686,0,0,1,3.14,1.156,7.977,7.977,0,0,1-.855-3.386,3.838,3.838,0,0,1-.369-.2A47.157,47.157,0,0,1,71,47.039c-.711.342-1.423.67-2.127,1.012a13.23,13.23,0,0,1,2.052,7.7.331.331,0,0,1,.239.554c-2.12,2.456-6.238,3.276-9.4,2.5a59.3,59.3,0,0,1,3.119,6.724A81.274,81.274,0,0,1,69.108,80.1c.014.075.027.157.041.239a.3.3,0,0,1,.219.52c-.034.034-.068.075-.109.116.841,4.644,1.4,9.336,1.86,14.042.335,3.44,1.293,7.435.349,10.9a.36.36,0,0,1,.239.663c-.192.116-.383.233-.581.349-.048.116-.089.233-.137.342a.334.334,0,0,1-.54.062c-1.915,1.163-3.858,2.367-5.869,3.393.014,5.985.068,11.97.034,17.955-.021,5.205.465,10.875-.54,16.026,1.368.26,2.51,1.689,3.324,2.715.609.773,2.38,2.791,2.346,4.186a.334.334,0,0,1-.021.212,1.164,1.164,0,0,1-.205.492.366.366,0,0,1-.267.137c-1.375,1.279-4.446,1.354-5.978,1.286-1.676-.075-3.912-.376-4.9-1.84-2.428-1.744,2.681-6.313,4.33-7.031a2.375,2.375,0,0,1,.616-.171c-1.081-5.424-.732-11.423-.862-16.908-.123-5.321-.233-10.65-.26-15.971a19.5,19.5,0,0,1-5.185,1.347c-5.226.54-10.52-.6-15.561-1.908-1.772-.458-3.55-.917-5.26-1.5-3.912,6.32-7.394,12.921-11.778,18.933-2.339,3.194-4.891,6.224-7.23,9.425a63.324,63.324,0,0,1-4.261,4.822,8.38,8.38,0,0,1,.294,2.893c-.13,1.655-.732,3.194-2.353,3.735a.143.143,0,0,1-.027.041.292.292,0,0,1-.424.055.356.356,0,0,1-.3-.287c-2.134-.711-3.817-2.941-4.884-4.843a56.781,56.781,0,0,1-3.071-6.532c-.26-.663-3.03-7.886-1.4-8.728a.484.484,0,0,1-.082-.123A.077.077,0,0,1,.8,129.05a5.284,5.284,0,0,0,1.053.137,5.787,5.787,0,0,1,1.436.465" transform="translate(-0.251 -0.249)" fill="#231f20"/>
              </g>
            </g>
          </g>
        </g>
      </g>
    </g>
  </g>
</svg>
