<svg xmlns="http://www.w3.org/2000/svg" xmlns:xlink="http://www.w3.org/1999/xlink" width="31.716" height="34.322" viewBox="0 0 31.716 34.322">
  <defs>
    <clipPath id="clip-path">
      <rect id="Rectángulo_3" data-name="Rectángulo 3" width="31.716" height="34.322" transform="translate(0 0)" fill="none"/>
    </clipPath>
  </defs>
  <g id="carrito-icon" transform="translate(0 0)">
    <g id="Grupo_4" data-name="Grupo 4" clip-path="url(#clip-path)">
      <path id="Trazado_5" data-name="Trazado 5" d="M3.342,7.463H28.375a1.346,1.346,0,0,1,1.31,1.309l1.309,23.52a1.3,1.3,0,0,1-1.309,1.31H2.032a1.294,1.294,0,0,1-1.31-1.31l1.31-23.52A1.34,1.34,0,0,1,3.342,7.463Zm6.836,2.808a1.619,1.619,0,1,1-1.62,1.619A1.619,1.619,0,0,1,10.178,10.271Zm11.36,0a1.619,1.619,0,1,1-1.619,1.619A1.619,1.619,0,0,1,21.538,10.271Zm-.168.791V6.232a5.512,5.512,0,0,0-11.024,0v4.83" fill="none" stroke="#00b2d0" stroke-miterlimit="22.926" stroke-width="1.44"/>
    </g>
  </g>
</svg>
