<svg width="25" height="25" viewBox="0 0 25 25" fill="none" xmlns="http://www.w3.org/2000/svg">
<circle cx="12.5" cy="12.5" r="12.5" fill="#01D660"/>
<mask id="mask0_24_1141" style="mask-type:alpha" maskUnits="userSpaceOnUse" x="2" y="1" width="21" height="20">
<rect x="2.5" y="1" width="20" height="20" fill="#D9D9D9"/>
</mask>
<g mask="url(#mask0_24_1141)">
<mask id="mask1_24_1141" style="mask-type:alpha" maskUnits="userSpaceOnUse" x="2" y="1" width="21" height="20">
<rect x="2.5625" y="1.06171" width="19.8754" height="19.8764" fill="#D9D9D9"/>
</mask>
<g mask="url(#mask1_24_1141)">
<mask id="mask2_24_1141" style="mask-type:alpha" maskUnits="userSpaceOnUse" x="2" y="1" width="21" height="20">
<rect x="2.5625" y="1.06171" width="19.8754" height="19.8764" fill="#D9D9D9"/>
</mask>
<g mask="url(#mask2_24_1141)">
<path d="M21.5205 4.10162C21.5732 4.23528 21.656 4.53229 21.7889 4.75257C21.4353 5.31689 21.0942 5.88864 20.7581 6.46781C20.5851 6.22278 20.4121 5.97774 20.2365 5.73271C20.2139 5.69806 20.1838 5.67578 20.1562 5.65351C20.5375 4.97781 20.9212 4.3021 21.3049 3.6264C21.3801 3.79966 21.4654 3.96549 21.5205 4.10162Z" fill="white"/>
<path d="M20.2671 7.06678C20.2946 7.10638 20.3298 7.13113 20.3624 7.15588C20.0514 7.70535 19.7404 8.25482 19.437 8.80677C19.2213 8.55678 19.0081 8.3068 18.7949 8.05681C19.1159 7.48754 19.4395 6.91827 19.7605 6.349C19.931 6.58908 20.099 6.82917 20.2671 7.06678Z" fill="white"/>
<path d="M19.0554 9.50726C18.7595 10.0493 18.4635 10.5914 18.1676 11.1359C17.9319 10.8908 17.6986 10.6483 17.4629 10.4032C17.7764 9.8513 18.0899 9.29936 18.4034 8.74493L19.0454 9.49736C19.0479 9.50231 19.0529 9.50231 19.0554 9.50726Z" fill="white"/>
<path d="M17.6966 11.7249C17.7317 11.7596 17.7668 11.7794 17.8044 11.7967C17.6088 12.1531 17.4157 12.5071 17.2176 12.861C17.1173 13.0417 17.0119 13.2224 16.9066 13.4006L16.2144 12.6135C16.2144 12.6135 16.2119 12.6135 16.2119 12.611C16.5003 12.1012 16.7912 11.5913 17.0796 11.0814C17.2853 11.2968 17.4909 11.5096 17.6966 11.7249Z" fill="white"/>
<path d="M15.8229 13.2991C16.0511 13.559 16.2819 13.8188 16.5101 14.0812C16.2417 14.5341 15.9709 14.9896 15.7 15.4475C15.4818 15.1975 15.2637 14.95 15.043 14.7C15.1157 14.5564 15.1884 14.4178 15.2612 14.2891C15.4467 13.9599 15.6348 13.6283 15.8229 13.2991Z" fill="white"/>
<path d="M15.2156 16.0291C15.2482 16.0662 15.2833 16.086 15.3184 16.1058C15.0877 16.5043 14.862 16.9078 14.6463 17.3137L14.082 16.7494C14.2952 16.3039 14.4983 15.8534 14.694 15.4326C14.867 15.6306 15.0426 15.8286 15.2156 16.0291Z" fill="white"/>
<path d="M14.2832 18.0067C14.2857 18.0092 14.2907 18.0092 14.2932 18.0117C14.0023 18.6032 13.7415 19.2022 13.5208 19.8111C13.3101 19.576 13.0969 19.3557 12.8436 19.1651C12.7809 19.1181 12.7157 19.0661 12.6455 19.0141C13.0443 18.6156 13.4004 18.0612 13.7289 17.4523C13.912 17.6355 14.0976 17.8211 14.2832 18.0067Z" fill="white"/>
<path d="M12.3746 19.6279C12.4724 19.7566 12.5728 19.8804 12.6781 20.0042C11.9658 20.0264 11.2486 20.1329 10.5514 20.0735C10.0674 20.0314 9.85419 19.821 9.62598 19.5859C10.5063 19.6403 11.4818 19.6997 12.164 19.368C12.2342 19.4571 12.3094 19.5438 12.3746 19.6279Z" fill="white"/>
<path d="M22.1833 3.84671C22.2685 4.05709 22.5268 4.53973 22.4065 4.81694C22.409 4.86892 22.404 4.92337 22.3764 4.98277C21.0096 7.79448 19.3669 10.4874 17.8546 13.2273C16.5355 15.6183 15.3843 18.2765 13.6213 20.3828C13.6062 20.4843 13.541 20.5759 13.4056 20.6031C12.6959 20.7516 11.9661 20.811 11.2463 20.8655C10.7648 20.9051 10.1629 21.0288 9.69893 20.8209C9.36287 20.6674 8.78856 20.0239 8.64812 19.5462C8.49012 19.5413 8.34215 19.4522 8.2619 19.321C6.37596 16.1553 4.51008 12.9773 2.62916 9.80921C2.43103 9.47754 2.70941 9.17311 3.00785 9.14341C4.65303 8.06427 6.34837 7.06185 8.03117 6.03964C8.28447 5.88618 8.60799 6.03716 8.69075 6.30447L8.75847 6.53466C9.5008 6.78217 10.4513 7.09155 10.9303 7.6435C11.294 8.06179 11.3792 8.58404 11.5121 9.10628C11.6651 9.7102 11.8131 10.3166 11.946 10.9279C14.4414 7.70785 16.9392 4.49023 19.4396 1.27261C19.6102 1.0548 19.9036 0.973121 20.1268 1.18598C20.6033 1.63892 21.0773 2.09186 21.5538 2.54481C21.6416 2.62896 21.6792 2.75024 21.6716 2.86904C21.9199 3.12398 22.0729 3.58187 22.1833 3.84671ZM21.7895 4.75259C21.6566 4.53231 21.5738 4.2353 21.5212 4.10164C21.466 3.96551 21.3807 3.79968 21.3055 3.62642C20.9218 4.30212 20.5381 4.97782 20.1569 5.65352C20.1845 5.6758 20.2146 5.69808 20.2371 5.73273C20.4127 5.97776 20.5857 6.2228 20.7588 6.46783C21.0948 5.88866 21.4359 5.31691 21.7895 4.75259ZM20.7362 2.95815C20.6785 2.88389 20.5782 2.74529 20.3926 2.63886C20.1995 2.52748 20.0189 2.34185 19.8484 2.15622C16.8364 6.03964 13.8219 9.92059 10.8049 13.8015C10.5842 14.0837 10.1253 14.0837 10.0074 13.6976C9.34281 11.4972 8.66066 9.30181 7.99606 7.09898C6.54399 7.97516 5.09693 8.85382 3.61727 9.6805C5.19975 12.3437 6.79729 14.997 8.37225 17.6627C8.50517 17.8854 8.65815 18.2938 8.84624 18.5785C8.929 18.5809 9.11459 18.628 9.28512 18.6131C9.78671 18.571 10.3033 18.6007 10.8074 18.5958C11.0657 18.5908 11.4595 18.6527 11.7604 18.6205C11.9962 18.3532 12.1617 17.8953 12.3272 17.6058C14.2332 14.2718 16.1367 10.9379 18.0402 7.6039C18.8151 6.24755 19.5174 4.80704 20.3751 3.50019C20.4553 3.37644 20.6284 3.15863 20.7362 2.95815ZM20.3625 7.15591C20.3299 7.13116 20.2948 7.10641 20.2672 7.0668C20.0992 6.8292 19.9312 6.58911 19.7606 6.34903C19.4396 6.9183 19.1161 7.48757 18.7951 8.05684C19.0083 8.30683 19.2214 8.55681 19.4371 8.8068C19.7406 8.25485 20.0515 7.70538 20.3625 7.15591ZM18.1681 11.1359C18.464 10.5913 18.76 10.0493 19.0559 9.50725C19.0534 9.5023 19.0484 9.5023 19.0459 9.49735L18.4038 8.74492C18.0904 9.29934 17.7769 9.85128 17.4634 10.4032C17.6991 10.6483 17.9324 10.8908 18.1681 11.1359ZM17.8045 11.7967C17.7668 11.7794 17.7317 11.7596 17.6966 11.7249C17.491 11.5096 17.2853 11.2967 17.0797 11.0814C16.7913 11.5913 16.5004 12.1011 16.2119 12.611C16.2119 12.6135 16.2144 12.6135 16.2144 12.6135L16.9066 13.4006C17.012 13.2224 17.1173 13.0417 17.2176 12.861C17.4157 12.5071 17.6088 12.1531 17.8045 11.7967ZM16.5104 14.0812C16.2822 13.8189 16.0514 13.559 15.8232 13.2991C15.6351 13.6283 15.447 13.9599 15.2614 14.2891C15.1887 14.4178 15.116 14.5564 15.0433 14.7C15.264 14.95 15.4821 15.1975 15.7003 15.4475C15.9712 14.9896 16.242 14.5342 16.5104 14.0812ZM15.3191 16.1058C15.284 16.086 15.2489 16.0662 15.2163 16.0291C15.0433 15.8286 14.8677 15.6306 14.6947 15.4326C14.499 15.8534 14.2959 16.3039 14.0827 16.7494L14.647 17.3137C14.8627 16.9078 15.0884 16.5043 15.3191 16.1058ZM14.2934 18.0117C14.2909 18.0092 14.2859 18.0092 14.2834 18.0067C14.0978 17.8211 13.9122 17.6355 13.7291 17.4523C13.4006 18.0612 13.0445 18.6156 12.6457 19.0141C12.7159 19.0661 12.7811 19.118 12.8438 19.1651C13.0971 19.3556 13.3103 19.5759 13.521 19.8111C13.7417 19.2022 14.0025 18.6032 14.2934 18.0117ZM12.6783 20.0041C12.573 19.8804 12.4727 19.7566 12.3749 19.6279C12.3097 19.5438 12.2344 19.4571 12.1642 19.368C11.482 19.6997 10.5065 19.6403 9.6262 19.5858C9.85442 19.821 10.0676 20.0313 10.5516 20.0734C11.2488 20.1328 11.9661 20.0264 12.6783 20.0041ZM10.6043 12.6556C10.8601 12.3264 11.1159 11.9947 11.3717 11.6655C11.2965 11.423 11.2262 11.1779 11.1585 10.9304C10.7899 10.8586 10.4187 10.8116 10.0425 10.7893C10.2281 11.4106 10.4162 12.0343 10.6043 12.6556ZM10.9554 10.1458C10.9178 9.99484 10.8801 9.84386 10.8425 9.69535C10.82 9.60378 10.7999 9.5122 10.7798 9.42062C10.3761 9.24984 9.95223 9.12608 9.51836 9.05183C9.61868 9.38102 9.71899 9.7102 9.8168 10.0394C9.83686 10.0394 9.85191 10.032 9.87197 10.032C10.2356 10.0468 10.5968 10.0914 10.9554 10.1458ZM10.5441 8.55186C10.4388 8.28702 10.2908 8.04199 10.05 7.85141C9.73655 7.6039 9.35284 7.49252 9.00173 7.33659C9.09452 7.64845 9.18982 7.96031 9.28512 8.27217C9.71648 8.3291 10.1353 8.42316 10.5441 8.55186Z" fill="black"/>
<path d="M20.3925 2.63889C20.5781 2.74532 20.6784 2.88393 20.7361 2.95818C20.6283 3.15866 20.4552 3.37647 20.375 3.50023C19.5173 4.80708 18.8151 6.24758 18.0401 7.60393C16.1366 10.9379 14.2331 14.2718 12.3271 17.6058C12.1616 17.8954 11.9961 18.3533 11.7603 18.6206C11.4594 18.6528 11.0656 18.5909 10.8073 18.5958C10.3032 18.6008 9.78662 18.5711 9.28504 18.6132C9.1145 18.628 8.92892 18.581 8.84616 18.5785C8.65807 18.2939 8.50509 17.8855 8.37217 17.6627C6.7972 14.997 5.19967 12.3437 3.61719 9.68054C5.09685 8.85386 6.54391 7.9752 7.99598 7.09901C8.66057 9.30185 9.34272 11.4973 10.0073 13.6976C10.1252 14.0837 10.5841 14.0837 10.8048 13.8016C13.8218 9.92062 16.8363 6.03967 19.8483 2.15625C20.0189 2.34188 20.1994 2.52751 20.3925 2.63889Z" fill="white"/>
<path d="M11.3722 11.6656C11.1163 11.9947 10.8605 12.3264 10.6047 12.6556C10.4166 12.0343 10.2286 11.4106 10.043 10.7894C10.4192 10.8116 10.7903 10.8587 11.159 10.9305C11.2267 11.178 11.2969 11.423 11.3722 11.6656Z" fill="white"/>
<path d="M10.8427 9.69534C10.8803 9.84385 10.918 9.99483 10.9556 10.1458C10.597 10.0914 10.2358 10.0468 9.87217 10.032C9.8521 10.032 9.83706 10.0394 9.81699 10.0394C9.71918 9.71019 9.61887 9.381 9.51855 9.05182C9.95242 9.12607 10.3763 9.24982 10.78 9.4206C10.8001 9.51218 10.8202 9.60376 10.8427 9.69534Z" fill="white"/>
<path d="M10.0503 7.85143C10.291 8.04201 10.439 8.28704 10.5443 8.55188C10.1355 8.42317 9.71671 8.32912 9.28535 8.27219C9.19004 7.96033 9.09475 7.64847 9.00195 7.33661C9.35306 7.49254 9.73677 7.60392 10.0503 7.85143Z" fill="white"/>
</g>
</g>
</g>
</svg>
