<svg width="221" height="432" viewBox="0 0 221 432" fill="none" xmlns="http://www.w3.org/2000/svg">
<mask id="mask0_1_2055" style="mask-type:alpha" maskUnits="userSpaceOnUse" x="0" y="0" width="221" height="432">
<rect x="0.100098" width="220.9" height="431.469" fill="#D9D9D9"/>
</mask>
<g mask="url(#mask0_1_2055)">
<path fill-rule="evenodd" clip-rule="evenodd" d="M42.1541 234.087C24.7981 150.709 39.7881 77.068 75.6362 69.606C111.485 62.144 154.616 123.686 171.971 207.064C189.327 290.442 174.338 364.083 138.489 371.545C102.64 379.007 59.5101 317.465 42.1541 234.087Z" fill="#FFF000"/>
<path d="M97.483 73.678C93.126 72.314 90.609 69.634 89.32 64.987C88.503 62.04 87.877 58.973 87.272 56.007C86.832 53.85 86.391 51.692 85.878 49.553C85.321 47.24 84.785 44.92 84.25 42.601C81.671 31.435 79.004 19.888 73.953 9.19898C72.819 6.79798 71.646 4.31498 69.606 2.28998C68.198 0.888981 65.988 -0.81802 63.029 0.43698C60.359 1.57698 60.241 4.34198 60.178 5.82698C60.126 7.05998 60.066 8.29298 60.005 9.52398C59.645 16.916 59.273 24.559 60.602 32.103C61.52 37.32 62.422 42.541 63.323 47.761C64.667 55.555 66.013 63.347 67.418 71.13C68.378 76.447 67.12 80.048 63.074 83.559C51.845 93.311 44.865 105.191 42.331 118.87C39.996 131.463 39.501 143.931 39.325 154.465C39.298 156.091 39.493 157.721 39.683 159.296C39.746 159.82 39.809 160.345 39.864 160.869L41.132 173.054C42.623 187.374 44.114 201.695 45.642 216.011L45.841 217.881C47.538 233.809 49.294 250.28 52.441 266.298C53.046 269.388 53.15 271.774 51.797 274.127C51.016 275.484 49.392 278.311 51.4 280.977C54.711 285.371 53.092 289.472 51.161 294.368C43.853 312.894 36.618 331.655 30.505 347.562C27.468 355.468 28.191 358.332 34.575 363.691C36.13 364.996 37.823 366.164 39.461 367.295C41.458 368.675 43.525 370.102 45.289 371.751C52.137 378.149 59.282 384.438 66.192 390.525C75.03 398.306 84.169 406.354 92.762 414.694C93.454 415.365 95.556 417.421 97.978 415.972C99.744 414.926 100.07 412.99 98.876 410.656C96.221 405.48 94.787 399.777 93.397 394.262C92.766 391.751 92.114 389.157 91.353 386.633C87.301 373.193 84.347 359.222 81.492 345.712L80.212 339.677C79.727 337.407 80.285 336.22 82.136 335.586C84.942 334.628 86.326 334.975 87.23 336.877C88.358 339.254 89.344 341.76 90.239 344.113C91.157 346.522 92.052 348.941 92.945 351.359C94.407 355.318 95.921 359.413 97.518 363.402C100.023 369.672 104.434 372.486 110.631 371.785C111.578 371.676 112.54 371.652 113.5 371.628C114.916 371.591 116.381 371.552 117.81 371.254C124.264 369.905 125.211 370.865 127.591 376.861C128.632 379.481 129.695 382.095 130.759 384.709C135.275 395.808 139.947 407.287 142.725 419.202C143.569 422.817 145.748 426.305 149.199 429.574C150.513 430.817 151.931 431.469 153.283 431.469C153.596 431.469 153.904 431.436 154.208 431.366C155.838 430.985 157.166 429.61 157.948 427.493C158.874 424.989 158.844 422.391 158.815 419.88L158.805 418.569C158.802 408.062 157.37 397.541 155.986 387.369C155.538 384.077 155.089 380.782 154.687 377.487C153.863 370.728 154.544 366.424 160.498 363.048C166.179 359.828 168.797 354.332 168.275 346.714C167.998 342.651 167.325 338.615 166.675 334.712C166.337 332.687 166 330.66 165.697 328.499C164.966 323.279 164.966 323.279 169.64 320.875C170.034 320.673 170.421 320.452 170.809 320.231C172.075 319.507 173.302 318.81 174.651 318.863C177.684 323.023 178.036 323.942 179.017 329.59C179.42 331.909 179.808 334.233 180.195 336.554C181.137 342.222 182.112 348.079 183.332 353.796C185.142 362.296 187.169 372.365 188.447 382.58C188.928 386.442 189.999 390.27 191.032 393.972C191.342 395.082 191.652 396.192 191.945 397.299C192.43 399.129 194.062 400.197 195.896 399.907C197.709 399.61 198.871 398.119 198.784 396.189C198.635 392.958 198.961 389.98 199.781 387.088L200.097 385.971C204.035 372.094 208.107 357.743 211.79 343.54C213.936 335.262 215.888 326.791 217.773 318.6C218.641 314.835 219.509 311.071 220.397 307.311C222.284 299.322 219.771 293.292 212.493 288.333C206.562 284.29 200.894 279.607 195.415 275.081C193.052 273.128 190.69 271.177 188.299 269.267C183.029 265.057 180.621 260.043 180.715 253.484C180.937 237.675 177.72 222.082 174.609 206.999L173.986 203.979C171.369 191.25 167.94 178.52 164.625 166.209C163.667 162.651 162.71 159.094 161.769 155.533C157.306 138.629 151.768 124.068 144.841 111.013C140.358 102.566 134.709 95.736 128.051 90.713C119.685 84.402 109.509 77.441 97.483 73.678ZM173.831 273.922C175.39 282.022 176.071 291.002 175.916 301.37C175.825 307.322 171.52 312.305 165.679 313.217C164.633 313.383 163.668 313.297 163.281 313.013C159.404 310.164 157.048 312.383 154.969 314.901C152.607 317.749 148.928 317.49 145.339 317.251C143.025 317.093 142.562 315.276 142.164 312.728C141.53 308.67 141.023 304.515 140.532 300.495C140.2 297.776 139.869 295.056 139.497 292.341C138.511 285.15 137.551 278.737 136.563 272.739C136.127 270.095 135.445 267.014 132.847 263.926L132.274 263.246L131.638 263.866C128.406 267.011 124.484 268.183 120.33 269.423C118.988 269.824 117.645 270.225 116.33 270.695C110.939 272.62 110.442 273.488 111.497 279.134C112.228 283.052 112.853 287.222 111.781 291.331C111.413 292.729 111.187 294.234 112.004 295.769C114.842 301.107 114.931 306.769 115.025 312.765C115.058 314.938 115.094 317.188 115.276 319.387C115.597 323.289 114.949 324.068 110.645 324.949C109.043 325.279 107.442 325.674 105.84 326.069C99.716 327.581 93.936 329.011 87.777 326.979C86.89 326.686 85.912 326.818 85.048 326.936C84.797 326.97 84.547 327.004 84.303 327.026C77.511 327.649 77.235 327.678 75.631 321.011C74.368 315.765 73.455 310.325 72.572 305.066C72.204 302.869 71.835 300.671 71.441 298.48C71.373 298.101 71.31 297.72 71.249 297.336C70.82 294.673 70.332 291.656 67.433 289.192L66.761 288.622L66.235 289.327C64.136 292.14 64.672 294.823 65.146 297.19C65.227 297.597 65.308 298 65.374 298.399C66.766 306.843 68.302 315.371 69.758 323.383L69.932 324.27C70.332 326.222 70.647 327.763 69.041 329.217C67.986 330.173 67.47 331.318 67.584 332.441C67.696 333.521 68.394 334.491 69.55 335.17C71.752 336.463 72.201 338.523 72.72 340.91L73.403 344.004C75.309 352.647 77.214 361.291 79.072 369.947L79.685 372.835C80.827 378.268 82.008 383.887 83.98 389.241L84.113 389.602C84.763 391.348 85.382 393.01 84.59 395.117C83.214 393.949 81.837 392.8 80.467 391.658C76.78 388.579 73.298 385.671 69.939 382.505C62.09 375.104 52.678 366.472 42.386 358.553C37.279 354.622 37.302 353.956 39.128 347.969C39.432 346.978 39.753 345.989 40.129 345.026L44.088 334.865C48.323 323.991 52.557 313.115 56.876 302.254C58.69 297.691 60.565 292.972 63.804 289.289C66.819 285.856 66.163 282.663 65.003 279.723C63.515 275.952 62.464 271.857 61.804 267.239C65.243 267.668 68.911 267.397 73.511 266.396C88.303 263.18 103.597 261.714 118.389 260.297C122.244 259.927 126.099 259.558 129.95 259.158C139.319 258.186 148.776 256.661 157.922 255.188C160.628 254.751 163.334 254.315 166.042 253.892C169.461 253.357 171.938 253.195 172.902 254.152C173.692 254.938 173.805 256.79 173.276 260.344C172.653 264.5 172.824 268.689 173.831 273.922ZM152.038 328.117C150.855 328.486 150.069 329.1 149.701 329.939C149.056 331.41 149.851 333.092 150.553 334.573C150.761 335.013 150.963 335.436 151.105 335.822C152.58 339.832 153.38 344.085 154.153 348.2C154.332 349.154 154.511 350.106 154.698 351.058C155.057 352.883 155.066 354.7 154.727 356.178C154.295 358.065 152.856 359.182 150.952 359.069C149.893 359.009 149.361 358.238 149.057 356.316C148.465 352.589 147.907 348.858 147.348 345.126C146.818 341.573 146.287 338.02 145.727 334.471C145.393 332.362 144.833 328.817 141.675 327.652C143.866 326.973 146.141 326.584 148.507 326.181C150.054 325.916 151.654 325.643 153.217 325.282C154.579 324.97 155.639 325.062 156.37 325.562C157.104 326.066 157.577 327.026 157.774 328.417C157.976 329.832 158.221 331.244 158.469 332.677C159.052 336.025 159.649 339.453 159.747 343.319C158.82 339.73 158.014 336.625 157.082 333.595L156.872 332.88C156.381 331.184 155.771 329.074 154.282 328.273C153.611 327.914 152.856 327.86 152.038 328.117ZM115.651 362.106C114.321 360.115 113.776 357.835 113.198 355.421L111.973 350.417C111.112 346.89 110.221 343.243 109.222 339.685C108.767 338.062 108.142 335.836 106.332 334.523C111.794 333.134 112.343 334.01 114.478 340.195C116.685 346.582 118.223 353.309 119.181 360.76C119.385 362.332 118.947 362.782 118.179 363C117.096 363.302 116.248 363.002 115.651 362.106ZM121.598 292.564C121.222 288.327 122.718 285.342 128.86 277.491C129.623 282.947 127.762 286.734 121.598 292.564ZM130.998 293.077C133.492 299.153 130.894 305.571 123.259 312.187C121.902 306.007 124.782 298.869 130.998 293.077ZM134.305 319.486C133.6 320.315 131.532 320.497 127.848 320.702C128.99 316.626 131.115 313.485 133.936 310.299C133.971 310.501 134.007 310.688 134.039 310.866C134.222 311.845 134.338 312.47 134.407 313.097C134.785 316.563 135.012 318.655 134.305 319.486ZM101.648 335.299C102.033 335.296 102.416 335.293 102.795 335.28C102.984 339.541 104.139 343.608 105.257 347.548C106.045 350.319 106.858 353.184 107.308 356.048C107.426 356.796 107.668 357.523 107.902 358.227C108.438 359.839 108.902 361.241 107.894 362.624C107.011 362.914 106.348 362.582 105.648 361.53C100.626 353.993 98.299 345.231 96.068 336.743C97.791 335.335 99.668 335.317 101.648 335.299ZM125.161 331.16C126.142 331.538 126.726 332.274 126.989 333.46C129.014 342.604 130.746 350.666 132.285 358.104C132.794 360.57 132.108 361.328 130.92 361.706C128.887 362.348 127.428 361.804 126.572 360.075C125.865 358.651 125.413 357.039 125.098 355.792C123.733 350.383 122.4 344.966 121.009 339.315L119.604 333.61C121.658 332.34 123.299 331.333 125.161 331.16ZM137.933 328.927L139.083 335.662C140.21 342.244 141.336 348.826 142.443 355.409C142.656 356.671 142.906 358.332 142.963 359.995C142.988 360.741 142.582 361.241 141.846 361.364C141.21 361.467 140.413 361.336 140.128 360.613C139.447 358.89 138.693 356.849 138.259 354.769C136.891 348.198 135.551 341.376 134.163 333.913C133.455 330.102 133.413 329.874 137.933 328.927ZM60.17 258.886C60.68 258.175 62.531 257.946 65.295 257.678C71.221 257.103 77.151 256.556 83.081 256.011C107.728 253.741 133.212 251.395 158.048 246.942L158.539 246.852C159.242 246.718 159.928 246.589 160.604 246.589C161.238 246.589 161.863 246.704 162.486 247.036C161.96 248.372 160.677 248.647 158.592 248.929C155.625 249.336 152.657 249.753 149.691 250.173C140.029 251.537 130.038 252.947 120.18 253.904L116.374 254.272C100.823 255.767 84.742 257.313 69.172 260.837C68.628 260.96 68.068 261.06 67.507 261.16C65.119 261.584 62.463 262.059 60.807 264.408C60.726 264.231 60.66 264.058 60.622 263.887C60.039 261.402 59.666 259.588 60.17 258.886ZM170.77 241.776C168.671 239.054 165.727 239.488 163.275 239.847L162.752 239.923C159.318 240.406 155.896 240.972 152.473 241.54C148.67 242.17 144.738 242.821 140.858 243.338L138.708 243.625C121.694 245.895 104.1 248.243 86.673 249.34C83.485 249.54 80.256 249.85 77.134 250.149C73.545 250.492 69.835 250.847 66.187 251.038C59.063 251.412 58.395 250.854 57.485 243.604C55.586 228.478 53.912 213.52 52.386 199.607C51.761 193.911 51.192 188.207 50.622 182.505C49.87 174.959 49.091 167.157 48.189 159.496C47.382 152.63 48.085 145.693 48.765 138.985C49.154 135.156 49.555 131.196 49.676 127.272C49.731 125.497 50.167 124.277 50.974 123.643C51.503 123.227 52.249 123.019 53.2 123.019C53.775 123.019 54.425 123.095 55.148 123.246C67.626 125.873 79.398 122.486 89.783 119.499C93.909 118.312 97.649 117.307 101.217 116.425C108.751 114.565 116.128 111.239 124.434 105.958C128.74 103.213 129.494 103.362 132.471 107.551C137.533 114.672 141.893 123.098 145.798 133.309C152.207 150.079 156.41 167.792 160.475 184.923C161.816 190.576 163.157 196.23 164.577 201.861C167.362 212.915 169.24 223.303 170.323 233.617C170.376 234.137 170.441 234.655 170.505 235.179C170.751 237.195 171.004 239.263 170.77 241.776ZM74.116 66.465C71.486 54.305 69.421 41.047 67.799 25.936C67.376 22.003 67.663 18.155 68.08 14.771C69.214 15.996 69.626 17.429 70.056 18.928L70.321 19.828C74.474 33.213 78.563 47.679 80.333 62.765C81.419 71.998 85.605 77.415 93.904 80.331C103.055 83.545 111.163 88.787 118.562 93.974C120.253 95.158 121.075 96.07 121.077 96.759C121.079 97.48 120.219 98.422 118.37 99.726C113.03 103.491 106.711 106.297 98.482 108.556C96.536 109.09 94.588 109.616 92.641 110.142C87.541 111.52 82.268 112.945 77.121 114.492C70.519 116.476 64.018 116.246 56.205 115.735C54.432 115.619 53.367 115.249 52.949 114.604C52.524 113.949 52.629 112.793 53.27 111.071C56.505 102.364 61.156 95.503 67.09 90.675C76.278 83.204 75.798 74.244 74.116 66.465ZM181.302 274.971C184.4 276.021 186.83 278.064 189.189 280.043C190.141 280.843 191.084 281.634 192.058 282.358C195.666 285.037 199.158 288.019 202.534 290.902C204.715 292.766 206.9 294.63 209.13 296.432C212.287 298.98 213.284 301.72 212.374 305.315C209.689 315.897 207.017 326.481 204.341 337.064C201.459 348.478 198.574 359.89 195.679 371.302C195.576 371.709 195.447 371.989 195.153 372.159C195.131 372.101 195.105 372.043 195.082 371.986C194.84 371.405 194.588 370.807 194.514 370.237C193.685 364.007 192.245 357.811 190.855 351.818C189.312 345.178 187.718 338.312 186.963 331.425C186.691 328.943 186.382 326.526 185.562 324.249C182.425 315.526 182.367 306.257 182.309 297.294L182.302 296.387C182.283 293.466 181.986 290.517 181.702 287.665C181.596 286.608 181.489 285.55 181.396 284.493C181.341 283.852 181.267 283.212 181.192 282.568C180.915 280.151 180.628 277.659 181.302 274.971Z" fill="black"/>
<path d="M21.4663 85.659C14.3343 99.121 12.5863 114.023 10.8973 128.434L10.8843 128.547L10.9003 128.657C11.0653 129.769 11.1473 130.893 11.2293 132.01C11.4833 135.444 11.7443 138.994 14.3793 141.93C15.2833 142.937 16.3903 143.455 17.5013 143.455C18.2633 143.455 19.0263 143.213 19.7283 142.716C20.5623 142.126 21.7373 140.744 20.2223 138.127C18.0583 134.395 17.2433 130.485 17.8003 126.504L18.0373 124.81C19.8413 111.871 21.7063 98.489 28.7793 86.698C29.4473 85.585 30.1393 84.433 30.5493 83.16C30.8563 82.209 30.4673 80.941 29.9173 80.265C29.0033 79.143 27.5123 78.953 26.0203 79.774C23.8773 80.959 22.8683 82.929 21.8923 84.834L21.4663 85.659Z" fill="black"/>
<path d="M131.475 76.484C130.692 77.741 130.952 79.134 132.191 80.305C132.706 80.792 133.276 81.196 133.828 81.585L134.157 81.819C140.182 86.119 144.569 92.176 147.571 100.337L147.739 100.788C149.806 106.413 151.945 112.229 152.102 118.394C152.152 120.326 152.588 121.641 153.438 122.419C153.996 122.93 154.703 123.188 155.544 123.188C155.631 123.188 155.72 123.187 155.81 123.18C158.65 123.006 158.729 120.453 158.776 118.929C158.785 118.636 158.793 118.348 158.816 118.072C158.834 117.865 158.83 117.657 158.826 117.447L158.816 117.108C156.901 102.42 151.86 90.577 143.404 80.905C141.149 78.325 138.331 76.418 135.259 75.39C133.658 74.851 132.241 75.258 131.475 76.484Z" fill="black"/>
<path d="M12.205 84.224C9.73595 82.861 7.93895 85.186 6.74895 86.724C6.56995 86.956 6.39395 87.183 6.22195 87.3949C5.84595 87.853 5.57495 88.365 5.30695 88.891C1.45995 96.468 0.521953 104.496 0.113953 111.349C-0.0470469 114.077 1.14795 115.888 3.66595 116.727L4.06095 116.858L4.40195 116.619C6.47695 115.163 6.42995 113.348 6.39295 111.891C6.38295 111.492 6.36995 111.1 6.40895 110.721C7.15595 103.486 8.99195 96.697 11.868 90.5479C12.042 90.1729 12.324 89.7839 12.607 89.386C13.302 88.403 14.091 87.29 13.814 86.08C13.646 85.345 13.104 84.721 12.205 84.224Z" fill="black"/>
<path d="M145.975 63.457C144.942 63.067 142.199 62.044 140.753 64.48C140.284 65.269 140.151 66.042 140.356 66.778C140.698 68.003 141.875 68.761 142.859 69.287C148.3 72.188 151.899 77.026 155.118 81.731C156.288 83.44 157.412 84.876 158.56 86.124C158.945 86.543 159.476 86.769 160.068 86.769C160.126 86.769 160.185 86.767 160.244 86.763C160.82 86.721 161.385 86.47 161.83 86.061C162.181 85.739 162.377 85.334 162.586 84.905C162.676 84.72 162.774 84.516 162.899 84.294L163.078 83.974L162.96 83.627C162.884 83.401 162.816 83.153 162.744 82.895C162.558 82.228 162.348 81.475 161.961 80.774C159.829 76.902 157.625 72.897 154.571 69.479C152.074 66.687 149.183 64.661 145.975 63.457Z" fill="black"/>
<path d="M119.028 133.98C110.432 130.477 101.923 129.375 93.7279 130.713C85.0479 132.126 76.7959 133.961 71.2289 140.772C63.8529 149.794 61.0729 159.712 62.9669 170.251C63.5579 173.541 64.5099 176.801 65.4309 179.952C65.6899 180.831 65.9459 181.711 66.1949 182.592C69.0379 192.622 75.7669 198.781 86.7679 201.423C90.0229 202.204 93.3359 202.326 97.9229 202.497L98.8529 202.531C99.3109 202.565 99.7769 202.58 100.248 202.58C105.583 202.58 111.684 200.587 116.023 198.831C125.138 195.141 132.445 187.631 136.071 178.225C139.698 168.816 139.32 158.334 135.033 149.464C131.402 141.956 126.168 136.891 119.028 133.98ZM130.268 173.107C127.549 185.414 118.816 192.441 102.783 195.222C101.794 195.393 100.774 195.41 99.6929 195.427C99.1819 195.435 98.6689 195.444 98.1599 195.468C93.3369 195.57 88.8109 194.755 84.5749 193.032C80.3459 191.31 77.5929 189.101 75.9139 186.082C70.6769 176.671 68.8099 168.413 70.0419 160.09C70.1029 159.666 70.1589 159.235 70.2159 158.801C70.7139 154.981 71.1839 151.375 76.0299 150.534C78.2649 150.147 78.7889 147.591 79.1019 146.063C79.7199 143.042 81.9179 141.559 85.0289 140.259C90.1699 138.114 95.3349 137.041 100.492 137.041C105.915 137.041 111.331 138.227 116.694 140.601C128.711 145.916 133.658 157.765 130.268 173.107Z" fill="black"/>
</g>
</svg>
