<svg width="86" height="152" viewBox="0 0 86 152" fill="none" xmlns="http://www.w3.org/2000/svg">
<mask id="mask0_1_2035" style="mask-type:alpha" maskUnits="userSpaceOnUse" x="0" y="0" width="86" height="152">
<rect x="0.720215" y="0.30957" width="84.3984" height="151.328" fill="#D9D9D9"/>
</mask>
<g mask="url(#mask0_1_2035)">
<mask id="mask1_1_2035" style="mask-type:alpha" maskUnits="userSpaceOnUse" x="0" y="0" width="85" height="152">
<rect x="0.90625" y="0.492676" width="84.024" height="150.956" fill="#D9D9D9"/>
</mask>
<g mask="url(#mask1_1_2035)">
<mask id="mask2_1_2035" style="mask-type:alpha" maskUnits="userSpaceOnUse" x="0" y="0" width="85" height="152">
<rect x="0.90625" y="0.492676" width="84.024" height="150.956" fill="#D9D9D9"/>
</mask>
<g mask="url(#mask2_1_2035)">
<path d="M8.92451 65.4105C3.51034 64.8594 3.72631 66.7957 9.42348 70.5566C16.4463 75.1441 23.7446 79.6199 23.9159 79.404C24.3552 78.9571 20.0954 63.6976 18.8219 61.2624C17.608 58.8346 15.2323 56.3472 14.1227 56.3472C13.8472 56.3472 13.6237 56.8387 13.6237 57.4494C13.6237 58.06 14.1227 60.3836 14.7334 62.5359C15.3441 64.6956 15.7313 66.6319 15.56 66.7361C15.4483 66.8478 14.8972 66.7957 14.3461 66.5723C12.9088 65.9691 12.0226 65.7456 8.92451 65.4105Z" fill="white"/>
<path d="M39.6745 15.9757C37.1797 17.3088 37.6265 21.5612 40.8363 26.8711C43.5992 31.5703 58.4193 49.1534 59.5215 49.1534C59.6854 49.1534 60.1322 47.1128 60.5194 44.5658C60.9067 42.0784 62.1802 36.4408 63.4462 32.0172C66.9837 19.5206 67.155 9.17633 63.9452 5.91441C62.1206 4.08983 61.8451 4.08983 60.1322 5.25161C57.8086 6.91235 57.1458 9.56359 56.8107 18.7461C56.5352 25.821 56.3117 27.3179 55.6489 27.3179C55.2095 27.3179 54.4872 26.6477 54.0999 25.821C53.1094 23.6613 47.025 18.411 43.6514 16.7502C41.3874 15.5884 40.6129 15.4842 39.6745 15.9757Z" fill="white"/>
<path d="M15.5605 66.7363C15.7318 66.6321 15.3445 64.6958 14.7338 62.5361C14.1232 60.3838 13.6242 58.0602 13.6242 57.4496C13.6242 56.8389 13.8476 56.3474 14.1232 56.3474C15.2328 56.3474 17.6085 58.8348 18.8224 61.2626C20.0959 63.6978 24.3557 78.9573 23.9163 79.4042C23.745 79.6201 16.4467 75.1443 9.42394 70.5568C3.72677 66.7959 3.5108 64.8596 8.92497 65.4107C12.023 65.7458 12.9093 65.9693 14.3466 66.5725C14.8977 66.7959 15.4488 66.848 15.5605 66.7363ZM1.96176 63.035C0.412737 64.5841 0.576578 67.5108 2.40116 69.6184C4.00977 71.5473 26.508 86.7546 27.7293 86.7546C28.7198 86.7546 30.2167 85.2056 30.2167 84.2673C30.2167 83.8279 29.606 81.832 28.8315 79.8436C28.1166 77.8551 26.7314 73.4314 25.8452 69.9461C23.745 61.8733 21.98 58.172 18.882 55.2973C16.8935 53.4653 16.0073 53.0259 14.2945 53.0259C10.4219 53.0259 8.70899 56.2878 10.3102 60.5476C11.0325 62.4244 10.8613 62.5956 8.70899 61.8211C6.49716 61.0466 3.39909 61.5977 1.96176 63.035Z" fill="black"/>
<path d="M49.8476 15.4245C40.8885 8.28998 32.8678 10.8891 33.7019 20.6823C34.0296 25.0464 36.1297 29.0828 41.5513 35.8822C48.7975 44.953 57.5331 54.7983 59.1343 55.6249C60.5195 56.3473 60.8472 56.3473 62.0685 55.5728C63.558 54.5749 63.558 54.5227 65.0549 45.7796C65.606 42.3017 66.8199 36.7684 67.7061 33.6182C70.0818 25.2102 70.7446 20.1833 70.4691 13.6595C70.0818 6.57711 68.9796 3.76203 65.606 1.43848C64.7719 0.827804 63.1707 0.492676 61.4057 0.492676C56.2075 0.492676 53.6606 3.92587 52.6626 12.2743L52.0594 17.1969L49.8476 15.4245ZM40.8364 26.871C37.6266 21.5611 37.1797 17.3086 39.6746 15.9756C40.6129 15.4841 41.3875 15.5883 43.6514 16.7501C47.025 18.4108 53.1095 23.6612 54.0999 25.8209C54.4872 26.6475 55.2096 27.3178 55.649 27.3178C56.3118 27.3178 56.5352 25.8209 56.8108 18.746C57.1459 9.56347 57.8087 6.91224 60.1322 5.25149C61.8451 4.08972 62.1207 4.08972 63.9452 5.9143C67.155 9.17621 66.9837 19.5205 63.4463 32.017C62.1802 36.4407 60.9068 42.0783 60.5195 44.5657C60.1322 47.1127 59.6854 49.1532 59.5216 49.1532C58.4194 49.1532 43.5993 31.5702 40.8364 26.871Z" fill="black"/>
<path d="M38.6244 101.634C35.6902 99.75 34.6401 99.6384 34.6401 101.076C34.6401 102.185 37.1275 105.671 42.9364 112.746C48.7378 119.82 56.483 131.989 60.9588 140.948C65.3303 149.848 66.3804 151.449 67.6539 151.449C70.469 151.449 65.658 138.349 58.3076 126.128C52.6104 116.67 42.5491 104.122 38.6244 101.634Z" fill="black"/>
<path d="M64.5558 72.3813C62.3961 72.3813 63.1185 76.1422 67.7581 90.0165C74.2894 109.372 79.2046 130.604 80.8132 145.975C81.0292 147.688 81.5281 149.572 81.975 150.124C82.6899 151.121 82.8016 151.121 83.9038 149.796C85.0135 148.522 85.0656 147.971 84.79 143.16C84.2911 134.916 80.1504 114.518 76.3895 101.523C74.6171 95.2743 69.1954 80.1787 67.2666 75.8667C66.0453 73.208 65.3824 72.3813 64.5558 72.3813Z" fill="black"/>
</g>
</g>
</g>
</svg>
