<svg width="117" height="118" viewBox="0 0 117 118" fill="none" xmlns="http://www.w3.org/2000/svg">
<mask id="mask0_1_4787" style="mask-type:alpha" maskUnits="userSpaceOnUse" x="0" y="0" width="117" height="118">
<rect x="9.9248" y="0.578613" width="107.467" height="108.357" transform="rotate(5 9.9248 0.578613)" fill="#D9D9D9"/>
</mask>
<g mask="url(#mask0_1_4787)">
<path fill-rule="evenodd" clip-rule="evenodd" d="M68.4835 6.41087C67.9694 6.84171 67.3606 7.86938 67.1101 8.75542C66.4051 11.3751 65.7036 25.3239 66.2424 26.5819L66.7063 27.7034L67.3772 26.4651C68.1129 24.9727 69.9813 16.9634 70.7752 11.8436C71.554 6.89557 70.5829 4.64874 68.4835 6.41087Z" fill="black"/>
<path fill-rule="evenodd" clip-rule="evenodd" d="M33.192 9.93896C31.652 11.2311 33.2009 14.783 37.9317 20.5153C43.0462 26.8008 43.7914 25.6983 39.9764 17.4077C36.8486 10.6479 34.9186 8.49017 33.192 9.93896Z" fill="black"/>
<path fill-rule="evenodd" clip-rule="evenodd" d="M99.3595 19.7492C96.4868 21.4437 90.0875 30.8294 91.7613 30.9759C93.1773 31.0998 101.697 23.6723 102.388 21.7008C103.138 19.5609 101.543 18.5134 99.3595 19.7492Z" fill="black"/>
<path fill-rule="evenodd" clip-rule="evenodd" d="M42.53 36.6582C33.8444 40.0497 31.9824 49.9623 37.8068 61.9743C38.7614 63.9168 41.0059 67.9186 42.7859 70.7988C46.3509 76.5159 51.1696 85.1965 52.7613 88.7521C55.339 94.3829 56.9695 94.5255 62.0152 89.7347C77.1648 75.2334 82.1469 68.7073 84.8123 59.9896C88.0906 49.2061 80.7695 40.9548 70.8786 44.2839C68.5607 45.0759 64.6667 48.0648 63.2309 50.1447L62.1866 51.6963L60.4983 47.2679C57.5826 39.575 54.1903 36.3377 48.3112 35.8233C45.7791 35.6018 44.8159 35.7336 42.53 36.6582ZM50.1112 39.9592C53.4115 41.2858 56.1687 45.8513 58.0417 53.1065C59.0883 56.9603 59.4256 57.5519 60.6706 57.6608C61.7861 57.7584 63.05 56.6587 66.3677 52.8407C69.0638 49.7034 71.8503 48.0014 74.5483 47.8053C76.6778 47.6887 78.9814 48.5391 79.9137 49.7447C83.7532 54.7939 80.1409 64.9424 71.1215 74.6185C67.3991 78.6165 57.9451 87.8218 57.4578 87.9522C57.3258 87.9837 56.3133 86.2091 55.2101 83.9938C53.372 80.2868 50.4267 75.4019 44.6508 66.2916C40.0905 59.1036 37.6103 52.3568 37.982 48.1087C38.38 43.56 41.2087 40.3911 45.6593 39.4398C47.2884 39.1065 48.1862 39.2288 50.1112 39.9592Z" fill="black"/>
<path fill-rule="evenodd" clip-rule="evenodd" d="M104.29 51.3589C100.741 52.3891 99.6471 53.0284 99.8688 53.9557C100.046 54.4039 100.671 54.6747 101.958 54.7873C104.318 54.9938 111.2 54.4281 112.326 53.9215C113.311 53.5319 113.545 52.3416 112.84 51.5012C112.018 50.5213 107.439 50.4667 104.29 51.3589Z" fill="black"/>
<path fill-rule="evenodd" clip-rule="evenodd" d="M7.27895 43.1737C6.56228 43.457 6.12739 43.981 6.06732 44.6676C5.91714 46.3842 7.45978 47.038 11.6876 47.1488C17.9049 47.26 22.1373 46.3333 21.0799 45.073C20.062 43.8594 9.3391 42.3592 7.27895 43.1737Z" fill="black"/>
<path fill-rule="evenodd" clip-rule="evenodd" d="M21.7376 75.617C15.2038 77.64 12.1091 79.4018 12.2745 80.973C12.5087 83.2416 18.0419 81.7799 22.9937 78.0618C26.97 75.1237 26.4911 74.1733 21.7376 75.617Z" fill="black"/>
<path fill-rule="evenodd" clip-rule="evenodd" d="M85.4014 83.3918C84.7477 83.9403 85.5555 85.0919 87.9053 86.8974C90.8577 89.2313 93.2832 90.1785 94.7556 89.6585C96.0488 89.2097 96.1201 88.3941 94.9771 87.127C93.1252 85.0623 86.4786 82.4482 85.4014 83.3918Z" fill="black"/>
<path fill-rule="evenodd" clip-rule="evenodd" d="M38.6398 98.4139C36.0411 101.43 33.8878 104.787 33.779 106.032C33.7189 106.718 34.0096 107.349 34.4983 107.694C35.7254 108.494 37.1948 107.022 39.1392 103.085C42.2495 96.6971 42.0046 94.5569 38.6398 98.4139Z" fill="black"/>
<path fill-rule="evenodd" clip-rule="evenodd" d="M65.9164 101.492C65.3316 102.738 68.8286 112.687 70.4609 114.3C71.2553 115.105 72.2832 114.719 72.7429 113.419C73.3188 111.782 72.3072 109.013 69.7862 105.203C67.3047 101.44 66.3851 100.582 65.9164 101.492Z" fill="black"/>
</g>
</svg>
