<svg width="87" height="110" viewBox="0 0 87 110" fill="none" xmlns="http://www.w3.org/2000/svg">
<mask id="mask0_1_4790" style="mask-type:alpha" maskUnits="userSpaceOnUse" x="0" y="0" width="87" height="110">
<rect y="0.387207" width="86.417" height="109.226" fill="#D9D9D9"/>
</mask>
<g mask="url(#mask0_1_4790)">
<path fill-rule="evenodd" clip-rule="evenodd" d="M54.3346 0.813767C53.233 1.66689 52.6283 3.76426 52.9845 5.39917C54.0148 9.94915 59.4538 10.4825 60.8752 6.18144C61.4085 4.58196 61.0174 2.80438 59.9153 1.45385C59.0981 0.493967 58.7778 0.387207 56.9653 0.387207C55.8637 0.387207 54.6549 0.600727 54.3346 0.813767ZM57.2856 2.34239C58.4934 2.98247 58.8491 3.87102 58.3512 5.1507C57.8893 6.39448 57.0715 6.67885 56.2184 5.89706C55.5075 5.25698 55.2945 3.55074 55.721 2.37782C55.97 1.66689 56.0054 1.66689 57.2856 2.34239Z" fill="black"/>
<path fill-rule="evenodd" clip-rule="evenodd" d="M24.9383 1.84464C24.6185 2.41339 24.6185 3.90659 24.9029 7.81696C25.0805 10.6602 25.3649 14.8904 25.5071 17.1654C25.6847 20.6841 25.8269 21.3956 26.431 21.9643C27.1066 22.568 27.142 22.568 27.6399 21.893C27.9597 21.4659 28.1373 20.3289 28.1373 18.7294C28.1373 14.7832 27.3555 4.65343 26.9289 2.87585C26.5024 1.06285 25.5779 0.600386 24.9383 1.84464Z" fill="black"/>
<path fill-rule="evenodd" clip-rule="evenodd" d="M10.4001 25.0207C8.51619 25.5186 8.16049 26.1936 9.47607 26.6915C10.6844 27.1535 19.2865 27.1535 20.4594 26.6915C21.5615 26.3004 21.6682 25.4473 20.7084 24.9139C19.7844 24.4165 12.3552 24.5228 10.4001 25.0207Z" fill="black"/>
<path fill-rule="evenodd" clip-rule="evenodd" d="M32.6874 24.8074C31.6921 25.0564 31.9056 26.3001 33.0431 26.7267C34.3936 27.26 44.4175 26.9756 45.4842 26.4069C46.4082 25.8736 46.5149 25.0918 45.6972 24.772C45.0576 24.523 33.6118 24.5585 32.6874 24.8074Z" fill="black"/>
<path fill-rule="evenodd" clip-rule="evenodd" d="M73.0678 27.8287C72.8902 28.0777 72.7126 30.8501 72.6412 33.9782C72.5345 38.5636 72.6058 39.8078 73.0324 40.3766C73.4943 40.9453 73.6365 40.9808 74.1339 40.5896C75.1652 39.7011 74.8095 28.7886 73.7079 27.6865C73.4943 27.4735 73.2454 27.5089 73.0678 27.8287Z" fill="black"/>
<path fill-rule="evenodd" clip-rule="evenodd" d="M26.0755 29.4282C25.6135 30.3167 25.2578 41.0516 25.6135 43.1489C25.9688 45.2104 26.7865 46.2057 27.5682 45.5661C28.0307 45.175 28.0661 43.9666 27.8885 37.426C27.7818 33.1959 27.5328 29.499 27.3198 29.2506C26.8573 28.6464 26.4312 28.7172 26.0755 29.4282Z" fill="black"/>
<path fill-rule="evenodd" clip-rule="evenodd" d="M63.8609 42.9714C61.7281 43.149 60.4839 43.4333 60.4839 43.7531C60.4839 44.4287 62.1547 44.9265 65.1052 45.2109C68.9083 45.5661 70.5792 45.2464 70.7213 44.1797C70.7927 43.7531 70.6146 43.3266 70.3656 43.2557C69.7615 43.0422 65.2115 42.8292 63.8609 42.9714Z" fill="black"/>
<path fill-rule="evenodd" clip-rule="evenodd" d="M76.9067 43.0428C76.4447 43.2204 76.1603 43.5407 76.2671 43.7183C76.7999 44.5714 82.665 45.1402 85.3311 44.6069C86.5395 44.3579 86.7884 43.6116 85.8285 43.2204C84.7978 42.7939 77.7952 42.6517 76.9067 43.0428Z" fill="black"/>
<path fill-rule="evenodd" clip-rule="evenodd" d="M73.4942 48.9789C73.3875 49.5477 73.1745 52.0357 73.0677 54.5951C72.8542 59.0383 72.8542 59.2518 73.601 59.9273C74.7739 60.9226 74.9161 60.3893 75.2005 54.7018C75.4135 50.4717 75.3781 49.619 74.9161 48.8722C74.1698 47.7706 73.7786 47.806 73.4942 48.9789Z" fill="black"/>
<path fill-rule="evenodd" clip-rule="evenodd" d="M38.9081 62.3084C38.5528 62.8772 38.695 76.2781 39.0857 77.6641C39.5122 79.1927 40.1523 79.1927 40.7919 77.6287C41.2898 76.4912 41.3607 75.3183 41.183 70.4131C41.0763 67.1782 40.7919 63.9433 40.5789 63.197C40.1877 61.8818 39.4414 61.4907 38.9081 62.3084Z" fill="black"/>
<path fill-rule="evenodd" clip-rule="evenodd" d="M21.6677 79.5483C19.6771 79.7259 18.8594 80.4722 19.6771 81.3253C20.3171 81.93 24.2979 82.4628 28.315 82.4628C32.7937 82.4274 35.2463 81.0769 32.4025 80.1524C31.0161 79.7259 24.2979 79.3352 21.6677 79.5483Z" fill="black"/>
<path fill-rule="evenodd" clip-rule="evenodd" d="M45.555 80.4725C45.0572 80.7214 44.6665 81.148 44.6665 81.4324C44.6665 82.3209 47.9368 82.6407 53.2331 82.2855C58.2805 81.8944 59.4889 81.4678 58.2092 80.5079C57.2852 79.8329 46.8702 79.797 45.555 80.4725Z" fill="black"/>
<path fill-rule="evenodd" clip-rule="evenodd" d="M38.3035 86.2665C37.9837 87.1196 38.09 100.236 38.4103 101.978C38.7301 103.577 39.6541 104.892 40.1165 104.395C40.4009 104.111 40.2941 87.3327 40.0098 86.3019C39.7608 85.5556 38.5879 85.5201 38.3035 86.2665Z" fill="black"/>
<path fill-rule="evenodd" clip-rule="evenodd" d="M2.11793 101.231C0.304927 101.658 -0.69038 105.995 0.553874 107.914C2.43773 110.793 7.27208 109.834 8.23148 106.385C8.97832 103.648 7.76949 101.836 5.38774 102.156C4.35701 102.298 3.8596 102.191 3.75284 101.871C3.50389 101.303 2.93514 101.054 2.11793 101.231ZM5.74345 105.177C5.74345 106.883 3.21952 107.523 2.7221 105.959C2.4023 104.893 2.79296 104.537 4.35701 104.537C5.45908 104.537 5.74345 104.679 5.74345 105.177Z" fill="black"/>
</g>
</svg>
