<svg width="124" height="140" viewBox="0 0 124 140" fill="none" xmlns="http://www.w3.org/2000/svg">
<mask id="mask0_1_1996" style="mask-type:alpha" maskUnits="userSpaceOnUse" x="0" y="0" width="124" height="140">
<rect x="0.766602" y="0.978027" width="122.467" height="139.022" fill="#D9D9D9"/>
</mask>
<g mask="url(#mask0_1_1996)">
<mask id="mask1_1_1996" style="mask-type:alpha" maskUnits="userSpaceOnUse" x="0" y="1" width="124" height="139">
<rect x="0.871094" y="1.0835" width="122.256" height="138.811" fill="#D9D9D9"/>
</mask>
<g mask="url(#mask1_1_1996)">
<mask id="mask2_1_1996" style="mask-type:alpha" maskUnits="userSpaceOnUse" x="0" y="1" width="124" height="139">
<rect x="0.871094" y="1.0835" width="122.256" height="138.811" fill="#D9D9D9"/>
</mask>
<g mask="url(#mask2_1_1996)">
<path d="M41.813 64.8877C41.8767 64.824 43.6155 64.4754 45.6645 64.1604C49.2312 63.5614 54.7875 62.2053 55.1998 61.8222C55.2934 61.6994 55.3869 61.321 55.4507 60.9087C55.4804 60.5303 55.6717 59.0169 55.863 57.5332C56.0501 56.0492 56.2074 52.925 56.2074 50.5869C56.2074 47.9682 56.3349 46.4841 56.4922 46.6418C56.6495 46.8331 57.5975 48.8821 58.5753 51.2203C60.9134 56.7723 61.8274 58.4472 62.8987 58.9829C64.8244 59.9947 66.2443 59.4246 73.0972 55.0076C75.3035 53.5882 77.1655 52.4829 77.2633 52.5764C77.3568 52.6695 76.2515 54.5659 74.7977 56.8063C70.572 63.3697 70.0959 64.2245 70.0959 65.2321C70.0959 66.6855 71.1374 68.4842 73.8837 71.7023C75.2738 73.3471 76.3791 74.7334 76.3153 74.7674C76.2515 74.8269 74.2322 74.2275 71.8346 73.4406C69.4029 72.6206 66.5929 71.8932 65.5812 71.7997L63.7532 71.6428L62.1122 73.3471C60.9729 74.5463 59.7443 76.4721 58.1034 79.5627C56.8068 82.0581 55.4209 84.4558 55.0383 84.9277L54.3794 85.7822L54.1583 84.2343C54.0308 83.3841 54.0945 80.0984 54.2816 76.944C54.6302 72.0509 54.6004 71.043 54.2178 70.1252C53.2741 67.8206 50.9997 66.7157 44.7803 65.5807C43.0756 65.2661 41.7535 64.9511 41.813 64.8877Z" fill="white"/>
<path d="M122.334 62.6431C123.695 63.2765 123.376 63.5613 120.821 64.0035C119.588 64.1905 115.958 63.6251 115.677 63.183C115.613 63.0555 116.213 62.7064 117.033 62.456C118.644 61.9204 120.978 62.0139 122.334 62.6431Z" fill="black"/>
<path d="M116.178 105.949C116.178 106.456 115.328 106.014 114.002 104.815C112.204 103.144 110.813 101.469 110.813 100.899C110.813 100.27 111.54 100.364 112.518 101.12C113.309 101.72 116.178 105.542 116.178 105.949Z" fill="black"/>
<path d="M110.907 63.3695C111.099 64.411 103.017 64.8233 101.818 63.8456C101.312 63.4332 101.312 63.3695 101.976 62.8342C102.545 62.3917 103.238 62.2642 105.419 62.2982C108.225 62.3279 110.814 62.8342 110.907 63.3695Z" fill="black"/>
<path d="M103.272 92.9456C105.512 94.527 107.34 96.7971 106.775 97.3668C106.205 97.9317 103.238 96.2614 101.533 94.4632C100.147 92.9796 99.8286 92.2824 100.305 91.8403C100.713 91.4024 101.346 91.6532 103.272 92.9456Z" fill="black"/>
<path d="M105.606 25.0203C105.861 25.3986 103.081 28.4 101.911 28.9989C100.776 29.5648 100.083 29.5648 100.083 28.9352C100.083 27.9876 101.41 26.5677 103.174 25.6533C105.198 24.6122 105.321 24.5777 105.606 25.0203Z" fill="black"/>
<path d="M97.1162 63.6251C97.5243 64.0332 97.0227 64.1905 94.0554 64.6322C89.6342 65.3294 82.692 65.6104 81.8376 65.1381C80.5112 64.4452 81.0171 63.5911 83.0364 63.183C85.6593 62.6771 96.5168 63.0253 97.1162 63.6251Z" fill="black"/>
<path d="M92.8526 85.2464C95.3183 87.5505 95.8539 88.4645 94.8124 88.4645C92.4147 88.4348 83.3555 81.2036 84.142 79.941C84.7414 78.9632 88.7842 81.4242 92.8526 85.2464Z" fill="black"/>
<path d="M91.2454 37.7103C94.37 35.6273 94.4338 36.3542 91.4665 39.9209C89.3834 42.4461 87.143 44.5887 86.6031 44.5887C86.0675 44.5887 86.0675 43.5812 86.6372 42.2548C87.2026 40.8987 88.75 39.3513 91.2454 37.7103Z" fill="black"/>
<path d="M91.9086 124.038C92.0956 124.765 92.1934 125.586 92.0658 125.9C91.8745 126.372 91.781 126.372 91.0541 125.679C90.2974 124.952 85.8804 116.871 85.4043 115.358C85.0897 114.286 86.1015 114.473 87.2663 115.706C88.4651 116.969 91.3686 122.206 91.9086 124.038Z" fill="black"/>
<path d="M82.0928 106.991C82.0928 107.752 81.9652 108.352 81.8079 108.352C81.2723 108.352 79.9119 106.456 78.7471 104.088C77.7651 102.132 77.6418 101.66 77.9861 101.248C78.5856 100.521 79.406 101.184 80.8599 103.616C81.7739 105.129 82.0928 105.95 82.0928 106.991Z" fill="black"/>
<path d="M78.8703 48.6953C80.0692 48.6953 80.8301 49.5455 80.8301 50.9356C80.8301 52.4193 79.7886 54.4088 75.937 60.2797C74.2961 62.8049 72.9357 65.0452 72.9357 65.296C72.9357 65.7722 74.5469 67.9488 77.0423 70.7885C78.0201 71.9236 79.1254 73.2839 79.5037 73.8493C80.2605 74.9249 80.4177 76.7529 79.8183 77.3523C78.9979 78.177 76.1581 77.7647 71.3288 76.1535C68.7398 75.2692 66.1806 74.5763 65.645 74.5763C64.2889 74.5763 63.6257 75.4605 60.7859 80.7957C56.9982 88.0227 55.9864 89.2215 53.9671 89.0345C51.5992 88.8134 50.9062 85.625 51.4419 77.1652C51.6927 73.2202 51.6927 71.515 51.4419 71.0436C50.936 70.0956 48.9465 69.3686 44.5295 68.4546C38.3101 67.158 37.2686 66.6224 37.2686 64.6966C37.2686 63.6551 38.0593 63.0557 40.1126 62.4563C42.6037 61.7633 49.5501 60.6878 51.6927 60.6878H53.525V51.0292V41.3706L54.2817 40.7711C55.1361 40.0782 55.0384 40.0782 55.9566 40.5203C57.0619 41.022 58.2267 43.0753 61.2578 49.8941C63.4684 54.9445 64.1316 56.1433 64.6672 56.2071C65.3942 56.3346 66.7503 55.6077 71.4521 52.5766C75.5884 49.8941 77.9266 48.6953 78.8703 48.6953ZM74.7977 56.8065C76.2516 54.5661 77.3569 52.6701 77.2634 52.5766C77.1656 52.4831 75.3036 53.5884 73.0973 55.0082C66.2444 59.4252 64.8245 59.9949 62.8988 58.9831C61.8275 58.4474 60.9135 56.7725 58.5753 51.2205C57.5976 48.8823 56.6496 46.8333 56.4923 46.642C56.335 46.4847 56.2074 47.9683 56.2074 50.587C56.2074 52.9252 56.0501 56.0498 55.8631 57.5334C55.6718 59.0171 55.4805 60.5305 55.4507 60.9089C55.387 61.3212 55.2934 61.6996 55.1999 61.8228C54.7876 62.2054 49.2313 63.5616 45.6646 64.161C43.6155 64.4756 41.8768 64.8242 41.813 64.8879C41.7535 64.9517 43.0756 65.2663 44.7803 65.5809C50.9998 66.7159 53.2741 67.8212 54.2179 70.1253C54.6005 71.0436 54.6303 72.0511 54.2817 76.9442C54.0946 80.0985 54.0308 83.3847 54.1584 84.2349L54.3794 85.7823L55.0384 84.9278C55.421 84.456 56.8068 82.0583 58.1034 79.5629C59.7444 76.4723 60.973 74.5465 62.1123 73.3477L63.7532 71.643L65.5812 71.8003C66.593 71.8938 69.403 72.6208 71.8347 73.4412C74.2323 74.2277 76.2516 74.8271 76.3154 74.7676C76.3792 74.7336 75.2738 73.3477 73.8837 71.7025C71.1375 68.4844 70.0959 66.6862 70.0959 65.2323C70.0959 64.2247 70.5721 63.3703 74.7977 56.8065Z" fill="black"/>
<path d="M77.4844 15.9615C77.7352 14.0357 78.4282 11.9526 79.1891 10.8176L79.7248 10.0269L79.8183 11.1959C79.9118 12.4288 78.5855 16.3101 77.765 17.1305C77.3229 17.5382 77.2931 17.4154 77.4844 15.9615Z" fill="black"/>
<path d="M74.0411 23.1282C75.0826 21.1046 76.1879 22.6861 75.461 25.1139C74.9253 26.916 73.3142 30.0703 72.9358 30.0703C72.2131 30.0703 73.0336 25.1139 74.0411 23.1282Z" fill="black"/>
<path d="M72.6212 87.9927C74.547 91.9033 75.3674 94.3992 75.0188 95.2834C74.8615 95.7255 74.7382 95.7255 74.3259 95.3769C72.6849 94.0208 67.5708 84.3622 67.5708 82.6235C67.5708 79.9746 69.9089 82.4662 72.6212 87.9927Z" fill="black"/>
<path d="M70.1895 34.9003C70.9802 33.7313 71.6732 33.5442 71.6732 34.4582C71.6732 36.8899 67.4135 45.507 66.593 44.6865C66.0234 44.1168 68.4848 37.3958 70.1895 34.9003Z" fill="black"/>
<path d="M51.9478 31.1118C53.2402 36.0686 52.5132 36.1621 50.3366 31.3328C49.1378 28.6504 48.6022 25.6835 49.1081 24.4842C49.4524 23.6297 50.8723 26.9461 51.9478 31.1118Z" fill="black"/>
<path d="M51.5992 93.8935C52.1051 94.6842 51.4717 97.1456 49.6096 101.847C48.0962 105.699 45.3202 110.877 44.7803 110.877C44.3722 110.877 44.4998 109.58 45.0354 107.688C46.5488 102.447 49.0102 95.1263 49.5799 94.2081C50.2728 93.1028 50.9998 92.9795 51.5992 93.8935Z" fill="black"/>
<path d="M43.9302 49.6089C46.549 53.1119 47.9688 55.4793 47.6245 55.8284C47.2121 56.2067 45.2566 54.6886 42.4466 51.7851C38.4675 47.653 36.6395 44.7159 37.4898 43.8656C38.2805 43.0749 40.4911 45.064 43.9302 49.6089Z" fill="black"/>
<path d="M46.5489 15.6121C47.4969 18.4222 47.6542 20.2842 46.8975 19.6554C45.5414 18.5501 42.9822 12.6155 43.3945 11.5736C43.9004 10.2812 45.4436 12.2669 46.5489 15.6121Z" fill="black"/>
<path d="M42.2552 117.819C42.3827 118.924 40.1721 123.218 38.3101 125.522C35.7849 128.646 35.313 128.111 36.954 123.974C38.2463 120.756 39.4154 118.452 40.2061 117.568C41.0904 116.62 42.1319 116.777 42.2552 117.819Z" fill="black"/>
<path d="M40.933 77.6069C42.5102 77.0713 42.795 77.2579 42.0043 78.3636C40.4569 80.5398 36.261 83.8557 31.0831 86.9807C25.9052 90.1053 25.4631 89.6632 29.693 85.5608C32.6603 82.6866 38.7522 78.3636 40.933 77.6069Z" fill="black"/>
<path d="M40.1721 2.92717C42.0979 6.80847 41.4687 7.72247 39.3517 4.09156C38.6587 2.8634 38.2166 1.78786 38.3441 1.47285C38.6587 0.652377 39.2879 1.12468 40.1721 2.92717Z" fill="black"/>
<path d="M33.1962 133.161C33.7999 133.506 33.4173 135.244 32.3162 137.421C31.1471 139.632 30.3267 140.482 30.3267 139.474C30.3267 138.556 31.8741 134.169 32.4097 133.57C32.6945 133.255 33.0729 133.064 33.1962 133.161Z" fill="black"/>
<path d="M31.5891 64.8877C32.8814 64.9511 33.0089 65.0106 33.0089 65.738C33.0089 67.1281 31.1469 67.7573 26.7597 67.8848C23.3206 68.0123 23.0017 67.9783 23.1293 67.4724C23.2228 66.873 24.3919 66.3714 27.9586 65.4229C29.1914 65.0748 30.7983 64.8537 31.5891 64.8877Z" fill="black"/>
<path d="M24.1073 26.3129C24.9618 26.755 35.3771 37.2341 35.3771 37.6464C35.3771 38.6242 32.9795 36.9195 27.8653 32.3452C25.4634 30.1984 23.3804 27.4182 23.3804 26.3464C23.3804 26.0323 23.5377 26.0323 24.1073 26.3129Z" fill="black"/>
<path d="M22.0876 92.4435C22.2747 92.6008 20.8888 94.399 19.8473 95.2493C18.6484 96.261 14.5418 98.3734 14.291 98.0933C13.6576 97.4599 18.4571 93.3575 20.5104 92.7581C21.2969 92.537 22.0239 92.3797 22.0876 92.4435Z" fill="black"/>
<path d="M14.8907 67.3152C15.5837 67.6936 15.6815 68.6416 15.1118 69.1475C13.4411 70.5036 1.15953 71.5154 0.8747 70.3166C0.781174 69.8744 2.48589 69.3685 8.45025 68.1357C14.6697 66.8434 14.1 66.9071 14.8907 67.3152Z" fill="black"/>
</g>
</g>
</g>
</svg>
