<svg width="73" height="72" viewBox="0 0 73 72" fill="none" xmlns="http://www.w3.org/2000/svg">
<mask id="mask0_1_2008" style="mask-type:alpha" maskUnits="userSpaceOnUse" x="0" y="0" width="73" height="72">
<rect y="0.362305" width="72.9375" height="71.6346" fill="#D9D9D9"/>
</mask>
<g mask="url(#mask0_1_2008)">
<path fill-rule="evenodd" clip-rule="evenodd" d="M62.1311 1.67301C60.8977 2.82957 60.7051 3.21474 60.7051 4.71806C60.7051 6.06669 60.975 6.76073 61.9001 7.91678C62.5168 8.72606 63.557 9.53586 64.1353 9.72844C66.6405 10.5761 69.7624 8.8034 70.6106 6.10563C71.4967 3.09898 69.0299 0.362793 65.4071 0.362793C63.8654 0.362793 63.3644 0.55538 62.1311 1.67301Z" fill="black"/>
<path fill-rule="evenodd" clip-rule="evenodd" d="M22.1234 11.4626C20.1192 12.9275 19.2715 14.7387 19.2715 17.5138C19.2715 19.6338 19.3483 19.8264 20.9674 21.4066C22.5859 23.0641 22.7017 23.1025 25.1296 23.1025C27.0954 23.1025 27.9047 22.9099 28.9071 22.2159C30.7187 21.0214 31.759 19.094 31.759 16.9745C31.7206 13.5053 29.177 10.7691 25.6694 10.4608C23.9735 10.345 23.511 10.4608 22.1234 11.4626Z" fill="black"/>
<path fill-rule="evenodd" clip-rule="evenodd" d="M66.1396 14.8544C65.677 16.0104 65.9086 18.4772 67.0262 25.1067C67.6813 28.7684 68.6448 36.3224 69.1846 41.9111C70.2638 52.5874 71.1115 56.8275 72.075 56.8275C72.4991 56.8275 72.7306 56.1718 72.8843 54.3223C73.1542 51.624 72.3449 35.1279 71.6514 29.4619C71.1115 24.7599 69.454 15.8562 68.9531 14.9701C68.4906 14.0451 66.4863 13.9678 66.1396 14.8544Z" fill="black"/>
<path fill-rule="evenodd" clip-rule="evenodd" d="M34.6112 26.6097C33.4936 27.2264 33.7246 29.3075 35.1511 31.2349C35.8062 32.16 38.5424 35.5129 41.2407 38.7121C45.3644 43.6072 53.7282 55.054 58.5849 62.3001C60.7818 65.6151 61.9378 65.422 61.5142 61.876C61.1285 59.0625 60.3192 57.5981 54.4606 49.2343C48.7178 41.1404 36.4229 26.1472 35.4978 26.1856C35.3821 26.1856 34.958 26.3787 34.6112 26.6097Z" fill="black"/>
<path fill-rule="evenodd" clip-rule="evenodd" d="M2.81353 51.3925C1.00187 52.2017 0 54.0902 0 56.557C0 60.1414 1.88849 62.4156 4.8562 62.4156C8.74895 62.4156 11.4083 57.3668 9.4814 53.6667C8.28643 51.3151 5.28031 50.2748 2.81353 51.3925Z" fill="black"/>
<path fill-rule="evenodd" clip-rule="evenodd" d="M14.1449 56.5189C13.9908 56.6347 13.875 57.1741 13.875 57.6366C13.875 59.3325 15.7251 60.1807 28.5983 64.497C32.6842 65.8462 38.8121 68.1204 42.204 69.5079C48.2935 72.0131 49.7195 72.3983 49.7195 71.6664C49.7195 71.0497 45.981 68.313 42.0498 66.0004C37.7329 63.4178 34.4185 62.1076 24.1662 58.7547C17.0358 56.4032 14.7616 55.9022 14.1449 56.5189Z" fill="black"/>
</g>
</svg>
