<svg width="87" height="82" viewBox="0 0 87 82" fill="none" xmlns="http://www.w3.org/2000/svg">
<mask id="mask0_1_2148" style="mask-type:alpha" maskUnits="userSpaceOnUse" x="0" y="0" width="87" height="82">
<rect x="0.59668" y="19.5957" width="72.0416" height="64.3715" transform="rotate(-15 0.59668 19.5957)" fill="#D9D9D9"/>
</mask>
<g mask="url(#mask0_1_2148)">
<path d="M22.93 60.9831C22.8663 61.0043 22.8115 61.0371 22.7629 61.076C18.8158 61.5175 14.8424 63.658 14.1115 67.8825C13.7725 69.8404 14.3964 71.5485 15.5464 72.849C16.9666 79.2101 25.7953 80.2284 30.7612 76.8305C35.2329 73.771 35.8645 65.5124 30.8 63.0241C28.9912 60.9438 25.7424 60.0592 22.93 60.9831ZM17.264 65.5306C18.8456 63.6209 21.2471 62.8796 23.5633 62.1466C27.0211 62.909 32.3017 63.8192 29.5878 69.0271C28.168 71.7513 24.3319 73.6195 21.3679 73.5387C16.9962 73.4194 14.2701 69.1468 17.264 65.5306ZM32.1889 66.8664C32.2026 66.8928 32.22 66.9171 32.2333 66.9436C34.1998 70.7849 31.8002 74.9248 28.0702 76.3482C25.7257 77.2426 22.8592 77.6125 20.5064 76.5898C19.4861 76.1461 18.7576 75.4834 18.1366 74.7307C19.2941 75.2557 20.584 75.5288 21.8562 75.4867C26.1697 75.3441 31.5579 72.1711 32.1499 67.5598C32.18 67.3223 32.1847 67.0943 32.1889 66.8664ZM23.1581 20.3329C22.63 19.1966 21.0621 18.4833 20.0669 17.7678C19.4085 17.295 18.588 16.5208 17.735 16.1586C17.7257 16.1005 17.7158 16.0426 17.706 15.9846C17.6271 15.5103 17.0022 15.1646 16.5574 15.3211C12.4101 16.7834 8.22623 18.1825 4.25215 20.0768C3.72323 20.3288 4.02903 21.0701 4.53218 21.089C6.87848 33.4144 9.91523 45.5921 13.3996 57.6432C13.5396 58.1271 14.126 58.571 14.6485 58.3642C14.7088 58.3403 14.7695 58.3214 14.8299 58.2975C18.5579 61.7165 23.9744 58.7477 28.2661 58.1585C28.9003 58.0714 29.0772 57.296 28.8075 56.7956C28.5973 51.194 27.3299 45.5577 26.4666 40.0327C25.4862 33.7593 24.9616 27.0655 23.1499 20.9807C23.2502 20.8021 23.2698 20.5738 23.1581 20.3329ZM6.24385 20.6832C8.10955 20.1817 9.94568 19.595 11.7817 18.9751C14.9866 17.8932 15.5034 16.9445 16.5285 20.3375C17.8151 24.5961 18.0294 29.4905 18.7483 33.8737C19.4878 38.3861 20.2277 42.8983 20.9676 47.41C21.3051 49.4677 22.6319 52.5858 21.1309 54.2513C20.4197 55.0404 17.0126 55.6287 15.0868 56.1105C11.6829 44.4118 8.80289 32.5949 6.24385 20.6832ZM21.2361 57.9867C19.5954 58.2844 18.2403 57.9227 16.8382 57.559C18.9718 56.8325 21.1234 56.2752 23.3755 55.8633C24.0131 56.235 24.665 56.5833 25.3236 56.9214C23.9667 57.2969 22.6274 57.734 21.2361 57.9867ZM24.4237 38.5841C25.3066 44.2556 25.8351 50.2105 27.2581 55.8051C26.2105 55.2424 25.1588 54.6854 24.0808 54.1883C22.0912 42.2669 20.1023 30.3459 18.1133 18.4244C18.3777 18.6093 18.6364 18.7844 18.8588 18.9536C19.7671 19.6442 20.899 20.8637 22.0438 21.2233C22.1773 27.0023 23.5356 32.8773 24.4237 38.5841Z" fill="black"/>
<path d="M52.1304 55.3557C52.0817 55.3729 52.041 55.3988 52.0017 55.4259C48.3476 55.792 44.6661 57.8042 43.9931 61.7019C43.6783 63.528 44.2634 65.1222 45.3414 66.3318C46.5294 72.1819 54.8823 73.0089 59.3439 69.9604C63.4156 67.1784 64.0874 59.4408 59.3977 57.2129C57.7222 55.2729 54.7316 54.4263 52.1304 55.3557ZM47.0129 59.616C48.4417 57.8839 50.6159 57.2066 52.7078 56.5192C55.8015 57.258 60.6175 57.9956 58.1623 62.7178C56.8786 65.1866 53.3959 66.8799 50.7135 66.807C46.7806 66.7005 44.3235 62.8752 47.0129 59.616ZM60.6829 61.0763C62.2899 64.5019 60.1368 68.1351 56.8205 69.3986C54.6934 70.2093 52.0843 70.547 49.9485 69.623C49.1275 69.2683 48.5201 68.7538 47.9998 68.1684C48.9958 68.5756 50.0825 68.7897 51.1593 68.7549C55.1426 68.6263 60.1375 65.686 60.6657 61.418C60.68 61.3013 60.6757 61.1906 60.6829 61.0763ZM72.2121 14.4851C69.5784 8.79298 63.3919 5.73447 56.9689 6.56808C48.1536 7.71185 41.6499 15.0265 38.5017 22.882C38.2216 23.5815 38.899 23.9918 39.4898 23.8702C42.0124 25.0784 44.5581 26.2239 47.1203 27.3459C47.6393 27.5729 48.1246 27.4055 48.3575 26.9818C50.1867 27.6638 51.9696 27.6417 53.3062 25.8748C54.4477 24.3651 54.7668 22.5146 56.8334 21.9283C58.9935 21.3158 60.5939 22.2766 61.167 24.0538C60.9698 24.5643 60.74 25.0514 60.4908 25.4894C57.859 30.115 52.5463 32.6248 49.553 37.0258C47.6748 39.7879 45.0678 45.3911 46.545 48.7899C46.6368 49.0014 46.7585 49.1811 46.8928 49.3481C46.8863 49.3819 46.8866 49.4176 46.9001 49.4543C47.487 50.9782 49.1381 52.7906 50.6363 53.4681C53.0272 54.5501 56.0185 54.097 58.5345 53.866C59.0631 53.8176 59.3789 53.4601 59.4109 53.0441C60.9617 48.4073 62.804 44.1356 65.5131 40.0594C68.034 36.266 71.273 33.0739 73.8733 29.3742C77.1628 24.6951 75.8771 18.5807 72.2121 14.4851ZM58.1774 20.048C56.4674 19.9848 54.8137 20.5217 53.6701 21.8361C52.9853 22.6233 52.7521 23.6581 52.1419 24.4725C51.1359 25.8153 49.9057 25.796 48.5986 25.9552C49.4675 21.5213 54.1523 15.4333 59.3151 17.4806C61.2293 18.2403 61.8256 19.8067 61.7452 21.4814C60.7993 20.6393 59.4289 20.0948 58.1774 20.048ZM48.5417 43.7691C49.7074 38.8773 53.0767 35.6575 56.6383 32.4153C60.0527 29.3072 64.2087 25.4681 63.6408 20.3227C63.2438 16.7329 60.2967 15.2408 56.9293 15.5233C51.58 15.9719 47.927 20.3379 46.8791 25.2769C44.7452 24.3736 42.6043 23.4923 40.4445 22.6509C44.2074 14.1233 53.2397 5.77848 63.2331 8.90785C71.2603 11.4219 73.6263 20.3715 69.2639 26.9669C64.3617 34.3786 55.0038 39.2827 54.4613 48.8765C53.0636 48.7037 51.6515 48.6777 50.2836 48.4209C47.58 47.913 47.8049 46.8623 48.5417 43.7691ZM50.8992 51.7036C50.3887 51.4314 49.9639 50.9917 49.542 50.5534C51.4117 50.799 53.6587 50.5148 55.0651 50.7572C55.202 50.7811 55.3443 50.7751 55.4804 50.7458C55.9196 51.2526 56.3983 51.727 56.8509 52.2316C54.8324 52.4354 52.5407 52.5799 50.8992 51.7036ZM73.2365 27.3916C71.6287 30.5193 68.5001 33.2039 66.3689 35.9935C62.8441 40.6063 59.618 45.7131 58.4952 51.4623C57.8312 50.6404 57.0972 49.843 56.1955 49.3489C56.2448 37.2322 73.5484 32.0511 73.4957 20.1564C74.3264 22.4646 74.5294 24.8742 73.2365 27.3916Z" fill="black"/>
</g>
</svg>
