<svg xmlns="http://www.w3.org/2000/svg" width="39.56" height="39.561" viewBox="0 0 39.56 39.561">
  <g id="Grupo_118" data-name="Grupo 118" transform="translate(-50.274)">
    <path id="Trazado_340" data-name="Trazado 340" d="M70.054,39.561A19.781,19.781,0,1,1,89.834,19.78a19.8,19.8,0,0,1-19.78,19.781m0-38.061a18.281,18.281,0,1,0,18.28,18.28A18.3,18.3,0,0,0,70.054,1.5" fill="#fff001"/>
    <path id="Trazado_341" data-name="Trazado 341" d="M67.154,31.283h4.632v-11.6h3.233l.344-3.884H71.786V13.586c0-.916.184-1.278,1.07-1.278h2.507V8.277H72.155c-3.447,0-5,1.518-5,4.424v3.1h-2.41v3.933h2.41Z" fill="#fff001"/>
  </g>
</svg>
