<svg width="96" height="139" viewBox="0 0 96 139" fill="none" xmlns="http://www.w3.org/2000/svg">
<mask id="mask0_1_2005" style="mask-type:alpha" maskUnits="userSpaceOnUse" x="0" y="0" width="96" height="139">
<rect x="50.7925" y="0.87793" width="48.0799" height="128.707" transform="rotate(23 50.7925 0.87793)" fill="#D9D9D9"/>
</mask>
<g mask="url(#mask0_1_2005)">
<mask id="mask1_1_2005" style="mask-type:alpha" maskUnits="userSpaceOnUse" x="0" y="1" width="95" height="137">
<rect x="50.8716" y="1.07227" width="47.7856" height="128.412" transform="rotate(23 50.8716 1.07227)" fill="#D9D9D9"/>
</mask>
<g mask="url(#mask1_1_2005)">
<mask id="mask2_1_2005" style="mask-type:alpha" maskUnits="userSpaceOnUse" x="0" y="1" width="95" height="137">
<rect x="50.8716" y="1.07227" width="47.7856" height="128.412" transform="rotate(23 50.8716 1.07227)" fill="#D9D9D9"/>
</mask>
<g mask="url(#mask2_1_2005)">
<path d="M80.923 52.5733C80.6855 53.1329 79.9861 53.7774 79.3755 53.9879C77.873 54.5325 75.9847 53.3057 73.1128 49.9636C71.8085 48.4692 70.6459 47.3147 70.5308 47.3612C70.362 47.4293 69.7096 49.7452 69.0847 52.55C66.5596 63.2756 62.9861 73.0419 56.5871 86.5598C50.9661 98.4693 47.3443 105.1 41.1918 115.042C36.6986 122.288 33.0628 127.304 31.3759 128.718C29.9287 129.896 27.4619 129.268 15.1595 124.663C9.57912 122.58 4.34361 120.688 3.55219 120.441C1.70411 119.898 0.882977 118.838 1.37451 117.68C1.6125 117.119 3.10098 115.724 4.71388 114.47C9.33968 110.91 18.9498 102.391 22.3647 98.7935C28.3192 92.4476 35.1047 83.5749 40.9277 74.5289C43.9054 69.8497 53.7131 52.6294 56.8556 46.5588L58.7497 42.8753L53.6376 44.8108C48.0056 46.9529 46.6441 46.9407 46.2443 44.648C45.9536 43.0118 46.4604 42.4768 55.8698 34.1014C64.0598 26.8166 68.1833 22.433 71.9506 17.002C73.3813 14.9644 74.8705 12.9085 75.2916 12.4706C76.1562 11.6617 77.8404 12.1414 78.184 13.3234C78.3075 13.7063 78.1624 16.3843 77.9079 19.2002C77.19 26.4468 77.6497 33.1509 79.1762 39.5577C80.851 46.4088 81.5014 51.2107 80.923 52.5733ZM77.0748 48.6261L76.3082 45.3259C74.356 37.1366 73.5576 31.5601 73.5761 26.8445C73.5587 21.2251 73.5465 21.0292 73.0893 22.1064C72.5454 23.3877 65.9627 30.5546 62.5361 33.6258C57.5913 38.0421 55.6279 39.8974 55.7463 39.9477C55.9887 40.0506 61.5671 38.6937 62.5338 38.3031C65.2491 37.2373 64.6568 40.5194 60.9644 47.4512C41.5713 83.3451 31.2841 97.5771 14.3367 112.046C10.5648 115.257 7.51941 117.879 7.53859 117.938C7.56029 117.992 9.81343 118.809 12.5211 119.767C15.2448 120.688 20.247 122.576 23.6419 123.922C29.412 126.231 29.8289 126.358 30.313 125.666C32.2343 122.802 44.6972 101.662 47.3141 96.8301C49.0981 93.5257 52.9729 85.4007 55.9799 78.7507C61.9767 65.2972 63.7862 60.2556 65.7671 50.8119C67.0207 44.9686 67.581 43.6485 69.2307 42.6522C70.0358 42.1931 70.1543 42.2434 72.2649 43.8448C73.4852 44.7436 75.0766 46.2206 75.7942 47.0909L77.0748 48.6261Z" fill="black"/>
<path d="M76.3086 45.3256L77.0752 48.6258L75.7946 47.0906C75.077 46.2203 73.4854 44.7438 72.2653 43.8445C70.1547 42.2431 70.0362 42.1928 69.2308 42.6525C67.5812 43.6487 67.0211 44.9683 65.7675 50.8116C63.7863 60.2559 61.9768 65.2975 55.9801 78.751C52.9733 85.4004 49.0985 93.5254 47.3145 96.8298C44.6976 101.662 32.2345 122.802 30.3132 125.666C29.829 126.358 29.4122 126.232 23.642 123.922C20.2472 122.576 15.2452 120.688 12.5213 119.767C9.81383 118.808 7.56069 117.992 7.53876 117.939C7.51958 117.879 10.5652 115.256 14.3369 112.046C31.2845 97.5768 41.5717 83.3448 60.9648 47.4509C64.657 40.5196 65.2493 37.2376 62.5342 38.3028C61.5673 38.6939 55.9889 40.0508 55.7465 39.948C55.628 39.8977 57.5917 38.0418 62.5365 33.6255C65.9631 30.5543 72.5455 23.388 73.0897 22.1061C73.5469 21.0289 73.5591 21.2248 73.5763 26.8447C73.558 31.5598 74.3564 37.1363 76.3086 45.3256Z" fill="white"/>
</g>
</g>
</g>
</svg>
