<svg width="194" height="429" viewBox="0 0 194 429" fill="none" xmlns="http://www.w3.org/2000/svg">
<mask id="mask0_1_1983" style="mask-type:alpha" maskUnits="userSpaceOnUse" x="0" y="0" width="194" height="429">
<rect x="0.637695" width="192.49" height="428.557" fill="#D9D9D9"/>
</mask>
<g mask="url(#mask0_1_1983)">
<path fill-rule="evenodd" clip-rule="evenodd" d="M28.747 67.9442C38.7211 22.8117 77.5791 -6.97478 115.538 1.4146C153.498 9.80334 176.185 53.1906 166.21 98.3232C156.236 143.456 117.378 173.242 79.4192 164.853C41.4594 156.464 18.7728 113.077 28.747 67.9442Z" fill="#FFF000"/>
<path d="M35.4563 41.7079C30.1495 50.7955 27.2713 58.7381 26.3939 66.7064C26.2668 67.8612 25.8903 68.9256 25.4912 70.052C24.9844 71.484 24.4603 72.963 24.4848 74.6477C24.5235 77.2318 24.2559 80.0171 23.6169 83.678C21.4925 95.8565 21.7111 106.702 24.2843 116.833C26.7704 126.624 30.0657 136.892 37.2784 145.662L38.0276 146.58C40.0082 149.015 41.8786 151.314 44.6233 153.106C46.1945 154.13 47.6413 155.424 49.0417 156.675C50.7767 158.227 52.5729 159.832 54.6729 161.006C56.4066 161.975 58.1409 163.033 59.8166 164.057C65.8811 167.757 72.1512 171.582 79.8616 172.153C80.9674 172.235 81.6759 172.509 82.0286 172.989C82.4245 173.532 82.4561 174.434 82.126 175.828C81.9861 176.42 81.7868 176.994 81.576 177.602C81.3897 178.14 81.2034 178.679 81.0589 179.228C80.5232 181.265 80.5709 182.645 81.2137 183.702C81.8339 184.719 83.0106 185.391 84.9177 185.817C86.0537 186.069 87.2336 186.095 88.3748 186.118L89.0808 186.136C94.3554 186.286 99.6958 185.718 104.935 184.428C107.939 183.689 109.797 184.496 111.566 187.309C116.162 194.609 116.025 202.164 111.148 210.407C108.593 214.728 105.293 218.714 102.381 222.232C99.6752 225.501 96.7068 228.628 93.8358 231.652C91.9847 233.602 90.0724 235.617 88.2446 237.654C79.3413 247.577 71.9004 259.283 65.4949 273.442C59.9237 285.759 57.3447 297.491 57.6122 309.307L57.6258 309.902C57.7051 313.594 57.787 317.411 59.1093 321.08C62.8669 331.492 67.7018 339.704 73.8901 346.188C79.587 352.16 84.6076 359.56 89.2394 368.811C92.4844 375.293 93.4399 382.207 92.0802 389.363C91.2961 393.499 90.4315 397.228 89.4386 400.761C86.2504 412.106 79.2962 419.533 68.7714 422.837C67.5548 423.218 66.6496 423.561 65.8353 423.951L65.7083 424.011C64.7031 424.489 63.0197 425.289 63.7844 427.212C64.2176 428.3 65.0178 428.557 65.7979 428.557C66.197 428.557 66.5916 428.49 66.9275 428.431C67.1106 428.4 67.2931 428.369 67.4678 428.347C67.7482 428.315 68.0248 428.242 68.3008 428.167L68.531 428.106C80.8384 424.997 89.2297 417.353 93.4734 405.382C95.0692 400.879 96.3013 395.972 97.3496 389.945C98.8835 381.137 97.3812 372.627 92.7591 363.929C88.1601 355.271 82.4812 347.261 75.8791 340.121C70.1757 333.954 66.1409 326.173 63.8875 316.996C62.1293 309.837 62.9088 302.292 63.9024 295.855C66.0081 282.208 72.3511 270.103 77.6424 261.081C83.282 251.464 89.8738 242.968 97.2342 235.827C104.148 229.12 110.29 221.452 115.492 213.038C121.406 203.47 121.709 194.196 116.391 185.47C116.121 185.025 115.896 184.552 115.611 183.955C115.526 183.779 115.437 183.592 115.342 183.396C117.836 182.16 118.946 181.415 119.23 180.309C119.535 179.125 118.717 177.843 117.436 176.024L116.815 175.148C115.861 173.801 114.872 172.409 114.012 170.983C112.691 168.794 112.979 167.592 115.155 166.219C115.911 165.741 116.832 165.43 117.722 165.129L117.852 165.085C122.127 163.64 125.988 161.168 130.001 157.306C131.852 155.525 133.727 153.766 135.601 152.008C137.701 150.037 139.802 148.066 141.871 146.063C145.761 142.301 150.634 137.147 153.815 130.655C158.664 120.756 161.45 109.409 162.581 94.9448C163.309 85.6464 162.697 76.5317 160.765 67.8528C160.184 65.2435 160.104 62.6136 160.019 59.8283L160.006 59.4273C159.951 57.6826 158.884 56.1623 157.854 54.691C157.095 53.6104 156.311 52.4931 155.916 51.2874C155.146 48.938 154.257 46.5931 153.396 44.3249C152.652 42.3629 151.881 40.3333 151.196 38.3178C144.797 19.5113 132.434 8.27992 113.397 3.97885C103.92 1.83573 93.7397 1.61909 82.2659 3.30445C65.803 5.72868 52.9753 13.7783 44.1371 27.2302C41.6646 30.9942 39.3809 34.9381 37.1733 38.7517L35.4563 41.7079ZM87.6243 175.512C87.7526 175.169 87.8797 174.827 87.9951 174.486C88.3652 173.376 89.231 173.055 90.7984 172.819C94.6785 172.242 98.1278 171.666 101.346 171.058C106.703 170.048 107.466 170.381 110.373 175.042C110.696 175.561 110.996 176.141 111.262 176.771C111.306 176.875 111.321 177.059 111.349 177.393C111.359 177.529 111.373 177.686 111.391 177.872C109.399 178.179 107.413 178.548 105.489 178.903C99.2213 180.064 93.2949 181.163 87.0505 180.391C86.4748 178.589 87.035 177.092 87.6243 175.512ZM72.9584 24.0039C72.9262 29.6686 70.9249 33.0225 66.4749 34.8775C63.4601 36.1354 60.1184 36.8691 56.2576 37.1205C53.8244 37.2798 51.6955 36.5641 50.0352 35.0225C46.8135 32.0303 46.8135 32.0303 49.3015 28.8137C51.8354 25.5403 54.905 22.2599 58.9617 18.4901C60.2389 17.3018 61.6335 16.3456 62.9933 15.7254C64.021 15.2573 65.0661 15.022 66.0725 15.022C66.9139 15.022 67.7276 15.1864 68.4787 15.5178C70.1331 16.2444 71.3988 17.7344 72.0422 19.7112C72.4549 20.9826 72.6799 22.3482 72.8288 23.2515C72.8772 23.5513 72.9191 23.8072 72.9584 24.0039ZM56.0558 41.3249C61.3021 41.1315 66.0223 39.9993 70.0861 37.9626C73.8991 36.0502 76.1215 32.9839 76.6915 28.8485C77.4207 23.5732 77.4935 16.9478 71.6831 12.1761C72.5986 11.0968 73.765 10.837 74.9926 10.5623C75.2517 10.5049 75.5084 10.4475 75.7579 10.3831C94.1582 5.64035 111.269 7.16645 126.614 14.9182C133.327 18.3089 138.79 23.991 142.415 31.3494C145.373 37.3565 147.674 43.7891 149.901 50.0108L151.024 53.1411C151.155 53.5034 151.18 53.9431 151.2 54.2971C151.206 54.3977 151.211 54.4924 151.218 54.5801C150.799 55.3996 150.184 55.4957 149.416 55.6162C149.248 55.642 149.082 55.6685 148.92 55.7013C144.221 56.6626 140.621 59.3783 137.91 64.0043C134.876 69.1887 133.162 74.9868 132.818 81.2383C132.177 92.8946 139.867 101.501 151.515 102.165C153.962 102.306 155.369 102.412 155.803 102.968C156.231 103.52 155.986 104.939 155.55 107.209C153.893 115.836 151.872 122.232 149 127.947C148.051 129.834 147.081 131.655 145.725 133.171C143.687 128.946 139.926 126.108 135.518 125.513C131.044 124.911 126.649 126.775 123.746 130.502C118.733 136.943 118.144 143.711 122 150.619C123.271 152.894 124.023 154.342 123.755 155.253C123.483 156.18 122.068 156.972 119.591 158.293C117.983 159.151 116.219 159.793 114.514 160.413C112.912 160.997 111.254 161.599 109.728 162.38C104.757 164.926 99.3393 165.819 94.0988 166.683C92.4844 166.95 90.8687 167.216 89.2581 167.528C84.0589 168.537 78.4671 167.745 72.6412 165.177C64.9875 161.8 58.5903 157.977 53.0836 153.488C52.7703 153.233 52.4466 152.985 52.1223 152.734C50.7715 151.696 49.493 150.714 48.838 149.231C49.3202 148.075 50.3273 147.658 51.3911 147.217C51.6207 147.123 51.8476 147.028 52.0668 146.928C67.6515 139.793 76.7972 122.842 75.3659 103.744C75.0145 99.0564 73.872 94.3459 71.9713 89.7411C68.3698 81.0139 61.9443 75.1248 52.328 71.7367C45.2152 69.2306 39.2313 68.5311 33.4944 69.5414L33.3048 69.5749C32.6756 69.689 32.1224 69.7883 31.624 69.5749C30.7897 60.2158 38.2532 45.5415 45.0185 35.6402C45.4679 35.6673 45.6781 35.9774 46.0224 36.5454C46.1784 36.8014 46.3344 37.0548 46.5208 37.2675C48.9721 40.0605 52.2467 41.4712 56.0558 41.3249ZM153.656 97.8069C149.119 98.1331 145.012 96.7166 142.11 93.8165C139.006 90.7173 137.498 86.1454 137.866 80.9449L137.867 80.894C137.735 75.8128 139.478 70.6181 143.198 65.0146C144.677 62.7851 146.696 61.3299 149.37 60.5653C150.284 60.3041 150.995 60.1739 151.563 60.1739C152.026 60.1739 152.393 60.2603 152.694 60.4318C153.358 60.8096 153.844 61.7045 154.273 63.3338C155.79 69.1087 156.679 73.856 157.072 78.2731C157.167 79.3518 157.286 80.4317 157.405 81.511C157.868 85.7257 158.346 90.0835 157.396 94.3678C156.688 97.5606 156.653 97.5915 153.656 97.8069ZM127.384 133.184C129.137 131.107 131.432 130.042 133.851 130.042C135.562 130.042 137.335 130.575 139.024 131.658C139.485 131.954 139.926 132.29 140.368 132.624C141.629 133.58 142.926 134.564 144.66 134.708C143.389 137.021 141.451 138.849 139.57 140.622C139.017 141.143 138.465 141.665 137.928 142.196C135.686 144.42 133.334 146.607 131.059 148.72C130.188 149.53 129.317 150.339 128.453 151.151C123.689 146.115 123.18 138.162 127.384 133.184ZM38.5247 73.3814C39.9979 73.3814 41.4931 73.4969 43.0011 73.727C48.7567 74.6052 54.2235 76.7805 59.2505 80.1918C65.5542 84.4684 68.2041 91.2073 69.9655 97.235C70.901 100.436 71.3182 103.778 71.2047 107.166C70.9171 115.4 69.1518 122.361 65.8069 128.445C62.0545 135.275 56.2693 140.442 48.1229 144.242C44.6704 145.85 44.1346 145.743 41.7361 142.945C37.0089 137.423 33.5099 130.88 31.3371 123.495C30.0927 119.266 29.025 115.126 28.1656 111.194C27.0102 105.899 25.8845 98.9003 27.4532 91.7147C28.4196 87.293 28.9212 82.7096 29.4061 78.2763L29.4306 78.0462C29.6994 75.5877 30.9245 74.3305 33.5311 73.8405C35.1572 73.5342 36.8271 73.3814 38.5247 73.3814Z" fill="black"/>
<path d="M165.857 129.047C166.388 129.047 166.966 128.852 167.554 128.462C168.208 128.028 168.772 127.521 169.189 126.997C172.006 123.447 175.423 118.591 176.852 112.494C178.926 103.66 177.168 94.9867 175.357 87.5502C175.157 86.7263 174.783 85.1937 172.866 84.97L172.65 84.9448L172.478 85.0796C171.2 86.0731 171.212 87.1769 171.392 88.1247C171.588 89.1563 171.807 90.1853 172.027 91.213C172.37 92.8165 172.724 94.4741 172.973 96.1111C174.913 108.847 172.319 118.108 164.813 125.253C164.282 125.758 163.179 126.808 164.126 128.109C164.579 128.732 165.18 129.047 165.857 129.047Z" fill="black"/>
<path d="M21.5764 41.9197C21.7718 41.9197 21.9716 41.8791 22.1683 41.7959C22.3191 41.7321 23.0735 41.3852 23.1953 40.7837C23.3417 40.05 23.43 39.2524 23.4823 38.1964C23.9284 29.2815 27.3752 21.8322 33.7279 16.0585C34.5808 15.2809 35.5267 14.5601 36.4409 13.8619C37.2527 13.2429 38.0921 12.602 38.88 11.9154C39.1959 11.6388 39.6466 11.3641 40.123 11.0727C41.1682 10.4331 42.2494 9.77162 42.4493 8.77807C42.546 8.29645 42.419 7.80838 42.0715 7.3274C41.6292 6.71683 41.1082 6.37125 40.5215 6.30097C39.3874 6.16429 38.3468 7.06435 37.4158 7.85802C37.0193 8.19522 36.6453 8.51372 36.3062 8.72585C34.1953 10.045 32.2237 11.6794 30.5725 13.1049C22.5648 20.0211 20.3166 29.4582 19.3217 35.9565L19.3159 36.0281C19.274 38.8811 19.4945 40.1222 20.225 41.1383C20.5932 41.6489 21.0741 41.9197 21.5764 41.9197Z" fill="black"/>
<path d="M0.703025 44.6188C0.782328 45.477 0.911276 46.8845 3.08986 46.8845C3.20527 46.8845 3.32777 46.8806 3.45607 46.8722L3.87064 46.8451L3.94608 46.4364C5.62627 37.2314 10.017 29.2121 14.6656 20.7228C15.3683 19.4391 16.0737 18.1528 16.7674 16.8608L17.2381 15.9858L16.2503 16.0774C13.7513 16.3108 12.6333 17.9981 11.6475 19.4868L11.5308 19.6634C7.72684 25.3875 4.47734 31.7775 1.59857 39.1972C1.06021 40.5853 0.470273 42.4319 0.681748 44.4048L0.703025 44.6188Z" fill="black"/>
<path d="M187.906 100.03C187.628 101.17 187.247 102.732 188.848 104.374L189.158 104.692L189.528 104.444C191.408 103.179 191.789 101.382 192.125 99.7949C192.205 99.4164 192.285 99.0405 192.385 98.6756C193.451 94.7543 193.37 90.9477 192.143 87.3597C191.791 86.3346 191.15 84.4248 189.192 84.8078C188.536 84.9368 188.065 85.2385 187.792 85.7034C187.339 86.4771 187.561 87.4584 187.87 88.4029C188.952 91.7059 188.991 95.174 187.996 99.6466L187.906 100.03Z" fill="black"/>
<path d="M91.0191 72.316C95.2357 74.4778 99.9952 75.5358 105.57 75.5494C105.636 75.5494 105.701 75.55 105.769 75.55C112.647 75.5494 118.913 73.4468 123.615 71.6074C126.751 70.3805 129.085 68.5088 130.551 66.0446C134.761 58.964 136.102 51.269 134.327 44.3761C132.752 38.2562 128.8 33.193 122.896 29.7308C120.377 28.2543 117.701 26.6644 115.117 24.9055C111.196 22.235 106.768 21.284 101.577 22.0003C98.9752 22.3594 95.923 22.8559 93.0081 23.8075C85.8031 26.1641 81.5652 30.9074 80.4111 37.9054C79.0617 46.0788 80.2918 54.2103 81.5143 60.3818C82.5459 65.5939 85.7444 69.6087 91.0191 72.316ZM84.8412 38.0982C86.081 32.2356 90.1867 28.7256 96.3994 28.2137C98.273 28.0596 100.254 27.8185 102.047 27.1047C103.334 26.5915 104.612 26.3356 105.875 26.3356C107.597 26.3356 109.292 26.8114 110.944 27.7604L112.769 28.8004C116.95 31.1743 121.275 33.6308 124.819 37.008C131.865 43.7191 132.698 55.9614 126.637 63.739C125.234 65.5391 123.559 66.8318 121.66 67.5829C114.5 70.4172 107.877 71.4907 101.426 70.8647C98.6386 70.5952 96.0719 69.8634 93.7985 68.6899C89.1828 66.3089 86.5046 62.884 85.6129 58.22C85.0733 55.4005 84.9037 52.5063 84.7393 49.7068C84.6883 48.839 84.6374 47.9724 84.5755 47.1046L84.5736 47.084C84.1932 43.6153 84.2783 40.7597 84.8412 38.0982Z" fill="black"/>
<path d="M104.57 95.8835C100.216 93.498 95.2312 93.6611 90.8908 96.3361C86.0127 99.3374 84.7097 104.603 84.1546 108.303C82.9863 116.079 87.6342 122.644 95.7212 124.638C96.9746 124.947 98.1829 125.1 99.3382 125.1C104.768 125.099 109.032 121.733 111.309 115.481C111.862 113.966 112.503 111.739 112.432 109.73C112.332 103.703 109.392 98.527 104.57 95.8835ZM108.002 109.729C108.098 111.513 107.746 113.174 106.859 115.114C104.864 119.489 101.457 121.439 97.288 120.608C92.5317 119.661 89.1307 116.163 88.8244 111.901C88.6007 108.801 89.1984 106.019 90.6516 103.396C92.208 100.588 94.8857 98.9705 97.9997 98.957H98.0378C101.459 98.957 104.75 100.872 106.428 103.844C107.508 105.753 108.051 107.774 108 109.685L108.002 109.729Z" fill="black"/>
</g>
</svg>
