<svg width="90" height="111" viewBox="0 0 90 111" fill="none" xmlns="http://www.w3.org/2000/svg">
<mask id="mask0_1_2146" style="mask-type:alpha" maskUnits="userSpaceOnUse" x="0" y="0" width="90" height="111">
<rect x="17.2495" y="0.159485" width="73.77" height="99.3177" transform="rotate(10 17.2495 0.159485)" fill="#D9D9D9"/>
</mask>
<g mask="url(#mask0_1_2146)">
<path d="M13.9713 32.6297C14.903 32.7411 15.845 32.9286 16.7841 32.8307C17.4973 32.7566 17.5047 31.7623 16.8331 31.6029C15.9178 31.3855 14.9543 31.4565 14.0188 31.4463C13.2228 31.4375 12.4352 31.3892 11.7192 31.7732C11.6388 31.8164 11.6372 31.9545 11.7083 32.0058C12.3718 32.4842 13.1773 32.5347 13.9713 32.6297ZM27.9577 14.618C27.4364 13.9625 26.7887 13.3967 26.1948 12.8076C25.6221 12.2396 25.0385 11.6023 24.3244 11.2169C24.0576 11.0724 23.6788 11.3876 23.8217 11.6768C24.1589 12.359 24.7167 12.9312 25.2291 13.49C25.8251 14.14 26.3954 14.8578 27.0639 15.4323C27.5775 15.8733 28.397 15.1702 27.9577 14.618ZM17.4778 49.5652C15.9696 49.7385 13.9101 49.9922 12.7119 51.0022C12.465 51.21 12.4718 51.7597 12.8839 51.7796C13.6536 51.8165 14.3844 51.5776 15.1386 51.4492C15.9618 51.309 16.7934 51.188 17.6227 51.0929C18.6012 50.9805 18.4624 49.452 17.4778 49.5652ZM18.3634 21.4629C19.1369 21.8059 19.9075 22.1726 20.7017 22.4629C21.4895 22.7506 22.0652 21.6021 21.27 21.2666C20.4328 20.9132 19.5556 20.6343 18.6955 20.3411C17.997 20.1023 17.2923 19.826 16.5521 19.7979C16.2478 19.7861 16.1681 20.2173 16.3663 20.3892C16.9325 20.8801 17.682 21.1606 18.3634 21.4629ZM15.8385 42.4379C15.9794 42.129 15.9665 41.9856 15.7764 41.7004C15.6303 41.4811 15.3623 41.3693 15.1047 41.3898C13.7373 41.4979 12.1159 41.6317 10.8878 42.2892C10.7612 42.357 10.7822 42.586 10.9169 42.633C12.2381 43.0917 13.8731 42.963 15.2433 42.8546C15.4949 42.8348 15.7334 42.6674 15.8385 42.4379ZM79.7849 41.86C80.3559 42.3517 81.2248 42.1667 81.9381 42.1668C82.6728 42.1671 83.5076 42.2628 84.1675 41.9153C84.4249 41.7795 84.3096 41.4369 84.1176 41.3179C83.4965 40.9339 82.5506 40.9984 81.8381 40.9501C81.1578 40.9044 80.3961 40.6808 79.8197 41.1123C79.5759 41.2946 79.5489 41.6568 79.7849 41.86ZM72.1889 21.8044C72.8865 21.7075 73.4423 21.2329 73.9364 20.7642C74.5409 20.1916 75.124 19.6312 75.6572 18.9904C75.9322 18.6597 75.5162 18.2382 75.1655 18.4513C74.4502 18.8855 73.805 19.3822 73.1465 19.8975C72.6058 20.3202 72.0846 20.7977 71.8827 21.4727C71.8305 21.6474 72.0218 21.8277 72.1889 21.8044ZM52.272 10.8183C52.7906 10.3457 52.6955 9.50095 52.7409 8.84343C52.7926 8.09597 52.8567 7.363 52.8171 6.61447C52.805 6.37607 52.4236 6.29289 52.3385 6.53008C52.0684 7.27954 51.9077 8.04418 51.7298 8.82038C51.5759 9.49199 51.3001 10.1708 51.6738 10.7907C51.8132 11.0219 52.1066 10.9694 52.272 10.8183ZM64.3799 15.6509C64.6014 15.6544 64.7923 15.4732 64.8899 15.2938C65.535 14.1084 66.3302 12.8957 66.6746 11.5798C66.7642 11.2369 66.3128 11.1095 66.1054 11.3124C65.1301 12.2666 64.4625 13.6024 63.7512 14.753C63.6302 14.9483 63.697 15.205 63.8045 15.3851C63.9556 15.6384 64.0929 15.6472 64.3799 15.6509ZM36.994 9.18732C37.257 9.83823 37.4121 10.7865 38.0907 11.1051C38.3699 11.2358 38.6187 11.0534 38.7001 10.7905C38.912 10.1055 38.2787 9.28458 37.9916 8.67494C37.6555 7.96291 37.281 7.22634 36.8185 6.58896C36.6412 6.34467 36.1596 6.47097 36.227 6.80651C36.3905 7.61967 36.6837 8.41974 36.994 9.18732ZM29.2714 84.4958C28.7153 84.1542 28.3056 83.6713 27.8516 83.213C27.777 83.1375 27.6828 83.2379 27.7019 83.3182C27.8586 83.9913 28.3216 84.5464 28.8477 84.9833C29.2801 85.3422 29.9844 85.8351 30.5611 85.6523C30.7096 85.6052 30.7952 85.3804 30.6849 85.2549C30.3401 84.8636 29.7212 84.7718 29.2714 84.4958ZM57.2082 25.5455C57.3629 25.6051 57.5364 25.388 57.3778 25.2831C46.3672 17.9733 29.6104 26.0298 28.7461 39.2835C28.745 39.2975 28.7627 39.3001 28.7668 39.2872C32.9208 26.0063 44.1483 20.4968 57.2082 25.5455ZM31.5084 98.0906C31.0258 97.9026 30.5749 97.656 30.1021 97.4484C29.9606 97.3861 29.7732 97.5274 29.8437 97.685C30.1342 98.3326 30.7879 98.7793 31.4913 98.8714C31.6132 98.8875 31.7621 98.8536 31.8379 98.7468C32.0607 98.4306 31.8125 98.2093 31.5084 98.0906ZM79.8023 31.4732C80.8222 31.1696 81.7408 30.824 82.656 30.2807C82.9056 30.1326 82.7258 29.7741 82.4734 29.7851C81.4011 29.8309 80.4214 30.0633 79.3937 30.3696C79.1593 30.4394 78.9739 30.734 79.0121 30.977C79.02 31.0252 79.0257 31.0809 79.0465 31.1255C79.186 31.4287 79.477 31.5702 79.8023 31.4732ZM54.607 51.1688C54.1578 50.8634 53.6216 51.4544 54.0495 51.8262C54.4755 52.1958 54.6333 52.7777 54.4914 53.3167C54.4675 53.3461 54.4406 53.3696 54.4217 53.4095C54.0118 54.2859 53.1783 54.7253 52.2117 54.8448C52.5717 53.9778 52.9286 53.1076 53.2713 52.228C53.3395 52.0524 53.0956 51.8583 52.9738 52.0357C52.353 52.9387 51.7711 53.884 51.223 54.8598C50.0748 54.763 48.8816 54.2986 48.0204 53.6014C48.8726 52.9787 49.5092 52.1436 49.5792 51.1477C49.5799 51.1332 49.5746 51.1223 49.5743 51.1086C49.5767 51.0844 49.5853 51.0641 49.5836 51.0378C49.519 50.0951 48.8063 49.3817 47.8313 49.4611C46.7991 49.5449 46.124 50.4824 45.9587 51.4329C45.9414 51.5332 45.9634 51.6149 45.9989 51.6872C46.0211 52.3489 46.2154 52.9326 46.5353 53.4369C46.0954 53.6366 45.6513 53.7854 45.2627 53.8617C44.1342 54.0838 42.9674 53.8161 42.1985 53.0988C42.8654 52.8713 43.4642 52.5267 43.9373 52.0639C44.0026 52.0394 44.0655 52.0004 44.1171 51.9248C44.9344 50.7361 44.572 49.0839 42.9899 48.8764C41.4807 48.6782 40.5445 50.084 40.5154 51.4368C40.5129 51.5388 40.5482 51.6124 40.5963 51.6723C40.6442 51.9534 40.7226 52.2185 40.8272 52.4696C40.3376 52.5203 39.8343 52.5194 39.3446 52.454C39.1648 51.4522 38.973 50.472 38.7697 49.5339C38.6726 49.0853 37.9805 49.1203 38.0373 49.6033C38.1392 50.4684 38.2439 51.344 38.3476 52.2245C37.2635 51.8621 36.3988 51.1457 36.1879 50.026C36.1881 50.0169 36.1924 50.0108 36.1917 50.0016C36.1564 49.4045 36.626 48.6697 37.3198 48.8941C37.7827 49.044 38.1296 48.3727 37.6535 48.1918C37.1027 47.9822 36.5217 48.05 36.0398 48.4002C35.5371 48.765 35.3401 49.3016 35.2907 49.8892C35.2868 49.9031 35.2888 49.9203 35.2862 49.9353C35.2825 49.987 35.2725 50.0362 35.271 50.0887C35.2687 50.1867 35.3009 50.2597 35.3446 50.3216C35.7115 51.8421 36.9638 52.808 38.4629 53.2126C39.4048 61.4141 40.0286 70.1004 36.3613 77.6058C34.3883 77.5264 32.4257 77.672 30.5236 78.12C30.4633 78.134 30.4739 78.2365 30.5345 78.2412C37.0317 78.766 42.7374 78.9517 48.882 81.4577C49.3691 81.6565 49.723 80.9168 49.2338 80.7172C48.0371 80.229 46.7918 79.7713 45.5175 79.3614C45.5571 79.3046 45.5878 79.2367 45.5988 79.1481C46.1444 74.7295 46.7622 70.3714 47.9643 66.0735C48.9805 62.4407 50.4568 59.0452 51.8956 55.6071C53.217 55.4632 54.4399 54.9099 55.1569 53.8847C55.2317 53.7781 55.2476 53.6749 55.2396 53.5783C55.5402 52.7282 55.3922 51.7033 54.607 51.1688ZM46.8212 51.6064C46.8225 51.5989 46.827 51.5942 46.828 51.5862C46.8862 51.0393 47.1267 50.4235 47.7221 50.2794C48.306 50.1379 48.7023 50.5083 48.7593 51.0577C48.6668 51.8376 48.0978 52.4856 47.3812 52.9688C47.0595 52.5579 46.8617 52.097 46.8212 51.6064ZM42.6941 49.6473C43.68 49.6505 43.9984 50.6202 43.4601 51.3675C43.4498 51.382 43.4485 51.3973 43.44 51.4121C43.0029 51.8436 42.3667 52.1547 41.6466 52.3327C41.5104 52.0625 41.4054 51.7672 41.3586 51.4312C41.3627 51.405 41.3737 51.3838 41.3733 51.3555C41.3656 50.5907 41.8161 49.6445 42.6941 49.6473ZM44.6677 78.9839C44.6654 79.0258 44.677 79.0606 44.683 79.0986C42.2605 78.3696 39.7402 77.8419 37.2251 77.6588C41.116 70.8161 40.8376 61.3563 39.5081 53.396C40.115 53.4547 40.7311 53.4332 41.3252 53.3267C42.0949 54.2955 43.331 54.8649 44.6615 54.8136C45.41 54.7849 46.2937 54.5515 47.1051 54.1529C48.0306 55.0458 49.415 55.5489 50.8091 55.6299C47.0517 62.6783 45.0953 71.2979 44.6677 78.9839ZM60.97 20.7853C50.965 14.2164 37.4298 15.9167 29.1879 24.5223C24.9805 28.9157 22.5266 34.7468 22.1332 40.801C21.9434 43.721 22.224 46.6684 23.0322 49.4839C24.2508 53.7256 27.4957 57.2225 27.9724 61.6603C28.5649 67.1759 23.5086 74.4882 26.6855 79.6128C24.9067 80.7117 24.4734 83.1358 25.3158 85.2204C25.399 85.4272 25.4988 85.62 25.6012 85.8115C23.8146 86.9077 23.3777 89.3366 24.2219 91.4242C24.6433 92.4677 25.3085 93.306 26.1267 93.9888C25.5376 98.941 29.3374 102.908 34.1151 103.958C40.7313 105.411 45.6667 104.213 48.4361 97.6772C48.4454 97.6556 48.4441 97.6344 48.4492 97.613C49.0309 97.4275 49.5814 97.1945 50.0897 96.9036C52.4597 95.5475 53.3501 92.736 51.4268 90.6866C51.3946 90.6523 51.3559 90.6368 51.3205 90.6128C53.5525 89.247 54.3765 86.5695 52.5936 84.5699C55.0297 82.9524 56.2046 80.0121 56.7231 75.6648C57.0122 73.2403 57.0813 70.721 57.8381 68.3808C58.786 65.447 60.75 63.6593 62.9491 61.6253C65.957 58.8431 68.6907 56.1627 70.4647 52.4478C70.5081 52.3826 70.5464 52.3097 70.5785 52.2256C70.6161 52.144 70.6412 52.0637 70.6583 51.9848C74.8288 40.6729 71.2586 27.54 60.97 20.7853ZM42.4432 102.678C40.3801 103.425 37.8848 103.005 35.7747 102.655C30.942 101.853 28.1369 99.261 27.4393 94.8917C29.7783 96.2232 32.791 96.749 35.1657 97.1813C38.5305 97.7942 43.3177 98.6784 47.1651 97.9306C45.9315 99.8175 44.6944 101.864 42.4432 102.678ZM42.9025 96.2549C40.6587 96.2394 38.4338 95.9955 36.224 95.6299C34.5433 95.3518 32.8307 95.0498 31.1952 94.5639C28.028 93.623 23.9376 90.7978 26.4213 86.9926C28.7326 89.6403 33.0685 90.3967 36.2596 90.9775C40.2295 91.7003 46.1826 92.8064 50.2309 91.154C50.2152 91.2637 50.2197 91.3774 50.2776 91.4909C52.7807 96.3989 44.6729 96.2675 42.9025 96.2549ZM43.9964 90.0511C41.7527 90.0351 39.5277 89.7917 37.318 89.4257C35.6372 89.1475 33.9247 88.8456 32.2892 88.3596C29.1033 87.4137 24.9786 84.5614 27.5541 80.7229C31.4535 84.8997 40.1842 85.7795 45.3793 86.0368C47.8487 86.1586 49.8048 85.8927 51.3584 85.2375C51.365 85.2541 51.363 85.2706 51.3715 85.2871C53.8746 90.1951 45.7668 90.0637 43.9964 90.0511ZM68.6795 51.3236C65.6718 57.8609 57.8653 60.946 55.7752 67.8687C54.7232 71.354 55.0073 75.0841 54.2341 78.6172C52.8051 85.1493 46.381 84.3498 41.2677 83.5666C37.7195 83.0233 32.3085 82.3305 29.5502 79.8558C25.6109 76.3206 29.1373 69.9344 29.749 65.8224C30.7401 59.1561 26.9156 55.4373 25.0211 49.4731C20.0928 33.9553 32.6181 17.3962 48.9498 18.4733C65.5046 19.5656 74.2832 36.5467 68.6795 51.3236ZM82.5535 52.672C80.8044 51.8569 78.7979 51.4767 76.9356 51.0072C76.0809 50.7914 75.8537 52.1316 76.6985 52.352C78.5097 52.8248 80.3935 53.4387 82.2686 53.5649C82.7706 53.5988 83.0713 52.9135 82.5535 52.672ZM75.1397 59.2067C74.4413 58.7686 73.8989 59.9316 74.5895 60.3652C75.638 61.0226 76.7094 61.5734 77.8791 61.985C78.159 62.0835 78.3801 61.7642 78.1616 61.5472C77.2437 60.6343 76.2337 59.8931 75.1397 59.2067ZM28.499 90.286C28.065 89.9491 27.5475 89.3549 26.9762 89.3083C26.9008 89.3018 26.8158 89.3424 26.8058 89.4276C26.7313 90.0699 27.3947 90.6781 27.86 91.0392C28.333 91.4057 29.1287 92.0978 29.7594 91.8279C29.912 91.7625 29.9811 91.6085 29.933 91.4498C29.7634 90.8886 28.9336 90.6226 28.499 90.286ZM61.0544 27.3467C59.8827 27.1401 59.5594 28.9608 60.7333 29.1678C61.905 29.3744 62.2283 27.5537 61.0544 27.3467Z" fill="black"/>
</g>
</svg>
