<svg width="169" height="66" viewBox="0 0 169 66" fill="none" xmlns="http://www.w3.org/2000/svg">
<mask id="mask0_1_2017" style="mask-type:alpha" maskUnits="userSpaceOnUse" x="0" y="0" width="169" height="66">
<rect y="0.0214844" width="168.422" height="65.7206" fill="#D9D9D9"/>
</mask>
<g mask="url(#mask0_1_2017)">
<mask id="mask1_1_2017" style="mask-type:alpha" maskUnits="userSpaceOnUse" x="0" y="0" width="169" height="66">
<rect x="0.141602" y="0.163574" width="168.142" height="65.4367" fill="#D9D9D9"/>
</mask>
<g mask="url(#mask1_1_2017)">
<mask id="mask2_1_2017" style="mask-type:alpha" maskUnits="userSpaceOnUse" x="0" y="0" width="169" height="66">
<rect x="0.141602" y="0.163574" width="168.142" height="65.4367" fill="#D9D9D9"/>
</mask>
<g mask="url(#mask2_1_2017)">
<path d="M164.973 17.6083L165.135 20.762L163.187 22.8719C160.993 25.2385 160.497 25.4451 160.497 23.9938C160.497 22.3751 158.175 14.8733 156.723 11.6861C155.936 10.0283 154.53 7.66164 153.575 6.42249C152.621 5.17776 151.918 3.97768 152.04 3.81023C152.453 3.10693 156.517 3.39718 157.884 4.22328C159.581 5.30056 162.238 8.82264 163.645 11.9317C164.432 13.6732 164.806 15.37 164.973 17.6083Z" fill="white"/>
<path d="M155.272 17.569C156.768 21.9619 157.801 27.1864 157.388 27.8897C157.181 28.219 151.17 31.2052 150.757 31.2052C150.718 31.2052 150.55 29.9605 150.427 28.3864C150.053 23.2903 146.364 13.712 143.171 9.44759L141.926 7.78981L144.667 6.46136C146.196 5.75806 147.564 5.1329 147.692 5.1329C147.854 5.09383 148.602 5.79713 149.389 6.66788C151.711 9.28014 153.782 13.0087 155.272 17.569ZM152.744 23.6587C153.324 23.5806 153.659 23.2457 153.659 22.7098C153.659 21.8781 152.621 21.3814 152.085 21.9228C151.918 22.0847 151.795 22.5814 151.795 23.0001C151.795 23.5806 152.04 23.7871 152.744 23.6587ZM147.854 13.5502C148.892 13.9241 149.763 13.3436 149.635 12.3892C149.512 11.5184 148.105 10.977 147.525 11.5575C147.028 12.0989 147.19 13.299 147.854 13.5502Z" fill="white"/>
<path d="M147.48 29.9997L147.731 32.6566L135.546 38.6626C128.876 41.9391 123.322 44.7132 123.194 44.7579C123.071 44.8416 122.987 44.049 122.987 43.0554C122.987 41.7325 122.742 40.9455 122.077 40.2366L121.167 39.2431L126.844 36.6755C129.953 35.2633 135.713 32.4445 139.565 30.4184C143.461 28.4257 146.737 26.8963 146.944 27.0581C147.111 27.1865 147.357 28.5094 147.48 29.9997Z" fill="white"/>
<path d="M145.08 20.304C146.861 25.1098 148.022 23.9935 133.928 30.7865C127.051 34.102 121.246 36.8427 121.084 36.9208C120.878 37.0045 120.71 36.4687 120.71 35.7598C120.71 34.063 120.091 32.9857 118.595 32.0758L117.355 31.3279L130.534 24.6577C137.785 20.9682 143.835 17.9819 143.958 17.9429C144.125 17.9429 144.622 19.0201 145.08 20.304Z" fill="white"/>
<path d="M142.055 13.8796C142.674 15.0016 143.087 15.9504 143.009 16.0342C142.964 16.0788 139.236 17.8594 134.798 19.9749C130.366 22.1294 124.813 24.8645 122.491 26.1036C118.349 28.3029 117.394 28.5094 117.394 27.1865C117.394 26.1483 115.698 24.1165 113.789 22.9165C112.795 22.2522 112.131 21.6717 112.298 21.5489C112.46 21.4206 116.272 19.64 120.71 17.6082C125.142 15.5374 130.947 12.847 133.559 11.6023L138.32 9.31934L139.61 10.5641C140.352 11.2283 141.429 12.7186 142.055 13.8796Z" fill="white"/>
<path d="M118.142 41.0682C119.923 42.0617 120.252 42.8934 119.633 45.087C119.426 45.9187 119.342 45.9187 114.575 45.3773C106.538 44.4675 107.157 44.674 106.867 42.8934C106.744 42.0227 105.873 40.1137 104.958 38.7071L103.261 36.0948L106.203 30.2117C107.777 26.9743 109.105 24.0774 109.105 23.8262C109.105 23.1229 109.518 23.2066 111.176 24.2002C114.492 26.1873 115.569 28.2637 114.33 30.167C113.247 31.7857 113.459 33.1923 114.827 33.5272C116.44 33.8956 117.807 34.8501 117.807 35.5981C117.807 35.9274 117.433 36.7591 116.937 37.3787C115.736 38.9974 116.066 39.9463 118.142 41.0682Z" fill="white"/>
<path d="M165.844 9.28028C168.121 14.3373 168.785 18.2334 167.915 21.4206C167.418 23.2067 164.845 26.1874 162.606 27.5549C161.78 28.0517 160.58 29.0899 159.871 29.8378C159.045 30.7086 156.684 32.0761 152.788 33.8567C146.57 36.7146 135.172 42.3912 127.341 46.5775L122.574 49.106L118.845 48.8995C105.79 48.0287 95.4301 46.3319 94.4756 44.8416C94.2244 44.4229 95.017 42.6814 97.0879 39.0756C98.7456 36.2178 101.397 31.2891 102.971 28.0963C106.951 20.053 106.744 20.3433 108.692 19.2269C110.931 17.9431 127.173 10.2738 137.784 5.46795C143.048 3.10687 146.447 1.77841 147.402 1.77841C148.189 1.77841 148.976 1.61096 149.099 1.36536C149.221 1.15884 149.925 0.784863 150.673 0.578339C151.421 0.371814 153.117 0.165289 154.53 0.165289C159.335 0.0815633 163.025 3.06221 165.844 9.28028ZM165.135 20.7619L164.973 17.6082C164.806 15.37 164.432 13.6731 163.645 11.9316C162.238 8.82258 159.581 5.30049 157.884 4.22322C156.517 3.39712 152.453 3.10687 152.04 3.81017C151.917 3.97762 152.621 5.1777 153.575 6.42242C154.53 7.66157 155.936 10.0282 156.723 11.686C158.174 14.8732 160.496 22.3751 160.496 23.9938C160.496 25.445 160.993 25.2385 163.187 22.8718L165.135 20.7619ZM157.387 27.8898C157.8 27.1865 156.768 21.962 155.272 17.5692C153.782 13.0089 151.711 9.28028 149.389 6.66802C148.602 5.79727 147.854 5.09397 147.692 5.13304C147.564 5.13304 146.196 5.7582 144.667 6.4615L141.926 7.78995L143.171 9.44773C146.364 13.7122 150.053 23.2905 150.427 28.3866C150.55 29.9606 150.717 31.2054 150.756 31.2054C151.169 31.2054 157.181 28.2191 157.387 27.8898ZM147.731 32.6566L147.48 29.9997C147.357 28.5094 147.111 27.1865 146.944 27.0581C146.737 26.8963 143.461 28.4257 139.565 30.4183C135.714 32.4445 129.953 35.2633 126.844 36.6755L121.168 39.2431L122.077 40.2366C122.742 40.9455 122.987 41.7325 122.987 43.0554C122.987 44.049 123.071 44.8416 123.194 44.7578C123.322 44.7132 128.876 41.9391 135.546 38.6626L147.731 32.6566ZM133.927 30.7867C148.021 23.9938 146.86 25.1101 145.08 20.3042C144.622 19.0204 144.125 17.9431 143.958 17.9431C143.835 17.9822 137.784 20.9685 130.534 24.658L117.355 31.3282L118.594 32.0761C120.09 32.9859 120.71 34.0632 120.71 35.7601C120.71 36.469 120.877 37.0048 121.084 36.9211C121.246 36.8429 127.051 34.1023 133.927 30.7867ZM143.009 16.0342C143.087 15.9505 142.674 15.0016 142.054 13.8796C141.429 12.7186 140.352 11.2283 139.61 10.5641L138.32 9.31935L133.559 11.6023C130.947 12.847 125.142 15.5374 120.71 17.6082C116.272 19.64 112.46 21.4206 112.298 21.549C112.131 21.6717 112.795 22.2523 113.788 22.9165C115.697 24.1166 117.394 26.1483 117.394 27.1865C117.394 28.5094 118.349 28.3029 122.49 26.1037C124.812 24.8645 130.366 22.1295 134.798 19.9749C139.236 17.8594 142.964 16.0788 143.009 16.0342ZM119.633 45.0872C120.252 42.8935 119.923 42.0619 118.142 41.0683C116.066 39.9464 115.736 38.9975 116.937 37.3788C117.433 36.7592 117.807 35.9275 117.807 35.5982C117.807 34.8502 116.44 33.8958 114.827 33.5274C113.459 33.1925 113.247 31.7859 114.33 30.1672C115.569 28.2638 114.492 26.1874 111.176 24.2003C109.518 23.2067 109.105 23.123 109.105 23.8263C109.105 24.0775 107.777 26.9744 106.203 30.2118L103.261 36.095L104.958 38.7072C105.874 40.1138 106.744 42.0228 106.867 42.8935C107.157 44.6741 106.538 44.4676 114.575 45.3774C119.342 45.9188 119.426 45.9188 119.633 45.0872Z" fill="black"/>
<path d="M153.659 22.7101C153.659 23.2459 153.324 23.5808 152.743 23.659C152.04 23.7873 151.794 23.5808 151.794 23.0003C151.794 22.5817 151.917 22.0849 152.085 21.923C152.621 21.3816 153.659 21.8784 153.659 22.7101Z" fill="black"/>
<path d="M149.634 12.3894C149.763 13.3439 148.892 13.9244 147.854 13.5504C147.189 13.2992 147.028 12.0992 147.524 11.5577C148.105 10.9772 149.512 11.5186 149.634 12.3894Z" fill="black"/>
<path d="M81.6267 51.0988C82.7877 51.0988 82.9942 51.2216 82.9942 52.0924C82.9942 54.3697 77.8144 57.0657 68.9059 59.304C65.1773 60.2584 63.6814 60.4203 58.3397 60.4203C49.1354 60.4203 44.4132 58.8909 39.8529 54.4534L37.4918 52.1314L34.8405 54.1241C26.2614 60.7106 13.2447 65.6002 4.42001 65.6002C1.26632 65.6002 0.440225 65.4774 0.2337 64.9806C0.110902 64.6066 0.110902 64.2326 0.2337 64.0708C0.356499 63.9424 2.8013 63.3228 5.62008 62.7032C12.2512 61.2073 18.7986 59.0137 23.5654 56.6917C27.6289 54.7046 32.9316 51.3444 34.4219 49.7703L35.3373 48.7321L34.3437 46.4939C32.725 43.0164 32.0217 39.6562 32.0217 35.682C32.0217 30.2119 33.5958 26.4387 36.7439 24.5297C37.6146 23.9939 38.8147 23.7427 40.3943 23.7427C42.4652 23.7427 42.962 23.9101 44.2904 25.0711C49.3419 29.5477 48.4321 38.8301 42.1303 47.0353C41.1367 48.3191 40.3106 49.5638 40.3106 49.7703C40.3106 50.4737 43.9164 53.499 45.9873 54.5372C49.3028 56.1949 52.0769 56.6917 57.921 56.6526C64.0554 56.608 67.8286 55.7819 75.7045 52.7957C78.1884 51.8858 80.8843 51.0988 81.6267 51.0988ZM42.2587 39.9911C44.5751 35.3918 44.6588 30.8315 42.5489 28.303C41.2205 26.7289 39.6017 26.6843 37.9049 28.0964C35.1698 30.3738 34.5503 36.5081 36.3699 42.3522C36.9504 44.1774 37.6146 45.7906 37.8212 45.9189C38.4017 46.2483 40.6399 43.3067 42.2587 39.9911Z" fill="black"/>
</g>
</g>
</g>
</svg>
