<svg xmlns="http://www.w3.org/2000/svg" xmlns:xlink="http://www.w3.org/1999/xlink" width="184.052" height="209.905" viewBox="0 0 184.052 209.905">
  <defs>
    <clipPath id="clip-path">
      <rect id="Rectángulo_61" data-name="Rectángulo 61" width="62.752" height="135.675" fill="none"/>
    </clipPath>
    <clipPath id="clip-path-2">
      <rect id="Rectángulo_55" data-name="Rectángulo 55" width="144.34" height="173.005" fill="none"/>
    </clipPath>
    <clipPath id="clip-path-3">
      <rect id="Rectángulo_54" data-name="Rectángulo 54" width="143.999" height="172.662" fill="none"/>
    </clipPath>
  </defs>
  <g id="Grupo_74" data-name="Grupo 74" transform="translate(0)">
    <g id="Grupo_37" data-name="Grupo 37" transform="translate(146.655 147.716) rotate(-164)">
      <g id="Grupo_36" data-name="Grupo 36" clip-path="url(#clip-path)">
        <path id="Trazado_276" data-name="Trazado 276" d="M3.653,75.558c-.874-1.445-1.635-9.7-2.89-32.06C.535,39.734.268,34.866.116,32.66c-.228-3.917-.19-4.031.761-5.134C2.284,25.853,4.3,26,10.27,28.21a43.339,43.339,0,0,0,5.7,1.863l.951.114-.114-6.275C16.7,18.171,17.534,3.985,18.1,2.046c.646-2.168,2.624-2.738,3.917-1.1C24.227,3.758,27.46,16.878,30.084,33.8c1.978,12.968,1.978,13.843-.418,14.832-1.559.646-6.465.266-11.9-.875a20.393,20.393,0,0,0-4.222-.684,13.938,13.938,0,0,0-.418,2.129A110.741,110.741,0,0,1,8.711,68.218c-1.255,3.993-2.51,7.454-2.7,7.72a1.476,1.476,0,0,1-2.358-.38m3-10.991A116.055,116.055,0,0,0,9.319,52.7c.723-4.145,1.521-7.872,1.711-8.253.609-1.141,1.521-1.179,5.895-.19C22.706,45.59,28.03,46.237,28.563,45.7c.913-.913-3.879-26.545-6.769-36.167L21.147,7.37l-.3,1.711c-.152.951-.381,6.427-.494,12.17-.152,9.507-.228,10.534-.875,11.409-1.217,1.559-3.765,1.293-10.116-1.1-2.89-1.1-5.514-1.9-5.857-1.749-.418.152-.494.646-.3,2.206.456,3.879.989,14.147,1.179,23.579.228,9.317.456,13.8.8,13.5.076-.114.761-2.129,1.483-4.525" transform="translate(0 59.295)" fill-rule="evenodd"/>
        <path id="Trazado_277" data-name="Trazado 277" d="M13.066,60.5c-.456-.38-1.331-2.434-2.168-5.21A215.145,215.145,0,0,0,2.532,33.236,51.044,51.044,0,0,1,.06,27.151c-.228-2.13-.038-2.282,4.906-3.613,3.651-.989,3.461-.114,2.358-9.774C5.8.682,5.84-.231,7.97.036c.913.114,1.407.837,4.145,6.085,1.711,3.309,4.83,8.633,6.921,11.865,4.069,6.2,5.324,8.6,5.362,10.04,0,2.016-1.1,2.776-4.944,3.309-2.814.418-4.6,1.026-4.982,1.749-.228.456-.228,2.168,0,4.792.608,6.618,1.255,20.917.989,21.792-.38,1.217-1.521,1.635-2.4.836m-1.6-20.993c-.266-4.183-.3-6.617-.076-7.264.836-2.168,2.89-3.157,8.062-3.993,1.1-.191,1.521-.418,1.521-.913A17.709,17.709,0,0,0,18.961,23.5c-1.141-1.749-3.08-4.83-4.335-6.807s-2.852-4.678-3.537-6.009A8.426,8.426,0,0,0,9.681,8.478a62.009,62.009,0,0,0,.646,7.073c.647,5.553.723,7.15.381,8.025-.533,1.217-2.51,2.282-5.591,3a6.15,6.15,0,0,0-2.016.684,16.809,16.809,0,0,0,1.75,4.259c1.1,1.407,6.5,13.995,6.655,15.63.038.3.152.114.228-.418a58.187,58.187,0,0,0-.266-7.226" transform="translate(38.353 34.95)" fill-rule="evenodd"/>
        <path id="Trazado_278" data-name="Trazado 278" d="M1.258,46.471a7.144,7.144,0,0,1-.571-3.156c-.038-1.369-.266-3.8-.494-5.362C-.3,34.758.231,19.546.916,17c.874-3.27,3.689-3.841,8.024-1.635,1.521.723,2.852,1.217,3.042,1.027.152-.152,1.065-3.042,2.054-6.389C16.812.379,16.812.341,17.915.074c2.32-.608,2.852,2.32,2.928,16.2.038,12.322-.228,13.311-3.537,13.311a21.079,21.079,0,0,1-6.731-2.32c-.381-.3-.723.342-1.483,2.967C7.723,34.872,4,45.178,3.35,46.243c-.647.989-1.369,1.065-2.092.228m4.6-16.01c1.559-5.7,2.244-6.96,3.8-6.96a21.165,21.165,0,0,1,3.955,1.56,11.529,11.529,0,0,0,3.8,1.369c.342-.152.608-1.179.8-3.347.342-3.765-.152-15.44-.608-14.033-.152.533-.837,2.738-1.483,4.906-1.863,6.2-3.195,6.883-8.328,4.412-2.358-1.141-2.928-1.293-3.347-.837C3.882,18.1,3.2,26.81,3.236,33.959c0,4.221.038,4.487.532,3.347.266-.647,1.217-3.727,2.092-6.846" transform="translate(5.932 0)" fill-rule="evenodd"/>
      </g>
    </g>
    <g id="Grupo_25" data-name="Grupo 25" transform="translate(0 36.9)">
      <g id="Grupo_24" data-name="Grupo 24" transform="translate(0)" clip-path="url(#clip-path-2)">
        <g id="Grupo_23" data-name="Grupo 23" transform="translate(0.171 0.172)">
          <g id="Grupo_22" data-name="Grupo 22" clip-path="url(#clip-path-3)">
            <g id="Grupo_21" data-name="Grupo 21">
              <g id="Grupo_20" data-name="Grupo 20" clip-path="url(#clip-path-3)">
                <path id="Trazado_192" data-name="Trazado 192" d="M161.058,240.978c-1.327.376-8.475,2.9-4.309,4.364,3.324,1.163,7.2,1.245,10.684,1.115,1.1-.041,2.77.068,3.769-.527,1.642-.985,1.313-2.948.383-4.528a.42.42,0,0,1-.4-.253c-.137-.274-.267-.554-.39-.834l-.007-.007a4.746,4.746,0,0,0-1.183-1.012.565.565,0,0,1-.164-.144,66.691,66.691,0,0,0-8.386,1.826" transform="translate(-134.521 -75.746)" fill="#fff"/>
                <path id="Trazado_193" data-name="Trazado 193" d="M107.6,245.284c-1.074,1.217-.513,2.113.91,2.51,3.577.985,7.722.513,11.354.109a17.268,17.268,0,0,0,4.063-.663c1.211-.451,2.886-1.587,2.052-3.112a4.776,4.776,0,0,0-2.674-2.066c-1.142.157-2.36.123-3.468.2a52.045,52.045,0,0,0-6.744.759c-1.806.363-4.207.8-5.492,2.264" transform="translate(-55.252 -76.666)" fill="#fff"/>
                <path id="Trazado_194" data-name="Trazado 194" d="M118.706,194.923a11.875,11.875,0,0,1,7.832.048,43.84,43.84,0,0,0,4.22,1.313c-.178-3.044-.267-6.088-.321-9.131a26.252,26.252,0,0,1-6.306-.492c-2.435-.54-4.528-1.58-5.424-3.878a71.959,71.959,0,0,0,0,12.141" transform="translate(-67.6 -57.933)" fill="#fff"/>
                <path id="Trazado_195" data-name="Trazado 195" d="M98.61,165.255c-.192,1.279,2.38,2.216,3.365,2.763,1.347.739,2.75,1.464,4.193,2.114.007-.007.007-.021.014-.027.027.021.048.048.075.068,4.7,2.114,9.836,3.481,14.918,2.462a49.73,49.73,0,0,1,1.614-8.119.3.3,0,0,1,.082-.144c.068-.465.144-.917.233-1.368.048-.239.376-.157.4.055.253,2.695-.253,5.479.4,8.146.807,3.256,3.5,4.254,6.6,4.61a47.088,47.088,0,0,0,8.447.041l.144-.041v.034l.356-.021a22.218,22.218,0,0,0,5.157-.718c1.491-.458,2.893-1.115,4.33-1.7a6.022,6.022,0,0,1-.226-1.43c-.137-1.354-.185-2.722-.233-4.083a75.33,75.33,0,0,0-.807-10.246,132.345,132.345,0,0,1-26.115-1.43,90.6,90.6,0,0,1-13.509-3.331c-1.867-.616-3.68-1.354-5.561-1.929-.328-.1-.657-.2-.992-.315.13,3.174-.882,6.313-1.683,9.343a49.207,49.207,0,0,0-1.2,5.26" transform="translate(-72.21 -47.779)" fill="#fff"/>
                <path id="Trazado_196" data-name="Trazado 196" d="M26.267,152.086a.479.479,0,0,1,.8.185,21.708,21.708,0,0,0,7.88-.7c2.038-.636,4.863-1.792,5.342-4.186,1-4.932-8.393-5.356-11.341-4.5a7.71,7.71,0,0,0-4.918,4.036c-.848,1.614-2.367,4.877-.766,6.5,1.553,1.573,2.127-.561,2.36-1.908a14.5,14.5,0,0,0,.274-3.523c-.007-.116.185-.144.205-.027a14.665,14.665,0,0,1-.1,4.466,1.476,1.476,0,0,1,.26-.335" transform="translate(88.374 -45.212)" fill="#fff"/>
                <path id="Trazado_197" data-name="Trazado 197" d="M51.286,140.893c-.39,1.518-1.176,2.531-2.668,1.553-2.134-1.4-1.566-4.439-.746-6.423a13.624,13.624,0,0,1,1.553-2.88c-4.822-2.332-9.152-5.882-13.174-9.309a182.855,182.855,0,0,1-14.289-13.912c-.048.027-.089.055-.13.082a30.846,30.846,0,0,1-5.588,2.832.46.46,0,0,1-.581-.445,9.589,9.589,0,0,0-1.785-4.555,10.2,10.2,0,0,0,.144,1.553c.109,1.224.267,2.449.41,3.673.267,2.346.581,4.692.821,7.038.39,3.9-.082,7.893-.28,11.792-.109,2.059-.212,4.118-.246,6.183a20.54,20.54,0,0,1-.116,4.254.468.468,0,0,1-.356.732l-1.135.041c1.033,2.893.937,6.286,1.074,9.309.055,1.259.1,2.517.192,3.762a9.4,9.4,0,0,0,.246,2.394.406.406,0,0,1,.226.65.471.471,0,0,1-.513.3,24.722,24.722,0,0,1-10.465,2.75c-.021,3.16-.007,6.327.075,9.487a8.255,8.255,0,0,0,1.375-.376c2.975-1.094,5.5-2.77,8.8-2.832A29.509,29.509,0,0,1,22.613,170c4.207,1.176,8.584,2.182,12.948,1.163a14.4,14.4,0,0,0,6.32-2.893,20.658,20.658,0,0,0,3.4-4.378c1.724-2.661,3.789-4.877,6.874-5.9,2.743-.91,5.616-.91,8.468-1.1,3.071-.219,6.224-.8,8.352-3.242,2.49-2.852,3.413-6.607,3.728-10.294.239-2.811.2-5.841,1.265-8.509a12.119,12.119,0,0,1,4.555-5.486c-4.8-.014-9.781-1.956-14.118-3.618-5.376-2.066-10.609-4.466-15.752-7.045-4.938-2.476-10.014-4.87-14.754-7.7a38.239,38.239,0,0,1-6.163-4.378c-.7-.643-1.409-1.293-2.107-1.949.246.417.472.841.684,1.279a.461.461,0,0,1-.39.65,4.19,4.19,0,0,1-.677.91c4.1,4.569,8.283,9.07,12.736,13.29,4.1,3.9,8.57,7.237,12.989,10.7A7.758,7.758,0,0,1,52.8,130.38a13.513,13.513,0,0,1,8.461-.424c2.189.568,5.267,1.724,5.513,4.371s-1.963,4.569-4.152,5.581a20.381,20.381,0,0,1-10.834,1.409.559.559,0,0,1-.506-.424" transform="translate(63 -33.246)" fill="#fff"/>
                <path id="Trazado_198" data-name="Trazado 198" d="M124.282,93.179a6.287,6.287,0,0,0,1.5-1.005,4.468,4.468,0,0,0,.793-1.04,45.619,45.619,0,0,1-8.7-.342,7.142,7.142,0,0,0,.274,1.081,6.137,6.137,0,0,0,.773,1.176,3.393,3.393,0,0,1,2.3-.144.331.331,0,0,1,.123-.048,3,3,0,0,1,1.874.4.479.479,0,0,1,.54-.219c.171.048.342.1.52.144" transform="translate(-63.04 -28.863)" fill="#fff"/>
                <path id="Trazado_199" data-name="Trazado 199" d="M126.89,95.04c-1.06-.1-3.584-.869-3.516.793.041.978.718,1.341,1.635,1.142a3.693,3.693,0,0,0,2.175-1.224c.28-.4.062-.6-.294-.711" transform="translate(-67.529 -30.121)" fill="#fff"/>
                <path id="Trazado_200" data-name="Trazado 200" d="M134.3,79.822A13.707,13.707,0,0,1,131.09,83.9a89.713,89.713,0,0,1,9.521,6.6,16.079,16.079,0,0,1,2.763-1.074c2.558-.725,5.752-1.259,8.3-.157a7.138,7.138,0,0,1-.451-2.059A34.713,34.713,0,0,1,134.3,79.822" transform="translate(-97.166 -25.396)" fill="#fff"/>
                <path id="Trazado_201" data-name="Trazado 201" d="M143.992,95.773a33.682,33.682,0,0,0-9.945,2.435c-.1.034-.157-.116-.068-.157,3.16-1.518,6.423-3.167,10.014-3.181a.4.4,0,0,1,.3.116,1.056,1.056,0,0,1,.048-.157.05.05,0,0,1-.041-.014c-2.23-1.122-5.123-.882-7.469-.335-2.2.52-4.631,1.347-6.108,3.167-.534.657-1.047,1.648-.027,2.209a5.867,5.867,0,0,0,2.5.759,10.764,10.764,0,0,0,4.446-.793c1.115-.445,2.182-.964,3.3-1.409a6.384,6.384,0,0,0,3.044-1.881.375.375,0,0,1,.349-.171,2.543,2.543,0,0,1-.123-.65.513.513,0,0,1-.212.062" transform="translate(-89.166 -29.883)" fill="#fff"/>
                <path id="Trazado_202" data-name="Trazado 202" d="M109.527,96.643a16.967,16.967,0,0,1,2.4,2.2,7.18,7.18,0,0,1,2.175,5.144c0,.089-.137.109-.15.021a8.362,8.362,0,0,0-3.194-5.123c-1.149-.91-2.75-1.594-3.878-2.565a1.752,1.752,0,0,1-.075.164,2.975,2.975,0,0,1-.431.547,6.249,6.249,0,0,1,.4,2.182,9.908,9.908,0,0,0,1.224,4.145c1.471,2.2,4.747,4.207,7.5,4.008,4.3-.315,1.217-5.65-.356-7.278a14.939,14.939,0,0,0-5.609-3.447" transform="translate(-46.274 -30.61)" fill="#fff"/>
                <path id="Trazado_203" data-name="Trazado 203" d="M82.526,92.355a8.224,8.224,0,0,1-.876.6A16.323,16.323,0,0,1,89.338,97.6l1.785-.321a.1.1,0,0,1,.082-.192c1.956.643,3.564,2.558,4.767,4.138a13.381,13.381,0,0,1,2.914,5.588,27.639,27.639,0,0,0,4.808-2.5l-.034-.034c.1-.048.212-.1.315-.15A32.665,32.665,0,0,0,107.7,101a24.656,24.656,0,0,0-6.388-7.565c-2.538-2.059-5.513-3.919-8.8-4.343a49.04,49.04,0,0,1-8.557,1.443,4.442,4.442,0,0,1-1.43,1.819" transform="translate(-19.375 -28.326)" fill="#fff"/>
                <path id="Trazado_204" data-name="Trazado 204" d="M145.641,104.4c-1.122-1.566-2.456-3.406-4.213-4.316l-1.785.321c.13.15.253.308.376.472,1.5,2.018,3.447,5.923.451,7.613-2.449,1.382-6.717-.718-8.488-2.469a10.018,10.018,0,0,1-2.668-8.057,4.84,4.84,0,0,1-2.346.889,2.027,2.027,0,0,1-1.819-.7c-.308,1.108-1.772,1.689-2.715,2.086a38.017,38.017,0,0,1-5.533,2.2,11.359,11.359,0,0,1-5.41-.089,89.3,89.3,0,0,0-8.434,14.432,100.526,100.526,0,0,0-5.547,15.622,19.971,19.971,0,0,0,4.213,1.471c1.915.609,3.748,1.423,5.677,2a96.6,96.6,0,0,0,13.023,3.01,137.293,137.293,0,0,0,26.122,1.176,23.189,23.189,0,0,1-.014-5.062c.055-2.148.164-4.3.287-6.45a67.768,67.768,0,0,0,.144-11.238c-.3-2.668-.657-5.328-.834-8-.062-.855-.561-3.256.027-4.172-.171-.246-.342-.492-.513-.725" transform="translate(-69.679 -31.129)" fill="#fff"/>
                <path id="Trazado_205" data-name="Trazado 205" d="M133.962,66.183c-.821-.068-1.642-.171-2.462-.3,1.471,3.584,9.261,4.4,9.5.15a34.6,34.6,0,0,1-7.038.15" transform="translate(-86.776 -20.991)" fill="#fff"/>
                <path id="Trazado_206" data-name="Trazado 206" d="M135.6,64.767c.021,5.814-11.046,4.6-11.211-.192a19.275,19.275,0,0,1-4.254-1.313,11.955,11.955,0,0,1-1.881-1.06c.636,2.893,1.135,5.93,2.756,8.447a12.275,12.275,0,0,0,9.145,5.362c3.42.315,7.209-.424,9.822-2.791a9.771,9.771,0,0,0,3-4.733c.506-1.881.451-3.837.78-5.732a21.907,21.907,0,0,1-4.07,1.231,37.577,37.577,0,0,1-3.967.766.846.846,0,0,1-.123.014" transform="translate(-80.468 -19.828)" fill="#fff"/>
                <path id="Trazado_207" data-name="Trazado 207" d="M198.109,25.829c-.814-.363-1.327.027-1.525,1.17a6.347,6.347,0,0,0,2.127,2.257c2.141,1.17,5.862.041,4.254-2.982-1.252-2.36-3.618-4.439-6.45-4.412-2.23.027-5.506,1.272-6.046,3.748-.828,3.769,3.6,6.73,6.792,7.353a13.97,13.97,0,0,0,2.243.274c-.082-.253-.157-.52-.226-.78a.44.44,0,0,1,.787-.363c.274.349.547.7.814,1.053a4.811,4.811,0,0,0,.766-.185c1.546-.527,1.689-1.669,1.334-2.969a3.91,3.91,0,0,1-2.715.7,5.043,5.043,0,0,1-3.228-1.888c-.527-.6-1.477-1.628-1.238-2.531.711-2.62,3.878-.2,4.685,1.005.014.027-.027.062-.048.034a6.526,6.526,0,0,0-1.347-1.005,5.184,5.184,0,0,0-.978-.479" transform="translate(-189.397 -7.08)" fill="#fff"/>
                <path id="Trazado_208" data-name="Trazado 208" d="M107.04,13.344a34.98,34.98,0,0,0,3.352-1.115,12.414,12.414,0,0,1,3.728-1.122,5.775,5.775,0,0,1,.2-.643c.1-.28.581-.267.554.075-.267,3.215.691,6.176,1.614,9.206a62.286,62.286,0,0,0,3.577,9.35,49.879,49.879,0,0,0,5.4,8.6c.978,1.245,1.956,2.5,2.921,3.748.6.773,1.19,1.546,1.772,2.319.1.123.328.513.568.889.062-.308.123-.6.185-.9,1.019-5.137,1.936-10.54.869-15.745a33.846,33.846,0,0,0-3.9-10.369A31.993,31.993,0,0,0,111.438,3.624a34.766,34.766,0,0,0-23.16.13,43.985,43.985,0,0,0-15.595,9.884C79.017,9.924,87,8.74,94.188,8.993a.435.435,0,0,1,.417.342.279.279,0,0,1,.192.513c-.657.472-1.388.876-2.059,1.32-.335.226-.67.431-1.012.636a31.779,31.779,0,0,1,7.921-1.088c3.105-.171,6.142-.458,9.227-.882a.632.632,0,0,1,.164.007.353.353,0,0,1,.6.315.355.355,0,0,1-.041.527,25.044,25.044,0,0,0-1.84,1.778l-.068.068c-.212.274-.438.54-.643.814" transform="translate(-37.802 -0.71)" fill="#fff"/>
                <path id="Trazado_209" data-name="Trazado 209" d="M112.66,46.78a.957.957,0,0,1-.109.068,17.766,17.766,0,0,1-1.327,8.105,10.5,10.5,0,0,1-3.311,4.152,14.209,14.209,0,0,1-10.349,2.558,13.188,13.188,0,0,1-9.234-5.233c-2.045-2.989-2.736-6.689-3.146-10.232a12.186,12.186,0,0,1-2.4-2.88c-.041-.068.062-.123.109-.055a10.5,10.5,0,0,0,2.531,2.353.321.321,0,0,1,.39.233.041.041,0,0,1,.007.027c3.181,1.984,7.387,2.715,10.855,2.839a37.75,37.75,0,0,0,7.654-.465,52.714,52.714,0,0,0,7.989-2.271c.506-.164.711.534.342.8m27.086,1.354c-.246-.328-.492-.663-.739-.992-1.265-1.648-2.544-3.283-3.823-4.925a48.807,48.807,0,0,1-5.568-8.81,66.69,66.69,0,0,1-3.789-10.055c-.7-2.38-1.724-5.109-1.4-7.654-1.4.52-2.914.889-4.336,1.3a9.873,9.873,0,0,1-3.181.547,1.767,1.767,0,0,1-.253.13c-.048.021-.109-.034-.109-.089,0-.021.007-.041.007-.062a.281.281,0,0,0-.075-.007c-.082-.014-.116-.144-.021-.164.041-.007.082-.021.123-.027A4.876,4.876,0,0,1,117.68,15.7c.315-.383.65-.746,1-1.094a47.632,47.632,0,0,1-8.01.711c-3.16.144-6.3.458-9.453.821-.123.014-.123-.164-.027-.205.034-.014.062-.021.089-.034.9-.609,1.683-1.587,2.613-2.23a48.447,48.447,0,0,0-20.629,4.207c-.828,2.216-2.025,4.275-2.921,6.471a49.3,49.3,0,0,0-2.285,6.8c-1.785,7.291-1.5,15.246,2.948,21.58a27.035,27.035,0,0,0,4.3,4.754c.226-.144.622.075.52.39a.174.174,0,0,0-.014.048,34.081,34.081,0,0,0,15.232,7.12,44.329,44.329,0,0,0,23.242-1.648c7.332-2.579,11.936-8.085,15.014-15.034a.357.357,0,0,1,.451-.219M85.724,34.242c-1.129-.3-1.717-1.724-1.334-3.174S86,28.675,87.126,28.976s1.717,1.717,1.327,3.174-1.614,2.394-2.729,2.093m21.1.089c0-1.5.944-2.722,2.107-2.722s2.1,1.217,2.1,2.722-.937,2.729-2.1,2.729-2.107-1.224-2.107-2.729" transform="translate(-48.264 -4.488)" fill="#fff"/>
                <path id="Trazado_210" data-name="Trazado 210" d="M194.009,37.1c.068.26.144.527.226.78a6.548,6.548,0,0,0,1.375-.089c-.267-.356-.54-.7-.814-1.053a.44.44,0,0,0-.787.363" transform="translate(-184.127 -11.724)"/>
                <path id="Trazado_211" data-name="Trazado 211" d="M159.2,39.732a7.742,7.742,0,0,1-1.778.192c2.011,5.793,6,10.862,9.843,15.513a174.453,174.453,0,0,0,13.721,14.453,15.133,15.133,0,0,0,2.5-3.235c-4.535-4.159-9-8.406-13.174-12.927-4.07-4.412-7.483-9.261-11.108-13.994" transform="translate(-146.984 -12.727)"/>
                <path id="Trazado_212" data-name="Trazado 212" d="M193.248,39.491a7.742,7.742,0,0,0,1.778-.192c-.239-.315-.479-.629-.732-.937a6.548,6.548,0,0,1-1.375.089c.1.349.212.7.328,1.04" transform="translate(-182.813 -12.294)"/>
                <path id="Trazado_213" data-name="Trazado 213" d="M196.23,21.433c2.832-.027,5.2,2.052,6.45,4.412,1.607,3.023-2.114,4.152-4.254,2.982A6.347,6.347,0,0,1,196.3,26.57c.2-1.142.711-1.532,1.525-1.17a5.185,5.185,0,0,1,.978.479,6.525,6.525,0,0,1,1.347,1.005c.021.027.062-.007.048-.034-.807-1.2-3.974-3.625-4.685-1.005-.239.9.711,1.929,1.238,2.531a5.043,5.043,0,0,0,3.228,1.888,3.91,3.91,0,0,0,2.715-.7c.356,1.3.212,2.442-1.334,2.969a4.811,4.811,0,0,1-.766.185c.253.308.492.622.732.937a3.493,3.493,0,0,0,2.1-1.286,3.651,3.651,0,0,0,.027-3.646,3.392,3.392,0,0,0,.369-2.456c-.581-2.886-3.953-5.4-6.751-5.718s-6.457.985-7.613,3.769c-1.033,2.51.4,4.979,2.223,6.676a11.114,11.114,0,0,0,6.293,2.743,12.258,12.258,0,0,0,1.573.109c-.116-.342-.226-.691-.328-1.04a13.971,13.971,0,0,1-2.243-.274c-3.194-.622-7.62-3.584-6.792-7.353.54-2.476,3.817-3.721,6.046-3.748" transform="translate(-189.112 -6.651)"/>
                <path id="Trazado_214" data-name="Trazado 214" d="M155.531,179.761c-.007.089-.014.185-.021.274a40.653,40.653,0,0,0,3.967,1.546c.021-.171.034-.349.055-.52a8.287,8.287,0,0,1-3.755-1.888c-.027-.014-.055-.027-.089-.041a1.932,1.932,0,0,0-.157.629" transform="translate(-121.73 -56.779)"/>
                <path id="Trazado_215" data-name="Trazado 215" d="M161,179.119c.034.014.062.027.089.041-.027-.021-.048-.048-.075-.068-.007.007-.007.021-.014.027" transform="translate(-127.042 -56.767)"/>
                <path id="Trazado_216" data-name="Trazado 216" d="M151.962,38.119c-.383,1.45.205,2.873,1.334,3.174s2.346-.643,2.729-2.093-.205-2.88-1.327-3.174-2.346.636-2.736,2.093" transform="translate(-115.836 -11.539)"/>
                <path id="Trazado_217" data-name="Trazado 217" d="M159.637,79.092a15.134,15.134,0,0,1-2.5,3.235c.1.1.192.192.287.28a9.464,9.464,0,0,0,2.4-3.338c-.062-.062-.13-.116-.192-.178" transform="translate(-123.141 -25.166)"/>
                <path id="Trazado_218" data-name="Trazado 218" d="M160.138,221.437c-.4-6.621-1.2-13.153-1.067-19.815.13-6.559.7-13.1,1.375-19.624a40.651,40.651,0,0,1-3.967-1.546,187.8,187.8,0,0,0-.821,21.929c.192,5.773.534,11.908,2.517,17.408a.414.414,0,0,1,.144.055,4.043,4.043,0,0,1,.6.39c.13-.007.26-.021.383-.027s.109.164,0,.178a1.423,1.423,0,0,0-.157.021,5.965,5.965,0,0,1,1,1.033" transform="translate(-122.698 -57.196)"/>
                <path id="Trazado_219" data-name="Trazado 219" d="M157.377,241.94a7.126,7.126,0,0,0-.787-1.088c.123.28.253.561.39.834a.42.42,0,0,0,.4.253" transform="translate(-120.313 -76.284)"/>
                <path id="Trazado_220" data-name="Trazado 220" d="M155.959,237.962c.239.67.506,1.327.793,1.97l.007.007a7.126,7.126,0,0,1,.787,1.088.476.476,0,0,0,.431-.506c-.014-.3-.034-.609-.055-.91a5.967,5.967,0,0,0-1-1.033,1.423,1.423,0,0,1,.157-.021c.109-.014.116-.185,0-.178s-.253.021-.383.027a4.038,4.038,0,0,0-.6-.39.413.413,0,0,0-.144-.055" transform="translate(-120.483 -75.37)"/>
                <path id="Trazado_221" data-name="Trazado 221" d="M172.739,244.372a5.429,5.429,0,0,0-1.2-4.767c.021.3.041.609.055.91a.476.476,0,0,1-.431.506c.93,1.58,1.259,3.543-.383,4.528-1,.6-2.668.486-3.769.527-3.488.13-7.36.048-10.684-1.115-4.165-1.464,2.982-3.988,4.309-4.364a66.7,66.7,0,0,1,8.386-1.826.564.564,0,0,0,.164.144,4.746,4.746,0,0,1,1.183,1.012c-.287-.643-.554-1.3-.793-1.97a.533.533,0,0,0-.629.527,39.643,39.643,0,0,0-11.238,2.189c-1.361.52-3.071,1.272-3.584,2.763-.451,1.293.992,2.038,1.963,2.415a21.592,21.592,0,0,0,6.265,1.122,34.628,34.628,0,0,0,6.942-.048c1.71-.205,2.886-.759,3.44-2.551" transform="translate(-134.103 -75.364)"/>
                <path id="Trazado_222" data-name="Trazado 222" d="M121.117,39.9c-1.163,0-2.107,1.217-2.107,2.722s.944,2.729,2.107,2.729,2.1-1.224,2.1-2.729-.937-2.722-2.1-2.722" transform="translate(-60.449 -12.781)"/>
                <path id="Trazado_223" data-name="Trazado 223" d="M136.07,63.193c-.239,4.254-8.03,3.434-9.5-.15.821.13,1.642.233,2.462.3a34.6,34.6,0,0,0,7.038-.15m8.283,3.618a9.771,9.771,0,0,1-3,4.733c-2.613,2.367-6.4,3.105-9.822,2.791a12.275,12.275,0,0,1-9.145-5.362c-1.621-2.517-2.12-5.554-2.756-8.447a11.955,11.955,0,0,0,1.881,1.06,19.276,19.276,0,0,0,4.254,1.313c.164,4.788,11.231,6.005,11.211.192a.846.846,0,0,0,.123-.014,37.577,37.577,0,0,0,3.967-.766,21.906,21.906,0,0,0,4.07-1.231c-.328,1.895-.274,3.851-.78,5.732m1.778-6.3a.957.957,0,0,0,.109-.068c.369-.267.164-.964-.342-.8a52.714,52.714,0,0,1-7.989,2.271,37.75,37.75,0,0,1-7.654.465c-3.468-.123-7.674-.855-10.855-2.839a.041.041,0,0,0-.007-.027.321.321,0,0,0-.39-.233,10.5,10.5,0,0,1-2.531-2.353c-.048-.068-.15-.014-.109.055a12.185,12.185,0,0,0,2.4,2.88c.41,3.543,1.1,7.243,3.146,10.232a13.188,13.188,0,0,0,9.234,5.233,14.209,14.209,0,0,0,10.349-2.558,10.5,10.5,0,0,0,3.31-4.152,17.766,17.766,0,0,0,1.327-8.105" transform="translate(-81.845 -18.151)"/>
                <path id="Trazado_224" data-name="Trazado 224" d="M141.975,181.914a8.177,8.177,0,0,0,3.919-.417,47.088,47.088,0,0,1-8.447-.041c-3.1-.356-5.793-1.354-6.6-4.61-.657-2.668-.15-5.451-.4-8.146-.021-.212-.349-.294-.4-.055-.089.451-.164.9-.233,1.368a.3.3,0,0,0-.082.144,49.729,49.729,0,0,0-1.614,8.119c-5.082,1.019-10.219-.349-14.918-2.462a8.288,8.288,0,0,0,3.755,1.888c-.021.171-.034.349-.055.52a22.4,22.4,0,0,0,11.751.889.464.464,0,0,0,.335-.445c.157-1.43.349-2.852.588-4.268a16.57,16.57,0,0,0,.39,2.927c-1.436,4.323-.7,9.2-.5,13.646a.411.411,0,0,0,.52.4,10.482,10.482,0,0,1,6.484-.445c2.025.506,3.885,1.45,5.9,1.922-.027-.363-.048-.718-.062-1.074a43.84,43.84,0,0,1-4.22-1.313,11.875,11.875,0,0,0-7.832-.048,71.961,71.961,0,0,1,0-12.141c.9,2.3,2.989,3.338,5.424,3.878a26.251,26.251,0,0,0,6.306.492c-.007-.239-.007-.486-.014-.725" transform="translate(-79.153 -53.419)"/>
                <path id="Trazado_225" data-name="Trazado 225" d="M112.89,189.08c.055,3.044.144,6.088.321,9.131a9.7,9.7,0,0,0,3.8.157c-.082-3.16-.1-6.327-.075-9.487h-.021c-1.327.089-2.674.171-4.022.2" transform="translate(-50.054 -59.86)"/>
                <path id="Trazado_226" data-name="Trazado 226" d="M116.656,202.679a9.7,9.7,0,0,1-3.8-.157c.014.356.034.711.062,1.074.15.027.294.062.445.089a8.255,8.255,0,0,0,3.311-.055c-.007-.315-.014-.629-.021-.951" transform="translate(-49.702 -64.171)"/>
                <path id="Trazado_227" data-name="Trazado 227" d="M112.99,187.483a1.013,1.013,0,0,0,.144-.007v-.034l-.144.041" transform="translate(-46.248 -59.405)"/>
                <path id="Trazado_228" data-name="Trazado 228" d="M117.053,187.492a1.011,1.011,0,0,1-.144.007,8.177,8.177,0,0,1-3.919.417c.007.239.007.486.014.725,1.347-.027,2.695-.109,4.022-.2h.021c0-.315.007-.636.007-.951" transform="translate(-50.168 -59.421)"/>
                <path id="Trazado_229" data-name="Trazado 229" d="M110.211,241.12a.1.1,0,0,0-.075-.13l-.233-.041a7.97,7.97,0,0,0-.9-.4l-.431-.123a.483.483,0,0,0-.26-.007c.109.28.233.561.356.841a6.538,6.538,0,0,1,2.107.486c-.014-.1-.034-.2-.048-.3-.164-.109-.335-.219-.513-.322" transform="translate(-40.686 -76.141)"/>
                <path id="Trazado_230" data-name="Trazado 230" d="M115.2,229.967c-.992-5.944-2.2-11.806-2.661-17.852-.2-2.661-.321-5.321-.4-7.989a8.256,8.256,0,0,1-3.311.055c-.15-.027-.294-.062-.445-.089.185,3.037.451,6.067.841,9.1.67,5.246,1.5,10.786,3.564,15.752a.483.483,0,0,1,.26.007l.431.123a7.97,7.97,0,0,1,.9.4l.233.041a.1.1,0,0,1,.075.13c.178.1.349.212.513.321" transform="translate(-45.161 -64.667)"/>
                <path id="Trazado_231" data-name="Trazado 231" d="M121.6,248.151c1.813-.26,4.193-.7,4.979-2.62.711-1.724-.3-3.14-1.669-4.083.014.1.034.2.048.3a6.539,6.539,0,0,0-2.107-.486c-.123-.28-.246-.561-.356-.841a.459.459,0,0,0-.321.328c-1.471-.041-3,.116-4.384.205a33.075,33.075,0,0,0-8.139,1.327c-1.683.547-3.55,1.525-4,3.379-.356,1.436,1.074,2.223,2.216,2.585a21.225,21.225,0,0,0,6.8.52,65.449,65.449,0,0,0,6.936-.616m4-4.542c.834,1.525-.841,2.661-2.052,3.112a17.269,17.269,0,0,1-4.063.663c-3.632.4-7.777.876-11.354-.109-1.423-.4-1.984-1.293-.91-2.51,1.286-1.464,3.687-1.9,5.492-2.264a52.04,52.04,0,0,1,6.744-.759c1.108-.075,2.326-.041,3.468-.2a4.776,4.776,0,0,1,2.674,2.066" transform="translate(-54.876 -76.148)"/>
                <path id="Trazado_232" data-name="Trazado 232" d="M87.09,111.232l.034.034.048-.027c.075-.048.157-.1.233-.157-.1.055-.212.1-.315.15" transform="translate(-2.804 -35.275)"/>
                <path id="Trazado_233" data-name="Trazado 233" d="M81.76,110.306c.212.226.424.458.643.684a15.817,15.817,0,0,0,3.283-2.421c-.164-.178-.321-.349-.479-.527a12.5,12.5,0,0,1-3.167,2.079c-.075.055-.157.109-.233.157l-.048.027" transform="translate(2.56 -34.314)"/>
                <path id="Trazado_234" data-name="Trazado 234" d="M47.433,108.812a15.817,15.817,0,0,1-3.283,2.421,182.859,182.859,0,0,0,14.289,13.912c4.022,3.427,8.352,6.977,13.174,9.309a8.21,8.21,0,0,1,1.546-1.648c-4.419-3.468-8.885-6.806-12.989-10.7-4.453-4.22-8.639-8.721-12.736-13.29" transform="translate(40.813 -34.557)"/>
                <path id="Trazado_235" data-name="Trazado 235" d="M44.566,143.892a8.211,8.211,0,0,0-1.546,1.648c.219.109.438.212.657.315a5.772,5.772,0,0,1,1.662-1.354l-.773-.609" transform="translate(69.405 -45.643)"/>
                <path id="Trazado_236" data-name="Trazado 236" d="M25.668,152.783A20.381,20.381,0,0,0,36.5,151.374c2.189-1.012,4.4-2.948,4.152-5.581s-3.324-3.8-5.513-4.371a13.513,13.513,0,0,0-8.461.424,7.759,7.759,0,0,0-1.833,1.115l.773.609a5.773,5.773,0,0,0-1.662,1.354c-.219-.1-.438-.205-.657-.315a13.624,13.624,0,0,0-1.553,2.88c-.821,1.984-1.388,5.027.746,6.423,1.491.978,2.278-.034,2.668-1.553a.559.559,0,0,0,.506.424m.65-1.012a.479.479,0,0,0-.8-.185,1.477,1.477,0,0,0-.26.335,14.665,14.665,0,0,0,.1-4.466c-.021-.116-.212-.089-.205.027A14.5,14.5,0,0,1,24.875,151c-.233,1.347-.807,3.482-2.36,1.908-1.6-1.621-.082-4.884.766-6.5a7.71,7.71,0,0,1,4.918-4.036c2.948-.855,12.339-.431,11.341,4.5-.479,2.394-3.3,3.55-5.342,4.186a21.708,21.708,0,0,1-7.88.7" transform="translate(89.124 -44.712)"/>
                <path id="Trazado_237" data-name="Trazado 237" d="M28.868,62.064a7.137,7.137,0,0,0,.451,2.059c-2.544-1.1-5.739-.568-8.3.157a16.079,16.079,0,0,0-2.763,1.074,89.713,89.713,0,0,0-9.521-6.6,13.707,13.707,0,0,0,3.215-4.077,34.714,34.714,0,0,0,16.915,7.387M19.7,68.575a33.681,33.681,0,0,1,9.945-2.435.513.513,0,0,0,.212-.062,2.543,2.543,0,0,0,.123.65.375.375,0,0,0-.349.171,6.384,6.384,0,0,1-3.044,1.881c-1.115.445-2.182.964-3.3,1.409a10.764,10.764,0,0,1-4.446.793,5.867,5.867,0,0,1-2.5-.759c-1.019-.561-.506-1.553.027-2.209,1.477-1.819,3.912-2.647,6.108-3.167,2.346-.547,5.239-.787,7.469.335a.05.05,0,0,0,.041.014,1.056,1.056,0,0,0-.048.157.4.4,0,0,0-.3-.116c-3.591.014-6.854,1.662-10.014,3.181-.089.041-.027.192.068.157M34.47,65.88A3.693,3.693,0,0,1,32.3,67.1c-.917.2-1.594-.164-1.635-1.142-.068-1.662,2.456-.9,3.516-.793.356.109.575.308.294.711m-4.815-3.7a45.62,45.62,0,0,0,8.7.342,4.468,4.468,0,0,1-.793,1.04,6.287,6.287,0,0,1-1.5,1.005c-.178-.048-.349-.1-.52-.144a.479.479,0,0,0-.54.219,3,3,0,0,0-1.874-.4.331.331,0,0,0-.123.048,3.393,3.393,0,0,0-2.3.144,6.137,6.137,0,0,1-.773-1.176,7.143,7.143,0,0,1-.274-1.081M44.032,77.009c-2.75.2-6.026-1.806-7.5-4.008a9.908,9.908,0,0,1-1.224-4.145,6.249,6.249,0,0,0-.4-2.182,2.974,2.974,0,0,0,.431-.547,1.751,1.751,0,0,0,.075-.164c1.129.971,2.729,1.655,3.878,2.565a8.362,8.362,0,0,1,3.194,5.123c.014.089.15.068.15-.021a7.18,7.18,0,0,0-2.175-5.144,16.967,16.967,0,0,0-2.4-2.2,14.939,14.939,0,0,1,5.609,3.447c1.573,1.628,4.658,6.963.356,7.278M65.845,44.116c-3.078,6.949-7.681,12.455-15.014,15.034A44.329,44.329,0,0,1,27.589,60.8a34.081,34.081,0,0,1-15.232-7.12.174.174,0,0,1,.014-.048c.1-.315-.294-.534-.52-.39a27.035,27.035,0,0,1-4.3-4.754C3.1,42.153,2.822,34.2,4.607,26.907a49.3,49.3,0,0,1,2.285-6.8c.9-2.2,2.093-4.254,2.921-6.471A48.447,48.447,0,0,1,30.442,9.431c-.93.643-1.71,1.621-2.613,2.23-.027.014-.055.021-.089.034-.1.041-.1.219.027.205,3.153-.363,6.293-.677,9.453-.821a47.632,47.632,0,0,0,8.01-.711c-.349.349-.684.711-1,1.094a4.876,4.876,0,0,0-1.094,1.628c-.041.007-.082.021-.123.027-.1.021-.062.15.021.164a.281.281,0,0,1,.075.007c0,.021-.007.041-.007.062,0,.055.062.109.109.089a1.766,1.766,0,0,0,.253-.13,9.873,9.873,0,0,0,3.181-.547c1.423-.41,2.941-.78,4.336-1.3-.328,2.544.7,5.274,1.4,7.654a66.691,66.691,0,0,0,3.789,10.055,48.808,48.808,0,0,0,5.568,8.81c1.279,1.642,2.558,3.276,3.823,4.925.246.328.492.663.739.992a.357.357,0,0,0-.451.219m1.895.075c-.239-.376-.472-.766-.568-.889C66.59,42.529,66,41.756,65.4,40.983c-.964-1.252-1.943-2.5-2.921-3.748a49.878,49.878,0,0,1-5.4-8.6,62.286,62.286,0,0,1-3.577-9.35c-.923-3.03-1.881-5.992-1.614-9.206.027-.342-.451-.356-.554-.075a5.776,5.776,0,0,0-.2.643A12.414,12.414,0,0,0,47.4,11.77a34.981,34.981,0,0,1-3.352,1.115c.205-.274.431-.54.643-.814L44.764,12a25.045,25.045,0,0,1,1.84-1.778.355.355,0,0,0,.041-.527.353.353,0,0,0-.6-.315.632.632,0,0,0-.164-.007c-3.085.424-6.122.711-9.227.882a31.779,31.779,0,0,0-7.921,1.088c.342-.205.677-.41,1.012-.636.67-.445,1.4-.848,2.059-1.32a.279.279,0,0,0-.192-.513.435.435,0,0,0-.417-.342c-7.189-.253-15.171.93-21.5,4.644A43.985,43.985,0,0,1,25.291,3.3a34.766,34.766,0,0,1,23.16-.13A31.993,31.993,0,0,1,64.894,17.174a33.846,33.846,0,0,1,3.9,10.369c1.067,5.205.15,10.609-.869,15.745-.062.3-.123.6-.185.9m43.768,65.054a28.144,28.144,0,0,1,1.033-6.84c.937-2.811,3.167-4.72,5.663-6.149a1.327,1.327,0,0,1,.164-.014.409.409,0,0,0,.363-.328.451.451,0,0,0-.581-.65c-.1.055-.2.109-.3.171-11.1-.547-21.655-5.937-31.45-10.793-4.781-2.373-9.624-4.72-14.254-7.38a42.669,42.669,0,0,1-6.477-4.507c-1.047-.889-2.079-1.785-3.133-2.668-.445-.369-.759-1.06-1.224-1.423A30.557,30.557,0,0,0,56.652,64.2a17.322,17.322,0,0,0-7.237-3.584c.561-.171,1.122-.342,1.669-.534,7.551-2.544,12.414-8.393,15.554-15.5a.354.354,0,0,0,.041-.178c.171.226.342.445.513.677a.228.228,0,0,1,.068,0,.492.492,0,0,1,.451.137,4.237,4.237,0,0,1,.328.383,6.334,6.334,0,0,1,.609-.882,61.751,61.751,0,0,0,1.6-12.661,30.684,30.684,0,0,0-2.524-11.436A33.878,33.878,0,0,0,54.9,5.258C42.275-2.963,25.257-.48,13.711,8.48a37.281,37.281,0,0,0-8.174,8.7c-.089.123.109.274.212.164q1.426-1.662,2.975-3.208c.164-.082.328-.15.486-.226a34.693,34.693,0,0,0-4.323,8.9A39.189,39.189,0,0,0,2.617,33.234a24.685,24.685,0,0,0,6.84,19.124c.6.629,1.231,1.224,1.874,1.792-.007.007-.014.021-.021.027.062.062.13.116.192.178a9.464,9.464,0,0,1-2.4,3.338c-.1-.089-.192-.185-.287-.28-.369.376-.752.739-1.149,1.094a.467.467,0,0,0,.089.725c3.352,2.025,6.423,4.4,9.637,6.607A4.845,4.845,0,0,0,14.853,69a2.048,2.048,0,0,0,1.224,2.237c-3.789,4-6.443,9.206-8.694,14.186a87.9,87.9,0,0,0-5.773,16.272.489.489,0,0,0,.725.527,4.852,4.852,0,0,0,1.4.78c-.7,5.321-2.8,10.321-3.488,15.643a.428.428,0,0,0,.205.363,68.689,68.689,0,0,0,8.139,4.5c.007-.089.014-.185.021-.274a1.931,1.931,0,0,1,.157-.629c-1.443-.65-2.845-1.375-4.193-2.114-.985-.547-3.557-1.484-3.365-2.763a49.206,49.206,0,0,1,1.2-5.26c.8-3.03,1.813-6.17,1.683-9.343.335.116.663.219.992.315,1.881.575,3.694,1.313,5.561,1.929A90.6,90.6,0,0,0,24.163,108.7a132.344,132.344,0,0,0,26.115,1.43,75.33,75.33,0,0,1,.807,10.246c.048,1.361.1,2.729.233,4.083a6.022,6.022,0,0,0,.226,1.43c-1.436.581-2.839,1.238-4.33,1.7a22.219,22.219,0,0,1-5.157.718l-.356.021c0,.315-.007.636-.007.951a24.722,24.722,0,0,0,10.465-2.75.471.471,0,0,0,.513-.3.406.406,0,0,0-.226-.65,9.4,9.4,0,0,1-.246-2.394c-.1-1.245-.137-2.5-.192-3.762-.137-3.023-.041-6.416-1.074-9.309l1.135-.041a.468.468,0,0,0,.356-.732,20.54,20.54,0,0,0,.116-4.254c.034-2.066.137-4.124.246-6.183.2-3.9.67-7.893.28-11.792-.239-2.346-.554-4.692-.821-7.038-.144-1.224-.3-2.449-.41-3.673a10.2,10.2,0,0,1-.144-1.553A9.589,9.589,0,0,1,53.478,79.4a.46.46,0,0,0,.581.445,30.845,30.845,0,0,0,5.588-2.832c.041-.027.082-.055.13-.082-.219-.226-.431-.458-.643-.684a27.637,27.637,0,0,1-4.808,2.5,13.382,13.382,0,0,0-2.914-5.588c-1.2-1.58-2.811-3.5-4.767-4.138a.1.1,0,0,0-.082.192c1.758.91,3.092,2.75,4.213,4.316.171.233.342.479.513.725-.588.917-.089,3.317-.027,4.172.178,2.674.534,5.335.834,8a67.767,67.767,0,0,1-.144,11.238c-.123,2.155-.233,4.3-.287,6.45a23.189,23.189,0,0,0,.014,5.062,137.292,137.292,0,0,1-26.122-1.176,96.593,96.593,0,0,1-13.023-3.01c-1.929-.575-3.762-1.388-5.677-2a19.971,19.971,0,0,1-4.213-1.471A100.525,100.525,0,0,1,8.191,85.894a89.3,89.3,0,0,1,8.434-14.432,11.359,11.359,0,0,0,5.41.089,38.016,38.016,0,0,0,5.533-2.2c.944-.4,2.408-.978,2.715-2.086a2.027,2.027,0,0,0,1.819.7,4.84,4.84,0,0,0,2.346-.889,10.018,10.018,0,0,0,2.668,8.057c1.772,1.751,6.04,3.851,8.488,2.469,3-1.689,1.053-5.6-.451-7.613-.123-.164-.246-.321-.376-.472a16.323,16.323,0,0,0-7.688-4.651,8.221,8.221,0,0,0,.876-.6,4.442,4.442,0,0,0,1.43-1.819,49.04,49.04,0,0,0,8.557-1.443c3.283.424,6.259,2.285,8.8,4.343a24.655,24.655,0,0,1,6.388,7.565,32.663,32.663,0,0,1-3.721,3.133,12.5,12.5,0,0,0,3.167-2.079c.157.178.315.349.479.527a4.191,4.191,0,0,0,.677-.91.461.461,0,0,0,.39-.65c-.212-.438-.438-.862-.684-1.279.7.657,1.4,1.306,2.107,1.949a38.24,38.24,0,0,0,6.163,4.378c4.74,2.832,9.815,5.226,14.754,7.7,5.144,2.579,10.376,4.979,15.752,7.045,4.336,1.662,9.316,3.6,14.118,3.618a12.119,12.119,0,0,0-4.555,5.486c-1.067,2.668-1.026,5.7-1.265,8.509-.315,3.687-1.238,7.442-3.728,10.294-2.127,2.442-5.28,3.023-8.352,3.242-2.852.192-5.725.192-8.468,1.1-3.085,1.026-5.15,3.242-6.874,5.9a20.658,20.658,0,0,1-3.4,4.378,14.4,14.4,0,0,1-6.32,2.893c-4.364,1.019-8.741.014-12.948-1.163a29.509,29.509,0,0,0-8.488-1.45c-3.3.062-5.821,1.737-8.8,2.832a8.256,8.256,0,0,1-1.375.376c.007.321.014.636.021.951,2.524-.54,4.774-2.031,7.373-2.763,4.145-1.156,8.413.308,12.394,1.4a25.849,25.849,0,0,0,11.58.855,14.436,14.436,0,0,0,9.063-5.3c1.122-1.464,1.977-3.119,3.112-4.576A10.723,10.723,0,0,1,89.873,126c5.164-2.059,11.573.116,16.211-3.482,4.056-3.14,5.062-8.454,5.424-13.276" transform="translate(25.185 -0.251)"/>
              </g>
            </g>
          </g>
        </g>
      </g>
    </g>
  </g>
</svg>
