<svg xmlns="http://www.w3.org/2000/svg" xmlns:xlink="http://www.w3.org/1999/xlink" width="255.233" height="93.427" viewBox="0 0 255.233 93.427">
  <defs>
    <clipPath id="clip-path">
      <rect id="Rectángulo_1" data-name="Rectángulo 1" width="255.233" height="59.601" fill="none"/>
    </clipPath>
  </defs>
  <g id="logo_claim" data-name="logo+claim" transform="translate(-164.021 -68.219)">
    <g id="Grupo_2" data-name="Grupo 2" transform="translate(164.021 68.219)">
      <g id="Grupo_1" data-name="Grupo 1" transform="translate(0 0)" clip-path="url(#clip-path)">
        <path id="Trazado_1" data-name="Trazado 1" d="M68.1,0h187.13V59.6H68.1ZM53.431,0H6.168A6.171,6.171,0,0,0,0,6.17V53.431A6.169,6.169,0,0,0,6.17,59.6H53.431a6.169,6.169,0,0,0,6.17-6.17V6.168A6.171,6.171,0,0,0,53.431,0" transform="translate(0 0)" fill="#fff000"/>
        <path id="Trazado_2" data-name="Trazado 2" d="M44.518,15.819c.231,3.247-1.687,6.088-4.39,6.32s-5.153-2.208-5.441-5.452,1.687-6.078,4.4-6.32,5.154,2.2,5.443,5.464M17.381,20.406c.288,3.247-1.687,6.076-4.4,6.32s-5.2-2.208-5.441-5.465,1.687-6.076,4.412-6.318,5.153,2.206,5.441,5.464" transform="translate(3.773 5.195)"/>
        <path id="Trazado_3" data-name="Trazado 3" d="M97.373,42.209a10.883,10.883,0,0,0,8.94-4.181l.521-.67v4.193h4.424v-25.1h-4.424v4.193l-.52-.727a10.881,10.881,0,0,0-8.942-4.183A13.008,13.008,0,0,0,84.666,28.96,13.01,13.01,0,0,0,97.373,42.211Zm.553-21.95a8.455,8.455,0,0,1,8.621,8.287c0,.126,0,.252,0,.378a8.6,8.6,0,1,1-17.19.008v-.008a8.435,8.435,0,0,1,8.256-8.607q.158,0,.315,0ZM125.41,42.4c-1.431,3.649-3.649,5.314-6.746,5.082V51.6h.751c4.621,0,8.353-3.028,10.4-8.526l10.282-26.629h-4.735l-7.209,19.64-8.515-19.64h-4.771l10.953,25.036Zm53.281-14.164c0-7.1,5.662-7.659,7.394-7.659h.406V15.951a8.086,8.086,0,0,0-7.267,3.6l-.532.832V16.448h-4.424V41.563h4.424ZM153.91,42.209a10.88,10.88,0,0,0,8.942-4.181l.52-.67v4.193H167.8v-25.1h-4.414v4.193l-.52-.67a10.881,10.881,0,0,0-8.942-4.183,13.008,13.008,0,0,0-12.707,13.228,13.009,13.009,0,0,0,12.7,13.194Zm.556-21.95a8.455,8.455,0,0,1,8.619,8.289c0,.126,0,.251,0,.377a8.6,8.6,0,0,1-17.178.643c-.008-.215-.008-.428,0-.643a8.433,8.433,0,0,1,8.256-8.606c.1,0,.2,0,.3,0Zm-95.773,17.1.521.67a10.88,10.88,0,0,0,8.941,4.183A13.008,13.008,0,0,0,80.863,28.97,13.009,13.009,0,0,0,68.155,15.732a10.88,10.88,0,0,0-8.941,4.183l-.521.67V6.36H54.27v35.2h4.424V37.358ZM67.6,20.306c7.209,0,8.573,6.066,8.573,8.666a8.6,8.6,0,0,1-17.19,0,8.455,8.455,0,0,1,8.253-8.652c.122,0,.243,0,.365,0v-.012m133.11,21.9a10.882,10.882,0,0,0,8.883-4.181l.52-.67v4.193h4.426V6.363h-4.367V20.595l-.578-.68a10.881,10.881,0,0,0-8.942-4.183A13.008,13.008,0,0,0,187.945,28.96a13.009,13.009,0,0,0,12.763,13.251h0Zm.556-21.95a8.455,8.455,0,0,1,8.619,8.289c0,.126,0,.251,0,.377a8.6,8.6,0,1,1-17.192,0,8.433,8.433,0,0,1,8.256-8.606c.1,0,.2,0,.3,0l.012-.059Z" transform="translate(27.235 3.192)" fill="#f0e745"/>
        <path id="Trazado_4" data-name="Trazado 4" d="M97.373,42.209a10.883,10.883,0,0,0,8.94-4.181l.521-.67v4.193h4.424v-25.1h-4.424v4.193l-.52-.727a10.881,10.881,0,0,0-8.942-4.183A13.008,13.008,0,0,0,84.666,28.96,13.01,13.01,0,0,0,97.373,42.211Zm.553-21.95a8.455,8.455,0,0,1,8.621,8.287c0,.126,0,.252,0,.378a8.6,8.6,0,1,1-17.19.008v-.008a8.435,8.435,0,0,1,8.256-8.607q.158,0,.315,0ZM125.41,42.4c-1.431,3.649-3.649,5.314-6.746,5.082V51.6h.751c4.621,0,8.353-3.028,10.4-8.526l10.282-26.629h-4.735l-7.209,19.64-8.515-19.64h-4.771l10.953,25.036Zm53.281-14.164c0-7.1,5.662-7.659,7.394-7.659h.406V15.951a8.086,8.086,0,0,0-7.267,3.6l-.532.832V16.448h-4.424V41.563h4.424ZM153.91,42.209a10.88,10.88,0,0,0,8.942-4.181l.52-.67v4.193H167.8v-25.1h-4.414v4.193l-.52-.67a10.881,10.881,0,0,0-8.942-4.183,13.008,13.008,0,0,0-12.707,13.228,13.009,13.009,0,0,0,12.7,13.194Zm.556-21.95a8.455,8.455,0,0,1,8.619,8.289c0,.126,0,.251,0,.377a8.6,8.6,0,0,1-17.178.643c-.008-.215-.008-.428,0-.643a8.433,8.433,0,0,1,8.256-8.606c.1,0,.2,0,.3,0Zm-95.773,17.1.521.67a10.88,10.88,0,0,0,8.941,4.183A13.008,13.008,0,0,0,80.863,28.97,13.009,13.009,0,0,0,68.155,15.732a10.88,10.88,0,0,0-8.941,4.183l-.521.67V6.36H54.27v35.2h4.424V37.358ZM67.6,20.306c7.209,0,8.573,6.066,8.573,8.666a8.6,8.6,0,0,1-17.19,0,8.455,8.455,0,0,1,8.253-8.652c.122,0,.243,0,.365,0v-.012m133.11,21.9a10.882,10.882,0,0,0,8.883-4.181l.52-.67v4.193h4.426V6.363h-4.367V20.595l-.578-.68a10.881,10.881,0,0,0-8.942-4.183A13.008,13.008,0,0,0,187.945,28.96a13.009,13.009,0,0,0,12.763,13.251h0Zm.556-21.95a8.455,8.455,0,0,1,8.619,8.289c0,.126,0,.251,0,.377a8.6,8.6,0,1,1-17.192,0,8.433,8.433,0,0,1,8.256-8.606c.1,0,.2,0,.3,0l.012-.059Z" transform="translate(27.235 3.192)" fill="#0d0e0e"/>
      </g>
    </g>
    <text id="Juntos_por_la_lectura" data-name="Juntos por la lectura" transform="translate(233.255 156.645)" fill="#707070" font-size="20" font-family="Helvetica"><tspan x="0" y="0">Juntos por la lectura</tspan></text>
  </g>
</svg>
