<?xml version="1.0" encoding="utf-8"?>
<!-- Generator: Adobe Illustrator 28.3.0, SVG Export Plug-In . SVG Version: 6.00 Build 0)  -->
<svg version="1.1" id="Livello_1" xmlns="http://www.w3.org/2000/svg" xmlns:xlink="http://www.w3.org/1999/xlink" x="0px" y="0px"
	 viewBox="0 0 80 80" style="enable-background:new 0 0 80 80;" xml:space="preserve">
<style type="text/css">
	.st0{fill:#00B2D0;}
	.st1{fill:#FFFFFF;}
</style>
<g>
	<circle class="st0" cx="40" cy="40" r="40"/>
	<path class="st1" d="M61,57.7L48.5,45.2c1.6-2.5,2.5-5.4,2.5-8.6c0-8.8-7.2-16-16-16s-16,7.2-16,16s7.2,16,16,16
		c4.2,0,8-1.6,10.9-4.3l12.2,12.3L61,57.7z M35,47.6c-6,0-10.9-4.9-10.9-10.9c0-6,4.9-10.9,10.9-10.9c6,0,10.9,4.9,10.9,10.9
		C46,42.6,41,47.6,35,47.6z"/>
</g>
</svg>
