<svg width="197" height="98" viewBox="0 0 197 98" fill="none" xmlns="http://www.w3.org/2000/svg">
<mask id="mask0_1_2026" style="mask-type:alpha" maskUnits="userSpaceOnUse" x="0" y="0" width="197" height="98">
<rect x="0.982422" y="32.999" width="186.462" height="65.7419" transform="rotate(-10 0.982422 32.999)" fill="#D9D9D9"/>
</mask>
<g mask="url(#mask0_1_2026)">
<mask id="mask1_1_2026" style="mask-type:alpha" maskUnits="userSpaceOnUse" x="1" y="0" width="195" height="98">
<rect x="1.11719" y="33.0923" width="186.229" height="65.5113" transform="rotate(-10 1.11719 33.0923)" fill="#D9D9D9"/>
</mask>
<g mask="url(#mask1_1_2026)">
<mask id="mask2_1_2026" style="mask-type:alpha" maskUnits="userSpaceOnUse" x="1" y="0" width="195" height="98">
<rect x="1.11719" y="33.0923" width="186.229" height="65.5113" transform="rotate(-10 1.11719 33.0923)" fill="#D9D9D9"/>
</mask>
<g mask="url(#mask2_1_2026)">
<path d="M53.1507 26.2416C53.3377 26.3125 53.1094 26.8104 52.6488 27.3824C46.2778 35.1635 40.8607 43.9654 40.5674 47.0653C40.4517 48.4162 41.2725 49.6729 42.6259 50.2034C44.5779 50.9444 51.2518 51.839 54.2855 51.7571C55.8502 51.6935 57.1619 51.7736 57.1861 51.9109C57.2103 52.0482 56.5593 52.9321 55.7078 53.8561C52.6976 57.2557 48.9549 59.284 42.5555 60.9361C40.0429 61.5915 39.5591 61.8183 39.2656 62.5354C38.7573 63.6395 39.3821 70.9561 40.2793 74.6529C40.6737 76.3009 41.3937 78.3774 41.8315 79.2817C42.2637 80.1539 42.5812 80.9378 42.5303 81.0505C42.3042 81.3735 38.2899 79.4532 35.67 77.7069C29.2923 73.5421 26.5426 69.8558 23.0599 60.8349C22.3498 59.0019 21.3635 56.9676 20.8624 56.3199C18.8006 53.5645 14.5574 50.7739 11.0175 49.7513C10.1266 49.4885 9.40952 49.195 9.38531 49.0577C9.3256 48.719 14.2037 46.3867 16.1142 45.8753C17.5132 45.4871 18.3199 45.4864 19.7185 45.872C20.7158 46.1492 21.5577 46.5622 21.6053 46.8322C21.6473 47.0702 21.7843 47.2583 21.8895 47.2398C22.0222 47.2164 23.4017 45.8879 24.9771 44.2795C32.3981 36.7002 37.6321 32.7999 45.1282 29.2322C48.7198 27.5514 52.6648 26.082 53.1507 26.2416Z" fill="white"/>
<path d="M191.283 63.7583C196.361 63.9483 196.822 64.1831 193.999 65.2753C186.683 68.0705 178.051 65.8084 173.688 59.9578C172.821 58.8131 171.906 57.186 171.625 56.3957L171.15 54.9035L168.906 55.4739C167.708 55.8266 166.373 56.2036 166.009 56.3338C165.62 56.5109 163.629 56.7534 161.558 56.9111C153.271 57.6031 146.203 55.2729 142.366 50.5892C141.617 49.7398 140.966 49.0148 140.897 49.0269C140.829 49.039 139.504 49.6596 137.959 50.4556C131.637 53.5333 128.045 54.6243 117.717 56.4455C109.223 57.9431 107.745 58.0953 103.987 58.0595C92.541 57.9026 81.4723 56.1409 77.7434 53.8588C76.9214 53.3714 76.3175 52.9164 76.3694 52.8365C76.4268 52.7603 81.5586 53.0445 87.7971 53.4497C105.851 54.7157 107.803 54.6546 118.645 52.7759C127.377 51.2363 131.482 50.0595 137.168 47.547L139.767 46.3904L139.174 43.8291C138.05 38.8464 138.922 34.4508 141.959 29.8149C143.91 26.7767 146.242 24.5065 148.924 23.0191C153.396 20.5508 157.867 21.4752 158.852 25.0856C159.48 27.2539 159.253 29.1484 158.036 31.991C156.24 36.3044 151.871 41.3119 146.568 45.2242C145.392 46.097 144.335 46.8777 144.278 46.9256C144.221 47.0064 144.536 47.6161 145.018 48.3381C146.849 50.9925 151.879 53.2906 156.823 53.7164C159.46 53.9544 165.438 53.2826 168.441 52.4369L170.668 51.7659L170.779 50.2033C171.022 47.0085 173.077 43.3528 175.733 41.3416C176.972 40.4246 179.854 39.8834 181.264 40.3332C182.711 40.781 183.813 42.2665 183.827 43.7362C183.788 46.3004 180.292 50.1018 175.632 52.6789C174.037 53.5877 173.975 53.6364 174.278 54.739C174.46 55.3721 175.089 56.5588 175.696 57.4286C178.85 61.9919 182.51 63.4793 191.283 63.7583ZM175.572 49.1836C179.185 47.0083 181.751 43.6824 180.316 43.0908C179.144 42.5991 177.136 43.5477 175.696 45.3069C175.001 46.1323 173.72 49.1941 173.822 49.7752C173.876 50.0773 174.34 49.9293 175.572 49.1836ZM156.921 26.653C156.747 25.4568 156.501 25.0473 155.765 24.6486C153.083 23.1634 147.147 27.0458 144.294 32.1399C143.126 34.2379 142.273 36.9458 142.176 38.9918C142.078 41.005 142.581 44.0729 143.073 44.2646C143.559 44.4571 148.756 40.5305 151.352 37.9683C155.173 34.2135 157.391 29.722 156.921 26.653Z" fill="black"/>
<path d="M54.3014 24.0428C55.563 24.2403 56.062 25.0629 55.6785 26.2866C55.5188 26.7724 53.1073 30.3826 50.3369 34.3392C45.7769 40.8573 42.8345 46.0332 43.05 47.255C43.0919 47.493 43.5718 47.833 44.1584 47.9749C46.5663 48.7064 52.9708 49.4645 55.6425 49.3095C57.2392 49.2403 58.7954 49.3151 59.0696 49.479C59.3751 49.6328 59.6948 50.2417 59.803 50.8549C59.953 51.7061 59.6165 52.393 58.0673 54.5252C54.9372 58.8236 50.746 61.4925 44.4529 63.1589L41.6073 63.906L41.7867 66.5025C41.8635 67.9281 42.3538 70.9228 42.8178 73.153C43.5482 76.4923 43.9593 77.6466 45.1195 79.6503C46.2909 81.718 46.4941 82.2814 46.2805 83.0504C45.9401 84.3042 44.5425 84.5129 41.8411 83.6964C35.7383 81.8659 28.7591 76.8588 25.5194 71.9991C23.9986 69.7429 22.4424 66.4832 21.0341 62.4566C18.9646 56.6875 15.6213 53.8089 8.68827 51.8465C6.36668 51.2036 4.3762 50.4316 4.19131 50.1858C3.63613 49.2315 4.88258 48.1388 9.01587 45.9709C12.4826 44.1705 13.6927 43.6741 16.0986 43.2168C18.8791 42.6888 19.1291 42.7155 20.7368 43.4842L22.4573 44.3038L23.5402 42.7115C24.8236 40.8385 28.8457 36.8358 31.7077 34.5759C36.4156 30.8769 42.4519 27.5666 48.4732 25.3488C52.4934 23.9039 52.895 23.8001 54.3014 24.0428ZM52.649 27.3823C53.1096 26.8103 53.338 26.3124 53.1509 26.2416C52.6651 26.0819 48.72 27.5513 45.1284 29.2321C37.6323 32.7998 32.3984 36.7001 24.9774 44.2794C23.4019 45.8878 22.0225 47.2163 21.8898 47.2397C21.7845 47.2582 21.6475 47.0701 21.6056 46.8321C21.5579 46.5621 20.716 46.1491 19.7187 45.8719C18.3201 45.4863 17.5134 45.487 16.1144 45.8752C14.204 46.3867 9.32585 48.719 9.38556 49.0576C9.40977 49.1949 10.1268 49.4884 11.0178 49.7512C14.5576 50.7738 18.8008 53.5644 20.8626 56.3198C21.3638 56.9675 22.35 59.0018 23.0601 60.8348C26.5429 69.8557 29.2926 73.542 35.6702 77.7068C38.2902 79.4531 42.3044 81.3734 42.5306 81.0505C42.5815 80.9377 42.264 80.1538 41.8318 79.2816C41.394 78.3773 40.6739 76.3008 40.2795 74.6528C39.3823 70.956 38.7575 63.6394 39.2659 62.5353C39.5594 61.8182 40.0431 61.5914 42.5557 60.936C48.9552 59.2839 52.6979 57.2556 55.708 53.856C56.5596 52.932 57.2106 52.0481 57.1864 51.9108C57.1622 51.7735 55.8505 51.6934 54.2857 51.757C51.2521 51.8389 44.5781 50.9443 42.6261 50.2033C41.2728 49.6728 40.452 48.4162 40.5676 47.0652C40.8609 43.9653 46.278 35.1634 52.649 27.3823Z" fill="black"/>
</g>
</g>
</g>
</svg>
