<svg xmlns="http://www.w3.org/2000/svg" xmlns:xlink="http://www.w3.org/1999/xlink" width="127.739" height="173.862" viewBox="0 0 127.739 173.862">
  <defs>
    <clipPath id="clip-path">
      <rect id="Rect치ngulo_59" data-name="Rect치ngulo 59" width="102.873" height="117.529" fill="none"/>
    </clipPath>
    <clipPath id="clip-path-2">
      <rect id="Rect치ngulo_49" data-name="Rect치ngulo 49" width="103.336" height="99.581" fill="none"/>
    </clipPath>
  </defs>
  <g id="Grupo_73" data-name="Grupo 73" transform="translate(0)">
    <g id="Grupo_33" data-name="Grupo 33" transform="translate(24.865)">
      <g id="Grupo_32" data-name="Grupo 32" clip-path="url(#clip-path)">
        <path id="Trazado_263" data-name="Trazado 263" d="M100.975.474c-.321.321-.482,2.168-.482,5.622a29.32,29.32,0,0,1-.241,5.14,15.569,15.569,0,0,1-2.53-1.366c-2.891-1.767-5.3-2.49-6.3-1.928-.683.4-.6.6,1.245,2.289A51.125,51.125,0,0,0,96.8,13.525a8.1,8.1,0,0,1,2.088,1.807,13.014,13.014,0,0,1-1.968,2.65c-4.176,4.9-6.225,8.514-4.738,8.514,1.044,0,4.337-2.53,6.385-4.859a10.6,10.6,0,0,1,2.209-2.209,31.258,31.258,0,0,1,.522,3.9c.482,4.377.964,5.863,2.128,6.225,1.606.522,1.968-.763,1.687-5.622l-.281-4.377,1.847,1.366c5.1,3.775,5.582,4.015,7.028,3.9,3.011-.241,1.807-2.209-3.936-6.506-2.088-1.566-4.015-2.971-4.256-3.132-.2-.161,1.124-1.847,3.133-3.855,2.57-2.65,3.493-3.855,3.493-4.618,0-2.289-1.928-1.887-5.14,1.125a31.888,31.888,0,0,1-2.57,2.208,20.325,20.325,0,0,1-.482-3.975,24.516,24.516,0,0,0-.643-5.02,1.341,1.341,0,0,0-2.329-.562" transform="translate(-41.794 0)" fill-rule="evenodd"/>
        <path id="Trazado_264" data-name="Trazado 264" d="M10.912,48.12c-.361.482-.442,2.53-.321,8.634.081,5.462,0,7.911-.281,7.71C6.776,61.653,1.475,58,1.073,58c-1,0-1.406,1.285-.763,2.45.522,1.044,3.735,3.976,7.268,6.747L9.306,68.52,5.491,72.777c-3.775,4.216-4.538,5.5-4.056,6.706.522,1.366,2.008.562,5.7-3.092L10.912,72.7l.04,2.008c.121,9.2.924,13.011,2.771,13.011,1.326,0,1.526-1.365,1.285-8.594l-.2-6.787,2.169,1.606c2.971,2.249,6.385,3.9,6.907,3.373.8-.8-1.566-3.855-5.1-6.506a25.332,25.332,0,0,1-3.454-2.891,43.406,43.406,0,0,1,4.418-4.9c2.409-2.49,4.5-5.02,4.618-5.542.4-1.566.081-2.49-.923-2.61-.723-.121-1.848.763-4.859,3.735l-3.936,3.855-.281-6.225C14,48.722,13.8,47.8,12.438,47.638a2.008,2.008,0,0,0-1.526.482" transform="translate(0 -21.866)" fill-rule="evenodd"/>
        <path id="Trazado_265" data-name="Trazado 265" d="M171.286,72.227a6.255,6.255,0,0,0-.522,2.168l-.241,1.928-1.686-.964c-1.928-1.124-2.57-1.2-2.931-.321-.161.4.441,1.285,1.686,2.57l1.928,1.968-1.446,1.808c-1.486,1.767-1.888,3.052-1,3.052a8.572,8.572,0,0,0,2.209-1L171,82.387v1.2c0,1.767.4,2.45,1.406,2.45.924,0,1.406-.683,1.406-2.048,0-.683.12-.683,1.807.2,1.887,1.044,3.413.964,3.413-.121a7.754,7.754,0,0,0-2.249-2.65l-2.249-2.008,2.048-2.048a8.186,8.186,0,0,0,2.048-2.731c0-1-1.686-.8-3.453.482l-1.566,1.164-.4-2.048c-.361-1.928-1.164-2.731-1.928-2.008" transform="translate(-76.164 -33.042)" fill-rule="evenodd"/>
        <path id="Trazado_266" data-name="Trazado 266" d="M98.907,115.883c-.361.442-.562,2.53-.643,7.228a55.353,55.353,0,0,1-.321,6.545,17.62,17.62,0,0,1-1.847-1.044c-2.731-1.727-5.662-2.972-7.028-2.972-.723,0-1.325.161-1.325.362,0,.643,2.57,2.931,6.345,5.582a26.389,26.389,0,0,1,3.695,2.931,51.723,51.723,0,0,1-4.016,4.578c-2.771,2.931-4.016,4.538-4.016,5.22,0,2.409,2.088,1.727,5.983-2.008l3.133-3.012.482,3.9c.924,7.71,1.847,10.561,3.333,10.561,1.406,0,1.606-2.57.763-9.477-.442-3.494-.763-6.385-.723-6.465.08-.041,3.293,2.329,6.385,4.778,2.851,2.249,5.02,1.767,3.935-.843-.4-1.044-5.14-5.1-8.152-7.068l-1.084-.683,2.932-3.293a43.778,43.778,0,0,0,3.654-4.337c.924-1.446.723-3.293-.4-3.453-.643-.081-1.727.843-4.3,3.533l-3.413,3.695-.241-2.53c-.12-1.406-.321-4.016-.441-5.783-.4-5.462-1.366-7.55-2.691-5.943" transform="translate(-40.287 -52.966)" fill-rule="evenodd"/>
        <path id="Trazado_267" data-name="Trazado 267" d="M20.253,185.887a16.976,16.976,0,0,0-.442,3.253v1.446L18.044,189.3c-3.253-2.329-4.216-.4-1.285,2.53l1.767,1.767L17.161,195.4c-2.409,3.173-1.406,5.3,1.406,2.931l1.244-1.044V198.9a4.164,4.164,0,0,0,.723,2.49c.643.763.883.843,1.606.442.723-.361.883-.844.883-2.329v-1.807l1.044.643a3.008,3.008,0,0,0,1.887.562c1.566-.2,1.285-1.486-.723-3.333-2.048-1.928-2.088-1.767.281-4.738,1.766-2.289,2.048-3.9.6-3.9a3.683,3.683,0,0,0-2.088,1.205c-1.446,1.486-1.807,1.526-1.807.08s-.763-4.1-1.164-4.1c-.2,0-.562.8-.8,1.767" transform="translate(-6.89 -84.539)" fill-rule="evenodd"/>
      </g>
    </g>
    <g id="Baby" transform="translate(0 74.28)">
      <g id="Grupo_13" data-name="Grupo 13" clip-path="url(#clip-path-2)">
        <path id="Trazado_123" data-name="Trazado 123" d="M92.3,123.985a10.024,10.024,0,0,0-8.21-6.681c-2.246-.3-5.659,1.525-4.293,4.061-.014.01-.025.015-.038.023-4.086,2.813-10.094,3.78-14.549,1.411-4.567-2.429-1.568-9.791-2.316-13.7-.224-1.17-1.233-.833-1.939-.153.151-.315.056-.278-.3.132a1.875,1.875,0,0,0-.358.852,1.141,1.141,0,0,0-.049.239c-.141,1.67-.241,3.34-.274,5.017-.059,2.9-.2,7.4,2.411,9.417,4.766,3.672,13.5,2.031,18.4-.78a2.082,2.082,0,0,0,.432-.335c1.289,1.367,2.04,3.183,3.355,4.538,1.122,1.158,3.109,3.014,4.953,2.554,2.886-.722,3.57-4.083,2.772-6.59" transform="translate(-18.944 -34.231)"/>
        <path id="Trazado_124" data-name="Trazado 124" d="M93.95,131.385c-1.063-1.252-1.8-2.939-3.051-4.048.32-1.017-.317-2.089-1.527-1.548a1.975,1.975,0,0,1-.071-2.04c.01,0,.017.01.027,0,5.621-3.9,13,8.355,9.345,10.559a2.508,2.508,0,0,1-.334.058c-1.676.071-3.417-1.837-4.388-2.981" transform="translate(-28.142 -38.865)" fill="#fff"/>
        <path id="Trazado_125" data-name="Trazado 125" d="M101.618,133.741c1.239-2.083-.806-5.9-1.9-7.5a9.672,9.672,0,0,0-4.869-3.506c.228.02.43.042.585.067a8.978,8.978,0,0,1,3.377,1.415,9.131,9.131,0,0,1,4.069,6.274,3.712,3.712,0,0,1-1.264,3.254" transform="translate(-29.974 -38.784)" fill="#fff"/>
        <path id="Trazado_126" data-name="Trazado 126" d="M39.967,122.358a1.327,1.327,0,0,0,.381-.484c3.276-7.21,5.344-18.328,2.322-25.957-.15-.381-.594.005-.554.3,1.175,8.556-1.6,17.232-3.819,25.348a1.384,1.384,0,0,0-.055.351,2.675,2.675,0,0,0-1.766-.222,6.886,6.886,0,0,0-3,1.124c-.809.533-2.226,1.908-1.375,2.889-.049.368-.021.769.281.894-.079.533.054,1.134.634,1.2a.666.666,0,0,0,.161.614c.384.384,1.042-.038,1.391-.263a4.741,4.741,0,0,0,.768-.625,6.247,6.247,0,0,1,1.008-.759,1.4,1.4,0,0,0-.064.893c.33,1.092,1.487.37,2.046-.122a8.189,8.189,0,0,0,2.577-3.1,2.084,2.084,0,0,0-.217-1.549.965.965,0,0,0-.724-.53" transform="translate(-10.063 -30.26)"/>
        <path id="Trazado_127" data-name="Trazado 127" d="M39.251,138.46c-.238.222-.486.423-.716.654-.123.125-1.42,1.376-1.465.318-.036-.831.936-1.552,1.266-2.278.131-.29-.219-.46-.386-.2-.233.362-.642.815-.969,1.3-.006,0-.009,0-.016,0-1.073.359-1.761,1.341-2.752,1.849-.55.283-.391-.394-.248-.7a5.5,5.5,0,0,1,.587-.875c.508-.7,1.159-1.217,1.707-1.878.12-.141-.038-.352-.184-.2-.363.376-.794.676-1.158,1.053a14.02,14.02,0,0,0-.964,1.23,5.5,5.5,0,0,0-.463.689c-1.11-.612.724-2.378,1.208-2.882.1-.1.033-.278-.109-.171a5.094,5.094,0,0,0-1.715,1.785.941.941,0,0,1-.034-.152,1,1,0,0,1,.018-.208.271.271,0,0,0,.009-.12,2.183,2.183,0,0,1,.122-.4,12.432,12.432,0,0,1,.83-1.246c.078-.14-.1-.218-.186-.1-.3.425-.734.739-1,1.18-.114-1.206,2.528-2.249,3.151-2.44a5.138,5.138,0,0,1,2.815-.088.963.963,0,0,0,1.2.243,3.782,3.782,0,0,1,.364.2c1.464.974-.14,2.725-.91,3.447" transform="translate(-10.312 -42.477)" fill="#fff"/>
        <path id="Trazado_128" data-name="Trazado 128" d="M76.2,67.22c-2.892-4.122-7.128-6.4-11.957-7.464a18.085,18.085,0,0,0-7.64-.228c-.782.16-1.666.311-2.514.55A65.217,65.217,0,0,0,58.937,53.8a6.486,6.486,0,0,0,2.534-.241A11.538,11.538,0,0,0,68.5,47.5a4.64,4.64,0,0,0-2.777-6.1,4.478,4.478,0,0,0-3.213.207C66.255,28,55.545,18.007,43.349,13.663A32.114,32.114,0,0,0,22.892,13.4c-6,1.951-10.571,6.137-13.877,11.318a31.11,31.11,0,0,0-1.966,3.631c-2.525-1.74-5.67,1.345-6.49,3.73-.635,1.847-.95,3.923.289,5.628.813,1.118,2.066,2.238,3.464,1.932a25.23,25.23,0,0,0,9.389,20.6,26.751,26.751,0,0,0,6.04,3.668.368.368,0,0,1,.257.031c.1.057.212.1.317.154l1.008.4a5.074,5.074,0,0,1,.844.325.347.347,0,0,1,.145.134,38.557,38.557,0,0,0,6.025,1.572c2.18.767,3.057,5.237,3.684,7.088a41.039,41.039,0,0,0,3.073,6.8A27.043,27.043,0,0,0,45.433,90.83c8.559,4.826,18.774,3.75,26.642-1.825a17.93,17.93,0,0,0,7.135-9.511c1.221-4.291-.562-8.786-3.009-12.275" transform="translate(0 -3.747)"/>
        <path id="Trazado_129" data-name="Trazado 129" d="M2.528,44.777c-1-1.19-.846-2.793-.518-4.175a9.4,9.4,0,0,1,1-2.26c.9-1.629,2.614-1.789,4.18-1.223A28.851,28.851,0,0,0,4.906,46.4c-1.017.055-1.808-.947-2.378-1.622" transform="translate(-0.557 -11.636)" fill="#fff"/>
        <path id="Trazado_130" data-name="Trazado 130" d="M22.719,64.186A25.36,25.36,0,0,1,9.158,49.93,26.932,26.932,0,0,1,9.388,30.8,27.982,27.982,0,0,1,23,16.583c6.243-2.963,13.508-2.942,20.131-1.2,11.9,3.138,24.373,13.857,21.428,27.111a3.593,3.593,0,0,0-1.982,2.137.174.174,0,0,0,.173.228l.157,0c.114,0,.326-.164.211-.289.018.018,1.181-.94,1.1-.872a3.4,3.4,0,0,1,4.248.051c2.213,1.445,1.33,4.584.064,6.2-2.358,3.013-7.18,4.815-10.011,1.482-.38-.447-1.274.111-1.091.638A3.7,3.7,0,0,0,60,54.281C58.2,56.7,56.552,59.314,54.27,61.33a24.558,24.558,0,0,1-9.744,4.9,33.72,33.72,0,0,1-21.807-2.044" transform="translate(-2.374 -4.485)" fill="#fff"/>
        <path id="Trazado_131" data-name="Trazado 131" d="M90.348,105.669c-2.438,3.816-6.722,6.514-10.893,8.064-8.836,3.284-18.869.466-25.46-6.006-3.246-3.187-5.47-7.375-7.22-11.525-.7-1.67-1.663-5.694-3.527-7.109,1.053.158,2.1.286,3.133.358a.584.584,0,0,0,.029.094,7.459,7.459,0,0,1,2.22-.016,27.531,27.531,0,0,0,17.6-5.7c.1-.075.184-.161.278-.239a18.9,18.9,0,0,1,5.254-.935,22.5,22.5,0,0,1,7.748,1.185,18.152,18.152,0,0,1,10.605,8.435c2.6,4.274,2.966,9.118.235,13.4" transform="translate(-13.667 -26.106)" fill="#fff"/>
        <path id="Trazado_132" data-name="Trazado 132" d="M92.161,62.116c-1.016-.122-2.008-.553-3.018-.177a7.1,7.1,0,0,0-3.15,2.023c-.585.7.406,1.207.919.6a5.622,5.622,0,0,1,2.633-1.923c.808-.265,1.713.079,2.549-.076.229-.042.374-.4.068-.441" transform="translate(-27.118 -19.526)"/>
        <path id="Trazado_133" data-name="Trazado 133" d="M30.274,48.965a1.908,1.908,0,0,0-3.192-.338,1.852,1.852,0,0,0-.159,1.973,1.326,1.326,0,0,0,1.715.733c.146-.07.314-.354.065-.423-.483-.132-.834-.161-1.146-.6a1.325,1.325,0,0,1-.028-1.421c.556-1.018,1.935-.4,2.486.267.1.126.345-.053.26-.189" transform="translate(-8.44 -15.136)"/>
        <path id="Trazado_134" data-name="Trazado 134" d="M18.4,37.586c-.005-.01-.008-.023-.015-.034-.508-1.249-1.843-.916-2.6-.013a4.343,4.343,0,0,0-.812,3.638c.476,1.9,2.406,1.084,3.008-.165a4.689,4.689,0,0,0,.419-3.426" transform="translate(-4.698 -11.608)"/>
        <path id="Trazado_135" data-name="Trazado 135" d="M16.967,38.464l-.005-.01c-.154-.382-.563-.28-.8,0a1.331,1.331,0,0,0-.247,1.113c.144.582.736.332.919-.05a1.438,1.438,0,0,0,.129-1.049" transform="translate(-5.019 -12.073)" fill="#fff"/>
        <path id="Trazado_136" data-name="Trazado 136" d="M53.2,35.554c0-.011-.009-.023-.012-.035-.508-1.249-1.845-.916-2.6-.014a4.351,4.351,0,0,0-.811,3.638c.475,1.9,2.406,1.085,3.008-.163a4.688,4.688,0,0,0,.417-3.427" transform="translate(-15.694 -10.966)"/>
        <path id="Trazado_137" data-name="Trazado 137" d="M51.762,36.43l0-.01c-.155-.382-.566-.28-.795,0a1.324,1.324,0,0,0-.249,1.114c.145.581.737.331.92-.051a1.434,1.434,0,0,0,.128-1.049" transform="translate(-16.015 -11.43)" fill="#fff"/>
        <path id="Trazado_138" data-name="Trazado 138" d="M108.629,95.664c-.407-7.483-6.3-12.351-12.459-15.551a15.667,15.667,0,0,0-9.113-1.563,1.534,1.534,0,0,0-.624.259c-.492.576-.69,1.177.419,2.072a7.4,7.4,0,0,1,1.428,1.376c.079.111.146.231.224.344a13.9,13.9,0,0,1,1.829,3.418c.1.212.192.425.289.638a.326.326,0,0,1,.025.222c.171.5.307.951.4,1.3.834,3.121.6,6.49.3,9.666a31.183,31.183,0,0,1-2.5,10c-.811,1.787-2.007,3.839-3.752,4.855a7.842,7.842,0,0,0-2.023,1.417c-.152.166-.24.567-.009.715,1.892,1.212,5.374-.049,7.443-.176a19.018,19.018,0,0,0,9.225-3.34c5.485-3.594,9.271-8.891,8.9-15.65" transform="translate(-26.202 -24.774)"/>
        <path id="Trazado_139" data-name="Trazado 139" d="M98.871,111.744a17.576,17.576,0,0,1-8.188,2.547c-1.482.114-4.11,1.027-5.685.566a9.981,9.981,0,0,0,2.194-1.409,16.854,16.854,0,0,0,1.224-1.518,3.6,3.6,0,0,0,3.344-.53c.085-.064.044-.236-.071-.166a3,3,0,0,1-2.005.4,3.8,3.8,0,0,1-.75-.175.841.841,0,0,1-.138-.062,23.529,23.529,0,0,0,1.524-2.637,22.528,22.528,0,0,0,1.7-4.827c.919.442,3.4-.011,3.735-.844.068-.165-.127-.2-.2-.063-.278.509-1.41.568-1.9.6a2.016,2.016,0,0,1-1.5-.312,47.037,47.037,0,0,0,.78-5.072,32.911,32.911,0,0,0,.02-7.838c.782-.93,2.094-.871,3.139-1.343.139-.064.305-.427.064-.475a4.086,4.086,0,0,0-2.431.654,4.7,4.7,0,0,0-.857.55,19.944,19.944,0,0,0-.7-2.936,15.541,15.541,0,0,0-.94-2.23,4.681,4.681,0,0,1,.465-.579,2.779,2.779,0,0,1,1.25-.637c.25-.085.445-.537.078-.591a2.221,2.221,0,0,0-2.045,1.343A7.572,7.572,0,0,0,88.7,81.491c.192-.1.386-.183.583-.277.139-.066.234-.382.005-.384a1.378,1.378,0,0,0-.86.352c-1-.631-.362-.745.616-.711a19.337,19.337,0,0,1,4.215.588c2.666.689,4.883,2.238,7.215,3.631A15.921,15.921,0,0,1,108,98.669c-.2,5.844-4.479,10.144-9.133,13.075" transform="translate(-26.86 -25.428)" fill="#fff"/>
        <path id="Trazado_140" data-name="Trazado 140" d="M34.769,10.182c-3.316,2.562-8.73,1.875-12.04-.413a4.592,4.592,0,0,1-1.333-6.5C22.678,1.436,25.273.682,27.381.481c.237-.023.43-.492.12-.482-4.614.159-9.786,3.758-7.364,8.871,2.324,4.9,11.5,5.315,14.852,1.555.155-.175-.031-.391-.22-.243" transform="translate(-6.168 0)"/>
        <path id="Trazado_141" data-name="Trazado 141" d="M30.688,19.849c-3.189,2.137-10.695,5.536-13.657,1.669-.3-.395-.761.151-.718.493.8,6.272,12.466.133,14.479-2,.074-.079.005-.238-.1-.164" transform="translate(-5.154 -6.267)"/>
        <path id="Trazado_142" data-name="Trazado 142" d="M49.928,56.871c-1.255-3.2-3.33-1.272-5.286-.088a40.074,40.074,0,0,1-11.914,4.763c-4.029.922-9.668,1.9-13.531-.06-.062-.031-.132.092-.063.128a10.37,10.37,0,0,0,1.43.6.353.353,0,0,0-.131.263c.083,2.851,1.687,6.107,3.15,8.522,1.578,2.611,5.581,3.833,8.388,4.185,7.192.9,13.669-3.037,17.238-9.135a11.122,11.122,0,0,0,.719-9.176" transform="translate(-6.037 -17.418)"/>
        <path id="Trazado_143" data-name="Trazado 143" d="M38.35,64.291c.369-.089.728-.2,1.09-.3.3,2.029-3.33,2.483-4.681,2.726a9.343,9.343,0,0,1-4.023-.033c-.5-.129-.833-.778-1.274-.948a44.555,44.555,0,0,0,8.888-1.445" transform="translate(-9.31 -20.222)" fill="#fff"/>
        <path id="Trazado_144" data-name="Trazado 144" d="M40.51,80.29a13.264,13.264,0,0,1-2.614-.185c.4-3.324,2.42-5.206,5.654-6.051,2.33-.609,6.371-.62,7.979,1.6-.231.228-.464.453-.7.671A14.994,14.994,0,0,1,40.51,80.29" transform="translate(-11.976 -23.292)" fill="#fff"/>
        <path id="Trazado_145" data-name="Trazado 145" d="M46.738,70c-1.82-2.69-6.826-2.609-9.525-1.78-2.161.665-6.015,4.071-4.657,6.448A13.089,13.089,0,0,1,21.864,62.849a16.125,16.125,0,0,0,4.934.577c0,.01-.01.02-.008.029.344,2.578,4.943,1.6,6.585,1.269,1.588-.321,4.514-1.093,4.178-3.187a39.18,39.18,0,0,0,5.993-2.324A40.613,40.613,0,0,0,47.5,57c2.557-1.61,3.049,3.049,3.123,4.484.17,3.338-1.644,6.207-3.88,8.509" transform="translate(-6.909 -17.908)" fill="#fff"/>
        <path id="Trazado_146" data-name="Trazado 146" d="M135.679,124.437a10.02,10.02,0,0,0-8.211-6.68c-2.243-.3-5.657,1.523-4.292,4.062a.43.43,0,0,0-.038.021c-4.086,2.81-10.094,3.782-14.548,1.412-4.566-2.432-1.568-9.795-2.316-13.7-.224-1.168-1.233-.834-1.939-.153.153-.317.057-.281-.3.131a1.893,1.893,0,0,0-.357.853,1.154,1.154,0,0,0-.049.236c-.141,1.673-.241,3.344-.275,5.018-.057,2.9-.2,7.406,2.411,9.416,4.767,3.674,13.505,2.034,18.4-.779a2.077,2.077,0,0,0,.432-.335c1.289,1.365,2.041,3.183,3.356,4.538,1.122,1.16,3.109,3.017,4.954,2.554,2.884-.72,3.569-4.083,2.769-6.59" transform="translate(-32.653 -34.375)"/>
        <path id="Trazado_147" data-name="Trazado 147" d="M137.331,131.836c-1.062-1.25-1.8-2.938-3.051-4.046.319-1.017-.318-2.09-1.528-1.549a1.969,1.969,0,0,1-.07-2.038c.009,0,.016.007.027,0,5.621-3.91,13,8.351,9.344,10.557a2.482,2.482,0,0,1-.335.06c-1.675.072-3.415-1.839-4.387-2.983" transform="translate(-41.851 -39.008)" fill="#fff"/>
        <path id="Trazado_148" data-name="Trazado 148" d="M145,134.193c1.239-2.083-.806-5.9-1.9-7.5a9.657,9.657,0,0,0-4.871-3.506c.229.018.43.042.586.066a9.014,9.014,0,0,1,3.377,1.415,9.137,9.137,0,0,1,4.07,6.276A3.707,3.707,0,0,1,145,134.193" transform="translate(-43.682 -38.928)" fill="#fff"/>
        <path id="Trazado_149" data-name="Trazado 149" d="M71.656,122.431a4.347,4.347,0,0,0,.4-.767,61.872,61.872,0,0,0,.431-11.6A39.441,39.441,0,0,0,72,103.926c-.5-3.382-.676-7.124-2.4-10.141a1.225,1.225,0,0,0-.986-.45,1.271,1.271,0,0,0-1.146,1.278c1.986,9.193,1.946,18.061,2.43,27.358a7.248,7.248,0,0,0-5.921,1.135c-.265.2-.918,1.049-.43,1.366a1.583,1.583,0,0,0,.977.219,6.823,6.823,0,0,0-1.1,1.462c-.287.508-.7,1.519-.169,2,.227.2.539.1.814-.086a.731.731,0,0,0,1.031.759,2.053,2.053,0,0,0,.668-.49.751.751,0,0,0,.262.594c.594.477,1.3-.328,1.6-.732A16.053,16.053,0,0,1,69,126.572c-.317.81-.581,1.713-.188,2.177.6.7,1.372-.108,1.687-.7.7-1.319,1.73-2.62,1.875-4.147a1.631,1.631,0,0,0-.723-1.468" transform="translate(-19.908 -29.493)"/>
        <path id="Trazado_150" data-name="Trazado 150" d="M71.47,139.409a7.893,7.893,0,0,1-1.287,2.265c-.275.277-.713-.083-.77-.365a18.7,18.7,0,0,1,.647-2.52,5.74,5.74,0,0,0-1.493,1.45,4.628,4.628,0,0,1-1.378,1.617.513.513,0,0,1-.7-.477,3.867,3.867,0,0,1,.93-1.892c.335-.447.8-.8,1.113-1.258a.1.1,0,0,0-.053.029c-.136.152-.331.2-.472.334-.233.222-.445.464-.681.687a4.889,4.889,0,0,0-.76,1.093c-.053.09-.112.207-.17.327a2.066,2.066,0,0,1-.609.946c-.411.315-.887.238-.949-.325a2.88,2.88,0,0,1,.679-1.727,7.558,7.558,0,0,1,1.073-1.2c.156-.134.315-.261.465-.4a5.056,5.056,0,0,0-2.46,2.7c-.285.1-.575.24-.446-.334a4.41,4.41,0,0,1,.923-1.661,8.088,8.088,0,0,1,.772-.852c.011-.005.025-.008.037-.013a.532.532,0,0,0,.233-.235,3.035,3.035,0,0,1,1.334-.75c.1-.017.152-.2.029-.211a2.644,2.644,0,0,0-1.557.628,2.655,2.655,0,0,0-.81-.007c-.371.116-.465-.074-.277-.572a4.254,4.254,0,0,1,1.439-.713,10.227,10.227,0,0,1,4-.2v.02a1.167,1.167,0,0,0,1.034.553,1.317,1.317,0,0,1,.659,1.335,3.706,3.706,0,0,1-.495,1.724" transform="translate(-20.261 -42.877)" fill="#fff"/>
      </g>
    </g>
  </g>
</svg>
