<svg width="164" height="127" viewBox="0 0 164 127" fill="none" xmlns="http://www.w3.org/2000/svg">
<mask id="mask0_1_2050" style="mask-type:alpha" maskUnits="userSpaceOnUse" x="0" y="0" width="164" height="127">
<rect x="0.623535" y="0.101562" width="162.602" height="126.297" fill="#D9D9D9"/>
</mask>
<g mask="url(#mask0_1_2050)">
<path d="M69.2884 125.07L11.7218 122.643C5.76717 122.391 1.14346 117.361 1.39453 111.406L3.37022 64.5465C3.62129 58.592 8.65204 53.9682 14.6067 54.2192L72.1732 56.6465C78.128 56.8975 82.7516 61.9283 82.5005 67.883L80.5248 114.742C80.2737 120.697 75.243 125.321 69.2884 125.07Z" fill="#FFF000"/>
<path d="M28.0594 64.8489C28.4964 64.8576 28.9333 64.8677 29.3702 64.8765C29.3759 64.4055 29.3958 63.9346 29.4291 63.4634C27.179 63.3988 24.9271 63.3449 22.6802 63.36C22.6819 63.8237 22.6861 64.2872 22.6933 64.7504C24.4819 64.7628 26.2715 64.8138 28.0594 64.8489Z" fill="black"/>
<path d="M41.8041 65.1622C41.7944 64.6985 41.7935 64.2354 41.7951 63.7756C39.3399 63.7137 36.8847 63.6552 34.4294 63.6013C33.8228 63.588 33.2156 63.5719 32.6082 63.5552C32.5772 64.018 32.5594 64.4808 32.5552 64.9434C35.3293 65.0033 38.1035 65.0665 40.8775 65.1367C41.1864 65.1445 41.4952 65.1541 41.8041 65.1622Z" fill="black"/>
<path d="M45.0318 65.251C48.3785 65.3452 51.7248 65.4511 55.0709 65.5661C55.0525 65.0886 55.042 64.6107 55.0368 64.1326C52.764 64.0707 50.491 64.0097 48.2182 63.9459C47.1442 63.9158 46.07 63.889 44.9961 63.8606C45.0011 64.1539 45.0068 64.4474 45.0151 64.7407C45.0197 64.9107 45.0259 65.081 45.0318 65.251Z" fill="black"/>
<path d="M66.6944 66.0051C66.8874 66.013 67.0845 66.0201 67.2847 66.0273L67.2847 64.4843C65.5269 64.4216 63.7677 64.3804 62.0099 64.3286C60.7481 64.2913 59.4863 64.2573 58.2241 64.2222C58.2302 64.7084 58.2418 65.1945 58.262 65.6801C61.0728 65.7819 63.8837 65.889 66.6944 66.0051Z" fill="black"/>
<path d="M75.4552 69.5763C75.6104 69.978 75.7211 70.3933 75.7992 70.8164C76.3447 70.8646 76.8907 70.8959 77.4374 70.9152C77.0518 68.6079 76.0076 66.5481 73.6226 65.473C72.6306 65.0259 71.5559 64.799 70.4707 64.6733L70.4707 66.2596C72.6144 66.5743 74.6019 67.3651 75.4552 69.5763Z" fill="black"/>
<path d="M11.04 70.6262C10.6633 70.1636 10.2574 69.7278 9.81005 69.3303C8.8099 72.0992 9.2641 75.396 9.41556 78.2538C9.45438 78.9849 9.49084 79.716 9.52929 80.4473C10.0144 80.3876 10.4979 80.3396 10.9794 80.3121C10.894 78.2358 10.8186 76.1593 10.776 74.0834C10.7524 72.9378 10.7778 71.7489 11.04 70.6262Z" fill="black"/>
<path d="M19.4947 63.4592C16.579 63.6916 13.5845 64.4893 11.5117 66.6112C11.9047 66.936 12.2733 67.2823 12.6239 67.645C13.5062 66.7171 14.6475 66.0375 15.8354 65.5783C17.0022 65.1276 18.2515 64.9169 19.5081 64.8212C19.5008 64.3673 19.4966 63.9135 19.4947 63.4592Z" fill="black"/>
<path d="M11.4727 83.4121C10.8584 83.4418 10.2445 83.5298 9.69287 83.6085C9.83394 86.3245 9.97649 89.0403 10.1151 91.7565C10.6439 91.836 11.2118 91.7966 11.7398 91.7843C11.6962 90.2996 11.6531 88.8149 11.6066 87.3304C11.5656 86.0239 11.5208 84.7181 11.4727 83.4121Z" fill="black"/>
<path d="M11.8342 94.9739C11.3135 94.9927 10.7919 95.0155 10.2803 94.991C10.35 96.3615 10.4202 97.7316 10.4898 99.1019C10.5021 100.345 10.5105 101.588 10.5154 102.831C11.0251 102.776 11.5379 102.747 12.0517 102.727C12.0297 101.866 12.0085 101.005 11.9833 100.144C11.9331 98.4204 11.8838 96.6971 11.8342 94.9739Z" fill="black"/>
<path d="M12.8646 112.449C12.4223 111.661 12.3919 110.692 12.3419 109.81C12.2772 108.669 12.2098 107.526 12.1641 106.384C12.1573 106.217 12.1525 106.05 12.1464 105.883C11.5986 105.904 11.0537 105.944 10.5165 106.028C10.5131 106.861 10.5071 107.693 10.497 108.525C10.4739 110.42 10.2666 112.568 11.468 114.183C12.4447 115.495 14.0635 116.054 15.6148 116.326C15.8561 116.368 16.0989 116.405 16.3425 116.438C16.3856 115.678 16.4567 114.921 16.5045 114.161C15.1368 114.031 13.5831 113.73 12.8646 112.449Z" fill="black"/>
<path d="M22.964 114.582C21.8686 114.513 20.7717 114.452 19.6754 114.386C19.6227 115.152 19.5521 115.918 19.5156 116.685C20.2581 116.718 20.9996 116.744 21.7333 116.788C24.0765 116.928 26.4196 117.067 28.763 117.207C30.8536 117.332 32.9442 117.459 35.0348 117.585C35.1394 116.847 35.1684 116.101 35.1749 115.35C31.1045 115.096 27.0342 114.84 22.964 114.582Z" fill="black"/>
<path d="M38.3562 115.549C38.3445 116.294 38.313 117.039 38.2251 117.777C42.7883 118.052 47.3517 118.325 51.9148 118.601C52.0366 117.872 52.1609 117.142 52.3233 116.422C47.6675 116.132 43.0119 115.84 38.3562 115.549Z" fill="black"/>
<path d="M61.8096 117.011C59.7245 116.883 57.6395 116.752 55.5545 116.623C55.3646 117.337 55.2241 118.064 55.0981 118.794C55.5617 118.822 56.0253 118.85 56.4888 118.878C58.7667 119.015 61.0442 119.158 63.322 119.296C63.428 119.302 63.5344 119.308 63.6407 119.314C63.6758 118.592 63.7374 117.873 63.8158 117.155C63.1268 117.106 62.4522 117.05 61.8096 117.011Z" fill="black"/>
<path d="M73.9832 110.583C73.7761 112.791 73.1898 114.94 71.2781 116.099C70.0049 116.872 68.5197 117.16 66.9918 117.232C66.9145 117.945 66.8563 118.66 66.8232 119.376C67.3214 119.359 67.8184 119.324 68.3126 119.264C71.7195 118.85 74.6302 117.023 75.5757 113.579C75.8217 112.683 75.9555 111.772 76.0385 110.854C75.3414 110.812 74.6537 110.731 73.9832 110.583Z" fill="black"/>
<path d="M87.5251 92.5345C87.5526 90.5271 87.6025 88.5186 87.5991 86.5111C87.5956 84.5316 87.7132 82.4833 87.5129 80.5139C87.4908 80.2971 87.3871 80.1413 87.2454 80.0419C86.9671 79.5615 86.3352 79.2839 85.8073 79.562C85.9593 79.5277 85.9934 79.5217 85.9097 79.544C85.8746 79.5538 85.8394 79.5635 85.8042 79.5732C85.9729 76.1713 86.1342 72.7678 86.1831 69.3681C86.2349 65.7697 85.5838 62.0841 82.7413 59.9243C82.6514 59.7146 82.5162 59.5016 82.3104 59.2579C81.7659 58.6127 81.06 58.0985 80.324 57.6946C78.3553 56.6149 76.066 56.3889 73.8631 56.2805C71.2601 56.1523 68.655 56.0445 66.0503 55.9564C64.7767 55.9133 63.5034 55.8702 62.2299 55.8271C61.3001 55.7957 60.3339 55.7097 59.387 55.739C57.3589 49.9896 51.461 45.6867 45.3418 45.6936C41.9734 45.6973 38.7116 46.8945 36.0891 48.9992C34.7658 50.0612 33.5918 51.3527 32.6907 52.7912C32.3447 53.3436 31.8802 54.0483 31.5581 54.7808C25.7999 54.6334 19.9307 54.4298 14.2231 55.353C11.7743 55.7488 9.23342 56.3223 7.09548 57.6314C6.53815 57.9727 5.95612 58.3971 5.42379 58.8874C4.5506 59.4511 3.74858 60.1323 3.0492 60.9566C-0.210359 64.7979 0.672934 70.3464 0.918119 74.9735C1.37839 83.6596 1.81955 92.3468 2.26061 101.034C2.29982 104.96 2.31756 108.887 2.26992 112.812C2.2412 115.181 1.98189 117.867 3.48378 119.885C4.70461 121.525 6.72805 122.224 8.66717 122.564C11.1725 123.003 13.781 122.99 16.3155 123.141C19.2444 123.316 22.1735 123.49 25.1025 123.665C36.6555 124.353 48.2075 125.057 59.76 125.754C62.6073 125.925 65.4543 126.103 68.3015 126.276C70.3727 126.402 72.4737 126.488 74.5394 126.236C78.7981 125.718 82.4364 123.434 83.6181 119.13C84.2377 116.874 84.2896 114.54 84.3957 112.217L84.7955 103.467C84.8245 102.831 84.8513 102.196 84.8786 101.56C84.9288 101.547 84.9794 101.531 85.031 101.51C88.4482 100.12 87.4851 95.4562 87.5251 92.5345ZM64.9534 57.1855C67.2615 57.2753 69.5697 57.3468 71.8786 57.4144C74.0089 57.4766 76.2815 57.4028 78.3299 58.0786C78.4785 58.1275 78.6249 58.1823 78.7702 58.2398C77.5009 57.9779 76.1889 57.8812 74.9108 57.8255C72.1627 57.7059 69.4106 57.6479 66.6612 57.5668C64.3915 57.4998 62.1216 57.4378 59.8518 57.3754C59.8273 57.2603 59.7976 57.1467 59.77 57.0325C61.4775 57.2144 63.2953 57.1211 64.9534 57.1855ZM32.9712 55.725C33.2963 54.9896 33.6881 54.2944 34.1466 53.6339C34.97 52.4475 35.9734 51.4113 37.1195 50.5338C39.4276 48.7667 42.3699 47.6184 45.2983 47.634C51.14 47.6652 56.1704 51.8762 57.8801 57.3201C57.3231 57.305 56.766 57.2896 56.209 57.2744C55.0251 52.2401 50.7377 48.2378 45.4778 47.9404C40.1762 47.6408 34.9628 51.1868 33.4729 56.3041C33.4238 56.4727 33.4976 56.6128 33.6105 56.6914C33.2525 56.6832 32.8945 56.6741 32.5364 56.6663C32.7121 56.3844 32.8216 56.0633 32.9712 55.725ZM49.1542 53.7734C48.4707 52.2275 46.7923 51.4284 45.0928 51.2396C45.064 50.7022 45.0132 50.1697 44.9298 49.6462C44.8383 49.0715 43.8804 48.8814 43.7169 49.5155C43.5702 50.0853 43.4607 50.668 43.3762 51.2579C43.1866 51.2833 42.9997 51.3138 42.8205 51.3549C40.4301 51.9035 38.5309 53.6884 37.71 55.9772C37.5921 56.3057 37.6719 56.5894 37.8461 56.7911C36.561 56.7604 35.276 56.7302 33.9909 56.7004C34.0352 56.666 34.073 56.6169 34.0973 56.5478C35.7328 51.9055 40.3621 48.3214 45.4 48.6328C50.1682 48.9276 54.6371 52.6305 55.7729 57.2625C53.6558 57.205 51.5387 57.148 49.4217 57.0887C47.9071 57.0462 46.3924 57.0101 44.8778 56.9707C44.9634 55.7279 45.0747 54.4457 45.1107 53.1696C46.2891 53.3767 47.3544 53.9435 48.5565 54.4045C48.9404 54.5516 49.3199 54.148 49.1542 53.7734ZM43.1804 53.1995C43.099 54.4458 43.0835 55.7012 43.0478 56.9231C41.7455 56.8899 40.4433 56.8533 39.141 56.8217C39.1943 56.7556 39.243 56.6814 39.28 56.5895C39.9563 54.9092 41.3857 53.5787 43.1804 53.1995ZM31.191 56.1088C31.1774 56.2874 31.1832 56.4629 31.2104 56.6339C26.5409 56.5178 21.8502 56.3164 17.1775 56.3592C21.8318 55.9073 26.5206 56.002 31.191 56.1088ZM81.8429 110.464C81.644 114.361 82.1098 119.937 78.2463 122.28C74.8265 124.355 70.1868 123.652 66.411 123.42C55.5927 122.755 44.7753 122.073 33.9576 121.397C28.5896 121.061 23.2217 120.723 17.8539 120.384C15.3099 120.223 12.7599 120.101 10.2191 119.897C8.41552 119.752 6.20562 119.457 5.22949 117.717C4.67657 116.732 4.63854 115.521 4.57609 114.419C4.49521 112.992 4.411 111.563 4.35374 110.136C4.24953 107.538 4.20356 104.935 4.12768 102.336C3.9719 96.9969 3.82426 91.6577 3.65701 86.3191C3.57349 83.6517 3.48398 80.9853 3.3684 78.319C3.35546 78.0195 3.13684 77.8476 2.88234 77.7963C2.77137 75.1178 2.67353 72.4389 2.61853 69.7606C2.57098 67.4479 2.68108 64.9934 3.94425 62.9757C5.08783 61.1491 6.96363 59.8941 8.94324 59.129C11.2902 58.2221 13.9037 58.0925 16.3938 58.0879C19.0031 58.0831 21.6145 58.166 24.2232 58.2172C29.5644 58.3221 34.9053 58.4421 40.2458 58.5772C51.0063 58.8494 61.762 59.2186 72.5168 59.6624C76.469 59.8256 81.7679 59.7224 83.4677 64.1267C84.2352 66.1149 84.1392 68.367 84.0349 70.4564C83.9025 73.1094 83.7551 75.7621 83.612 78.4147C83.5872 78.8732 83.5615 79.3317 83.5359 79.79C83.0857 79.7647 82.6479 79.76 82.2854 79.7286C80.7597 79.5963 79.2278 79.5153 77.7002 79.4087C77.6151 79.4027 77.5294 79.3954 77.4442 79.3891C77.5235 77.6282 77.5904 75.8674 77.6204 74.1075C77.059 74.0902 76.4984 74.0621 75.9381 74.0155C75.9293 74.2253 75.9192 74.4338 75.9089 74.6401C75.8322 76.1755 75.7492 77.7106 75.6658 79.2456C73.5651 79.0637 71.4439 78.8594 69.3472 78.8294C68.9338 78.2959 68.0474 78.073 67.5172 78.7733C65.9681 80.82 64.3771 82.8419 62.8846 84.9302C62.1376 85.9756 61.396 87.0218 60.6311 88.0543C60.0735 88.807 59.2711 89.5095 59.4516 90.4996C59.4634 90.5636 59.4913 90.6151 59.526 90.6603C59.509 90.9271 59.5931 91.2087 59.8199 91.4717C61.021 92.8645 62.2222 94.2574 63.4233 95.6502C64.3218 96.6921 65.2109 97.9348 66.3931 98.6847C66.3747 98.803 66.3702 98.9209 66.3882 99.0563C66.4569 99.5722 66.95 100.076 67.4845 100.104C69.8183 100.227 72.153 100.33 74.4876 100.436C74.3739 102.506 74.261 104.576 74.1552 106.646C74.1442 106.864 74.1357 107.088 74.1285 107.318C74.801 107.545 75.4967 107.641 76.2143 107.681L76.5174 101.048C76.5252 100.875 76.5324 100.703 76.5396 100.53C76.601 100.533 76.6625 100.535 76.7238 100.538C78.1813 100.607 79.6375 100.711 81.0938 100.802C81.4277 100.823 81.7723 100.852 82.1201 100.878C82.138 100.935 82.1561 100.993 82.1803 101.05C82.2211 101.146 82.272 101.25 82.3306 101.342C82.1631 104.382 81.9982 107.423 81.8429 110.464ZM85.9273 95.4912C85.8945 96.8959 85.7458 98.5067 84.4553 99.2706C84.2728 98.747 83.6811 98.3467 83.117 98.6532C82.9266 98.7568 82.7607 98.8809 82.6168 99.022C82.1673 98.988 81.7227 98.9648 81.3043 98.9291C79.7712 98.7979 78.2365 98.6804 76.706 98.5219C73.726 98.2132 70.7465 97.9012 67.7641 97.6165C67.7026 97.6106 67.6395 97.6105 67.5757 97.6147C67.0457 96.3468 66.0225 95.2696 65.1777 94.2139L61.7314 89.9068C61.655 89.8113 61.5724 89.7346 61.4864 89.6711C61.6528 89.4529 61.8124 89.2307 61.9763 89.0317C62.7954 88.0372 63.6335 87.062 64.4692 86.0816C65.8444 84.4688 67.1602 82.8029 68.4839 81.146C71.5153 81.5032 74.6538 81.4636 77.6973 81.598C79.229 81.6657 80.7635 81.7661 82.2963 81.7953C83.2405 81.8132 84.4688 82.0369 85.3629 81.6454C85.4833 81.6802 85.6062 81.7058 85.732 81.7106C85.8043 81.7135 85.8772 81.7117 85.9502 81.7083C85.7452 84.6678 85.9338 87.7232 85.9547 90.6691C85.9661 92.2776 85.965 93.883 85.9273 95.4912Z" fill="black"/>
<path d="M76.9533 87.5312C76.2147 86.1165 74.8285 85.1402 73.2984 84.7573C72.262 84.4981 70.7797 84.4184 69.7988 85.0274C68.7994 85.3808 67.8994 86.3267 67.3789 87.1219C66.516 88.4401 66.1735 90.0886 66.6226 91.6138C67.5149 94.6439 71.1314 96.4476 74.0696 95.2335C76.9257 94.0533 78.3971 90.2964 76.9533 87.5312ZM73.4193 93.4306C71.4042 94.3894 68.7106 93.0393 68.0833 90.952C67.744 89.8235 67.9709 88.5948 68.577 87.5966C68.789 87.2475 69.0393 86.9774 69.3103 86.7429C69.396 86.7969 69.4989 86.8306 69.6209 86.8326C70.5785 86.8484 71.4128 86.4173 72.3848 86.5434C73.3878 86.6736 74.3933 87.2006 74.9874 88.0344C76.2498 89.8061 75.3217 92.5254 73.4193 93.4306Z" fill="black"/>
<path d="M25.3357 75.7171C24.5277 75.8828 23.8291 76.5183 23.199 77.0304C22.4866 77.6095 21.7742 78.1886 21.0618 78.7678C20.3437 79.3515 21.2159 80.3706 21.9595 79.8644L24.2451 78.3082C24.9325 77.8402 25.6744 77.3765 26.0754 76.6355C26.3221 76.1796 25.8014 75.6216 25.3357 75.7171Z" fill="black"/>
<path d="M27.7453 82.2371C27.1829 81.0821 25.5767 81.1617 24.7502 81.9654C24.4132 82.2931 24.3116 82.8057 24.6279 83.1917C24.9208 83.5493 25.4965 83.6224 25.8542 83.314C26.0183 83.1722 26.1252 83.1438 26.3912 83.1305C26.5391 83.1232 26.8385 83.1541 27.0677 83.1699C27.5541 83.2031 27.9756 82.7101 27.7453 82.2371Z" fill="black"/>
<path d="M30.3488 88.4626C29.4583 88.1277 28.4262 88.8803 27.6435 89.2712C26.7929 89.6958 27.3688 90.9604 28.2529 90.614C29.0613 90.2973 30.3073 90.0376 30.6535 89.157C30.7585 88.8899 30.6198 88.5645 30.3488 88.4626Z" fill="black"/>
<path d="M92.0604 26.0752C89.9937 23.9953 87.2284 22.6855 84.3231 22.331C81.9883 22.0461 78.844 22.5839 76.7936 24.0523C72.662 26.1021 70.2925 30.8215 70.5981 35.4843C70.954 40.9126 74.5341 45.5624 79.9092 46.7707C85.0458 47.9253 90.8116 45.8573 93.5195 41.2265C96.2249 36.5999 95.9458 29.9856 92.0604 26.0752ZM92.5356 38.3926C91.0147 42.792 86.6807 45.3805 82.0947 45.1412C77.4322 44.8978 73.5668 41.7594 72.4305 37.214C71.8197 34.7707 72.0314 32.1138 73.1093 29.8306C74.0793 27.776 75.7367 26.2144 77.643 25.0441C78.3145 24.7588 78.9875 24.4849 79.7148 24.3394C80.8447 24.1133 81.9623 24.163 83.105 24.2337C85.2492 24.3661 87.3769 25.0079 89.1184 26.2958C92.783 29.0056 93.9907 34.1839 92.5356 38.3926Z" fill="black"/>
<path d="M88.3452 35.3152C87.5301 33.7669 86.0985 33.51 84.6203 33.3065C84.66 32.5198 84.6965 31.7329 84.7313 30.9459C85.2001 31.1211 85.6724 31.2811 86.1673 31.2991C86.4967 31.311 86.8743 30.9599 86.6665 30.6119C86.2631 29.9367 85.6071 29.3941 84.8476 29.0302C84.9087 28.2637 84.9171 27.4999 84.4497 26.8706C84.2934 26.6601 83.9156 26.6095 83.7221 26.7981C83.2204 27.2876 83.0845 27.8916 83.0141 28.5383C82.2986 28.4842 81.5882 28.5876 80.9762 28.8863C79.1486 29.7786 78.4609 32.0347 79.8724 33.6174C80.4955 34.3162 81.4131 34.7308 82.3135 34.9283C82.2438 35.6143 82.1756 36.3005 82.1094 36.9869C81.1605 36.7732 80.2149 36.5463 79.266 36.3325C78.7742 36.2218 78.07 36.638 77.9389 37.1344C77.78 37.736 77.8507 37.4122 78.6447 38.1727C79.4505 38.9444 79.2757 38.8905 80.0902 38.9857C80.6921 39.0561 81.2928 39.1448 81.8931 39.2288C81.8191 39.9964 81.7442 40.764 81.6657 41.531C81.6231 41.9474 81.7993 42.4214 82.1619 42.6557C82.611 42.9459 82.8813 42.9986 83.3849 42.7801C83.7579 42.6182 84.0695 42.2172 84.0941 41.804C84.1385 41.0572 84.1863 40.3106 84.235 39.564C84.7974 39.6177 85.3599 39.6284 85.9152 39.5325C87.891 39.1912 89.3588 37.2407 88.3452 35.3152ZM81.1214 31.5973C81.1578 31.0324 81.827 30.663 82.2961 30.5392C82.4704 30.4931 82.6416 30.4707 82.8101 30.4658C82.7139 31.2819 82.6196 32.0981 82.5283 32.9145C82.5213 32.9124 82.5142 32.9105 82.5073 32.9083C81.9652 32.7361 81.0765 32.295 81.1214 31.5973ZM85.5324 37.5277C85.147 37.5717 84.7578 37.5282 84.3726 37.4602C84.4227 36.6945 84.4708 35.9286 84.5167 35.1627C85.216 35.251 85.879 35.4281 86.3552 35.9021C87.1622 36.7056 86.4557 37.4223 85.5324 37.5277Z" fill="black"/>
<path d="M75.3596 31.9658C75.2245 31.9042 75.0747 31.8718 74.9294 31.8659C74.6366 31.8536 74.4053 31.9245 74.152 32.0583C73.7444 32.2737 73.5241 32.7044 73.6596 33.1573C73.7943 33.6082 74.2152 33.8484 74.6758 33.8032C74.9567 33.7755 75.1895 33.7102 75.4239 33.5413C75.5459 33.4532 75.6583 33.3396 75.7394 33.2086C76.0974 32.796 75.8951 32.1036 75.3596 31.9658Z" fill="black"/>
<path d="M76.3307 36.4291C76.0387 36.0872 75.5655 36.0577 75.1479 36.1155C74.8266 36.16 74.5973 36.4585 74.6047 36.7731C74.6124 37.0984 74.853 37.3608 75.177 37.4056C75.365 37.4316 75.5591 37.4259 75.7481 37.4051C75.9842 37.3791 76.1959 37.2419 76.3489 37.064C76.495 36.8944 76.4711 36.5935 76.3307 36.4291Z" fill="black"/>
<path d="M32.9922 18.5513C31.0907 17.697 28.9074 17.5254 26.864 18.0187C25.2218 18.4151 23.2359 19.5566 22.2148 21.038C19.9346 23.4235 19.495 27.1283 20.8433 30.1263C22.413 33.6165 25.9633 35.7866 29.8794 35.238C33.6216 34.7138 36.998 31.9074 37.6872 28.1764C38.3757 24.4486 36.567 20.1572 32.9922 18.5513ZM36.3302 26.5539C36.3838 29.8353 34.0991 32.6268 30.952 33.6166C27.7523 34.6231 24.3801 33.521 22.5011 30.8082C21.4912 29.3501 20.9828 27.5452 21.1492 25.77C21.2991 24.1725 22.0327 22.728 23.0299 21.4793C23.4122 21.1231 23.7984 20.7741 24.2525 20.4961C24.958 20.0644 25.723 19.8175 26.5098 19.5781C27.9863 19.1289 29.5765 19.0195 31.065 19.4329C34.1968 20.3025 36.2789 23.4148 36.3302 26.5539Z" fill="black"/>
<path d="M32.7544 25.5738C31.8261 24.7568 30.7991 24.9457 29.7536 25.1813C29.5877 24.6527 29.4194 24.1248 29.2501 23.5972C29.6087 23.5953 29.9659 23.5825 30.3037 23.4707C30.5285 23.3961 30.6968 23.0699 30.4715 22.8927C30.0344 22.5484 29.4596 22.3546 28.859 22.305C28.7124 21.7842 28.5309 21.2784 28.0619 20.9805C27.905 20.8808 27.6382 20.942 27.5541 21.1148C27.3362 21.5632 27.3926 21.9954 27.5036 22.4394C27.0085 22.5828 26.5554 22.8288 26.2165 23.179C25.2043 24.2245 25.2939 25.8842 26.6323 26.5747C27.2231 26.8795 27.9427 26.9231 28.5975 26.8281C28.7185 27.2979 28.8408 27.7674 28.9643 28.2367C28.273 28.3331 27.5805 28.4202 26.8891 28.5167C26.5308 28.5668 26.1585 29.0173 26.1918 29.3776C26.2322 29.8138 26.2004 29.5828 26.9216 29.8855C27.6533 30.1926 27.5224 30.2009 28.0942 30.0597C28.5169 29.9557 28.943 29.8636 29.368 29.769C29.5063 30.2936 29.6438 30.8184 29.779 31.3439C29.8523 31.629 30.087 31.8975 30.3887 31.9613C30.7622 32.0402 30.9572 32.0073 31.2428 31.7372C31.4545 31.5371 31.566 31.1948 31.4812 30.9162C31.3282 30.4125 31.1774 29.9084 31.0273 29.4039C31.4192 29.2986 31.8008 29.1648 32.1512 28.9626C33.3982 28.2431 33.9089 26.5897 32.7544 25.5738ZM26.9784 24.9301C26.8645 24.5485 27.2248 24.1375 27.5104 23.9384C27.6165 23.8644 27.7262 23.8067 27.8385 23.7614C27.9736 24.3235 28.1102 24.8854 28.2486 25.4466C28.2434 25.4468 28.2382 25.4473 28.233 25.4477C27.8259 25.4697 27.1192 25.4013 26.9784 24.9301ZM31.4022 27.7365C31.1533 27.862 30.8807 27.9308 30.6046 27.9823C30.4507 27.4648 30.2954 26.9478 30.1387 26.4312C30.6313 26.3145 31.1213 26.2654 31.5581 26.4587C32.2984 26.7866 31.9982 27.4359 31.4022 27.7365Z" fill="black"/>
<path d="M23.1883 26.6148C23.0823 26.608 22.9735 26.6241 22.874 26.6565C22.6739 26.7217 22.5355 26.8264 22.3978 26.978C22.176 27.2219 22.133 27.5611 22.3353 27.8258C22.5366 28.0894 22.8789 28.1425 23.1779 27.9974C23.3604 27.9088 23.5011 27.8076 23.6176 27.6374C23.6783 27.5488 23.7261 27.4458 23.7486 27.3391C23.8887 26.9775 23.5827 26.5715 23.1883 26.6148Z" fill="black"/>
<path d="M24.9359 29.3149C24.6555 29.1624 24.3297 29.2614 24.0624 29.4041C23.857 29.5138 23.7757 29.768 23.8577 29.9736C23.9426 30.1862 24.169 30.2989 24.3982 30.2474C24.5311 30.2175 24.6605 30.1651 24.7827 30.1041C24.9354 30.0279 25.0443 29.8844 25.1039 29.7289C25.1607 29.5804 25.0707 29.3881 24.9359 29.3149Z" fill="black"/>
<path d="M22.191 34.5822C21.936 34.1027 21.6735 34.1231 21.1797 33.9789C20.477 33.7739 19.8632 33.3711 19.3702 32.8324C18.4069 31.7797 17.9452 30.4282 18.238 29.0201C18.3285 28.5845 17.622 28.4146 17.482 28.8335C16.5069 31.7515 18.4617 34.8191 21.4375 35.3886C21.6792 35.4349 21.9048 35.2918 22.0522 35.1175L22.1482 35.004C22.2388 34.897 22.2565 34.7053 22.191 34.5822Z" fill="black"/>
<path d="M17.4847 35.4948C17.277 34.9041 16.5403 34.6369 16.193 34.1234C15.7756 33.5064 15.6598 32.7591 15.9482 32.0671C16.142 31.6019 15.4466 31.2056 15.1649 31.639C14.5717 32.5518 14.5062 33.6855 14.9699 34.6725C15.3287 35.4362 16.4682 36.6967 17.3785 35.9495C17.519 35.8343 17.5418 35.6571 17.4847 35.4948Z" fill="black"/>
<path d="M97.9903 35.4646C97.8683 34.8883 97.004 35.0187 97.0824 35.6084C97.2291 36.7112 97.0986 37.7991 96.6796 38.8338C96.3638 39.6141 95.5436 40.2794 95.4811 41.1178C95.464 41.3464 95.6499 41.5244 95.8774 41.4966C96.9091 41.371 97.4836 39.9583 97.7938 39.0859C98.2113 37.9117 98.2468 36.6767 97.9903 35.4646Z" fill="black"/>
<path d="M100.23 38.9933C100.07 38.5123 99.2255 38.6408 99.227 39.1521C99.2286 39.6485 99.1292 40.1965 98.8559 40.618C98.5952 41.0202 98.1827 41.3449 97.9809 41.7777C97.9094 41.9309 98.0067 42.147 98.166 42.1993C98.8876 42.4361 99.6179 41.8279 99.9655 41.2465C100.397 40.5244 100.495 39.7893 100.23 38.9933Z" fill="black"/>
<path d="M88.7048 27.1399C84.8559 23.7796 78.6156 24.1308 75.1974 27.9392C75.1127 28.0336 75.1145 28.1444 75.1626 28.2365C73.3452 30.0497 72.2475 32.6096 72.373 35.1976C72.5867 39.6037 76.0819 43.7608 80.4433 44.5714C84.7127 45.3649 89.1422 42.893 91.0403 39.0304C93.0498 34.9414 92.1674 30.163 88.7048 27.1399ZM82.7678 43.8973C78.5454 44.1847 74.5943 41.1284 73.4603 37.1135C72.3221 33.0833 74.3348 28.7611 77.9107 26.844C80.6629 25.4919 83.9777 25.3559 86.7691 26.822C90.325 28.6897 91.8705 33.0658 91.3677 36.8858C90.8269 40.9938 86.6561 43.6327 82.7678 43.8973Z" fill="black"/>
<path d="M64.0086 1.76867C57.4464 -1.43196 49.5659 2.0968 46.6234 8.5515C46.4921 8.83943 46.5731 9.08451 46.7457 9.24559C46.1909 10.6199 45.8903 12.1116 45.9058 13.657C45.9686 19.9065 50.5067 25.3669 56.7578 26.2067C63.1999 27.0721 69.0723 23.0718 70.9151 16.8935C72.7384 10.7809 69.6723 4.5311 64.0086 1.76867ZM69.3279 14.5331C68.9442 20.1415 64.5679 24.448 58.923 24.6818C53.3526 24.9126 48.6079 20.9978 47.6359 15.534C46.7247 10.4124 49.6825 5.57928 54.1342 3.33635C56.4278 2.46668 58.9968 2.32198 61.4258 3.10342C66.3264 4.68001 69.6812 9.36901 69.3279 14.5331Z" fill="black"/>
<path d="M67.6163 10.6845C67.0042 8.37362 65.9035 6.4692 63.9044 5.08622C61.7987 3.62943 59.198 3.00034 56.6642 3.41326C55.3709 3.62413 54.1221 4.10421 53.0055 4.78584C51.8943 5.46424 51.0151 6.62145 50.2381 7.65473C50.1876 7.72188 50.1754 7.79109 50.1883 7.85374C48.6609 10.1714 48.2896 13.4494 48.963 15.9296C50.0425 19.9053 53.5702 22.7809 57.6698 23.1474C61.9172 23.527 65.7858 20.9326 67.2235 16.9539C68.0044 14.7928 68.2079 12.9177 67.6163 10.6845ZM67.1533 16.0188C65.9807 19.4826 62.3521 22.2589 58.6952 22.3086C55.069 22.3578 51.2146 20.1485 49.8834 16.6843C49.1566 14.7931 49.2131 12.5667 49.8321 10.6535C50.4319 8.79988 51.5227 7.44033 52.7647 6.02294C55.4705 4.2448 59.1668 3.91412 62.1005 5.2369C66.1168 7.0478 68.6076 11.7226 67.1533 16.0188Z" fill="black"/>
<path d="M63.5055 9.25769C62.1887 8.44282 60.6595 8.02186 59.1033 7.91284C59.0994 7.08848 59.0935 6.26508 59.0855 5.44453C59.0791 4.79671 58.144 4.65035 58.0577 5.32895C57.9492 6.18136 57.843 7.0371 57.7388 7.89412C57.058 7.92373 56.3824 8.00852 55.7274 8.14323C53.8809 8.52271 51.7266 9.82619 52.4792 12.0466C53.1764 14.1041 55.1449 14.4851 57.0391 14.6271C57 15.1108 56.9633 15.5945 56.9308 16.0781C56.1637 15.8483 55.4179 15.5406 54.65 15.198C53.1602 14.5333 52.2497 16.8924 53.7315 17.5531C54.5875 17.9347 55.6745 18.2738 56.8026 18.4589C56.7919 18.7196 56.7779 18.9806 56.7696 19.2409C56.7297 20.506 58.6394 20.755 58.749 19.4634C58.7735 19.1754 58.792 18.8861 58.8133 18.5974C59.7523 18.5622 60.6428 18.3696 61.3689 17.9416C63.2514 16.8319 62.5633 14.3173 60.816 13.4828C60.2574 13.216 59.6682 13.0991 59.0683 13.0431C59.0915 11.953 59.103 10.8627 59.1055 9.77326C60.4713 9.79669 61.8221 9.98029 63.184 10.0863C63.6123 10.1196 63.9167 9.51218 63.5055 9.25769ZM60.474 15.3794C61.3079 16.3251 59.9831 16.5135 59.287 16.4862C59.1717 16.4816 59.0603 16.4695 58.9472 16.4606C58.9759 15.895 59 15.3289 59.0199 14.762C59.5651 14.827 60.1123 14.9695 60.474 15.3794ZM57.0405 12.9637C56.261 12.9284 55.4391 12.8782 54.7992 12.3795C54.1729 11.8915 53.843 11.0875 54.5426 10.5129C55.2669 9.91786 56.4665 9.81246 57.5163 9.78756C57.396 10.8465 57.2845 11.9074 57.1844 12.9692C57.1364 12.9674 57.0883 12.9658 57.0405 12.9637Z" fill="black"/>
<path d="M45.7777 3.05956C44.5665 3.85207 43.6797 5.05663 43.202 6.42117C42.8552 7.412 42.3857 9.08027 43.3336 9.84797C43.4797 9.96611 43.7083 9.91493 43.815 9.7717C44.3817 9.01174 44.1156 7.78621 44.3955 6.88664C44.7717 5.67777 45.5139 4.71586 46.4692 3.90413C47.0157 3.43984 46.3546 2.68203 45.7777 3.05956Z" fill="black"/>
<path d="M41.8433 2.99385C41.0362 3.06669 40.4645 3.63558 40.1436 4.36888C39.8297 5.08601 39.7341 5.98979 40.453 6.46154C40.6351 6.58104 40.9134 6.56722 41.0415 6.3684C41.1773 6.15753 41.3 6.00891 41.3455 5.75078C41.3917 5.48883 41.3982 5.22816 41.4826 4.97258C41.6379 4.50163 41.9705 4.05488 42.2499 3.65755C42.4696 3.3453 42.201 2.9616 41.8433 2.99385Z" fill="black"/>
<path d="M78.2788 1.03752C77.8029 0.23344 76.8167 -0.0812511 75.943 0.205893C75.0826 0.488919 74.5793 1.53779 74.5384 2.39432C74.5249 2.6799 74.9207 2.72009 74.9762 2.44353C75.1912 1.37153 76.4296 0.660283 77.3835 1.36407C77.8415 1.7019 77.9937 2.26001 77.5298 2.67794C77.1604 3.01047 76.7952 2.90234 76.3513 2.87479C76.0089 2.85352 75.6643 3.3035 75.9612 3.59162C76.58 4.19198 77.5268 3.927 78.0785 3.3481C78.6816 2.71509 78.7182 1.78004 78.2788 1.03752Z" fill="black"/>
<path d="M80.0157 10.6603C79.0879 9.67704 77.772 9.35069 76.504 9.82567C75.9059 10.0498 76.2 11.0779 76.8313 10.9162C77.356 10.7819 77.9233 10.806 78.4204 11.0087C78.2697 11.1452 78.1538 11.3141 78.1024 11.5453C78.0658 11.7104 78.198 11.8722 78.3378 11.935C78.8449 12.162 79.3437 11.8119 79.7973 11.596C80.1291 11.438 80.2915 10.9527 80.0157 10.6603Z" fill="black"/>
<path d="M24.1012 13.7335C24.0158 12.8175 23.7165 11.8637 22.9349 11.3022C22.3031 10.8481 21.4299 10.8394 20.7584 11.206C20.1555 11.5352 19.8714 12.2036 19.9953 12.8702C20.1064 13.4673 20.6492 14.1754 21.3183 13.8881C21.5172 13.8027 21.5887 13.5209 21.4425 13.3558C21.2509 13.1393 20.9776 13.0295 20.9096 12.7254C20.8084 12.273 21.1261 11.9591 21.5673 11.9616C22.5937 11.9675 23.1239 12.9926 23.3448 13.8532C23.4664 14.3272 24.1476 14.2302 24.1012 13.7335Z" fill="black"/>
<path d="M99.3267 59.734C97.0545 57.9537 93.8415 58.0819 91.8304 60.1384C91.7745 60.1954 91.7628 60.2786 91.7808 60.3517C91.726 60.3231 91.6589 60.3167 91.5924 60.3444C89.2126 61.3395 88.7529 64.409 89.5245 66.611C90.4126 69.1455 92.858 70.6599 95.5013 70.6012C98.13 70.5427 100.446 68.9168 101.217 66.3734C101.929 64.0236 101.304 61.2832 99.3267 59.734ZM98.4939 67.8855C96.6566 69.3843 93.5837 69.1212 92.0756 67.2695C90.5294 65.3709 91.135 62.7074 91.8886 60.6249C91.9045 60.5808 91.9055 60.5375 91.8958 60.4981C91.9372 60.5134 91.9865 60.5102 92.0409 60.4772C94.1053 59.2153 97.3443 59.3469 98.9941 61.2521C100.602 63.1096 100.42 66.3145 98.4939 67.8855Z" fill="black"/>
<path d="M97.9175 63.5912C97.7137 63.0052 97.4018 62.4257 96.961 61.9879C97.0475 61.8468 97.1349 61.7061 97.2194 61.5642C97.576 60.9657 96.7 60.3191 96.3363 60.9226C96.242 61.0796 96.1503 61.2384 96.0579 61.3968C95.9721 61.3643 95.8843 61.3347 95.7924 61.3118C95.0019 61.1143 94.0755 61.382 93.6017 62.0698C93.1003 62.7975 93.3523 63.6589 93.9517 64.2356C94.0669 64.3466 94.2016 64.4451 94.342 64.5403C94.3123 64.5965 94.2825 64.6527 94.253 64.7091C94.0149 63.8614 92.5822 64.3795 93.024 65.1807C93.1837 65.4707 93.3457 65.7798 93.533 66.0634C93.4107 66.2904 93.2876 66.5168 93.1631 66.7417C92.9948 67.0456 93.4135 67.3755 93.6122 67.0681C93.7196 66.902 93.829 66.7365 93.9379 66.5711C94.2455 66.8769 94.6261 67.0836 95.1385 67.0813C96.012 67.0774 96.6482 66.3703 96.4532 65.499C96.3506 65.0415 96.0587 64.6535 95.7218 64.3387C95.6681 64.2886 95.6053 64.2387 95.5374 64.1886C95.8306 63.7517 96.1212 63.3135 96.4053 62.8724C96.7887 63.1988 97.13 63.6074 97.487 63.9422C97.7189 64.1596 97.9997 63.8276 97.9175 63.5912ZM95.344 65.3623C95.5551 65.6846 95.5307 66.3404 94.9549 66.0944C94.7624 66.0121 94.6285 65.8607 94.5304 65.6812C94.6846 65.4519 94.8396 65.2227 94.9947 64.9934C95.1298 65.1029 95.2521 65.2218 95.344 65.3623ZM94.4493 63.0377C94.4159 62.4482 94.9854 62.3188 95.4873 62.4009C95.2582 62.8163 95.0335 63.2347 94.8105 63.6546C94.6123 63.4774 94.4628 63.2779 94.4493 63.0377Z" fill="black"/>
<path d="M104.081 55.0765C104.053 55.0335 104.001 54.9906 103.959 54.9608C103.716 54.7902 103.386 54.7999 103.154 54.984C102.795 55.2683 102.484 55.6249 102.16 55.9484C101.828 56.2803 101.479 56.5906 101.231 56.9914C100.953 57.4421 101.406 58.2442 101.969 57.8953C102.398 57.629 102.72 57.3024 103.076 56.9461C103.422 56.5997 103.8 56.2658 104.104 55.8815C104.299 55.6359 104.241 55.3154 104.081 55.0765Z" fill="black"/>
<path d="M106.161 61.2746C105.976 61.1719 105.8 61.1055 105.598 61.0458C105.31 60.9612 105.077 60.9947 104.796 61.0673C104.506 61.1421 104.232 61.3548 104.211 61.6794C104.191 61.963 104.348 62.3304 104.651 62.4087C104.935 62.4819 105.209 62.5811 105.503 62.4932C105.688 62.438 105.888 62.3954 106.057 62.3011C106.243 62.1973 106.379 62.0444 106.403 61.8242C106.425 61.6327 106.341 61.3742 106.161 61.2746Z" fill="black"/>
<path d="M31.7464 41.8498C31.2662 41.0507 30.8129 40.2419 30.3677 39.4227C29.9575 38.668 29.6131 37.8444 29.0835 37.1661C28.7316 36.7155 27.9194 37.1873 28.2125 37.7073C29.0796 39.2458 30.4692 40.5633 31.5207 41.9901C31.609 42.11 31.8256 41.9814 31.7464 41.8498Z" fill="black"/>
<path d="M36.1831 38.7863C36.0461 38.393 35.9023 38.0067 35.8078 37.6014C35.7026 37.1504 35.545 36.7922 35.0867 36.6149C34.8225 36.5126 34.4336 36.6403 34.3515 36.9374C34.2139 37.436 34.3642 37.8002 34.7051 38.1754C34.9952 38.4946 35.2169 38.8797 35.4572 39.2373C35.7475 39.6691 36.3326 39.2153 36.1831 38.7863Z" fill="black"/>
<path d="M52.9941 26.297C52.8979 26.0629 52.5605 26.038 52.4179 26.2385C51.649 27.3187 51.7593 28.9168 51.6468 30.1922C51.5056 31.7952 51.4708 33.4009 51.4172 35.0088C51.4048 35.3799 51.9165 35.4361 51.9882 35.073C52.2996 33.4942 52.6293 31.9217 52.8544 30.3279C53.0344 29.0534 53.5004 27.5282 52.9941 26.297Z" fill="black"/>
<path d="M59.71 31.3061C59.2969 31.0186 58.7378 31.5792 58.5012 31.8653C58.1209 32.325 57.8469 32.9066 57.541 33.4193C57.1489 34.0768 58.0388 34.7567 58.5171 34.1283C58.8781 33.654 59.3275 33.1814 59.6057 32.6541C59.7774 32.3287 60.124 31.5942 59.71 31.3061Z" fill="black"/>
<path d="M68.3006 44.788C67.6132 44.8173 67.0457 45.4512 66.5697 45.8904C66.0236 46.3945 65.4772 46.8986 64.9309 47.4026C64.1655 48.1088 65.1837 49.371 65.9621 48.6622C66.5403 48.1355 67.1187 47.6089 67.6969 47.0822C68.2043 46.6203 68.8501 46.1168 68.9394 45.3985C68.9882 45.0067 68.6502 44.7731 68.3006 44.788Z" fill="black"/>
<path d="M70.9735 50.0496C70.758 50.1325 70.5536 50.3238 70.3866 50.4822C70.2285 50.6322 70.0779 50.791 69.9238 50.9452C69.6765 51.1924 69.5718 51.6001 69.8297 51.8884C70.052 52.1369 70.5078 52.2475 70.773 51.9825C70.9362 51.8191 71.1024 51.6582 71.2632 51.4922C71.454 51.295 71.6758 51.0672 71.7751 50.8089C71.9693 50.303 71.4488 49.8666 70.9735 50.0496Z" fill="black"/>
<path d="M122.795 76.6189C121.916 76.9389 121.035 77.2564 120.153 77.5708C119.75 75.6029 119.339 73.6354 118.97 71.6611C120.508 71.3415 122.047 71.0275 123.57 70.6396C124.275 70.4599 124.135 69.4002 123.39 69.5048C121.601 69.7561 119.829 70.1075 118.052 70.4344C117.677 70.5035 117.423 70.8489 117.475 71.2295C117.83 73.8341 118.095 76.4537 118.4 79.0649C118.459 79.5705 119.04 80.0359 119.555 79.9038C120.863 79.5681 122.176 79.247 123.488 78.9272C125.192 78.5121 124.471 76.0094 122.795 76.6189Z" fill="black"/>
<path d="M133.246 72.9435C133.141 71.1134 133.037 69.2832 132.932 67.453C132.895 66.8083 132.149 66.3578 131.559 66.4561C129.621 66.7793 127.686 67.1117 125.755 67.4737C125.127 67.5913 124.73 68.1534 124.803 68.7845C124.995 70.4508 125.187 72.1173 125.379 73.7836C125.543 75.2021 125.524 76.845 126.308 78.0757C126.569 78.4862 127.211 78.3004 127.369 77.9074C127.713 77.0547 127.682 76.0273 127.59 75.0332C128.682 74.9493 129.779 74.7591 130.858 74.5485C130.858 75.649 130.954 76.805 131.77 77.3869C132.059 77.5929 132.513 77.6045 132.787 77.3576C133.916 76.341 133.324 74.3138 133.246 72.9435ZM130.63 69.0365C130.687 70.0622 130.744 71.088 130.801 72.1139C129.669 72.4014 128.506 72.7046 127.409 73.1145C127.323 71.9362 127.236 70.7579 127.15 69.5797C128.311 69.4059 129.471 69.2246 130.63 69.0365Z" fill="black"/>
<path d="M143.057 75.4698C142.952 74.6958 142.811 73.9266 142.687 73.1555C142.61 72.6772 142.562 72.1845 142.451 71.7111C142.717 71.1634 142.342 70.2763 141.521 70.3462C139.978 70.478 138.44 70.6552 136.902 70.8338C136.787 70.269 136.646 69.7083 136.482 69.1555C136.506 69.1518 136.53 69.1489 136.555 69.1435C137.532 68.9319 138.521 68.7489 139.487 68.4951C140.398 68.2558 140.849 68.1832 141.275 67.3359C141.3 67.2873 141.289 67.2022 141.248 67.164C140.565 66.5167 140.134 66.5835 139.197 66.6628C138.203 66.7469 137.21 66.9054 136.22 67.0329C135.679 67.1026 135.409 67.4925 135.362 67.9203C135.071 67.9909 134.818 68.2067 134.808 68.5375C134.777 69.5986 134.836 70.6694 134.979 71.7217C135.093 72.5681 135.998 72.7287 136.566 72.3865C137.956 72.3294 139.345 72.2742 140.733 72.192C140.762 72.6113 140.827 73.0324 140.866 73.4439C140.902 73.8332 140.935 74.2232 140.97 74.613C139.893 74.5937 138.817 74.5745 137.74 74.555C137.307 74.5473 136.829 74.7445 136.681 75.195C136.581 75.501 136.608 75.6838 136.703 75.9833C136.798 76.2845 137.201 76.5695 137.514 76.5725C138.996 76.5871 140.479 76.6018 141.961 76.6166C142.61 76.623 143.152 76.1616 143.057 75.4698Z" fill="black"/>
<path d="M152.92 69.7952C152.688 68.8881 152.439 67.9886 152.181 67.0886C151.939 66.242 151.812 65.3758 151.235 64.6953C150.731 64.0999 149.924 64.4591 149.763 65.1299C149.56 65.9723 149.849 66.8289 150.005 67.6685C150.054 67.929 150.106 68.1884 150.157 68.4483C148.826 68.8664 147.389 69.2236 146.041 69.7211C145.732 68.4673 145.366 67.239 144.836 66.1182C144.58 65.5769 143.605 65.6408 143.596 66.3145C143.576 67.73 143.8 69.1769 144.082 70.6178C143.994 70.6684 143.905 70.7188 143.819 70.7722C143.102 71.2185 143.754 72.1058 144.388 72.1193C144.568 72.9848 144.746 73.8432 144.88 74.6865C145.113 76.1587 147.506 75.7153 147.124 74.3311C146.9 73.5201 146.711 72.6742 146.522 71.8195C147.897 71.4992 149.286 70.9885 150.594 70.5925C150.84 71.9381 150.873 74.1939 152.299 74.6715C152.58 74.7655 152.963 74.7592 153.187 74.531C154.389 73.3094 153.29 71.2428 152.92 69.7952Z" fill="black"/>
<path d="M127.568 96.8911C127.645 96.3885 127.47 95.8518 127.359 95.2363C127.137 94.0161 126.884 92.8042 126.628 91.5908C126.614 91.5216 126.589 91.4638 126.56 91.4123C126.695 90.8902 126.453 90.2612 125.757 90.1742C125.386 90.1277 125.012 90.0833 124.635 90.0455C124.674 90.0293 124.714 90.0144 124.753 89.9978C125.353 90.1775 126.18 89.7755 126.076 88.9521C125.915 87.6704 125.769 86.3841 125.451 85.1326C125.455 84.982 125.416 84.841 125.339 84.7145C125.337 84.7095 125.336 84.7045 125.335 84.6995C125.219 84.3017 124.792 84.0988 124.452 84.1726C123.648 84.0298 122.749 84.5178 121.971 84.7952C120.623 85.2757 119.328 85.7861 118.061 86.4576C117.437 86.7884 117.707 87.7072 118.416 87.639C118.662 87.6153 118.904 87.5858 119.147 87.5539C118.905 88.2667 118.872 89.1056 118.903 89.9482C118.077 90.3014 118.325 91.4348 119.018 91.7953C119.029 91.9901 119.037 92.1794 119.04 92.3613C119.073 94.1215 119.081 95.8912 119.2 97.6477C119.27 98.6799 120.281 98.768 120.959 98.383C121.202 98.7191 121.622 98.9438 122.219 98.8979C123.879 98.7707 125.697 98.3101 127.296 97.8554C127.774 97.7193 127.885 97.1628 127.568 96.8911ZM122.595 86.8727C123.025 86.7668 123.521 86.6921 123.98 86.5585C124.005 87.3008 124.066 88.0427 124.128 88.7828C123.449 88.909 122.772 89.0771 122.103 89.2122C121.684 89.2968 121.264 89.3746 120.845 89.458C120.764 88.7038 120.615 87.9734 120.295 87.373C121.063 87.2334 121.824 87.0621 122.595 86.8727ZM122.158 96.204C121.874 96.2093 121.633 96.2742 121.433 96.3783C121.329 94.9434 121.171 93.5093 121.025 92.0799C121.004 91.8802 120.989 91.6706 120.976 91.4555C121.075 91.4182 121.173 91.3783 121.272 91.3401C122.637 91.7983 124.11 91.9835 125.538 92.1261C125.568 92.1293 125.594 92.1257 125.623 92.1266C125.664 93.1734 125.707 94.2196 125.778 95.2654C125.805 95.6716 125.785 96.1063 125.832 96.5097C124.61 96.3202 123.335 96.1816 122.158 96.204Z" fill="black"/>
<path d="M136.861 95.9085C136.559 92.7969 136.144 89.7005 135.725 86.6034C135.729 86.6002 135.733 86.5975 135.737 86.5941C136.035 86.3338 136.114 85.7273 135.706 85.5031C135.635 85.4641 135.563 85.43 135.491 85.3995C135.271 85.0879 134.786 85.0169 134.475 85.1988C133.728 85.185 132.949 85.3993 132.188 85.5008C131.215 85.6304 130.216 85.7112 129.251 85.9143C128.513 85.3743 126.981 85.7579 127.433 87.2251C127.695 88.0748 127.649 89.131 127.731 90.0139C127.783 90.58 127.837 91.1463 127.89 91.7124C127.743 91.7714 127.598 91.8339 127.457 91.9029C127.022 92.1151 126.982 92.8308 127.486 92.9966C127.663 93.0548 127.844 93.103 128.026 93.1469C128.179 94.7316 128.339 96.2775 128.732 97.8327C128.829 98.2185 129.395 98.2427 129.453 97.8164C129.656 96.3294 129.656 94.8656 129.632 93.38C131.183 93.4794 132.808 93.2927 134.289 93.2444C134.311 93.2437 134.332 93.2365 134.354 93.234C134.387 94.2512 134.426 95.2686 134.479 96.2855C134.56 97.8154 137.012 97.4649 136.861 95.9085ZM133.897 90.7702C132.529 90.9127 130.999 90.9556 129.568 91.2336C129.496 89.9893 129.384 88.6858 129.516 87.4791C130.424 87.4646 131.342 87.3417 132.235 87.2708C132.843 87.2227 133.554 87.2537 134.219 87.1729C134.237 88.377 134.259 89.5808 134.286 90.7844C134.153 90.7623 134.02 90.7574 133.897 90.7702Z" fill="black"/>
<path d="M142.956 94.9158C142.032 95.1144 140.969 95.2402 139.985 95.5027C139.792 93.1025 139.646 90.63 139.235 88.2616C140.536 88.1596 141.993 88.2401 143.168 87.7357C143.71 87.5029 143.639 86.7396 143.134 86.5184C141.829 85.9452 140.135 86.1045 138.731 85.919C138.215 85.8508 137.853 86.0636 137.648 86.3861C137.503 86.4979 137.402 86.6726 137.387 86.9176C137.179 90.2809 137.643 93.8038 137.874 97.1626C137.95 98.267 139.216 98.3102 139.803 97.6502C140.976 97.6412 142.222 97.3542 143.322 97.2231C144.819 97.0445 144.427 94.6001 142.956 94.9158Z" fill="black"/>
<path d="M154.741 94.6628C154.26 93.9269 153.597 93.2791 153.022 92.6137C152.638 92.1702 152.235 91.7248 151.797 91.3244C152.619 89.9241 153.42 88.4665 154.431 87.2374C155.552 85.8748 152.943 84.3072 152.264 86.0536C151.523 87.9604 150.281 89.7398 149.315 91.5424C149.051 92.0353 148.778 92.5282 148.504 93.0229C148.25 90.3926 147.948 87.7584 147.372 85.1982C147.241 84.6164 146.319 84.5656 146.272 85.2229C145.998 89.0946 146.332 93.0404 146.538 96.9165C146.517 96.9685 146.493 97.0199 146.471 97.0721C146.355 97.3588 146.442 97.6087 146.618 97.7713C146.969 98.9212 149.038 98.5313 148.894 97.1155C148.86 96.7825 148.828 96.4488 148.796 96.1145C149.436 95.1654 150.034 94.1807 150.637 93.2125C150.835 93.5039 151.043 93.7879 151.25 94.0641C151.78 94.7688 152.27 95.5525 152.889 96.1792C153.979 97.2843 155.585 95.9532 154.741 94.6628Z" fill="black"/>
<path d="M110.236 68.8456C108.795 68.8292 107.324 70.321 106.168 71.0873C104.564 72.1505 102.997 73.2645 101.421 74.3685C101.053 74.6262 101.447 75.2786 101.842 75.0459C103.403 74.1264 104.974 73.2221 106.511 72.2628C107.331 71.7512 108.15 71.2393 108.97 70.7275C109.639 70.3099 110.205 70.0589 110.526 69.3266C110.611 69.1323 110.461 68.8482 110.236 68.8456Z" fill="black"/>
<path d="M108 81.4612C107.379 81.5181 106.851 81.5281 106.262 81.787C106.007 81.8993 105.742 82.0441 105.519 82.2126C105.274 82.3981 105.191 82.6525 104.991 82.8672C104.704 83.1755 104.994 83.7173 105.378 83.7455C105.647 83.7652 105.87 83.8873 106.153 83.8612C106.468 83.8323 106.802 83.7327 107.096 83.6238C107.678 83.4081 108.067 83.0467 108.545 82.6755C109.116 82.2324 108.648 81.4022 108 81.4612Z" fill="black"/>
<path d="M114.794 101.792C112.658 99.7303 110.032 98.0663 107.573 96.4188C106.822 95.9156 106.111 96.951 106.763 97.5343C108.907 99.4538 111.115 101.572 113.573 103.086C113.915 103.297 114.344 103.321 114.668 103.054C114.803 102.944 114.863 102.845 114.935 102.686C115.055 102.425 115.007 101.999 114.794 101.792Z" fill="black"/>
<path d="M107.113 103.631C106.209 102.79 104.567 102.466 103.426 102.054C102.584 101.75 101.807 102.994 102.643 103.487C103.766 104.151 105.109 105.234 106.425 105.404C107.491 105.541 107.777 104.249 107.113 103.631Z" fill="black"/>
<path d="M161.169 48.3229C159.245 48.4183 158.135 51.1937 157.261 52.5514C155.869 54.7134 154.42 56.8404 153.198 59.1043C152.943 59.5785 153.691 59.9357 153.998 59.5414C156.082 56.8695 157.841 53.9386 159.718 51.119C160.08 50.5748 160.726 49.3791 161.531 49.6225C162.755 49.9928 161.068 51.4384 160.654 51.8611C159.497 53.0408 158.364 54.4773 157.021 55.4369C156.093 56.0997 157.542 57.4664 158.139 56.4929C158.812 55.397 159.836 54.4496 160.686 53.4867C161.375 52.7055 162.267 51.9239 162.723 50.973C163.338 49.6895 162.689 48.2476 161.169 48.3229Z" fill="black"/>
<path d="M163.136 59.8871C162.843 59.2411 161.886 59.1099 161.473 59.7185C161.123 60.2346 159.994 60.5963 159.441 60.9007C158.784 61.2627 158.08 61.5932 157.516 62.0927C157.152 62.4159 157.399 63.111 157.925 63.0033C158.664 62.8519 159.344 62.5028 160.028 62.1939C160.349 62.0491 160.668 61.9008 160.988 61.7542C161.282 61.6198 161.82 61.2326 162.148 61.2479C162.869 61.282 163.456 60.5916 163.136 59.8871Z" fill="black"/>
<path d="M145.822 54.2909C145.72 54.6686 145.697 55.0567 145.613 55.4413C145.531 55.8135 145.45 56.1857 145.369 56.5581C145.25 57.1017 146.063 57.2386 146.272 56.781C146.422 56.4536 146.572 56.1262 146.721 55.7988C146.872 55.4701 147.08 55.1664 147.213 54.8336C147.578 53.9225 146.067 53.3794 145.822 54.2909Z" fill="black"/>
<path d="M145.2 46.8953C144.573 46.764 143.943 46.6477 143.329 46.4607C142.975 46.3529 142.514 46.541 142.494 46.9652C142.446 47.9653 142.42 48.9696 142.35 49.9685C142.29 50.835 142.096 51.622 142.38 52.4595C142.565 53.0046 143.371 52.9021 143.562 52.4274C143.879 51.6443 143.712 50.8624 143.701 50.0267C143.691 49.2477 143.702 48.4679 143.711 47.6885C144.032 47.7168 144.352 47.7532 144.673 47.7926C144.677 49.4216 144.606 51.0495 144.608 52.6792C144.608 52.9321 144.973 52.987 145.007 52.7241C145.236 50.959 145.372 49.1844 145.621 47.4231C145.66 47.1501 145.447 46.9469 145.2 46.8953Z" fill="black"/>
</g>
</svg>
