<svg xmlns="http://www.w3.org/2000/svg" xmlns:xlink="http://www.w3.org/1999/xlink" width="147.206" height="202.665" viewBox="0 0 147.206 202.665">
  <defs>
    <clipPath id="clip-path">
      <rect id="Rectángulo_62" data-name="Rectángulo 62" width="36.238" height="85.146" fill="none"/>
    </clipPath>
    <clipPath id="clip-path-2">
      <rect id="Rectángulo_58" data-name="Rectángulo 58" width="139.493" height="202.665" fill="none"/>
    </clipPath>
    <clipPath id="clip-path-3">
      <rect id="Rectángulo_57" data-name="Rectángulo 57" width="139.15" height="202.325" fill="none"/>
    </clipPath>
  </defs>
  <g id="Grupo_75" data-name="Grupo 75" transform="translate(0)">
    <g id="Grupo_39" data-name="Grupo 39" transform="translate(110.968 117.518)">
      <g id="Grupo_38" data-name="Grupo 38" clip-path="url(#clip-path)">
        <path id="Trazado_279" data-name="Trazado 279" d="M14.3.449a6.187,6.187,0,0,0-3.513,4.962,10.679,10.679,0,0,0,.549,5.094,2.772,2.772,0,0,1,.242.9c-.044,0-.747-.308-1.559-.681a8.427,8.427,0,0,0-5.292-.659,7.635,7.635,0,0,0-3.974,3.1c-2.152,3.579.483,7.114,5.621,7.6l1.515.153L6.7,22.363c-1.669,2.02-2.371,3.513-2.459,5.314a4.741,4.741,0,0,0,1.23,3.974,3.747,3.747,0,0,0,3.4,1.493,4.927,4.927,0,0,0,2.569-.593,13.148,13.148,0,0,0,4.677-4.765l.944-1.625L18.1,27.545c2.767,3.843,6.719,4.677,9.552,2a4.86,4.86,0,0,0,1.691-4.194,5.077,5.077,0,0,0-.746-3.14,10.975,10.975,0,0,0-1.6-2.152,3.75,3.75,0,0,1-.79-.835c2.437-1.691,3.535-2.854,4.04-4.26a4.075,4.075,0,0,0-1.581-5.006,3.309,3.309,0,0,0-2.5-.483,6.353,6.353,0,0,0-3.052.878l-1.559.79.154-.571a21.83,21.83,0,0,0,.153-3.118c0-2.306-.043-2.657-.637-3.908C19.857.537,16.958-.759,14.3.449m3.03,1.625c2.591,1.1,3.184,3.821,2.218,10.123-.351,2.327-.395,3.03-.2,3.272.395.483.615.417.966-.308a13.815,13.815,0,0,1,4.018-3.272c2.064-1.054,3.755-.769,4.238.7.527,1.6-1.12,3.733-4,5.16-1.339.659-1.624.9-1.669,1.383-.066.527.066.659,1.032,1.142,2.372,1.208,3.623,3.008,3.623,5.182a3.6,3.6,0,0,1-5.336,3.315A11.894,11.894,0,0,1,18.5,24.581c-.659-1.164-.922-1.449-1.427-1.493-.812-.11-.966.066-1.669,1.888-1.866,4.809-5.907,7.685-8.146,5.819-2.262-1.91-1.581-4.831,2.042-8.454,2.789-2.81,2.635-3.36-.988-3.272-2.877.066-4.831-.483-5.819-1.6-1.229-1.405-1.1-2.788.418-4.282,2.305-2.306,5.379-2.042,9.178.79,1.1.834,1.867.922,2.218.285.176-.329.11-.7-.308-1.691-1.559-3.755-1.844-6.346-.922-8.3A3.51,3.51,0,0,1,15.18,2.1a2.053,2.053,0,0,1,2.152-.022" transform="translate(0 0)" fill-rule="evenodd"/>
        <path id="Trazado_280" data-name="Trazado 280" d="M46.988,55.061a2.026,2.026,0,0,0-.856,1.866c0,1.274.263,1.779,1.1,2.218A2.707,2.707,0,0,0,51.183,56.2a2.2,2.2,0,0,0-1.735-1.757,1.843,1.843,0,0,0-2.459.615" transform="translate(-32.489 -38.188)" fill-rule="evenodd"/>
        <path id="Trazado_281" data-name="Trazado 281" d="M46.15,105.163c-.176.351-.132,1.537.154,4.875a106.421,106.421,0,0,1,0,17.939,248.711,248.711,0,0,1-3.447,24.878c-.637,3.008-.9,5.665-.593,5.994.285.264.988-.527,1.449-1.625,1.142-2.635,3.382-16.885,4.567-29.028a89.559,89.559,0,0,0-.373-20.311c-.351-2.218-.439-2.525-.79-2.855-.439-.439-.659-.417-.966.132" transform="translate(-29.674 -73.754)" fill-rule="evenodd"/>
        <path id="Trazado_282" data-name="Trazado 282" d="M72.315,201.816a57.561,57.561,0,0,1-5.248,3.842C60.3,210.137,58.087,212.816,56,219.1a19.688,19.688,0,0,0-.769,2.943c-.132.9-.11,1.054.2,1.054a1.835,1.835,0,0,1,.769.241c.329.22.725.044,2.569-1.164,1.186-.768,2.811-1.8,3.6-2.261,5.709-3.382,9.53-8.3,11.857-15.195.922-2.723,1.054-3.535.615-3.974-.505-.505-1.054-.264-2.525,1.076m-.483,4.435A24.662,24.662,0,0,1,62.7,217.735c-1.076.746-2.218,1.471-2.5,1.625-.483.242-.461.176.22-.68.417-.527,1.954-2.218,3.447-3.777a30.992,30.992,0,0,0,2.679-3.008c0-.835-2.833.9-4.677,2.854-.812.856-2.086,2.306-2.833,3.25-1.427,1.8-1.471,1.625-.264-1.01,1.8-3.931,3.843-6.126,9.09-9.705,1.757-1.208,3.535-2.481,3.952-2.833s.79-.549.834-.439a12.055,12.055,0,0,1-.812,2.24" transform="translate(-38.844 -141.203)" fill-rule="evenodd"/>
      </g>
    </g>
    <g id="Grupo_31" data-name="Grupo 31" transform="translate(0)">
      <g id="Grupo_30" data-name="Grupo 30" clip-path="url(#clip-path-2)">
        <g id="Grupo_29" data-name="Grupo 29" transform="translate(0.171 0.17)">
          <g id="Grupo_28" data-name="Grupo 28" clip-path="url(#clip-path-3)">
            <g id="Grupo_27" data-name="Grupo 27">
              <g id="Grupo_26" data-name="Grupo 26" clip-path="url(#clip-path-3)">
                <path id="Trazado_238" data-name="Trazado 238" d="M63.247,271.142a.025.025,0,0,0,.021-.007c5.944,1.45,7.025,8.249,9.323,13.146a43.375,43.375,0,0,1-4.535-4.856c-.609-.759-5.588-6.792-4.808-8.283" transform="translate(-20.132 -85.852)" fill="#fff"/>
                <path id="Trazado_239" data-name="Trazado 239" d="M78.061,281.578c.328,1.334,1.04,2.442.814,3.885-.267,1.635-1.943,1.792-3.051,1.088a.262.262,0,0,0-.075-.123c-.219-.178-.424-.349-.629-.527-1.416-1.573-2.141-3.988-2.832-5.9a21.082,21.082,0,0,0-3-5.773c-1.19-1.546-2.886-3.249-4.877-3.694,2.011-.7,4.309.28,5.828,1.662a23.082,23.082,0,0,1,3.4,4.692c.91,1.416,2.442,4.4,4.419,4.685" transform="translate(-20.527 -85.59)" fill="#fff"/>
                <path id="Trazado_240" data-name="Trazado 240" d="M131.277,247.063a13.253,13.253,0,0,1-.267,3.03c-.376,2.373-.917,5.383-2.517,7.271-.91,1.06-1.826.239-2.456-.65-1.32-1.84-.793-4.713-.363-6.744a14.547,14.547,0,0,1,1.737-4.849,4.816,4.816,0,0,0,.848-1.546,2.619,2.619,0,0,1,1.908.643,4.512,4.512,0,0,1,1.108,2.845" transform="translate(-39.735 -77.143)" fill="#fff"/>
                <path id="Trazado_241" data-name="Trazado 241" d="M189.1,124.146c.91-2.066-.575-4.391.5-6.45.588-1.135.91.869.992,1.3.137.7.205,1.409.39,2.093a.339.339,0,0,0,.616.082,6.9,6.9,0,0,1,2.107-2.941c.787.178,1.053.513.787,1.019a5.92,5.92,0,0,1-.616,1.231c-.239.424-.52.821-.773,1.238-.164.267.157.554.424.417.609-.328,4.644-2.223,4.754-.752.13,1.778-3.947,2.148-5.1,2.661-.376.164-.137.663.192.7a11.514,11.514,0,0,1,4.466.917c1.033.575-.848,1.3-1.313,1.341a5.168,5.168,0,0,1-2.175-.506c-1.033-.4-1.984-.971-3.037-1.341a.428.428,0,0,0-.52.52c.1.431.192.862.274,1.3a6.426,6.426,0,0,1,.089.882c.021.26-.1,2.408-1.231.875a7.172,7.172,0,0,1-.869-3.892c.6-.185,1.176-.376,1.758-.581a.215.215,0,0,0-.123-.41c-.527.109-1.053.205-1.587.3" transform="translate(-59.915 -37.255)" fill="#fff"/>
                <path id="Trazado_242" data-name="Trazado 242" d="M113.125,183.865a22.23,22.23,0,0,0,1.4,1.97c-2.524,10.383-10.875,18.358-20.923,21.6a25.618,25.618,0,0,1-4.637,1.019v-.014a7.308,7.308,0,0,1-1.908.137c-.1.021-.2.041-.3.055a47.184,47.184,0,0,1-8-.417,38.63,38.63,0,0,1-6.949-1.464,29.979,29.979,0,0,1-5.862-3,59.948,59.948,0,0,1-1.231-6.245c2.811,3,6.949,4.507,10.916,5.294a36.944,36.944,0,0,0,14.952-.144,31.969,31.969,0,0,0,13.994-6.847,36.857,36.857,0,0,0,5.219-5.848,21.476,21.476,0,0,0,3.338-6.094" transform="translate(-20.619 -58.274)" fill="#fff"/>
                <path id="Trazado_243" data-name="Trazado 243" d="M111,179.125c.41.773.834,1.546,1.286,2.305-1.293,4.631-4.767,8.748-8.222,11.949a30.491,30.491,0,0,1-13.5,6.819,37.405,37.405,0,0,1-14.535.438,22.374,22.374,0,0,1-11.724-5.609c-.205-1.621-.335-3.242-.417-4.87,1.477,2.141,4.665,3.4,6.86,4.09a39.677,39.677,0,0,0,13.858,2.025,33.28,33.28,0,0,0,16.464-5.91c3.974-2.695,8.3-6.525,9.925-11.238" transform="translate(-20.363 -56.776)" fill="#fff"/>
                <path id="Trazado_244" data-name="Trazado 244" d="M70.851,133.048c.636-2.1,1.026-4.248,1.744-6.32.055.041.1.1.157.137a17.511,17.511,0,0,0,4.966,2.449c1.792.6,4.343,1.594,6.2.9a55.4,55.4,0,0,0-1.122,6.033,74.106,74.106,0,0,0-.479,11.012c.021,2.093-.369,5.492,1.272,7.107a.743.743,0,0,0,.075.041.226.226,0,0,1,.021.041c.007.007.021.014.027.021a.1.1,0,0,0-.021.055.65.65,0,0,0,.321.417,13.356,13.356,0,0,0,.513,3.037c.075.3,1.088,4.09,1.943,2.77a.344.344,0,0,0-.123-.465c.192.082-.048-.137-.144-.28a6.353,6.353,0,0,1-.369-.711c-.328-.7-.6-1.43-.862-2.161a16.91,16.91,0,0,1-.575-1.929,1.1,1.1,0,0,1-.014-.178c.506.014,1.156-.267,1.573-.26.219.007.445.021.67.041a8.138,8.138,0,0,0,2.066,6.614c.342.3.964-.1.663-.513a12.712,12.712,0,0,1-2.25-6.046c.718.089,1.43.233,2.134.322a13.1,13.1,0,0,0,.992,3.741c.109.308.848,2.818,1.587,1.984a.325.325,0,0,0,0-.438c.13.075.144.1-.007-.15-.1-.157-.2-.328-.287-.492a16.563,16.563,0,0,1-.8-1.86,28.112,28.112,0,0,1-.985-2.729,6.448,6.448,0,0,0,2.23-.13c.226,1.984.917,5.513,2.319,4.829a.389.389,0,0,0,.075-.609c-1.149-1.06-1.443-2.832-1.874-4.391.034-.014.062-.014.089-.027a.478.478,0,0,0,.28-.39.375.375,0,0,0,.116-.342,57.787,57.787,0,0,1-.6-9.6A74.971,74.971,0,0,1,93.464,134.3c.287-1.683.663-3.345,1.047-5.007h.021a8.859,8.859,0,0,0,5.431-3.488c.116,1.628.451,3.276.663,4.877.26,2.018.5,4.036.8,6.046a61.917,61.917,0,0,0,3.181,11.97,70.549,70.549,0,0,0,4.815,10.739c.3.54.6,1.088.9,1.648-1.286,4.932-5.766,8.755-9.795,11.559a32.746,32.746,0,0,1-15.444,5.7c-4.2.4-8.536-.52-12.613-1.512-3.6-.882-6.744-2.2-8.68-5.294a79.875,79.875,0,0,1,1.347-16.211,153.124,153.124,0,0,1,3.659-15.15c.684-2.373,1.341-4.767,2.059-7.134" transform="translate(-20.322 -39.926)" fill="#fff"/>
                <path id="Trazado_245" data-name="Trazado 245" d="M113.711,112.585c.609,2.668,1.5,5.349.157,7.962-1.012,1.977-3.016,2.456-4.754,3.434.267-1.122.534-2.237.793-3.358.547-2.408,1.9-4.617,2.216-7.045.534-.321,1.067-.65,1.587-.992" transform="translate(-34.653 -35.748)" fill="#fff"/>
                <path id="Trazado_246" data-name="Trazado 246" d="M93.291,150.294c-.992-2.408-.992-4.726-1.033-7.3a86.243,86.243,0,0,1,.335-9.678c.534-5.315,1.806-12.291,5.889-16.176.274-.027.547-.048.821-.1a19.694,19.694,0,0,0,7.23-2.791A19.2,19.2,0,0,1,105,117.381a16.324,16.324,0,0,0-1.272,3.543c-.862,3.331-1.73,6.676-2.332,10.068a59.836,59.836,0,0,0-.486,19.22.126.126,0,0,0-.027.089v.144a25.848,25.848,0,0,1-4.863-.239,5.772,5.772,0,0,0-2.141.068c-.082.021-.363.205-.622.342a.328.328,0,0,0,.034-.321" transform="translate(-29.322 -36.276)" fill="#fff"/>
                <path id="Trazado_247" data-name="Trazado 247" d="M87.3,126.35a52.966,52.966,0,0,1-5.226-1.019,20.482,20.482,0,0,1-4.22-1.744,7.588,7.588,0,0,1-3.1-2.921c-.862-1.559-.417-3.352.185-4.911a54.459,54.459,0,0,0,7.23,1.286,47.993,47.993,0,0,0,10.226.616c-2.558,2.052-4.056,5.335-4.986,8.741a.314.314,0,0,0-.109-.048" transform="translate(-23.642 -36.75)" fill="#fff"/>
                <path id="Trazado_248" data-name="Trazado 248" d="M7.616,136.576A21.97,21.97,0,0,1,2.93,138.4c-.376.062-.828.089-.746-.4.123-.739.917-.9,1.518-1.094a5.877,5.877,0,0,0,2.756-1.252c.068-.075-.027-.212-.116-.15a2.993,2.993,0,0,1-.93.41c-.581-1.32-3.6.239-4.145-1.279-.506-1.416,4.446-.226,5.123-.253.219-.007.424-.267.274-.472-.78-1.1-1.881-1.9-2.572-3.071-.506-.869.732-1.19,1.375-.869a5.031,5.031,0,0,1,1.3,1.135c.581.616,1.053,1.32,1.6,1.963.185.226.527-.014.465-.267a8.947,8.947,0,0,1-.287-1.943c-.041-.834.137-1.4.711-.39.821,1.436,1.211,3.064,2.045,4.487a.3.3,0,0,0-.335.219c-.021.082-.034.164-.055.239-.527-.014-1.06-.021-1.594-.041a.213.213,0,0,0-.055.417c.513.109,1.033.205,1.546.294-.068.759-.021,1.559-.082,2.285a6.668,6.668,0,0,1-.465,2.066c-.075.164-.766,1.238-1.005.855a4.817,4.817,0,0,1-.239-2.38c.007-.663.1-1.354.048-2.018a.294.294,0,0,0-.363-.28,3.446,3.446,0,0,0-.568.178.388.388,0,0,0-.52-.212" transform="translate(-0.561 -41.203)" fill="#fff"/>
                <path id="Trazado_249" data-name="Trazado 249" d="M73.266,101.419c-.055-.787-.034-2.093.636-2.674a4.455,4.455,0,0,1,1.382,2.681c.13.643.492,3.167-.616,3.215-1.088.055-1.354-2.551-1.4-3.222" transform="translate(-23.318 -31.375)" fill="#fff"/>
                <path id="Trazado_250" data-name="Trazado 250" d="M30.12,90.425c1.669-2.018,3.769-4.2,4.309-6.765a.116.116,0,0,0-.226-.055,14.009,14.009,0,0,1-2.668,3.919,23.627,23.627,0,0,0-2.011,2.264c-.328-.356-.643-.7-.958-1.067-1.737-2-2.6-4.8-4.562-6.6,3.365.274,6.628-2.127,8.892-4.343a21.116,21.116,0,0,0,4.651-6.553c-.068.554-.137,1.108-.192,1.662a22.623,22.623,0,0,0,1.559,11.019,32.219,32.219,0,0,0,6.71,9.425,34.414,34.414,0,0,0,8.345,6.327c-2.715,1.033-6.642.267-9.282-.3a24.5,24.5,0,0,1-8.817-3.926c-.055-.034-.109-.082-.164-.116a16.606,16.606,0,0,0,2.661-5.889c.034-.157-.2-.274-.274-.116A34.615,34.615,0,0,1,34.99,94.8a37.676,37.676,0,0,1-3.016-2.551,16.892,16.892,0,0,0,3.194-7.066.1.1,0,0,0-.185-.055,31.971,31.971,0,0,1-1.8,3.865c-.527.951-1.2,1.806-1.806,2.7-.431-.417-.848-.841-1.259-1.265" transform="translate(-7.757 -22.678)" fill="#fff"/>
                <path id="Trazado_251" data-name="Trazado 251" d="M58.714,40.5a.28.28,0,0,0-.007.075c-.13.014-.246.034-.376.055a8.5,8.5,0,0,1,.171-1.2,15.7,15.7,0,0,1,1.047-2.695.1.1,0,1,0-.171-.1,13.8,13.8,0,0,0-1.388,2.654,5.388,5.388,0,0,0-.41,1.464,23.464,23.464,0,0,0-10.663,4.275A45.04,45.04,0,0,1,52.578,36.9a24.256,24.256,0,0,1,4.754-3.8,23.519,23.519,0,0,1,5.1-1.949c5.52.3,11.033.7,16.553,1.012L78.9,33.74a.087.087,0,0,0-.041.007,5.612,5.612,0,0,0-2.394,2.517c-.581.992-1.491,2.633-1.361,3.837-.089,0-.185-.014-.274-.021a94.425,94.425,0,0,0-13.906.253c.014-.246.014-.492.048-.711A7.292,7.292,0,0,1,61.4,37.79c.034-.1-.123-.164-.164-.075a13.061,13.061,0,0,0-.609,1.662c-.089.315-.205.663-.274,1.019-.315.027-.629.062-.944.1a31.4,31.4,0,0,1,2.859-6.149c.055-.1-.082-.212-.157-.123A16.85,16.85,0,0,0,58.714,40.5" transform="translate(-14.997 -10.016)" fill="#fff"/>
                <path id="Trazado_252" data-name="Trazado 252" d="M107.62,44.769a39.233,39.233,0,0,0,1.573-5.978.064.064,0,0,0-.123-.034c-.581,1.943-1.436,3.824-1.929,5.787a53.4,53.4,0,0,0-17.756-3.912c.335-.848.472-1.819.793-2.681a10.216,10.216,0,0,1,2.209-3.543c.062-.068.014-.2-.068-.2l.089-1.573c.964.062,1.922.109,2.886.157,5.267.246,10.533.445,15.786.855,4.063.315,8.044.643,12.079.643a22.527,22.527,0,0,1,3.885,4.733c1.4,2.627,1.689,5.793,1.97,8.7.622,6.306,1.471,12.613,1.56,18.96.068,4.911-.383,10.089,1.108,14.843.732,2.326,2.5,5.732,5.287,4.918a25.671,25.671,0,0,1-4.706,4.651c-.219.178-.021.472.212.472a12.9,12.9,0,0,1-5.581,2.011c-.205.027-.417.034-.622.062,1.218-1.765.492-5.027.445-6.9a.11.11,0,0,0-.219,0c-.246,2.483-.007,4.7-1.135,6.99a28.9,28.9,0,0,1-4.925-.068,11.429,11.429,0,0,0,1.943-6.7.12.12,0,0,0-.239,0c-.048,2.483-1.272,4.343-2.175,6.553a.3.3,0,0,0-.021.1c-.472-.055-.937-.116-1.409-.2a11.8,11.8,0,0,0,1.908-2.886,34.065,34.065,0,0,0,2.2-5.643c1.642-5.239,2.517-11.108,1.238-16.5-.034-.123-.205-.068-.192.048a35.418,35.418,0,0,1-1.662,15.93,22.637,22.637,0,0,1-4.754,8.817c-.26-.055-.52-.109-.773-.171a11.92,11.92,0,0,1-6.484-3.892,21.077,21.077,0,0,0,4.254-4.494c.041-.055-.027-.13-.068-.075a24.6,24.6,0,0,1-4.494,4.186,11.861,11.861,0,0,1-.964-1.471c3.865-1.587,6.033-6.7,7.2-10.362.034-.1-.123-.144-.157-.048a24.278,24.278,0,0,1-2.668,5.287,18.141,18.141,0,0,1-4.651,4.6l-.021-.041a.484.484,0,0,0-.431-.841c-.718-1.361-1.546-2.585-2.982-3.01,6.122-1.594,9.651-8.461,11.156-14.056a37.861,37.861,0,0,0,1.053-10.821A37.288,37.288,0,0,0,115.746,47.1a.108.108,0,0,0-.212.027c-.027.9.007,1.806.068,2.709a31.854,31.854,0,0,0-6.9-4.562,5.474,5.474,0,0,0,.746-3.386c-.021-.116-.192-.082-.2.027a8.731,8.731,0,0,1-1.053,3.119c-.192-.089-.376-.185-.575-.267" transform="translate(-28.418 -10.483)" fill="#fff"/>
                <path id="Trazado_253" data-name="Trazado 253" d="M142.532,23.328a.69.69,0,0,1-.636-.383,5.483,5.483,0,0,1-.5-2.674c-.027-.787-.021-1.58.007-2.373.6-.233.971-.876,1.334-1.375.814-1.115,1.491-2.339,2.2-3.529,1.635-2.77,3.461-5.438,5.1-8.208-1.2,3.222-1.594,9.3,2.025,9.206-3.153,2.531-9.548,7.654-9.528,9.336" transform="translate(-44.849 -1.682)" fill="#fff"/>
                <path id="Trazado_254" data-name="Trazado 254" d="M51.846,19.337a.1.1,0,0,0,.068.164c9.993.048,19.966,1.012,29.959.78A125.657,125.657,0,0,1,96.394,21c4.856.445,9.7.718,14.562.971a.338.338,0,0,0,.363-.226l.274.062a12.3,12.3,0,0,0-.171,4.658,2.831,2.831,0,0,0,1.238,2.189,1.6,1.6,0,0,0,.711.164c-.527.376-2.476.287-3.071.274-.226-.15-.458-.308-.7-.451-.116-.075-.219.082-.137.178s.164.185.246.274c-1.081.014-2.155,0-3.228-.034-2.715-.089-5.417-.438-8.119-.657-5.253-.424-10.527-.609-15.786-.869-5.157-.246-10.3-.663-15.444-1.026-1.033-.075-2.066-.15-3.1-.219a.428.428,0,0,0-.4-.116c-.116.021-.226.048-.342.075a71.284,71.284,0,0,0-10.4-.014.274.274,0,0,0-.1-.226c-1.176-.992-3.94-.869-3.639-3.085.171-1.238,1.388-2.025,1.1-3.249a.418.418,0,0,0,.2-.15c.205-.267.417-.534.643-.787Z" transform="translate(-15.701 -6.091)" fill="#fff"/>
                <path id="Trazado_255" data-name="Trazado 255" d="M52.015,13.05c1.751-2.079,3.9-3.782,5.848-5.677,1.053-1.04,2.025-2.161,3.016-3.256A16.569,16.569,0,0,0,63.663.745c3.447,1.5,7.948.746,11.58.67,5.062-.109,10.13.007,15.191-.1,5.287-.1,10.568.021,15.841.287,2.531.13,5.062.308,7.592.52,2.64.212,5.253.67,7.9.848-1.867,2.353-3.488,4.9-5.191,7.373-.691,1.005-1.3,2.079-1.943,3.112a19.556,19.556,0,0,1-1.423,1.895c.021-.369.034-.732.055-1.094a.1.1,0,0,0-.192-.027,13.128,13.128,0,0,0-.575,1.888l-.274-.062a.437.437,0,0,0-.363-.575c-4.624-.438-9.3-.534-13.933-.923a128.841,128.841,0,0,0-15.15-.636c-9.993.335-19.972-.732-29.959-.308a.084.084,0,0,0-.068.034Z" transform="translate(-16.609 -0.406)" fill="#fff"/>
                <path id="Trazado_256" data-name="Trazado 256" d="M62.789,86.435c.534,1.84.356,5.376,3,5.67,2.052.226,2.134-2.736,1.867-4.1-.034-.192-.3-.123-.315.041-.075.985-.342,3.721-1.895,3s-1.949-3.215-2.572-4.637c-.021-.048-.1-.014-.082.027m1.58-4.631c-1.259,1.409-.752,6.286,1.252,6.553,1.943.26,1.895-4.152.65-6.217a.343.343,0,0,0,.007-.335,1.643,1.643,0,0,0-2.989.472c-.021.082.089.178.157.1a1.386,1.386,0,0,1,.923-.568M62.44,91.3a31.179,31.179,0,0,1-8.721-6.088A34.389,34.389,0,0,1,47.1,76.749,21.131,21.131,0,0,1,44.9,65.833a31.521,31.521,0,0,1,7.011-18.365c6.9-2.223,14.425-2.264,21.689-1.956,10.075.417,20.465,2.77,28.057,9.795.171,1.874.417,3.741.492,5.6a41.975,41.975,0,0,1-.773,10.588,25.689,25.689,0,0,1-3.994,9.323,14.09,14.09,0,0,1-3.338,3.345,36.339,36.339,0,0,1-4.186,2.114.354.354,0,0,0-.192.438.271.271,0,0,0,.014.513,5.845,5.845,0,0,1,3.447,3.112c-2.77,1.655-5.28,3.215-8.57,3.878-3.5.7-7.025.116-10.513-.3-3.947-.472-7.927-1.012-11.6-2.613M77.159,56.093c0-1.347-.684-2.442-1.518-2.442s-1.525,1.094-1.525,2.442.684,2.442,1.525,2.442,1.518-1.094,1.518-2.442M58.11,55.744c.363-1.293.014-2.531-.8-2.756s-1.758.636-2.127,1.929-.007,2.538.8,2.763,1.758-.636,2.127-1.936" transform="translate(-14.352 -14.509)" fill="#fff"/>
                <path id="Trazado_257" data-name="Trazado 257" d="M89.15,57.475c.834,0,1.518,1.094,1.518,2.442s-.684,2.442-1.518,2.442-1.525-1.094-1.525-2.442.684-2.442,1.525-2.442" transform="translate(-27.862 -18.333)"/>
                <path id="Trazado_258" data-name="Trazado 258" d="M74.824,101.035a4.455,4.455,0,0,0-1.382-2.681c-.67.581-.691,1.888-.636,2.674.048.67.315,3.276,1.4,3.222,1.108-.048.746-2.572.616-3.215m-1.949-2.756a1.386,1.386,0,0,0-.923.568c-.068.082-.178-.014-.157-.1a1.643,1.643,0,0,1,2.989-.472.343.343,0,0,1-.007.335c1.245,2.066,1.293,6.477-.65,6.217-2-.267-2.51-5.144-1.252-6.553" transform="translate(-22.858 -30.984)"/>
                <path id="Trazado_259" data-name="Trazado 259" d="M71.146,105.354c.622,1.423,1.026,3.919,2.572,4.637s1.819-2.011,1.895-3c.014-.164.28-.233.315-.041.267,1.361.185,4.323-1.867,4.1-2.64-.294-2.462-3.83-3-5.67-.014-.041.062-.075.082-.027" transform="translate(-22.628 -33.456)"/>
                <path id="Trazado_260" data-name="Trazado 260" d="M62.007,56.488c.814.226,1.163,1.464.8,2.756s-1.32,2.168-2.127,1.936-1.163-1.464-.8-2.763,1.32-2.161,2.127-1.929" transform="translate(-19.049 -18.009)"/>
                <path id="Trazado_261" data-name="Trazado 261" d="M53.152,19.717a.1.1,0,0,1-.068-.164.084.084,0,0,1,.068-.034c9.986-.424,19.966.643,29.959.308a128.841,128.841,0,0,1,15.15.636c4.637.39,9.309.486,13.933.923a.437.437,0,0,1,.363.575.338.338,0,0,1-.363.226c-4.863-.253-9.706-.527-14.562-.971A125.657,125.657,0,0,0,83.111,20.5c-9.993.233-19.966-.732-29.959-.78" transform="translate(-16.938 -6.306)"/>
                <path id="Trazado_262" data-name="Trazado 262" d="M129.938,80.69c-1.074,2.059.41,4.384-.5,6.45.534-.1,1.06-.192,1.587-.3a.215.215,0,0,1,.123.41c-.581.205-1.163.4-1.758.581a7.173,7.173,0,0,0,.869,3.892c1.129,1.532,1.252-.616,1.231-.876a6.429,6.429,0,0,0-.089-.882c-.082-.438-.171-.869-.274-1.3a.428.428,0,0,1,.52-.52c1.053.369,2,.944,3.037,1.341a5.168,5.168,0,0,0,2.175.506c.465-.041,2.346-.766,1.313-1.341a11.514,11.514,0,0,0-4.466-.917c-.328-.034-.568-.534-.192-.7,1.156-.513,5.233-.882,5.1-2.661-.109-1.471-4.145.424-4.754.752-.267.137-.588-.15-.424-.417.253-.417.533-.814.773-1.238a5.92,5.92,0,0,0,.616-1.231c.267-.506,0-.841-.787-1.019a6.9,6.9,0,0,0-2.107,2.941.339.339,0,0,1-.616-.082c-.185-.684-.253-1.4-.39-2.093-.082-.431-.4-2.435-.992-1.3M97.3,21.511a.69.69,0,0,0,.636.383c-.021-1.683,6.375-6.806,9.528-9.336-3.618.1-3.222-5.985-2.025-9.206-1.642,2.77-3.468,5.438-5.1,8.208-.7,1.19-1.382,2.414-2.2,3.529-.363.5-.739,1.142-1.334,1.375-.027.793-.034,1.587-.007,2.373a5.483,5.483,0,0,0,.5,2.674M86.552,179.821c.629.889,1.546,1.71,2.456.65,1.6-1.888,2.141-4.9,2.517-7.271a13.254,13.254,0,0,0,.267-3.03,4.512,4.512,0,0,0-1.108-2.845,2.62,2.62,0,0,0-1.908-.643,4.816,4.816,0,0,1-.848,1.546,14.547,14.547,0,0,0-1.737,4.849c-.431,2.031-.958,4.9.363,6.744M77.722,78.077c-.315,2.428-1.669,4.637-2.216,7.045-.26,1.122-.527,2.237-.793,3.358,1.737-.978,3.741-1.457,4.754-3.434,1.341-2.613.451-5.294-.157-7.962-.52.342-1.053.67-1.587.992M62,151.64c.205.465.417.923.663,1.375.274.506.561,1,.855,1.491.28-.937.6-1.867.944-2.777-.821-.007-1.642-.034-2.462-.089m7.408-70.526C65.328,85,64.056,91.976,63.523,97.291a86.244,86.244,0,0,0-.335,9.678c.041,2.572.041,4.891,1.033,7.3a.328.328,0,0,1-.034.321c.26-.137.54-.321.622-.342a5.772,5.772,0,0,1,2.141-.068,25.849,25.849,0,0,0,4.863.239v-.144a.126.126,0,0,1,.027-.089,59.836,59.836,0,0,1,.486-19.22c.6-3.393,1.471-6.737,2.332-10.068a16.323,16.323,0,0,1,1.272-3.543,19.2,19.2,0,0,0,1.532-3.126,19.694,19.694,0,0,1-7.23,2.791c-.274.048-.547.068-.821.1m-17.866-1.86c-.6,1.56-1.047,3.352-.185,4.911a7.588,7.588,0,0,0,3.1,2.921,20.482,20.482,0,0,0,4.22,1.744,52.971,52.971,0,0,0,5.226,1.019.314.314,0,0,1,.109.048c.93-3.406,2.428-6.689,4.986-8.741a47.993,47.993,0,0,1-10.226-.616,54.459,54.459,0,0,1-7.23-1.286m-7.209,60.225a59.948,59.948,0,0,0,1.231,6.245,29.979,29.979,0,0,0,5.862,3,38.631,38.631,0,0,0,6.949,1.464,47.182,47.182,0,0,0,8,.417c.1-.014.2-.034.3-.055a7.307,7.307,0,0,0,1.908-.137v.014a25.618,25.618,0,0,0,4.637-1.019c10.048-3.242,18.4-11.217,20.923-21.6a22.232,22.232,0,0,1-1.4-1.97,21.477,21.477,0,0,1-3.338,6.094,36.856,36.856,0,0,1-5.219,5.848,31.969,31.969,0,0,1-13.994,6.847,36.944,36.944,0,0,1-14.952.144c-3.967-.787-8.105-2.3-10.916-5.294m5.629,47.38c-1.518-1.382-3.817-2.36-5.828-1.662,1.99.445,3.687,2.148,4.877,3.694a21.082,21.082,0,0,1,3,5.773c.691,1.908,1.416,4.323,2.832,5.9.205.178.41.349.629.527a.262.262,0,0,1,.075.123c1.108.7,2.784.547,3.051-1.088.226-1.443-.486-2.551-.814-3.885-1.977-.287-3.509-3.269-4.419-4.685a23.082,23.082,0,0,0-3.4-4.692M44.2,138.5a22.373,22.373,0,0,0,11.724,5.609,37.405,37.405,0,0,0,14.535-.438,30.491,30.491,0,0,0,13.5-6.819c3.454-3.2,6.929-7.319,8.222-11.949-.451-.759-.876-1.532-1.286-2.305-1.621,4.713-5.951,8.543-9.925,11.238a33.28,33.28,0,0,1-16.464,5.91,39.677,39.677,0,0,1-13.858-2.025c-2.2-.691-5.383-1.949-6.86-4.09.082,1.628.212,3.249.417,4.87m-.486-6.635c1.936,3.092,5.082,4.412,8.68,5.294,4.077.992,8.413,1.908,12.613,1.512a32.746,32.746,0,0,0,15.444-5.7c4.029-2.8,8.509-6.628,9.795-11.559-.3-.561-.6-1.108-.9-1.648a70.547,70.547,0,0,1-4.815-10.739,61.917,61.917,0,0,1-3.181-11.97c-.3-2.011-.54-4.029-.8-6.046-.212-1.6-.547-3.249-.663-4.877a8.859,8.859,0,0,1-5.431,3.488h-.021c-.383,1.662-.759,3.324-1.047,5.007A74.97,74.97,0,0,0,72.3,104.9a57.786,57.786,0,0,0,.6,9.6.375.375,0,0,1-.116.342.478.478,0,0,1-.28.39c-.027.014-.055.014-.089.027.431,1.559.725,3.331,1.874,4.391a.389.389,0,0,1-.075.609c-1.4.684-2.093-2.845-2.319-4.829a6.447,6.447,0,0,1-2.23.13,28.112,28.112,0,0,0,.985,2.729,16.562,16.562,0,0,0,.8,1.86c.089.164.185.335.287.492.15.246.137.226.007.15a.325.325,0,0,1,0,.438c-.739.834-1.477-1.676-1.587-1.984a13.1,13.1,0,0,1-.992-3.741c-.7-.089-1.416-.233-2.134-.321a12.712,12.712,0,0,0,2.25,6.046c.3.41-.321.814-.663.513a8.138,8.138,0,0,1-2.066-6.614c-.226-.021-.451-.034-.67-.041-.417-.007-1.067.274-1.573.26a1.1,1.1,0,0,0,.014.178,16.909,16.909,0,0,0,.575,1.929c.26.732.534,1.464.862,2.161a6.356,6.356,0,0,0,.369.711c.1.144.335.363.144.28a.343.343,0,0,1,.123.465c-.855,1.32-1.867-2.469-1.943-2.77a13.356,13.356,0,0,1-.513-3.037.65.65,0,0,1-.321-.417.1.1,0,0,1,.021-.055c-.007-.007-.021-.014-.027-.021a.227.227,0,0,0-.021-.041.744.744,0,0,1-.075-.041c-1.642-1.614-1.252-5.014-1.272-7.107a74.106,74.106,0,0,1,.479-11.012,55.4,55.4,0,0,1,1.122-6.033c-1.854.7-4.4-.3-6.2-.9a17.511,17.511,0,0,1-4.966-2.449c-.062-.041-.1-.1-.157-.137-.718,2.072-1.108,4.22-1.744,6.32-.718,2.367-1.375,4.761-2.059,7.134a153.122,153.122,0,0,0-3.659,15.15,79.875,79.875,0,0,0-1.347,16.211m-.328,53.666a.025.025,0,0,1-.021.007c-.78,1.491,4.2,7.524,4.808,8.283a43.377,43.377,0,0,0,4.535,4.856c-2.3-4.9-3.379-11.7-9.323-13.146M41.5,7.216c-1.949,1.895-4.1,3.6-5.848,5.677-.226.253-.438.52-.643.787a.418.418,0,0,1-.2.15c.287,1.224-.93,2.011-1.1,3.249-.3,2.216,2.462,2.093,3.639,3.085a.274.274,0,0,1,.1.226,71.284,71.284,0,0,1,10.4.014c.116-.027.226-.055.342-.075a.428.428,0,0,1,.4.116c1.033.068,2.066.144,3.1.219,5.144.363,10.287.78,15.444,1.026,5.26.26,10.533.445,15.786.869,2.7.219,5.4.568,8.119.657,1.074.034,2.148.048,3.228.034-.082-.089-.164-.178-.246-.274s.021-.253.137-.178c.239.144.472.3.7.451.6.014,2.544.1,3.071-.274a1.6,1.6,0,0,1-.711-.164,2.83,2.83,0,0,1-1.238-2.189,12.3,12.3,0,0,1,.171-4.658,13.127,13.127,0,0,1,.575-1.888.1.1,0,0,1,.192.027c-.021.363-.034.725-.055,1.094A19.556,19.556,0,0,0,98.276,13.3c.643-1.033,1.252-2.107,1.943-3.112,1.7-2.476,3.324-5.02,5.191-7.373-2.647-.178-5.26-.636-7.9-.848-2.531-.212-5.062-.39-7.592-.52-5.274-.267-10.554-.39-15.841-.287-5.062.1-10.13-.014-15.191.1-3.632.075-8.133.834-11.58-.67A16.57,16.57,0,0,1,44.521,3.96C43.53,5.055,42.558,6.176,41.5,7.216M32.168,35.253a23.464,23.464,0,0,1,10.663-4.275,5.388,5.388,0,0,1,.41-1.464,13.8,13.8,0,0,1,1.388-2.654.1.1,0,1,1,.171.1,15.7,15.7,0,0,0-1.047,2.695,8.5,8.5,0,0,0-.171,1.2c.13-.021.246-.041.376-.055a.28.28,0,0,1,.007-.075,16.85,16.85,0,0,1,3.393-6.279c.075-.089.212.021.157.123a31.4,31.4,0,0,0-2.859,6.149c.315-.034.629-.068.944-.1.068-.356.185-.7.274-1.019a13.06,13.06,0,0,1,.609-1.662c.041-.089.2-.021.164.075a7.292,7.292,0,0,0-.424,1.833c-.034.219-.034.465-.048.711a94.425,94.425,0,0,1,13.906-.253c.089.007.185.021.274.021-.13-1.2.78-2.845,1.361-3.837a5.612,5.612,0,0,1,2.394-2.517.087.087,0,0,1,.041-.007c.082,0,.13.13.068.2a10.216,10.216,0,0,0-2.209,3.543c-.321.862-.458,1.833-.793,2.681a53.4,53.4,0,0,1,17.756,3.912c.492-1.963,1.347-3.844,1.929-5.787a.064.064,0,0,1,.123.034,39.233,39.233,0,0,1-1.573,5.978c.2.082.383.178.575.267a8.73,8.73,0,0,0,1.053-3.119c.007-.109.178-.144.2-.027a5.474,5.474,0,0,1-.746,3.386,31.854,31.854,0,0,1,6.9,4.562c-.062-.9-.1-1.813-.068-2.709a.108.108,0,0,1,.212-.027A37.288,37.288,0,0,1,89.07,47.729a37.861,37.861,0,0,1-1.053,10.821c-1.5,5.6-5.034,12.462-11.156,14.056,1.436.424,2.264,1.648,2.982,3.01a.484.484,0,0,1,.431.841l.021.041a18.141,18.141,0,0,0,4.651-4.6,24.279,24.279,0,0,0,2.668-5.287c.034-.1.192-.055.157.048-1.163,3.666-3.331,8.776-7.2,10.362a11.862,11.862,0,0,0,.964,1.471A24.6,24.6,0,0,0,86.033,74.3c.041-.055.109.021.068.075a21.077,21.077,0,0,1-4.254,4.494,11.92,11.92,0,0,0,6.484,3.892c.253.062.513.116.773.171a22.636,22.636,0,0,0,4.754-8.817,35.418,35.418,0,0,0,1.662-15.93c-.014-.116.157-.171.192-.048,1.279,5.4.4,11.265-1.238,16.5a34.066,34.066,0,0,1-2.2,5.643,11.8,11.8,0,0,1-1.908,2.886c.472.082.937.144,1.409.2a.3.3,0,0,1,.021-.1c.9-2.209,2.127-4.07,2.175-6.553a.12.12,0,0,1,.239,0,11.429,11.429,0,0,1-1.943,6.7,28.9,28.9,0,0,0,4.925.068c1.129-2.291.889-4.507,1.135-6.99a.11.11,0,0,1,.219,0c.048,1.874.773,5.137-.445,6.9.205-.027.417-.034.622-.062a12.9,12.9,0,0,0,5.581-2.011c-.233,0-.431-.294-.212-.472A25.672,25.672,0,0,0,108.8,76.21c-2.791.814-4.555-2.592-5.287-4.918-1.491-4.754-1.04-9.932-1.108-14.843-.089-6.347-.937-12.654-1.559-18.96-.28-2.907-.568-6.074-1.97-8.7a22.527,22.527,0,0,0-3.885-4.733c-4.036,0-8.016-.328-12.079-.643-5.253-.41-10.52-.609-15.786-.855-.964-.048-1.922-.1-2.886-.157-5.52-.308-11.033-.711-16.553-1.012a23.519,23.519,0,0,0-5.1,1.949,24.256,24.256,0,0,0-4.754,3.8,45.039,45.039,0,0,0-5.663,8.119M37.8,33.208a31.522,31.522,0,0,0-7.011,18.365A21.131,21.131,0,0,0,33,62.489a34.388,34.388,0,0,0,6.614,8.468,31.179,31.179,0,0,0,8.721,6.088c3.673,1.6,7.654,2.141,11.6,2.613,3.488.417,7.018,1,10.513.3,3.29-.663,5.8-2.223,8.57-3.878a5.845,5.845,0,0,0-3.447-3.112.271.271,0,0,1-.014-.513.354.354,0,0,1,.192-.438A36.339,36.339,0,0,0,79.938,69.9a14.09,14.09,0,0,0,3.338-3.345,25.689,25.689,0,0,0,3.994-9.323,41.975,41.975,0,0,0,.773-10.588c-.075-1.86-.321-3.728-.492-5.6-7.592-7.025-17.982-9.377-28.057-9.795-7.264-.308-14.788-.267-21.689,1.956M26.922,61.231c-.54,2.565-2.64,4.747-4.309,6.765.41.424.828.848,1.259,1.265.6-.9,1.279-1.751,1.806-2.7a31.971,31.971,0,0,0,1.8-3.865.1.1,0,0,1,.185.055,16.892,16.892,0,0,1-3.194,7.066,37.677,37.677,0,0,0,3.016,2.551,34.616,34.616,0,0,0,3.105-5.486c.075-.157.308-.041.274.116A16.606,16.606,0,0,1,28.2,72.886c.055.034.109.082.164.116a24.5,24.5,0,0,0,8.817,3.926c2.64.568,6.566,1.334,9.282.3A34.413,34.413,0,0,1,38.119,70.9a32.219,32.219,0,0,1-6.71-9.425A22.623,22.623,0,0,1,29.85,50.458c.055-.554.123-1.108.192-1.662a21.117,21.117,0,0,1-4.651,6.553c-2.264,2.216-5.527,4.617-8.892,4.343,1.963,1.8,2.825,4.6,4.562,6.6.315.363.629.711.958,1.067A23.625,23.625,0,0,1,24.029,65.1,14.009,14.009,0,0,0,26.7,61.176a.116.116,0,0,1,.226.055M6.15,94.7A5.877,5.877,0,0,1,3.393,95.95c-.6.192-1.4.356-1.518,1.094-.082.492.369.465.746.4a21.969,21.969,0,0,0,4.685-1.826.388.388,0,0,1,.52.212,3.445,3.445,0,0,1,.568-.178.294.294,0,0,1,.363.28c.055.663-.041,1.354-.048,2.018a4.817,4.817,0,0,0,.239,2.38c.239.383.93-.691,1.005-.855a6.668,6.668,0,0,0,.465-2.066c.062-.725.014-1.525.082-2.285-.513-.089-1.033-.185-1.546-.294a.213.213,0,0,1,.055-.417c.534.021,1.067.027,1.594.041.021-.075.034-.157.055-.239A.3.3,0,0,1,10.992,94c-.834-1.423-1.224-3.051-2.045-4.487-.575-1.012-.752-.445-.711.39a8.947,8.947,0,0,0,.287,1.943c.062.253-.28.492-.465.267-.547-.643-1.019-1.347-1.6-1.963a5.03,5.03,0,0,0-1.3-1.135c-.643-.321-1.881,0-1.375.869.691,1.17,1.792,1.97,2.572,3.071.15.205-.055.465-.274.472-.677.027-5.629-1.163-5.123.253.547,1.518,3.564-.041,4.145,1.279a2.993,2.993,0,0,0,.93-.41c.089-.062.185.075.116.15m-5.055.007A1.385,1.385,0,0,1,.37,92.968c.793-1.45,3.331-.534,4.945-.253-1.129-1.17-3.324-3.133-1.867-4.261,1.525-1.19,3.222.917,4.309,2.367-.164-1.176-.233-2.756.575-2.674.732.062,1.094,1,1.368,1.559.739,1.546,1.354,3.174,1.956,4.774v.007a68.833,68.833,0,0,0,21.306-2.845,84.05,84.05,0,0,0,17.565-7.134,5.98,5.98,0,0,1,.527-5.4,22.225,22.225,0,0,1-3.5-1.32c-2.5,1.566-6.361.93-9.111.458a25.452,25.452,0,0,1-9.316-3.475c-.588-.383-1.176-.787-1.751-1.211a.463.463,0,0,1-.308-.233,36.888,36.888,0,0,1-3.324-2.8.346.346,0,0,1-.417-.39c-.513-.492-1.012-1.005-1.5-1.518a.444.444,0,0,1-.226-.246c-.185-.2-.369-.39-.547-.588-2.285-2.558-3.789-5.711-5.684-8.564A.166.166,0,0,1,15.6,59c.1.055.185.13.274.192a.406.406,0,0,1,.41-.369C23.509,58.331,27.469,52,30.493,46.149a27.126,27.126,0,0,1,1.963-6.012,25.572,25.572,0,0,1,4.583-6.669,30.721,30.721,0,0,0-5.219,2.36c-.062.1-.116.2-.178.294a.191.191,0,0,1-.349-.144c.944-3.611,3.618-7.284,6.252-9.87a21.609,21.609,0,0,1,7.373-4.863c-2.852-.137-5.7-.239-8.557-.287a.221.221,0,0,1-.178-.363,4.886,4.886,0,0,1-3.037-2.189c-.944-1.854,1.6-3.119.971-4.767a.232.232,0,0,1,.034-.233.459.459,0,0,1,.075-.185c1.888-2.538,4.412-4.432,6.662-6.621,1.2-1.163,2.319-2.4,3.461-3.625a11.688,11.688,0,0,1,2.763-2.5c-.027-.068.014-.171.1-.164A54.125,54.125,0,0,0,54.029.7c2.168-.082,4.33-.219,6.5-.226C65.472.458,70.4.328,75.335.267,80.41.205,85.492.3,90.554.581c5.034.287,10.02,1.053,15.048,1.347a.438.438,0,0,1,.342.205.068.068,0,0,1,.027-.034c.021-.027.048-.027.082-.021a1.592,1.592,0,0,1,.116-.178.1.1,0,0,1,.171.075,24.027,24.027,0,0,0-.964,5.609,6,6,0,0,0,.5,2.88c.575,1.019,1.354,1.108,2.435,1.19a.36.36,0,0,1,.192.068c.287-.239.5-.417.6-.52a.109.109,0,0,1,.178.109c-.554,1.594-2.2,2.715-3.44,3.755-.876.732-1.7,1.539-2.531,2.319-1.019.93-2.038,1.867-3.023,2.852-.39.4-.8.793-1.156,1.231a1.633,1.633,0,0,0-.15.212.584.584,0,0,1,.109,0,.35.35,0,0,1,.3.52,1.243,1.243,0,0,1-.479.5c.137.383.109.41-.068.958a.448.448,0,0,1-.41.315c-.841.041-1.676.062-2.517.075a15.137,15.137,0,0,1,5.486,9.473c.9,5.294,1.327,10.78,1.744,16.135.458,5.882-.1,11.881.657,17.729.342,2.627,1.464,8.851,5.267,7.859a.392.392,0,0,1,.342.082,1.5,1.5,0,0,0,.116-.171c.062-.1.219-.034.178.075s-.089.226-.137.342a.331.331,0,0,1-.157.39,11.086,11.086,0,0,1-1.943,2.982.025.025,0,0,1-.007.021c-3.564,5.52-10.923,6.211-16.895,5.3-.492-.068-.992-.164-1.5-.274a.479.479,0,0,1-.1-.021c-2.736-.575-5.568-1.642-7.435-3.714a9.048,9.048,0,0,1-1.074-1.477,10.152,10.152,0,0,1,.581,4.412c7.2,2.927,15.4,4.159,23.221,5.055A85.357,85.357,0,0,0,128.7,87.27c1.047-1.9-.267-3.789.2-5.746.157-.636.588-2.018,1.45-2.018,1.046,0,1.306,2.045,1.471,3.4.725-1.286,2.011-3.037,3.235-2.319,1.163.684.28,2.319-.465,3.475,1.5-.718,3.721-1.525,4.555-.26,1.094,1.669-1.553,2.7-3.516,3.324,1.717.178,3.762.629,3.591,2.045-.144,1.17-1.737,1.689-2.722,1.566a18.072,18.072,0,0,1-4.391-1.525c.287,1.5.5,3.741-1.327,3.714-1.765-.027-2.038-3.461-2.086-4.884-7.962,2.346-16.491,2.572-24.706,2.12-7.585-.417-16.635-1.45-23.666-4.48C81.587,88.925,81.7,92.81,82.236,96.2a64.142,64.142,0,0,0,2.955,11.436,70.3,70.3,0,0,0,4.843,11.06c.349.629.691,1.272,1.04,1.922a.462.462,0,0,1,.226.431c.486.9.964,1.813,1.477,2.7a.318.318,0,0,1,.144.034.5.5,0,0,1,.027.1,1.616,1.616,0,0,0,.233.445c-.007.027-.014.048-.021.075.369.609.752,1.211,1.17,1.785a5.916,5.916,0,0,0,.964,1.388c-.068.39-.164.766-.253,1.149-2.681,10.349-11.375,18.659-21.525,21.751A28.772,28.772,0,0,1,68,151.565a28,28,0,0,0-1.238,2.934c-.376,1.074-.732,2.161-1.06,3.249a27.394,27.394,0,0,0,2.927,3.311c5.369,5.13,11.8,7.312,18.981,5.315a.437.437,0,0,1,.294-.547c3.892-1.088,5.1,3.208,4.7,6.2-.4,2.907-.93,6.423-2.77,8.817-2.1,2.736-4.473-.663-4.829-2.859a15.731,15.731,0,0,1,1.053-7.243,10.442,10.442,0,0,1,1.129-2.558c.116-.164.636-.732.978-1.2-6.751,3.482-14.528,2.189-20.383-2.674A32.413,32.413,0,0,1,64.7,161.36q-.7,2.688-1.259,5.41c-.876,4.165-1.888,8.365-2.456,12.579-.766,5.581-.711,11.423-2.25,16.867,1.176,1.97,1.341,5.1-1.019,6.135-1.443.643-2.7-.2-3.6-1.306-3.721-2.62-12.469-12.962-11.286-15.629-.068-.007-.137-.027-.205-.034-.164-.027-.1-.253.034-.267.041-.007.089,0,.137-.007a.47.47,0,0,1,.185-.349c2.921-2.25,7.113.363,8.919,2.839,1.081,1.477,2,3.071,3,4.61.732,1.122,1.7,2.934,3.051,3.564a.5.5,0,0,1,.171-.055,164.1,164.1,0,0,1,3.126-31.4c.335-1.772.711-3.694,1.176-5.67a33.759,33.759,0,0,1-4.316-7.4c-.116-.014-.233-.027-.349-.048-3.817-.534-9.384-1.423-12.264-4.507a.533.533,0,0,1-.862-.26c-2.777-9.849-2.538-20.444-.677-30.444a146.057,146.057,0,0,1,3.892-15.718c.773-2.544,1.594-5.062,2.353-7.606a30.5,30.5,0,0,1,2.052-5.841c-.082-.068-.178-.144-.253-.212-5.575,3.358-12.531,5.458-18.522,6.888-7.209,1.717-14.8,2.825-22.189,1.744a13.772,13.772,0,0,1-.629,4.254c-.239.684-.958,1.758-1.813,1.587-1.272-.26-.848-3.618-.7-4.863a2.105,2.105,0,0,0-.547.068c-.958.438-1.881.923-2.866,1.3-.8.315-2.285,1.005-3.146.492-.821-.492-.458-1.669.15-2.182A4.952,4.952,0,0,1,4.344,95.1c-.759-.28-2.654-.062-3.249-.4" transform="translate(-0.25 -0.249)"/>
              </g>
            </g>
          </g>
        </g>
      </g>
    </g>
  </g>
</svg>
