<?xml version="1.0" encoding="utf-8"?>
<!-- Generator: Adobe Illustrator 28.3.0, SVG Export Plug-In . SVG Version: 6.00 Build 0)  -->
<svg version="1.1" xmlns="http://www.w3.org/2000/svg" xmlns:xlink="http://www.w3.org/1999/xlink" x="0px" y="0px"
	 viewBox="0 0 100 50" style="enable-background:new 0 0 100 50;" xml:space="preserve">
<style type="text/css">
	.st0{fill:#F7D323;}
	.st1{fill:#E2E2E2;}
</style>
<g id="background">
</g>
<g id="objects">
	<g>
		<path class="st0" d="M28.1,3L34,14.8l13,1.9c2.9,0.4,4,3.9,1.9,6l-9.4,9.2l2.2,13c0.5,2.9-2.5,5-5.1,3.7L25,42.4l-11.7,6.1
			c-2.6,1.3-5.6-0.8-5.1-3.7l2.2-13l-9.4-9.2c-2.1-2-0.9-5.6,1.9-6l13-1.9L21.9,3C23.1,0.4,26.9,0.4,28.1,3z"/>
	</g>
	<g>
		<path class="st1" d="M78.1,3L84,14.8l13,1.9c2.9,0.4,4,3.9,1.9,6l-9.4,9.2l2.2,13c0.5,2.9-2.5,5-5.1,3.7L75,42.4l-11.7,6.1
			c-2.6,1.3-5.6-0.8-5.1-3.7l2.2-13l-9.4-9.2c-2.1-2-0.9-5.6,1.9-6l13-1.9L71.9,3C73.1,0.4,76.9,0.4,78.1,3z"/>
	</g>
</g>
</svg>
