<svg xmlns="http://www.w3.org/2000/svg" xmlns:xlink="http://www.w3.org/1999/xlink" width="27.648" height="31.503" viewBox="0 0 27.648 31.503">
  <defs>
    <clipPath id="clip-path">
      <rect id="Rectángulo_6" data-name="Rectángulo 6" width="27.648" height="31.503" transform="translate(0 0)" fill="none" stroke="#fff" stroke-width="1"/>
    </clipPath>
  </defs>
  <g id="tel-icon" transform="translate(0 0)">
    <g id="Grupo_5" data-name="Grupo 5" clip-path="url(#clip-path)">
      <path id="Trazado_6" data-name="Trazado 6" d="M8.814,10.888c-1.591,1.549-1.112,5.035,1.161,8s5.514,4.336,7.423,3.2" fill="none" stroke="#fff" stroke-linecap="round" stroke-linejoin="round" stroke-width="1.44"/>
      <path id="Trazado_7" data-name="Trazado 7" d="M22.579,28.853A11.63,11.63,0,0,1,20.8,30.269C18.186,32.2,11.976,28.551,6.571,21.5S-.67,7.512,1.8,5.473A8.355,8.355,0,0,1,3.625,4.116" fill="none" stroke="#fff" stroke-linecap="round" stroke-linejoin="round" stroke-width="1.44"/>
      <path id="Rectángulo_4" data-name="Rectángulo 4" d="M.856,0H3.709a.856.856,0,0,1,.856.856V9.074a.855.855,0,0,1-.855.855H.857A.857.857,0,0,1,0,9.072V.856A.856.856,0,0,1,.856,0Z" transform="translate(17.611 20.681) rotate(-37.464)" fill="none" stroke="#fff" stroke-linecap="round" stroke-linejoin="round" stroke-width="1.44"/>
      <path id="Rectángulo_5" data-name="Rectángulo 5" d="M.856,0H3.71a.855.855,0,0,1,.855.855V9.073a.856.856,0,0,1-.856.856H.857A.857.857,0,0,1,0,9.073V.856A.856.856,0,0,1,.856,0Z" transform="matrix(0.794, -0.608, 0.608, 0.794, 4.18, 3.151)" fill="none" stroke="#fff" stroke-linecap="round" stroke-linejoin="round" stroke-width="1.44"/>
    </g>
  </g>
</svg>
