<svg xmlns="http://www.w3.org/2000/svg" width="39.56" height="39.561" viewBox="0 0 39.56 39.561">
  <g id="Grupo_119" data-name="Grupo 119" transform="translate(-99.035 -0.441)">
    <path id="Trazado_338" data-name="Trazado 338" d="M170.6,40a19.78,19.78,0,1,1,19.78-19.78A19.8,19.8,0,0,1,170.6,40m0-38.061a18.28,18.28,0,1,0,18.28,18.281A18.3,18.3,0,0,0,170.6,1.941" transform="translate(-51.787)" fill="#fff"/>
    <path id="Trazado_339" data-name="Trazado 339" d="M177.251,11.949a2.806,2.806,0,0,0-1.976-1.988c-1.742-.47-8.731-.47-8.731-.47s-6.988,0-8.731.47a2.808,2.808,0,0,0-1.976,1.988,29.485,29.485,0,0,0-.467,5.414,29.478,29.478,0,0,0,.467,5.414,2.811,2.811,0,0,0,1.976,1.989c1.743.47,8.731.47,8.731.47s6.989,0,8.731-.47a2.808,2.808,0,0,0,1.976-1.989,29.433,29.433,0,0,0,.467-5.414,29.44,29.44,0,0,0-.467-5.414m-12.992,8.737V14.041l5.841,3.323Z" transform="translate(-47.73 2.858)" fill="#fff"/>
  </g>
</svg>
