<?xml version="1.0" encoding="utf-8"?>
<!-- Generator: Adobe Illustrator 21.0.0, SVG Export Plug-In . SVG Version: 6.00 Build 0)  -->
<svg version="1.1" id="Layer_1" xmlns="http://www.w3.org/2000/svg" xmlns:xlink="http://www.w3.org/1999/xlink" x="0px" y="0px"
	 viewBox="0 0 19 19" style="enable-background:new 0 0 19 19;" xml:space="preserve">
<style type="text/css">
	.st0{fill:#FFFFFF;}
	.st1{clip-path:url(#SVGID_2_);}
	.st2{clip-path:url(#SVGID_4_);}
</style>
<g>
	<g>
		<path class="st0" d="M9.5,18.8c-5.1,0-9.2-4.1-9.2-9.2s4.1-9.2,9.2-9.2c2.5,0,4.8,1,6.5,2.7c1.7,1.7,2.7,4.1,2.7,6.5
			C18.8,14.6,14.6,18.8,9.5,18.8z M9.5,2.2c-4,0-7.2,3.3-7.2,7.2c0,4,3.3,7.2,7.2,7.2c4,0,7.2-3.3,7.2-7.2c0-1.9-0.8-3.8-2.1-5.1
			C13.3,3,11.4,2.2,9.5,2.2z"/>
	</g>
	<g>
		<path class="st0" d="M9.3,12.2c-0.5,0-0.9-0.4-0.9-0.9c0-1.1,0.5-2,1.5-2.7c0.9-0.6,1.3-1,1.3-1.7c0-0.3-0.1-0.8-0.9-1.1
			c-0.1,0-0.4-0.1-0.9-0.1C9,5.8,8.6,5.9,8.3,6.1C7.8,6.6,7.7,7,7.7,7C7.7,7.5,7.3,7.9,6.8,7.8C6.3,7.8,6,7.4,6,6.9
			c0-0.1,0.1-1.2,1.2-2.2C7.8,4.3,8.6,4,9.5,4c0.6,0,1.2,0.1,1.6,0.3C12.3,4.9,13,5.9,13,7c0,1.7-1.2,2.5-2.1,3.1
			c-0.7,0.5-0.8,0.9-0.8,1.2C10.1,11.9,9.7,12.2,9.3,12.2z"/>
	</g>
	<g>
		<defs>
			<circle id="SVGID_1_" cx="9.2" cy="13.8" r="0.9"/>
		</defs>
		<clipPath id="SVGID_2_">
			<use xlink:href="#SVGID_1_"  style="overflow:visible;"/>
		</clipPath>
		<g class="st1">
			<defs>
				<rect id="SVGID_3_" x="-1179.5" y="-957.5" width="1366" height="1024"/>
			</defs>
			<clipPath id="SVGID_4_">
				<use xlink:href="#SVGID_3_"  style="overflow:visible;"/>
			</clipPath>
			<g class="st2">
				<rect x="3.3" y="7.9" class="st0" width="11.9" height="11.9"/>
			</g>
		</g>
	</g>
</g>
</svg>
